<?xml version="1.0" encoding="utf-8"?>
<COLLADA xmlns="http://www.collada.org/2005/11/COLLADASchema" version="1.4.1">
  <asset>
    <contributor>
      <author>Someone</author>
      <authoring_tool>Assimp Collada Exporter</authoring_tool>
    </contributor>
    <created>2000-01-01T23:59:59</created>
    <modified>2000-01-01T23:59:59</modified>
    <unit name="meter" meter="1" />
    <up_axis>Y_UP</up_axis>
  </asset>
  <library_images>
    <image id="m0last-diffuse-image">
      <init_from>last.png</init_from>
    </image>
  </library_images>
  <library_effects>
    <effect id="m0last-fx" name="m0last">
      <profile_COMMON>
        <newparam sid="m0last-diffuse-surface">
          <surface type="2D">
            <init_from>m0last-diffuse-image</init_from>
          </surface>
        </newparam>
        <newparam sid="m0last-diffuse-sampler">
          <sampler2D>
            <source>m0last-diffuse-surface</source>
          </sampler2D>
        </newparam>
        <technique sid="standard">
          <phong>
            <emission>
              <color sid="emission">0   0   0   0</color>
            </emission>
            <ambient>
              <color sid="ambient">1   1   1   1</color>
            </ambient>
            <diffuse>
              <texture texture="m0last-diffuse-sampler" texcoord="CHANNEL0" />
            </diffuse>
            <specular>
              <color sid="specular">0   0   0   0</color>
            </specular>
            <shininess>
              <float sid="shininess">16</float>
            </shininess>
            <reflective>
              <color sid="reflective">0   0   0   0</color>
            </reflective>
          </phong>
        </technique>
      </profile_COMMON>
    </effect>
  </library_effects>
  <library_materials>
    <material id="m0last" name="m0last">
      <instance_effect url="#m0last-fx" />
    </material>
  </library_materials>
  <library_geometries>
    <geometry id="last-mesh0" name="last-mesh0">
      <mesh>
        <source id="last-mesh0-positions" name="last-mesh0-positions">
          <float_array id="last-mesh0-positions-array" count="369"> -1.53298 -0.790003 0.800914 1.80293 -0.790003 0.800914 1.80293 -0.790003 3.22161 -1.53298 -0.790003 3.22161 1.80293 0.789993 3.22161 -1.53298 0.789993 3.22161 -1.53298 -0.790003 3.22161 1.80293 -0.790003 3.22161 -1.53298 0.789993 3.22161 -1.99182 0.789993 2.88151 -1.99182 -0.790003 2.88151 -1.53298 -0.790003 3.22161 -1.99182 0.789993 2.88151 -1.99182 0.789993 1.14102 -1.99182 -0.790003 1.14102 -1.99182 -0.790003 2.88151 -1.99182 0.789993 1.14102 -1.53298 0.789993 0.800914 -1.53298 -0.790003 0.800914 -1.99182 -0.790003 1.14102 -1.53298 0.789993 0.800914 1.80293 0.789993 0.800914 1.80293 -0.790003 0.800914 -1.53298 -0.790003 0.800914 -1.99182 -0.790003 2.88151 -1.99182 -0.790003 1.14102 -1.53298 0.789993 0.800914 -1.99182 0.789993 1.14102 -1.99182 0.789993 2.88151 -1.53298 0.789993 3.22161 1.80293 0.789993 3.22161 1.80293 0.789993 0.800914 1.7933 -1.71361 2.01126 1.7933 -0.856807 3.49528 1.7933 0.856793 3.49528 1.7933 1.71359 2.01126 1.7933 -0.856807 3.49528 2.12852 -1.71361 2.01126 2.12852 -0.856807 3.49528 1.7933 0.856793 3.49528 2.12852 0.856793 3.49528 1.7933 0.856796 0.527242 1.7933 -0.856803 0.527242 1.7933 1.71359 2.01126 2.12852 1.71359 2.01126 1.7933 0.856796 0.527242 2.12852 -1.71361 2.01126 2.12852 -0.856803 0.527242 2.12852 0.856796 0.527242 2.12852 1.71359 2.01126 2.12852 0.856793 3.49528 2.12852 -0.856807 3.49528 0.712067 -0.20038 -0.599117 1.63402 -0.20038 0.905243 1.11602 -6.86645e-006 0.899135 0.582981 -6.86645e-006 -0.307171 -0.794348 -6.86645e-006 -0.237179 -0.853258 -0.20038 -0.506528 -0.853258 0.20037 -0.506528 0.712067 0.20037 -0.599117 -0.853258 -0.20038 -0.506528 -0.345635 -0.307947 0.852889 -1.4925 -0.307947 -2.68949 -1.4925 0.307936 -2.68949 -2.9909 -0.307947 -2.68949 -3.10806 0.307936 -2.19539 -2.9909 0.307936 -2.68949 -1.47133 -0.307947 0.848244 -1.97152 0.307936 -0.687318 -1.97152 -0.307947 -0.687318 0.326883 0.159436 0.857284 0.105161 -6.86645e-006 -0.17814 -0.286371 -6.86645e-006 0.857284 0.934149 -0.862976 2.35787 0.934149 -6.86645e-006 2.00041 0.934149 0.862966 2.35787 0.934149 -0.862976 4.08381 0.934149 1.22042 3.22084 0.934149 0.862966 4.08381 -0.529028 -1.41471 1.80614 -0.529028 2.00069 3.22084 -0.529028 1.4147 1.80614 -0.529028 1.4147 4.63555 -0.529028 -2.0007 3.22084 -0.529028 -1.41471 4.63555 -0.529028 1.4147 4.63555 0.934149 -6.86645e-006 4.44127 0.934149 0.862966 4.08381 -0.529028 2.00069 3.22084 0.934149 1.22042 3.22084 -0.529028 1.4147 1.80614 0.934149 0.862966 2.35787 -0.529028 -6.86645e-006 1.22014 0.934149 -6.86645e-006 2.00041 -0.529028 -1.41471 1.80614 0.934149 -0.862976 2.35787 2.04974 1.18799 2.01126 2.46374 -6.86645e-006 2.91126 2.46374 0.899993 2.01126 2.04974 -6.86645e-006 0.823264 2.46374 -6.86645e-006 1.11126 2.04974 -1.18801 2.01126 0.934149 -1.22043 3.22084 -0.529028 -2.0007 3.22084 0.934149 -1.22043 3.22084 -0.529028 -6.86645e-006 1.22014 -0.529028 -1.41471 4.63555 0.934149 -0.862976 4.08381 0.934149 -6.86645e-006 4.44127 -0.529028 -6.86645e-006 5.22154 -0.529028 -6.86645e-006 5.22154 1.7933 -1.71361 2.01126 2.12852 -0.856803 0.527242 1.7933 -0.856803 0.527242 2.12852 0.856796 0.527242 1.63402 0.20037 0.905243 -3.10806 -0.307947 -2.19539 -0.345635 0.307936 0.852889 -1.47133 0.307936 0.848244 0.326883 -0.159446 0.857284 0.326883 0.159436 0.857284 2.04974 -6.86645e-006 3.19926 2.46374 -0.900007 2.01126 </float_array>
          <technique_common>
            <accessor count="123" offset="0" source="#last-mesh0-positions-array" stride="3">
              <param name="X" type="float" />
              <param name="Y" type="float" />
              <param name="Z" type="float" />
            </accessor>
          </technique_common>
        </source>
        <source id="last-mesh0-normals" name="last-mesh0-normals">
          <float_array id="last-mesh0-normals-array" count="369"> 0 -1 0 0 -1 0 0 -1 0 0 -1 0 0 0 1 -0.415564 0 0.909564 -0.207782 0 0.978175 0 0 1 -0.415564 0 0.909564 -0.595486 0 0.803366 -0.595486 0 0.803366 -0.207782 0 0.978175 -1 0 0 -1 0 0 -1 0 0 -1 0 0 -0.595486 0 -0.803366 -0.207782 0 -0.978175 -0.415564 0 -0.909564 -0.595486 0 -0.803366 -0.207782 0 -0.978175 0 0 -1 0 0 -1 -0.415564 0 -0.909564 0 -1 0 0 -1 0 0 1 0 0 1 0 0 1 0 0 1 0 0 1 0 0 1 0 -1 0 0 -1 0 0 -1 0 0 -1 0 0 0 -0.654654 0.755929 0 -0.981981 0.188982 0 -0.327327 0.944911 0 0.327327 0.944911 0 0.654654 0.755929 -1 0 0 -1 0 0 0 0.98198 0.188983 0 0.981981 -0.188981 0 0.654655 -0.755928 1 0 0 1 0 0 1 0 0 1 0 0 1 0 0 1 0 0 -0.0614202 -0.860225 -0.506202 0.739439 -0.497863 -0.453169 -0.797923 -0.459878 0.389657 -0.483983 0.0524745 0.873503 0.0485549 0.421496 0.905529 0.00313319 -0.994558 0.104139 -0.0512471 0.496728 -0.866392 0.433176 0.878048 -0.203448 0.00313319 -0.994558 0.104139 0.672728 -0.707107 -0.217799 0.243767 -0.768674 -0.59137 0.487535 0.768674 -0.414066 -0.739615 -0.380063 -0.555447 -0.807499 0.58842 0.0413069 -0.369808 0.380063 -0.847818 -0.850447 -0.447214 0.277021 -0.705927 0.605278 0.36784 -0.487242 -0.835545 0.253889 0.584251 0.773935 -0.244286 0.767063 -2.39704e-006 -0.641572 -0.935361 -2.78208e-006 -0.353695 1 0 0 1 0 0 1 0 0 1 0 0 1 0 0 1 0 0 -1 0 0 -1 0 0 -1 0 0 -1 0 0 -1 0 0 -1 0 0 0.467093 0.533839 0.704869 0.467093 0.120936 0.875899 0.467094 0.704869 0.533838 0.467093 0.875898 0.120936 0.467093 0.875899 -0.120936 0.467093 0.704869 -0.533839 0.467093 0.533839 -0.704869 0.467093 0.120936 -0.875899 0.467093 -0.120937 -0.875899 0.467093 -0.53384 -0.704868 0.467093 -0.704869 -0.533838 0.550816 0.791797 0.263932 0.550816 0.263932 0.791797 0.550816 0.791797 -0.263932 0.550816 0.263932 -0.791797 0.550816 -0.263932 -0.791797 0.550816 -0.791797 -0.263932 1 0 0 0.467093 -0.875898 -0.120936 0.467093 -0.875898 0.120936 -1 0 0 0.467094 -0.704869 0.533839 0.467093 -0.533839 0.704868 1 0 0 0.467093 -0.120937 0.875899 -1 0 0 0 -0.98198 -0.188983 0 -0.654653 -0.75593 0 -0.327326 -0.944911 0 0.327327 -0.944911 -0.0130745 0.999532 -0.0276412 -0.756184 -0.58842 0.286264 0.425471 0.894427 -0.137748 -0.672337 0.707107 0.219004 0.584254 -0.773934 -0.244283 0.584251 0.773935 -0.244286 0.550816 -0.263932 0.791797 0.550816 -0.791797 0.263932 </float_array>
          <technique_common>
            <accessor count="123" offset="0" source="#last-mesh0-normals-array" stride="3">
              <param name="X" type="float" />
              <param name="Y" type="float" />
              <param name="Z" type="float" />
            </accessor>
          </technique_common>
        </source>
        <source id="last-mesh0-tex0" name="last-mesh0-tex0">
          <float_array id="last-mesh0-tex0-array" count="246"> 0.762034 0.0224689 0.533345 0.0224689 0.533345 0.188145 0.762034 0.188145 0.533345 0.188145 0.762034 0.188145 0.762034 0.188145 0.533345 0.188145 0.921875 0.191406 0.921875 0.167969 0.808594 0.167969 0.808594 0.191406 0.921875 0.167969 0.921875 0.046875 0.808594 0.046875 0.808594 0.167969 0.921875 0.046875 0.921875 0.0195313 0.808594 0.0195313 0.808594 0.046875 0.762034 0.0224689 0.533345 0.0224689 0.533345 0.0224689 0.762034 0.0224689 0.793489 0.164867 0.793489 0.0457463 0.762034 0.0224689 0.793489 0.0457463 0.793489 0.164867 0.762034 0.188145 0.533345 0.188145 0.533345 0.0224689 0.706085 0.50224 0.765152 0.602848 0.883285 0.602848 0.942352 0.50224 0.984375 0.605469 0.957031 0.5 0.957031 0.605469 0.984375 0.605469 0.957031 0.605469 0.883286 0.401632 0.765152 0.401632 0.984375 0.5 0.957031 0.5 0.984375 0.398438 0.706085 0.50224 0.765152 0.401632 0.883286 0.401632 0.942352 0.50224 0.883285 0.602848 0.765152 0.602848 0.830078 0.82959 0.753906 0.957031 0.796875 0.957031 0.839844 0.859375 0.95625 0.860937 0.960547 0.8375 0.960547 0.8375 0.830078 0.82959 0.960156 0.8375 0.609905 0.957852 0.708856 0.653179 0.708856 0.653179 0.838137 0.653179 0.848246 0.695676 0.838137 0.653179 0.707029 0.957452 0.750185 0.825382 0.750185 0.825382 0.895241 0.794744 0.912642 0.709872 0.944247 0.794744 0.0535714 0.767299 0.114955 0.741629 0.1728 0.765738 0.0541295 0.884487 0.198103 0.827009 0.174107 0.884487 0.368862 0.728795 0.603237 0.825893 0.560268 0.727679 0.562415 0.923996 0.327009 0.825893 0.367273 0.923996 0.3125 0.921875 0.210938 0.910156 0.210938 0.886719 0.3125 0.824219 0.210938 0.824219 0.3125 0.730469 0.210938 0.765625 0.3125 0.6875 0.210938 0.742188 0.3125 0.730469 0.210938 0.765625 0.679688 0.503906 0.648438 0.566406 0.648438 0.503906 0.679688 0.417969 0.648438 0.4375 0.679688 0.503906 0.0301339 0.825893 0.3125 0.824219 0.210938 0.824219 0.464286 0.686942 0.3125 0.921875 0.210938 0.886719 0.115513 0.910714 0.3125 0.964844 0.464844 0.963706 0.984375 0.5 0.957031 0.398438 0.984375 0.398438 0.957031 0.398438 0.753906 0.957031 0.848246 0.695676 0.609905 0.957852 0.707029 0.957452 0.895241 0.794744 0.895241 0.794389 0.679688 0.585938 0.648438 0.503906 </float_array>
          <technique_common>
            <accessor count="123" offset="0" source="#last-mesh0-tex0-array" stride="2">
              <param name="S" type="float" />
              <param name="T" type="float" />
            </accessor>
          </technique_common>
        </source>
        <vertices id="last-mesh0-vertices">
          <input semantic="POSITION" source="#last-mesh0-positions" />
          <input semantic="NORMAL" source="#last-mesh0-normals" />
          <input semantic="TEXCOORD" source="#last-mesh0-tex0" />
        </vertices>
        <polylist count="107" material="theresonlyone">
          <input offset="0" semantic="VERTEX" source="#last-mesh0-vertices" />
          <vcount>3 3 3 3 3 3 3 3 3 3 3 3 3 3 3 3 3 3 3 3 3 3 3 3 3 3 3 3 3 3 3 3 3 3 3 3 3 3 3 3 3 3 3 3 3 3 3 3 3 3 3 3 3 3 3 3 3 3 3 3 3 3 3 3 3 3 3 3 3 3 3 3 3 3 3 3 3 3 3 3 3 3 3 3 3 3 3 3 3 3 3 3 3 3 3 3 3 3 3 3 3 3 3 3 3 3 3 </vcount>
          <p>0 1 2 0 2 3 4 5 6 4 6 7 8 9 10 8 10 11 12 13 14 12 14 15 16 17 18 16 18 19 20 21 22 20 22 23 3 24 25 3 25 0 26 27 28 26 28 29 29 30 31 29 31 26 32 33 34 32 34 35 36 37 38 39 36 38 39 38 40 35 41 42 35 42 32 43 39 40 43 40 44 45 43 44 46 47 48 46 48 49 49 50 51 49 51 46 52 53 54 55 56 57 55 57 52 58 59 52 58 52 60 59 58 56 59 56 55 61 62 63 64 65 66 67 68 69 69 62 61 69 61 67 70 71 72 73 74 75 76 77 78 79 80 81 82 83 84 85 86 87 88 87 89 88 85 87 90 89 91 90 88 89 92 91 93 92 90 91 94 93 95 96 97 98 99 96 98 99 98 100 101 99 100 94 92 93 75 102 73 103 95 104 103 94 95 81 105 79 106 104 107 106 103 104 78 108 76 109 106 107 84 110 82 36 111 37 111 112 37 111 113 112 113 114 112 113 45 114 45 44 114 52 54 55 54 115 55 55 115 59 115 53 59 59 53 52 62 69 116 69 68 116 116 68 65 68 63 65 65 63 66 63 62 66 66 62 64 62 116 64 64 116 65 61 63 117 63 68 117 117 68 118 68 67 118 72 71 119 71 120 119 76 102 77 102 75 77 79 83 80 83 82 80 85 109 86 109 107 86 96 121 97 121 122 97 121 101 122 101 100 122 </p>
        </polylist>
      </mesh>
    </geometry>
    <geometry id="parts01-mesh0" name="parts01-mesh0">
      <mesh>
        <source id="parts01-mesh0-positions" name="parts01-mesh0-positions">
          <float_array id="parts01-mesh0-positions-array" count="684"> 3.14791 -1.77916 1.77916 3.14791 -1.73251e-006 2.51611 3.14791 1.77916 1.77916 4.3903 -1.77916 1.77916 4.3903 2.51611 -1.90735e-006 4.3903 1.77916 1.77916 4.3903 -1.77916 -1.77917 4.3903 -1.73251e-006 -2.51612 4.3903 1.77916 -1.77916 3.14791 -1.77916 -1.77916 3.14791 2.51611 -1.90735e-006 3.14791 1.77916 -1.77916 3.14791 1.77916 1.77916 4.3903 -1.73251e-006 2.51611 4.3903 1.77916 1.77916 3.14791 2.51611 -1.90735e-006 4.3903 2.51611 -1.90735e-006 3.14791 1.77916 -1.77916 4.3903 1.77916 -1.77916 3.14791 -1.73251e-006 -2.51612 4.3903 -1.73251e-006 -2.51612 3.14791 -1.77916 -1.77916 4.3903 -1.77916 -1.77917 4.3903 -2.51611 -3.57628e-006 3.14791 -2.51611 -1.90735e-006 4.3903 -2.51611 -3.57628e-006 3.14791 -1.73251e-006 -2.51612 3.14791 -1.77916 1.77916 4.3903 -1.77916 1.77916 4.3903 -1.73251e-006 2.51611 3.14791 -1.73251e-006 2.51611 3.14791 -2.51611 -1.90735e-006 0.376021 -2.02177 2.02177 0.376021 -1.73251e-006 2.85922 0.376021 2.02177 2.02177 1.35702 -2.02177 2.02177 1.35702 2.85922 -1.90735e-006 1.35702 2.02177 2.02177 1.35702 -2.02177 -2.02178 1.35702 -1.73251e-006 -2.85922 1.35702 2.02177 -2.02178 0.376021 -2.02177 -2.02178 0.376021 2.85922 -1.90735e-006 0.376021 2.02177 -2.02178 0.376021 2.02177 2.02177 1.35702 -1.73251e-006 2.85922 1.35702 2.02177 2.02177 0.376021 2.85922 -1.90735e-006 1.35702 2.85922 -1.90735e-006 0.376021 2.02177 -2.02178 1.35702 2.02177 -2.02178 0.376021 -1.73251e-006 -2.85922 1.35702 -1.73251e-006 -2.85922 0.376021 -2.02177 -2.02178 1.35702 -2.02177 -2.02178 1.35702 -2.85922 -1.90735e-006 0.376021 -2.85922 -1.90735e-006 1.35702 -2.85922 -1.90735e-006 0.376021 -1.73251e-006 -2.85922 0.376021 -2.02177 2.02177 1.35702 -2.02177 2.02177 1.35702 2.02177 2.02177 1.35702 -1.73251e-006 2.85922 1.35702 -2.02177 2.02177 0.376021 -1.73251e-006 2.85922 0.376021 -2.85922 -1.90735e-006 6.00232 -0.430264 0.49824 8.21763 -1.29325 0.996482 8.21763 -0.430264 0.49824 6.00232 -0.430264 -0.498244 8.21763 -0.430264 -0.498244 6.00232 -1.29325 0.996482 6.00232 -0.430264 0.49824 6.00232 -0.430264 -0.498244 6.00232 -1.29324 -0.996486 8.21763 -1.29324 -0.996486 6.00232 -2.15623 -0.498244 8.21763 -2.15623 -0.498244 8.21763 -1.29324 -0.996486 8.21763 -2.15623 0.49824 8.21763 -2.15623 -0.498244 6.00232 -2.15623 0.49824 8.21763 -2.15623 0.49824 0 1.70072e-006 -1.26 0 -1.09119 -0.630001 0 -1.09119 0.63 0 -1.73251e-006 1.26 0 -1.73251e-006 1.26 0.43179 -1.09119 0.63 0.43179 -1.73251e-006 1.26 0 1.09119 0.63 0.43179 1.09119 0.63 0 1.09119 0.63 0 1.09119 -0.629999 0 1.70072e-006 -1.26 0.43179 1.09119 -0.629999 0.43179 1.70072e-006 -1.26 0 1.09119 -0.629999 0 -1.09119 -0.630001 6.00232 -1.29324 -0.996486 6.00232 -2.15623 -0.498244 6.00232 -1.29325 0.996482 1.11603 -2.04087 -0.431639 6.20853 -1.29324 -0.863282 6.20853 -2.04087 -0.431643 1.11603 -0.545624 -0.431639 6.20853 -0.545624 0.431639 6.20853 -0.545624 -0.431641 6.20853 -1.73251e-006 2.15652 1.11603 0.747621 1.72488 1.11603 -1.73251e-006 2.15653 6.20853 -0.747621 1.72488 1.11603 -0.747621 1.72489 6.20853 -1.73251e-006 0.429963 1.11603 -0.747621 0.861606 1.11603 -1.73251e-006 0.429965 6.20853 -0.747621 0.861604 6.20853 0.747621 0.861603 8.21763 -1.73251e-006 2.28973 6.00232 0.862981 1.79149 6.00232 -1.73251e-006 2.28973 8.21763 -0.862981 0.795001 8.21763 0.862981 1.79149 8.21763 -1.73251e-006 2.28973 8.21763 -0.862981 1.79149 6.00232 0.862981 1.79149 6.00232 0.862981 0.795001 6.00232 -1.73251e-006 0.296759 6.00232 -0.862981 0.795001 8.21763 0.862981 0.795001 8.21763 -1.73251e-006 0.296759 6.00232 -0.862981 1.79149 6.00232 -1.73251e-006 2.28973 8.21763 -0.862981 1.79149 1.11603 1.70072e-006 -2.15653 6.20853 0.747621 -1.72489 6.20853 1.70072e-006 -2.15653 1.11603 -0.747621 -1.72489 6.20853 -0.747621 -1.72489 1.11603 -1.73251e-006 -0.429966 6.20853 -0.747621 -0.861608 6.20853 -1.73251e-006 -0.429967 1.11603 -0.747621 -0.861606 1.11603 0.747621 -0.861606 6.00232 1.70072e-006 -2.28973 8.21763 0.862981 -1.79149 8.21763 1.70072e-006 -2.28973 8.21763 -0.862981 -1.79149 8.21763 1.70072e-006 -2.28973 8.21763 0.862981 -1.79149 6.00232 -0.862981 -0.795005 6.00232 -1.73251e-006 -0.296763 6.00232 0.862981 -0.795005 6.00232 0.862981 -1.79149 8.21763 -1.73251e-006 -0.296763 8.21763 0.862981 -0.795005 6.00232 1.70072e-006 -2.28973 6.00232 -0.862981 -1.79149 6.00232 -0.862981 -1.79149 6.20853 1.29324 0.863278 1.11603 2.04087 0.431639 1.11603 1.29324 0.86328 6.20853 0.545624 0.431639 1.11603 0.545624 0.431641 6.20853 1.29324 -0.863282 1.11603 0.545624 -0.431639 1.11603 1.29324 -0.86328 6.20853 0.545624 -0.431641 6.20853 2.04087 -0.431643 8.21763 1.29324 0.996482 6.00232 2.15622 0.49824 6.00232 1.29324 0.996482 8.21763 0.430264 -0.498244 8.21763 2.15622 0.49824 8.21763 1.29324 0.996482 8.21763 0.430264 0.49824 6.00232 2.15622 0.49824 6.00232 2.15623 -0.498244 6.00232 1.29324 -0.996486 6.00232 0.430264 -0.498244 8.21763 2.15623 -0.498244 8.21763 1.29324 -0.996486 6.00232 0.430264 0.49824 6.00232 1.29324 0.996482 8.21763 0.430264 0.49824 1.11603 -1.29325 0.86328 6.20853 -2.04087 0.431637 6.20853 -1.29325 0.863278 1.11603 -0.545624 0.431641 1.11603 -1.29324 -0.86328 1.11603 -2.04087 0.431639 6.00232 -2.15623 0.49824 8.21763 -0.430264 -0.498244 8.21763 -0.430264 0.49824 8.21763 -1.29325 0.996482 0 -1.09119 0.63 0.43179 -1.09119 -0.630001 6.20853 0.747621 1.72488 1.11603 0.747621 0.861606 8.21763 0.862981 1.79149 6.00232 0.862981 0.795001 8.21763 0.862981 0.795001 6.00232 -1.73251e-006 0.296759 8.21763 -1.73251e-006 0.296759 6.00232 -0.862981 0.795001 8.21763 -0.862981 0.795001 6.00232 -0.862981 1.79149 1.11603 0.747621 -1.72488 6.20853 0.747621 -0.861606 6.00232 0.862981 -1.79149 8.21763 0.862981 -0.795005 8.21763 -0.862981 -0.795005 6.00232 0.862981 -0.795005 8.21763 -1.73251e-006 -0.296763 6.00232 -1.73251e-006 -0.296763 8.21763 -0.862981 -0.795005 6.00232 -0.862981 -0.795005 8.21763 -0.862981 -1.79149 6.20853 2.04087 0.431637 1.11603 2.04087 -0.431639 8.21763 2.15622 0.49824 6.00232 2.15623 -0.498244 8.21763 2.15623 -0.498244 6.00232 1.29324 -0.996486 8.21763 1.29324 -0.996486 6.00232 0.430264 -0.498244 8.21763 0.430264 -0.498244 6.00232 0.430264 0.49824 </float_array>
          <technique_common>
            <accessor count="228" offset="0" source="#parts01-mesh0-positions-array" stride="3">
              <param name="X" type="float" />
              <param name="Y" type="float" />
              <param name="Z" type="float" />
            </accessor>
          </technique_common>
        </source>
        <source id="parts01-mesh0-normals" name="parts01-mesh0-normals">
          <float_array id="parts01-mesh0-normals-array" count="684"> -1 0 0 -1 0 0 -1 0 0 1 0 0 1 0 0 1 0 0 1 0 0 1 0 0 1 0 0 -1 0 0 -1 0 0 -1 0 0 0 0.603748 0.797175 0 0.136773 0.990602 0 0.797175 0.603748 0 0.990602 0.136774 0 0.990602 -0.136774 0 0.797175 -0.603748 0 0.603748 -0.797175 0 0.136773 -0.990602 0 -0.136774 -0.990602 0 -0.603748 -0.797175 0 -0.797175 -0.603748 1 0 0 0 -0.990602 -0.136774 0 -0.990602 0.136774 -1 0 0 0 -0.797175 0.603748 0 -0.603748 0.797175 1 0 0 0 -0.136774 0.990602 -1 0 0 -1 0 0 -1 0 0 -1 0 0 1 0 0 1 0 0 1 0 0 1 0 0 1 0 0 1 0 0 -1 0 0 -1 0 0 -1 0 0 0 0.603748 0.797175 0 0.136773 0.990602 0 0.797175 0.603748 0 0.990602 0.136774 0 0.990602 -0.136774 0 0.797175 -0.603748 0 0.603748 -0.797175 0 0.136773 -0.990602 0 -0.136774 -0.990602 0 -0.603748 -0.797175 0 -0.797175 -0.603748 1 0 0 0 -0.990602 -0.136774 0 -0.990602 0.136774 -1 0 0 0 -0.797175 0.603748 0 -0.603748 0.797175 1 0 0 1 0 0 1 0 0 0 -0.136774 0.990602 -1 0 0 0 0.755928 0.654654 0 0.188981 0.981981 0 0.944911 0.327327 0 0.944911 -0.327326 0 0.75593 -0.654653 -1 0 0 -1 0 0 -1 0 0 0 0.188984 -0.98198 0 -0.188981 -0.981981 0 -0.755928 -0.654654 0 -0.944911 -0.327327 1 0 0 1 0 0 1 0 0 0 -0.944911 0.327327 0 -0.755929 0.654654 -1 0 0 -1 0 0 -1 0 0 -1 0 0 0 -0.188983 0.98198 0 -0.755929 0.654654 0 0.188981 0.981981 0 0.755928 0.654654 0 0.944911 0.327327 -1 0 0 -1 0 0 0 0.188984 -0.98198 0 0.75593 -0.654653 0 -0.188981 -0.981981 0 0.944911 -0.327326 0 -0.755928 -0.654654 -1 0 0 -1 0 0 0 -0.188983 0.98198 0 -0.755928 -0.654654 0 -0.188981 -0.981981 0 -0.944911 -0.327327 0 0.944911 -0.327326 0 0.944911 0.327327 0 0.75593 -0.654653 0 0.188981 0.981981 0 0.755928 0.654654 0 -0.188983 0.98198 0 -0.755929 0.654654 0 -0.944911 0.327327 0 -0.188981 -0.981981 0 -0.755928 -0.654654 0 0.188984 -0.98198 0 -0.944911 -0.327327 0 0.75593 -0.654653 0 0.188981 0.981981 0 0.755928 0.654654 0 -0.188983 0.98198 1 0 0 1 0 0 1 0 0 1 0 0 -1 0 0 -1 0 0 -1 0 0 -1 0 0 1 0 0 1 0 0 -1 0 0 -1 0 0 0 -0.755929 0.654654 0 0.188984 -0.98198 0 0.75593 -0.654653 0 -0.188981 -0.981981 0 -0.755928 -0.654654 0 -0.944911 -0.327327 0 -0.188983 0.98198 0 -0.755929 0.654654 0 0.188981 0.981981 0 -0.944911 0.327327 0 0.755928 0.654654 0 0.188984 -0.98198 0 0.75593 -0.654653 0 -0.188981 -0.981981 1 0 0 1 0 0 1 0 0 -1 0 0 -1 0 0 -1 0 0 -1 0 0 1 0 0 1 0 0 -1 0 0 -1 0 0 0 -0.755928 -0.654654 0 0.188981 0.981981 0 0.755928 0.654654 0 -0.188983 0.98198 0 -0.755929 0.654654 0 -0.944911 0.327327 0 -0.188981 -0.981981 0 -0.755928 -0.654654 0 0.188984 -0.98198 0 -0.944911 -0.327327 0 0.75593 -0.654653 0 0.188981 0.981981 0 0.755928 0.654654 0 -0.188983 0.98198 1 0 0 1 0 0 1 0 0 1 0 0 -1 0 0 -1 0 0 -1 0 0 -1 0 0 1 0 0 1 0 0 -1 0 0 -1 0 0 0 -0.755929 0.654654 0 -0.188983 0.98198 0 -0.755929 0.654654 0 0.188981 0.981981 0 0.755928 0.654654 0 0.188984 -0.98198 0 -0.944911 0.327327 -1 0 0 1 0 0 1 0 0 1 0 0 0 -0.944911 0.327327 0 -0.944911 -0.327327 0 0.944911 0.327327 0 0.944911 -0.327326 0 0.944911 0.327327 0 0.944911 -0.327326 0 0.75593 -0.654653 0 0.188984 -0.98198 0 -0.188981 -0.981981 0 -0.755928 -0.654654 0 -0.944911 -0.327327 0 -0.944911 0.327327 0 0.944911 -0.327326 0 0.944911 0.327327 0 0.944911 -0.327326 0 0.944911 0.327327 1 0 0 0 0.755928 0.654654 0 0.188981 0.981981 0 -0.188983 0.98198 0 -0.755929 0.654654 0 -0.944911 0.327327 0 -0.944911 -0.327327 0 0.944911 0.327327 0 0.944911 -0.327326 0 0.944911 0.327327 0 0.944911 -0.327326 0 0.75593 -0.654653 0 0.188984 -0.98198 0 -0.188981 -0.981981 0 -0.755928 -0.654654 0 -0.944911 -0.327327 0 -0.944911 0.327327 </float_array>
          <technique_common>
            <accessor count="228" offset="0" source="#parts01-mesh0-normals-array" stride="3">
              <param name="X" type="float" />
              <param name="Y" type="float" />
              <param name="Z" type="float" />
            </accessor>
          </technique_common>
        </source>
        <source id="parts01-mesh0-tex0" name="parts01-mesh0-tex0">
          <float_array id="parts01-mesh0-tex0-array" count="456"> 0.0590278 0.667969 0.152344 0.707248 0.245443 0.667752 0.0590278 0.667969 0.285156 0.574219 0.245443 0.667752 0.0594407 0.481015 0.152344 0.442409 0.245247 0.481015 0.0594407 0.481015 0.285156 0.574219 0.245247 0.481015 0.125 0.3125 0.0351563 0.367188 0.0351563 0.3125 0.125 0.195313 0.0351563 0.195313 0.125 0.0703125 0.0351563 0.0703125 0.125 0.015625 0.0351563 0.015625 0.125 0.0703125 0.0351563 0.0703125 0.0232205 0.574219 0.125 0.195313 0.0351563 0.195313 0.152344 0.442409 0.125 0.3125 0.0351563 0.3125 0.152344 0.707248 0.125 0.367188 0.0232205 0.574219 0.0594618 0.667969 0.152344 0.707031 0.245536 0.667969 0.257276 0.677224 0.00732422 0.574707 0.0478516 0.677734 0.25761 0.471312 0.154474 0.429688 0.0498047 0.474121 0.0597098 0.481027 0.285714 0.573661 0.245536 0.481027 0.209541 0.316406 0.157647 0.417969 0.157647 0.316406 0.209541 0.21875 0.157647 0.21875 0.209541 0.113281 0.157647 0.113281 0.209541 0.015625 0.157647 0.015625 0.209541 0.113281 0.157647 0.113281 0.30207 0.574192 0.209541 0.21875 0.157647 0.21875 0.152902 0.440848 0.209541 0.316406 0.157647 0.316406 0.257276 0.677224 0.152267 0.720732 0.0478516 0.677734 0.209541 0.417969 0.0221354 0.574653 0.496094 0.25 0.25 0.359375 0.25 0.25 0.496094 0.136719 0.25 0.136719 0.496094 0.359375 0.496094 0.25 0.496094 0.136719 0.496094 0.0273438 0.25 0.0273438 0.496094 0.136719 0.25 0.136719 0.34375 0.37622 0.408245 0.491578 0.408245 0.414672 0.496094 0.25 0.25 0.25 0.509766 0.414063 0.434766 0.458203 0.435156 0.544531 0.508984 0.589063 0.628906 0.589844 0.597656 0.546875 0.597656 0.589844 0.628906 0.546875 0.597656 0.546875 0.583984 0.544922 0.582812 0.457812 0.628906 0.414063 0.597656 0.460938 0.597656 0.414063 0.628906 0.460938 0.628906 0.460938 0.496094 0.0273438 0.496094 0.136719 0.496094 0.359375 0.878906 0.253906 0.523438 0.222656 0.523438 0.253906 0.878906 0.253906 0.523438 0.308594 0.523438 0.253906 0.523438 0.34375 0.878906 0.308594 0.878906 0.34375 0.523438 0.308594 0.878906 0.308594 0.523438 0.222656 0.878906 0.253906 0.878906 0.222656 0.523438 0.253906 0.523438 0.253906 0.25 0.359375 0.496094 0.25 0.496094 0.359375 0.279255 0.414672 0.408245 0.491578 0.34375 0.53003 0.279255 0.491578 0.496094 0.25 0.496094 0.136719 0.496094 0.0273438 0.496094 0.136719 0.408245 0.414672 0.34375 0.37622 0.496094 0.25 0.496094 0.359375 0.25 0.25 0.878906 0.34375 0.523438 0.308594 0.523438 0.34375 0.878906 0.308594 0.523438 0.308594 0.878906 0.222656 0.523438 0.253906 0.523438 0.222656 0.878906 0.253906 0.878906 0.253906 0.496094 0.359375 0.25 0.25 0.25 0.359375 0.279255 0.491578 0.34375 0.53003 0.408245 0.491578 0.496094 0.136719 0.496094 0.0273438 0.496094 0.136719 0.496094 0.25 0.34375 0.37622 0.408245 0.414672 0.496094 0.359375 0.496094 0.25 0.496094 0.25 0.523438 0.34375 0.878906 0.308594 0.878906 0.34375 0.523438 0.308594 0.878906 0.308594 0.523438 0.222656 0.878906 0.253906 0.878906 0.222656 0.523438 0.253906 0.523438 0.253906 0.25 0.359375 0.496094 0.25 0.496094 0.359375 0.279255 0.414672 0.408245 0.491578 0.34375 0.53003 0.279255 0.491578 0.496094 0.25 0.496094 0.136719 0.496094 0.0273438 0.496094 0.136719 0.408245 0.414672 0.34375 0.37622 0.496094 0.25 0.496094 0.359375 0.25 0.25 0.878906 0.34375 0.523438 0.308594 0.523438 0.34375 0.878906 0.308594 0.878906 0.222656 0.878906 0.308594 0.496094 0.25 0.279255 0.414672 0.279255 0.491578 0.34375 0.53003 0.628906 0.546875 0.597656 0.460938 0.523438 0.308594 0.878906 0.253906 0.25 0.25 0.496094 0.136719 0.25 0.136719 0.496094 0.0273438 0.25 0.0273438 0.496094 0.136719 0.25 0.136719 0.496094 0.25 0.878906 0.308594 0.523438 0.253906 0.496094 0.25 0.25 0.136719 0.279255 0.414672 0.496094 0.136719 0.25 0.0273438 0.496094 0.0273438 0.25 0.136719 0.496094 0.136719 0.25 0.25 0.523438 0.308594 0.878906 0.253906 0.25 0.25 0.496094 0.136719 0.25 0.136719 0.496094 0.0273438 0.25 0.0273438 0.496094 0.136719 0.25 0.136719 0.496094 0.25 </float_array>
          <technique_common>
            <accessor count="228" offset="0" source="#parts01-mesh0-tex0-array" stride="2">
              <param name="S" type="float" />
              <param name="T" type="float" />
            </accessor>
          </technique_common>
        </source>
        <vertices id="parts01-mesh0-vertices">
          <input semantic="POSITION" source="#parts01-mesh0-positions" />
          <input semantic="NORMAL" source="#parts01-mesh0-normals" />
          <input semantic="TEXCOORD" source="#parts01-mesh0-tex0" />
        </vertices>
        <polylist count="200" material="theresonlyone">
          <input offset="0" semantic="VERTEX" source="#parts01-mesh0-vertices" />
          <vcount>3 3 3 3 3 3 3 3 3 3 3 3 3 3 3 3 3 3 3 3 3 3 3 3 3 3 3 3 3 3 3 3 3 3 3 3 3 3 3 3 3 3 3 3 3 3 3 3 3 3 3 3 3 3 3 3 3 3 3 3 3 3 3 3 3 3 3 3 3 3 3 3 3 3 3 3 3 3 3 3 3 3 3 3 3 3 3 3 3 3 3 3 3 3 3 3 3 3 3 3 3 3 3 3 3 3 3 3 3 3 3 3 3 3 3 3 3 3 3 3 3 3 3 3 3 3 3 3 3 3 3 3 3 3 3 3 3 3 3 3 3 3 3 3 3 3 3 3 3 3 3 3 3 3 3 3 3 3 3 3 3 3 3 3 3 3 3 3 3 3 3 3 3 3 3 3 3 3 3 3 3 3 3 3 3 3 3 3 3 3 3 3 3 3 3 3 3 3 3 3 </vcount>
          <p>0 1 2 3 4 5 6 7 8 9 10 11 12 13 14 15 14 16 15 12 14 17 16 18 17 15 16 19 18 20 19 17 18 21 20 22 21 19 20 8 23 6 24 22 25 24 21 22 11 26 9 27 25 28 27 24 25 5 29 3 30 27 28 2 31 0 32 33 34 35 36 37 38 39 40 41 42 43 44 45 46 47 46 48 47 44 46 49 48 50 49 47 48 51 50 52 51 49 50 53 52 54 53 51 52 40 55 38 56 54 57 56 53 54 43 58 41 59 57 60 59 56 57 61 62 63 64 59 60 34 65 32 66 67 68 69 68 70 69 66 68 71 72 73 74 70 75 74 69 70 76 75 77 76 74 75 78 79 80 81 77 82 81 76 77 83 84 85 83 85 86 87 88 89 90 87 89 90 89 91 86 92 93 86 93 83 94 95 96 97 90 91 98 94 96 73 99 100 101 81 82 102 103 104 105 106 107 108 109 110 111 108 110 111 110 112 113 114 115 116 111 112 117 113 115 118 119 120 121 122 123 121 123 124 125 126 127 125 127 128 129 122 121 129 121 130 125 128 131 125 131 132 133 118 120 134 135 136 137 134 136 137 136 138 139 140 141 142 137 138 143 139 141 144 145 146 147 148 149 150 151 152 150 152 153 154 149 155 156 157 150 156 150 153 158 144 146 159 160 161 162 159 161 162 161 163 164 165 166 167 162 163 168 164 166 169 170 171 172 173 174 172 174 175 176 177 178 176 178 179 180 173 172 180 172 181 176 179 182 176 182 183 184 169 171 185 186 187 188 185 187 188 187 106 189 105 107 190 102 104 105 188 106 3 23 4 23 8 4 9 31 10 31 2 10 12 30 13 30 28 13 35 55 36 55 40 36 41 65 42 65 34 42 44 64 45 64 60 45 66 101 67 101 82 67 71 73 191 73 100 191 78 192 79 192 193 79 79 193 194 87 195 88 195 196 88 195 98 196 98 96 196 94 97 95 97 91 95 102 189 103 189 107 103 108 197 109 197 198 109 113 116 114 116 112 114 197 117 198 117 115 198 118 199 119 199 200 119 199 201 200 201 202 200 201 203 202 203 204 202 203 205 204 205 206 204 205 133 206 133 120 206 134 207 135 207 208 135 139 142 140 142 138 140 207 143 208 143 141 208 144 209 145 209 210 145 147 149 211 149 154 211 209 212 210 212 213 210 212 214 213 214 215 213 214 216 215 216 217 215 216 158 217 158 146 217 159 218 160 218 219 160 164 167 165 167 163 165 218 168 219 168 166 219 169 220 170 220 221 170 220 222 221 222 223 221 222 224 223 224 225 223 224 226 225 226 227 225 226 184 227 184 171 227 185 190 186 190 104 186 </p>
        </polylist>
      </mesh>
    </geometry>
  </library_geometries>
  <library_visual_scenes>
    <visual_scene id="myScene" name="myScene">
      <node id="wg019" name="wg019">
        <matrix>1.94707e-007 0 1 0 0 1 0 0 -1 0 1.94707e-007 0 0 0 0 1</matrix>
        <node id="last" name="last">
          <matrix>1.94707e-007 -0 -1 0 0 1 -0 0 1 0 1.94707e-007 0 0 0 0 1</matrix>
          <instance_geometry url="#last-mesh0">
            <bind_material>
              <technique_common>
                <instance_material symbol="theresonlyone" target="#m0last" />
              </technique_common>
            </bind_material>
          </instance_geometry>
          <node id="gcol04" name="gcol04">
            <matrix>2.21972e-007 -1 -2.65684e-007 -1.39451 0.707107 -3.09086e-008 0.707107 0.794893 -0.707107 -3.44825e-007 0.707107 2.37402 0 0 0 1</matrix>
          </node>
          <node id="gcol05" name="gcol05">
            <matrix>-0.00199948 -0.999998 7.21193e-008 -1.29119 0.707106 -0.0014138 0.707106 2.76519 -0.707105 0.0014139 0.707107 4.26433 0 0 0 1</matrix>
          </node>
          <node id="null1" name="null1">
            <matrix>1 0 3.57628e-007 2.40408 0 1 0 -5.13395e-006 -3.57628e-007 0 1 2.01126 0 0 0 1</matrix>
            <node id="parts01" name="parts01">
              <matrix>1 -0 -3.57628e-007 0 0 1 -0 0 3.57628e-007 0 1 0 0 0 0 1</matrix>
              <instance_geometry url="#parts01-mesh0">
                <bind_material>
                  <technique_common>
                    <instance_material symbol="theresonlyone" target="#m0last" />
                  </technique_common>
                </bind_material>
              </instance_geometry>
              <node id="gcol02" name="gcol02">
                <matrix>1.94707e-007 0 1 9.64358 0 1 0 -1.58943e-008 -1 0 1.94707e-007 -1.29325 0 0 0 1</matrix>
              </node>
              <node id="sp" name="sp">
                <matrix>1.94707e-007 0 1 14.6436 0 1 0 -1.73251e-006 -1 0 1.94707e-007 1.29324 0 0 0 1</matrix>
              </node>
              <node id="sp1" name="sp1">
                <matrix>1.94707e-007 0 1 14.6436 0 1 0 -1.29325 -1 0 1.94707e-007 -2.52044e-006 0 0 0 1</matrix>
              </node>
              <node id="sp3" name="sp3">
                <matrix>1.94707e-007 0 1 14.6436 0 1 0 1.29326 -1 0 1.94707e-007 -2.52044e-006 0 0 0 1</matrix>
              </node>
              <node id="sp2" name="sp2">
                <matrix>1.94707e-007 0 1 14.6436 0 1 0 -1.58943e-008 -1 0 1.94707e-007 -1.29325 0 0 0 1</matrix>
              </node>
              <node id="gcol03" name="gcol03">
                <matrix>1.94707e-007 0 1 9.64358 0 1 0 1.29326 -1 0 1.94707e-007 -1.92439e-006 0 0 0 1</matrix>
              </node>
              <node id="gcol01" name="gcol01">
                <matrix>1.94707e-007 0 1 9.64358 0 1 0 -1.29325 -1 0 1.94707e-007 -1.92439e-006 0 0 0 1</matrix>
              </node>
              <node id="gcol00" name="gcol00">
                <matrix>1.94707e-007 0 1 9.64358 0 1 0 -1.73251e-006 -1 0 1.94707e-007 1.29324 0 0 0 1</matrix>
              </node>
            </node>
          </node>
        </node>
      </node>
    </visual_scene>
  </library_visual_scenes>
  <scene>
    <instance_visual_scene url="#myScene" />
  </scene>
</COLLADA>