<?xml version="1.0" encoding="utf-8"?>
<COLLADA xmlns="http://www.collada.org/2005/11/COLLADASchema" version="1.4.1">
  <asset>
    <contributor>
      <author>Someone</author>
      <authoring_tool>Assimp Collada Exporter</authoring_tool>
    </contributor>
    <created>2000-01-01T23:59:59</created>
    <modified>2000-01-01T23:59:59</modified>
    <unit name="meter" meter="1" />
    <up_axis>Y_UP</up_axis>
  </asset>
  <library_images>
    <image id="m0sexy-diffuse-image">
      <init_from>sexy.png</init_from>
    </image>
  </library_images>
  <library_effects>
    <effect id="m0sexy-fx" name="m0sexy">
      <profile_COMMON>
        <newparam sid="m0sexy-diffuse-surface">
          <surface type="2D">
            <init_from>m0sexy-diffuse-image</init_from>
          </surface>
        </newparam>
        <newparam sid="m0sexy-diffuse-sampler">
          <sampler2D>
            <source>m0sexy-diffuse-surface</source>
          </sampler2D>
        </newparam>
        <technique sid="standard">
          <phong>
            <emission>
              <color sid="emission">0   0   0   0</color>
            </emission>
            <ambient>
              <color sid="ambient">1   1   1   1</color>
            </ambient>
            <diffuse>
              <texture texture="m0sexy-diffuse-sampler" texcoord="CHANNEL0" />
            </diffuse>
            <specular>
              <color sid="specular">0   0   0   0</color>
            </specular>
            <shininess>
              <float sid="shininess">16</float>
            </shininess>
            <reflective>
              <color sid="reflective">0   0   0   0</color>
            </reflective>
          </phong>
        </technique>
      </profile_COMMON>
    </effect>
  </library_effects>
  <library_materials>
    <material id="m0sexy" name="m0sexy">
      <instance_effect url="#m0sexy-fx" />
    </material>
  </library_materials>
  <library_geometries>
    <geometry id="sexy-mesh0" name="sexy-mesh0">
      <mesh>
        <source id="sexy-mesh0-positions" name="sexy-mesh0-positions">
          <float_array id="sexy-mesh0-positions-array" count="1362"> 4.89913 -0.764736 3.53512 3.4728 -0.764736 0.845653 4.62258 -0.764736 0.511788 -1.68362 0.764738 0.845654 3.4728 -0.764736 0.845653 -1.68362 -0.764736 0.845654 3.4728 0.764738 0.845653 4.62258 0.764738 0.511788 4.62258 -0.764736 0.511788 -1.68362 -0.764736 0.845654 1.05036 -0.764736 3.684 -1.15778 -0.764736 4.29748 -2.60513 -0.764736 2.81205 -1.68362 0.764738 0.845654 -2.60513 0.764738 2.81205 -1.15778 0.764738 4.29748 1.05036 0.764738 3.684 3.4728 0.764738 0.845653 -1.88725 0.5 1.89057 -3.38938 0.5 2.39137 -3.27811 0.5 4.03592 -1.1269 0.5 4.1472 -1.1269 0.5 4.1472 -3.27811 0.5 4.03592 -3.27811 -0.5 4.03592 -1.1269 -0.5 4.1472 -3.27811 0.5 4.03592 -3.38938 0.5 2.39137 -3.38938 -0.5 2.39137 -3.27811 -0.5 4.03592 -3.38938 0.5 2.39137 -1.88725 0.5 1.89057 -1.88725 -0.5 1.89057 -3.38938 -0.5 2.39137 -1.1269 -0.5 4.1472 -3.27811 -0.5 4.03592 -3.38938 -0.5 2.39137 -1.88725 -0.5 1.89057 7.94091 0.419102 2.96034 7.94091 0 3.37944 8.63091 0 3.37944 8.63091 0.419102 2.96034 7.94091 0 3.37944 7.94091 -0.4191 2.96034 8.63091 -0.4191 2.96034 8.63091 0 3.37944 7.94091 0 2.54124 7.94091 0.419102 2.96034 8.63091 0.419102 2.96034 8.63091 0 2.54124 7.94091 -0.4191 2.96034 7.94091 0 2.54124 8.63091 0 2.54124 8.63091 -0.4191 2.96034 8.54202 0 3.63668 9.25056 -0.585722 3.29851 9.25056 0 3.63668 8.54202 0.585724 2.62218 8.54202 0 2.28401 8.54202 -0.585722 2.62218 8.54202 0 2.28401 8.54202 0.585724 2.62218 9.25056 0.585724 2.62218 8.54202 0.585724 2.62218 8.54202 0.585724 3.29851 9.25056 0.585724 3.29851 9.25056 0.585724 2.62218 8.54202 0.585724 3.29851 9.25056 0.585724 3.29851 8.54202 0.585724 3.29851 3.62622 0.415222 -3.77429 5.27499 0.415222 -2.18829 6.13436 0.415222 -2.73936 5.34389 0.415222 -4.88621 5.27499 -0.41522 -2.18829 3.62622 -0.41522 -3.77429 5.34389 -0.41522 -4.88621 6.13436 -0.41522 -2.73936 2.68739 0.415222 -2.17193 4.7454 0.415222 -1.17271 4.7454 -0.41522 -1.17271 2.68739 -0.41522 -2.17193 4.51492 0.415222 -0.0941381 2.23905 0.415222 -0.327086 2.2331 0.415222 1.32756 4.52087 0.415222 1.32756 2.23905 -0.41522 -0.327086 4.51492 -0.41522 -0.0941381 4.52087 -0.41522 1.32756 2.2331 -0.41522 1.32756 -2.35124 -0.916012 1.8287 2.45188 -0.916012 1.8287 2.45188 0.916014 1.8287 -2.35124 0.916014 1.8287 2.45188 -0.916012 1.8287 2.45188 -0.916012 0.660172 2.45188 0.916014 0.660172 2.45188 0.916014 1.8287 2.45188 -0.916012 0.660172 -1.81838 -0.916012 0.679643 -1.81838 0.916014 0.679643 2.45188 0.916014 0.660172 -1.81838 -0.916012 0.679643 -2.35124 -0.916012 1.8287 -2.35124 0.916014 1.8287 -1.81838 0.916014 0.679643 -2.35124 -0.916012 1.8287 -1.81838 -0.916012 0.679643 2.45188 -0.916012 0.660172 2.45188 -0.916012 1.8287 2.45188 0.916014 1.8287 2.45188 0.916014 0.660172 -1.81838 0.916014 0.679643 -2.35124 0.916014 1.8287 1.41374 0 0.697268 0.913033 -0.199385 -0.619643 2.02123 -0.199385 0.715816 0.727583 1.90735e-006 -0.304324 -0.885822 1.90735e-006 -0.248679 -1.03418 -0.199385 -0.730929 0.913033 0.199387 -0.619641 0.913033 -0.199385 -0.619643 -1.03418 -0.199385 -0.730929 -1.03418 0.199387 -0.730929 2.02123 0.199387 0.715816 2.02123 -0.199385 0.715816 0.913033 0.199387 -0.619641 0.727583 1.90735e-006 -0.304324 1.41374 0 0.697268 2.02123 0.199387 0.715816 -1.03418 0.199387 -0.730929 -0.885822 1.90735e-006 -0.248679 -1.97328 -0.464598 0.16323 -1.60945 -0.464598 -2.95669 -0.558556 -0.464598 0.824237 -0.558556 -0.464598 0.824237 -1.60945 -0.464598 -2.95669 -1.60945 0.4646 -2.95669 -0.558556 0.4646 0.824237 -1.60945 -0.464598 -2.95669 -3.40866 -0.464598 -2.9559 -3.40866 0.4646 -2.9559 -1.60945 0.4646 -2.95669 -3.40866 -0.464598 -2.9559 -2.72712 0.4646 -0.859265 -3.40866 0.4646 -2.9559 -1.97328 -0.464598 0.16323 -1.7048 -0.464598 0.824237 -1.7048 0.4646 0.824237 -1.60945 0.4646 -2.95669 -3.40866 0.4646 -2.9559 -2.72712 0.4646 -0.859265 -1.97328 0.4646 0.16323 -1.7048 0.4646 0.824237 -0.558556 0.4646 0.824237 -1.7048 -0.464598 0.824237 0.356667 0.182001 0.845653 0.356667 -0.181999 0.845653 -0.34804 0 0.882749 0.356667 0.182001 0.845653 -0.236771 1.90735e-006 -0.230134 0.356667 -0.181999 0.845653 0.356667 -0.181999 0.845653 -0.236771 1.90735e-006 -0.230134 -0.34804 0 0.882749 -0.34804 0 0.882749 -0.236771 1.90735e-006 -0.230134 0.356667 0.182001 0.845653 7.11555 -0.827776 3.78192 7.11555 0.827797 3.78192 7.11555 0.948931 2.89836 7.11555 -0.948956 2.89836 8.23884 -0.981031 2.68046 7.49704 -0.827795 3.78192 7.11555 -0.827776 3.78192 7.11555 -0.948956 2.89836 4.25169 0.981033 1.90289 4.25169 -0.981031 1.90289 4.82658 -0.981031 2.68191 5.20807 0.949076 2.89836 5.20807 0.827797 3.78192 5.20807 -0.827772 3.78192 5.20807 -0.949074 2.89836 5.20807 0.949076 2.89836 5.20807 -0.949074 2.89836 7.11555 -0.948956 2.89836 7.11555 0.948931 2.89836 8.25738 0.981033 1.19807 4.34441 0.981033 0.140828 4.25169 0.981033 1.90289 4.25169 0.981033 1.90289 4.34441 0.981033 0.140828 4.34441 -0.981031 0.140828 4.25169 -0.981031 1.90289 8.25738 -0.981031 1.19807 4.82658 -0.981031 2.68191 4.25169 -0.981031 1.90289 8.25738 0.981033 1.19807 8.25738 -0.981031 1.19807 4.34441 -0.981031 0.140828 4.34441 0.981033 0.140828 7.11555 0.948931 2.89836 7.11555 0.827797 3.78192 7.49704 0.827797 3.78192 8.23884 0.981033 2.68046 4.82658 0.827797 3.78192 5.20807 0.827797 3.78192 5.20807 0.949076 2.89836 5.20807 -0.949074 2.89836 5.20807 -0.827772 3.78192 4.82658 -0.827795 3.78192 5.58957 0.827797 3.78192 5.97106 0.827797 3.78192 5.97106 0.948931 2.89836 5.58957 0.949053 2.89836 6.35256 -0.827827 3.78192 6.35256 0.827797 3.78192 6.35256 0.948931 2.89836 6.35256 -0.949003 2.89836 6.35256 0.827797 3.78192 6.73405 0.827797 3.78192 6.73405 0.948931 2.89836 6.35256 0.948931 2.89836 5.58957 -0.827795 3.78192 5.58957 0.827797 3.78192 5.58957 0.949053 2.89836 5.58957 -0.949051 2.89836 5.97106 -0.827839 3.78192 5.97106 -0.949026 2.89836 5.97106 0.948931 2.89836 5.97106 0.827797 3.78192 6.73405 -0.827818 3.78192 6.73405 -0.948978 2.89836 6.73405 0.948931 2.89836 6.73405 0.827797 3.78192 5.97106 -0.949026 2.89836 5.97106 -0.827839 3.78192 5.58957 -0.827795 3.78192 5.58957 -0.949051 2.89836 6.73405 -0.948978 2.89836 6.73405 -0.827818 3.78192 6.35256 -0.827827 3.78192 6.35256 -0.949003 2.89836 7.59981 0 1.69918 8.69781 -0.439199 1.69918 8.69781 0 2.13838 8.69781 0 2.13838 8.69781 -0.439199 1.69918 8.91414 -0.254736 1.69918 8.91414 0 1.95392 7.59981 0 1.69918 8.69781 0 1.25998 8.69781 -0.439199 1.69918 8.69781 -0.439199 1.69918 8.69781 0 1.25998 8.91414 0 1.44445 8.91414 -0.254736 1.69918 7.59981 0 1.69918 8.69781 0.439201 1.69918 8.69781 0 1.25998 8.69781 0 1.25998 8.69781 0.439201 1.69918 8.91414 0.254738 1.69918 8.91414 0 1.44445 7.59981 0 1.69918 8.69781 0 2.13838 8.69781 0.439201 1.69918 8.69781 0.439201 1.69918 8.69781 0 2.13838 8.91414 0 1.95392 8.91414 0.254738 1.69918 8.91414 0.254738 1.69918 8.91414 0 1.95392 9.22066 0 1.95392 9.22066 0.254738 1.69918 8.91414 0 1.95392 8.91414 -0.254736 1.69918 9.22066 -0.254736 1.69918 9.22066 0 1.95392 8.91414 0 1.44445 8.91414 0.254738 1.69918 9.22066 0.254738 1.69918 9.22066 0 1.44445 8.91414 -0.254736 1.69918 8.91414 0 1.44445 9.22066 0 1.44445 9.22066 -0.254736 1.69918 8.18044 -0.220085 4.75734 7.65045 -0.531334 4.44609 7.65045 -0.220085 4.75734 8.18044 0.531336 4.00592 7.65045 0.531336 4.44609 7.65045 0.531336 4.00592 7.65045 0.294666 3.51462 8.18044 0.711388 3.93134 8.18044 0.294666 3.51462 7.65045 -0.711388 3.93134 7.65045 -0.294666 3.51462 8.18044 -0.294666 3.51462 8.18044 -0.711388 3.93134 7.65045 -0.711388 4.52067 8.18044 -0.711388 4.52067 7.65045 -0.294666 4.93739 4.82658 0.981033 2.68191 8.24074 0.5 2.56574 5.1393 0.5 2.56574 5.1393 0.5 3.56574 8.24074 0.5 3.56574 5.1393 -0.5 2.56574 8.24074 -0.5 2.56574 8.24074 -0.5 3.56574 5.1393 -0.5 3.56574 4.34441 -0.981031 0.140828 4.89913 0.764738 3.53512 1.05036 -0.764736 3.684 4.89913 -0.764736 3.53512 1.05036 0.764738 3.684 -1.15778 0.764738 4.29748 -1.15778 -0.764736 4.29748 -1.15778 0.764738 4.29748 -2.60513 0.764738 2.81205 -2.60513 -0.764736 2.81205 -1.15778 -0.764736 4.29748 -2.60513 0.764738 2.81205 -1.68362 0.764738 0.845654 -1.68362 -0.764736 0.845654 -2.60513 -0.764736 2.81205 7.11555 -0.827776 3.78192 7.49704 -0.827795 3.78192 7.49704 0.827797 3.78192 7.11555 0.827797 3.78192 5.20807 -0.827772 3.78192 5.20807 0.827797 3.78192 4.82658 0.827797 3.78192 4.82658 -0.827795 3.78192 5.58957 -0.827795 3.78192 5.97106 -0.827839 3.78192 5.97106 0.827797 3.78192 5.58957 0.827797 3.78192 6.73405 -0.827818 3.78192 6.73405 0.827797 3.78192 6.35256 0.827797 3.78192 6.35256 -0.827827 3.78192 8.24074 -0.5 3.56574 8.24074 0.5 3.56574 5.1393 0.5 3.56574 5.1393 -0.5 3.56574 9.25056 0.585724 3.29851 9.25056 0 3.63668 9.25056 -0.585722 3.29851 9.25056 0.585724 2.62218 9.25056 -0.585722 2.62218 9.25056 0 2.28401 5.27499 0.415222 -2.18829 5.27499 -0.41522 -2.18829 6.13436 -0.41522 -2.73936 6.13436 0.415222 -2.73936 3.62622 -0.41522 -3.77429 3.62622 0.415222 -3.77429 5.34389 0.415222 -4.88621 5.34389 -0.41522 -4.88621 5.34389 -0.41522 -4.88621 5.34389 0.415222 -4.88621 6.13436 0.415222 -2.73936 6.13436 -0.41522 -2.73936 4.7454 0.415222 -1.17271 4.7454 -0.41522 -1.17271 2.68739 -0.41522 -2.17193 2.68739 0.415222 -2.17193 4.51492 -0.41522 -0.0941381 4.51492 0.415222 -0.0941381 4.52087 0.415222 1.32756 4.52087 -0.41522 1.32756 2.23905 0.415222 -0.327086 2.23905 -0.41522 -0.327086 2.2331 -0.41522 1.32756 2.2331 0.415222 1.32756 8.23884 -0.981031 2.68046 8.23884 0.981033 2.68046 7.49704 0.827797 3.78192 7.49704 -0.827795 3.78192 8.25738 0.981033 1.19807 8.25738 -0.981031 1.19807 8.18044 -0.711388 4.52067 8.18044 -0.531334 4.00592 8.18044 -0.531334 4.44609 7.65045 -0.711388 3.93134 7.65045 -0.531334 4.44609 7.65045 -0.531334 4.00592 8.18044 -0.220085 3.69467 8.18044 -0.711388 3.93134 8.18044 -0.294666 3.51462 8.18044 -0.294666 4.93739 8.18044 -0.220085 4.75734 7.65045 -0.220085 4.75734 7.65045 -0.711388 4.52067 7.65045 -0.294666 4.93739 7.65045 0.220087 4.75734 7.65045 0.294666 4.93739 8.18044 0.294666 4.93739 8.18044 0.220087 4.75734 7.65045 0.531336 4.44609 7.65045 0.711388 4.52067 8.18044 0.711388 4.52067 8.18044 0.531336 4.44609 7.65045 0.531336 4.00592 7.65045 0.711388 3.93134 8.18044 0.711388 3.93134 8.18044 0.531336 4.00592 7.65045 0.220087 3.69467 7.65045 0.294666 3.51462 8.18044 0.294666 3.51462 8.18044 0.220087 3.69467 7.65045 -0.220085 3.69467 7.65045 -0.294666 3.51462 8.24074 -0.5 2.56574 8.24074 0.5 2.56574 8.24074 0.5 3.56574 8.24074 -0.5 3.56574 4.62258 0.764738 0.511788 4.89913 0.764738 3.53512 8.54202 0 3.63668 8.54202 -0.585722 3.29851 8.54202 -0.585722 3.29851 9.25056 -0.585722 2.62218 8.54202 -0.585722 2.62218 9.25056 0 2.28401 -2.72712 -0.464598 -0.859265 -3.40866 -0.464598 -2.9559 -2.72712 -0.464598 -0.859265 -1.97328 0.4646 0.16323 4.82658 0.981033 2.68191 4.82658 -0.827795 3.78192 4.82658 0.827797 3.78192 8.18044 -0.531334 4.44609 7.65045 -0.531334 4.00592 8.18044 0.531336 4.44609 7.65045 0.220087 4.75734 8.18044 -0.531334 4.00592 7.65045 -0.220085 3.69467 8.18044 -0.220085 3.69467 8.18044 0.220087 3.69467 7.65045 0.220087 3.69467 8.18044 0.220087 4.75734 7.65045 0.711388 3.93134 8.18044 0.711388 4.52067 7.65045 0.711388 4.52067 8.18044 0.294666 4.93739 7.65045 0.294666 4.93739 8.18044 -0.294666 4.93739 9.22066 -0.254736 1.69918 9.22066 0 1.44445 9.22066 0 1.95392 9.22066 0.254738 1.69918 </float_array>
          <technique_common>
            <accessor count="454" offset="0" source="#sexy-mesh0-positions-array" stride="3">
              <param name="X" type="float" />
              <param name="Y" type="float" />
              <param name="Z" type="float" />
            </accessor>
          </technique_common>
        </source>
        <source id="sexy-mesh0-normals" name="sexy-mesh0-normals">
          <float_array id="sexy-mesh0-normals-array" count="1362"> 0 -1 0 0 -1 0 0 -1 0 -3.69897e-007 0 -1 -0.093782 0 -0.995593 -3.69897e-007 0 -1 -0.187564 0 -0.982252 -0.278854 0 -0.960333 -0.278854 0 -0.960333 0 -1 0 0 -1 0 0 -1 0 0 -1 0 0 1 0 0 1 0 0 1 0 0 1 0 0 1 0 0 1 0 0 1 0 0 1 0 0 1 0 -0.0516629 0 0.998665 -0.0516629 0 0.998665 -0.0516629 0 0.998665 -0.0516629 0 0.998665 -0.997719 0 0.067506 -0.997719 0 0.067506 -0.997719 0 0.067506 -0.997719 0 0.067506 -0.316277 0 -0.948667 -0.316277 0 -0.948667 -0.316277 0 -0.948667 -0.316277 0 -0.948667 0 -1 0 0 -1 0 0 -1 0 0 -1 0 0 0.707105 0.707108 0 0.707105 0.707108 0 0.707105 0.707108 0 0.707105 0.707108 0 -0.707107 0.707107 0 -0.707107 0.707107 0 -0.707107 0.707107 0 -0.707107 0.707107 0 0.707105 -0.707108 0 0.707105 -0.707108 0 0.707105 -0.707108 0 0.707105 -0.707108 0 -0.707107 -0.707107 0 -0.707107 -0.707107 0 -0.707107 -0.707107 0 -0.707107 -0.707107 0 -0.188983 0.98198 0 -0.755929 0.654653 0 0.188982 0.981981 -1 0 0 -1 0 0 -1 0 0 0 0.188982 -0.981981 0 0.499999 -0.866026 0 0.499999 -0.866026 0 1 0 0 1 0 0 1 0 0 1 0 0 0.499999 0.866026 0 0.499999 0.866026 -1 0 0 0 1 0 0 1 0 0 1 0 0 1 0 0 -1 0 0 -1 0 0 -1 0 0 -1 0 0 1 0 0 1 0 0 -1 0 0 -1 0 0 1 0 0 1 0 0 1 0 0 1 0 0 -1 0 0 -1 0 0 -1 0 0 -1 0 3.97106e-007 0 1 3.97106e-007 0 1 3.97106e-007 0 1 3.97106e-007 0 1 1 0 0 1 0 0 1 0 0 1 0 0 -0.00455944 0 -0.99999 -0.00455944 0 -0.99999 -0.00455944 0 -0.99999 -0.00455944 0 -0.99999 -0.907201 0 -0.420698 -0.907201 0 -0.420698 -0.907201 0 -0.420698 -0.907201 0 -0.420698 0 -1 0 0 -1 0 0 -1 0 0 -1 0 0 1 0 0 1 0 0 1 0 0 1 0 -0.367849 -0.888483 0.274381 -0.260158 -0.894267 0.36415 -0.308502 -0.916127 0.256002 -0.151173 -0.900665 0.407369 0.0130581 -0.925462 0.378615 -0.00840585 -0.892139 0.451682 0.317918 2.8169e-006 -0.948118 0.574252 2.8169e-006 -0.818679 0.0570593 0 -0.998371 0.0570593 0 -0.998371 0.769548 1.52721e-006 -0.638589 0.769548 1.52721e-006 -0.638589 -0.189038 0.905994 0.378734 -0.210358 0.877436 0.43111 -0.367848 0.888483 0.274383 -0.308505 0.916126 0.256005 -0.0221637 0.921477 0.3878 -0.00173907 0.884323 0.466873 0 -1 0 0 -1 0 0 -1 0 0.963476 0 -0.267793 0.963476 0 -0.267793 0.963476 0 -0.267793 0.963476 0 -0.267793 -0.000441001 0 -1 -0.000441001 0 -1 -0.000441001 0 -1 -0.000441001 0 -1 -0.951015 0 0.309144 -0.91273 0 0.408564 -0.951015 0 0.309144 -0.892117 0 0.451804 -0.926489 0 0.376322 -0.926489 0 0.376322 0 1 0 0 1 0 0 1 0 0 1 0 0 1 0 0 1 0 0 -1 0 -0.0525676 0 -0.998617 -0.0525676 0 -0.998617 -0.0525676 0 -0.998617 -0.875612 0 0.483015 -0.875612 0 0.483015 -0.875612 0 0.483015 0.251218 0.967604 0.0251191 0.251218 0.967604 0.0251191 0.251218 0.967604 0.0251191 0.251221 -0.967604 0.0251161 0.251221 -0.967604 0.0251161 0.251221 -0.967604 0.0251161 -1 0 0 -1 0 0 -1 0 0 -1 0 0 -0.000481003 -0.994462 0.105092 -4.95203e-005 -0.990465 0.137762 -0.000991104 -0.990595 0.13682 -0.000603206 -0.989781 0.142595 -0.804623 0 0.593786 -0.804623 0 0.593786 -0.910163 0 0.414251 1 0 0 1 0 0 1 0 0 1 0 0 3.97106e-007 0 1 3.97106e-007 0 1 3.97106e-007 0 1 3.97106e-007 0 1 0 1 0 0 1 0 0 1 0 -0.998618 0 -0.0525496 -0.998618 0 -0.0525496 -0.998618 0 -0.0525496 -0.998618 0 -0.0525496 0 -1 0 0.000964051 -0.996278 0.0861887 0 -1 0 0.260835 0 -0.965383 0.260835 0 -0.965383 0.260835 0 -0.965383 0.260835 0 -0.965383 -0.000579634 0.990219 0.139521 0 0.990732 0.135827 -0.000907031 0.990679 0.136212 -0.000336256 0.996299 0.0859491 0.0023426 0.990571 0.136979 0 0.990711 0.135987 0.00120555 0.989936 0.141513 0.001602 -0.990153 0.13998 5.94383e-005 -0.990707 0.136012 0.00237232 -0.990569 0.136992 0.000158505 0.990723 0.135895 0 0.990732 0.135827 0.000158505 0.990723 0.135895 0.000317009 0.990714 0.135962 -1 0 0 -1 0 0 -1 0 0 -1 0 0 0 0.990732 0.135827 0 0.990732 0.135827 0 0.990732 0.135827 0 0.990732 0.135827 -1 0 0 -1 0 0 -1 0 0 -1 0 0 1 0 0 1 0 0 1 0 0 1 0 0 1 0 0 1 0 0 1 0 0 1 0 0 -2.4767e-005 -0.990719 0.135924 -0.000113926 -0.990724 0.135886 -2.4767e-005 -0.990719 0.135924 6.43926e-005 -0.990714 0.135962 4.458e-005 -0.990727 0.135865 2.47667e-005 -0.990728 0.135857 4.458e-005 -0.990727 0.135865 6.43933e-005 -0.990726 0.135874 -0.272165 -0.680414 0.680414 -0.272165 -0.680414 0.680414 -0.272165 -0.680414 0.680414 0.516347 -0.605552 0.605552 0.516347 -0.605552 0.605552 0.516347 -0.605552 0.605552 0.516347 -0.605552 0.605552 -0.272165 -0.680414 -0.680414 -0.272165 -0.680414 -0.680414 -0.272165 -0.680414 -0.680414 0.516347 -0.605552 -0.605552 0.516347 -0.605552 -0.605552 0.516347 -0.605552 -0.605552 0.516347 -0.605552 -0.605552 -0.272166 0.680412 -0.680415 -0.272166 0.680412 -0.680415 -0.272166 0.680412 -0.680415 0.516348 0.60555 -0.605553 0.516348 0.60555 -0.605553 0.516348 0.60555 -0.605553 0.516348 0.60555 -0.605553 -0.272166 0.680412 0.680415 -0.272166 0.680412 0.680415 -0.272166 0.680412 0.680415 0.516347 0.60555 0.605554 0.516347 0.60555 0.605554 0.516347 0.60555 0.605554 0.516347 0.60555 0.605554 0 0.707105 0.707108 0 0.707105 0.707108 0 0.707105 0.707108 0 0.707105 0.707108 0 -0.707107 0.707107 0 -0.707107 0.707107 0 -0.707107 0.707107 0 -0.707107 0.707107 0 0.707105 -0.707108 0 0.707105 -0.707108 0 0.707105 -0.707108 0 0.707105 -0.707108 0 -0.707107 -0.707107 0 -0.707107 -0.707107 0 -0.707107 -0.707107 0 -0.707107 -0.707107 0 0.382683 -0.92388 0 0.862856 -0.505449 0 0.382683 -0.92388 0 -0.92388 0.382683 0 -0.967538 -0.252725 0 -0.92388 0.382683 0 0.707105 -0.707108 0 0.862856 -0.505449 0 0.707105 -0.707108 0 -0.862856 -0.505449 0 -0.707107 -0.707107 0 -0.707107 -0.707107 0 -0.967538 -0.252725 0 -0.967538 0.252725 0 -0.862856 0.505449 0 -0.505449 0.862856 0.0015859 0.99549 0.0948554 0 1 0 0 1 0 0 1 0 0 1 0 0 -1 0 0 -1 0 0 -1 0 0 -1 0 0 -1 0 0.0386546 0 0.999253 0.115692 -8.20809e-007 0.993285 0.0386546 0 0.999253 0.192496 -8.20809e-007 0.981298 0.267687 -6.00776e-007 0.963506 0.267687 -6.00776e-007 0.963506 -0.716228 0 0.697867 -0.716228 0 0.697867 -0.716228 0 0.697867 -0.716228 0 0.697867 -0.905501 0 -0.424344 -0.905501 0 -0.424344 -0.905501 0 -0.424344 -0.905501 0 -0.424344 3.97106e-007 0 1 3.97106e-007 0 1 3.97106e-007 0 1 3.97106e-007 0 1 3.97106e-007 0 1 3.97106e-007 0 1 3.97106e-007 0 1 3.97106e-007 0 1 3.97106e-007 0 1 3.97106e-007 0 1 3.97106e-007 0 1 3.97106e-007 0 1 3.97106e-007 0 1 3.97106e-007 0 1 3.97106e-007 0 1 3.97106e-007 0 1 3.97106e-007 0 1 3.97106e-007 0 1 3.97106e-007 0 1 3.97106e-007 0 1 1 0 0 1 0 0 1 0 0 1 0 0 1 0 0 1 0 0 0.675565 0 0.737301 0.794747 0 0.606941 0.539797 0 0.841796 0.539797 0 0.841796 -0.665873 0 -0.746065 -0.774957 0 -0.632014 -0.543418 0 -0.839462 -0.543418 0 -0.839462 0.93841 0 -0.345524 0.93841 0 -0.345524 0.93841 0 -0.345524 0.93841 0 -0.345524 0.924579 0 0.38099 0.955239 0 0.295834 -0.907668 0 -0.419689 -0.944315 0 -0.329042 0.997739 0 0.0672126 0.990344 0 0.13863 0.999991 0 -0.00418308 0.999991 0 -0.00418308 -0.996664 0 -0.0816117 -0.987181 0 -0.159607 -0.999994 0 -0.00359417 -0.999994 0 -0.00359417 0.954564 0 0.298007 0.954564 0 0.298007 0.829436 0 0.558602 0.829436 0 0.558602 0.999922 0 0.012508 0.999922 0 0.012508 1 0 0 1 0 0 1 0 0 -1 0 0 -1 0 0 -1 0 0 1 0 0 1 0 0 1 0 0 1 0 0 1 0 0 -1 0 0 -1 0 0 -1 0 0 -1 0 0 -1 0 0 1 0 0 1 0 0 -1 0 0 -1 0 0 1 0 0 1 0 0 -1 0 0 -1 0 0 1 0 0 1 0 0 -1 0 0 -1 0 0 1 0 0 1 0 0 -1 0 0 -1 0 0 1 0 0 1 0 0 1 0 0 1 0 0 0 1 0 0 1 0 -1 0 0 -1 0 0 0 -0.944911 0.327327 0 -0.944911 -0.327327 0 -0.755929 -0.654653 0 -0.188983 -0.98198 0 -1 0 0 -1 0 -0.863462 0 0.504414 -0.851306 0 0.52467 -0.978314 0 0.207126 -1 0 0 -1 0 0 0 0.967538 -0.252725 0 0.967538 0.252725 0 -0.862856 -0.505449 0 -0.382683 -0.92388 0 0.862856 0.505449 0 0.382683 0.92388 0 0.382683 0.92388 0 -0.252725 0.967538 0 -0.505449 0.862856 0 -0.382683 -0.92388 0 0.967538 -0.252725 0 0.967538 0.252725 0 0.862856 0.505449 0 0.505449 0.862856 0 0.252725 0.967538 0 -0.252725 0.967538 1 0 0 1 0 0 1 0 0 1 0 0 </float_array>
          <technique_common>
            <accessor count="454" offset="0" source="#sexy-mesh0-normals-array" stride="3">
              <param name="X" type="float" />
              <param name="Y" type="float" />
              <param name="Z" type="float" />
            </accessor>
          </technique_common>
        </source>
        <source id="sexy-mesh0-tex0" name="sexy-mesh0-tex0">
          <float_array id="sexy-mesh0-tex0-array" count="908"> 0.355143 0.793914 0.459141 0.597593 0.375307 0.573222 0.839017 0.597593 0.459141 0.597593 0.839017 0.597593 0.459141 0.597593 0.375307 0.573222 0.375307 0.573222 0.839017 0.597593 0.635768 0.804782 0.796769 0.849564 0.906207 0.741132 0.839017 0.597593 0.906207 0.741132 0.796769 0.849564 0.635768 0.804782 0.459141 0.597593 0.816406 0.382813 0.931641 0.421875 0.921875 0.546875 0.756995 0.556696 0.756995 0.556696 0.921875 0.546875 0.921875 0.546875 0.756995 0.556696 0.921875 0.546875 0.931641 0.421875 0.931641 0.421875 0.921875 0.546875 0.931641 0.421875 0.816406 0.382813 0.816406 0.382813 0.931641 0.421875 0.756995 0.556696 0.921875 0.546875 0.931641 0.421875 0.816406 0.382813 0.722656 0.503906 0.722656 0.539063 0.667969 0.539063 0.667969 0.503906 0.722656 0.539063 0.722656 0.503906 0.667969 0.503906 0.667969 0.539063 0.722656 0.46875 0.722656 0.503906 0.667969 0.503906 0.667969 0.46875 0.722656 0.503906 0.722656 0.46875 0.667969 0.46875 0.667969 0.503906 0.675781 0.558594 0.621094 0.527344 0.621094 0.558594 0.675781 0.476563 0.675781 0.449219 0.675781 0.476563 0.675781 0.449219 0.675781 0.476563 0.621094 0.476563 0.675781 0.476563 0.675781 0.527344 0.621094 0.527344 0.621094 0.476563 0.675781 0.527344 0.621094 0.527344 0.675781 0.527344 0.272141 0.0971329 0.159149 0.206513 0.100255 0.168508 0.154427 0.020449 0.159149 0.206513 0.272141 0.0971329 0.154427 0.020449 0.100255 0.168508 0.336481 0.207641 0.195442 0.276553 0.195442 0.276553 0.336481 0.207641 0.211238 0.350937 0.367206 0.334871 0.367614 0.448985 0.21083 0.448985 0.367206 0.334871 0.211238 0.350937 0.21083 0.448985 0.367614 0.448985 0.887694 0.669352 0.533579 0.669352 0.533579 0.669352 0.887694 0.669352 0.533579 0.669352 0.533579 0.584054 0.533579 0.584054 0.533579 0.669352 0.533579 0.584054 0.848842 0.585475 0.848842 0.585475 0.533579 0.584054 0.848842 0.585475 0.887694 0.669352 0.887694 0.669352 0.848842 0.585475 0.887694 0.669352 0.848842 0.585475 0.533579 0.584054 0.533579 0.669352 0.533579 0.669352 0.533579 0.584054 0.848842 0.585475 0.887694 0.669352 0.546363 0.267667 0.586336 0.167065 0.502605 0.269084 0.599694 0.191153 0.723722 0.195404 0.734409 0.158564 0.586336 0.167065 0.586336 0.167065 0.734409 0.158564 0.734409 0.158564 0.502605 0.269084 0.502605 0.269084 0.586336 0.167065 0.599694 0.191153 0.546363 0.267667 0.502605 0.269084 0.734409 0.158564 0.723722 0.195404 0.859421 0.269482 0.83169 0.0337675 0.751595 0.319422 0.751595 0.319422 0.83169 0.0337675 0.83169 0.0337675 0.751595 0.319422 0.83169 0.0337675 0.968821 0.0338274 0.968821 0.0338274 0.83169 0.0337675 0.968821 0.0338274 0.916875 0.192231 0.968821 0.0338274 0.859421 0.269482 0.838957 0.319422 0.838957 0.319422 0.83169 0.0337675 0.968821 0.0338274 0.916875 0.192231 0.859421 0.269482 0.838957 0.319422 0.751595 0.319422 0.838957 0.319422 0.619482 0.307582 0.619482 0.307582 0.675781 0.308594 0.619482 0.307582 0.668277 0.224443 0.619482 0.307582 0.619482 0.307582 0.668277 0.224443 0.675781 0.308594 0.675781 0.308594 0.668277 0.224443 0.619482 0.307582 0.191406 0.8125 0.191406 0.8125 0.191406 0.746094 0.191406 0.746094 0.105469 0.730469 0.164063 0.8125 0.191406 0.8125 0.191406 0.746094 0.40235 0.674768 0.40235 0.674768 0.359375 0.730469 0.328125 0.746094 0.328125 0.8125 0.328125 0.8125 0.328125 0.746094 0.328125 0.746094 0.328125 0.746094 0.191406 0.746094 0.191406 0.746094 0.105748 0.622768 0.398438 0.542969 0.40235 0.674768 0.40235 0.674768 0.398438 0.542969 0.398438 0.542969 0.40235 0.674768 0.105748 0.622768 0.359375 0.730469 0.40235 0.674768 0.105748 0.622768 0.105469 0.623047 0.398438 0.542969 0.398438 0.542969 0.191406 0.746094 0.191406 0.8125 0.164063 0.8125 0.105469 0.730469 0.359375 0.8125 0.328125 0.8125 0.328125 0.746094 0.328125 0.746094 0.328125 0.8125 0.359375 0.8125 0.304688 0.8125 0.273438 0.8125 0.273438 0.746094 0.304688 0.746094 0.25 0.8125 0.25 0.8125 0.25 0.746094 0.25 0.746094 0.25 0.8125 0.21875 0.8125 0.21875 0.746094 0.25 0.746094 0.304688 0.8125 0.304688 0.8125 0.304688 0.746094 0.304688 0.746094 0.273438 0.8125 0.273438 0.746094 0.273438 0.746094 0.273438 0.8125 0.21875 0.8125 0.21875 0.746094 0.21875 0.746094 0.21875 0.8125 0.273438 0.746094 0.273438 0.8125 0.304688 0.8125 0.304688 0.746094 0.21875 0.746094 0.21875 0.8125 0.25 0.8125 0.25 0.746094 0.788352 0.372869 0.681108 0.372869 0.681463 0.414418 0.681463 0.414418 0.681108 0.372869 0.661222 0.373224 0.661278 0.397971 0.788352 0.372869 0.681463 0.329901 0.681108 0.372869 0.681108 0.372869 0.681463 0.329901 0.661222 0.348722 0.661222 0.373224 0.788352 0.372869 0.681108 0.372869 0.681463 0.329901 0.681463 0.329901 0.681108 0.372869 0.661222 0.373224 0.661222 0.348722 0.788352 0.372869 0.681463 0.414418 0.681108 0.372869 0.681108 0.372869 0.681463 0.414418 0.661278 0.397971 0.661222 0.373224 0.661222 0.373224 0.661278 0.397971 0.633878 0.397727 0.633168 0.372514 0.661278 0.397971 0.661222 0.373224 0.633168 0.372514 0.633878 0.397727 0.661222 0.348722 0.661222 0.373224 0.633168 0.372514 0.633168 0.348722 0.661222 0.373224 0.661222 0.348722 0.633168 0.348722 0.633168 0.372514 0.621094 0.140625 0.667969 0.109375 0.667969 0.140625 0.621094 0.0585938 0.667969 0.109375 0.667969 0.0585938 0.667969 0.0273438 0.621094 0.0585938 0.621094 0.0273438 0.667969 0.0585938 0.667969 0.0273438 0.621094 0.0273438 0.621094 0.0585938 0.667969 0.109375 0.621094 0.109375 0.667969 0.140625 0.359375 0.730469 0.09375 0.460938 0.324219 0.460938 0.324219 0.539063 0.09375 0.539063 0.324219 0.460938 0.09375 0.460938 0.09375 0.539063 0.324219 0.539063 0.398438 0.542969 0.351563 0.980469 0.636719 0.863281 0.351563 0.863281 0.636719 0.980469 0.796875 0.980469 0.796875 0.863281 0.796875 0.980469 0.90625 0.980469 0.90625 0.863281 0.796875 0.863281 0.984375 0.742188 0.984375 0.59375 0.914063 0.59375 0.914063 0.742188 0.191406 0.859375 0.160156 0.859375 0.160156 0.984375 0.191406 0.984375 0.328125 0.859375 0.328125 0.984375 0.359375 0.984375 0.359375 0.859375 0.304688 0.859375 0.273438 0.859375 0.273438 0.984375 0.304688 0.984375 0.21875 0.859375 0.21875 0.984375 0.25 0.984375 0.25 0.859375 0.09375 0.539063 0.09375 0.546875 0.324219 0.546875 0.324219 0.539063 0.609375 0.53125 0.563101 0.557091 0.515625 0.53125 0.609375 0.476563 0.515625 0.476563 0.564002 0.45012 0.0859375 0.210938 0.0234375 0.210938 0.0234375 0.171875 0.0859375 0.171875 0.378906 0.0976563 0.441406 0.0976563 0.441406 0.0195313 0.378906 0.0195313 0.0234375 0.0195313 0.0859375 0.0195313 0.0859375 0.171875 0.0234375 0.171875 0.0859375 0.277344 0.0234375 0.277344 0.378906 0.207031 0.441406 0.207031 0.0234375 0.351563 0.0859375 0.351563 0.0859375 0.453125 0.0234375 0.453125 0.441406 0.335938 0.378906 0.335938 0.378906 0.453125 0.441406 0.453125 0.0195313 0.734375 0.09375 0.734375 0.0898438 0.8125 0.0234375 0.8125 0.09375 0.621094 0.0195313 0.621094 0.501149 0.107077 0.514803 0.0682566 0.514803 0.0999178 0.501202 0.0621995 0.514803 0.0999178 0.514803 0.0682566 0.537454 0.0454963 0.501202 0.0621995 0.532629 0.029182 0.532452 0.138822 0.53756 0.122897 0.53756 0.122897 0.501149 0.107077 0.532452 0.138822 0.570964 0.122396 0.576389 0.138672 0.576389 0.138672 0.570964 0.122396 0.595252 0.10006 0.611178 0.104567 0.611178 0.104567 0.595252 0.10006 0.595252 0.0685096 0.611178 0.0637019 0.611178 0.0637019 0.595252 0.0685096 0.572151 0.0450368 0.576389 0.0290799 0.576389 0.0290799 0.572151 0.0450368 0.537454 0.0454963 0.532629 0.029182 0.0195313 0.460938 0.09375 0.460938 0.09375 0.539063 0.0195313 0.539063 0.375307 0.573222 0.355143 0.793914 0.675781 0.558594 0.675781 0.527344 0.675781 0.527344 0.621094 0.476563 0.675781 0.476563 0.621094 0.449219 0.916875 0.192231 0.968821 0.0338274 0.916875 0.192231 0.859421 0.269482 0.359375 0.730469 0.359375 0.8125 0.359375 0.8125 0.621094 0.109375 0.667969 0.0585938 0.621094 0.109375 0.667969 0.140625 0.621094 0.0585938 0.667969 0.0273438 0.621094 0.0273438 0.621094 0.0273438 0.667969 0.0273438 0.621094 0.140625 0.667969 0.0585938 0.621094 0.109375 0.667969 0.109375 0.621094 0.140625 0.667969 0.140625 0.621094 0.140625 0.5 0.375 0.556463 0.317116 0.556108 0.431463 0.613281 0.375 </float_array>
          <technique_common>
            <accessor count="454" offset="0" source="#sexy-mesh0-tex0-array" stride="2">
              <param name="S" type="float" />
              <param name="T" type="float" />
            </accessor>
          </technique_common>
        </source>
        <vertices id="sexy-mesh0-vertices">
          <input semantic="POSITION" source="#sexy-mesh0-positions" />
          <input semantic="NORMAL" source="#sexy-mesh0-normals" />
          <input semantic="TEXCOORD" source="#sexy-mesh0-tex0" />
        </vertices>
        <polylist count="292" material="theresonlyone">
          <input offset="0" semantic="VERTEX" source="#sexy-mesh0-vertices" />
          <vcount>3 3 3 3 3 3 3 3 3 3 3 3 3 3 3 3 3 3 3 3 3 3 3 3 3 3 3 3 3 3 3 3 3 3 3 3 3 3 3 3 3 3 3 3 3 3 3 3 3 3 3 3 3 3 3 3 3 3 3 3 3 3 3 3 3 3 3 3 3 3 3 3 3 3 3 3 3 3 3 3 3 3 3 3 3 3 3 3 3 3 3 3 3 3 3 3 3 3 3 3 3 3 3 3 3 3 3 3 3 3 3 3 3 3 3 3 3 3 3 3 3 3 3 3 3 3 3 3 3 3 3 3 3 3 3 3 3 3 3 3 3 3 3 3 3 3 3 3 3 3 3 3 3 3 3 3 3 3 3 3 3 3 3 3 3 3 3 3 3 3 3 3 3 3 3 3 3 3 3 3 3 3 3 3 3 3 3 3 3 3 3 3 3 3 3 3 3 3 3 3 3 3 3 3 3 3 3 3 3 3 3 3 3 3 3 3 3 3 3 3 3 3 3 3 3 3 3 3 3 3 3 3 3 3 3 3 3 3 3 3 3 3 3 3 3 3 3 3 3 3 3 3 3 3 3 3 3 3 3 3 3 3 3 3 3 3 3 3 3 3 3 3 3 3 3 3 3 3 3 3 3 3 3 3 3 3 3 3 3 3 3 3 </vcount>
          <p>0 1 2 3 4 5 6 7 8 0 9 1 10 11 12 13 14 15 13 15 16 17 13 16 18 19 20 18 20 21 22 23 24 22 24 25 26 27 28 26 28 29 30 31 32 30 32 33 34 35 36 34 36 37 38 39 40 38 40 41 42 43 44 42 44 45 46 47 48 46 48 49 50 51 52 50 52 53 54 55 56 57 58 59 60 61 62 63 64 65 63 65 66 67 54 56 67 56 68 59 69 57 70 71 72 70 72 73 74 75 76 74 76 77 78 79 71 78 71 70 80 81 75 80 75 74 82 83 84 82 84 85 83 82 79 83 79 78 86 87 88 86 88 89 87 86 81 87 81 80 90 91 92 90 92 93 94 95 96 94 96 97 98 99 100 98 100 101 102 103 104 102 104 105 106 107 108 106 108 109 110 111 112 110 112 113 114 115 116 117 118 119 120 121 122 120 122 123 124 125 121 124 121 120 126 127 128 126 128 129 126 130 131 126 131 127 132 133 134 135 136 137 135 137 138 139 140 141 139 141 142 143 144 145 146 147 148 149 150 151 152 153 154 134 155 132 154 149 151 154 151 152 156 157 158 159 160 161 162 163 164 165 166 167 168 169 170 168 170 171 172 173 174 172 174 175 176 177 178 179 180 181 179 181 182 183 184 185 183 185 186 187 188 189 190 191 192 190 192 193 194 195 196 197 198 199 197 199 200 201 202 203 201 203 204 205 206 207 207 201 204 208 209 210 211 212 213 211 213 214 215 216 217 215 217 218 219 220 221 219 221 222 223 224 225 223 225 226 227 228 229 227 229 230 231 232 233 231 233 234 235 236 237 235 237 238 239 240 241 239 241 242 243 244 245 246 247 248 246 248 249 250 251 252 253 254 255 253 255 256 257 258 259 260 261 262 260 262 263 264 265 266 267 268 269 267 269 270 271 272 273 271 273 274 275 276 277 275 277 278 279 280 281 279 281 282 283 284 285 283 285 286 287 288 289 290 291 292 293 294 295 296 297 298 296 298 299 300 296 299 300 299 301 302 300 301 210 195 208 207 303 205 304 305 306 304 306 307 308 309 310 308 310 311 189 204 187 196 312 194 313 314 315 316 317 318 319 320 321 319 321 322 323 324 325 323 325 326 327 328 329 327 329 330 331 332 333 331 333 334 335 336 337 335 337 338 339 340 341 339 341 342 343 344 345 343 345 346 347 348 349 350 347 349 350 349 351 351 352 350 353 354 355 353 355 356 357 358 359 357 359 360 361 362 363 361 363 364 365 366 354 365 354 353 367 368 358 367 358 357 369 370 371 369 371 372 370 369 366 370 366 365 373 374 375 373 375 376 374 373 368 374 368 367 377 378 379 377 379 380 381 378 377 381 377 382 383 384 385 386 387 388 389 390 391 392 383 385 392 385 393 394 395 396 397 394 396 397 396 398 399 392 393 399 393 400 401 397 398 401 398 402 403 399 400 403 400 404 405 401 402 405 402 406 407 403 404 407 404 408 409 405 406 409 406 410 411 407 408 411 408 412 391 411 412 391 412 389 413 409 410 413 410 414 415 416 417 415 417 418 388 413 414 388 414 386 419 17 420 17 16 420 3 6 4 6 8 4 0 10 9 10 12 9 421 69 422 69 59 422 54 423 55 423 424 55 423 425 424 425 426 424 425 60 426 60 62 426 114 117 115 117 119 115 132 427 133 427 428 133 143 429 144 429 430 144 429 146 430 146 148 430 176 178 431 178 432 431 431 432 433 194 172 195 172 175 195 195 175 208 207 204 303 204 189 303 287 434 288 434 435 288 290 436 291 436 437 291 434 438 435 438 439 435 438 440 439 440 441 439 439 441 442 441 290 442 442 290 292 436 443 437 443 287 437 437 287 289 293 444 294 444 445 294 444 446 445 446 447 445 446 448 447 448 449 447 448 302 449 302 301 449 313 316 314 316 318 314 450 451 452 451 453 452 383 390 384 390 389 384 386 395 387 395 394 387 </p>
        </polylist>
      </mesh>
    </geometry>
    <geometry id="target--a40-mesh0" name="target--a40-mesh0">
      <mesh>
        <source id="target--a40-mesh0-positions" name="target--a40-mesh0-positions">
          <float_array id="target--a40-mesh0-positions-array" count="12"> 7.91545 -0.59 3.63601 7.91545 0.59 4.81601 7.91545 -0.59 4.81601 7.91545 0.59 3.63601 </float_array>
          <technique_common>
            <accessor count="4" offset="0" source="#target--a40-mesh0-positions-array" stride="3">
              <param name="X" type="float" />
              <param name="Y" type="float" />
              <param name="Z" type="float" />
            </accessor>
          </technique_common>
        </source>
        <source id="target--a40-mesh0-normals" name="target--a40-mesh0-normals">
          <float_array id="target--a40-mesh0-normals-array" count="12"> 1 0 0 1 0 0 1 0 0 1 0 0 </float_array>
          <technique_common>
            <accessor count="4" offset="0" source="#target--a40-mesh0-normals-array" stride="3">
              <param name="X" type="float" />
              <param name="Y" type="float" />
              <param name="Z" type="float" />
            </accessor>
          </technique_common>
        </source>
        <source id="target--a40-mesh0-tex0" name="target--a40-mesh0-tex0">
          <float_array id="target--a40-mesh0-tex0-array" count="8"> 0.683594 0.0351563 0.777344 0.132813 0.683594 0.132813 0.777344 0.0351563 </float_array>
          <technique_common>
            <accessor count="4" offset="0" source="#target--a40-mesh0-tex0-array" stride="2">
              <param name="S" type="float" />
              <param name="T" type="float" />
            </accessor>
          </technique_common>
        </source>
        <vertices id="target--a40-mesh0-vertices">
          <input semantic="POSITION" source="#target--a40-mesh0-positions" />
          <input semantic="NORMAL" source="#target--a40-mesh0-normals" />
          <input semantic="TEXCOORD" source="#target--a40-mesh0-tex0" />
        </vertices>
        <polylist count="2" material="theresonlyone">
          <input offset="0" semantic="VERTEX" source="#target--a40-mesh0-vertices" />
          <vcount>3 3 </vcount>
          <p>0 1 2 0 3 1 </p>
        </polylist>
      </mesh>
    </geometry>
  </library_geometries>
  <library_visual_scenes>
    <visual_scene id="myScene" name="myScene">
      <node id="wg016" name="wg016">
        <matrix>1.94707e-007 0 1 0 0 1 0 0 -1 0 1.94707e-007 0 0 0 0 1</matrix>
        <node id="sexy" name="sexy">
          <matrix>1.94707e-007 -0 -1 0 0 1 -0 0 1 0 1.94707e-007 0 0 0 0 1</matrix>
          <instance_geometry url="#sexy-mesh0">
            <bind_material>
              <technique_common>
                <instance_material symbol="theresonlyone" target="#m0sexy" />
              </technique_common>
            </bind_material>
          </instance_geometry>
          <node id="gcol00" name="gcol00">
            <matrix>1.94707e-007 0 1 9.23499 0 1 0 -0.0103934 -1 0 1.94707e-007 2.95667 0 0 0 1</matrix>
          </node>
          <node id="gcol01" name="gcol01">
            <matrix>2.21972e-007 -1 -2.65684e-007 1.17378 0.707107 -3.09086e-008 0.707107 0.765343 -0.707107 -3.44825e-007 0.707107 3.14699 0 0 0 1</matrix>
          </node>
          <node id="gcol02" name="gcol02">
            <matrix>-0.00199948 -0.999998 7.21193e-008 1.28858 0.707106 -0.0014138 0.707106 2.95456 -0.707105 0.0014139 0.707107 5.24733 0 0 0 1</matrix>
          </node>
          <node id="target--a40" name="target--a40">
            <matrix>1 0 0 0 0 1 0 0 -0 0 1 0 0 0 0 1</matrix>
            <instance_geometry url="#target--a40-mesh0">
              <bind_material>
                <technique_common>
                  <instance_material symbol="theresonlyone" target="#m0sexy" />
                </technique_common>
              </bind_material>
            </instance_geometry>
          </node>
          <node id="sp" name="sp">
            <matrix>1.94707e-007 0 1 14.235 0 1 0 -0.0103934 -1 0 1.94707e-007 2.95667 0 0 0 1</matrix>
          </node>
        </node>
      </node>
    </visual_scene>
  </library_visual_scenes>
  <scene>
    <instance_visual_scene url="#myScene" />
  </scene>
</COLLADA>