<?xml version="1.0" encoding="utf-8"?>
<COLLADA xmlns="http://www.collada.org/2005/11/COLLADASchema" version="1.4.1">
  <asset>
    <contributor>
      <author>Someone</author>
      <authoring_tool>Assimp Collada Exporter</authoring_tool>
    </contributor>
    <created>2000-01-01T23:59:59</created>
    <modified>2000-01-01T23:59:59</modified>
    <unit name="meter" meter="1" />
    <up_axis>Y_UP</up_axis>
  </asset>
  <library_images>
    <image id="m0q-diffuse-image">
      <init_from>q.png</init_from>
    </image>
  </library_images>
  <library_effects>
    <effect id="m0q-fx" name="m0q">
      <profile_COMMON>
        <newparam sid="m0q-diffuse-surface">
          <surface type="2D">
            <init_from>m0q-diffuse-image</init_from>
          </surface>
        </newparam>
        <newparam sid="m0q-diffuse-sampler">
          <sampler2D>
            <source>m0q-diffuse-surface</source>
          </sampler2D>
        </newparam>
        <technique sid="standard">
          <phong>
            <emission>
              <color sid="emission">0   0   0   0</color>
            </emission>
            <ambient>
              <color sid="ambient">1   1   1   1</color>
            </ambient>
            <diffuse>
              <texture texture="m0q-diffuse-sampler" texcoord="CHANNEL0" />
            </diffuse>
            <specular>
              <color sid="specular">0   0   0   0</color>
            </specular>
            <shininess>
              <float sid="shininess">16</float>
            </shininess>
            <reflective>
              <color sid="reflective">0   0   0   0</color>
            </reflective>
          </phong>
        </technique>
      </profile_COMMON>
    </effect>
  </library_effects>
  <library_materials>
    <material id="m0q" name="m0q">
      <instance_effect url="#m0q-fx" />
    </material>
  </library_materials>
  <library_geometries>
    <geometry id="q-mesh0" name="q-mesh0">
      <mesh>
        <source id="q-mesh0-positions" name="q-mesh0-positions">
          <float_array id="q-mesh0-positions-array" count="762"> -0.294853 -0.14203 0.770667 0.0668895 0 -0.319271 0.152804 0 0.218913 0.500982 0 0.675693 -1.58901 -0.664729 0.809523 -0.878538 -0.68836 1.71118 -1.13938 0 2.39953 -2.19813 -0.484369 -0.670956 -2.0216 0 1.20227 -2.23344 -0.374023 -1.74733 -2.60107 0 -0.561481 -1.96437 -0.221236 -2.21086 -2.55147 0 -1.81974 -1.70378 -0.221236 -2.09706 -1.69094 0 -2.37554 -1.52816 0 -2.02408 -1.70378 0.22123 -2.09706 -0.165895 1.19227 3.5918 -0.165895 0 4.08566 0.807589 0 4.3465 0.807589 1.37671 3.77625 -0.878538 0.688354 3.08789 -0.87854 0 3.37302 -0.878538 -0.973484 2.39953 -0.878538 -0.68836 3.08789 -1.13938 0 2.39953 -0.165895 -1.19227 3.5918 0.807589 -1.94697 2.39953 0.807589 -1.37672 3.77625 -0.878538 -0.68836 1.71118 -0.165899 1.19227 1.20726 -0.165895 1.68613 2.39953 0.807589 1.94697 2.39953 0.807589 1.37671 1.02282 -0.878538 0.68836 1.71118 -0.878538 0.973484 2.39953 -0.878538 0 1.42605 7.79277 0.426038 2.32718 7.79277 0.426038 2.47189 7.78867 1.2551 2.39954 7.79274 -0.0723531 1.97349 7.79274 0.0723531 1.97349 7.78864 0 1.14443 7.79274 -0.426051 2.47189 7.79274 -0.426051 2.32718 7.78864 -1.2551 2.39954 0.743379 -1.51439 0.885147 0.743379 -1.98485 2.02094 0.743379 -1.98485 2.77813 0.743379 -1.51439 3.91392 1.51522 0 4.30155 2.28705 -1.51439 3.91392 2.28705 0 4.5412 1.51522 -1.34493 3.74446 0.743379 0 4.5412 0.743379 -1.51439 3.91392 2.28705 -1.51439 0.885147 2.28705 0 4.5412 2.28705 -1.51439 3.91392 1.51522 -1.90201 2.39953 0.743379 -1.98485 2.77813 1.51522 0 0.497522 0.743379 -1.51439 0.885147 0.743379 0 0.25787 0.743379 1.51438 3.91392 0.743379 1.98484 2.77813 0.743379 1.98484 2.02094 0.743379 1.51438 0.885147 1.51522 1.34492 1.05461 0.743379 1.51438 0.885147 2.28705 1.51438 3.91392 2.28705 0 0.25787 2.28705 1.51438 0.885147 1.51522 1.90201 2.39953 0.743379 1.98484 2.02094 1.51522 1.34492 3.74446 0.743379 -1.98485 2.02094 1.51522 -1.34493 1.05461 0.743379 1.98484 2.77813 0.743379 0 4.5412 0.743379 0 0.25787 2.28705 2.14166 2.39953 2.28705 -2.14166 2.39953 7.56828 0 2.71939 5.24745 0.319858 2.39953 5.24745 0 2.71939 7.76552 -0.421533 2.64291 7.56828 0 2.71939 7.56828 -0.319864 2.39953 7.76552 -0.421533 2.15616 7.76552 0.421527 2.15616 7.56828 0 2.07968 7.56828 0.319858 2.39953 8.43858 0 2.88628 8.66293 -0.307716 2.5772 8.66293 0 2.75486 8.43858 -0.421533 2.64291 7.76552 0 2.88628 8.43858 -0.421533 2.15616 8.43858 0 1.91279 8.43858 0.421527 2.15616 7.76552 0 1.91279 8.43858 0.421527 2.64291 7.76552 0.421527 2.64291 7.56828 -0.319864 2.39953 5.24745 -0.319864 2.39953 7.56828 0 2.07968 7.79274 0.0723531 2.82558 7.79274 -0.0723531 2.82558 7.78864 0 3.65464 -1.34261 -1.12517 3.7461 -2.4391 0 3.31954 -2.07169 -1.2173 3.16122 0.743372 -1.98485 2.02094 0.743372 -1.98485 2.77813 -0.588937 -1.60281 3.25803 -1.01783 -1.77565 2.77088 -1.34261 1.12516 3.7461 -1.01783 1.77564 2.77088 -2.07169 1.21729 3.16122 -0.588937 1.60281 3.25803 0.743372 1.98484 2.77813 0.743372 1.98484 2.02094 -1.10683 -1.2173 4.65077 -1.61027 0 3.91945 -1.10683 1.21729 4.65077 -0.319724 1.77564 3.84861 -0.978501 1.13381 4.52843 -1.27558 0 4.79758 -1.4017 0 3.78431 0.743372 1.98484 2.02094 0.746724 1.84871 2.77689 -0.591433 1.49288 3.25938 -1.18442 1.04432 3.64355 -0.311251 1.65386 3.84525 -2.07169 1.21729 3.16122 -2.4391 0 3.31954 -0.319724 -1.77565 3.84861 0.746724 -1.84872 2.77689 -0.311251 -1.65387 3.84525 -1.40153 0 4.92134 -0.978501 -1.13381 4.52843 -1.27558 0 4.79758 -0.978501 1.13381 4.52843 -1.01783 1.77564 2.77088 5.31258 -0.740974 1.97174 5.31258 0 1.54394 5.31258 0.740967 1.97174 5.31258 -0.740974 2.82734 4.69123 0.740967 2.82734 5.31258 0 3.25514 5.31258 0.740967 2.82734 2.21481 0 4.34651 2.21481 -1.37672 3.77625 4.69123 -0.740974 2.82734 4.69123 0 3.25514 4.69123 0 3.25514 4.69123 -0.740974 2.82734 5.31258 -0.740974 2.82734 2.21481 1.37671 3.77625 4.69123 0.740967 2.82734 2.21481 -1.94697 2.39954 2.21481 -1.37672 1.02282 4.69124 -0.740974 1.97174 4.69124 -0.740974 1.97174 5.31258 -0.740974 1.97174 5.31258 -0.740974 2.82734 4.69123 -0.740974 2.82734 4.69123 0.740967 2.82734 5.31258 0.740967 2.82734 5.31258 0.740967 1.97174 4.69124 0.740967 1.97174 2.21481 1.94697 2.39954 2.21481 1.37671 3.77625 4.69123 0.740967 2.82734 4.69124 0 1.54394 4.69124 0.740967 1.97174 5.31258 0.740967 1.97174 5.31258 0 1.54394 2.21481 0 0.452569 2.21481 1.37671 1.02282 4.69124 0.740967 1.97174 4.69124 0 1.54394 4.69124 -0.740974 1.97174 5.31258 -0.740974 1.97174 2.21481 -1.37672 1.02282 4.69124 -0.740974 1.97174 4.69124 0.740967 1.97174 2.21481 1.37671 1.02282 4.69123 -0.740974 2.82734 2.21481 -1.37672 3.77625 -0.819381 -0.14203 -0.0931445 -0.819381 0.14203 -0.0931445 -0.294853 0.14203 0.770667 -0.878538 0.68836 1.71118 -1.58901 0.664729 0.809523 -0.165899 0.63339 0.975768 -0.974813 0.603203 0.252004 0.229283 0 0.607517 -0.594659 0 -0.0930046 -0.165899 -0.633397 0.975768 -0.974813 -0.603203 0.252004 -2.19814 0.484363 -0.670956 -1.63982 0.484363 -0.853117 -1.30444 0 -0.971163 -1.63982 -0.484369 -0.853117 -2.23344 0.374016 -1.74733 -1.82518 0.374016 -1.65617 -1.55172 0 -1.61059 -1.82518 -0.374023 -1.65617 -2.13165 0 -2.28409 -1.96437 0.22123 -2.21086 -0.165895 -1.68613 2.39953 0.807589 -1.37672 1.02282 -0.165899 -1.19227 1.20726 0.807589 0 0.452562 -0.165899 0 0.713406 8.41987 0.426038 2.39954 8.41984 0 1.97349 8.41984 -0.426051 2.39954 2.28705 -2.14166 2.39953 0.743379 1.51438 3.91392 2.28705 -1.51439 0.885147 2.28705 0 0.25787 2.28705 1.51438 0.885147 2.28705 2.14166 2.39953 2.28705 1.51438 3.91392 7.56828 0.319858 2.39953 5.24745 0 2.07968 8.66293 -0.307716 2.5772 8.66293 -0.307716 2.22188 8.66293 0 2.75486 8.66293 -0.307716 2.5772 7.87765 0 2.39954 8.66293 -0.307716 2.22188 8.66293 0 2.04421 8.66293 0 2.04421 8.66293 0.307716 2.22188 8.66293 0.307716 2.5772 8.66293 0.307716 2.22188 8.66293 0.307716 2.5772 8.41984 0 2.82558 0.746724 1.84871 2.77689 -0.311251 1.65386 3.84525 -0.978501 -1.13381 4.52843 -0.311251 -1.65387 3.84525 -0.591433 -1.49289 3.25938 0.746724 -1.84872 2.77689 0.743372 -1.98485 2.02094 -1.18442 -1.04432 3.64355 -2.07169 -1.2173 3.16122 -1.01783 -1.77565 2.77088 5.31258 0.740967 2.82734 5.31258 0 3.25514 </float_array>
          <technique_common>
            <accessor count="254" offset="0" source="#q-mesh0-positions-array" stride="3">
              <param name="X" type="float" />
              <param name="Y" type="float" />
              <param name="Z" type="float" />
            </accessor>
          </technique_common>
        </source>
        <source id="q-mesh0-normals" name="q-mesh0-normals">
          <float_array id="q-mesh0-normals-array" count="762"> 0.184768 -0.979337 -0.0822172 0.197832 -0.640659 -0.741902 0.641374 0.70812 -0.295306 0.795301 0 -0.606215 -0.359858 -0.919482 0.15829 -0.193644 -0.973765 0.11951 -0.769443 -0.28347 0.572365 -0.4246 -0.905219 0.0171029 -0.890105 0.00428067 0.455735 -0.360374 -0.901482 -0.239709 -0.991206 -0.00509151 0.132233 -0.219226 -0.751116 -0.622708 -0.921705 0.00492497 -0.38786 0.440498 -0.833511 -0.333498 0.423455 7.54845e-006 -0.905917 0.976668 -0.145331 -0.158112 0.603874 0.753232 -0.260727 -0.503766 0.599036 0.622395 -0.503765 -0.016516 0.863683 -0.256548 0.132197 0.957448 -0.256546 0.770496 0.583541 -0.839013 0.340283 0.424575 -0.839014 -0.0596041 0.540836 -0.839014 -0.540836 -0.0596042 -0.839014 -0.424577 0.34028 -1 1.26061e-007 -3.10304e-007 -0.503766 -0.622396 0.599036 -0.25655 -0.957448 0.132196 -0.25655 -0.583541 0.770495 -0.839014 -0.340282 -0.424574 -0.503765 0.622396 -0.599036 -0.503764 0.863683 0.0165182 -0.256544 0.957449 -0.132196 -0.256546 0.583542 -0.770495 -0.839014 0.424575 -0.340281 -0.839014 0.540835 0.059606 -0.839014 0.0596047 -0.540835 -0.665666 0.0616073 -0.743703 -0.665664 0.0616104 0.743704 -0.976866 0.213851 -1.13189e-006 -0.665666 -0.743702 -0.0616101 -0.665666 0.743702 -0.0616101 -0.976867 0 -0.213849 -0.665666 -0.0616104 0.743702 -0.665666 -0.0616104 -0.743702 -0.976867 -0.21385 0 -1 1.26061e-007 -3.10304e-007 -1 1.26061e-007 -3.10304e-007 -1 1.26061e-007 -3.10304e-007 -1 1.26061e-007 -3.10304e-007 -5.705e-007 8.61343e-007 1 -0.293987 -0.577069 0.761947 -0.293987 0.13073 0.946827 -6.7677e-007 -0.707108 0.707106 0.293986 -0.130729 0.946828 0.293987 -0.761948 0.577067 1 0 0 1 0 0 1 0 0 0.0168758 -0.999858 1.93229e-007 0.195558 -0.962486 0.188088 -6.43211e-007 7.99818e-007 -1 0.293988 -0.577067 -0.761948 0.293987 0.13073 -0.946827 -1 1.26061e-007 -3.10304e-007 -1 1.26061e-007 -3.10304e-007 -1 1.26061e-007 -3.10304e-007 -1 1.26061e-007 -3.10304e-007 -6.26431e-007 0.707107 -0.707107 0.293987 0.761947 -0.577068 1 0 0 1 0 0 1 0 0 0.0168731 0.999858 -8.48322e-008 0.19555 0.962488 -0.188088 -8.61342e-007 0.707107 0.707106 0.223798 -0.941988 -0.250148 2.74064e-007 -0.707107 -0.707106 0.223793 0.941989 0.250149 -1 1.26061e-007 -3.10304e-007 -1 1.26061e-007 -3.10304e-007 1 0 0 1 0 0 0 0.316233 0.948682 0 0.948685 0.316224 0 -0.316223 0.948685 -0.363036 -0.841906 0.399248 -0.729166 -0.0933872 0.677935 -0.736042 -0.647484 -0.197501 -0.306296 -0.777501 -0.549249 -0.363034 0.841908 -0.399246 -0.729164 0.0933956 -0.677936 -0.736039 0.647489 0.197497 0.266162 0.0106125 0.96387 0.498619 -0.655254 0.56747 0.498611 0.163818 0.851205 0.266165 -0.829431 0.491123 -0.395078 0.000935728 0.918647 0.266165 -0.84004 -0.472747 0.266162 -0.0106057 -0.96387 0.266156 0.829435 -0.491119 -0.395077 -0.000928289 -0.918647 0.266156 0.840042 0.472747 -0.306297 0.777503 0.549246 0 -0.948683 0.31623 0 -0.948681 -0.316235 0 -0.31622 -0.948686 -0.665666 0.743702 0.0616101 -0.665666 -0.743702 0.0616101 -0.976867 0 0.213849 -0.646689 -0.63011 0.42983 -0.831063 -0.0821453 -0.550079 -0.575975 -0.348834 -0.739302 -0.422375 -0.153639 -0.893305 0.0581572 -0.956005 0.287529 -0.280566 -0.938828 0.199714 -0.446024 -0.385569 -0.807712 -0.656635 0.630107 0.414483 -0.380808 0.423312 -0.822066 -0.723089 0.27649 -0.633005 -0.325412 0.936723 0.129065 0.0581572 0.956005 0.287529 -0.422375 0.153639 -0.893305 -0.110015 -0.476035 0.872518 -0.839279 -7.92391e-007 0.543701 0.0241277 0.638449 0.769286 0.413722 0.613736 0.67243 0.900933 -0.256045 0.350371 0.972293 0.0525773 0.227777 0.794635 -0.101667 -0.598515 -0.422375 0.153639 -0.893305 0.635825 -0.625076 0.452777 0.250223 -0.93589 -0.24799 0.559051 -0.689721 -0.460159 0.736498 -0.512004 0.442067 -0.723089 0.27649 -0.633005 -0.831063 -0.0821453 -0.550079 0.210052 -0.77882 0.591031 0.635822 0.625079 0.452776 0.734933 0.410276 0.539952 -0.013581 0.0739703 0.997168 0.844459 0.383342 0.374083 0.972293 0.0525773 0.227777 0.900933 -0.256045 0.350371 -0.380808 0.423312 -0.822066 1 0 0 1 0 0 1 0 0 1 0 0 0 0.866026 0.499999 0 0.188984 0.98198 0 0.866026 0.499999 0.410019 -0.165112 0.897008 0.411895 -0.647577 0.641083 0.431938 -0.711448 0.554321 0.421879 0.125096 0.897981 0 -0.188981 0.981981 0 -0.866025 0.500001 0 -0.866025 0.500001 0.404744 0.586396 0.701657 0.437779 0.798892 0.412458 0.402703 -0.915331 8.83617e-007 0.404745 -0.586394 -0.701657 0.43778 -0.798892 -0.412457 0 -0.866025 -0.500001 0 -0.866025 -0.500001 0 -0.866025 0.500001 0 -0.866025 0.500001 0 0.866026 0.499999 0 0.866026 0.499999 0 0.866026 -0.499999 0 0.866026 -0.499999 0.402703 0.915331 8.83617e-007 0.404744 0.586396 0.701657 0.437779 0.798892 0.412458 0 0.188984 -0.98198 0 0.866026 -0.499999 0 0.866026 -0.499999 0 -0.188981 -0.981981 0.410021 0.165114 -0.897006 0.411896 0.647577 -0.641082 0.431939 0.711449 -0.554319 0.42188 -0.125093 -0.89798 0 -0.866025 -0.500001 0 -0.866025 -0.500001 0.404745 -0.586394 -0.701657 0.43778 -0.798892 -0.412457 0.431939 0.711449 -0.554319 0.411896 0.647577 -0.641082 0.431938 -0.711448 0.554321 0.411895 -0.647577 0.641083 -0.0762046 -0.682213 -0.727171 0.0365526 0.871937 -0.488252 0.168879 0.978909 -0.114968 -0.427493 0.849274 0.309811 -0.375534 0.918217 0.125903 0.198479 0.947016 -0.25252 0.291398 0.893055 -0.342842 0.623902 0.271107 -0.732972 0.723586 -0.0172346 -0.690019 0.361452 -0.822576 -0.439 0.332411 -0.88711 -0.320217 -0.426688 0.903911 -0.0297072 0.368668 0.884229 -0.286747 0.875828 -0.0246491 -0.481994 0.401341 -0.879973 -0.254112 -0.344113 0.888916 -0.302348 0.474429 0.84919 -0.231934 0.987691 0.00528465 -0.156331 0.45516 -0.879223 -0.140698 -0.526574 0.149998 -0.836792 -0.0685765 0.81854 -0.570342 -0.503766 -0.863682 -0.0165172 -0.25655 -0.770495 -0.583541 -0.503766 -0.599037 -0.622394 -0.256548 -0.132196 -0.957448 -0.503766 0.0165176 -0.863682 0.795643 0.605766 -3.11493e-006 0.795642 0 -0.605767 0.795641 -0.605769 0 -0.293987 -0.946827 0.130728 0.293986 0.577069 0.761947 -0.293989 -0.761948 -0.577067 -0.293988 -0.130729 -0.946827 -0.293989 0.577068 -0.761947 -0.293987 0.946827 -0.13073 -0.293987 0.761948 0.577068 0 0.948683 -0.316229 0 0.31623 -0.948683 0.498619 -0.655254 0.56747 0.498624 -0.819067 -0.283733 0.41224 0 -0.911075 0.412241 0.789013 -0.455539 1 0 0 0.412241 0.789015 0.455536 0.412243 0 0.911074 0.49862 -0.163814 -0.851201 0.49861 0.655262 -0.567468 0.498603 0.819077 0.283738 0.412241 -0.789015 0.455536 0.412241 -0.789013 -0.455539 0.795642 0 0.605767 0.635825 -0.625076 0.452777 0.736498 -0.512004 0.442067 0.844459 0.383342 0.374083 0.734933 0.410276 0.539952 0.2957 0.913497 -0.279438 0.635822 0.625079 0.452776 -0.422375 -0.153639 -0.893305 0.68369 0.495524 -0.535746 -0.575975 -0.348834 -0.739302 -0.446024 -0.385569 -0.807712 1 0 0 1 0 0 </float_array>
          <technique_common>
            <accessor count="254" offset="0" source="#q-mesh0-normals-array" stride="3">
              <param name="X" type="float" />
              <param name="Y" type="float" />
              <param name="Z" type="float" />
            </accessor>
          </technique_common>
        </source>
        <source id="q-mesh0-tex0" name="q-mesh0-tex0">
          <float_array id="q-mesh0-tex0-array" count="508"> 0.707897 0.427221 0.6708 0.315603 0.661989 0.370717 0.626283 0.417495 0.874645 0.589474 0.810723 0.683693 0.837473 0.754185 0.913329 0.4461 0.919306 0.622345 0.89654 0.346724 0.952666 0.451047 0.864384 0.307333 0.925281 0.335199 0.841648 0.321878 0.836283 0.295992 0.82627 0.331332 0.841648 0.321878 0.737641 0.876283 0.737641 0.926857 0.637809 0.95357 0.637809 0.895171 0.810723 0.824678 0.810723 0.853878 0.810723 0.754185 0.810723 0.824678 0.837473 0.754185 0.737641 0.876283 0.637809 0.754185 0.637809 0.895171 0.810723 0.683693 0.737641 0.632088 0.737641 0.754185 0.637809 0.754185 0.637809 0.613199 0.810723 0.683693 0.810723 0.754185 0.810723 0.654493 0.136719 0.175781 0.136719 0.175781 0.136719 0.292969 0.136719 0.175781 0.136719 0.175781 0.136719 0.292969 0.136719 0.175781 0.136719 0.175781 0.136719 0.292969 0.578125 0.433594 0.578125 0.566406 0.578125 0.652344 0.578125 0.789063 0.484375 0.972656 0.386719 0.789063 0.386719 0.972656 0.484375 0.789063 0.578125 0.972656 0.578125 0.789063 0.386719 0.433594 0.386719 0.972656 0.386719 0.789063 0.484375 0.613281 0.578125 0.652344 0.484375 0.25 0.578125 0.433594 0.578125 0.25 0.578125 0.789063 0.578125 0.652344 0.578125 0.566406 0.578125 0.433594 0.484375 0.433594 0.578125 0.433594 0.386719 0.789063 0.386719 0.25 0.386719 0.433594 0.484375 0.613281 0.578125 0.566406 0.484375 0.789063 0.578125 0.566406 0.484375 0.433594 0.578125 0.652344 0.578125 0.972656 0.578125 0.25 0.386719 0.613281 0.386719 0.613281 0.153311 0.131504 0.4236 0.0937496 0.4236 0.131504 0.134911 0.122476 0.153311 0.131504 0.153311 0.0937496 0.134911 0.0650233 0.134911 0.0650233 0.153311 0.0559949 0.153311 0.0937496 0.0548847 0.151203 0.0295114 0.11472 0.0295114 0.13569 0.0548847 0.122476 0.134911 0.151203 0.0548847 0.0650233 0.0548847 0.0362968 0.0548847 0.0650233 0.134911 0.0362968 0.0548847 0.122476 0.134911 0.122476 0.153311 0.0937496 0.4236 0.0937496 0.153311 0.0559949 0.136719 0.175781 0.136719 0.175781 0.136719 0.292969 0.8125 0.140625 0.964844 0.03125 0.820313 0.0390625 0.488281 0.101563 0.53125 0.175781 0.683594 0.140625 0.695313 0.0664063 0.8125 0.140625 0.695313 0.0664063 0.820313 0.0390625 0.683594 0.140625 0.53125 0.175781 0.488281 0.101563 0.820313 0.238281 0.964844 0.136719 0.820313 0.238281 0.695313 0.210938 0.927145 0.980922 0.991667 0.984457 0.991667 0.934962 0.778919 0.919053 0.798101 0.952639 0.866111 0.93673 0.923658 0.93673 0.871342 0.968548 0.927145 0.890771 0.991667 0.887235 0.695313 0.210938 0.53125 0.175781 0.695313 0.210938 0.964844 0.246094 0.820313 0.238281 0.964844 0.246094 0.820313 0.238281 0.871342 0.903144 0.0386673 0.364631 0.109375 0.323012 0.180083 0.364631 0.0386673 0.447869 0.117188 0.894531 0.0546875 0.96875 0.0546875 0.894531 0.351563 0.96875 0.351563 0.835938 0.117188 0.894531 0.117188 0.96875 0.117188 0.96875 0.117188 0.894531 0.0546875 0.894531 0.351563 0.835938 0.117188 0.894531 0.349938 0.625 0.349938 0.49315 0.117188 0.582031 0.117188 0.582031 0.0546875 0.582031 0.0546875 0.667969 0.117188 0.667969 0.117188 0.667969 0.0546875 0.667969 0.0546875 0.582031 0.117188 0.582031 0.349938 0.625 0.349938 0.75685 0.117188 0.667969 0.242188 0.835938 0.242188 0.761719 0.304688 0.761719 0.304688 0.835938 0.0078125 0.835938 0.0078125 0.703125 0.242188 0.761719 0.242188 0.835938 0.242188 0.761719 0.304688 0.761719 0.0078125 0.703125 0.242188 0.761719 0.117188 0.582031 0.349938 0.49315 0.117188 0.667969 0.349938 0.75685 0.761688 0.33876 0.761688 0.33876 0.707897 0.427221 0.810723 0.683693 0.874645 0.589474 0.737641 0.608381 0.811237 0.542814 0.697115 0.57067 0.771992 0.51394 0.737641 0.608381 0.811237 0.542814 0.913329 0.4461 0.858419 0.436383 0.825321 0.429737 0.858419 0.436383 0.89654 0.346724 0.859619 0.361351 0.834657 0.3697 0.859619 0.361351 0.878976 0.297981 0.864384 0.307333 0.737641 0.754185 0.637809 0.613199 0.737641 0.632088 0.637809 0.554801 0.737641 0.581513 0.0429688 0.175781 0.0429688 0.175781 0.0429688 0.175781 0.386719 0.613281 0.578125 0.789063 0.386719 0.433594 0.386719 0.25 0.386719 0.433594 0.386719 0.613281 0.386719 0.789063 0.153311 0.0937496 0.4236 0.0559949 0.0295114 0.11472 0.0295114 0.0727795 0.2625 0.295703 0.208594 0.264063 0.263672 0.230859 0.208203 0.199219 0.263672 0.167578 0.0295114 0.0518091 0.0295114 0.0727795 0.0295114 0.11472 0.318359 0.198438 0.317969 0.265234 0.0429688 0.175781 0.53125 0.175781 0.695313 0.210938 0.927145 0.980922 0.871342 0.968548 0.866111 0.93673 0.798101 0.952639 0.778919 0.919053 0.923658 0.93673 0.927145 0.890771 0.871342 0.903144 0.180083 0.447869 0.109375 0.489488 </float_array>
          <technique_common>
            <accessor count="254" offset="0" source="#q-mesh0-tex0-array" stride="2">
              <param name="S" type="float" />
              <param name="T" type="float" />
            </accessor>
          </technique_common>
        </source>
        <vertices id="q-mesh0-vertices">
          <input semantic="POSITION" source="#q-mesh0-positions" />
          <input semantic="NORMAL" source="#q-mesh0-normals" />
          <input semantic="TEXCOORD" source="#q-mesh0-tex0" />
        </vertices>
        <polylist count="295" material="theresonlyone">
          <input offset="0" semantic="VERTEX" source="#q-mesh0-vertices" />
          <vcount>3 3 3 3 3 3 3 3 3 3 3 3 3 3 3 3 3 3 3 3 3 3 3 3 3 3 3 3 3 3 3 3 3 3 3 3 3 3 3 3 3 3 3 3 3 3 3 3 3 3 3 3 3 3 3 3 3 3 3 3 3 3 3 3 3 3 3 3 3 3 3 3 3 3 3 3 3 3 3 3 3 3 3 3 3 3 3 3 3 3 3 3 3 3 3 3 3 3 3 3 3 3 3 3 3 3 3 3 3 3 3 3 3 3 3 3 3 3 3 3 3 3 3 3 3 3 3 3 3 3 3 3 3 3 3 3 3 3 3 3 3 3 3 3 3 3 3 3 3 3 3 3 3 3 3 3 3 3 3 3 3 3 3 3 3 3 3 3 3 3 3 3 3 3 3 3 3 3 3 3 3 3 3 3 3 3 3 3 3 3 3 3 3 3 3 3 3 3 3 3 3 3 3 3 3 3 3 3 3 3 3 3 3 3 3 3 3 3 3 3 3 3 3 3 3 3 3 3 3 3 3 3 3 3 3 3 3 3 3 3 3 3 3 3 3 3 3 3 3 3 3 3 3 3 3 3 3 3 3 3 3 3 3 3 3 3 3 3 3 3 3 3 3 3 3 3 3 3 3 3 3 3 3 3 3 3 3 3 3 3 3 3 3 3 3 </vcount>
          <p>0 1 2 2 3 0 4 5 6 7 4 8 9 7 10 11 9 12 13 11 14 15 13 14 16 15 14 17 18 19 17 19 20 21 22 18 21 18 17 23 24 25 26 27 28 29 23 25 30 31 32 30 32 33 34 35 31 34 31 30 36 29 25 36 34 30 37 38 39 40 41 42 43 44 45 46 47 48 46 48 49 50 51 52 53 54 55 56 57 58 59 53 55 59 55 60 61 62 63 64 65 66 64 66 67 68 61 63 68 63 69 70 71 72 73 68 69 73 69 74 75 50 52 76 77 59 59 60 76 78 75 73 73 74 78 67 79 64 49 80 46 72 81 70 58 82 56 83 84 85 86 87 88 89 86 88 90 91 92 93 94 95 96 97 86 98 96 86 98 86 89 99 98 89 100 99 101 100 101 90 102 100 90 102 90 103 102 93 95 93 102 103 104 83 85 104 85 105 106 104 105 107 108 109 110 111 112 113 114 115 115 116 113 117 118 119 120 121 122 112 116 115 112 115 110 123 124 110 125 126 120 125 120 117 119 124 117 127 128 129 130 131 132 133 134 127 135 129 136 137 138 139 140 141 142 140 142 143 132 144 130 145 146 147 147 148 145 149 150 151 152 153 154 152 154 155 156 157 158 159 152 155 159 155 160 161 162 163 164 165 166 164 166 167 168 169 170 168 170 171 172 173 174 175 176 177 175 177 178 179 180 181 179 181 182 183 175 178 183 178 184 185 179 182 185 182 186 187 188 172 172 174 187 189 190 161 163 189 161 0 191 1 191 192 1 1 192 2 192 193 2 2 193 3 4 6 8 6 194 8 8 194 195 194 196 195 195 196 197 196 198 197 197 198 199 198 200 199 199 200 201 200 5 201 201 5 4 7 8 10 8 195 10 10 195 202 195 197 202 202 197 203 197 199 203 203 199 204 199 201 204 204 201 205 201 4 205 205 4 7 9 10 12 10 202 12 12 202 206 202 203 206 206 203 207 203 204 207 207 204 208 204 205 208 208 205 209 205 7 209 209 7 9 11 12 210 12 206 210 210 206 211 206 207 211 211 207 16 207 208 16 16 208 15 208 209 15 15 209 13 209 9 13 13 9 11 11 210 14 210 211 14 14 211 16 24 22 25 22 21 25 25 21 35 21 17 35 35 17 31 17 20 31 31 20 32 22 24 26 24 212 26 26 212 27 212 213 27 22 26 18 26 28 18 18 28 19 24 23 212 23 214 212 212 214 213 214 215 213 23 29 214 29 216 214 214 216 215 216 33 215 29 36 216 36 30 216 216 30 33 35 34 25 34 36 25 37 39 217 39 38 217 40 42 218 42 41 218 43 45 219 45 44 219 50 53 51 53 220 51 53 50 54 50 221 54 56 71 57 71 70 57 53 59 220 59 222 220 59 77 222 77 223 222 77 61 223 61 224 223 61 77 62 77 76 62 61 68 224 68 225 224 68 73 225 73 226 225 73 75 226 75 52 226 50 75 221 75 78 221 67 80 79 80 49 79 83 227 84 227 228 84 86 97 87 97 92 87 227 106 228 106 105 228 90 101 91 101 88 91 97 103 92 103 90 92 93 96 229 96 230 229 96 93 97 93 103 97 231 232 233 232 234 233 233 234 235 96 98 230 98 236 230 98 99 236 99 237 236 99 89 101 89 88 101 99 100 237 100 238 237 235 239 233 239 240 233 233 240 231 100 102 238 102 95 238 107 109 241 109 108 241 120 126 121 126 242 121 110 115 137 115 114 137 137 114 138 110 137 123 137 139 123 123 139 141 110 124 111 124 119 111 117 124 140 124 123 140 140 123 141 117 140 125 140 143 125 125 143 243 117 120 118 120 122 118 131 134 132 134 133 132 132 133 144 133 135 144 244 245 246 245 247 246 246 247 248 244 246 249 246 250 249 249 250 136 136 129 249 129 128 249 249 128 244 127 129 133 129 135 133 250 246 251 246 248 251 125 243 126 243 242 126 147 252 148 252 253 148 149 156 150 156 158 150 </p>
        </polylist>
      </mesh>
    </geometry>
  </library_geometries>
  <library_visual_scenes>
    <visual_scene id="myScene" name="myScene">
      <node id="wg011" name="wg011">
        <matrix>1.94707e-007 0 1 0 0 1 0 0 -1 0 1.94707e-007 0 0 0 0 1</matrix>
        <node id="q" name="q">
          <matrix>1.94707e-007 -0 -1 -0.0229164 0 1 -0 0 1 0 1.94707e-007 -0.205196 0 0 0 1</matrix>
          <instance_geometry url="#q-mesh0">
            <bind_material>
              <technique_common>
                <instance_material symbol="theresonlyone" target="#m0q" />
              </technique_common>
            </bind_material>
          </instance_geometry>
          <node id="gcol00" name="gcol00">
            <matrix>1.94707e-007 0 1 8.67656 0 1 0 -0.00889206 -1 0 1.94707e-007 2.39972 0 0 0 1</matrix>
          </node>
          <node id="sp" name="sp">
            <matrix>1.94707e-007 0 1 13.6766 0 1 0 -0.00889206 -1 0 1.94707e-007 2.39972 0 0 0 1</matrix>
          </node>
        </node>
      </node>
    </visual_scene>
  </library_visual_scenes>
  <scene>
    <instance_visual_scene url="#myScene" />
  </scene>
</COLLADA>