<?xml version="1.0" encoding="utf-8"?>
<COLLADA xmlns="http://www.collada.org/2005/11/COLLADASchema" version="1.4.1">
  <asset>
    <contributor>
      <author>Someone</author>
      <authoring_tool>Assimp Collada Exporter</authoring_tool>
    </contributor>
    <created>2000-01-01T23:59:59</created>
    <modified>2000-01-01T23:59:59</modified>
    <unit name="meter" meter="1" />
    <up_axis>Y_UP</up_axis>
  </asset>
  <library_images>
    <image id="m0magic-diffuse-image">
      <init_from>magic.png</init_from>
    </image>
  </library_images>
  <library_effects>
    <effect id="m0magic-fx" name="m0magic">
      <profile_COMMON>
        <newparam sid="m0magic-diffuse-surface">
          <surface type="2D">
            <init_from>m0magic-diffuse-image</init_from>
          </surface>
        </newparam>
        <newparam sid="m0magic-diffuse-sampler">
          <sampler2D>
            <source>m0magic-diffuse-surface</source>
          </sampler2D>
        </newparam>
        <technique sid="standard">
          <phong>
            <emission>
              <color sid="emission">0   0   0   0</color>
            </emission>
            <ambient>
              <color sid="ambient">1   1   1   1</color>
            </ambient>
            <diffuse>
              <texture texture="m0magic-diffuse-sampler" texcoord="CHANNEL0" />
            </diffuse>
            <specular>
              <color sid="specular">0   0   0   0</color>
            </specular>
            <shininess>
              <float sid="shininess">16</float>
            </shininess>
            <reflective>
              <color sid="reflective">0   0   0   0</color>
            </reflective>
          </phong>
        </technique>
      </profile_COMMON>
    </effect>
  </library_effects>
  <library_materials>
    <material id="m0magic" name="m0magic">
      <instance_effect url="#m0magic-fx" />
    </material>
  </library_materials>
  <library_geometries>
    <geometry id="magic-mesh0" name="magic-mesh0">
      <mesh>
        <source id="magic-mesh0-positions" name="magic-mesh0-positions">
          <float_array id="magic-mesh0-positions-array" count="840"> -1.06302 -0.399202 -0.877659 -1.33435 0.399202 -2.48328 -1.06302 0.399202 -0.877659 -1.33435 -0.399202 -2.48328 -1.64293 -0.249901 -2.71784 -1.64293 0.249901 -2.71784 -1.64293 -0.249901 -2.71784 -2.79141 -0.249901 -2.42928 -2.79141 0.249901 -2.42928 -2.79141 -0.249901 -2.42928 -2.9411 0.399202 -1.99374 -2.79141 0.249901 -2.42928 -1.15026 -0.399202 3.84982 -0.637582 -0.399202 4.29685 -0.637582 0.399202 4.29685 2.60018 -0.399202 1.07657 2.23541 0.399202 0.584205 2.60018 0.399202 1.07657 1.75012 -0.399202 0.760398 -0.479069 -0.399202 0.462257 -0.479069 0.399202 0.462257 -0.479069 -0.399202 0.462257 -0.479069 0.399202 0.462257 2.23541 -0.399202 0.584205 -1.33435 0.399202 -2.48328 -2.9411 0.399202 -1.99374 -2.9411 -0.399202 -1.99374 -1.74344 0.399202 0.524243 -1.7585 0.399202 1.80413 -1.1067 0.399202 2.44947 -1.15026 0.399202 3.84982 -0.637582 0.399202 4.29685 -0.637582 -0.399202 4.29685 -1.15026 -0.399202 3.84982 -1.1067 -0.399202 2.44947 1.75012 0.399202 0.760398 -1.06302 0.399202 -0.877659 0.289985 0.0958077 0.644291 0.0755632 0 -0.274427 -0.25404 0 0.644291 0.854083 -0.193705 -0.793964 1.731 -0.193705 0.829821 1.05392 0 0.734504 -0.883906 -0.193705 -0.34018 -0.883906 0.193702 -0.34018 -0.624869 -0.624159 4.29639 0.713252 0.624156 5.63452 -0.624869 0.624156 4.29639 -0.624869 0.624156 4.29639 0.93088 1.25392 5.10912 -0.0994733 1.25392 4.07877 2.38802 -1.25392 5.10912 3.94376 -0.624159 4.29639 2.60564 -0.624159 5.63452 3.41837 -1.25392 4.07877 3.41837 -1.25392 2.62162 3.94376 -0.624159 2.404 3.94376 -0.624159 4.29639 3.94376 -0.624159 2.404 3.94376 0.624156 2.404 3.94376 -0.624159 2.404 2.60564 0.624156 1.06588 3.94376 0.624156 2.404 0.930871 -1.25392 1.59128 -0.624869 -0.624159 2.404 0.713255 -0.624159 1.06588 0.713255 -0.624159 1.06588 -0.624869 -0.624159 2.404 -0.624869 0.624156 2.404 -0.0994761 -1.25392 2.62163 -0.0994733 -1.25392 4.07877 -0.624869 -0.624159 4.29639 -0.624869 -0.624159 2.404 -0.624869 -0.624159 4.29639 -0.624869 0.624156 4.29639 -0.624869 0.624156 2.404 -0.624869 0.624156 2.404 1.05998 0 6.1418 1.36837 -0.580597 6.1418 1.24063 -0.821086 6.71151 1.24063 0.821083 6.71151 0.804503 0 6.71151 1.05998 0 7.37537 1.36837 0.580594 7.37537 1.36837 0.580594 6.1418 1.98515 0.580594 6.1418 1.98515 0.580594 5.44144 1.36837 0.580594 5.44144 1.05998 0 5.44144 1.36837 -0.580597 5.44144 2.29354 0 6.1418 1.98515 -0.580597 6.1418 1.98515 -0.580597 5.44144 2.29354 0 5.44144 -2.01722 -3.04567e-006 7.08874 -2.53158 -3.04567e-006 8.30532 -2.04087 0.923862 8.30818 -1.04378 0 6.21851 -1.64693 0.776942 7.27093 0.0469546 -3.04567e-006 6.16743 -0.865151 0.700234 6.54475 1.22724 -3.04567e-006 6.54783 0.0255696 0.572389 6.47071 3.85967 0.580228 3.65839 4.64737 0 3.96659 4.64737 0.580228 3.65839 3.85967 0.580228 3.042 4.64737 0.580228 3.042 3.85967 0 2.73381 4.64737 0 2.73381 3.85967 -0.580228 3.042 4.56463 0.587672 2.62192 4.56463 -0.587675 2.62192 4.56463 -0.587675 4.07847 5.04133 -0.305539 4.80771 9.10251 -0.433728 3.93186 9.10251 -0.179658 4.20722 9.10251 0.179655 4.20722 9.10251 -0.179658 4.20722 9.10251 -0.433728 3.93186 9.10251 0.433725 2.76854 9.10251 -0.433728 2.76854 5.04133 -0.737632 2.36098 5.04133 -0.305539 1.89269 9.10251 -0.179658 2.49318 5.04133 -0.305539 1.89269 5.04133 0.305536 1.89269 9.10251 0.179655 2.49318 9.10251 -0.179658 2.49318 5.04133 0.305536 1.89269 9.10251 0.433725 2.76854 9.10251 0.179655 2.49318 5.04133 0.737629 4.33941 5.04133 0.305536 4.80771 9.10251 0.179655 4.20722 9.10251 -0.179658 2.49318 9.10251 0.179655 2.49318 5.04133 -0.737632 4.33941 4.56463 -0.587675 4.07847 4.56463 -0.587675 2.62192 4.56463 0.587672 2.62192 5.04133 0.737629 2.36098 4.56463 0.587672 2.62192 4.56463 0.587672 4.07847 4.56463 -0.587675 2.62192 9.08671 0 3.68074 9.40105 -0.359283 3.3502 9.40105 0 3.68074 9.40105 0 3.01966 9.40105 0.35928 3.3502 9.40105 0 3.68074 9.08671 0.35928 3.3502 9.40105 0.35928 3.3502 9.08671 0 3.01966 9.40105 -0.359283 3.3502 -1.09591 -0.160163 3.49755 -1.45753 0.16016 3.49755 -1.45753 -0.160163 3.49755 -1.45753 -0.160163 3.20285 -1.09591 0.16016 3.20285 -1.09591 -0.160163 3.20285 -1.43257 -0.226747 2.93108 -1.79553 -0.226747 2.48958 -1.79553 0.226744 2.48958 -1.70724 -0.226747 3.10768 -1.70724 -0.226747 3.8239 -1.70724 0.226744 3.8239 9.03982 0.0881113 4.16431 9.03982 0.0881113 4.97824 9.03982 -0.0881144 4.97824 9.03982 -0.0881144 4.16431 9.03982 0.0881113 4.97824 8.68711 0 4.98005 9.03982 -0.0881144 4.97824 9.03982 -0.0881144 4.16431 9.03982 -0.0881144 4.97824 8.68711 0 4.98005 8.29561 0 4.24142 8.29561 0 4.24142 8.68711 0 4.98005 9.03982 0.0881113 4.97824 9.03982 0.0881113 4.16431 -1.64293 0.249901 -2.71784 -2.9411 -0.399202 -1.99374 -1.74344 0.399202 0.524243 -1.74344 -0.399202 0.524243 -1.7585 0.399202 1.80413 -1.7585 -0.399202 1.80413 -1.1067 0.399202 2.44947 -1.1067 -0.399202 2.44947 -1.15026 0.399202 3.84982 -1.7585 -0.399202 1.80413 -1.74344 -0.399202 0.524243 -1.06302 -0.399202 -0.877659 -1.33435 -0.399202 -2.48328 0.289985 -0.0958108 0.644291 0.665994 0 -0.464754 1.731 0.193702 0.829821 0.854083 0.193702 -0.793964 -0.812823 0 -0.0761114 0.93088 -1.25392 5.10912 0.713252 -0.624159 5.63452 0.713252 -0.624159 5.63452 2.60564 0.624156 5.63452 0.713252 0.624156 5.63452 2.38802 1.25392 5.10912 3.41837 1.25392 4.07877 -0.0994761 1.25392 2.62163 3.41837 1.25392 2.62162 0.930871 1.25392 1.59128 2.38801 1.25392 1.59128 2.60564 0.624156 1.06588 3.94376 0.624156 2.404 2.60564 -0.624159 5.63452 3.94376 0.624156 4.29639 2.60564 0.624156 5.63452 3.94376 0.624156 4.29639 2.38801 -1.25392 1.59128 2.60564 -0.624159 1.06588 2.60564 -0.624159 1.06588 0.713255 0.624156 1.06588 0.713255 0.624156 1.06588 1.67676 0 7.63084 1.36837 -0.580597 7.37537 1.98515 -0.580597 7.37537 2.11289 -0.821086 6.71151 2.54902 0 6.71151 2.11289 0.821083 6.71151 1.98515 0.580594 7.37537 2.29354 0 7.37537 -1.05945 0.923862 8.31389 -0.906348 0.776942 7.6353 -0.568744 0 8.31675 -0.536056 0 7.81748 -1.05945 -0.923862 8.31389 -0.906348 -0.776945 7.6353 -2.04087 -0.923865 8.30818 -1.64693 -0.776945 7.27093 -0.50789 0.700234 7.19722 -0.329261 0 7.52346 -0.50789 -0.700237 7.19722 -0.865151 -0.700237 6.54475 -0.0172004 0.572389 7.07727 -0.0385854 0 7.38055 -0.0172004 -0.572392 7.07727 0.0255696 -0.572392 6.47071 1.20676 0.391064 6.75454 1.1658 0.391064 7.16795 1.14533 0 7.37466 1.1658 -0.391067 7.16795 1.20676 -0.391067 6.75454 -2.04087 0.923862 8.30818 -2.53158 -3.04567e-006 8.30532 -1.14946 0 6.88354 -2.04087 -0.923865 8.30818 -1.05945 -0.923862 8.31389 -0.568744 0 8.31675 -1.05945 0.923862 8.31389 3.85967 0 3.96659 4.64737 -0.580228 3.65839 3.85967 -0.580228 3.65839 4.64737 -0.580228 3.042 4.56463 0.587672 4.07847 5.04133 -0.305539 4.80771 5.04133 0.305536 4.80771 9.10251 -0.179658 4.20722 9.10251 0.179655 4.20722 9.10251 -0.433728 2.76854 9.10251 0.433725 3.93186 9.10251 0.433725 3.93186 9.08671 -0.359283 3.3502 9.40105 0 3.01966 -1.09591 0.16016 3.49755 -1.45753 0.16016 3.20285 -1.43257 -0.226747 3.8239 -1.43257 0.226744 3.8239 -1.43257 0.226744 2.93108 -1.70724 0.226744 3.10768 -2.03096 0.226744 2.69561 -2.03096 -0.226747 2.69561 </float_array>
          <technique_common>
            <accessor count="280" offset="0" source="#magic-mesh0-positions-array" stride="3">
              <param name="X" type="float" />
              <param name="Y" type="float" />
              <param name="Z" type="float" />
            </accessor>
          </technique_common>
        </source>
        <source id="magic-mesh0-normals" name="magic-mesh0-normals">
          <float_array id="magic-mesh0-normals-array" count="840"> 0.683133 -0.709438 -0.173284 0.568986 0.680836 -0.461213 0.785556 0.557237 -0.269051 0.583086 -0.535796 -0.610683 -0.0240969 -0.464782 -0.885097 0.265178 0.276917 -0.923578 -0.0240969 -0.464782 -0.885097 -0.714065 -0.29958 -0.632742 -0.420942 0.465881 -0.778308 -0.714065 -0.29958 -0.632742 -0.590192 0.798723 -0.117112 -0.420942 0.465881 -0.778308 -0.792093 -0.342318 0.505378 -0.293908 -0.894427 0.337073 -0.364548 0.83205 0.418087 0.445707 -0.83205 -0.330209 0.473649 0.374205 -0.797262 0.35934 0.894427 -0.266223 -0.018178 -0.716202 -0.697656 0.409319 -0.83279 -0.372718 0.208696 0.882917 -0.420598 0.409319 -0.83279 -0.372718 0.208696 0.882917 -0.420598 0.0452663 -0.374205 -0.926241 0.568986 0.680836 -0.461213 -0.590192 0.798723 -0.117112 -0.610868 -0.790358 -0.046633 -0.79077 0.563621 0.238777 -0.787647 0.582699 0.200184 -0.494104 0.821222 0.285403 -0.909275 0.342318 0.236724 -0.364548 0.83205 0.418087 -0.293908 -0.894427 0.337073 -0.792093 -0.342318 0.505378 -0.47244 -0.874043 0.113352 -0.111009 0.807369 -0.57951 0.785556 0.557237 -0.269051 0.615744 0.755869 -0.222535 0.872488 1.49149e-006 -0.488636 -0.941258 2.91685e-006 -0.337689 -0.103565 -0.857646 -0.503703 0.765903 -0.492249 -0.413622 -0.77353 -0.561468 0.293947 0.0251557 -0.995244 0.0941105 -0.219112 0.49773 -0.839199 -0.853508 -0.365087 0.371801 -0.3718 0.365087 0.853508 -0.866424 0.365087 0.340619 -0.866424 0.365087 0.340619 -0.299425 0.805647 0.511153 -0.387071 0.91649 0.101105 0.299427 -0.805648 0.511151 0.866424 -0.365086 0.340618 0.371801 -0.365087 0.853508 0.387071 -0.91649 0.101104 0.345192 -0.91649 -0.20221 0.853508 -0.365086 -0.371801 0.866424 -0.365086 0.340618 0.853508 -0.365086 -0.371801 0.866424 0.365087 -0.340619 0.853508 -0.365086 -0.371801 0.371801 0.365087 -0.853508 0.866424 0.365087 -0.340619 -0.299427 -0.805647 -0.511152 -0.866424 -0.365086 -0.340619 -0.371801 -0.365086 -0.853508 -0.371801 -0.365086 -0.853508 -0.866424 -0.365086 -0.340619 -0.853508 0.365087 -0.371801 -0.387071 -0.91649 -0.101104 -0.345192 -0.91649 0.20221 -0.853508 -0.365087 0.371801 -0.866424 -0.365086 -0.340619 -0.853508 -0.365087 0.371801 -0.866424 0.365087 0.340619 -0.853508 0.365087 -0.371801 -0.853508 0.365087 -0.371801 -0.977427 0.00630181 -0.211178 -0.509491 -0.830358 -0.225664 -0.515477 -0.856526 -0.0254429 -0.518652 0.854322 -0.0336607 -0.999607 -0.00160889 -0.0279987 -0.757143 0.1032 0.645046 -0.285443 0.689698 0.665461 -0.497043 0.838982 -0.221488 0.50949 0.830359 -0.225664 0.336785 0.941581 0 -0.67357 0.739123 0 -0.984685 -0.174342 0 -0.336786 -0.941581 0 0.977427 -0.00629976 -0.211178 0.497044 -0.838982 -0.221488 0.673572 -0.739122 0 0.984685 0.174344 0 -0.808211 -0.00312618 -0.588884 -0.90401 -0.170658 -0.391971 -0.615316 0.718045 -0.325264 -0.369613 -0.00352055 -0.929179 -0.358202 0.839436 -0.408703 0.138618 -0.00542042 -0.990331 -0.0664965 0.849968 -0.522621 0.302809 0.169537 -0.937851 0.208894 0.836733 -0.506203 0 0.739124 0.673569 0 0.174344 0.984685 0 0.941582 0.336785 0 0.941582 -0.336785 0 0.739123 -0.67357 0 0.174343 -0.984685 0 -0.174343 -0.984685 0 -0.739123 -0.67357 -0.818298 0.52523 -0.233501 -0.834428 -0.378578 -0.40051 -0.818298 -0.52523 0.2335 -0.369767 -0.429132 0.824086 0.113123 -0.871304 0.477528 0.149102 -0.262284 0.953402 1 0 0 1 0 0 1 0 0 1 0 0 1 0 0 -0.147331 -0.922763 -0.356092 -0.2275 -0.329482 -0.916343 0.140421 -0.524567 -0.839709 -0.2275 -0.329482 -0.916343 -0.369767 0.429132 -0.824086 0.149102 0.262284 -0.953402 0.140421 -0.524567 -0.839709 -0.369767 0.429132 -0.824086 0.113123 0.871303 -0.477528 0.149102 0.262284 -0.953402 -0.147331 0.922763 0.356092 -0.227501 0.329482 0.916343 0.140421 0.524567 0.839709 1 0 0 1 0 0 -0.120534 -0.953142 0.277473 -0.818298 -0.52523 0.2335 -0.834428 -0.378578 -0.40051 -0.818298 0.52523 -0.233501 -0.120534 0.953142 -0.277473 -0.818298 0.52523 -0.233501 -0.834429 0.378577 0.40051 -0.834428 -0.378578 -0.40051 0 -0.293189 0.956054 0 -0.940191 0.340649 0 0.293193 0.956053 1 0 0 1 0 0 1 0 0 0 0.940192 0.340646 0 0.940192 -0.340646 0 0.293193 -0.956053 1 0 0 0 -0.707107 0.707107 0 0.707107 0.707107 0 -0.707107 0.707107 0 -0.707107 -0.707107 0 0.707107 -0.707107 0 -0.707107 -0.707107 0.615616 -0.72569 -0.30723 -0.182811 -0.671284 -0.718302 0.365644 0.412512 -0.834349 -0.672921 -0.724514 0.149191 -0.333328 -0.666668 0.666668 -0.816495 0.408249 0.408249 1 0 0 1 0 0 1 0 0 1 0 0 0.00513005 0 0.999987 0.00513005 0 0.999987 0.00513005 0 0.999987 -0.177323 -0.983708 0.0295854 -0.242367 -0.970185 0 -0.177323 -0.983708 0.0295854 -0.111341 -0.992028 0.0590143 -0.179397 0.981706 0.0638014 -0.23978 0.962473 0.127091 -0.179397 0.981706 0.0638014 -0.117574 0.993064 0 0.265178 0.276917 -0.923578 -0.610868 -0.790358 -0.046633 -0.79077 0.563621 0.238777 -0.692117 -0.715265 0.0968007 -0.787647 0.582699 0.200184 -0.701305 -0.582699 0.410648 -0.494104 0.821222 0.285403 -0.47244 -0.874043 0.113352 -0.909275 0.342318 0.236724 -0.701305 -0.582699 0.410648 -0.692117 -0.715265 0.0968007 0.683133 -0.709438 -0.173284 0.583086 -0.535796 -0.610683 0.615742 -0.75587 -0.222537 -0.35569 0.0727506 0.931768 0.0770712 0.994154 -0.0756164 0.467741 0.862946 -0.191162 0.229761 0.423747 0.876156 -0.12142 -0.877025 0.464849 -0.340618 -0.365087 0.866424 -0.340618 -0.365087 0.866424 0.340619 0.365087 0.866424 -0.3718 0.365087 0.853508 0.121421 0.877024 0.46485 0.345193 0.91649 0.202209 -0.345193 0.91649 -0.202209 0.387072 0.91649 -0.101106 -0.121422 0.877024 -0.46485 0.299425 0.805647 -0.511153 0.371801 0.365087 -0.853508 0.866424 0.365087 -0.340619 0.371801 -0.365087 0.853508 0.853508 0.365087 0.3718 0.340619 0.365087 0.866424 0.853508 0.365087 0.3718 0.12142 -0.877025 -0.46485 0.340618 -0.365087 -0.866424 0.340618 -0.365087 -0.866424 -0.340619 0.365086 -0.866424 -0.340619 0.365086 -0.866424 -1.63987e-007 6.86012e-007 1 -0.483024 -0.573403 0.661738 0.285443 -0.689698 0.665462 0.518653 -0.854322 -0.0336607 0.999607 0.00161067 -0.0279986 0.515476 0.856526 -0.0254429 0.483023 0.573404 0.661737 0.757143 -0.103199 0.645046 0.369789 0.924882 -0.088602 0.529645 0.844925 0.07468 0.983508 0.162669 0.0790612 0.936829 -0.0095173 0.349657 0.682982 -0.730179 -0.0193265 0.486108 -0.86183 0.144736 -0.290135 -0.918598 -0.268326 -0.402595 -0.853909 -0.329783 0.438009 0.831136 0.342581 0.631706 -0.0115588 0.775122 0.349527 -0.855578 0.381862 -0.153966 -0.86231 -0.482406 0.248505 0.831493 0.496854 0.214885 -0.00360251 0.976633 0.16656 -0.8524 0.495653 0.129838 -0.8495 -0.511363 0.217554 0.925239 -0.31081 0.0604274 0.732126 0.678483 0.00468719 -0.173808 0.984768 0.115318 -0.930981 0.346375 0.263662 -0.72476 -0.636558 0.366692 -0.658941 0.65676 0.717037 3.67005e-007 0.697035 -0.107467 1.9357e-007 0.994209 0.36669 0.658942 0.65676 -0.473396 0.726051 0.498745 -0.926809 0 0.375532 -0.473395 -0.726051 0.498745 0 -0.174344 0.984685 0 -0.739124 0.673569 0 -0.941582 0.336785 0 -0.941582 -0.336785 -0.834429 0.378577 0.40051 -0.369767 -0.429132 0.824086 -0.227501 0.329482 0.916343 0.149102 -0.262284 0.953402 0.140421 0.524567 0.839709 0.0962701 -0.966294 -0.238764 1 0 0 0.0962701 0.966294 0.238764 0 -0.940191 -0.340649 0 -0.293189 -0.956055 0 0.707107 0.707107 0 0.707107 -0.707107 0.816498 -0.408247 0.408247 0.333338 0.666665 0.666665 0.670653 0.72569 -0.153615 -0.621328 0.724514 0.298382 -0.693053 0.65895 -0.292338 -0.895247 -0.401221 0.193788 </float_array>
          <technique_common>
            <accessor count="280" offset="0" source="#magic-mesh0-normals-array" stride="3">
              <param name="X" type="float" />
              <param name="Y" type="float" />
              <param name="Z" type="float" />
            </accessor>
          </technique_common>
        </source>
        <source id="magic-mesh0-tex0" name="magic-mesh0-tex0">
          <float_array id="magic-mesh0-tex0-array" count="560"> 0.152344 0.128906 0.207031 0.03125 0.207031 0.128906 0.152344 0.03125 0.160156 0.015625 0.199219 0.015625 0.257813 0.0117188 0.332031 0.0117188 0.332031 0.0117188 0.40625 0.015625 0.363281 0.0390625 0.371094 0.015625 0.414063 0.441406 0.414063 0.484375 0.363281 0.484375 0.0351563 0.324219 0.0507813 0.28125 0.0351563 0.324219 0.109375 0.28125 0.238281 0.226563 0.238281 0.226563 0.152344 0.21875 0.207031 0.21875 0.0507813 0.28125 0.242188 0.0351563 0.347656 0.0390625 0.347656 0.0390625 0.316406 0.210938 0.339844 0.289063 0.304688 0.347656 0.332031 0.441406 0.304688 0.476563 0.304688 0.476563 0.332031 0.441406 0.304688 0.347656 0.109375 0.28125 0.25 0.132813 0.877917 0.160788 0.892954 0.0992485 0.916068 0.160788 0.850077 0.0292916 0.788581 0.138059 0.836062 0.131675 0.971958 0.0596879 0.971958 0.0596879 0.855469 0.878906 0.75 0.96875 0.855469 0.96875 0.852297 0.765311 0.735469 0.826608 0.812842 0.748897 0.626046 0.826608 0.509218 0.765311 0.609704 0.866234 0.548672 0.748897 0.548673 0.638996 0.509218 0.622583 0.507813 0.878906 0.507813 0.878906 0.507813 0.96875 0.507813 0.421875 0.613281 0.511719 0.507813 0.511719 0.735469 0.561285 0.852297 0.622583 0.751811 0.521659 0.75 0.421875 0.855469 0.421875 0.855469 0.511719 0.812842 0.638997 0.812842 0.748897 0.852297 0.765311 0.85918 0.62207 0.859249 0.765373 0.852193 0.765247 0.852539 0.62207 0.852297 0.622583 0.632091 0.185642 0.602286 0.185642 0.614631 0.240646 0.614631 0.240646 0.656782 0.240646 0.632091 0.304739 0.602286 0.304739 0.602286 0.185642 0.542675 0.185642 0.542675 0.118024 0.602286 0.118024 0.632091 0.118024 0.602286 0.118024 0.51287 0.185642 0.542675 0.185642 0.542675 0.118024 0.51287 0.118024 0.929496 0.277066 0.979208 0.394524 0.931782 0.3948 0.835415 0.193048 0.893708 0.294656 0.729998 0.188116 0.818151 0.224546 0.615926 0.224843 0.732065 0.217397 0.140625 0.484375 0.078125 0.507813 0.078125 0.484375 0.140625 0.433594 0.078125 0.433594 0.140625 0.410156 0.078125 0.410156 0.140625 0.433594 0.46165 0.883378 0.46165 0.804122 0.46165 0.804122 0.425612 0.804305 0.119473 0.737988 0.119473 0.758837 0.0751696 0.758945 0.0498304 0.758945 0.0319128 0.738061 0.0930872 0.649832 0.0319128 0.649832 0.425612 0.619047 0.425612 0.583589 0.119473 0.629056 0.425615 0.526272 0.425615 0.567478 0.118627 0.55899 0.118627 0.53476 0.425612 0.583589 0.119473 0.649906 0.119473 0.629056 0.425612 0.768847 0.425612 0.804305 0.119473 0.758837 0.0498304 0.628948 0.0751696 0.628948 0.425612 0.768847 0.461547 0.749089 0.46165 0.507247 0.46165 0.586503 0.425612 0.619047 0.461547 0.638804 0.461547 0.749089 0.461547 0.638804 0.0625 0.496094 0.0273438 0.460938 0.0273438 0.496094 0.078125 0.10895 0.121299 0.154884 0.078125 0.200817 0.0625 0.460938 0.0273438 0.460938 0.0625 0.425781 0.0349506 0.154884 0.851563 0.585938 0.902344 0.585938 0.902344 0.585938 0.902344 0.542969 0.851563 0.542969 0.851563 0.542969 0.894531 0.511719 0.945313 0.453125 0.945313 0.453125 0.933594 0.53125 0.933594 0.628906 0.933594 0.628906 0.89099 0.732812 0.89099 0.811891 0.89099 0.811891 0.89099 0.732812 0.89099 0.811891 0.925875 0.812067 0.89099 0.811891 0.89099 0.732812 0.89099 0.811891 0.925875 0.812067 0.964596 0.740304 0.964596 0.740304 0.925875 0.812067 0.89099 0.811891 0.89099 0.732812 0.257813 0.0117188 0.414063 0.0390625 0.363281 0.214844 0.414063 0.214844 0.363281 0.292969 0.414063 0.292969 0.363281 0.351563 0.414063 0.351563 0.363281 0.441406 0.339844 0.289063 0.316406 0.210938 0.25 0.132813 0.242188 0.0351563 0.877917 0.160788 0.863267 0.0513434 0.788581 0.138059 0.850077 0.0292916 0.966973 0.0773763 0.735469 0.826608 0.751811 0.866234 0.75 0.878906 0.613281 0.96875 0.751811 0.866234 0.626046 0.826608 0.548672 0.748897 0.812842 0.638997 0.548673 0.638996 0.735469 0.561285 0.626046 0.561285 0.609704 0.521659 0.509218 0.622583 0.613281 0.878906 0.507813 0.96875 0.609704 0.866234 0.509218 0.765311 0.626046 0.561285 0.609704 0.521659 0.613281 0.421875 0.75 0.511719 0.751811 0.521659 0.57248 0.329405 0.602286 0.304739 0.542675 0.304739 0.530329 0.240646 0.488179 0.240646 0.530329 0.240646 0.542675 0.304739 0.51287 0.304739 0.83693 0.395352 0.822133 0.329835 0.789504 0.395628 0.786345 0.347425 0.83693 0.395352 0.822133 0.329835 0.931782 0.3948 0.893708 0.294656 0.783622 0.28754 0.766358 0.319037 0.783622 0.28754 0.818151 0.224546 0.736198 0.275959 0.738265 0.30524 0.736198 0.275959 0.732065 0.217397 0.617905 0.2448 0.621863 0.284714 0.623842 0.304671 0.621863 0.284714 0.617905 0.2448 0.739062 0.13125 0.770703 0.0753906 0.70625 0.0753906 0.7375 0.0175781 0.673437 0.0167969 0.641016 0.075 0.673437 0.131641 0.140625 0.507813 0.078125 0.484375 0.140625 0.484375 0.078125 0.433594 0.46165 0.883378 0.425615 0.823147 0.425615 0.864353 0.118627 0.831635 0.118627 0.855865 0.119473 0.649906 0.0930872 0.738061 0.119473 0.737988 0.0625 0.460938 0.0273438 0.425781 0.851563 0.585938 0.902344 0.542969 0.894531 0.628906 0.894531 0.628906 0.894531 0.511719 0.933594 0.53125 0.976563 0.480469 0.976563 0.480469 </float_array>
          <technique_common>
            <accessor count="280" offset="0" source="#magic-mesh0-tex0-array" stride="2">
              <param name="S" type="float" />
              <param name="T" type="float" />
            </accessor>
          </technique_common>
        </source>
        <vertices id="magic-mesh0-vertices">
          <input semantic="POSITION" source="#magic-mesh0-positions" />
          <input semantic="NORMAL" source="#magic-mesh0-normals" />
          <input semantic="TEXCOORD" source="#magic-mesh0-tex0" />
        </vertices>
        <polylist count="314" material="theresonlyone">
          <input offset="0" semantic="VERTEX" source="#magic-mesh0-vertices" />
          <vcount>3 3 3 3 3 3 3 3 3 3 3 3 3 3 3 3 3 3 3 3 3 3 3 3 3 3 3 3 3 3 3 3 3 3 3 3 3 3 3 3 3 3 3 3 3 3 3 3 3 3 3 3 3 3 3 3 3 3 3 3 3 3 3 3 3 3 3 3 3 3 3 3 3 3 3 3 3 3 3 3 3 3 3 3 3 3 3 3 3 3 3 3 3 3 3 3 3 3 3 3 3 3 3 3 3 3 3 3 3 3 3 3 3 3 3 3 3 3 3 3 3 3 3 3 3 3 3 3 3 3 3 3 3 3 3 3 3 3 3 3 3 3 3 3 3 3 3 3 3 3 3 3 3 3 3 3 3 3 3 3 3 3 3 3 3 3 3 3 3 3 3 3 3 3 3 3 3 3 3 3 3 3 3 3 3 3 3 3 3 3 3 3 3 3 3 3 3 3 3 3 3 3 3 3 3 3 3 3 3 3 3 3 3 3 3 3 3 3 3 3 3 3 3 3 3 3 3 3 3 3 3 3 3 3 3 3 3 3 3 3 3 3 3 3 3 3 3 3 3 3 3 3 3 3 3 3 3 3 3 3 3 3 3 3 3 3 3 3 3 3 3 3 3 3 3 3 3 3 3 3 3 3 3 3 3 3 3 3 3 3 3 3 3 3 3 3 3 3 3 3 3 3 3 3 3 3 3 3 3 3 3 3 3 3 </vcount>
          <p>0 1 2 3 4 5 6 7 8 9 10 11 12 13 14 15 16 17 18 19 20 21 0 2 21 2 22 18 23 15 24 8 25 26 7 6 27 28 20 29 30 31 32 33 34 34 19 18 31 35 29 34 18 15 34 15 32 36 24 25 25 27 20 25 20 36 37 38 39 40 41 42 40 43 44 45 46 47 48 49 50 51 52 53 54 55 56 57 58 59 60 61 62 63 64 65 66 67 68 69 70 71 72 73 74 72 74 75 76 48 50 55 54 70 55 70 69 77 78 79 80 81 82 80 82 83 84 77 81 84 81 80 85 84 80 84 86 87 78 88 89 77 84 87 90 91 92 90 92 93 85 90 93 94 95 96 97 94 98 99 97 100 101 99 102 103 104 105 106 103 105 106 105 107 108 106 107 108 107 109 110 108 109 111 112 113 114 115 116 117 118 119 120 119 121 122 123 124 125 126 127 125 127 128 129 130 131 132 133 134 121 135 136 121 136 120 137 114 138 126 125 139 126 139 140 141 129 142 143 133 132 122 137 138 122 138 144 132 141 142 132 142 143 144 123 122 145 146 147 148 149 150 151 145 147 151 147 152 153 151 152 150 154 148 155 156 157 158 159 160 158 160 155 158 155 157 161 162 163 164 165 166 167 168 169 167 169 170 171 172 173 174 175 176 174 176 177 178 179 180 178 180 181 0 3 1 3 5 1 6 8 182 8 24 182 9 183 10 183 184 10 183 185 184 185 186 184 185 187 186 187 188 186 187 189 188 189 190 188 189 12 190 12 14 190 34 191 19 191 192 19 19 192 193 192 26 193 193 26 194 26 6 194 15 23 16 23 35 16 16 35 17 35 31 17 23 18 35 18 20 35 35 20 29 20 28 29 39 38 195 38 37 195 40 42 196 42 197 196 196 197 198 197 41 198 198 41 40 40 44 198 44 199 198 198 199 196 199 43 196 196 43 40 54 51 200 51 53 200 200 53 201 54 200 70 200 201 70 70 201 71 45 202 46 202 203 46 48 204 49 204 205 49 49 205 50 205 206 50 50 206 207 206 208 207 207 208 209 208 210 209 209 210 211 210 212 211 202 213 203 213 214 203 204 215 205 215 206 205 51 54 52 54 56 52 213 57 214 57 59 214 215 216 206 216 208 206 69 63 217 63 65 217 217 65 218 69 217 55 217 218 55 55 218 56 216 212 208 212 210 208 60 219 61 219 220 61 219 66 220 66 68 220 211 221 209 221 207 209 63 69 64 69 71 64 221 76 207 76 50 207 83 82 222 82 223 222 222 223 224 223 79 224 224 79 225 79 78 225 225 78 91 78 89 91 91 89 92 77 79 81 79 223 81 81 223 82 91 90 226 90 227 226 226 227 228 227 83 228 228 83 222 91 226 225 226 229 225 225 229 224 229 222 224 90 85 227 85 80 227 227 80 83 226 228 229 228 222 229 84 85 86 85 93 86 78 77 88 77 87 88 94 96 98 96 230 98 98 230 231 230 232 231 231 232 233 232 234 233 233 234 235 234 236 235 235 236 237 236 95 237 237 95 94 97 98 100 98 231 100 100 231 238 231 233 238 238 233 239 233 235 239 239 235 240 235 237 240 240 237 241 237 94 241 241 94 97 99 100 102 100 238 102 102 238 242 238 239 242 242 239 243 239 240 243 243 240 244 240 241 244 244 241 245 241 97 245 245 97 99 101 102 246 102 242 246 246 242 247 242 243 247 247 243 248 243 244 248 248 244 249 244 245 249 249 245 250 245 99 250 250 99 101 251 252 253 252 254 253 253 254 255 255 256 253 256 257 253 253 257 251 103 258 104 258 259 104 258 260 259 260 261 259 260 110 261 110 109 261 111 113 262 113 263 262 262 263 264 263 265 264 264 265 266 114 137 115 137 267 115 117 119 268 119 120 268 137 122 267 122 124 267 129 141 130 141 269 130 141 132 269 132 134 269 145 270 146 270 271 146 270 153 271 153 152 271 155 272 156 272 159 156 156 159 273 159 158 273 165 274 275 274 276 275 275 276 277 276 278 277 277 278 279 278 162 279 279 162 164 162 161 164 164 161 165 161 274 165 165 275 166 275 277 166 166 277 164 277 279 164 274 161 276 161 163 276 276 163 278 163 162 278 </p>
        </polylist>
      </mesh>
    </geometry>
  </library_geometries>
  <library_visual_scenes>
    <visual_scene id="myScene" name="myScene">
      <node id="wg005" name="wg005">
        <matrix>1.94707e-007 0 1 0 0 1 0 0 -1 0 1.94707e-007 0 0 0 0 1</matrix>
        <node id="magic" name="magic">
          <matrix>1.94707e-007 -0 -1 0 0 1 -0 0 1 0 1.94707e-007 0 0 0 0 1</matrix>
          <instance_geometry url="#magic-mesh0">
            <bind_material>
              <technique_common>
                <instance_material symbol="theresonlyone" target="#m0magic" />
              </technique_common>
            </bind_material>
          </instance_geometry>
          <node id="gcol00" name="gcol00">
            <matrix>1.94707e-007 0 1 9.42537 0 1 0 -0.00829792 -1 0 1.94707e-007 3.35284 0 0 0 1</matrix>
          </node>
          <node id="sp" name="sp">
            <matrix>1.94707e-007 0 1 14.4254 0 1 0 -0.00829792 -1 0 1.94707e-007 3.35284 0 0 0 1</matrix>
          </node>
        </node>
      </node>
    </visual_scene>
  </library_visual_scenes>
  <scene>
    <instance_visual_scene url="#myScene" />
  </scene>
</COLLADA>