<?xml version="1.0" encoding="utf-8"?>
<COLLADA xmlns="http://www.collada.org/2005/11/COLLADASchema" version="1.4.1">
  <asset>
    <contributor>
      <author>Someone</author>
      <authoring_tool>Assimp Collada Exporter</authoring_tool>
    </contributor>
    <created>2000-01-01T23:59:59</created>
    <modified>2000-01-01T23:59:59</modified>
    <unit name="meter" meter="1" />
    <up_axis>Y_UP</up_axis>
  </asset>
  <library_images>
    <image id="m0c18w09-diffuse-image">
      <init_from>c18w09.png</init_from>
    </image>
  </library_images>
  <library_effects>
    <effect id="m0c18w09-fx" name="m0c18w09">
      <profile_COMMON>
        <newparam sid="m0c18w09-diffuse-surface">
          <surface type="2D">
            <init_from>m0c18w09-diffuse-image</init_from>
          </surface>
        </newparam>
        <newparam sid="m0c18w09-diffuse-sampler">
          <sampler2D>
            <source>m0c18w09-diffuse-surface</source>
          </sampler2D>
        </newparam>
        <technique sid="standard">
          <phong>
            <emission>
              <color sid="emission">0   0   0   0</color>
            </emission>
            <ambient>
              <color sid="ambient">1   1   1   1</color>
            </ambient>
            <diffuse>
              <texture texture="m0c18w09-diffuse-sampler" texcoord="CHANNEL0" />
            </diffuse>
            <specular>
              <color sid="specular">0   0   0   0</color>
            </specular>
            <shininess>
              <float sid="shininess">16</float>
            </shininess>
            <reflective>
              <color sid="reflective">0   0   0   0</color>
            </reflective>
          </phong>
        </technique>
      </profile_COMMON>
    </effect>
  </library_effects>
  <library_materials>
    <material id="m0c18w09" name="m0c18w09">
      <instance_effect url="#m0c18w09-fx" />
    </material>
  </library_materials>
  <library_geometries>
    <geometry id="c18w09__m-mesh0" name="c18w09__m-mesh0">
      <mesh>
        <source id="c18w09__m-mesh0-positions" name="c18w09__m-mesh0-positions">
          <float_array id="c18w09__m-mesh0-positions-array" count="570"> -2.49204 0.373839 -0.603456 -2.49204 -0.373839 -0.603456 -3.27787 -0.373839 1.29002 -3.27787 0.373839 1.29002 -1.57673 -0.37638 -0.0552487 -1.57673 0.37638 -0.0552487 -0.4402 0.378015 0.130601 -0.4402 -0.378015 0.130601 -2.21698 8.86475e-008 1.07451 -3.27787 -0.373839 1.29002 -2.49204 -0.373839 -0.603456 -1.8502 8.72326e-008 0.236538 -0.510709 -4.18558e-008 0.553631 -0.4402 0.378015 0.130601 -1.57673 0.37638 -0.0552487 -1.57673 -0.37638 -0.0552487 -0.4402 -0.378015 0.130601 -2.49204 0.373839 -0.603456 -3.27787 0.373839 1.29002 -0.623259 0.586724 1.6854 -2.12308 0.586724 1.00348 -5.03142 0.586724 1.57963 -5.03142 0.586724 3.89849 0.268533 0.586724 3.89849 0.538768 0.586724 3.03441 1.7886 0.586724 2.80976 1.68093 0.586724 1.57505 -5.03142 -0.586724 1.57963 -2.12308 -0.586724 1.00348 -0.623259 -0.586724 1.6854 1.68093 -0.586724 1.57505 1.7886 -0.586724 2.80976 0.538768 -0.586724 3.03441 0.268533 -0.586724 3.89849 -5.03142 -0.586724 3.89849 -2.12308 -0.586724 1.00348 -5.03142 -0.586724 1.57963 -5.03142 0.586724 1.57963 -2.12308 0.586724 1.00348 1.7886 0.586724 2.80976 1.7886 -0.586724 2.80976 -0.623259 -0.586724 1.6854 -0.623259 0.586724 1.6854 0.538768 -0.586724 3.03441 1.7886 -0.586724 2.80976 1.7886 0.586724 2.80976 0.538768 0.586724 3.03441 0.268533 0.586724 3.89849 -5.03142 0.586724 3.89849 1.929 0.612286 -0.980902 2.37248 0.584186 -1.67255 0.359375 0.584186 -1.67255 0.359375 -0.584186 -1.67255 2.37248 -0.584186 -1.67255 1.929 -0.612286 -0.980902 0.385781 -0.727535 1.85573 -0.828914 -0.727535 1.85573 1.06968 -0.70956 1.41331 -0.828914 0.727536 1.85573 0.385781 0.727536 1.85573 1.06968 0.709561 1.41331 0.359375 0.584186 -1.67255 0.359375 -0.584186 -1.67255 -0.828914 -0.727535 1.85573 1.929 -0.612286 -0.980902 2.37248 -0.584186 -1.67255 2.37248 0.584186 -1.67255 1.929 0.612286 -0.980902 0.385781 0.727536 1.85573 0.385781 -0.727535 1.85573 1.06968 -0.70956 1.41331 0.336552 0.697307 -2.30156 0.359375 0.584186 -1.67255 2.37248 0.584186 -1.67255 -1.28927 -0.169223 1.49762 -1.28927 0.169223 1.49762 -0.964594 3.98765e-008 0.510068 -0.840157 6.12995e-008 0.989974 -0.829164 8.08195e-008 1.70657 -3.69162 -0.593482 -1.83976 -3.69162 0.593482 -1.83976 -3.69162 0.438842 0.997875 -3.69162 -0.438842 0.997875 -4.61701 7.46324e-008 0.997875 -4.92302 8.80086e-008 -1.83976 1.5322 0.420618 2.70154 1.5322 -0.420619 2.70154 4.20049 -1.83609e-007 2.389 4.20049 -1.83609e-007 1.96924 1.5322 -6.69747e-008 1.6567 -4.9529 0.724326 1.53918 -6.77749 0.724326 1.8771 -6.77749 0.724326 4.01413 -4.9529 0.724326 4.01413 -6.77749 -0.724326 1.8771 -4.9529 -0.724326 1.53918 -4.9529 -0.724326 4.01413 -6.77749 -0.724326 4.01413 -6.77749 2.17457e-007 1.47787 -4.9529 1.37701e-007 1.13994 -6.77749 0.724326 1.8771 -6.77749 2.17457e-007 1.47787 -6.77749 -0.724326 1.8771 -6.77749 -0.724326 4.01413 -6.77749 0.724326 4.01413 -4.9529 -0.724326 1.53918 -4.9529 1.37701e-007 1.13994 -4.9529 0.724326 1.53918 -4.9529 0.724326 4.01413 -4.9529 -0.724326 4.01413 -4.9529 0.724326 4.01413 -4.9529 -0.724326 4.01413 -10.8946 -0.611227 1.90786 -8.69438 4.00698e-007 1.79494 -8.69438 -0.411676 2.01408 -10.8946 -0.611227 2.55859 -8.69438 -0.411676 2.45237 -8.69438 -0.411676 2.01408 -8.69438 4.00698e-007 1.79494 -8.69438 0.411677 2.01408 -10.8946 4.79034e-007 2.88396 -8.69438 2.68518e-007 2.67151 -10.8946 0.611228 2.55859 -8.69438 0.411677 2.45237 -8.69438 2.68518e-007 2.67151 -8.69438 -0.411676 2.45237 -6.71049 -0.296347 3.25677 -7.82015 3.52565e-007 3.80258 -7.82015 -0.296347 3.25677 -7.82015 0.296347 3.25677 -9.94865 -0.611227 3.20399 -7.74846 2.70879e-007 3.09107 -7.74846 -0.411676 3.31021 -9.94865 -0.611227 3.85472 -7.74846 -0.411676 3.74849 -7.74846 -0.411676 3.31021 -7.74846 2.70879e-007 3.09107 -7.74846 0.411677 3.31021 -9.94865 3.49215e-007 4.18009 -7.74846 1.387e-007 3.96764 -9.94865 0.611228 3.85472 -7.74846 0.411677 3.7485 -7.74846 1.387e-007 3.96764 -7.74846 -0.411676 3.74849 -6.71216 -0.582272 2.54318 -7.77617 2.9086e-007 2.73287 -7.77617 -0.469312 2.48305 -6.71216 -0.582272 1.92327 -7.7135 -0.296347 1.96064 -8.75286 3.94074e-007 2.50646 -8.75286 -0.296347 1.96064 -8.75286 0.296347 1.96064 0.0105949 0.420619 3.44082 0.0105949 -0.420619 3.44082 3.20596 -1.40137e-007 5.96611 3.65593 -1.59806e-007 5.51614 1.13064 -4.94219e-008 2.32078 0.776252 0.586724 0.215244 0.776252 -0.586724 0.215244 -0.828914 0.727536 1.85573 1.06968 0.709561 1.41331 2.62238 -0.697307 -2.30156 0.336552 -0.697307 -2.30156 0.359375 -0.584186 -1.67255 2.62238 0.697307 -2.30156 2.37248 -0.584186 -1.67255 -3.69162 -0.438842 0.997875 -3.69162 0.438842 0.997875 -4.07959 1.52888e-007 1.66239 -4.61701 7.46324e-008 0.997875 -10.8946 6.75284e-007 1.58249 -8.69438 0.411677 2.01408 -10.8946 0.611228 1.90786 -8.69438 0.411677 2.45237 -6.71049 3.0406e-007 3.80258 -6.71049 0.296347 3.25677 -9.94865 5.45466e-007 2.87862 -7.74846 0.411677 3.31021 -9.94865 0.611228 3.20399 -7.74846 0.411677 3.7485 -6.71216 4.02078e-007 2.85313 -7.77617 0.469312 2.48305 -7.77617 -0.469312 1.9834 -6.71216 2.15124e-007 1.61332 -6.71216 0.582273 2.54318 -7.77617 0.469312 1.9834 -7.77617 1.40175e-007 1.73358 -6.71216 0.582273 1.92327 -7.7135 3.48643e-007 2.50646 -7.7135 0.296347 1.96064 </float_array>
          <technique_common>
            <accessor count="190" offset="0" source="#c18w09__m-mesh0-positions-array" stride="3">
              <param name="X" type="float" />
              <param name="Y" type="float" />
              <param name="Z" type="float" />
            </accessor>
          </technique_common>
        </source>
        <source id="c18w09__m-mesh0-normals" name="c18w09__m-mesh0-normals">
          <float_array id="c18w09__m-mesh0-normals-array" count="570"> -0.156444 0.839895 -0.519713 -0.0265997 -0.990535 -0.134662 -0.801924 -0.496138 -0.332814 -0.512336 0.832046 -0.21263 0.236879 -0.918478 -0.31668 0.172462 0.668012 -0.72389 -0.0768646 0.9598 0.269957 0.1401 -0.488837 -0.861052 0.919945 3.92476e-008 0.392047 -0.801924 -0.496138 -0.332814 -0.0265997 -0.990535 -0.134662 -0.128014 0.198669 0.97167 -0.198317 -0.313178 0.928757 -0.0768646 0.9598 0.269957 0.172462 0.668012 -0.72389 0.236879 -0.918478 -0.31668 0.1401 -0.488837 -0.861052 -0.156444 0.839895 -0.519713 -0.512336 0.832046 -0.21263 0.0585333 0.989949 -0.128739 0.208279 0.328795 -0.921148 -0.137408 0.707107 -0.693628 3.26545e-008 0.894427 0.447214 0.298928 0.62641 0.719897 0.633191 0.607163 0.480022 0.441203 0.653618 0.614917 0.798709 0.565455 -0.20573 -0.0869042 -0.894427 -0.438689 0.0083005 -0.328795 -0.944365 0.113705 -0.961524 -0.250086 0.752442 -0.565455 -0.337775 0.708962 -0.653618 0.264872 0.397154 -0.607163 0.688201 0.597855 -0.626411 0.500179 -2.58156e-008 -0.707107 0.707107 0.0083005 -0.328795 -0.944365 -0.0869042 -0.894427 -0.438689 -0.137408 0.707107 -0.693628 0.208279 0.328795 -0.921148 0.441203 0.653618 0.614917 0.708962 -0.653618 0.264872 0.113705 -0.961524 -0.250086 0.0585333 0.989949 -0.128739 0.397154 -0.607163 0.688201 0.708962 -0.653618 0.264872 0.441203 0.653618 0.614917 0.633191 0.607163 0.480022 0.298928 0.62641 0.719897 3.26545e-008 0.894427 0.447214 0.764401 0.560722 0.318249 0.69608 0.583145 0.418824 -0.49988 0.860133 -0.101448 -0.508719 -0.86 -0.0400629 0.483161 -0.809543 0.333461 0.737463 -0.561447 0.3754 0.199935 -0.735577 0.647266 -0.752991 -0.396947 0.524822 0.700198 -0.471323 0.536263 -0.624028 0.657926 0.421572 0.255205 0.469459 0.845268 0.545722 0.734681 0.403029 -0.49988 0.860133 -0.101448 -0.508719 -0.86 -0.0400629 -0.752991 -0.396947 0.524822 0.737463 -0.561447 0.3754 0.483161 -0.809543 0.333461 0.69608 0.583145 0.418824 0.764401 0.560722 0.318249 0.255205 0.469459 0.845268 0.199935 -0.735577 0.647266 0.700198 -0.471323 0.536263 -0.621403 0.611994 -0.489204 -0.49988 0.860133 -0.101448 0.69608 0.583145 0.418824 -0.164966 -0.966058 -0.19879 -0.164966 0.966058 -0.19879 -0.65098 -3.96003e-007 -0.759095 0.992397 9.44411e-008 -0.123076 0.999882 8.57991e-008 -0.0153394 0.491625 -0.778372 -0.390438 0.0684527 0.891755 -0.447311 0.718698 0.62153 0.311727 0.464581 -0.791552 0.397001 -0.948412 -6.69511e-008 0.317041 -0.691357 -4.75091e-008 -0.722513 0.154999 0.939844 0.304414 0.154999 -0.939844 0.304414 0.395561 0 0.91844 0.471389 0 -0.881925 0.116336 0 -0.99321 0.440662 0.77466 -0.453563 -0.879383 0.41087 -0.240565 -0.408248 0.816497 0.408248 0.666667 0.333333 0.666667 -0.561206 -0.714254 -0.418196 0.856559 -0.445332 -0.260742 0.408248 -0.816497 0.408248 -0.666667 -0.333333 0.666667 -0.489531 0.157569 -0.857631 0.193362 -0.177292 -0.964976 -0.879383 0.41087 -0.240565 -0.489531 0.157569 -0.857631 -0.561206 -0.714254 -0.418196 -0.666667 -0.333333 0.666667 -0.408248 0.816497 0.408248 0.856559 -0.445332 -0.260742 0.193362 -0.177292 -0.964976 0.440662 0.77466 -0.453563 0.666667 0.333333 0.666667 0.408248 -0.816497 0.408248 0.666667 0.333333 0.666667 0.408248 -0.816497 0.408248 0.0990794 -0.735837 -0.669871 0.42405 -0.158224 -0.89171 0.655161 -0.711388 -0.254344 0.101135 -0.936798 0.334935 0.780294 -0.462478 0.421017 0.655161 -0.711388 -0.254344 0.42405 -0.158224 -0.89171 0.780294 0.462477 -0.421017 0.0946473 -0.173926 0.9802 0.42405 0.158224 0.89171 0.0990795 0.735837 0.669871 0.655161 0.711388 0.254344 0.42405 0.158224 0.89171 0.780294 -0.462478 0.421017 1.07915e-007 -0.859404 -0.511296 -6.40873e-008 -0.523201 0.852209 1.07915e-007 -0.859404 -0.511296 1.65181e-007 0.859404 -0.511296 0.0990794 -0.735837 -0.669871 0.42405 -0.158224 -0.89171 0.655161 -0.711388 -0.254344 0.101135 -0.936798 0.334935 0.780294 -0.462478 0.421017 0.655161 -0.711388 -0.254344 0.42405 -0.158224 -0.89171 0.780294 0.462477 -0.421017 0.0946473 -0.173926 0.9802 0.42405 0.158224 0.89171 0.0990795 0.735837 0.669871 0.655161 0.711388 0.254344 0.42405 0.158224 0.89171 0.780294 -0.462478 0.421017 -0.115765 -0.734474 0.66869 -0.436344 -0.157201 0.885941 -0.663011 -0.704899 0.25206 -0.118161 -0.935014 -0.334345 1.07915e-007 -0.859404 -0.511296 -6.40873e-008 -0.523201 0.852209 1.07915e-007 -0.859404 -0.511296 1.65181e-007 0.859404 -0.511296 -0.163208 0.92952 0.330691 -0.163208 -0.92952 0.330691 -0.453608 0 0.891201 0.953652 0 -0.300912 0.784568 0 -0.620043 0.744677 0.447214 -0.495435 0.588719 -0.707107 -0.391676 -0.624028 0.657926 0.421572 0.545722 0.734681 0.403029 0.785462 -0.415918 -0.458325 -0.43635 -0.859487 -0.266235 -0.508719 -0.86 -0.0400629 0.650947 0.689379 -0.317845 0.483161 -0.809543 0.333461 0.464581 -0.791552 0.397001 0.718698 0.62153 0.311727 0.0464149 0 0.998922 -0.948412 -6.69511e-008 0.317041 0.0946475 0.173926 -0.9802 0.780294 0.462477 -0.421017 0.101136 0.936798 -0.334935 0.655161 0.711388 0.254344 -4.01006e-008 0.523201 0.852209 1.65181e-007 0.859404 -0.511296 0.0946475 0.173926 -0.9802 0.780294 0.462477 -0.421017 0.101136 0.936798 -0.334935 0.655161 0.711388 0.254344 -0.110606 0.173638 0.978579 -0.784775 0.458294 0.417246 -0.784775 -0.458294 -0.417246 -0.110606 -0.173639 -0.978579 -0.118161 0.935014 0.334345 -0.663011 0.704899 -0.25206 -0.436344 0.1572 -0.885941 -0.115766 0.734474 -0.66869 -4.01006e-008 0.523201 0.852209 1.65181e-007 0.859404 -0.511296 </float_array>
          <technique_common>
            <accessor count="190" offset="0" source="#c18w09__m-mesh0-normals-array" stride="3">
              <param name="X" type="float" />
              <param name="Y" type="float" />
              <param name="Z" type="float" />
            </accessor>
          </technique_common>
        </source>
        <source id="c18w09__m-mesh0-tex0" name="c18w09__m-mesh0-tex0">
          <float_array id="c18w09__m-mesh0-tex0-array" count="380"> 0.361844 0.807045 0.442844 0.807045 0.442844 0.879365 0.361843 0.879365 0.443119 0.827984 0.361568 0.827984 0.361391 0.835082 0.443297 0.835082 0.354072 0.670064 0.226467 0.692877 0.313248 0.507813 0.390449 0.596732 0.551563 0.630298 0.560044 0.585518 0.423343 0.565844 0.423343 0.565844 0.560044 0.585518 0.313248 0.507813 0.226467 0.692877 0.538026 0.75779 0.365366 0.693291 0.0078125 0.75428 0.0078125 0.984375 0.645291 0.984375 0.677795 0.892905 0.820386 0.876811 0.815174 0.738423 0.0078125 0.75428 0.365366 0.693291 0.538026 0.75779 0.815174 0.738423 0.820386 0.876811 0.677795 0.892905 0.645291 0.984375 0.0078125 0.984375 0.357627 0.677918 0.0078125 0.738907 0.0078125 0.738907 0.357627 0.677918 0.828125 0.869125 0.828125 0.869125 0.538026 0.750104 0.538026 0.750104 0.677795 0.984375 0.828125 0.984375 0.828125 0.976563 0.677795 0.976563 0.645291 0.976563 0.0078125 0.976563 0.606542 0.0643221 0.644632 1.56462e-007 0.478521 1.56462e-007 0.478521 1.56462e-007 0.644632 1.56462e-007 0.606542 0.0643221 0.515096 0.328125 0.421875 0.328125 0.575142 0.28698 0.421875 0.328125 0.515096 0.328125 0.575142 0.28698 0.984375 0.835938 0.984375 0.90625 0.84375 0.90625 0.956808 0.90625 0.984375 0.90625 0.984375 0.835938 0.956808 0.835938 0.84375 0.835938 0.84375 0.90625 0.861384 0.90625 0.84375 0.992188 0.855156 0.921874 0.855156 0.921874 0.984375 0.979909 0.984375 0.979909 0.945784 0.921875 0.930994 0.950077 0.929688 0.992188 0.40625 0.00781252 0.40625 0.00781252 0.40625 0.328125 0.40625 0.328125 0.2947 0.328125 0.257813 0.00781252 0.421875 0.34375 0.421875 0.34375 0.742188 0.388151 0.742188 0.447786 0.421875 0.492188 0.242188 0.0523049 0.0078125 0.089965 0.0078125 0.328125 0.242188 0.328125 0.0078125 0.089965 0.242188 0.0523049 0.242188 0.328125 0.0078125 0.328125 0.0078125 0.0454726 0.242188 0.00781252 0.948308 0.835938 0.967841 0.871094 0.948308 0.90625 0.84375 0.90625 0.84375 0.835938 0.964842 0.90625 0.984375 0.871094 0.964842 0.835938 0.84375 0.835938 0.84375 0.90625 0.984375 0.835938 0.984375 0.90625 0.992188 0.386958 0.757813 0.336387 0.757813 0.387114 0.992188 0.441167 0.757813 0.441011 0.757813 0.387753 0.757813 0.361443 0.757813 0.387753 0.992188 0.492188 0.757813 0.491738 0.992188 0.441167 0.757813 0.440372 0.757813 0.466682 0.757813 0.440372 0.84375 0.992188 0.984375 0.921875 0.984375 0.992188 0.984375 0.992188 0.992188 0.386958 0.757813 0.336387 0.757813 0.387114 0.992188 0.441167 0.757813 0.441011 0.757813 0.387753 0.757813 0.361443 0.757813 0.387753 0.992188 0.492188 0.757813 0.491738 0.992188 0.441167 0.757813 0.440372 0.757813 0.466682 0.757813 0.440372 0.84375 0.939453 0.984375 0.928695 0.984375 0.942863 0.84375 0.974609 0.84375 0.992188 0.984375 0.921875 0.984375 0.992188 0.984375 0.992188 0.421875 0.34375 0.421875 0.34375 0.742188 0.388151 0.742188 0.447786 0.421875 0.492188 0.706359 0.594478 0.706359 0.594478 0.84375 0.835938 0.861384 0.835938 0.984375 0.992188 0.984375 0.992188 0.972968 0.921874 0.84375 0.992188 0.972968 0.921874 0.984375 0.992188 0.84375 0.992188 0.914062 0.921867 0.914062 0.992196 0.992188 0.335938 0.757813 0.387114 0.992188 0.386958 0.757813 0.441011 0.84375 0.921875 0.84375 0.992188 0.992188 0.335938 0.757813 0.387114 0.992188 0.386958 0.757813 0.441011 0.84375 0.921875 0.984375 0.942863 0.984375 0.971199 0.84375 0.992188 0.84375 0.939453 0.984375 0.971199 0.984375 0.985367 0.84375 0.974609 0.84375 0.921875 0.84375 0.992188 </float_array>
          <technique_common>
            <accessor count="190" offset="0" source="#c18w09__m-mesh0-tex0-array" stride="2">
              <param name="S" type="float" />
              <param name="T" type="float" />
            </accessor>
          </technique_common>
        </source>
        <vertices id="c18w09__m-mesh0-vertices">
          <input semantic="POSITION" source="#c18w09__m-mesh0-positions" />
          <input semantic="NORMAL" source="#c18w09__m-mesh0-normals" />
          <input semantic="TEXCOORD" source="#c18w09__m-mesh0-tex0" />
        </vertices>
        <polylist count="173" material="theresonlyone">
          <input offset="0" semantic="VERTEX" source="#c18w09__m-mesh0-vertices" />
          <vcount>3 3 3 3 3 3 3 3 3 3 3 3 3 3 3 3 3 3 3 3 3 3 3 3 3 3 3 3 3 3 3 3 3 3 3 3 3 3 3 3 3 3 3 3 3 3 3 3 3 3 3 3 3 3 3 3 3 3 3 3 3 3 3 3 3 3 3 3 3 3 3 3 3 3 3 3 3 3 3 3 3 3 3 3 3 3 3 3 3 3 3 3 3 3 3 3 3 3 3 3 3 3 3 3 3 3 3 3 3 3 3 3 3 3 3 3 3 3 3 3 3 3 3 3 3 3 3 3 3 3 3 3 3 3 3 3 3 3 3 3 3 3 3 3 3 3 3 3 3 3 3 3 3 3 3 3 3 3 3 3 3 3 3 3 3 3 3 3 3 3 3 3 3 </vcount>
          <p>0 1 2 0 2 3 4 1 0 4 0 5 5 6 7 5 7 4 8 9 10 10 11 8 11 12 13 11 13 14 15 16 12 15 12 11 17 18 8 10 15 11 19 20 21 19 21 22 19 22 23 19 23 24 19 24 25 19 25 26 27 28 29 29 30 31 29 31 32 29 32 33 29 33 34 29 34 27 35 36 37 35 37 38 26 39 40 26 40 30 41 35 38 41 38 42 43 44 45 43 45 46 46 33 43 47 48 34 49 50 51 52 53 54 55 56 52 52 54 57 57 55 52 51 58 59 60 49 51 59 60 51 61 62 63 64 65 66 64 66 67 68 63 69 68 69 70 67 70 64 71 72 73 74 75 76 77 78 74 79 80 81 79 81 82 79 82 83 83 84 79 85 86 87 88 89 85 90 91 92 90 92 93 94 95 96 94 96 97 98 91 90 98 90 99 99 95 94 99 94 98 100 101 102 100 102 103 100 103 104 105 106 107 105 107 108 105 108 109 110 104 103 110 103 111 112 113 114 115 112 114 115 114 116 117 118 119 120 115 116 120 116 121 122 120 121 123 124 125 125 117 119 125 119 123 126 127 128 126 128 129 130 131 132 133 130 132 133 132 134 135 136 137 138 133 134 138 134 139 140 138 139 141 142 143 143 135 137 143 137 141 144 145 146 147 144 146 148 149 150 148 150 151 152 153 154 155 156 152 8 11 17 11 14 17 19 26 157 26 30 157 157 30 158 30 29 158 46 47 33 47 34 33 61 63 159 63 68 159 68 70 160 70 67 160 161 162 71 162 163 71 71 163 72 161 71 164 71 73 164 164 73 161 73 165 161 161 165 162 165 163 162 74 76 77 76 75 77 77 75 78 79 84 80 84 83 80 80 83 81 166 167 168 167 169 168 168 169 166 85 87 88 87 86 88 88 86 89 112 170 113 170 171 113 170 172 171 172 173 171 172 122 173 122 121 173 126 174 127 174 129 127 126 129 175 129 174 175 130 176 131 176 177 131 176 178 177 178 179 177 178 140 179 140 139 179 144 180 145 180 181 145 145 181 146 181 182 146 146 182 147 182 183 147 180 184 181 184 185 181 181 185 182 185 186 182 182 186 183 186 187 183 184 187 185 187 186 185 148 188 149 188 151 149 148 151 189 151 188 189 152 154 155 154 153 155 155 153 156 </p>
        </polylist>
      </mesh>
    </geometry>
    <geometry id="obj70-mesh0" name="obj70-mesh0">
      <mesh>
        <source id="obj70-mesh0-positions" name="obj70-mesh0-positions">
          <float_array id="obj70-mesh0-positions-array" count="132"> 1.04341e-007 3.89451 3.01482 0.79568 3.89451 2.21914 1.46804 4.62294 2.21914 1.92511e-007 4.62294 3.68718 -3.47803e-008 3.89451 1.42346 -1.46804 4.62294 2.21914 -6.41703e-008 4.62294 0.751092 1.68453 4.58338 3.90367 -3.12868e-009 4.58338 4.60142 -1.68453 4.58338 3.90367 1.68453 6.13008 0.534606 -3.12868e-009 6.13008 -0.16315 -1.68453 6.13008 0.534606 -1.68453 6.13008 3.90367 -3.12868e-009 6.13008 4.60142 1.68453 6.13008 3.90367 -2.38229 6.13008 2.21914 2.38229 6.13008 2.21914 -1.68453 4.58338 0.534606 -3.12868e-009 4.58338 -0.16315 1.68453 4.58338 0.534606 2.38229 4.58338 2.21914 -2.38229 4.58338 2.21914 2.38229 4.58338 2.21914 1.68453 4.58338 0.534606 1.68453 6.13008 0.534606 2.38229 6.13008 2.21914 -1.68453 4.58338 0.534606 -2.38229 6.13008 2.21914 -1.68453 6.13008 0.534606 -2.38229 4.58338 2.21914 -1.68453 4.58338 3.90367 -1.68453 6.13008 3.90367 1.68453 4.58338 3.90367 1.68453 6.13008 3.90367 1.68453 4.58338 0.534606 -3.12868e-009 6.13008 -0.16315 1.68453 6.13008 0.534606 -3.12868e-009 4.58338 -0.16315 -1.68453 4.58338 3.90367 -3.12868e-009 6.13008 4.60142 -1.68453 6.13008 3.90367 -3.12868e-009 4.58338 4.60142 -0.79568 3.89451 2.21914 </float_array>
          <technique_common>
            <accessor count="44" offset="0" source="#obj70-mesh0-positions-array" stride="3">
              <param name="X" type="float" />
              <param name="Y" type="float" />
              <param name="Z" type="float" />
            </accessor>
          </technique_common>
        </source>
        <source id="obj70-mesh0-normals" name="obj70-mesh0-normals">
          <float_array id="obj70-mesh0-normals-array" count="132"> 0.182963 -0.815626 0.548888 0.434002 -0.889221 -0.144667 0.713722 -0.658788 0.237907 -0.237907 -0.658788 0.713722 -0.182963 -0.815626 -0.548888 -0.713722 -0.658788 -0.237907 0.237907 -0.658788 -0.713722 0.648526 -0.581522 0.491167 0.128795 -0.336557 0.932814 -0.411786 -0.731307 0.543712 0.648526 0.581522 -0.491167 0.128795 0.336557 -0.932814 -0.411786 0.731307 -0.543712 -0.648526 0.581522 0.491167 -0.128795 0.336557 0.932814 0.411786 0.731307 0.543712 -0.675639 0.731307 -0.0932863 0.675639 0.731307 0.0932863 -0.648526 -0.581522 -0.491167 -0.128795 -0.336557 -0.932814 0.411786 -0.731307 -0.543712 0.675639 -0.731307 -0.0932863 -0.675639 -0.731307 0.0932863 0.675639 -0.731307 -0.0932863 0.411786 -0.731307 -0.543712 0.648526 0.581522 -0.491167 0.675639 0.731307 0.0932863 -0.648526 -0.581522 -0.491167 -0.675639 0.731307 -0.0932863 -0.411786 0.731307 -0.543712 -0.675639 -0.731307 0.0932863 -0.411786 -0.731307 0.543712 -0.648526 0.581522 0.491167 0.648526 -0.581522 0.491167 0.411786 0.731307 0.543712 0.411786 -0.731307 -0.543712 0.128795 0.336557 -0.932814 0.648526 0.581522 -0.491167 -0.128795 -0.336557 -0.932814 -0.411786 -0.731307 0.543712 -0.128795 0.336557 0.932814 -0.648526 0.581522 0.491167 0.128795 -0.336557 0.932814 -0.434002 -0.889221 0.144667 </float_array>
          <technique_common>
            <accessor count="44" offset="0" source="#obj70-mesh0-normals-array" stride="3">
              <param name="X" type="float" />
              <param name="Y" type="float" />
              <param name="Z" type="float" />
            </accessor>
          </technique_common>
        </source>
        <source id="obj70-mesh0-tex0" name="obj70-mesh0-tex0">
          <float_array id="obj70-mesh0-tex0-array" count="88"> 0.933594 0.921875 0.961117 0.921875 0.984375 0.992188 0.933594 0.992188 0.933594 0.921875 0.882813 0.992188 0.933594 0.992188 0.842761 0.328125 0.727989 0.291824 0.671875 0.182971 0.984375 0.152967 0.928261 0.0441132 0.813489 0.0078125 0.671875 0.182971 0.727989 0.291824 0.842761 0.328125 0.70729 0.0653291 0.94896 0.270608 0.813489 0.0078125 0.928261 0.0441132 0.984375 0.152967 0.94896 0.270608 0.70729 0.0653291 0.207031 0.335938 0.0390623 0.335938 0.0390623 0.492188 0.207031 0.492188 0.0390623 0.335938 0.207031 0.492188 0.0390623 0.492188 0.207031 0.335938 0.375 0.335938 0.375 0.492188 0.375 0.335938 0.375 0.492188 0.375 0.335938 0.207031 0.492188 0.375 0.492188 0.207031 0.335938 0.0390623 0.335938 0.207031 0.492188 0.0390623 0.492188 0.207031 0.335938 0.90607 0.921875 </float_array>
          <technique_common>
            <accessor count="44" offset="0" source="#obj70-mesh0-tex0-array" stride="2">
              <param name="S" type="float" />
              <param name="T" type="float" />
            </accessor>
          </technique_common>
        </source>
        <vertices id="obj70-mesh0-vertices">
          <input semantic="POSITION" source="#obj70-mesh0-positions" />
          <input semantic="NORMAL" source="#obj70-mesh0-normals" />
          <input semantic="TEXCOORD" source="#obj70-mesh0-tex0" />
        </vertices>
        <polylist count="38" material="theresonlyone">
          <input offset="0" semantic="VERTEX" source="#obj70-mesh0-vertices" />
          <vcount>3 3 3 3 3 3 3 3 3 3 3 3 3 3 3 3 3 3 3 3 3 3 3 3 3 3 3 3 3 3 3 3 3 3 3 3 3 3 </vcount>
          <p>0 1 2 0 2 3 4 5 6 7 8 9 10 11 12 13 14 15 15 16 13 12 17 10 18 19 20 21 7 9 21 9 22 20 21 22 20 22 18 23 24 25 23 25 26 27 28 29 30 31 32 33 23 26 33 26 34 35 36 37 38 27 29 39 40 41 42 33 34 43 4 1 4 6 1 1 6 2 4 43 5 43 3 5 1 0 43 0 3 43 35 38 36 38 29 36 39 42 40 42 34 40 27 30 28 30 32 28 15 17 16 17 12 16 </p>
        </polylist>
      </mesh>
    </geometry>
  </library_geometries>
  <library_visual_scenes>
    <visual_scene id="myScene" name="myScene">
      <node id="c18w09__m" name="c18w09__m">
        <matrix>-1 3.89414e-007 -0 -1.13609 -3.89414e-007 -1 0 0 -0 0 1 -0.584383 0 0 0 1</matrix>
        <instance_geometry url="#c18w09__m-mesh0">
          <bind_material>
            <technique_common>
              <instance_material symbol="theresonlyone" target="#m0c18w09" />
            </technique_common>
          </bind_material>
        </instance_geometry>
        <node id="dcol2" name="dcol2">
          <matrix>-4.01339e-007 1.94707e-007 -1 -2.21943 -1 -7.81436e-014 4.01339e-007 6.26168e-007 -0 1 1.94707e-007 4.57758 0 0 0 1</matrix>
        </node>
        <node id="dcol1" name="dcol1">
          <matrix>-4.01339e-007 1.94707e-007 -1 -9.51581 -1 -7.81436e-014 4.01339e-007 2.6847e-006 -0 1 1.94707e-007 3.52335 0 0 0 1</matrix>
        </node>
        <node id="gcol00" name="gcol00">
          <matrix>-4.01339e-007 1.94707e-007 -1 -12.0119 -1 -7.81436e-014 4.01339e-007 3.55834e-006 -0 1 1.94707e-007 2.24717 0 0 0 1</matrix>
        </node>
        <node id="obj70" name="obj70">
          <matrix>-4.01339e-007 1.94707e-007 -1 0 -1 -7.81436e-014 4.01339e-007 7.08375e-015 -0 1 1.94707e-007 0 0 0 0 1</matrix>
          <instance_geometry url="#obj70-mesh0">
            <bind_material>
              <technique_common>
                <instance_material symbol="theresonlyone" target="#m0c18w09" />
              </technique_common>
            </bind_material>
          </instance_geometry>
        </node>
        <node id="gcol01" name="gcol01">
          <matrix>-1 -1.00788e-007 -3.76145e-007 -2.06258 3.89414e-007 -0.258819 -0.965926 -0.899934 -0 -0.965926 0.258819 3.13676 0 0 0 1</matrix>
        </node>
        <node id="gcol02" name="gcol02">
          <matrix>-1 -6.76211e-008 -3.83498e-007 -1.92203 3.89414e-007 -0.173648 -0.984808 -4.13701 -0 -0.984808 0.173648 3.88291 0 0 0 1</matrix>
        </node>
        <node id="sp" name="sp">
          <matrix>-4.01339e-007 1.94707e-007 -1 -17.1362 -1 -7.81436e-014 4.01339e-007 5.55381e-006 -0 1 1.94707e-007 2.24717 0 0 0 1</matrix>
        </node>
      </node>
    </visual_scene>
  </library_visual_scenes>
  <scene>
    <instance_visual_scene url="#myScene" />
  </scene>
</COLLADA>