<?xml version="1.0" encoding="utf-8"?>
<COLLADA xmlns="http://www.collada.org/2005/11/COLLADASchema" version="1.4.1">
  <asset>
    <contributor>
      <author>Someone</author>
      <authoring_tool>Assimp Collada Exporter</authoring_tool>
    </contributor>
    <created>2000-01-01T23:59:59</created>
    <modified>2000-01-01T23:59:59</modified>
    <unit name="meter" meter="1" />
    <up_axis>Y_UP</up_axis>
  </asset>
  <library_images>
    <image id="m0steel-diffuse-image">
      <init_from>steel.png</init_from>
    </image>
  </library_images>
  <library_effects>
    <effect id="m0steel-fx" name="m0steel">
      <profile_COMMON>
        <newparam sid="m0steel-diffuse-surface">
          <surface type="2D">
            <init_from>m0steel-diffuse-image</init_from>
          </surface>
        </newparam>
        <newparam sid="m0steel-diffuse-sampler">
          <sampler2D>
            <source>m0steel-diffuse-surface</source>
          </sampler2D>
        </newparam>
        <technique sid="standard">
          <phong>
            <emission>
              <color sid="emission">0   0   0   0</color>
            </emission>
            <ambient>
              <color sid="ambient">1   1   1   1</color>
            </ambient>
            <diffuse>
              <texture texture="m0steel-diffuse-sampler" texcoord="CHANNEL0" />
            </diffuse>
            <specular>
              <color sid="specular">0   0   0   0</color>
            </specular>
            <shininess>
              <float sid="shininess">16</float>
            </shininess>
            <reflective>
              <color sid="reflective">0   0   0   0</color>
            </reflective>
          </phong>
        </technique>
      </profile_COMMON>
    </effect>
  </library_effects>
  <library_materials>
    <material id="m0steel" name="m0steel">
      <instance_effect url="#m0steel-fx" />
    </material>
  </library_materials>
  <library_geometries>
    <geometry id="obj120-mesh0" name="obj120-mesh0">
      <mesh>
        <source id="obj120-mesh0-positions" name="obj120-mesh0-positions">
          <float_array id="obj120-mesh0-positions-array" count="759"> -0.702311 -0.843866 3.02805 -0.167501 -0.843866 2.80653 -0.0400079 -1.08189 2.93402 -0.702311 -0.843866 1.51538 -1.23712 -0.843866 1.73691 -1.36461 -1.08188 1.60942 -1.63895 -1.08188 2.27172 -1.51 -0.911595 3.07941 -1.84455 -0.911595 2.27172 0.234327 -1.08188 2.27172 0.105374 -0.911595 1.46404 0.43993 -0.911595 2.27172 -1.26547 0 -0.882273 -1.33663 0 -2.47519 -1.62528 0.617582 -2.43189 -1.62528 0.617582 -2.43189 -1.33663 0 -2.47519 -1.62528 -0.617582 -2.43189 -2.08034 0.617582 0.721304 -3.24616 0.617582 -2.17363 -3.24616 -0.617582 -2.17363 -2.08034 -0.617582 0.721304 -2.72355 0.617582 2.45022 -2.72355 -0.617582 2.45022 -1.89944 0.617582 2.45022 -2.72355 0.617582 2.45022 -2.72355 -0.617582 2.45022 -1.89944 -0.617582 2.45022 -0.139387 0.617582 3.9393 -0.139387 -0.617582 3.9393 0.190993 0 4.21935 2.4372 0.617582 3.22389 2.4372 0 3.55101 2.4372 -0.617582 3.22389 6.57151 0 3.2427 6.57151 0.686694 2.95827 6.57151 -0.686694 2.95827 6.57151 0 3.2427 6.57151 0 1.30044 6.57151 0.686694 1.58488 6.57151 0.971127 2.27157 6.57151 0.686694 2.95827 6.57151 -0.686694 2.95827 6.57151 -0.971134 2.27157 6.57151 -0.686694 1.58488 6.57151 0 1.30044 1.74317 0.617575 1.33406 6.57151 0.686694 1.58488 1.74317 0 1.01082 6.57151 -0.686694 1.58488 1.74317 -0.617589 1.33406 -0.694647 0 0.315542 -0.828303 0.617582 0.633017 -0.828303 -0.617582 0.633017 -0.694647 0 0.315542 -1.55412 0.617582 -0.838975 -0.828303 -0.617582 0.633017 6.57151 -0.971134 2.27157 6.57151 -0.686694 2.95827 2.4372 -0.617582 3.22389 6.57151 0.971127 2.27157 6.57151 0.686694 1.58488 1.74317 0.617575 1.33406 -3.24616 -0.617582 -2.17363 -3.24616 0.617582 -2.17363 2.16703 -1.02763 2.27172 1.74317 -0.617589 1.33406 6.57151 -0.686694 1.58488 2.16703 1.02762 2.27172 -1.89944 0.617582 2.45022 -0.139387 0.617582 3.9393 -1.89944 -0.617582 2.45022 -1.55412 -0.617582 -0.838975 -2.08034 -0.617582 0.721304 -3.24616 -0.617582 -2.17363 6.92874 -0.557573 2.82929 6.48175 0.557567 2.82929 6.48175 -0.557573 2.82929 6.48175 -0.557573 1.71415 6.92874 0.557567 1.71415 6.92874 -0.557573 1.71415 8.12029 -0.235375 3.81246 7.16395 0.298405 3.24841 7.16395 -0.298411 3.24841 7.57591 -0.298411 3.24841 8.12029 1.54073 2.50709 7.16395 0.976686 1.97331 7.16395 0.976686 2.57013 7.57591 0.976686 2.57013 8.12029 0.235368 0.730986 8.12029 -0.235375 0.730986 7.16395 -0.298411 1.29503 7.16395 0.298405 1.29503 7.57591 0.298405 1.29503 8.12029 -0.235375 0.730986 7.57591 -0.298411 1.29503 8.12029 -1.54074 2.03635 7.16395 -0.976693 2.57013 7.16395 -0.976693 1.97331 7.57591 -0.976693 1.97331 9.47194 1.695 3.96672 9.96311 2.05747 4.32919 9.96311 2.9097 2.27172 7.57591 0.404557 3.24841 8.44692 1.87916 3.0501 7.57591 0.976686 2.67628 6.91302 0.976686 1.86716 6.91302 0.404557 1.29503 6.91302 -0.404557 1.29503 6.91302 -0.976693 1.86716 6.91302 -0.976693 2.67628 6.91302 -0.404557 3.24841 6.91302 0.404557 3.24841 6.91302 0.976686 2.67628 9.47194 0 4.66881 8.44692 0.778372 4.15089 7.57591 0.404557 3.24841 6.91302 0.976686 2.67628 6.91302 0.404557 3.24841 7.57591 0.404557 1.29503 7.57591 -0.404557 1.29503 6.91302 -0.404557 1.29503 7.57591 -0.404557 1.29503 6.91302 -0.976693 1.86716 7.57591 -0.404557 3.24841 10.5769 0 2.48178 7.6348 0.210057 2.27172 7.6348 0 2.48178 7.6348 -0.210063 2.27172 10.5769 0 2.06166 10.5769 -0.210063 2.27172 10.5769 0.210057 2.27172 10.5769 0 2.48178 10.9036 0 2.77797 10.9036 0.506246 2.27172 10.5769 0 2.06166 0.0933765 0.129289 0.726826 -0.142958 0 -0.392691 -0.506246 0 0.726826 -2.31287 0.525562 2.27172 -0.702311 0.525562 3.88228 0.436526 0.525562 3.41056 -1.84115 -0.525562 3.41056 -0.702311 0.525562 3.88228 -1.84115 0.525562 3.41056 -0.702311 -0.525562 3.88228 0.436526 -0.525562 3.41056 0.436526 0.525562 3.41056 -1.84115 0.525562 3.41056 -2.31287 -0.525562 2.27172 -0.0400079 1.08188 2.93402 0.234327 1.08188 2.27172 0.0540231 0.843866 2.27172 -0.167501 0.843866 1.73691 -1.23712 0.843866 1.73691 -0.702311 0.843866 1.51539 -0.702311 1.08188 1.33508 -0.0400079 1.08188 1.60942 0.105374 0.911595 1.46404 0.43993 0.911595 2.27172 0.105374 -0.911595 3.07941 -0.702311 -1.08189 3.20836 -1.23712 -0.843866 2.80653 0.0540231 -0.843866 2.27172 -0.0400079 -1.08188 1.60942 -0.702311 -0.911595 1.12948 -0.702311 0.911595 1.12948 -1.51 0.911595 1.46404 -1.36461 1.08188 1.60942 -1.63895 1.08188 2.27172 -1.45864 0.843866 2.27172 -1.23712 0.843866 2.80653 -0.167501 0.843866 2.80653 -0.702311 0.843866 3.02805 -0.702311 1.08188 3.20836 -1.36461 1.08188 2.93402 -1.51 0.911595 3.07941 -1.84455 0.911595 2.27172 -1.51 -0.911595 1.46404 -0.702311 -1.08188 1.33508 -0.167501 -0.843866 1.73691 -1.45864 -0.843866 2.27172 -1.36461 -1.08189 2.93402 -0.702311 -0.911595 3.41396 -0.702311 0.911595 3.41396 0.105374 0.911595 3.07941 -3.24616 0.617582 -2.17363 -2.08034 0.617582 0.721304 -2.72355 -0.617582 2.45022 -1.62528 -0.617582 -2.43189 -0.828303 0.617582 0.633017 -2.72355 0.617582 2.45022 -0.139387 -0.617582 3.9393 2.4372 0.617582 3.22389 6.57151 0.686694 2.95827 6.92874 0.557567 2.82929 6.48175 0.557567 1.71415 8.12029 0.235368 3.81246 7.57591 0.298405 3.24841 8.12029 1.54073 2.03635 7.57591 0.976686 1.97331 8.12029 -1.54074 2.50709 7.57591 -0.976693 2.57013 9.96311 2.05747 4.32919 7.73982 0 2.27172 9.96311 2.9097 2.27172 9.96311 2.05747 0.21425 9.47194 2.39709 2.27172 9.96311 2.05747 0.21425 9.47194 1.695 0.576721 9.96311 0 -0.637982 9.47194 0 -0.125371 9.96311 -2.05747 0.21425 9.47194 -1.695 0.576721 9.96311 -2.90971 2.27172 9.47194 -2.3971 2.27172 9.96311 -2.05747 4.32919 9.47194 -1.695 3.96672 9.96311 0 5.18142 8.44692 1.87916 1.49335 7.57591 0.976686 1.86716 8.44692 0.778372 0.392556 7.57591 0.404557 1.29503 9.96311 0 -0.637982 9.96311 -2.05747 0.21425 8.44692 -0.778379 0.392556 7.57591 -0.404557 1.29503 8.44692 -1.87917 1.49335 7.57591 -0.404557 1.29503 7.57591 -0.976693 1.86716 9.96311 -2.90971 2.27172 9.96311 -2.05747 4.32919 8.44692 -1.87917 3.0501 7.57591 -0.976693 2.67628 8.44692 -0.778379 4.15089 7.57591 -0.404557 3.24841 9.96311 0 5.18142 7.57591 0.976686 2.67628 6.91302 0.976686 1.86716 7.57591 0.976686 1.86716 6.91302 0.404557 1.29503 7.57591 -0.976693 1.86716 6.91302 -0.976693 2.67628 7.57591 -0.976693 2.67628 6.91302 -0.404557 3.24841 10.5769 0.210057 2.27172 7.6348 0 2.06166 10.9036 0 1.76547 11.7542 0 2.27172 10.9036 -0.506252 2.27172 10.5769 -0.210063 2.27172 0.0933765 -0.129296 0.726826 -2.31287 0.525562 2.27172 </float_array>
          <technique_common>
            <accessor count="253" offset="0" source="#obj120-mesh0-positions-array" stride="3">
              <param name="X" type="float" />
              <param name="Y" type="float" />
              <param name="Z" type="float" />
            </accessor>
          </technique_common>
        </source>
        <source id="obj120-mesh0-normals" name="obj120-mesh0-normals">
          <float_array id="obj120-mesh0-normals-array" count="759"> -0.0881378 -0.764677 -0.638358 -0.418191 -0.851353 -0.316724 0.0261102 -0.984361 -0.174219 0.0881383 -0.764682 0.638352 0.418192 -0.851354 0.316721 -0.0261044 -0.984361 0.174216 0.104728 -0.984362 0.141647 -0.61893 -0.435026 0.653971 -0.900073 -0.435034 0.0247804 -0.104727 -0.984361 -0.141651 0.618927 -0.435031 -0.653971 0.900076 -0.435028 -0.0247801 0.969358 0.00791067 -0.245525 0.986963 -0.154793 -0.0440906 0.698492 0.714938 -0.0312037 -0.152847 0 -0.98825 -0.148343 0 -0.988936 -0.154348 0 -0.988017 -0.678137 0.728538 0.0967572 -0.414839 0.894427 0.167059 -0.655918 -0.707107 0.264144 -0.572493 -0.817236 -0.0661568 -0.679711 0.725225 0.10974 -0.436741 -0.465985 0.76949 -0.201473 0.712275 0.672364 -0.679711 0.725225 0.10974 -0.436741 -0.465985 0.76949 -0.299542 -0.800859 0.518556 -0.364742 0.518281 0.77353 -0.168691 -0.605469 0.777786 0.0256935 0.13541 0.990456 0.137336 0.693208 0.707532 0.17369 -0.0237443 0.984514 0.0858539 -0.727724 0.680475 0.0675916 -0.168611 0.983362 0.0373491 0.721514 0.691392 0.0335757 -0.706905 0.706511 1 0 0 1 0 0 1 0 0 1 0 0 1 0 0 1 0 0 1 0 0 1 0 0 0.0544026 0.167058 -0.984445 0.0835061 0.715468 -0.693637 0.0265918 0.706989 -0.706725 0.162872 0.0193757 -0.986457 0.030633 -0.718735 -0.694609 0.135731 -0.675294 -0.724952 0.649688 -0.00675198 -0.760171 0.192288 0.904375 -0.380962 0.321746 -0.874092 -0.363926 0.649688 -0.00675198 -0.760171 0.509814 0.843778 -0.167714 0.321746 -0.874092 -0.363926 0.0117305 -0.990013 0.140486 0.0335757 -0.706905 0.706511 0.0858539 -0.727724 0.680475 0.0108286 0.989355 -0.145116 0.0265918 0.706989 -0.706725 0.0835061 0.715468 -0.693637 -0.157348 0 -0.987543 -0.157348 0 -0.987543 0.00869728 -0.997949 -0.0634171 0.135731 -0.675294 -0.724952 0.030633 -0.718735 -0.694609 0.00900135 0.998553 0.0530274 -0.201473 0.712275 0.672364 -0.364742 0.518281 0.77353 -0.299542 -0.800859 0.518556 0.522199 -0.847374 -0.0962529 -0.572493 -0.817236 -0.0661568 -0.655918 -0.707107 0.264144 0 -0.707107 0.707107 0 0.707107 0.707107 0 -0.707107 0.707107 0 -0.707107 -0.707107 0 0.707107 -0.707107 0 -0.707107 -0.707107 -0.437936 -0.428357 0.790394 -0.437936 0.428357 0.790394 -0.343183 -0.671352 0.656896 0 -0.993813 0.111066 -0.437936 0.790394 0.428357 -0.437936 0.790394 -0.428357 -0.343183 0.656896 0.671352 0 0.111066 0.993813 -0.437936 0.428357 -0.790394 -0.343183 -0.671352 -0.656896 -0.437936 -0.428357 -0.790394 -0.343183 0.671352 -0.656896 0 0.993813 -0.111066 -0.343183 -0.671352 -0.656896 0 -0.993813 -0.111066 -0.437936 -0.790394 -0.428357 -0.437936 -0.790394 0.428357 -0.343183 -0.656896 -0.671352 0 -0.111066 -0.993813 -0.521279 0.637657 0.567152 -0.718776 0.419751 0.55423 -0.718775 0.688709 0.0950911 -0.743247 0.338154 0.577265 -0.57796 0.734493 0.355643 -0.743248 0.647299 0.169076 -1 0 0 -1 0 0 -1 0 0 -1 0 0 -1 0 0 -1 0 0 -1 0 0 -1 0 0 -0.521278 0.0498554 0.851929 -0.57796 0.267888 0.770842 0 0.505451 0.862855 0 0.862857 0.505448 0 0.252726 0.967538 0 0.252726 -0.967538 0 -0.505448 -0.862857 0 -0.252724 -0.967538 0 -0.505448 -0.862857 0 -0.862855 -0.505451 0 -0.252724 0.967538 0 8.00796e-006 1 0 1 0 0 8.00796e-006 1 0 -1 0 0 8.00797e-006 -1 0 -1 0 -0.652101 0.719227 0.239741 -0.652105 -0.239736 0.719226 -0.258927 0.18276 0.948449 -0.258928 0.948451 -0.18275 -0.652105 0.239747 -0.719222 0.604135 0.767017 -0.216115 0.851842 3.73162e-006 -0.523799 -0.951173 5.52688e-006 -0.308659 -0.413172 0.894427 0.171141 -0.111269 0.581522 0.805885 0.342281 0.447214 0.826343 -0.568527 -0.336557 0.750671 -0.111269 0.581522 0.805885 -0.750671 0.336557 0.568527 0.111269 -0.581522 0.805885 0.270597 -0.707107 0.653282 0.342281 0.447214 0.826343 -0.750671 0.336557 0.568527 -0.653282 -0.707107 0.270597 -0.174213 0.984362 0.0261057 -0.104726 0.984362 0.141647 -0.432743 0.899535 -0.0597496 -0.418189 0.851356 0.316719 0.263745 0.899536 0.348244 -0.0881371 0.764687 0.638346 0.141648 0.984362 0.104725 0.0261075 0.984362 0.174213 0.653971 0.435031 -0.618927 0.900074 0.435031 0.0247798 0.653973 -0.435023 0.618931 0.141652 -0.984361 -0.104728 0.26375 -0.899532 -0.348251 -0.432744 -0.899535 0.0597494 -0.174214 -0.984362 -0.0261066 -0.0247798 -0.435031 -0.900074 0.0247798 0.435031 -0.900074 -0.618927 0.435032 -0.65397 0.174212 0.984362 -0.0261072 0.104731 0.984361 -0.141648 0.432744 0.899535 0.0597493 0.418191 0.851355 -0.31672 -0.263747 0.899534 -0.348246 0.0881367 0.764684 -0.63835 -0.141648 0.984361 -0.104731 -0.0261055 0.984362 -0.174214 -0.65397 0.435032 0.618927 -0.900073 0.435034 -0.0247804 -0.653971 -0.435031 -0.618927 -0.141649 -0.984361 0.10473 -0.263748 -0.899534 0.348247 0.432747 -0.899533 -0.059751 0.174212 -0.984362 0.0261088 0.0247792 -0.435025 0.900078 -0.0247804 0.435034 0.900073 0.618927 0.435031 0.653971 -0.414839 0.894427 0.167059 -0.678137 0.728538 0.0967572 -0.436741 -0.465985 0.76949 0.535473 -0.844214 -0.0239212 0.192288 0.904375 -0.380962 -0.679711 0.725225 0.10974 -0.168691 -0.605469 0.777786 0.137336 0.693208 0.707532 0.0373491 0.721514 0.691392 0 0.707107 0.707107 0 0.707107 -0.707107 -0.343183 0.671352 0.656896 0 0.993813 0.111066 -0.343183 0.656896 -0.671352 0 0.111066 -0.993813 -0.343183 -0.656896 0.671352 0 -0.111066 0.993813 0.794592 -0.429316 -0.429316 1 0 0 0.794592 -0.607144 0 0.794592 -0.429316 0.429316 -0.521278 0.851929 -0.0498549 -0.718776 0.554229 -0.419751 -0.521279 0.567151 -0.637658 -0.718775 0.0950912 -0.688709 -0.521278 -0.0498546 -0.851929 -0.718775 -0.419751 -0.554231 -0.521278 -0.637658 -0.567152 -0.718774 -0.68871 -0.0950906 -0.521278 -0.85193 0.0498554 -0.718774 -0.554231 0.419753 -0.521277 -0.567152 0.637658 -0.718774 -0.0950909 0.68871 -0.577961 0.770842 -0.267889 -0.743247 0.577265 -0.338154 -0.57796 0.355642 -0.734493 -0.743247 0.169078 -0.6473 0.794592 -1.99747e-007 0.607144 0.794592 0.429315 0.429315 -0.57796 -0.267888 -0.770842 -0.743247 -0.338154 -0.577266 -0.57796 -0.734493 -0.355642 -0.743247 -0.338154 -0.577266 -0.743247 -0.647299 -0.169078 0.794592 0.607144 -4.68637e-007 0.794592 0.429315 -0.429316 -0.57796 -0.770842 0.267888 -0.743248 -0.577265 0.338154 -0.57796 -0.355642 0.734493 -0.743247 -0.169076 0.6473 0.794592 0 -0.607144 0 0.967538 0.252724 0 0.967538 -0.252724 0 0.862857 -0.505448 0 0.505451 -0.862855 0 -0.967538 -0.252726 0 -0.967538 0.252726 0 -0.862855 0.505451 0 -0.505448 0.862857 0 1 0 0 8.00797e-006 -1 -0.258924 -0.182751 -0.948452 1 0 0 -0.258927 -0.94845 0.182756 -0.652105 -0.719224 -0.239743 0.604131 -0.767019 -0.216119 -0.413172 0.894427 0.171141 </float_array>
          <technique_common>
            <accessor count="253" offset="0" source="#obj120-mesh0-normals-array" stride="3">
              <param name="X" type="float" />
              <param name="Y" type="float" />
              <param name="Z" type="float" />
            </accessor>
          </technique_common>
        </source>
        <source id="obj120-mesh0-tex0" name="obj120-mesh0-tex0">
          <float_array id="obj120-mesh0-tex0-array" count="506"> 0.779633 0.156527 0.741483 0.140101 0.732389 0.149554 0.779633 0.0482665 0.817782 0.0646929 0.826877 0.055239 0.846446 0.10435 0.837247 0.160335 0.861112 0.10435 0.712819 0.10435 0.722018 0.0444588 0.698153 0.10435 0.736506 0.469815 0.741319 0.354601 0.763455 0.357205 0.761719 0.339844 0.742188 0.292969 0.761719 0.246094 0.984375 0.582031 0.984375 0.375 0.890625 0.375 0.890625 0.582031 0.984375 0.710938 0.890625 0.710938 0.78125 0.957031 0.84375 0.957031 0.84375 0.863281 0.78125 0.863281 0.654514 0.957031 0.654514 0.863281 0.633247 0.911892 0.46875 0.957031 0.46875 0.911458 0.46875 0.863281 0.171875 0.911458 0.171875 0.960938 0.171875 0.859375 0.173529 0.766409 0.173529 0.627491 0.173529 0.647835 0.173529 0.69695 0.173529 0.746065 0.173529 0.746065 0.173529 0.69695 0.173529 0.647835 0.171875 0.419141 0.519531 0.464844 0.171875 0.46875 0.519141 0.419531 0.171875 0.367188 0.519531 0.371094 0.696094 0.419922 0.707031 0.464844 0.707031 0.371094 0.692814 0.557047 0.758878 0.472656 0.702365 0.579754 0.173529 0.69695 0.173529 0.746065 0.468992 0.765064 0.173529 0.69695 0.173529 0.647835 0.518592 0.629896 0.882813 0.246094 0.882813 0.339844 0.4883 0.696961 0.518592 0.629896 0.173529 0.647835 0.4883 0.696961 0.778916 0.709728 0.653131 0.816232 0.778916 0.709728 0.758878 0.472656 0.79575 0.586069 0.878906 0.376736 0.14558 0.584182 0.183847 0.584182 0.183847 0.584182 0.183847 0.499518 0.14558 0.499518 0.14558 0.499518 0.160935 0.343319 0.229881 0.303026 0.229881 0.303026 0.200182 0.303026 0.160935 0.246164 0.229881 0.208033 0.229881 0.250667 0.200182 0.250667 0.161024 0.119792 0.160935 0.119287 0.229881 0.15958 0.229881 0.15958 0.200087 0.159722 0.161024 0.119792 0.200087 0.159722 0.160935 0.212536 0.229881 0.250667 0.229881 0.208033 0.200182 0.208033 0.0634909 0.354339 0.0280808 0.380232 0.0280808 0.22935 0.200182 0.303026 0.137388 0.28886 0.200182 0.262156 0.247972 0.20045 0.247972 0.15958 0.247972 0.15958 0.247972 0.20045 0.247972 0.262156 0.247972 0.303026 0.247972 0.303026 0.247972 0.262156 0.0634909 0.404493 0.137388 0.367494 0.200182 0.303026 0.247972 0.262156 0.247972 0.303026 0.200087 0.159722 0.200182 0.15958 0.247972 0.15958 0.200087 0.159722 0.247972 0.20045 0.200182 0.303026 0.283381 0.56108 0.494318 0.54794 0.494318 0.56108 0.494318 0.54794 0.283381 0.532315 0.283736 0.54794 0.283736 0.54794 0.283381 0.56108 0.259233 0.582741 0.259233 0.54794 0.283381 0.532315 0.541372 0.569824 0.558936 0.484369 0.585934 0.569824 0.674805 0.208496 0.5625 0.32373 0.482422 0.290039 0.64209 0.289551 0.5625 0.324219 0.64209 0.290039 0.5625 0.32373 0.482422 0.290039 0.481934 0.289551 0.64209 0.289551 0.674805 0.208496 0.732389 0.149554 0.712819 0.10435 0.725681 0.10435 0.741483 0.0646929 0.817782 0.0646929 0.779633 0.0482665 0.779633 0.0348967 0.732389 0.055239 0.722018 0.0444588 0.698153 0.10435 0.722018 0.160335 0.779633 0.169896 0.817782 0.140101 0.725681 0.10435 0.732389 0.055239 0.779633 0.019651 0.779633 0.019651 0.837247 0.0444588 0.826877 0.055239 0.846446 0.10435 0.833584 0.10435 0.817782 0.140101 0.741483 0.140101 0.779633 0.156527 0.779633 0.169896 0.826877 0.149554 0.837247 0.160335 0.861112 0.10435 0.837247 0.0444588 0.779633 0.0348967 0.741483 0.0646929 0.833584 0.10435 0.826877 0.149554 0.779633 0.185142 0.779633 0.185142 0.722018 0.160335 0.878906 0.376736 0.79575 0.586069 0.841718 0.709728 0.763455 0.357205 0.702365 0.579754 0.841718 0.709728 0.653131 0.816232 0.468992 0.765064 0.173529 0.746065 0.14558 0.584182 0.183847 0.499518 0.160935 0.343319 0.200182 0.303026 0.160935 0.212536 0.200182 0.208033 0.160935 0.246164 0.200182 0.250667 0.475098 0.221191 0.391602 0.138672 0.509277 0.138184 0.472656 0.0532227 0.0634909 0.22935 0.0280808 0.0823744 0.0634909 0.108268 0.0280808 0.0254014 0.0634909 0.0581136 0.0280808 0.0823744 0.0634909 0.108268 0.0280808 0.22935 0.0634909 0.22935 0.0280808 0.380232 0.0634909 0.354339 0.0280808 0.441111 0.137388 0.173747 0.200182 0.20045 0.137388 0.0951118 0.200087 0.159722 0.391927 0.0201823 0.309245 0.0546875 0.137388 0.0951118 0.200182 0.15958 0.137388 0.173747 0.200087 0.159722 0.200182 0.20045 0.274902 0.139648 0.307129 0.220215 0.137388 0.28886 0.200182 0.262156 0.137388 0.367494 0.200182 0.303026 0.392578 0.255371 0.200182 0.262156 0.247972 0.20045 0.200182 0.20045 0.247972 0.15958 0.200182 0.20045 0.247972 0.262156 0.200182 0.262156 0.247972 0.303026 0.283736 0.54794 0.494318 0.532315 0.258878 0.509588 0.200284 0.54794 0.259233 0.54794 0.283736 0.54794 0.541372 0.569824 0.674805 0.208984 </float_array>
          <technique_common>
            <accessor count="253" offset="0" source="#obj120-mesh0-tex0-array" stride="2">
              <param name="S" type="float" />
              <param name="T" type="float" />
            </accessor>
          </technique_common>
        </source>
        <vertices id="obj120-mesh0-vertices">
          <input semantic="POSITION" source="#obj120-mesh0-positions" />
          <input semantic="NORMAL" source="#obj120-mesh0-normals" />
          <input semantic="TEXCOORD" source="#obj120-mesh0-tex0" />
        </vertices>
        <polylist count="295" material="theresonlyone">
          <input offset="0" semantic="VERTEX" source="#obj120-mesh0-vertices" />
          <vcount>3 3 3 3 3 3 3 3 3 3 3 3 3 3 3 3 3 3 3 3 3 3 3 3 3 3 3 3 3 3 3 3 3 3 3 3 3 3 3 3 3 3 3 3 3 3 3 3 3 3 3 3 3 3 3 3 3 3 3 3 3 3 3 3 3 3 3 3 3 3 3 3 3 3 3 3 3 3 3 3 3 3 3 3 3 3 3 3 3 3 3 3 3 3 3 3 3 3 3 3 3 3 3 3 3 3 3 3 3 3 3 3 3 3 3 3 3 3 3 3 3 3 3 3 3 3 3 3 3 3 3 3 3 3 3 3 3 3 3 3 3 3 3 3 3 3 3 3 3 3 3 3 3 3 3 3 3 3 3 3 3 3 3 3 3 3 3 3 3 3 3 3 3 3 3 3 3 3 3 3 3 3 3 3 3 3 3 3 3 3 3 3 3 3 3 3 3 3 3 3 3 3 3 3 3 3 3 3 3 3 3 3 3 3 3 3 3 3 3 3 3 3 3 3 3 3 3 3 3 3 3 3 3 3 3 3 3 3 3 3 3 3 3 3 3 3 3 3 3 3 3 3 3 3 3 3 3 3 3 3 3 3 3 3 3 3 3 3 3 3 3 3 3 3 3 3 3 3 3 3 3 3 3 3 3 3 3 3 3 3 3 3 3 3 3 </vcount>
          <p>0 1 2 3 4 5 6 7 8 9 10 11 12 13 14 15 16 17 18 19 20 18 20 21 22 18 21 22 21 23 24 25 26 24 26 27 28 24 27 28 27 29 30 31 28 32 29 33 32 34 35 34 32 33 34 33 36 37 38 39 37 39 40 37 40 41 38 37 42 38 42 43 38 43 44 45 46 47 48 45 49 48 49 50 48 51 52 51 48 50 51 50 53 54 12 55 12 54 56 57 58 59 60 61 62 17 63 64 17 64 15 65 66 67 65 67 57 56 66 65 68 69 70 56 65 71 72 73 74 75 76 77 78 79 80 78 80 75 78 75 77 81 82 83 83 84 81 85 86 87 87 88 85 89 90 91 89 91 92 92 93 89 94 95 91 96 97 98 98 99 96 100 101 102 103 104 105 106 107 108 106 108 109 110 111 112 110 112 113 114 100 115 116 117 118 119 120 121 122 123 121 124 116 118 109 110 113 109 113 106 125 126 127 128 129 130 128 130 125 128 125 127 131 132 133 131 133 134 135 131 134 136 137 138 139 140 141 142 143 144 145 146 147 139 148 140 146 145 149 150 151 152 151 153 152 152 153 154 153 155 154 154 155 156 155 157 156 156 157 158 157 159 158 158 159 11 159 160 11 11 160 2 160 161 2 2 161 0 161 162 0 0 162 1 162 163 1 1 163 9 163 164 9 9 164 10 164 165 10 10 165 166 165 167 166 166 167 168 167 169 168 168 169 170 169 171 170 170 171 172 171 173 172 172 173 174 173 175 174 174 175 176 175 177 176 176 177 8 177 178 8 8 178 5 178 179 5 5 179 3 179 180 3 3 180 4 180 181 4 4 181 6 181 182 6 6 182 7 182 183 7 7 183 184 183 185 184 184 185 150 185 151 150 150 152 172 152 170 172 8 7 176 7 184 176 176 184 174 184 150 174 174 150 172 169 175 171 175 173 171 168 170 154 170 152 154 183 160 185 160 159 185 185 159 151 159 157 151 151 157 153 157 155 153 11 10 158 10 166 158 158 166 156 166 168 156 156 168 154 165 178 167 178 177 167 167 177 169 177 175 169 1 9 2 9 11 2 181 162 182 162 161 182 182 161 183 161 160 183 162 181 163 181 180 163 163 180 164 180 179 164 164 179 165 179 178 165 4 6 5 6 8 5 12 14 55 14 186 55 55 186 187 13 12 72 12 56 72 72 56 73 56 71 73 73 71 188 13 72 189 72 74 189 30 32 31 32 35 31 32 30 29 30 28 29 45 48 46 48 52 46 54 55 190 55 187 190 190 187 191 57 59 65 59 192 65 65 192 71 60 62 68 62 190 68 68 190 69 190 191 69 70 193 68 193 194 68 68 194 60 75 195 76 195 79 76 76 79 196 79 78 196 81 197 82 197 198 82 85 199 86 199 200 86 96 201 97 201 202 97 203 204 205 204 206 205 100 102 207 102 208 207 207 208 209 208 210 209 209 210 211 210 212 211 211 212 213 212 214 213 213 214 215 214 216 215 215 216 217 216 218 217 217 218 114 218 101 114 114 101 100 100 207 104 207 219 104 104 219 105 219 220 105 103 115 104 115 100 104 207 209 219 209 221 219 219 221 220 221 222 220 206 204 223 204 224 223 209 211 221 211 225 221 221 225 222 225 226 222 211 213 225 213 227 225 225 227 228 227 229 228 224 204 230 204 231 230 213 215 227 215 232 227 227 232 229 232 233 229 215 217 232 217 234 232 232 234 233 234 235 233 231 204 236 204 203 236 217 114 234 114 115 234 234 115 235 115 103 235 116 237 117 237 238 117 237 239 238 239 240 238 239 119 240 119 121 240 122 241 123 241 242 123 241 243 242 243 244 242 243 124 244 124 118 244 125 245 126 245 129 126 126 129 246 129 128 246 247 134 248 134 133 248 248 133 249 133 132 249 249 132 250 250 135 247 135 134 247 250 247 249 247 248 249 138 137 251 137 136 251 145 142 149 142 144 149 149 144 252 142 145 143 145 147 143 </p>
        </polylist>
      </mesh>
    </geometry>
  </library_geometries>
  <library_visual_scenes>
    <visual_scene id="myScene" name="myScene">
      <node id="wg012" name="wg012">
        <matrix>1.94707e-007 0 1 0 0 1 0 0 -1 0 1.94707e-007 0 0 0 0 1</matrix>
        <node id="obj120" name="obj120">
          <matrix>1.94707e-007 -0 -1 0 0 1 -0 0 1 0 1.94707e-007 0 0 0 0 1</matrix>
          <instance_geometry url="#obj120-mesh0">
            <bind_material>
              <technique_common>
                <instance_material symbol="theresonlyone" target="#m0steel" />
              </technique_common>
            </bind_material>
          </instance_geometry>
          <node id="gcol00" name="gcol00">
            <matrix>1.94707e-007 0 1 11.7689 0 1 0 -0.00914619 -1 0 1.94707e-007 2.27229 0 0 0 1</matrix>
          </node>
          <node id="sp" name="sp">
            <matrix>1.94707e-007 0 1 16.7689 0 1 0 -0.00914619 -1 0 1.94707e-007 2.27229 0 0 0 1</matrix>
          </node>
        </node>
      </node>
    </visual_scene>
  </library_visual_scenes>
  <scene>
    <instance_visual_scene url="#myScene" />
  </scene>
</COLLADA>