<?xml version="1.0" encoding="utf-8"?>
<COLLADA xmlns="http://www.collada.org/2005/11/COLLADASchema" version="1.4.1">
  <asset>
    <contributor>
      <author>Someone</author>
      <authoring_tool>Assimp Collada Exporter</authoring_tool>
    </contributor>
    <created>2000-01-01T23:59:59</created>
    <modified>2000-01-01T23:59:59</modified>
    <unit name="meter" meter="1" />
    <up_axis>Y_UP</up_axis>
  </asset>
  <library_images>
    <image id="m0snake-diffuse-image">
      <init_from>snake.png</init_from>
    </image>
  </library_images>
  <library_effects>
    <effect id="m0snake-fx" name="m0snake">
      <profile_COMMON>
        <newparam sid="m0snake-diffuse-surface">
          <surface type="2D">
            <init_from>m0snake-diffuse-image</init_from>
          </surface>
        </newparam>
        <newparam sid="m0snake-diffuse-sampler">
          <sampler2D>
            <source>m0snake-diffuse-surface</source>
          </sampler2D>
        </newparam>
        <technique sid="standard">
          <phong>
            <emission>
              <color sid="emission">0   0   0   0</color>
            </emission>
            <ambient>
              <color sid="ambient">1   1   1   1</color>
            </ambient>
            <diffuse>
              <texture texture="m0snake-diffuse-sampler" texcoord="CHANNEL0" />
            </diffuse>
            <specular>
              <color sid="specular">0   0   0   0</color>
            </specular>
            <shininess>
              <float sid="shininess">16</float>
            </shininess>
            <reflective>
              <color sid="reflective">0   0   0   0</color>
            </reflective>
          </phong>
        </technique>
      </profile_COMMON>
    </effect>
  </library_effects>
  <library_materials>
    <material id="m0snake" name="m0snake">
      <instance_effect url="#m0snake-fx" />
    </material>
  </library_materials>
  <library_geometries>
    <geometry id="snake-mesh0" name="snake-mesh0">
      <mesh>
        <source id="snake-mesh0-positions" name="snake-mesh0-positions">
          <float_array id="snake-mesh0-positions-array" count="780"> 0.903021 -0.199105 -0.645286 2.00949 -0.199105 1.03773 1.2815 -1.90735e-006 1.03773 0.616598 -9.53674e-007 -0.31107 -0.847518 -9.53674e-007 -0.311071 -0.978793 -0.199105 -0.716905 -0.978793 0.199102 -0.716905 0.903021 0.199102 -0.645286 0.903021 -0.199105 -0.645286 -0.978793 -0.199105 -0.716905 -1.65833 -0.384001 -2.98832 -3.38038 -0.384001 -2.98905 -3.38038 0.383999 -2.98905 -1.65833 0.383999 -2.98832 -0.318189 -1.90735e-006 1.0686 0.116844 -9.53674e-007 -0.197937 0.363199 -0.135001 1.0686 -1.63133 -2.73412 2.63852 -1.77421 -1.52623 2.52805 0.287363 -1.54665 2.82941 -0.63116 -3.14242 2.82941 -2.05997 -4.40816 2.82941 -1.63133 -2.73412 3.02031 -1.63133 -2.73412 2.63852 -0.63116 3.14242 2.82941 0.287363 1.54664 2.82941 -1.77421 1.52623 2.52805 -1.63133 2.73412 2.63852 -1.63133 2.73412 2.63852 -1.77421 1.52623 3.13078 -2.80818 -9.53674e-007 1.02336 -2.80818 -1.54299 1.9142 -2.80818 -1.54299 3.69589 -2.80818 -1.90735e-006 4.58673 -1.97204 -1.90735e-006 4.59424 4.86849 -1.54949 3.69965 4.86849 -1.90735e-006 4.59425 -2.80818 1.54298 3.69589 -2.80818 1.54298 1.9142 -2.36524 -1.90735e-006 4.9163 -2.80818 1.54298 3.69589 -2.80818 -1.90735e-006 4.58673 -1.97204 1.54949 3.69965 -1.97204 -1.54949 1.91045 -1.97204 -1.54949 3.69965 -2.36524 -1.8284 3.86067 -2.36523 -1.8284 1.74942 -1.97204 -9.53674e-007 1.01585 -2.36523 -9.53674e-007 0.693791 -1.97204 1.54949 1.91045 -2.36523 1.8284 1.74942 -1.97204 1.54949 3.69965 -2.36524 1.8284 3.86067 -1.97204 -1.90735e-006 4.59424 6.42294 -2.09699 3.12866 6.42294 -2.09699 2.48145 6.98345 -2.09699 2.15784 6.42294 -2.09699 3.12866 6.98345 2.09699 3.45228 6.42294 2.09699 3.12867 6.42294 2.09699 2.48145 6.42294 2.09699 3.12867 6.98345 2.09699 3.45228 7.54396 -2.09699 2.48145 7.54396 -2.09699 3.12867 7.54396 2.09699 2.48145 7.54396 2.09699 3.12867 6.42294 -2.09699 2.48145 -1.63133 -0.190893 5.53917 -1.77421 -0.30137 4.33128 0.287361 -1.90735e-006 4.3517 -0.631162 -1.90735e-006 5.94747 -2.05998 -1.90735e-006 7.21321 -1.63133 0.19089 5.53917 -1.63133 -0.190893 5.53917 9.05576 -1.90735e-006 6.67517 10.4196 -1.90735e-006 6.72454 10.5127 0.757095 6.46103 9.20535 1.2554 6.25142 7.55011 -1.90735e-006 5.95684 7.77429 1.39219 5.41341 6.5576 -1.90735e-006 5.07243 6.81927 1.33356 4.62601 5.26379 -1.90735e-006 5.32559 6.5326 -1.90735e-006 2.80506 5.03372 -1.90735e-006 5.02049 5.56639 1.48234 4.18351 5.56639 -1.48234 4.18351 5.56639 -1.48234 4.18351 5.03372 -1.90735e-006 5.02049 6.15682 -1.69609 3.16369 5.81221 -1.53217 4.40632 9.65066 -1.7754 5.24366 10.5127 -0.757098 6.46103 9.20535 -1.2554 6.25142 9.20535 1.2554 -0.641304 10.5127 0.757094 -0.850916 10.4196 -1.90735e-006 -1.11443 9.05576 -1.90735e-006 -1.06506 7.77429 1.39218 0.196708 7.55011 -1.90735e-006 -0.346728 6.7177 1.33356 1.00314 6.43137 -9.53674e-007 0.570124 5.56639 1.48234 1.4266 5.81221 1.53217 1.20379 5.26379 -9.53674e-007 0.284527 5.03372 -9.53674e-007 0.589625 10.695 1.07069 -0.420992 11.0516 -1.90735e-006 -0.694159 9.65066 1.7754 0.366453 7.69709 1.71715 2.03479 6.15682 1.69609 2.44642 6.44067 1.7531 2.20441 6.44067 1.7531 3.4057 6.15682 1.69609 3.16369 6.15682 1.69609 2.44642 6.15682 -1.69609 2.44642 6.15682 -1.69609 3.16369 5.56639 1.48234 1.4266 7.69709 1.71715 3.57532 7.69709 -1.71715 3.57532 6.44067 -1.75311 2.20441 7.69709 -1.71715 2.03479 7.69709 -9.53674e-007 0.87541 10.695 -1.0707 -0.420992 11.0516 -1.90735e-006 -0.694159 7.69709 -1.90735e-006 4.7347 7.69709 -1.71715 3.57532 7.69709 -1.71715 2.03479 7.69709 -9.53674e-007 0.87541 7.69709 1.71715 3.57532 9.65066 1.7754 5.24366 7.69709 -1.71715 2.03479 9.65066 -1.7754 0.366453 7.77429 -1.39219 5.41341 7.69709 1.71715 2.03479 10.695 1.07069 -0.420992 6.24014 -1.90735e-006 4.48543 8.28899 -1.90735e-006 4.07024 8.28899 0.885766 3.69967 5.05498 -1.90735e-006 4.9968 6.24014 1.17645 3.99326 3.56672 -1.90735e-006 5.34865 5.05498 1.53445 4.35485 8.28899 -0.885769 1.91042 8.28899 -1.90735e-006 1.53986 8.28899 0.885766 1.91042 6.48444 -1.90735e-006 2.80505 3.56672 2.14961 1.90575 3.56672 1.78079 1.00645 3.56672 1.78079 1.00645 5.05498 1.53445 1.25525 5.05498 -1.90735e-006 0.6133 6.24014 -1.17645 1.61684 8.28899 -0.885769 1.91042 8.28899 -1.25267 2.80505 8.28899 -0.885769 3.69968 8.28899 1.25266 2.80505 8.28899 0.885766 3.69967 3.56672 -1.78079 4.60365 5.05498 -1.53446 4.35485 8.28899 -1.25267 2.80505 8.28899 -1.90735e-006 4.07024 4.31085 -2.34424 2.80505 3.56672 -2.14961 3.70435 3.56672 1.78079 4.60365 3.56672 2.14961 3.70435 3.56672 -1.90735e-006 5.34865 3.56672 -1.78079 4.60365 3.56672 -2.14961 1.90575 3.56672 -1.7808 1.00645 2.00949 0.199102 1.03773 2.00949 -0.199105 1.03773 -1.65833 0.383999 -2.98832 -3.38038 0.383999 -2.98905 -2.10792 0.383999 -0.261617 -3.38038 -0.384001 -2.98905 -2.10792 -0.384002 -0.261617 -1.65833 -0.384001 -2.98832 -0.299556 -0.384002 1.28979 -0.299556 0.383999 1.28979 -1.71552 0.383999 1.29516 -1.71552 -0.384002 1.29516 0.363199 0.134998 1.0686 -1.77421 -1.52623 3.13078 -2.05997 4.40815 2.82942 -1.63133 2.73412 3.02031 -1.97204 -1.54949 3.69965 4.86849 -1.54949 1.91045 -1.97204 -1.54949 1.91045 4.86849 -9.53674e-007 1.01585 -2.80818 1.54298 1.9142 -1.97204 -9.53674e-007 1.01585 4.86849 1.54949 1.91045 -2.80818 -9.53674e-007 1.02336 -1.97204 1.54949 1.91045 4.86849 1.54949 3.69965 -2.80818 -1.54299 1.9142 -2.80818 -1.54299 3.69589 6.98345 -2.09699 3.45228 6.98345 -2.09699 3.45228 7.54396 2.09699 3.12867 6.98345 2.09699 2.15784 7.54396 -2.09699 3.12867 7.54396 2.09699 2.48145 7.54396 -2.09699 2.48145 6.98345 2.09699 2.15784 6.98345 -2.09699 2.15784 6.42294 2.09699 2.48145 -1.77421 0.301367 4.33128 11.0516 -1.90735e-006 6.30427 10.695 1.07069 6.03111 9.65066 1.7754 5.24366 5.81221 1.53217 4.40632 5.56639 1.48234 4.18351 6.15682 1.69609 3.16369 6.81927 -1.33356 4.62601 6.44067 -1.75311 3.4057 10.695 -1.0707 6.03111 10.5127 -0.757098 -0.850915 9.20535 -1.2554 -0.641304 7.77429 -1.39219 0.196707 6.7177 -1.33356 1.00314 5.81221 -1.53217 1.20379 5.56639 -1.48234 1.4266 5.03372 -9.53674e-007 0.589625 5.56639 -1.48234 1.4266 9.65066 -1.7754 0.366453 10.695 -1.0707 -0.420992 6.15682 -1.69609 2.44642 11.0516 -1.90735e-006 6.30427 10.695 -1.0707 6.03111 9.65066 -1.7754 5.24366 9.65066 1.7754 0.366453 7.69709 1.71715 2.03479 10.695 1.07069 6.03111 8.28899 1.25266 2.80505 6.24014 1.66375 2.80505 8.28899 0.885766 1.91042 6.24014 1.17645 1.61684 8.28899 -1.90735e-006 1.53986 6.24014 -1.90735e-006 1.12466 8.28899 -0.885769 1.91042 5.05498 2.17005 2.80505 5.05498 -1.53446 1.25525 6.24014 -1.66375 2.80505 5.05498 -2.17005 2.80505 6.24014 -1.17645 3.99326 3.56672 1.78079 4.60365 4.31085 2.34423 2.80505 3.56672 2.14961 3.70435 3.56672 2.14961 1.90575 3.56672 -1.90735e-006 0.261441 3.56672 -1.7808 1.00645 4.31085 -2.34424 2.80505 3.56672 -2.14961 1.90575 8.28899 -0.885769 3.69968 3.56672 -2.14961 3.70435 4.31085 2.34423 2.80505 3.56672 -1.90735e-006 0.261441 </float_array>
          <technique_common>
            <accessor count="260" offset="0" source="#snake-mesh0-positions-array" stride="3">
              <param name="X" type="float" />
              <param name="Y" type="float" />
              <param name="Z" type="float" />
            </accessor>
          </technique_common>
        </source>
        <source id="snake-mesh0-normals" name="snake-mesh0-normals">
          <float_array id="snake-mesh0-normals-array" count="780"> 0.0739464 -0.847618 -0.525429 0.728217 -0.490404 -0.478753 -0.668977 -0.649758 0.360949 -0.45676 0.0262328 0.889203 -0.0103289 0.522777 0.852407 0.0107743 -0.999379 -0.0335391 0.0329561 0.499064 -0.865938 0.429501 0.854683 -0.291627 0.0739464 -0.847618 -0.525429 0.0107743 -0.999379 -0.0335391 0.000423102 0 -1 0.000423102 0 -1 0.000423102 0 -1 0.000423102 0 -1 -0.945765 -4.36056e-007 -0.324853 0.877729 -2.64327e-007 -0.479158 0.614195 -0.763177 -0.200814 -0.461337 -0.0524897 -0.885671 -0.872086 -0.145881 -0.467102 0.397077 -0.22011 -0.891 0.535727 -0.400083 0.743593 -0.998319 -0.0579538 2.5059e-007 -0.803542 -0.0611027 0.592104 -0.461337 -0.0524897 -0.885671 0.535728 0.400083 -0.743592 0.397076 0.22011 0.891001 -0.328039 0.128798 -0.935842 -0.803542 0.0611028 -0.592104 -0.803542 0.0611028 -0.592104 -0.872086 0.145881 0.467102 -1 0 0 -1 0 0 -1 0 0 -1 0 0 -1.36903e-007 -0.188983 0.98198 -9.12686e-008 -0.755929 0.654653 -1.36903e-007 0.188982 0.981981 -1 0 0 -1 0 0 0.0257276 0.00289979 0.999665 -0.589945 0.610369 0.528596 -0.589946 -0.152593 0.792893 -9.12687e-008 0.755929 0.654654 0.626744 -0.736299 -0.255061 0.626745 -0.589039 0.510122 0.0257274 -0.864285 0.502344 0.0257285 -0.867185 -0.497321 0.626745 -0.14726 -0.765184 0.0257288 -0.00290013 -0.999665 0.626744 0.58904 -0.510122 0.0257282 0.864285 -0.502344 0.626744 0.736298 0.255062 0.0257284 0.867185 0.497321 0.626745 0.147259 0.765184 0 -1 0 0 -1 0 0 -1 0 -0.75593 -2.23293e-007 0.654653 -0.188983 -2.97725e-007 0.98198 -0.944911 -1.48862e-007 0.327327 0 1 0 0 1 0 0 1 0 0 -1 0 0 -1 0 0 1 0 0 1 0 -0.944911 7.44311e-008 -0.327327 -0.461337 -0.885671 0.0524894 -0.872086 -0.467102 0.145881 0.397077 -0.891 0.22011 0.535728 0.743592 0.400083 -0.998319 -2.5059e-007 0.0579528 -0.803542 0.592104 0.0611026 -0.461337 -0.885671 0.0524894 -0.245279 -0.00990314 0.969402 0.215834 -0.0704349 0.973886 0.29864 0.436281 0.848807 -0.119028 0.644646 0.755158 -0.55778 -0.00427928 0.829978 -0.406619 0.72977 0.549634 -0.346402 0.0870399 0.934039 -0.114802 0.769037 0.628811 -0.321036 -0.099494 0.941826 -1 0 0 -0.828249 5.58892e-009 -0.56036 -0.842332 -0.0500128 -0.536633 -0.842332 0.0500128 -0.536633 -0.550247 -0.732172 0.401437 -0.761665 0.214517 0.611432 -0.222186 -0.974556 0.0295529 -0.237266 -0.884411 0.401899 -0.00680212 -0.897365 0.441237 0.335245 -0.556879 0.759932 -0.0946062 -0.594659 0.798392 -0.112861 0.697451 -0.70769 0.335245 0.556878 -0.759932 0.215833 0.0704344 -0.973886 -0.245279 0.0099029 -0.969402 -0.36818 0.691627 -0.621366 -0.540772 0.00517473 -0.841153 -0.177412 0.723161 -0.667506 -0.30409 -0.0878977 -0.94858 -0.550247 0.732173 -0.401437 -0.232116 0.884327 -0.405078 -0.303467 0.100154 -0.947564 -0.761664 -0.214517 -0.611433 0.425528 0.63563 -0.644128 0.667789 -1.98413e-007 -0.744351 -0.000760253 0.864123 -0.50328 -0.100231 0.973407 -0.205993 -0.222186 0.974556 -0.0295525 -0.0445022 0.99209 -0.117372 -0.10953 0.988195 0.107115 -0.951491 -0.154552 -0.266041 -0.951491 -0.154552 0.266041 -0.951491 0.154552 0.266041 -0.951491 0.154552 -0.266041 -0.842332 -0.0500129 0.536633 -0.0705689 0.987728 0.139331 -0.0705689 -0.987728 0.139331 -0.0901366 -0.991352 -0.0953758 -0.0912627 -0.980376 -0.174739 0.775103 -7.39007e-008 0.631834 0.443354 0.177587 0.878579 0.423798 2.99226e-008 0.905757 0.775104 9.43208e-008 -0.631834 0.890697 0.254381 -0.376761 0.954324 0.167185 0.247618 0.775103 -7.39007e-008 0.631834 0.954325 -0.167186 -0.247615 0.529203 -0.362369 -0.767224 0.954324 0.167185 0.247618 0.529203 0.362368 0.767224 -0.368618 -0.727671 0.578459 0.890696 -0.254382 0.376763 0.443354 -0.177587 0.878579 0.299434 0.00374833 0.95411 0.196781 -0.135415 0.971051 0.196097 0.594809 0.779582 0.314655 -0.00332817 0.9492 0.298191 0.679984 0.669854 0.227991 0.134478 0.964332 0.300734 0.714268 0.631966 1 0 0 1 0 0 1 0 0 -1 0 0 -0.614634 -0.643251 0.456567 -0.655263 -0.536328 0.531961 0.227209 0.590733 -0.774216 0.300774 0.717959 -0.627749 0.314655 0.00332823 -0.9492 0.298192 -0.679984 -0.669854 0.196098 -0.594809 -0.779582 0.194977 -0.97177 -0.132845 1 0 0 1 0 0 1 0 0 0.227209 -0.590733 0.774216 0.300774 -0.717959 0.627749 1 0 0 1 0 0 -0.733292 0.679914 7.46459e-008 -0.614633 0.643251 -0.456567 -0.655263 -0.536328 -0.531961 -0.614634 -0.643251 -0.456567 -0.657129 3.4374e-007 -0.753779 -0.655263 0.536329 -0.531961 -0.614633 0.643251 0.456567 -0.655263 0.536328 0.531961 0.115801 0.988329 -0.0989784 0.728217 -0.490404 -0.478753 0.673932 0.707107 -0.214047 -0.640799 0.707107 0.29896 -0.657062 0.708519 0.257429 -0.810553 -0.447214 0.378157 -0.672046 -0.708519 0.215301 0.426232 -0.894427 -0.135376 0.673932 -0.707107 -0.214047 0.426232 0.894427 -0.135375 -0.8673 0.447214 0.218613 -0.685661 -0.707107 0.172828 0.614194 0.763177 -0.200813 -0.32804 -0.128799 0.935842 -0.998319 0.0579538 3.3412e-007 -0.461337 0.0524895 0.885671 -4.56343e-008 -0.944911 0.327327 4.56343e-008 -0.944911 -0.327327 1.36903e-007 -0.755929 -0.654654 2.28172e-007 -0.188982 -0.981981 -0.589944 0.762963 -0.264298 2.73806e-007 0.188982 -0.981981 1.82537e-007 0.755929 -0.654653 -0.589944 0.152593 -0.792895 9.12685e-008 0.944911 -0.327326 -4.56344e-008 0.944911 0.327327 -0.589943 -0.610371 -0.528597 -0.589944 -0.762963 0.264298 0 -1 0 0.188983 -2.23293e-007 0.98198 0.75593 -1.48862e-007 0.654653 0 1 0 0.944911 -7.44311e-008 0.327326 0.944911 7.44311e-008 -0.327326 0.75593 1.48862e-007 -0.654653 0.188983 2.23293e-007 -0.98198 -0.188982 2.23293e-007 -0.981981 -0.755929 1.48862e-007 -0.654653 -0.328039 0.935842 0.128799 0.66779 -1.50794e-007 0.74435 0.380097 0.697197 0.607818 -0.0511917 0.926319 0.373246 -0.335602 0.793912 0.507025 -0.398409 0.884218 0.24378 -0.221563 0.974677 0.0302401 -0.201325 -0.725839 0.657743 -0.0625985 -0.988409 0.138309 0.425528 -0.63563 0.644127 0.29864 -0.436281 -0.848807 -0.119028 -0.644646 -0.755158 -0.39234 -0.731581 -0.557547 -0.0929634 -0.765891 -0.636215 -0.330621 -0.793786 -0.510483 -0.398409 -0.884218 -0.243781 -0.828249 -1.69531e-007 0.56036 -0.842332 0.0500126 0.536633 -0.0511913 -0.926319 -0.373246 0.380098 -0.697197 -0.607818 -0.221563 -0.974677 -0.0302403 0.423798 3.74032e-008 -0.905757 0.443354 0.177587 -0.878579 0.529203 0.362369 -0.767224 0.529203 -0.362368 0.767224 0.890696 -0.254382 0.376763 0.443354 -0.177587 -0.878579 0.194977 0.97177 0.132845 0.296767 0.954943 -0.0036304 0.195654 0.783868 -0.589296 0.297998 0.674828 -0.675133 0.196782 0.135415 -0.971051 0.299435 -0.00374843 -0.954109 0.196098 -0.594809 -0.779582 0.327421 0.941841 -0.0757101 0.300734 -0.714268 -0.631965 0.296767 -0.954943 0.00363098 0.327421 -0.94184 0.0757105 0.297997 -0.674828 0.675133 0.226702 0.778515 0.585253 0.227197 0.970589 0.0796101 0.21167 0.904251 0.370844 0.211669 0.904251 -0.370845 0.22799 -0.134478 -0.964332 0.226701 -0.778515 -0.585253 0.227198 -0.970589 -0.07961 0.211669 -0.904251 -0.370844 0.195653 -0.783868 0.589296 0.211669 -0.904251 0.370845 -0.733292 -0.679914 3.35907e-007 -0.657128 -1.09372e-007 0.753779 </float_array>
          <technique_common>
            <accessor count="260" offset="0" source="#snake-mesh0-normals-array" stride="3">
              <param name="X" type="float" />
              <param name="Y" type="float" />
              <param name="Z" type="float" />
            </accessor>
          </technique_common>
        </source>
        <source id="snake-mesh0-tex0" name="snake-mesh0-tex0">
          <float_array id="snake-mesh0-tex0-array" count="520"> 0.107205 0.031684 0.0355903 0.138021 0.0807292 0.137153 0.123698 0.0529514 0.217882 0.0520833 0.224392 0.0264757 0.224392 0.0264757 0.107205 0.031684 0.106771 0.030816 0.224392 0.0260417 0.76821 0.0310683 0.97331 0.0309824 0.97331 0.0309824 0.76821 0.0310683 0.264914 0.362582 0.236331 0.285405 0.220145 0.362582 0.955078 0.437988 0.961426 0.368652 0.848145 0.373047 0.897356 0.460874 0.978516 0.532715 0.955078 0.437988 0.954102 0.437988 0.897356 0.460874 0.848145 0.373047 0.961426 0.368652 0.955078 0.437988 0.954102 0.437988 0.961426 0.368652 0.496094 0.325614 0.407552 0.375698 0.407552 0.475865 0.496094 0.525948 0.910156 0.96875 0.390625 0.835938 0.390625 0.96875 0.584636 0.475865 0.584636 0.375698 0.945313 0.96875 0.976563 0.835938 0.976563 0.96875 0.910156 0.835938 0.910156 0.695313 0.910156 0.835938 0.945313 0.835938 0.945313 0.695313 0.910156 0.558594 0.945313 0.558594 0.910156 0.695313 0.945313 0.695313 0.910156 0.835938 0.945313 0.835938 0.910156 0.96875 0.36794 0.48384 0.36794 0.430223 0.322266 0.403516 0.028255 0.476353 0.260807 0.495674 0.260807 0.476353 0.36794 0.430223 0.36794 0.48384 0.321875 0.510547 0.275391 0.430469 0.274609 0.482031 0.275391 0.430469 0.274609 0.482031 0.028255 0.43771 0.955078 0.437988 0.961426 0.368652 0.848145 0.373047 0.897356 0.460874 0.978516 0.532715 0.955078 0.437988 0.954102 0.437988 0.139757 0.967014 0.063304 0.967071 0.0585938 0.953125 0.132378 0.940104 0.226563 0.925347 0.21441 0.892795 0.282552 0.874132 0.268663 0.84809 0.356337 0.888889 0.101563 0.246094 0.101563 0.311785 0.153036 0.286967 0.0500889 0.286967 0.339844 0.824219 0.369792 0.872396 0.306858 0.766059 0.325087 0.83724 0.106337 0.884983 0.0585938 0.953125 0.132378 0.940104 0.132378 0.549479 0.0590278 0.537326 0.0625 0.521701 0.140625 0.525174 0.213108 0.595486 0.225694 0.566406 0.275608 0.641927 0.291233 0.616753 0.340278 0.666233 0.325087 0.654514 0.357205 0.603733 0.371094 0.617188 0.0477431 0.561198 0.0277778 0.546441 0.105903 0.605903 0.215712 0.700521 0.307726 0.720486 0.289931 0.710069 0.290799 0.77908 0.160459 0.256728 0.160459 0.23546 0.0426666 0.23546 0.0426666 0.256728 0.153036 0.20522 0.216146 0.790365 0.216146 0.790365 0.289931 0.710069 0.215712 0.700521 0.102628 0.330256 0.148793 0.387429 0.102628 0.399503 0.102628 0.330256 0.0245421 0.276678 0.024858 0.210938 0.102983 0.158026 0.177912 0.279474 0.181108 0.352628 0.177912 0.279474 0.181108 0.352628 0.21441 0.892795 0.177912 0.207031 0.0553977 0.387429 0.482031 0.271875 0.364453 0.247656 0.364844 0.227734 0.543896 0.300048 0.481641 0.243359 0.632813 0.320313 0.543896 0.264455 0.240885 0.127604 0.288411 0.106771 0.335938 0.126302 0.103484 0.244371 0.152799 0.224034 0.144338 0.203696 0.632813 0.0742188 0.543896 0.0925971 0.543896 0.0570043 0.481641 0.110547 0.364453 0.127734 0.363672 0.177344 0.239583 0.227214 0.359375 0.175781 0.338542 0.226563 0.632813 0.28125 0.543896 0.264455 0.219401 0.176432 0.287109 0.248698 0.0497032 0.244371 0.0541683 0.264708 0.144338 0.285045 0.152799 0.264708 0.103484 0.301893 0.0626294 0.285045 0.0541682 0.224034 0.0626294 0.203696 0.0355903 0.138021 0.0360243 0.138021 0.76821 0.0310683 0.97331 0.0309824 0.821758 0.352703 0.97331 0.0309824 0.821758 0.352703 0.76821 0.0310683 0.606379 0.535702 0.606379 0.535702 0.775022 0.536336 0.775022 0.536336 0.220145 0.362582 0.961426 0.368652 0.978516 0.532715 0.955078 0.437988 0.910156 0.835938 0.390625 0.695313 0.910156 0.695313 0.390625 0.558594 0.976563 0.695313 0.910156 0.558594 0.390625 0.695313 0.976563 0.558594 0.910156 0.695313 0.390625 0.835938 0.976563 0.695313 0.976563 0.835938 0.321875 0.510547 0.028255 0.495674 0.260807 0.476353 0.322266 0.403516 0.028255 0.476353 0.260807 0.43771 0.028255 0.43771 0.260807 0.418389 0.028255 0.418389 0.260807 0.43771 0.961426 0.368652 0.0286458 0.94401 0.0479294 0.927997 0.106337 0.884983 0.325087 0.83724 0.339844 0.824219 0.306858 0.766059 0.268663 0.84809 0.290799 0.77908 0.0479294 0.927997 0.0590278 0.537326 0.132378 0.549479 0.213108 0.595486 0.275608 0.641927 0.325087 0.654514 0.340278 0.666233 0.101563 0.180403 0.050089 0.20522 0.105903 0.605903 0.0477431 0.561198 0.307726 0.720486 0.102628 0.399503 0.0553977 0.387429 0.0234375 0.352273 0.0234375 0.352273 0.0239561 0.275339 0.148793 0.387429 0.363672 0.177344 0.482031 0.176953 0.364453 0.127734 0.481641 0.110547 0.364062 0.108203 0.482422 0.0832031 0.364453 0.127344 0.54375 0.176562 0.543896 0.0925971 0.482031 0.176953 0.54375 0.176562 0.481641 0.243359 0.632813 0.28125 0.587109 0.177734 0.632813 0.230469 0.632813 0.125 0.632813 0.0351563 0.632813 0.0742188 0.587109 0.177734 0.632813 0.125 0.364844 0.227734 0.632813 0.230469 0.157264 0.244371 0.103484 0.186849 </float_array>
          <technique_common>
            <accessor count="260" offset="0" source="#snake-mesh0-tex0-array" stride="2">
              <param name="S" type="float" />
              <param name="T" type="float" />
            </accessor>
          </technique_common>
        </source>
        <vertices id="snake-mesh0-vertices">
          <input semantic="POSITION" source="#snake-mesh0-positions" />
          <input semantic="NORMAL" source="#snake-mesh0-normals" />
          <input semantic="TEXCOORD" source="#snake-mesh0-tex0" />
        </vertices>
        <polylist count="304" material="theresonlyone">
          <input offset="0" semantic="VERTEX" source="#snake-mesh0-vertices" />
          <vcount>3 3 3 3 3 3 3 3 3 3 3 3 3 3 3 3 3 3 3 3 3 3 3 3 3 3 3 3 3 3 3 3 3 3 3 3 3 3 3 3 3 3 3 3 3 3 3 3 3 3 3 3 3 3 3 3 3 3 3 3 3 3 3 3 3 3 3 3 3 3 3 3 3 3 3 3 3 3 3 3 3 3 3 3 3 3 3 3 3 3 3 3 3 3 3 3 3 3 3 3 3 3 3 3 3 3 3 3 3 3 3 3 3 3 3 3 3 3 3 3 3 3 3 3 3 3 3 3 3 3 3 3 3 3 3 3 3 3 3 3 3 3 3 3 3 3 3 3 3 3 3 3 3 3 3 3 3 3 3 3 3 3 3 3 3 3 3 3 3 3 3 3 3 3 3 3 3 3 3 3 3 3 3 3 3 3 3 3 3 3 3 3 3 3 3 3 3 3 3 3 3 3 3 3 3 3 3 3 3 3 3 3 3 3 3 3 3 3 3 3 3 3 3 3 3 3 3 3 3 3 3 3 3 3 3 3 3 3 3 3 3 3 3 3 3 3 3 3 3 3 3 3 3 3 3 3 3 3 3 3 3 3 3 3 3 3 3 3 3 3 3 3 3 3 3 3 3 3 3 3 3 3 3 3 3 3 3 3 3 3 3 3 3 3 3 3 3 3 3 3 3 3 3 3 </vcount>
          <p>0 1 2 3 4 5 3 5 0 6 7 8 6 8 9 7 6 4 7 4 3 10 11 12 10 12 13 14 15 16 17 18 19 20 21 17 22 23 21 22 21 20 24 25 26 24 26 27 28 26 29 30 31 32 30 32 33 34 35 36 33 37 38 33 38 30 39 40 41 42 34 36 43 44 45 43 45 46 47 43 46 47 46 48 49 47 48 49 48 50 51 49 50 51 50 52 53 51 52 54 55 56 57 58 59 60 61 62 56 63 64 65 62 66 67 57 59 68 69 70 71 72 68 73 74 72 73 72 71 75 76 77 75 77 78 79 75 78 79 78 80 81 79 80 81 80 82 83 81 82 84 85 86 87 85 84 88 83 89 90 91 88 92 93 94 95 96 97 95 97 98 99 95 98 99 98 100 101 99 100 101 100 102 103 104 105 103 105 106 107 108 96 109 107 96 109 96 95 110 109 95 110 95 99 111 112 104 111 104 103 113 112 111 84 114 115 84 116 117 84 115 118 86 114 84 84 117 87 119 112 113 120 121 122 123 124 125 126 127 128 126 128 129 126 130 131 123 132 133 92 94 134 92 134 120 99 101 110 129 135 130 129 130 126 123 133 124 125 136 123 101 102 105 137 138 139 140 137 141 142 140 143 144 145 146 147 148 149 150 151 152 153 154 155 156 157 158 159 160 140 159 140 142 146 161 144 158 162 156 147 163 164 165 166 147 167 165 147 168 167 147 164 168 147 169 163 147 170 169 147 0 2 3 2 171 3 3 171 7 171 172 7 7 172 8 173 174 175 174 176 175 175 176 177 176 178 177 177 178 179 178 173 179 179 173 180 173 175 180 180 175 181 175 177 181 181 177 182 177 179 182 16 15 183 15 14 183 17 19 20 19 184 20 20 184 22 184 18 22 22 18 23 27 185 24 185 186 24 24 186 25 186 29 25 185 28 186 28 29 186 34 187 35 187 188 35 187 189 188 189 190 188 39 52 40 52 191 40 189 192 190 192 193 190 52 50 191 50 194 191 192 195 193 195 196 193 50 48 194 48 197 194 195 42 196 42 36 196 48 46 197 46 198 197 46 45 198 45 41 198 44 53 39 53 52 39 44 39 45 39 41 45 54 56 199 56 64 199 57 200 58 200 201 58 60 62 202 62 65 202 200 203 201 203 204 201 203 205 204 205 206 204 205 207 206 207 208 206 207 67 208 67 59 208 68 70 71 70 209 71 71 209 73 209 69 73 73 69 74 76 210 77 210 211 77 77 211 78 211 212 78 78 212 80 212 119 80 80 119 82 119 113 82 82 113 213 113 214 213 213 214 89 89 83 213 83 82 213 214 113 215 113 111 215 88 91 83 91 216 83 83 216 81 216 79 81 216 134 79 134 75 79 134 94 75 94 76 75 94 93 76 93 210 76 90 217 91 217 216 91 217 120 216 120 134 216 92 218 93 218 210 93 96 108 97 108 219 97 97 219 98 219 220 98 98 220 100 220 221 100 100 221 102 221 222 102 102 222 105 222 223 105 105 223 106 223 224 106 105 104 101 104 112 101 101 112 110 112 119 110 118 225 84 225 226 84 84 226 116 224 223 121 223 222 121 121 222 122 222 221 122 122 221 227 221 220 227 227 220 228 220 219 228 228 219 108 224 121 229 121 90 229 90 121 217 121 120 217 230 231 126 231 232 126 126 232 127 136 233 123 233 234 123 131 235 126 235 230 126 137 139 141 139 236 141 141 236 237 236 238 237 237 238 239 238 240 239 239 240 241 240 242 241 241 242 153 140 141 143 141 237 143 143 237 243 237 239 243 243 239 151 239 241 151 151 241 152 241 153 152 152 153 244 153 245 244 244 245 246 245 247 246 246 247 160 247 137 160 160 137 140 142 143 248 143 249 248 248 249 250 143 243 249 243 151 249 249 151 251 151 150 251 150 152 252 152 244 252 252 244 253 244 254 253 253 254 255 153 155 245 155 256 245 245 256 247 256 138 247 247 138 137 244 246 254 246 160 254 254 160 257 160 159 257 156 161 157 161 146 157 166 258 147 258 148 147 149 259 147 259 170 147 </p>
        </polylist>
      </mesh>
    </geometry>
  </library_geometries>
  <library_visual_scenes>
    <visual_scene id="myScene" name="myScene">
      <node id="wg008" name="wg008">
        <matrix>1.94707e-007 0 1 0 0 1 0 0 -1 0 1.94707e-007 0 0 0 0 1</matrix>
        <node id="snake" name="snake">
          <matrix>1.94707e-007 -0 -1 0 0 1 -0 0 1 0 1.94707e-007 0 0 0 0 1</matrix>
          <instance_geometry url="#snake-mesh0">
            <bind_material>
              <technique_common>
                <instance_material symbol="theresonlyone" target="#m0snake" />
              </technique_common>
            </bind_material>
          </instance_geometry>
          <node id="gcol00" name="gcol00">
            <matrix>1.94707e-007 0 1 8.30949 0 1 0 -0.0103934 -1 0 1.94707e-007 2.79709 0 0 0 1</matrix>
          </node>
          <node id="sp" name="sp">
            <matrix>1.94707e-007 0 1 13.3095 0 1 0 -0.0103934 -1 0 1.94707e-007 2.79709 0 0 0 1</matrix>
          </node>
        </node>
      </node>
    </visual_scene>
  </library_visual_scenes>
  <scene>
    <instance_visual_scene url="#myScene" />
  </scene>
</COLLADA>