<?xml version="1.0" encoding="utf-8"?>
<COLLADA xmlns="http://www.collada.org/2005/11/COLLADASchema" version="1.4.1">
  <asset>
    <contributor>
      <author>Someone</author>
      <authoring_tool>Assimp Collada Exporter</authoring_tool>
    </contributor>
    <created>2000-01-01T23:59:59</created>
    <modified>2000-01-01T23:59:59</modified>
    <unit name="meter" meter="1" />
    <up_axis>Y_UP</up_axis>
  </asset>
  <library_images>
    <image id="m0cat-diffuse-image">
      <init_from>cat.png</init_from>
    </image>
  </library_images>
  <library_effects>
    <effect id="m0cat-fx" name="m0cat">
      <profile_COMMON>
        <newparam sid="m0cat-diffuse-surface">
          <surface type="2D">
            <init_from>m0cat-diffuse-image</init_from>
          </surface>
        </newparam>
        <newparam sid="m0cat-diffuse-sampler">
          <sampler2D>
            <source>m0cat-diffuse-surface</source>
          </sampler2D>
        </newparam>
        <technique sid="standard">
          <phong>
            <emission>
              <color sid="emission">0   0   0   0</color>
            </emission>
            <ambient>
              <color sid="ambient">1   1   1   1</color>
            </ambient>
            <diffuse>
              <texture texture="m0cat-diffuse-sampler" texcoord="CHANNEL0" />
            </diffuse>
            <specular>
              <color sid="specular">0   0   0   0</color>
            </specular>
            <shininess>
              <float sid="shininess">16</float>
            </shininess>
            <reflective>
              <color sid="reflective">0   0   0   0</color>
            </reflective>
          </phong>
        </technique>
      </profile_COMMON>
    </effect>
  </library_effects>
  <library_materials>
    <material id="m0cat" name="m0cat">
      <instance_effect url="#m0cat-fx" />
    </material>
  </library_materials>
  <library_geometries>
    <geometry id="obj83-mesh0" name="obj83-mesh0">
      <mesh>
        <source id="obj83-mesh0-positions" name="obj83-mesh0-positions">
          <float_array id="obj83-mesh0-positions-array" count="1059"> -2.28527 0.714355 4.26289 -2.28527 -0.714355 4.26289 -2.72218 -0.714355 3.97288 -2.72218 0.714355 3.97288 -1.33158 0.714355 2.82613 -2.28527 0.714355 4.26289 -2.72218 0.714355 3.97288 -1.76849 0.714355 2.53612 -1.33158 -0.714355 2.82613 -1.46743 -0.714355 2.55667 -1.76849 -0.714355 2.53612 -1.33158 0.885857 2.82613 -1.46743 0.885857 2.55667 -1.76849 0.885857 2.53612 -1.76849 -0.885857 2.53612 -1.46743 -0.885857 2.55667 -1.33158 -0.885857 2.82613 -2.28527 0.714355 4.26289 -1.33158 0.714355 2.82613 -1.33158 0.885857 2.82613 -2.39633 0.885857 4.43021 -2.39633 -0.885857 4.43021 -2.39633 0.885857 4.43021 -2.83325 0.885857 4.1402 -2.83325 -0.885857 4.1402 -1.46743 0.714355 2.55667 -1.76849 0.714355 2.53612 -1.76849 0.885857 2.53612 -1.46743 0.885857 2.55667 -1.46743 -0.714355 2.55667 -1.33158 -0.714355 2.82613 -1.33158 -0.885857 2.82613 -1.46743 -0.885857 2.55667 -2.83325 0.885857 4.1402 -1.76849 0.885857 2.53612 -1.76849 0.714355 2.53612 -2.72218 0.714355 3.97288 -2.39633 -0.885857 4.43021 -1.33158 -0.885857 2.82613 -1.33158 -0.714355 2.82613 -2.28527 -0.714355 4.26289 -2.72218 -0.714355 3.97288 -1.76849 -0.714355 2.53612 -1.76849 -0.885857 2.53612 -2.83325 -0.885857 4.1402 -1.46743 0.885857 2.55667 -1.33158 0.885857 2.82613 -1.33158 0.714355 2.82613 -1.46743 0.714355 2.55667 -1.46743 -0.885857 2.55667 -1.76849 -0.885857 2.53612 -1.76849 -0.714355 2.53612 -1.46743 -0.714355 2.55667 5.39226 0.415222 -3.92627 7.35213 0.415222 -2.74613 8.13538 0.415222 -3.81051 6.47398 0.415222 -5.38327 7.35213 -0.415222 -2.74613 5.39226 -0.415222 -3.92627 6.47398 -0.415222 -5.38327 8.13538 -0.415222 -3.81051 4.83136 0.415222 -2.42558 6.99119 0.415222 -1.67127 6.99119 -0.415222 -1.67127 4.83136 -0.415222 -2.42558 6.87303 0.415222 -0.48972 4.59716 0.415222 -0.722667 4.59121 0.415222 0.931975 6.87898 0.415222 0.931975 4.59716 -0.415222 -0.722667 6.87303 -0.415222 -0.48972 6.87898 -0.415222 0.931975 4.59121 -0.415222 0.931975 7.10817 -0.610092 0.19997 7.35423 0.610092 0.825 7.35423 -0.610092 0.825 4.36203 -0.610092 0.199971 7.35423 -0.610092 0.825 4.36203 0.610092 0.199971 7.10817 0.610092 0.19997 7.61886 0 1.92087 8.70147 0.500801 2.21001 8.70147 0 1.92087 7.61886 0 3.07742 8.70147 -0.500801 2.78828 8.70147 0 3.07742 7.61886 -0.500801 2.21001 8.70147 -0.500801 2.21001 7.61886 0.500801 2.78828 8.70147 0.500801 2.78828 7.61886 -0.500801 2.78828 7.61886 0.500801 2.21001 10.8804 0 3.0882 11.5051 -0.510132 2.79367 11.5051 0 3.0882 10.8804 0.510132 2.20462 10.8804 0 1.9101 10.8804 -0.510132 2.20462 10.8804 0.510132 2.79367 10.8804 -0.510132 2.20462 10.8804 0.510132 2.79367 10.8804 0.510132 2.20462 10.0063 0.3839 2.49915 10.9656 0 2.88305 10.9656 0.3839 2.49915 10.0063 0 2.11524 10.9656 0 2.11524 10.0063 -0.3839 2.49915 8.59383 0 3.16383 10.0781 -0.57563 2.83149 10.0781 0 3.16383 8.59383 0.575634 2.83149 10.0781 0.575634 2.83149 8.59383 0.575634 2.1668 10.0781 0.575634 2.1668 8.59383 0 1.83446 -0.178968 -0.403023 0.746366 -1.56126 -0.403023 0.741206 -1.6808 -0.403023 0.358607 -0.493683 0.403023 -0.33564 -0.178968 0.403023 0.746366 -0.493683 -0.403023 -0.33564 -0.94608 -0.403023 -0.33564 -0.94608 0.403023 -0.33564 -1.71647 -0.403023 -3.36617 -3.53277 -0.403023 -3.36617 -3.53277 0.403023 -3.36617 -1.71647 0.403023 -3.36617 -2.79786 -0.403023 -1.26547 -3.53277 -0.403023 -3.36617 -1.71647 -0.403023 -3.36617 -1.42283 -0.403023 -1.35565 -1.42283 0.403023 -1.35565 -1.71647 0.403023 -3.36617 -3.53277 0.403023 -3.36617 -2.79786 0.403023 -1.26547 -0.178968 0.403023 0.746366 -0.493683 0.403023 -0.33564 -0.94608 0.403023 -0.33564 -1.6808 0.403023 0.358607 -1.56126 0.403023 0.741206 0.532936 0.212521 -3.30316 -1.8528 0.212521 -3.3306 -1.75108 0.212521 -2.86555 0.561996 0.212521 -2.67825 0.300449 0.212521 -2.88171 0.300449 -0.212521 -2.88171 1.72011 0.212521 -1.05928 2.82806 0.212521 0.346772 2.82806 -0.212521 0.346772 1.4295 0.212521 -0.972086 2.24174 0.212521 0.359125 0.838074 0.212521 -3.08517 -2.05014 -0.829102 1.44221 8.08452 -0.829102 1.44221 8.08452 0.829105 1.44221 8.08452 -0.829102 1.44221 7.76279 -0.829102 0.679643 7.76279 0.829105 0.679643 8.08452 0.829105 1.44221 7.76279 -0.829102 0.679643 -1.66758 -0.829102 0.679644 -1.66758 0.829105 0.679644 -1.66758 -0.829102 0.679644 -2.05014 -0.829102 1.44221 -2.05014 0.829105 1.44221 -1.66758 0.829105 0.679644 -1.81186 0.6842 1.20401 7.71944 0.6842 1.20401 7.71944 -0.684196 1.20401 -1.81186 -0.684196 1.20401 7.71944 -0.684196 1.20401 8.03568 -0.684196 2.10633 7.74508 -0.684196 2.43851 7.74508 0.6842 2.43851 8.03568 0.6842 2.10633 -2.45966 0.6842 2.44605 -2.01617 0.6842 3.15788 7.71944 0.6842 3.15788 7.71944 -0.684196 3.15788 -2.01617 -0.684196 3.15788 -2.45966 -0.684196 2.44605 0.243927 0.170563 0.756202 -0.631369 0.170563 -0.197931 -0.434672 0.170563 0.756202 0.243927 -0.170563 0.756202 0.0570641 -0.170563 -0.197931 0.0570641 0.170563 -0.197931 -0.434672 -0.170563 0.756202 -1.26822 0.0779991 3.88004 -0.899562 0.0779991 3.88004 -0.899562 -0.0779991 3.88004 -1.26822 -0.0779991 3.88004 -0.899562 0.0779991 3.88004 -0.897647 0.0779991 3.2089 -0.897647 -0.0779991 3.2089 -0.899562 -0.0779991 3.88004 -1.26822 0.0779991 3.88004 -1.47423 0.0779991 3.20767 -0.897647 0.0779991 3.2089 -0.899562 0.0779991 3.88004 -1.47423 0.0779991 3.20767 -1.26822 0.0779991 3.88004 -1.26822 -0.0779991 3.88004 -1.47423 -0.0779991 3.20767 -0.899562 -0.0779991 3.88004 -0.897647 -0.0779991 3.2089 -1.47423 -0.0779991 3.20767 -1.26822 -0.0779991 3.88004 7.14524 0.0779991 3.88004 7.51389 0.0779991 3.88004 7.51389 -0.0779991 3.88004 7.14524 -0.0779991 3.88004 7.51389 0.0779991 3.88004 7.51581 0.0779991 3.2089 7.51581 -0.0779991 3.2089 7.51389 -0.0779991 3.88004 7.14524 0.0779991 3.88004 6.93922 0.0779991 3.20767 7.51581 0.0779991 3.2089 7.51389 0.0779991 3.88004 6.93922 0.0779991 3.20767 7.14524 0.0779991 3.88004 7.14524 -0.0779991 3.88004 6.93922 -0.0779991 3.20767 7.51389 -0.0779991 3.88004 7.51581 -0.0779991 3.2089 6.93922 -0.0779991 3.20767 7.14524 -0.0779991 3.88004 -2.83325 0.885857 4.1402 -2.39633 0.885857 4.43021 -1.46743 0.714355 2.55667 -2.72218 -0.714355 3.97288 -2.28527 -0.714355 4.26289 -2.39633 -0.885857 4.43021 -2.83325 -0.885857 4.1402 7.35213 0.415222 -2.74613 7.35213 -0.415222 -2.74613 8.13538 -0.415222 -3.81051 8.13538 0.415222 -3.81051 5.39226 -0.415222 -3.92627 5.39226 0.415222 -3.92627 6.47398 0.415222 -5.38327 6.47398 -0.415222 -5.38327 6.47398 -0.415222 -5.38327 6.47398 0.415222 -5.38327 8.13538 0.415222 -3.81051 8.13538 -0.415222 -3.81051 6.99119 0.415222 -1.67127 6.99119 -0.415222 -1.67127 4.83136 -0.415222 -2.42558 4.83136 0.415222 -2.42558 6.87303 -0.415222 -0.48972 6.87303 0.415222 -0.48972 6.87898 0.415222 0.931975 6.87898 -0.415222 0.931975 4.59716 0.415222 -0.722667 4.59716 -0.415222 -0.722667 4.59121 -0.415222 0.931975 4.59121 0.415222 0.931975 11.5051 0.510132 2.79367 11.5051 0 3.0882 11.5051 -0.510132 2.79367 11.5051 0.510132 2.20462 11.5051 -0.510132 2.20462 11.5051 0 1.9101 10.0781 -0.57563 2.1668 10.0781 0 1.83446 10.0781 0.575634 2.1668 10.0781 0.575634 2.83149 10.0781 0 3.16383 10.0781 -0.57563 2.83149 8.59383 0.575634 2.1668 8.59383 0 1.83446 8.59383 -0.57563 2.1668 8.59383 -0.57563 2.83149 8.59383 0 3.16383 8.59383 0.575634 2.83149 -0.94608 -0.403023 -0.33564 -1.42283 0.403023 -1.35565 -0.94608 0.403023 -0.33564 -1.42283 -0.403023 -1.35565 -1.71647 -0.403023 -3.36617 -1.71647 0.403023 -3.36617 -3.53277 -0.403023 -3.36617 -2.79786 0.403023 -1.26547 -3.53277 0.403023 -3.36617 -1.6808 -0.403023 0.358607 -1.56126 -0.403023 0.741206 -1.56126 0.403023 0.741206 7.74508 0.6842 2.43851 7.71944 0.6842 3.15788 7.71944 0 3.30609 7.71944 -0.684196 3.15788 7.74508 -0.684196 2.43851 -2.45966 -0.684196 2.44605 -2.01617 -0.684196 3.15788 -1.90184 0 3.30609 -2.45966 0.6842 2.44605 -1.81186 0.6842 1.20401 -1.81186 -0.684196 1.20401 -2.45966 -0.684196 2.44605 7.71944 0.6842 1.20401 8.03568 0.6842 2.10633 8.03568 -0.684196 2.10633 7.71944 -0.684196 1.20401 8.03568 0.6842 2.10633 7.74508 0.6842 2.43851 7.74508 -0.684196 2.43851 8.03568 -0.684196 2.10633 -2.01617 0.6842 3.15788 -2.45966 0.6842 2.44605 -1.90184 0 3.30609 -2.01617 -0.684196 3.15788 7.71944 -0.684196 3.15788 7.71944 0 3.30609 7.71944 0.6842 3.15788 -2.01617 0.6842 3.15788 4.11596 0.610092 0.825 4.11596 -0.610092 0.825 10.8804 0 3.0882 10.8804 -0.510132 2.79367 10.8804 -0.510132 2.79367 11.5051 -0.510132 2.20462 10.8804 -0.510132 2.20462 11.5051 0 1.9101 10.8804 0 1.9101 11.5051 0.510132 2.20462 10.8804 0.510132 2.20462 11.5051 0.510132 2.79367 10.0063 0 2.88305 10.9656 -0.3839 2.49915 8.59383 -0.57563 2.83149 10.0781 -0.57563 2.1668 8.59383 -0.57563 2.1668 10.0781 0 1.83446 -1.75108 -0.212521 -2.86555 -1.8528 -0.212521 -3.3306 0.532936 -0.212521 -3.30316 1.86974 0.212521 0.780579 2.24174 -0.212521 0.359125 1.4295 -0.212521 -0.972086 1.72011 -0.212521 -1.05928 0.838074 -0.212521 -3.08517 1.86974 -0.212521 0.780579 3.98436 -0.212521 0.832871 3.98436 0.212521 0.832871 0.561996 -0.212521 -2.67825 -2.05014 0.829105 1.44221 7.76279 0.829105 0.679643 -0.631369 -0.170563 -0.197931 -2.79786 -0.403023 -1.26547 -1.6808 0.403023 0.358607 </float_array>
          <technique_common>
            <accessor count="353" offset="0" source="#obj83-mesh0-positions-array" stride="3">
              <param name="X" type="float" />
              <param name="Y" type="float" />
              <param name="Z" type="float" />
            </accessor>
          </technique_common>
        </source>
        <source id="obj83-mesh0-normals" name="obj83-mesh0-normals">
          <float_array id="obj83-mesh0-normals-array" count="1059"> 0.553034 0 -0.833159 0.553034 0 -0.833159 0.553034 0 -0.833159 0.553034 0 -0.833159 0 -1 0 0 -1 0 0 -1 0 0 -1 0 0 1 0 0 1 0 0 1 0 0 1 0 0 1 0 0 1 0 0 -1 0 0 -1 0 0 -1 0 0.83316 -7.79877e-007 0.553032 0.83316 -7.79877e-007 0.553032 0.83316 -7.79877e-007 0.553032 0.83316 -7.79877e-007 0.553032 -0.553033 0 0.83316 -0.553033 0 0.83316 -0.553033 0 0.83316 -0.553033 0 0.83316 0.0681037 0 -0.997678 0.0681037 0 -0.997678 0.0681037 0 -0.997678 0.0681037 0 -0.997678 0.892942 0 -0.450171 0.892942 0 -0.450171 0.892942 0 -0.450171 0.892942 0 -0.450171 -0.833159 2.72614e-006 -0.553034 -0.833159 2.72614e-006 -0.553034 -0.833159 2.72614e-006 -0.553034 -0.833159 2.72614e-006 -0.553034 0.83316 -7.79877e-007 0.553032 0.83316 -7.79877e-007 0.553032 0.83316 -7.79877e-007 0.553032 0.83316 -7.79877e-007 0.553032 -0.833159 2.72614e-006 -0.553034 -0.833159 2.72614e-006 -0.553034 -0.833159 2.72614e-006 -0.553034 -0.833159 2.72614e-006 -0.553034 0.892942 0 -0.450171 0.892942 0 -0.450171 0.892942 0 -0.450171 0.892942 0 -0.450171 0.0681037 0 -0.997678 0.0681037 0 -0.997678 0.0681037 0 -0.997678 0.0681037 0 -0.997678 0 1 0 0 1 0 0 1 0 0 1 0 0 -1 0 0 -1 0 0 -1 0 0 -1 0 0 1 0 0 1 0 0 -1 0 0 -1 0 0 1 0 0 1 0 0 1 0 0 1 0 0 -1 0 0 -1 0 0 -1 0 0 -1 0 0.68111 -0.365996 -0.634142 0.832254 0.447214 -0.327649 0.416127 -0.894427 -0.163824 -0.287631 -0.618236 -0.731473 0.416127 -0.894427 -0.163824 -0.68111 0.365996 -0.634142 0.28763 0.618236 -0.731473 -4.32515e-007 0.188982 -0.981981 -2.88344e-007 0.755929 -0.654654 -4.32515e-007 -0.188982 -0.981981 0 -0.188982 0.98198 0 -0.755929 0.654654 7.20859e-008 0.188982 0.981981 -2.88344e-007 -0.755929 -0.654654 -1.44172e-007 -0.944911 -0.327327 7.20859e-008 0.755929 0.654654 7.20859e-008 0.944911 0.327327 0 -0.944911 0.327327 -1.44172e-007 0.944911 -0.327327 0 -0.188982 0.98198 0 -0.755929 0.654654 7.20859e-008 0.188982 0.981981 -1 0 0 -1 0 0 -1 0 0 7.20859e-008 0.755929 0.654654 -1 0 0 -1 0 0 -1 0 0 7.85881e-008 0.948684 0.316227 2.35765e-007 0.316228 0.948683 0 0.948684 -0.316227 -7.85882e-008 0.316228 -0.948683 -7.85882e-008 -0.316228 -0.948683 -2.54211e-014 -0.948684 -0.316227 0 -0.188982 0.98198 0 -0.755929 0.654654 7.20859e-008 0.188982 0.981981 7.20859e-008 0.755929 0.654654 7.20859e-008 0.944911 0.327327 -1.44172e-007 0.944911 -0.327327 -2.88344e-007 0.755929 -0.654654 -4.32515e-007 0.188982 -0.981981 0.532627 -0.83205 -0.154921 -0.674929 -0.707107 0.210882 -0.548541 -0.802867 0.233467 0.71985 0.374841 -0.584218 0.429418 0.894427 -0.124902 0.359925 -0.374841 -0.85437 0.457363 -0.757283 -0.4662 0.160919 0.888144 -0.430471 -5.25064e-007 0 -1 -5.25064e-007 0 -1 -5.25064e-007 0 -1 -5.25064e-007 0 -1 -0.613282 -0.709886 0.346335 -0.844255 -0.447214 0.295353 0.442519 -0.894427 -0.0646289 0.683211 -0.710461 -0.168725 0.663419 0.710461 -0.234779 0.885038 0.447214 -0.129258 -0.422128 0.894427 0.147676 -0.641674 0.709886 0.290375 0.429418 0.894427 -0.124902 0.71985 0.374841 -0.584218 0.160919 0.888144 -0.430471 -0.726758 0.558543 0.399816 -0.674929 0.707107 0.210882 0.282437 0.721661 -0.632008 0.0102875 0.447214 -0.894368 0.00352199 0.894427 0.4472 -0.504903 0.714686 0.484042 -0.144514 0.724676 0.673765 -0.294734 -0.724676 0.622877 0.58852 0.709696 -0.387267 0.373041 0.717141 -0.588684 0.468159 -0.717141 -0.516271 -0.62162 0.707343 0.336535 -0.630598 0.769959 0.0975156 0.578444 0.718552 -0.386117 9.98084e-008 -0.707107 0.707107 9.98084e-008 -0.707107 0.707107 9.98084e-008 0.707107 0.707107 0.921354 0 -0.388724 0.921354 0 -0.388724 0.921354 0 -0.388724 0.921354 0 -0.388724 -1.07262e-007 -0.707107 -0.707107 -1.07262e-007 -0.707107 -0.707107 -1.07262e-007 0.707107 -0.707107 -0.893832 0 -0.448403 -0.893832 0 -0.448403 -0.893832 0 -0.448403 -0.893832 0 -0.448403 -1.07262e-007 0.707107 -0.707107 -6.71203e-008 0.894427 -0.447214 -8.32525e-008 -0.83205 -0.5547 -1.07262e-007 -0.707107 -0.707107 -8.32525e-008 -0.83205 -0.5547 0 -1 0 0 -1 0 0 1 0 0 1 0 0 1 0 1.29501e-007 0.58867 0.808373 5.93896e-008 0.914677 0.404187 1.29501e-007 -0.588671 0.808373 5.93895e-008 -0.914677 0.404186 0 -1 0 0.438876 0.894427 -0.085952 -1.07262e-007 0.707107 -0.707107 0 1 0 0.877752 -0.447214 -0.171904 0.313984 -0.639897 -0.701389 0.7544 0.384366 -0.532112 0 -1 0 -5.25064e-007 0 -1 -5.25064e-007 0 -1 -5.25064e-007 0 -1 -5.25064e-007 0 -1 -0.999996 0 -0.00285333 -0.999996 0 -0.00285333 -0.999996 0 -0.00285333 -0.999996 0 -0.00285333 0 -1 0 0 -1 0 0 -1 0 0 -1 0 0.956125 0 -0.292958 0.956125 0 -0.292958 0.956125 0 -0.292958 0.956125 0 -0.292958 0 1 0 0 1 0 0 1 0 0 1 0 -5.25064e-007 0 -1 -5.25064e-007 0 -1 -5.25064e-007 0 -1 -5.25064e-007 0 -1 -0.999996 0 -0.00285333 -0.999996 0 -0.00285333 -0.999996 0 -0.00285333 -0.999996 0 -0.00285333 0 -1 0 0 -1 0 0 -1 0 0 -1 0 0.956125 0 -0.292958 0.956125 0 -0.292958 0.956125 0 -0.292958 0.956125 0 -0.292958 0 1 0 0 1 0 0 1 0 0 1 0 0 1 0 0 1 0 0 -1 0 0 1 0 0 1 0 0 -1 0 0 -1 0 0.86215 0 0.506653 0.910181 0 0.414211 0.805426 0 0.592697 0.805426 0 0.592697 -0.85499 0 -0.518644 -0.899985 0 -0.43592 -0.802907 0 -0.596104 -0.802907 0 -0.596104 0.687469 0 -0.726214 0.687469 0 -0.726214 0.687469 0 -0.726214 0.687469 0 -0.726214 0.969074 0 0.246769 0.984848 0 0.173418 -0.959901 0 -0.280339 -0.977987 0 -0.208664 0.999537 0 0.0304171 0.997884 0 0.0650222 0.999991 0 -0.00418308 0.999991 0 -0.00418308 -0.998852 0 -0.0479059 -0.99574 0 -0.0922105 -0.999994 0 -0.00359417 -0.999994 0 -0.00359417 1 0 0 1 0 0 1 0 0 1 0 0 1 0 0 1 0 0 1 0 0 1 0 0 1 0 0 1 0 0 1 0 0 1 0 0 -1 0 0 -1 0 0 -1 0 0 -1 0 0 -1 0 0 -1 0 0 0.457363 -0.757283 -0.4662 0.663419 0.710461 -0.234779 0.160919 0.888144 -0.430471 0.683211 -0.710461 -0.168725 0.442519 -0.894427 -0.0646289 0.885038 0.447214 -0.129258 -0.844255 -0.447214 0.295353 -0.641674 0.709886 0.290375 -0.422128 0.894427 0.147676 -0.548541 -0.802867 0.233467 -0.674929 -0.707107 0.210882 -0.674929 0.707107 0.210882 0.999483 0.000749802 0.0321528 0.999336 0.00771445 0.0356129 0.999537 0.00112472 0.030422 0.999533 -0.0027326 0.030422 0.999366 -6.2051e-009 0.035614 -0.843822 0.0136353 0.53645 -0.848435 0.0272669 0.528597 -0.845525 -2.42213e-008 0.533937 -0.88665 0 -0.46244 -0.88665 0 -0.46244 -0.88665 0 -0.46244 -0.88665 0 -0.46244 0.943718 0 -0.330751 0.943718 0 -0.330751 0.943718 0 -0.330751 0.943718 0 -0.330751 0.752633 0 0.658441 0.752633 0 0.658441 0.752633 0 0.658441 0.752633 0 0.658441 -0.848435 -0.027267 0.528597 -0.843822 -0.0136353 0.53645 1.64193e-007 -0.0720199 0.997403 5.93895e-008 -0.914677 0.404186 1.29501e-007 -0.588671 0.808373 1.64193e-007 0.0720186 0.997403 5.93896e-008 0.914677 0.404187 1.29501e-007 0.58867 0.808373 -0.416127 0.894427 -0.163824 -0.832254 -0.447214 -0.327649 -1 0 0 -1 0 0 0 -0.944911 0.327327 -1.44172e-007 -0.944911 -0.327327 -2.88344e-007 -0.755929 -0.654654 -4.32515e-007 -0.188982 -0.981981 -4.32515e-007 0.188982 -0.981981 -2.88344e-007 0.755929 -0.654654 -1.44172e-007 0.944911 -0.327327 7.20859e-008 0.944911 0.327327 2.35765e-007 -0.316228 0.948683 7.85881e-008 -0.948684 0.316227 0 -0.944911 0.327327 -1.44172e-007 -0.944911 -0.327327 -2.88344e-007 -0.755929 -0.654654 -4.32515e-007 -0.188982 -0.981981 0.00704398 -0.447214 0.894399 0.00514375 -0.894427 -0.447184 0.145368 -0.721661 -0.676811 -0.670566 0.447214 -0.591896 -0.603924 -0.769959 -0.206006 -0.612719 -0.707343 0.352479 0.619609 -0.709696 -0.335285 0.49807 -0.718552 -0.485396 -0.335283 -0.894427 -0.295948 0.346628 -0.447214 -0.82453 0.173314 0.894427 -0.412265 -0.570984 -0.714686 0.40398 9.98084e-008 0.707107 0.707107 -1.07262e-007 0.707107 -0.707107 -1.07262e-007 -0.707107 -0.707107 -0.613282 -0.709886 0.346335 -0.726758 0.558543 0.399816 </float_array>
          <technique_common>
            <accessor count="353" offset="0" source="#obj83-mesh0-normals-array" stride="3">
              <param name="X" type="float" />
              <param name="Y" type="float" />
              <param name="Z" type="float" />
            </accessor>
          </technique_common>
        </source>
        <source id="obj83-mesh0-tex0" name="obj83-mesh0-tex0">
          <float_array id="obj83-mesh0-tex0-array" count="706"> 0.50651 0.12066 0.50651 0.120226 0.532986 0.103733 0.532986 0.102865 0.448785 0.0355903 0.50651 0.12066 0.532986 0.103733 0.475694 0.0169271 0.448785 0.0355903 0.457031 0.0169271 0.475694 0.0169271 0.385792 0.0590994 0.396987 0.0373489 0.421798 0.03569 0.421798 0.03569 0.396987 0.0373489 0.385792 0.0590994 0.464386 0.175072 0.385792 0.0590994 0.385792 0.0590994 0.473539 0.188578 0.473539 0.188578 0.473539 0.188578 0.509545 0.165169 0.509545 0.165169 0.396987 0.0373489 0.421798 0.03569 0.421798 0.03569 0.396987 0.0373489 0.396987 0.0373489 0.385792 0.0590994 0.385792 0.0590994 0.396987 0.0373489 0.509545 0.165169 0.421798 0.03569 0.421798 0.03569 0.500392 0.151663 0.473539 0.188578 0.385792 0.0590994 0.385792 0.0590994 0.464386 0.175072 0.500392 0.151663 0.421798 0.03569 0.421798 0.03569 0.509545 0.165169 0.396987 0.0373489 0.385792 0.0590994 0.385792 0.0590994 0.396987 0.0373489 0.396987 0.0373489 0.421798 0.03569 0.421798 0.03569 0.396987 0.0373489 0.245971 0.144137 0.137247 0.2085 0.0937959 0.15045 0.185962 0.0646734 0.137247 0.2085 0.245971 0.144137 0.185962 0.0646734 0.0937959 0.15045 0.277087 0.225983 0.15727 0.267122 0.15727 0.267122 0.277087 0.225983 0.163825 0.331563 0.290079 0.318858 0.290409 0.4091 0.163495 0.4091 0.290079 0.318858 0.163825 0.331563 0.163495 0.4091 0.290409 0.4091 0.0507813 0.457031 0.0351563 0.496094 0.0342076 0.494769 0.199219 0.457031 0.0351563 0.496094 0.199219 0.457031 0.0507813 0.457031 0.945313 0.488281 0.847656 0.515625 0.847656 0.488281 0.945313 0.59375 0.847656 0.566406 0.847656 0.59375 0.945313 0.515625 0.847656 0.515625 0.945313 0.566406 0.847656 0.566406 0.945313 0.566406 0.945313 0.515625 0.433594 0.59375 0.375 0.5625 0.375 0.59375 0.433594 0.515625 0.433594 0.488281 0.433594 0.511719 0.433594 0.5625 0.433594 0.515625 0.433594 0.5625 0.433594 0.511719 0.542969 0.539063 0.453125 0.574219 0.453125 0.539063 0.542969 0.503906 0.453125 0.503906 0.542969 0.539063 0.808594 0.601563 0.675781 0.566406 0.675781 0.601563 0.808594 0.566406 0.675781 0.566406 0.808594 0.507813 0.675781 0.507813 0.808594 0.480469 0.62934 0.460938 0.746962 0.455295 0.75434 0.426215 0.655816 0.368056 0.628906 0.460938 0.655382 0.368056 0.69401 0.368056 0.693576 0.36849 0.757813 0.117188 0.90625 0.117188 0.90625 0.117188 0.757813 0.117188 0.846788 0.291667 0.90625 0.117188 0.757813 0.117188 0.734375 0.285156 0.734375 0.285156 0.757813 0.117188 0.90625 0.117188 0.846788 0.291667 0.62934 0.460938 0.655382 0.368056 0.69401 0.368056 0.75434 0.426215 0.746962 0.455295 0.616829 0.0423838 0.777286 0.040544 0.770445 0.0717215 0.614874 0.0842784 0.632465 0.0706383 0.632465 0.0706383 0.536983 0.192815 0.462465 0.287078 0.462465 0.287078 0.556529 0.198661 0.5019 0.287906 0.596306 0.0569982 0.917969 0.6875 0.15625 0.6875 0.15625 0.6875 0.15625 0.6875 0.179688 0.628906 0.179688 0.628906 0.15625 0.6875 0.179688 0.628906 0.882813 0.628906 0.882813 0.628906 0.882813 0.628906 0.917969 0.6875 0.917969 0.6875 0.882813 0.628906 0.886719 0.707031 0.175781 0.707031 0.177038 0.707505 0.886719 0.707031 0.175781 0.707031 0.152344 0.777344 0.175781 0.804688 0.175781 0.804688 0.152344 0.777344 0.9375 0.804688 0.902344 0.859375 0.175781 0.859375 0.175781 0.859375 0.902344 0.859375 0.9375 0.804688 0.550781 0.453125 0.617188 0.378906 0.605469 0.453125 0.550781 0.453125 0.566406 0.378906 0.566406 0.378906 0.605469 0.453125 0.226563 0.605469 0.183594 0.605469 0.183594 0.605469 0.226563 0.605469 0.183594 0.605469 0.183594 0.527344 0.183594 0.527344 0.183594 0.605469 0.226563 0.605469 0.25 0.527344 0.183594 0.527344 0.183594 0.605469 0.25 0.527344 0.226563 0.605469 0.226563 0.605469 0.25 0.527344 0.183594 0.605469 0.183594 0.527344 0.25 0.527344 0.226563 0.605469 0.226563 0.605469 0.183594 0.605469 0.183594 0.605469 0.226563 0.605469 0.183594 0.605469 0.183594 0.527344 0.183594 0.527344 0.183594 0.605469 0.226563 0.605469 0.25 0.527344 0.183594 0.527344 0.183594 0.605469 0.25 0.527344 0.226563 0.605469 0.226563 0.605469 0.25 0.527344 0.183594 0.605469 0.183594 0.527344 0.25 0.527344 0.226563 0.605469 0.509545 0.165169 0.473539 0.188578 0.457031 0.0169271 0.532986 0.103733 0.50651 0.12066 0.473539 0.188578 0.509545 0.165169 0.363281 0.210938 0.3125 0.210938 0.3125 0.152344 0.363281 0.152344 0.0273438 0.144531 0.078125 0.144531 0.078125 0.0585938 0.0273438 0.0585938 0.3125 0.0585938 0.363281 0.0585938 0.363281 0.152344 0.3125 0.152344 0.363281 0.269531 0.3125 0.269531 0.0273438 0.226563 0.078125 0.226563 0.3125 0.335938 0.363281 0.335938 0.363281 0.414063 0.3125 0.414063 0.078125 0.320313 0.0273438 0.320313 0.0273438 0.414063 0.078125 0.414063 0.365668 0.564236 0.32053 0.592014 0.274089 0.564453 0.365451 0.513455 0.274306 0.514106 0.320095 0.489366 0.564453 0.510417 0.612956 0.481445 0.661784 0.510091 0.662109 0.567708 0.611654 0.598633 0.564453 0.568034 0.661784 0.510091 0.612956 0.481445 0.564453 0.510417 0.564453 0.568034 0.611654 0.598633 0.662109 0.567708 0.636719 0.335938 0.699219 0.261719 0.699219 0.335938 0.636719 0.261719 0.636719 0.117188 0.699219 0.117188 0.910156 0.117188 0.980469 0.285156 0.980469 0.117188 0.910156 0.371094 0.910156 0.460938 0.980469 0.460938 0.144531 0.804688 0.144531 0.859375 0.0912642 0.869673 0.0390625 0.859375 0.0390625 0.804688 0.0351563 0.625 0.0351563 0.683594 0.0874399 0.694111 0.140625 0.625 0.140625 0.535156 0.0351563 0.535156 0.0351563 0.625 0.144531 0.707031 0.144531 0.78125 0.0390625 0.78125 0.0390625 0.707031 0.144531 0.78125 0.144531 0.804688 0.0390625 0.804688 0.0390625 0.78125 0.140625 0.683594 0.140625 0.625 0.896701 0.930556 0.90625 0.878906 0.175781 0.878906 0.176215 0.931424 0.175781 0.984375 0.90625 0.984375 0.21875 0.496094 0.21875 0.496094 0.433594 0.59375 0.433594 0.5625 0.433594 0.5625 0.375 0.515625 0.433594 0.515625 0.375 0.488281 0.433594 0.488281 0.375 0.515625 0.433594 0.515625 0.375 0.5625 0.542969 0.574219 0.453125 0.539063 0.808594 0.566406 0.675781 0.507813 0.808594 0.507813 0.675781 0.480469 0.770445 0.0717215 0.777286 0.040544 0.616829 0.0423838 0.52692 0.316161 0.5019 0.287906 0.556529 0.198661 0.536983 0.192815 0.596306 0.0569982 0.52692 0.316161 0.384697 0.319666 0.384697 0.319666 0.614874 0.0842784 0.917969 0.6875 0.179688 0.628906 0.617188 0.378906 0.910156 0.285156 0.980469 0.371094 </float_array>
          <technique_common>
            <accessor count="353" offset="0" source="#obj83-mesh0-tex0-array" stride="2">
              <param name="S" type="float" />
              <param name="T" type="float" />
            </accessor>
          </technique_common>
        </source>
        <vertices id="obj83-mesh0-vertices">
          <input semantic="POSITION" source="#obj83-mesh0-positions" />
          <input semantic="NORMAL" source="#obj83-mesh0-normals" />
          <input semantic="TEXCOORD" source="#obj83-mesh0-tex0" />
        </vertices>
        <polylist count="278" material="theresonlyone">
          <input offset="0" semantic="VERTEX" source="#obj83-mesh0-vertices" />
          <vcount>3 3 3 3 3 3 3 3 3 3 3 3 3 3 3 3 3 3 3 3 3 3 3 3 3 3 3 3 3 3 3 3 3 3 3 3 3 3 3 3 3 3 3 3 3 3 3 3 3 3 3 3 3 3 3 3 3 3 3 3 3 3 3 3 3 3 3 3 3 3 3 3 3 3 3 3 3 3 3 3 3 3 3 3 3 3 3 3 3 3 3 3 3 3 3 3 3 3 3 3 3 3 3 3 3 3 3 3 3 3 3 3 3 3 3 3 3 3 3 3 3 3 3 3 3 3 3 3 3 3 3 3 3 3 3 3 3 3 3 3 3 3 3 3 3 3 3 3 3 3 3 3 3 3 3 3 3 3 3 3 3 3 3 3 3 3 3 3 3 3 3 3 3 3 3 3 3 3 3 3 3 3 3 3 3 3 3 3 3 3 3 3 3 3 3 3 3 3 3 3 3 3 3 3 3 3 3 3 3 3 3 3 3 3 3 3 3 3 3 3 3 3 3 3 3 3 3 3 3 3 3 3 3 3 3 3 3 3 3 3 3 3 3 3 3 3 3 3 3 3 3 3 3 3 3 3 3 3 3 3 3 3 3 3 3 3 3 3 3 3 3 3 3 3 3 3 3 3 </vcount>
          <p>0 1 2 0 2 3 4 5 6 4 6 7 8 9 10 11 12 13 14 15 16 17 18 19 17 19 20 21 22 23 21 23 24 25 26 27 25 27 28 29 30 31 29 31 32 33 34 35 33 35 36 37 38 39 37 39 40 41 42 43 41 43 44 20 37 40 20 40 17 36 41 44 36 44 33 45 46 47 45 47 48 49 50 51 49 51 52 53 54 55 53 55 56 57 58 59 57 59 60 61 62 54 61 54 53 63 64 58 63 58 57 65 66 67 65 67 68 66 65 62 66 62 61 69 70 71 69 71 72 70 69 64 70 64 63 73 74 75 76 73 77 76 78 79 76 79 73 80 81 82 83 84 85 86 80 82 86 82 87 88 83 85 88 85 89 90 86 87 91 88 89 92 93 94 95 96 97 98 92 94 99 100 101 102 103 104 105 102 104 105 104 106 107 105 106 108 109 110 111 108 110 111 110 112 113 111 112 113 112 114 115 113 114 116 117 118 116 119 120 121 122 123 124 125 126 124 126 127 128 129 130 128 130 131 132 133 134 132 134 135 136 137 138 122 121 116 138 139 140 138 140 136 135 139 138 135 138 132 131 118 128 141 142 143 144 145 146 147 148 149 150 151 148 150 148 147 144 150 147 144 147 152 145 144 152 153 154 155 156 157 158 156 158 159 160 161 162 163 164 165 163 165 166 153 161 160 153 160 154 167 168 169 167 169 170 171 172 173 174 175 168 176 177 178 176 178 174 173 179 180 173 180 181 174 168 167 174 167 176 181 170 171 181 171 173 182 183 184 185 186 187 185 187 182 188 186 185 189 190 191 189 191 192 193 194 195 193 195 196 197 198 199 197 199 200 201 202 203 201 203 204 205 206 207 205 207 208 209 210 211 209 211 212 213 214 215 213 215 216 217 218 219 217 219 220 221 222 223 221 223 224 225 226 227 225 227 228 13 229 230 13 230 11 7 231 4 10 232 233 10 233 8 16 234 235 16 235 14 236 237 238 236 238 239 240 241 242 240 242 243 244 245 246 244 246 247 248 249 237 248 237 236 250 251 241 250 241 240 252 253 254 252 254 255 253 252 249 253 249 248 256 257 258 256 258 259 257 256 251 257 251 250 260 261 262 263 260 262 263 262 264 264 265 263 266 267 268 269 270 271 268 269 271 268 271 266 272 273 274 275 276 277 274 275 277 274 277 272 278 279 280 281 282 283 284 285 286 287 288 289 290 291 292 290 292 293 290 293 294 295 296 297 298 299 300 298 300 301 302 303 304 302 304 305 306 307 308 306 308 309 297 310 311 297 311 295 312 313 314 312 314 315 315 316 317 315 317 312 73 79 74 79 318 74 79 78 318 78 319 318 78 76 319 76 77 319 80 91 81 91 89 81 83 90 84 90 87 84 320 100 321 100 99 321 92 322 93 322 323 93 322 324 323 324 325 323 324 326 325 326 327 325 326 328 327 328 329 327 328 98 329 98 94 329 102 330 103 330 331 103 330 107 331 107 106 331 108 332 109 332 333 109 332 334 333 334 335 333 334 115 335 115 114 335 116 118 122 118 131 122 116 121 119 121 123 119 141 143 145 143 336 145 145 336 146 336 337 146 146 337 338 337 142 338 338 142 141 339 151 340 151 341 340 340 341 342 341 343 342 342 343 152 343 141 152 152 141 145 339 340 344 340 149 344 344 149 345 149 148 345 345 148 346 148 151 346 346 151 339 151 150 341 150 347 341 341 347 343 347 338 343 343 338 141 150 144 347 144 146 347 347 146 338 152 147 342 147 149 342 342 149 340 153 155 348 155 162 348 160 162 349 162 155 349 182 187 183 187 186 183 183 186 350 186 188 350 278 281 279 281 283 279 284 351 285 351 352 285 351 287 352 287 289 352 </p>
        </polylist>
      </mesh>
    </geometry>
  </library_geometries>
  <library_visual_scenes>
    <visual_scene id="myScene" name="myScene">
      <node id="wg015" name="wg015">
        <matrix>1.94707e-007 0 1 0 0 1 0 0 -1 0 1.94707e-007 0 0 0 0 1</matrix>
        <node id="obj83" name="obj83">
          <matrix>1.94707e-007 -0 -1 0 0 1 -0 0 1 0 1.94707e-007 0 0 0 0 1</matrix>
          <instance_geometry url="#obj83-mesh0">
            <bind_material>
              <technique_common>
                <instance_material symbol="theresonlyone" target="#m0cat" />
              </technique_common>
            </bind_material>
          </instance_geometry>
          <node id="gcol00" name="gcol00">
            <matrix>1.94707e-007 0 1 11.5098 0 1 0 -0.0103934 -1 0 1.94707e-007 2.50688 0 0 0 1</matrix>
          </node>
          <node id="gcol01" name="gcol01">
            <matrix>2.21972e-007 -1 -2.65684e-007 1.33212 0.707107 -3.09086e-008 0.707107 0.692998 -0.707107 -3.44825e-007 0.707107 2.54215 0 0 0 1</matrix>
          </node>
          <node id="gcol02" name="gcol02">
            <matrix>-0.00199948 -0.999998 7.21193e-008 1.44692 0.707106 -0.0014138 0.707106 2.88221 -0.707105 0.0014139 0.707107 4.6425 0 0 0 1</matrix>
          </node>
          <node id="sp" name="sp">
            <matrix>1.94707e-007 0 1 16.5098 0 1 0 -0.0103934 -1 0 1.94707e-007 2.50688 0 0 0 1</matrix>
          </node>
        </node>
      </node>
    </visual_scene>
  </library_visual_scenes>
  <scene>
    <instance_visual_scene url="#myScene" />
  </scene>
</COLLADA>