<?xml version="1.0" encoding="utf-8"?>
<COLLADA xmlns="http://www.collada.org/2005/11/COLLADASchema" version="1.4.1">
  <asset>
    <contributor>
      <author>Someone</author>
      <authoring_tool>Assimp Collada Exporter</authoring_tool>
    </contributor>
    <created>2000-01-01T23:59:59</created>
    <modified>2000-01-01T23:59:59</modified>
    <unit name="meter" meter="1" />
    <up_axis>Y_UP</up_axis>
  </asset>
  <library_images>
    <image id="m0twin-diffuse-image">
      <init_from>twin.png</init_from>
    </image>
  </library_images>
  <library_effects>
    <effect id="m0twin-fx" name="m0twin">
      <profile_COMMON>
        <newparam sid="m0twin-diffuse-surface">
          <surface type="2D">
            <init_from>m0twin-diffuse-image</init_from>
          </surface>
        </newparam>
        <newparam sid="m0twin-diffuse-sampler">
          <sampler2D>
            <source>m0twin-diffuse-surface</source>
          </sampler2D>
        </newparam>
        <technique sid="standard">
          <phong>
            <emission>
              <color sid="emission">0   0   0   0</color>
            </emission>
            <ambient>
              <color sid="ambient">1   1   1   1</color>
            </ambient>
            <diffuse>
              <texture texture="m0twin-diffuse-sampler" texcoord="CHANNEL0" />
            </diffuse>
            <specular>
              <color sid="specular">0   0   0   0</color>
            </specular>
            <shininess>
              <float sid="shininess">16</float>
            </shininess>
            <reflective>
              <color sid="reflective">0   0   0   0</color>
            </reflective>
          </phong>
        </technique>
      </profile_COMMON>
    </effect>
  </library_effects>
  <library_materials>
    <material id="m0twin" name="m0twin">
      <instance_effect url="#m0twin-fx" />
    </material>
  </library_materials>
  <library_geometries>
    <geometry id="twin-mesh0" name="twin-mesh0">
      <mesh>
        <source id="twin-mesh0-positions" name="twin-mesh0-positions">
          <float_array id="twin-mesh0-positions-array" count="1035"> 8.82072 -1.39415 1.24641 8.82235 -2.78829 2.05132 7.88532 -2.78829 2.05321 7.8837 -1.39414 1.2483 7.8837 1.39414 1.2483 7.88533 2.78829 2.05321 8.82235 2.78829 2.05132 8.82072 1.39414 1.24641 8.82235 -2.78829 2.05132 8.82072 -1.39415 1.24641 8.82072 1.39414 1.24641 8.82235 2.78829 2.05132 7.88648 -2.78829 2.62962 7.88532 -2.78829 2.05321 8.82235 -2.78829 2.05132 8.82351 -2.78829 2.62773 7.88533 2.78829 2.05321 7.8837 1.39414 1.2483 7.8837 -1.39414 1.2483 7.88532 -2.78829 2.05321 8.82351 2.78829 2.62773 8.82235 2.78829 2.05132 7.88533 2.78829 2.05321 7.88649 2.78829 2.62962 8.82351 2.78829 2.62773 8.82351 -2.78829 2.62773 7.88648 -2.78829 2.62962 7.88649 2.78829 2.62962 6.65018 1.4682 4.09369 6.64967 1.32021 3.83735 3.07272 1.32022 3.84455 3.07324 1.46821 4.10089 6.64967 1.32021 3.83735 3.07324 1.17222 4.10089 3.07272 1.32022 3.84455 6.65018 1.17221 4.09369 3.06828 1.46821 1.63474 3.06879 1.32022 1.89108 6.64574 1.32021 1.88387 6.64522 1.4682 1.62754 3.06879 1.32022 1.89108 6.64522 1.17221 1.62754 6.64574 1.32021 1.88387 3.06828 1.17222 1.63474 3.07045 0.134747 2.71981 3.07074 0.391083 2.86781 6.64769 0.391083 2.86062 6.64739 0.134747 2.71262 3.07074 0.391083 2.86781 6.64798 0.134747 3.00862 6.64769 0.391083 2.86062 3.07104 0.134747 3.01581 6.6474 2.50568 2.71262 6.6477 2.24934 2.86062 3.07076 2.24934 2.86781 3.07046 2.50568 2.71981 6.6477 2.24934 2.86062 3.07106 2.50568 3.0158 3.07076 2.24934 2.86781 6.648 2.50568 3.00861 6.22995 0.52018 2.86145 3.08931 1.32021 3.66781 3.0877 0.52018 2.86778 6.22834 1.32021 2.06142 3.08609 1.32021 2.06775 6.22995 2.12024 2.86145 4.41359 1.32058 1.43575 4.41503 0.0827255 2.15043 4.4179 0.0827255 3.57978 4.41935 1.32058 4.29445 4.41935 1.32058 4.29445 4.98836 0.0827255 3.57863 4.9898 1.32058 4.2933 4.98549 0.0827255 2.14928 4.9898 1.32058 4.2933 4.98836 0.0827255 3.57863 4.4179 2.55844 3.57978 4.41503 2.55844 2.15043 4.98836 2.55844 3.57863 4.98405 1.32058 1.43461 4.98549 2.55844 2.14928 4.4179 2.55844 3.57978 10.0888 1.32021 4.37814 10.0842 0 2.09147 10.0826 1.32021 1.32924 6.18795 0.551033 3.30562 6.62368 0 2.09843 6.62674 0 3.62288 10.0872 0 3.61591 6.62828 1.32021 4.3851 6.62674 0 3.62288 6.18884 1.32021 3.74971 10.0826 1.32021 1.32924 6.62368 0 2.09843 6.62214 1.32021 1.33621 6.18526 1.32021 1.97337 6.18616 0.551033 2.41745 6.18795 0.551033 3.30562 6.18884 1.32021 3.74971 10.0842 2.64042 2.09147 6.62368 2.64042 2.09843 10.0872 2.64042 3.61591 6.62674 2.64042 3.62288 10.0842 2.64042 2.09147 10.0872 2.64042 3.61591 10.0888 1.32021 4.37814 6.18795 2.08939 3.30562 6.18616 2.08939 2.41745 3.07324 -1.46822 4.10089 3.07272 -1.32022 3.84455 6.64967 -1.32021 3.83735 6.65018 -1.4682 4.09369 3.07272 -1.32022 3.84455 6.65018 -1.17221 4.09369 6.64967 -1.32021 3.83735 3.07324 -1.17222 4.10089 6.64522 -1.4682 1.62754 6.64574 -1.32021 1.88387 3.06879 -1.32022 1.89108 3.06828 -1.46822 1.63474 6.64574 -1.32021 1.88387 3.06828 -1.17222 1.63474 3.06879 -1.32022 1.89108 6.64522 -1.17221 1.62754 6.64739 -0.134747 2.71262 6.64769 -0.391087 2.86062 3.07074 -0.391083 2.86781 3.07045 -0.134747 2.71981 6.64769 -0.391087 2.86062 3.07104 -0.134747 3.01581 3.07074 -0.391083 2.86781 6.64798 -0.134747 3.00862 3.07046 -2.50568 2.71981 3.07076 -2.24934 2.86781 6.6477 -2.24934 2.86062 6.6474 -2.50568 2.71262 3.07076 -2.24934 2.86781 6.648 -2.50568 3.00861 6.6477 -2.24934 2.86062 3.07106 -2.50568 3.0158 3.0877 -0.52018 2.86778 6.23157 -1.32021 3.66148 6.22995 -0.52018 2.86145 3.08609 -1.32021 2.06775 6.22834 -1.32021 2.06142 3.0877 -2.12024 2.86778 4.41935 -1.32058 4.29445 4.4179 -0.0827293 3.57978 4.41503 -0.0827293 2.15043 4.41359 -1.32058 1.43575 4.9898 -1.32058 4.2933 4.4179 -0.0827293 3.57978 4.41935 -1.32058 4.29445 4.98836 -0.0827293 3.57863 4.98405 -1.32058 1.43461 4.98549 -0.0827293 2.14928 4.41503 -2.55844 2.15043 4.4179 -2.55844 3.57978 4.98549 -2.55844 2.14928 4.9898 -1.32058 4.2933 4.98836 -2.55844 3.57863 4.98836 -2.55844 3.57863 10.0826 -1.32021 1.32924 10.0872 0 3.61591 10.0888 -1.32021 4.37814 6.62674 0 3.62288 6.18616 -0.551033 2.41745 6.18795 -0.551033 3.30562 10.0888 -1.32021 4.37814 6.62828 -1.32021 4.3851 6.62214 -1.32021 1.33621 10.0842 0 2.09147 10.0826 -1.32021 1.32924 6.18884 -1.32021 3.74971 6.18795 -0.551033 3.30562 6.18616 -0.551033 2.41745 6.18526 -1.32021 1.97337 6.62368 -2.64042 2.09843 10.0842 -2.64042 2.09147 6.62674 -2.64042 3.62288 10.0872 -2.64042 3.61591 10.0872 -2.64042 3.61591 10.0842 -2.64042 2.09147 6.62828 -1.32021 4.3851 6.18616 -2.08939 2.41745 6.18795 -2.08939 3.30562 9.5646 1.39414 4.46456 9.56298 2.78829 3.65965 7.15116 2.78829 3.66451 7.15277 1.39414 4.46942 7.15277 -1.39415 4.46942 9.56298 -2.78829 3.65965 9.5646 -1.39415 4.46456 9.56298 2.78829 3.65965 9.5646 1.39414 4.46456 9.5646 -1.39415 4.46456 9.56298 -2.78829 3.65965 7.14954 2.78829 2.8596 7.15116 2.78829 3.66451 9.56298 2.78829 3.65965 9.56136 2.78829 2.85474 7.15116 -2.78829 3.66451 7.15277 -1.39415 4.46942 7.15277 1.39414 4.46942 7.15116 2.78829 3.66451 9.56136 -2.78829 2.85474 7.15116 -2.78829 3.66451 7.14954 -2.78829 2.8596 9.56136 -2.78829 2.85474 9.56136 2.78829 2.85474 7.14954 2.78829 2.8596 7.14954 -2.78829 2.8596 3.15558 2.65506 3.72029 3.16021 1.91164 4.25928 3.16021 -1.91165 4.25928 3.15558 -2.65507 3.72029 -1.98922 -1.91165 3.07508 -1.63574 1.91164 3.84662 -1.98922 1.91164 3.07508 -0.891403 1.91164 4.26744 -1.63574 -1.91165 3.84662 -0.891403 -1.91165 4.26744 -1.99242 1.91164 1.48636 -1.99242 -1.91165 1.48636 3.16021 -1.91165 4.25928 3.16021 1.91164 4.25928 -0.891403 1.91164 4.26744 3.16021 1.91164 4.25928 -0.634502 2.65506 3.72792 -1.63574 1.91164 3.84662 -0.891403 -1.91165 4.26744 -1.63574 -1.91165 3.84662 -1.20764 -2.65507 3.40389 -0.634502 -2.65507 3.72792 -1.98922 -1.91165 3.07508 -1.99242 -1.91165 1.48636 -1.48251 -2.65507 1.47387 -1.99242 -1.91165 1.48636 -1.99242 1.91164 1.48636 -1.48251 2.65506 1.47388 3.15558 -2.65507 3.72029 3.15104 -2.65507 1.46455 3.15104 2.65506 1.46455 3.15558 2.65506 3.72029 2.50698 -0.5 0.972611 2.72189 0.63036 1.48611 2.72189 -0.63036 1.48611 -1.62812 -0.5 0.980937 -1.62812 0.5 0.980937 2.50698 0.5 0.972611 1.08452 0.204998 -0.647471 -0.980247 0.204998 -0.714932 -0.848156 0 -0.309363 1.08452 -0.205002 -0.647471 1.82783 -0.205002 1.03405 1.09984 0 1.03552 -1.66435 -0.299999 -2.98498 -0.37001 -0.299999 1.04389 -1.48949 -0.299999 1.04098 -1.66435 -0.299999 -2.98498 -3.38641 -0.299999 -2.98224 -3.38641 0.299999 -2.98224 -1.66435 0.299999 -2.98498 -2.40219 -0.299999 -0.579171 -1.7835 -0.299999 0.186481 -1.7835 0.299999 0.186481 -3.38641 -0.299999 -2.98224 0.365231 0.204544 1.00835 0.116444 0 -0.198172 -0.316162 0 1.00972 -1.54658 -0.227482 3.61512 -0.495785 -0.227482 4.13797 -0.552731 -0.227482 4.81859 -0.495785 0.227478 4.13797 -0.552731 -0.227482 4.81859 -0.495785 -0.227482 4.13797 -1.9897 0.227478 5.5992 -2.78692 0.227478 5.50359 -2.78692 -0.227482 5.50359 -2.78692 0.227478 5.50359 -1.54658 0.227478 3.61512 -1.54658 -0.227482 3.61512 -2.78692 -0.227482 5.50359 -1.9897 -0.227482 5.5992 -2.78692 -0.227482 5.50359 -1.54658 0.227478 3.61512 -2.78692 0.227478 5.50359 -1.9897 0.227478 5.5992 -0.552731 0.227478 4.81859 -0.495785 0.227478 4.13797 6.23157 1.32021 3.66148 3.0877 2.12024 2.86778 4.4179 0.0827255 3.57978 4.98549 0.0827255 2.14928 4.41503 0.0827255 2.15043 4.98405 1.32058 1.43461 4.41359 1.32058 1.43575 4.98549 2.55844 2.14928 4.41503 2.55844 2.15043 4.98836 2.55844 3.57863 6.18616 0.551033 2.41745 6.62214 1.32021 1.33621 6.18526 1.32021 1.97337 6.62368 2.64042 2.09843 6.18616 2.08939 2.41745 6.62674 2.64042 3.62288 6.18795 2.08939 3.30562 6.62828 1.32021 4.3851 3.08931 -1.32021 3.66781 6.22995 -2.12024 2.86145 4.98836 -0.0827293 3.57863 4.41503 -0.0827293 2.15043 4.98549 -0.0827293 2.14928 4.41359 -1.32058 1.43575 4.98405 -1.32058 1.43461 4.41503 -2.55844 2.15043 4.98549 -2.55844 2.14928 4.4179 -2.55844 3.57978 6.62368 0 2.09843 6.18526 -1.32021 1.97337 6.62214 -1.32021 1.33621 6.18616 -2.08939 2.41745 6.62368 -2.64042 2.09843 6.18795 -2.08939 3.30562 6.62674 -2.64042 3.62288 6.18884 -1.32021 3.74971 -1.47982 2.65506 2.80981 -1.99242 1.91164 1.48636 -1.98922 1.91164 3.07508 3.16021 -1.91165 4.25928 -1.20764 2.65506 3.40389 -1.47982 -2.65507 2.80981 -1.80207 0.63036 1.49521 -1.80207 -0.63036 1.49521 0.798767 0 -0.312679 -0.980247 -0.205002 -0.714932 1.82783 0.204998 1.03405 -1.48949 0.299999 1.04098 -0.37001 0.299999 1.04389 -1.66435 0.299999 -2.98498 -2.40219 0.299999 -0.579171 -3.38641 0.299999 -2.98224 0.365231 -0.204548 1.00835 -0.552731 0.227478 4.81859 -1.9897 -0.227482 5.5992 </float_array>
          <technique_common>
            <accessor count="345" offset="0" source="#twin-mesh0-positions-array" stride="3">
              <param name="X" type="float" />
              <param name="Y" type="float" />
              <param name="Z" type="float" />
            </accessor>
          </technique_common>
        </source>
        <source id="twin-mesh0-normals" name="twin-mesh0-normals">
          <float_array id="twin-mesh0-normals-array" count="1035"> -0.0019456 -0.258819 -0.965924 -0.000659289 -0.944911 -0.327326 -0.00131902 -0.755929 -0.654652 -0.0019456 -0.258819 -0.965924 -0.00194504 0.258819 -0.965924 -0.000658957 0.944911 -0.327326 -0.00131825 0.755929 -0.654653 -0.00194504 0.258819 -0.965924 0.999998 -3.41855e-007 -0.00201597 0.999998 -3.41855e-007 -0.00201597 0.999998 -3.41855e-007 -0.00201597 0.999998 -3.41855e-007 -0.00201597 0.000900306 -0.894427 0.447213 -0.00131902 -0.755929 -0.654652 -0.000659289 -0.944911 -0.327326 0.00180061 -0.447214 0.894425 -0.999998 -6.90535e-010 0.00201894 -0.999998 -6.90535e-010 0.00201894 -0.999998 -6.90535e-010 0.00201894 -0.999998 -6.90535e-010 0.00201894 0.000900306 0.894427 0.447213 -0.00131825 0.755929 -0.654653 -0.000658957 0.944911 -0.327326 0.00180061 0.447213 0.894425 0.999998 -3.41855e-007 -0.00201597 0.999998 -3.41855e-007 -0.00201597 -0.999998 -6.90535e-010 0.00201894 -0.999998 -6.90535e-010 0.00201894 3.13115e-006 1 3.99187e-006 -0.00174525 -0.500003 -0.866022 -0.00174205 0.500003 -0.866022 0.0017451 0.5 0.866024 -0.00174525 -0.500003 -0.866022 -3.26773e-006 -1 3.99187e-006 -0.00174205 0.500003 -0.866022 0.0017419 -0.5 0.866024 3.13115e-006 1 3.99187e-006 0.0017419 -0.5 0.866024 0.0017451 0.5 0.866024 -0.00174205 0.500003 -0.866022 0.0017419 -0.5 0.866024 -3.26773e-006 -1 3.99187e-006 0.0017451 0.5 0.866024 -0.00174525 -0.500003 -0.866022 -0.00200989 0 -0.999998 0.00100501 0.866026 0.499998 -0.00100488 0.866025 -0.499999 -0.00100488 -0.866025 -0.499999 0.00100501 0.866026 0.499998 0.00201002 1.37651e-006 0.999998 -0.00100488 0.866025 -0.499999 0.00100501 -0.866025 0.499999 -0.00200989 0 -0.999998 0.00100501 -0.866025 0.499999 -0.00100488 -0.866025 -0.499999 -0.00100488 0.866025 -0.499999 0.00100501 -0.866025 0.499999 0.00201002 1.37651e-006 0.999998 -0.00100488 -0.866025 -0.499999 0.00100501 0.866026 0.499998 0.000636603 -0.948683 0.316228 0.0019099 -0.316227 0.948682 -0.0006367 -0.948683 -0.316228 -0.0019101 -0.316227 -0.948682 -0.0019101 0.316229 -0.948681 -0.000636698 0.948683 -0.316227 -0.999998 -6.90535e-010 0.00201894 -0.999998 -6.90535e-010 0.00201894 -0.999998 -6.90535e-010 0.00201894 -0.999998 -6.90535e-010 0.00201894 0.00197654 -0.188982 0.981979 0.00131769 -0.755929 0.654653 0.00197654 0.188983 0.981978 0.999998 -3.41855e-007 -0.00201597 0.999998 -3.41855e-007 -0.00201597 0.999998 -3.41855e-007 -0.00201597 -0.999998 -6.90535e-010 0.00201894 -0.999998 -6.90535e-010 0.00201894 0.999998 -3.41855e-007 -0.00201597 0.999998 -3.41855e-007 -0.00201597 0.999998 -3.41855e-007 -0.00201597 0.00131769 0.755929 0.654652 0.999998 -3.41855e-007 -0.00201597 0.999998 -3.41855e-007 -0.00201597 0.999998 -3.41855e-007 -0.00201597 -0.818365 -0.542527 0.189584 -0.819122 -0.542527 -0.186288 -0.817988 -0.434021 0.37752 0.00197654 -0.188982 0.981979 0.00197654 -0.188982 0.981979 0.00197654 0.188983 0.981978 -0.817608 -0.108504 0.565459 -0.00197653 -0.188981 -0.981979 -0.00197653 -0.188981 -0.981979 -0.00197653 0.188983 -0.981978 -0.999998 -6.90535e-010 0.00201894 -0.999998 -6.90535e-010 0.00201894 -0.999998 -6.90535e-010 0.00201894 -0.999998 -6.90535e-010 0.00201894 -0.00131825 0.755929 -0.654653 -0.000658957 0.944911 -0.327326 0.000658846 0.944911 0.327326 0.00131769 0.755929 0.654652 0.999998 -3.41855e-007 -0.00201597 0.999998 -3.41855e-007 -0.00201597 0.00197654 0.188983 0.981978 -0.999998 -6.90535e-010 0.00201894 -0.999998 -6.90535e-010 0.00201894 3.10859e-006 -1 -7.22671e-006 -0.00174205 0.500003 -0.866022 -0.00174525 -0.500003 -0.866022 0.0017419 -0.5 0.866024 -0.00174205 0.500003 -0.866022 3.13115e-006 1 3.99187e-006 -0.00174525 -0.500003 -0.866022 0.0017451 0.5 0.866024 -3.26773e-006 -1 3.99187e-006 0.0017451 0.5 0.866024 0.0017419 -0.5 0.866024 -0.00174525 -0.500003 -0.866022 0.0017451 0.5 0.866024 3.13115e-006 1 3.99187e-006 0.0017419 -0.5 0.866024 -0.00174205 0.500003 -0.866022 -0.00200989 0 -0.999998 0.00100501 -0.866025 0.499999 -0.00100488 -0.866025 -0.499999 -0.00100488 0.866025 -0.499999 0.00100501 -0.866025 0.499999 0.00201002 1.37651e-006 0.999998 -0.00100488 -0.866025 -0.499999 0.00100501 0.866026 0.499998 -0.00200989 0 -0.999998 0.00100501 0.866026 0.499998 -0.00100488 0.866025 -0.499999 -0.00100488 -0.866025 -0.499999 0.00100501 0.866026 0.499998 0.00201002 1.37651e-006 0.999998 -0.00100488 0.866025 -0.499999 0.00100501 -0.866025 0.499999 0.0006366 0.948684 0.316226 0.0019099 0.316229 0.948681 -0.000636698 0.948683 -0.316227 -0.0019101 0.316229 -0.948681 -0.0019101 -0.316227 -0.948682 -0.0006367 -0.948683 -0.316228 -0.999998 -6.90535e-010 0.00201894 -0.999998 -6.90535e-010 0.00201894 -0.999998 -6.90535e-010 0.00201894 -0.999998 -6.90535e-010 0.00201894 0.00197654 0.188983 0.981978 0.00131769 0.755929 0.654652 0.00197654 -0.188982 0.981979 0.999998 -3.41855e-007 -0.00201597 0.999998 -3.41855e-007 -0.00201597 0.999998 -3.41855e-007 -0.00201597 -0.999998 -6.90535e-010 0.00201894 -0.999998 -6.90535e-010 0.00201894 0.999998 -3.41855e-007 -0.00201597 0.999998 -3.41855e-007 -0.00201597 0.999998 -3.41855e-007 -0.00201597 0.00131769 -0.755929 0.654653 0.999998 -3.41855e-007 -0.00201597 0.999998 -3.41855e-007 -0.00201597 0.999998 -3.41855e-007 -0.00201597 -0.818366 0.542527 0.189585 -0.819122 0.542527 -0.186289 -0.817987 0.434022 0.377522 0.00197654 0.188983 0.981978 -0.817608 0.108506 0.565459 -0.00197653 0.188983 -0.981978 -0.00197653 0.188983 -0.981978 -0.00197653 -0.188981 -0.981979 -0.999998 -6.90535e-010 0.00201894 -0.999998 -6.90535e-010 0.00201894 -0.999998 -6.90535e-010 0.00201894 -0.999998 -6.90535e-010 0.00201894 -0.00131902 -0.755929 -0.654652 -0.000659289 -0.944911 -0.327326 0.000658847 -0.944911 0.327326 0.00131769 -0.755929 0.654653 0.999998 -3.41855e-007 -0.00201597 0.999998 -3.41855e-007 -0.00201597 0.00197654 -0.188982 0.981979 -0.999998 -6.90535e-010 0.00201894 -0.999998 -6.90535e-010 0.00201894 0.00194485 0.258819 0.965924 0.000658846 0.944911 0.327326 0.00131769 0.755929 0.654652 0.00194485 0.258819 0.965924 0.00194474 -0.258819 0.965924 0.00131769 -0.755929 0.654653 0.00194474 -0.258819 0.965924 0.999998 -3.41855e-007 -0.00201597 0.999998 -3.41855e-007 -0.00201597 0.999998 -3.41855e-007 -0.00201597 0.999998 -3.41855e-007 -0.00201597 -0.000900443 0.894427 -0.447213 0.00131769 0.755929 0.654652 0.000658846 0.944911 0.327326 -0.00180089 0.447214 -0.894425 -0.999998 -6.90535e-010 0.00201894 -0.999998 -6.90535e-010 0.00201894 -0.999998 -6.90535e-010 0.00201894 -0.999998 -6.90535e-010 0.00201894 -0.000900443 -0.894427 -0.447213 0.000658847 -0.944911 0.327326 -0.00180089 -0.447214 -0.894425 0.999998 -3.41855e-007 -0.00201597 0.999998 -3.41855e-007 -0.00201597 -0.999998 -6.90535e-010 0.00201894 -0.999998 -6.90535e-010 0.00201894 0.743736 0.538379 0.396239 0.999963 7.7152e-010 -0.00859177 0.999963 7.7152e-010 -0.00859177 0.860651 -0.455038 0.228519 -0.927076 -0.31136 0.20877 -0.700528 0.343429 0.625554 -0.92724 0.320364 0.193887 -0.246834 0.325889 0.912617 -0.684905 -0.340395 0.644234 -0.227746 -0.333717 0.914748 -0.919659 0.392713 0.00185227 -0.980531 -0.196357 0.00197531 0.0018372 -0.409009 0.912529 0.00197081 0.204504 0.978864 -0.246834 0.325889 0.912617 0.00197081 0.204504 0.978864 -0.171272 0.857839 0.484539 -0.700528 0.343429 0.625554 -0.227746 -0.333717 0.914748 -0.684905 -0.340395 0.644234 -0.332846 -0.864047 0.377674 -0.0854197 -0.852508 0.515687 -0.927076 -0.31136 0.20877 -0.980531 -0.196357 0.00197531 -0.419724 -0.526129 -0.739608 -0.0244802 0 -0.9997 -0.0244802 0 -0.9997 -0.244583 0.448846 -0.859486 0.860651 -0.455038 0.228519 0.217339 -0.872871 -0.436874 0.435996 0.872872 -0.219096 0.743736 0.538379 0.396239 0.635451 -0.334312 -0.696015 0.79535 0.417979 -0.438989 0.397355 -0.835958 -0.378527 -0.268564 -0.546722 -0.793076 -0.666641 0.34062 -0.662999 0.25562 0.540136 -0.801818 0.466357 0.859182 -0.210519 0.0282918 0.499367 -0.865929 -0.00776055 0.511413 0.8593 0.0642427 -0.847855 -0.526321 0.797925 -0.488778 -0.352719 -0.750964 -0.625874 0.210557 0.230912 -0.970142 -0.0741844 0.85156 -0.447214 -0.273578 -0.422881 -0.894427 0.145506 -0.00159079 0 -0.999999 -0.00159079 0 -0.999999 -0.00159079 0 -0.999999 -0.00159079 0 -0.999999 -0.692597 -0.558321 0.456714 -0.747175 -0.559895 0.358117 -0.593509 0.711871 0.375483 -0.827697 -0.447214 0.338995 0.569657 0.782878 -0.250186 0.707169 2.7961e-006 -0.707045 -0.941442 2.64701e-006 -0.337175 3.10859e-006 -1 -7.22671e-006 3.10859e-006 -1 -7.22671e-006 3.10859e-006 -1 -7.22671e-006 0.996518 0 0.0833763 0.920927 0 0.389736 0.996518 0 0.0833763 0.0832153 0 0.996532 -0.119075 0 0.992885 -0.119075 0 0.992885 -0.835839 0 -0.548975 -0.835839 0 -0.548975 -0.835839 0 -0.548975 -0.835839 0 -0.548975 3.10859e-006 -1 -7.22671e-006 3.10859e-006 -1 -7.22671e-006 3.13115e-006 1 3.99187e-006 3.13115e-006 1 3.99187e-006 3.13115e-006 1 3.99187e-006 3.13115e-006 1 3.99187e-006 3.13115e-006 1 3.99187e-006 0.0019099 0.316229 0.948681 0.0006366 0.948684 0.316226 0.000658847 -0.944911 0.327326 -0.000659289 -0.944911 -0.327326 -0.00131902 -0.755929 -0.654652 -0.00197653 -0.188981 -0.981979 -0.00197653 0.188983 -0.981978 -0.00131825 0.755929 -0.654653 -0.000658957 0.944911 -0.327326 0.000658846 0.944911 0.327326 -0.819501 -0.434021 -0.374223 -0.819881 -0.108504 -0.562159 -0.81988 0.108507 -0.562159 -0.8195 0.434022 -0.374224 -0.819122 0.542527 -0.186289 -0.818366 0.542527 0.189585 -0.817987 0.434022 0.377522 -0.817608 0.108506 0.565459 0.0019099 -0.316227 0.948682 0.000636603 -0.948683 0.316228 0.000658846 0.944911 0.327326 -0.000658957 0.944911 -0.327326 -0.00131825 0.755929 -0.654653 -0.00197653 0.188983 -0.981978 -0.00197653 -0.188981 -0.981979 -0.00131902 -0.755929 -0.654652 -0.000659289 -0.944911 -0.327326 0.000658847 -0.944911 0.327326 -0.8195 0.434022 -0.374224 -0.81988 0.108507 -0.562159 -0.819881 -0.108504 -0.562159 -0.819501 -0.434021 -0.374223 -0.819122 -0.542527 -0.186288 -0.818365 -0.542527 0.189584 -0.817988 -0.434021 0.37752 -0.817608 -0.108504 0.565459 -0.533389 0.842539 0.0749949 -0.919659 0.392713 0.00185227 -0.92724 0.320364 0.193887 0.0018372 -0.409009 0.912529 -0.40858 0.862029 0.299947 -0.507458 -0.848838 0.148189 -0.411242 0.84073 -0.352212 -0.82184 -0.420365 -0.384541 -0.544459 0.0391571 0.837873 0.00961377 -0.999732 -0.0210471 0.119978 0.989159 -0.0846778 -0.845761 0.447214 0.291011 0.42578 0.894427 -0.136789 0.528115 0.83205 -0.169666 -0.733798 0.558321 0.387063 -0.654352 0.707107 0.267999 0.569654 -0.782879 -0.250189 0.727387 0 0.686227 0.290707 0 0.956812 </float_array>
          <technique_common>
            <accessor count="345" offset="0" source="#twin-mesh0-normals-array" stride="3">
              <param name="X" type="float" />
              <param name="Y" type="float" />
              <param name="Z" type="float" />
            </accessor>
          </technique_common>
        </source>
        <source id="twin-mesh0-tex0" name="twin-mesh0-tex0">
          <float_array id="twin-mesh0-tex0-array" count="690"> 0.078125 0.785156 0.078125 0.890625 0.148438 0.890625 0.148438 0.785156 0.148438 0.585938 0.148438 0.484375 0.078125 0.484375 0.078125 0.585938 0.414063 0.917969 0.3125 0.976563 0.109375 0.976563 0.0078125 0.917969 0.148438 0.421875 0.148438 0.480469 0.078125 0.480469 0.078125 0.421875 0.0078125 0.917969 0.109375 0.976563 0.3125 0.976563 0.414063 0.917969 0.078125 0.421875 0.078125 0.480469 0.148438 0.480469 0.148438 0.421875 0.0078125 0.875 0.414063 0.875 0.414063 0.875 0.0078125 0.875 0.0195313 0.0429688 0.0195313 0.0195313 0.285156 0.0195313 0.285156 0.0429688 0.0195313 0.0898438 0.285156 0.0664063 0.285156 0.0898438 0.0195313 0.0664063 0.285156 0.0429688 0.285156 0.0195313 0.0195313 0.0195313 0.0195313 0.0429688 0.285156 0.0898438 0.0195313 0.0664063 0.0195313 0.0898438 0.285156 0.0664063 0.285156 0.0429688 0.285156 0.0195313 0.0195313 0.0195313 0.0195313 0.0429688 0.285156 0.0898438 0.0195313 0.0664063 0.0195313 0.0898438 0.285156 0.0664063 0.0195313 0.0429688 0.0195313 0.0195313 0.285156 0.0195313 0.285156 0.0429688 0.0195313 0.0898438 0.285156 0.0664063 0.285156 0.0898438 0.0195313 0.0664063 0.296875 0.0820313 0.527344 0.140625 0.527344 0.0820313 0.296875 0.0195313 0.527344 0.0195313 0.296875 0.0820313 0.902344 0.488281 0.839844 0.523438 0.839844 0.597656 0.902344 0.636719 0.960938 0.449219 0.914063 0.394531 0.914063 0.449219 0.839844 0.523438 0.902344 0.636719 0.839844 0.597656 0.972656 0.597656 0.972656 0.527344 0.972656 0.597656 0.902344 0.488281 0.972656 0.527344 0.960938 0.394531 0.469618 0.331597 0.402344 0.214844 0.469184 0.176649 0.322656 0.303516 0.284375 0.216016 0.282422 0.326172 0.0195313 0.324219 0.273438 0.382813 0.273438 0.324219 0.382813 0.335938 0.0195313 0.160156 0.273438 0.21875 0.273438 0.160156 0.382813 0.207031 0.322266 0.239062 0.322656 0.303516 0.382813 0.335938 0.0195313 0.21875 0.273438 0.21875 0.0195313 0.324219 0.273438 0.324219 0.539063 0.214844 0.539063 0.292969 0.0195313 0.382813 0.322656 0.303516 0.322266 0.239062 0.285156 0.0429688 0.285156 0.0195313 0.0195313 0.0195313 0.0195313 0.0429688 0.285156 0.0898438 0.0195313 0.0664063 0.0195313 0.0898438 0.285156 0.0664063 0.0195313 0.0429688 0.0195313 0.0195313 0.285156 0.0195313 0.285156 0.0429688 0.0195313 0.0898438 0.285156 0.0664063 0.285156 0.0898438 0.0195313 0.0664063 0.0195313 0.0429688 0.0195313 0.0195313 0.285156 0.0195313 0.285156 0.0429688 0.0195313 0.0898438 0.285156 0.0664063 0.285156 0.0898438 0.0195313 0.0664063 0.285156 0.0429688 0.285156 0.0195313 0.0195313 0.0195313 0.0195313 0.0429688 0.285156 0.0898438 0.0195313 0.0664063 0.0195313 0.0898438 0.285156 0.0664063 0.527344 0.0820313 0.296875 0.140625 0.296875 0.0820313 0.527344 0.0195313 0.296875 0.0195313 0.527344 0.0820313 0.902344 0.636719 0.839844 0.597656 0.839844 0.523438 0.902344 0.488281 0.914063 0.449219 0.960938 0.394531 0.960938 0.449219 0.839844 0.597656 0.902344 0.488281 0.839844 0.523438 0.972656 0.527344 0.972656 0.597656 0.972656 0.527344 0.902344 0.636719 0.972656 0.597656 0.914063 0.394531 0.469184 0.176649 0.402344 0.292969 0.469618 0.331597 0.282422 0.326172 0.322266 0.239062 0.322656 0.303516 0.0195313 0.382813 0.382813 0.382813 0.273438 0.160156 0.0195313 0.21875 0.0195313 0.160156 0.382813 0.335938 0.322656 0.303516 0.322266 0.239062 0.382813 0.207031 0.273438 0.21875 0.0195313 0.21875 0.273438 0.324219 0.0195313 0.324219 0.539063 0.292969 0.539063 0.214844 0.273438 0.382813 0.322266 0.239062 0.322656 0.303516 0.199219 0.789063 0.199219 0.890625 0.378906 0.890625 0.378906 0.789063 0.378906 0.582031 0.199219 0.480469 0.199219 0.582031 0.414063 0.917969 0.3125 0.976563 0.109375 0.976563 0.0078125 0.917969 0.378906 0.421875 0.378906 0.480469 0.199219 0.480469 0.199219 0.421875 0.0078125 0.917969 0.109375 0.976563 0.3125 0.976563 0.414063 0.917969 0.199219 0.421875 0.378906 0.480469 0.378906 0.421875 0.0078125 0.855469 0.414063 0.855469 0.414063 0.855469 0.0078125 0.855469 0.4378 0.650541 0.4375 0.690204 0.4375 0.690204 0.438101 0.650541 0.859375 0.699219 0.800781 0.984375 0.859375 0.984375 0.734375 0.984375 0.800781 0.699219 0.734375 0.699219 0.976563 0.984375 0.976563 0.699219 0.4375 0.699219 0.4375 0.984375 0.733474 0.689002 0.4375 0.690204 0.716046 0.650541 0.788161 0.65655 0.733474 0.689002 0.788161 0.65655 0.757813 0.625 0.716046 0.650541 0.814603 0.600962 0.815204 0.484675 0.777344 0.484375 0.815204 0.484675 0.815204 0.484675 0.777344 0.484375 0.4378 0.650541 0.4375 0.484375 0.4375 0.484375 0.438101 0.650541 0.460938 0.425781 0.445313 0.464844 0.445313 0.464844 0.753906 0.425781 0.753906 0.425781 0.460938 0.425781 0.603989 0.271664 0.738335 0.2671 0.729793 0.292965 0.603989 0.271664 0.555842 0.37893 0.603212 0.37893 0.851283 0.0333402 0.766871 0.293798 0.840339 0.293465 0.851283 0.0333402 0.964298 0.0332932 0.964298 0.0332932 0.851283 0.0333402 0.900024 0.188674 0.859522 0.238221 0.859522 0.238221 0.964298 0.0332932 0.704643 0.399047 0.721319 0.317931 0.750768 0.399047 0.726563 0.0351563 0.636719 0.0234375 0.609375 0.0742188 0.601563 0.0234375 0.558594 0.0742188 0.558594 0.0234375 0.601563 0.1875 0.601563 0.21875 0.558594 0.21875 0.765625 0.21875 0.765625 0.0351563 0.726563 0.0351563 0.726563 0.21875 0.671875 0.191406 0.726563 0.21875 0.726563 0.0351563 0.726563 0.21875 0.671875 0.191406 0.609375 0.0742188 0.636719 0.0234375 0.296875 0.140625 0.527344 0.0820313 0.960938 0.394531 0.914063 0.292969 0.960938 0.292969 0.914063 0.238281 0.960938 0.238281 0.914063 0.292969 0.960938 0.292969 0.914063 0.394531 0.322266 0.239062 0.382813 0.160156 0.382813 0.207031 0.284375 0.216016 0.322266 0.239062 0.282422 0.326172 0.322656 0.303516 0.382813 0.382813 0.527344 0.140625 0.296875 0.0820313 0.914063 0.394531 0.960938 0.292969 0.914063 0.292969 0.960938 0.238281 0.914063 0.238281 0.960938 0.292969 0.914063 0.292969 0.960938 0.394531 0.284375 0.216016 0.382813 0.207031 0.382813 0.160156 0.322266 0.239062 0.284375 0.216016 0.322656 0.303516 0.282422 0.326172 0.382813 0.335938 0.777344 0.582031 0.815204 0.484675 0.814603 0.600962 0.4375 0.690204 0.757813 0.625 0.777344 0.582031 0.768445 0.465066 0.768445 0.465066 0.622626 0.292965 0.738335 0.2671 0.555842 0.37893 0.840339 0.293465 0.766871 0.293798 0.851283 0.0333402 0.900024 0.188674 0.964298 0.0332932 0.704643 0.399047 0.601563 0.0742188 0.558594 0.1875 </float_array>
          <technique_common>
            <accessor count="345" offset="0" source="#twin-mesh0-tex0-array" stride="2">
              <param name="S" type="float" />
              <param name="T" type="float" />
            </accessor>
          </technique_common>
        </source>
        <vertices id="twin-mesh0-vertices">
          <input semantic="POSITION" source="#twin-mesh0-positions" />
          <input semantic="NORMAL" source="#twin-mesh0-normals" />
          <input semantic="TEXCOORD" source="#twin-mesh0-tex0" />
        </vertices>
        <polylist count="301" material="theresonlyone">
          <input offset="0" semantic="VERTEX" source="#twin-mesh0-vertices" />
          <vcount>3 3 3 3 3 3 3 3 3 3 3 3 3 3 3 3 3 3 3 3 3 3 3 3 3 3 3 3 3 3 3 3 3 3 3 3 3 3 3 3 3 3 3 3 3 3 3 3 3 3 3 3 3 3 3 3 3 3 3 3 3 3 3 3 3 3 3 3 3 3 3 3 3 3 3 3 3 3 3 3 3 3 3 3 3 3 3 3 3 3 3 3 3 3 3 3 3 3 3 3 3 3 3 3 3 3 3 3 3 3 3 3 3 3 3 3 3 3 3 3 3 3 3 3 3 3 3 3 3 3 3 3 3 3 3 3 3 3 3 3 3 3 3 3 3 3 3 3 3 3 3 3 3 3 3 3 3 3 3 3 3 3 3 3 3 3 3 3 3 3 3 3 3 3 3 3 3 3 3 3 3 3 3 3 3 3 3 3 3 3 3 3 3 3 3 3 3 3 3 3 3 3 3 3 3 3 3 3 3 3 3 3 3 3 3 3 3 3 3 3 3 3 3 3 3 3 3 3 3 3 3 3 3 3 3 3 3 3 3 3 3 3 3 3 3 3 3 3 3 3 3 3 3 3 3 3 3 3 3 3 3 3 3 3 3 3 3 3 3 3 3 3 3 3 3 3 3 3 3 3 3 3 3 3 3 3 3 3 3 3 3 3 3 3 3 3 3 3 3 3 3 </vcount>
          <p>0 1 2 0 2 3 4 5 6 4 6 7 8 9 10 8 10 11 12 13 14 12 14 15 0 3 4 0 4 7 16 17 18 16 18 19 20 21 22 20 22 23 15 20 23 15 23 12 11 24 25 11 25 8 19 26 27 19 27 16 28 29 30 28 30 31 32 33 34 35 28 31 36 37 38 36 38 39 40 41 42 43 36 39 44 45 46 44 46 47 48 49 50 51 44 47 52 53 54 52 54 55 56 57 58 59 52 55 60 61 62 63 60 62 63 62 64 65 63 64 66 67 68 66 68 69 70 71 72 73 74 75 69 76 77 69 77 66 78 79 80 81 70 72 82 83 84 85 86 87 88 89 90 91 85 87 92 93 94 95 96 97 95 97 98 99 92 94 99 94 100 101 99 100 101 100 102 84 103 104 84 104 82 105 101 102 98 106 107 98 107 95 108 109 110 108 110 111 112 113 114 115 108 111 116 117 118 116 118 119 120 121 122 123 116 119 124 125 126 124 126 127 128 129 130 131 124 127 132 133 134 132 134 135 136 137 138 139 132 135 140 141 142 143 140 142 143 142 144 145 143 144 146 147 148 146 148 149 150 151 152 153 154 155 149 156 157 149 157 146 158 159 160 161 150 152 162 163 164 165 166 167 90 168 88 169 165 167 170 171 172 173 174 175 173 175 176 177 170 172 177 172 178 179 177 178 179 178 180 164 181 182 164 182 162 183 179 180 176 184 185 176 185 173 186 187 188 186 188 189 190 191 192 193 194 195 193 195 196 197 198 199 197 199 200 186 189 190 186 190 192 201 202 203 201 203 204 205 206 207 200 205 207 200 207 197 196 208 209 196 209 193 204 210 211 204 211 201 212 213 214 212 214 215 216 217 218 219 220 221 218 222 223 218 223 216 221 224 225 221 225 219 226 227 212 226 212 228 229 226 228 230 231 232 230 232 233 234 235 236 236 237 238 236 238 239 240 241 242 240 242 243 244 245 246 247 244 246 247 248 249 247 249 244 250 251 252 253 254 255 256 257 258 259 260 261 259 261 262 263 264 265 263 266 256 256 264 263 267 268 269 270 271 272 273 274 275 276 277 278 279 280 281 279 281 282 283 284 270 285 286 287 288 289 285 270 272 283 287 288 285 32 35 33 35 31 33 40 43 41 43 39 41 48 51 49 51 47 49 56 59 57 59 55 57 60 290 61 290 291 61 290 65 291 65 64 291 70 292 71 292 293 71 73 79 74 79 78 74 292 294 293 294 295 293 294 296 295 296 297 295 296 298 297 298 299 297 298 81 299 81 72 299 82 163 83 163 162 83 85 300 86 300 301 86 300 302 301 302 303 301 302 304 303 304 305 303 304 306 305 306 307 305 306 91 307 91 87 307 88 105 89 105 102 89 92 171 93 171 170 93 112 115 113 115 111 113 120 123 121 123 119 121 128 131 129 131 127 129 136 139 137 139 135 137 140 308 141 308 309 141 308 145 309 145 144 309 150 310 151 310 311 151 153 159 154 159 158 154 310 312 311 312 313 311 312 314 313 314 315 313 314 316 315 316 317 315 316 161 317 161 152 317 165 318 166 318 319 166 318 320 319 320 321 319 320 322 321 322 323 321 322 324 323 324 325 323 324 169 325 169 167 325 90 183 168 183 180 168 190 206 191 206 205 191 242 239 326 239 327 326 326 327 328 216 220 217 220 219 217 241 240 233 240 329 233 233 329 230 328 229 330 229 228 330 330 228 242 228 212 242 328 330 326 330 242 326 231 234 331 234 236 331 331 236 241 236 239 241 241 239 242 231 331 232 331 241 232 232 241 233 244 249 245 249 332 245 249 248 332 248 333 332 248 247 333 247 246 333 250 252 334 252 335 334 334 335 253 335 251 253 253 251 250 253 255 334 255 336 334 334 336 250 336 254 250 250 254 253 256 258 264 258 337 264 264 337 265 337 338 265 265 338 339 338 257 339 339 257 256 266 263 340 263 265 340 340 265 339 266 340 341 340 339 341 269 268 342 268 267 342 273 343 274 343 344 274 343 276 344 276 278 344 </p>
        </polylist>
      </mesh>
    </geometry>
  </library_geometries>
  <library_visual_scenes>
    <visual_scene id="myScene" name="myScene">
      <node id="wg009" name="wg009">
        <matrix>1.94707e-007 0 1 0.105332 0 1 0 0 -1 0 1.94707e-007 0 0 0 0 1</matrix>
        <node id="twin" name="twin">
          <matrix>1.94707e-007 -0 -1 7.87917e-016 0 1 -0 0 1 0 1.94707e-007 0 0 0 0 1</matrix>
          <instance_geometry url="#twin-mesh0">
            <bind_material>
              <technique_common>
                <instance_material symbol="theresonlyone" target="#m0twin" />
              </technique_common>
            </bind_material>
          </instance_geometry>
          <node id="gcol00" name="gcol00">
            <matrix>1.94707e-007 0 1 10.0849 0 1 0 1.31926 -1 0 1.94707e-007 2.8705 0 0 0 1</matrix>
          </node>
          <node id="gcol01" name="gcol01">
            <matrix>1.94707e-007 0 1 10.0849 0 1 0 -1.31926 -1 0 1.94707e-007 2.8705 0 0 0 1</matrix>
          </node>
          <node id="sp1" name="sp1">
            <matrix>1.94707e-007 0 1 15.0849 0 1 0 -1.31926 -1 0 1.94707e-007 2.8705 0 0 0 1</matrix>
          </node>
          <node id="sp" name="sp">
            <matrix>1.94707e-007 0 1 15.0849 0 1 0 1.31926 -1 0 1.94707e-007 2.8705 0 0 0 1</matrix>
          </node>
        </node>
      </node>
    </visual_scene>
  </library_visual_scenes>
  <scene>
    <instance_visual_scene url="#myScene" />
  </scene>
</COLLADA>