<?xml version="1.0" encoding="utf-8"?>
<COLLADA xmlns="http://www.collada.org/2005/11/COLLADASchema" version="1.4.1">
  <asset>
    <contributor>
      <author>Someone</author>
      <authoring_tool>Assimp Collada Exporter</authoring_tool>
    </contributor>
    <created>2000-01-01T23:59:59</created>
    <modified>2000-01-01T23:59:59</modified>
    <unit name="meter" meter="1" />
    <up_axis>Y_UP</up_axis>
  </asset>
  <library_images>
    <image id="m0c01wg001-diffuse-image">
      <init_from>c01wg001.png</init_from>
    </image>
  </library_images>
  <library_effects>
    <effect id="m0c01wg001-fx" name="m0c01wg001">
      <profile_COMMON>
        <newparam sid="m0c01wg001-diffuse-surface">
          <surface type="2D">
            <init_from>m0c01wg001-diffuse-image</init_from>
          </surface>
        </newparam>
        <newparam sid="m0c01wg001-diffuse-sampler">
          <sampler2D>
            <source>m0c01wg001-diffuse-surface</source>
          </sampler2D>
        </newparam>
        <technique sid="standard">
          <phong>
            <emission>
              <color sid="emission">0   0   0   0</color>
            </emission>
            <ambient>
              <color sid="ambient">1   1   1   1</color>
            </ambient>
            <diffuse>
              <texture texture="m0c01wg001-diffuse-sampler" texcoord="CHANNEL0" />
            </diffuse>
            <specular>
              <color sid="specular">0   0   0   0</color>
            </specular>
            <shininess>
              <float sid="shininess">16</float>
            </shininess>
            <reflective>
              <color sid="reflective">0   0   0   0</color>
            </reflective>
          </phong>
        </technique>
      </profile_COMMON>
    </effect>
  </library_effects>
  <library_materials>
    <material id="m0c01wg001" name="m0c01wg001">
      <instance_effect url="#m0c01wg001-fx" />
    </material>
  </library_materials>
  <library_geometries>
    <geometry id="wg001-mesh0" name="wg001-mesh0">
      <mesh>
        <source id="wg001-mesh0-positions" name="wg001-mesh0-positions">
          <float_array id="wg001-mesh0-positions-array" count="588"> -0.827868 -0.807727 -0.323706 -0.701057 0 0.16764 -0.825265 -0.610479 1.66034 -0.825265 0.610479 1.66034 -0.827868 0.807727 -0.323706 -1.73485 1.03407 -0.456971 1.06093 0 -1.51205 -0.212667 0.198355 -0.905703 -0.212667 -0.198355 -0.905703 -2.63138 0.69388 0.018358 -3.02886 0 0.493686 -2.55833 0 1.68533 -2.42989 0 -1.67161 -1.66975 -0.714832 -1.71233 -2.9345 0 -0.880094 -0.674613 0 3.15013 -1.75006 -1.12041 3.3414 -1.8525 0.818843 1.87939 -1.19154 0.515901 -1.74213 -0.631044 0.727274 -1.43876 0.172093 0.847782 -1.95519 1.09641 -0.467293 -1.72967 2.31026 -0.982369 -2.67677 2.70846 0 -1.58441 -0.520658 1.37033e-007 0.24616 -0.83173 -0.270013 0.0367343 -0.324459 -0.270013 -1.01096 1.08287 1.58889e-007 -1.26818 1.26626 0.270013 -1.78358 -0.324459 0.270013 -1.01096 -0.112759 -4.90497e-008 1.07825 -0.726681 -4.90497e-008 1.28526 -0.0302849 -0.232812 0.893492 -0.479931 0.125179 -0.408957 -0.610144 -2.70257e-008 0.0406505 0.444262 1.29936e-008 -0.038574 -1.19154 -0.515901 -1.74213 0.0964786 0 -2.97016 0.172094 -0.847782 -1.95519 -0.0113377 1.47961e-007 -0.6815 -2.63138 -0.69388 0.018358 -1.73485 -1.03407 -0.456971 -1.8525 -0.818843 1.87939 -0.83173 0.270013 0.0367343 -0.817967 0.270013 2.03676 -0.520658 1.15178e-007 1.60188 -0.817967 -0.270013 2.03676 -2.5535 -2.58926e-008 3.12366 -2.85043 -1.33311e-007 4.34169 -2.49312 0.862614 4.4976 -1.67256 -0.824878 3.12367 -1.63051 -1.21992 4.58422 -2.49312 -0.862614 4.4976 -1.67256 0.824878 3.12367 -1.63051 1.21992 4.58422 -0.767897 0.862614 4.4976 -0.791614 -2.58926e-008 3.12367 -0.410591 -1.33311e-007 4.34169 -0.767897 -0.862614 4.4976 -2.4271 7.30155e-008 1.47255 -1.72822 -0.66816 1.47255 -1.72822 0.66816 1.47255 -1.63051 -1.19209e-007 3.45078 -2.85043 -1.33311e-007 4.34169 -2.49312 -0.862614 4.4976 -0.410591 -1.33311e-007 4.34169 -0.767897 0.862614 4.4976 2.3046 -0.940452 -1.8568 2.66171 2.90681e-008 -1.36945 2.3046 0.940452 -1.8568 1.8534 0.940452 -3.30513 1.87055 2.90681e-008 -3.90907 1.8534 -0.940452 -3.30513 1.5558 1.27232 -2.41798 1.5558 -1.27232 -2.41798 3.39243 -2.18557e-008 -2.0498 3.40419 -2.18557e-008 -2.9938 2.9841 1 -2.86293 2.3046 -0.940452 -1.8568 1.5558 -1.27232 -2.41798 2.9841 -1 -2.86293 -0.990398 2.89543e-008 -3.1348 -1.64849 1.90145e-008 -3.51462 -1.64849 0.662397 -3.1348 -1.64849 -0.662397 -3.1348 -1.34099 6.34024e-010 -2.1855 -0.778494 1.90145e-008 -2.59209 -1.03331 0.615183 -2.59209 -1.64849 -0.307501 -2.1855 -1.64849 -0.87 -2.59209 -1.03331 -0.615183 -2.59209 -1.956 6.34024e-010 -2.1855 -2.51849 1.90145e-008 -2.59209 -2.26368 -0.615183 -2.5921 -1.64849 0.307501 -2.1855 -1.64849 0.87 -2.59209 -2.26368 0.615183 -2.5921 -2.35409 -1.54214e-008 -1.59751 -1.64849 0.7056 -1.59751 -0.942894 -1.54214e-008 -1.59751 -1.27623 1.25701 -0.0494435 -1.08654 0.806222 0.219031 -0.935137 0.817701 -0.227234 -1.67298 0.971473 -0.130759 -2.35388 1.0261 -0.102902 -2.22647 1.28232 0.117791 -1.51679 0.891395 0.344442 -2.1309 1.0261 0.346448 -2.2768 0.997832 1.02194 -2.2768 1.28563 1.02194 -3.04842 1.14173 1.24521 -3.04842 1.14173 1.24521 -2.62635 0.746767 0.856699 -2.2768 0.997832 1.02194 -2.62635 1.53669 0.856699 -2.22149 1.40368 0.734685 -1.93921 1.4489 0.408462 -2.70997 0.763632 -0.127374 -2.1966 0.890141 -0.104905 -1.93921 0.83456 0.408462 -2.29603 1.0719 1.38963 -2.79388 1.0719 1.10645 -2.38091 0.958703 0.978444 -2.38091 1.18511 0.978444 -1.17918 1.00846 1.2998 -1.04839 0.658607 1.61331 -0.903961 0.656966 1.31174 -1.04042 0.714035 1.04203 -1.9614 0.959541 0.949333 -2.08882 1.17967 1.06089 -1.71861 0.809513 1.69008 -1.75006 1.12041 3.3414 -1.66975 0.714832 -1.71233 -0.631044 -0.727274 -1.43876 2.31026 0.982369 -2.67677 1.09641 0.467293 -1.72967 2.03519 0 -3.64683 1.26626 -0.270013 -1.78358 0.778337 -4.90497e-008 -1.43623 -0.21767 0.108691 -0.902126 0.47097 0.201212 -0.565447 -0.21767 -0.108691 -0.902126 0.47097 -0.201212 -0.565448 1.00179 -4.90497e-008 0.62593 0.556394 0.312154 0.556814 0.556393 -0.312154 0.556814 0.718787 -4.90497e-008 1.0671 -0.0302848 0.232812 0.893493 -0.866963 0.149711 0.612927 -0.866963 -0.149711 0.612927 -0.479931 -0.125179 -0.408957 0.106616 1.65676e-008 -0.350235 -1.63051 -1.21992 4.58422 -0.767897 -0.862614 4.4976 -1.63051 1.21992 4.58422 -2.49312 0.862614 4.4976 1.8534 0.940452 -3.30513 1.5558 1.27232 -2.41798 2.3046 0.940452 -1.8568 2.66171 2.90681e-008 -1.36945 2.85837 -2.18557e-008 -3.7641 1.8534 -0.940452 -3.30513 1.87055 2.90681e-008 -3.90907 -2.30659 2.89543e-008 -3.1348 -2.26368 -0.615183 -2.5921 -1.64849 -0.87 -2.59209 -1.03331 0.615183 -2.59209 -0.778494 1.90145e-008 -2.59209 -1.03331 -0.615183 -2.59209 -2.26368 0.615183 -2.5921 -1.64849 0.87 -2.59209 -2.51849 1.90145e-008 -2.59209 -1.54251 0.981527 -0.441354 -1.18054 0.887967 -0.530929 -2.70997 1.51983 -0.127374 -3.32714 1.14173 -0.547739 -3.10644 1.14173 -0.159228 -2.72191 0.679398 0.40448 -2.22149 0.879784 0.734685 -3.1565 1.14173 0.420407 -2.72191 1.60406 0.40448 -2.1966 1.39332 -0.104905 -2.97504 1.14173 1.00004 -2.69887 1.31792 -0.479762 -2.2768 1.28563 1.02194 -2.69887 0.965545 -0.479762 -2.69887 1.31792 -0.479762 -2.69887 0.965545 -0.479762 -2.1966 1.39332 -0.104905 -2.1966 0.890141 -0.104905 -1.93921 1.4489 0.408462 -1.93921 0.83456 0.408462 -2.22149 1.40368 0.734685 -2.22149 0.879784 0.734685 -1.89222 1.0719 1.36444 -1.64849 -0.7056 -1.59751 </float_array>
          <technique_common>
            <accessor count="196" offset="0" source="#wg001-mesh0-positions-array" stride="3">
              <param name="X" type="float" />
              <param name="Y" type="float" />
              <param name="Z" type="float" />
            </accessor>
          </technique_common>
        </source>
        <source id="wg001-mesh0-normals" name="wg001-mesh0-normals">
          <float_array id="wg001-mesh0-normals-array" count="588"> 0.682201 -0.718079 0.137711 0.980072 2.26506e-009 0.198647 0.638711 -0.768552 0.0370913 0.638711 0.768552 0.0370914 0.682201 0.718079 0.137711 -0.00530687 0.999061 -0.0430028 0.305998 0 0.952032 0.615281 0.487391 0.619579 0.615281 -0.487392 0.61958 -0.669794 0.742546 -0.00018124 -0.99016 0 0.139938 -0.839863 0 0.542798 -0.59137 -2.65362e-008 -0.8064 -0.275277 -0.660051 -0.698967 -0.936272 -1.30248e-008 -0.351275 0.934388 3.89591e-009 0.356256 0.0271987 -0.841726 0.53922 -0.470946 0.82812 0.304018 -0.262417 0.551493 -0.791828 0.240601 0.964075 -0.112566 -0.0377751 0.996324 0.0768804 0.208786 -0.643322 0.736576 -0.0520094 -0.998627 -0.00630424 0.132245 0 0.991217 0.956012 2.75199e-007 0.293329 0.603062 -0.787319 0.128233 0.378924 -0.844466 0.378543 0.645666 1.78457e-007 0.76362 0.71067 0.486806 0.507906 0.378923 0.844466 0.378542 0.173983 -4.44765e-007 0.984749 0.0866959 -3.96741e-007 0.996234 0.0263793 -0.986048 0.16436 0.159897 0.88039 -0.446482 0.0749253 -1.08587e-007 0.997189 0.993079 0 0.117445 -0.262417 -0.551493 -0.791829 -0.443109 0 -0.896468 -0.0377751 -0.996324 0.0768804 0.704505 2.65531e-007 0.709699 -0.669794 -0.742546 -0.00018129 -0.00530689 -0.999061 -0.0430028 -0.470946 -0.82812 0.304017 0.603062 0.78732 0.128233 0.846668 0.425593 0.31941 0.967889 2.01821e-007 0.25138 0.846668 -0.425593 0.31941 -0.957991 -3.24158e-008 -0.2868 -0.533595 -2.35146e-008 0.84574 -0.698898 0.598405 0.391731 -0.168235 -0.93009 -0.326542 -0.00330726 -0.449534 0.893257 -0.698898 -0.598405 0.39173 -0.168235 0.93009 -0.326542 -0.00330731 0.449534 0.893257 0.709837 0.617424 0.338998 0.905521 -1.81225e-008 -0.424302 0.556095 0 0.831119 0.709837 -0.617424 0.338998 -0.997444 0 -0.071454 -0.686033 -0.725909 -0.0491454 -0.686033 0.725909 -0.0491454 7.93178e-008 4.0561e-008 1 -0.533595 -2.35146e-008 0.84574 -0.698898 -0.598405 0.39173 0.556095 0 0.831119 0.709837 0.617424 0.338998 0.0127454 -0.616692 0.787101 0.184349 0 0.982861 0.0127454 0.616692 0.787101 -0.436535 0.616692 -0.655078 -0.406473 0 -0.913663 -0.436535 -0.616692 -0.655078 -0.535996 0.827542 0.166978 -0.535996 -0.827542 0.166978 0.889841 -5.62144e-008 0.45627 0.954743 -1.18901e-007 -0.29743 0.582998 0.791914 -0.181621 0.0127454 -0.616692 0.787101 -0.535996 -0.827542 0.166978 0.582998 -0.791914 -0.181621 0.740605 1.17015e-008 -0.67194 -9.83709e-008 1.92097e-008 -1 4.67006e-009 0.740988 -0.671519 -2.51323e-008 -0.740988 -0.671519 0.795452 -7.49717e-009 0.606016 0.954713 9.89066e-009 0.297527 0.6822 0.681624 0.26456 2.56036e-008 -0.795452 0.606016 3.06544e-008 -0.953676 0.300837 0.6822 -0.681624 0.26456 -0.795452 -1.12458e-008 0.606016 -0.954713 -1.4836e-008 0.297527 -0.6822 -0.681624 0.26456 2.56036e-008 0.795452 0.606016 8.40638e-008 0.953676 0.300837 -0.6822 0.681624 0.26456 -0.828057 0 -0.560642 4.26066e-008 0.828058 -0.560642 0.828058 0 -0.560643 0.278953 0.958038 -0.065947 0.604737 0.579713 0.546101 0.779804 0.624292 -0.0465242 -0.243441 0.697444 -0.674024 0.0206698 0.646564 -0.762579 0.0708043 0.993656 -0.0873735 0.210986 0.65348 0.726945 0.153484 0.689198 0.70813 0.538554 -0.448641 0.713218 0.538554 0.448641 0.713218 -0.464208 0 0.885727 -0.464208 0 0.885727 -0.0747525 -0.929886 0.360173 0.538554 -0.448641 0.713218 -0.0747525 0.929886 0.360173 0.732142 0.467677 0.495224 0.58555 0.806064 0.0859786 -0.164928 -0.963128 -0.212564 0.595576 -0.54321 -0.591786 0.58555 -0.806064 0.0859786 -0.261574 0 0.965183 -0.49442 -8.82326e-008 0.869223 0.23741 -0.964481 -0.115815 0.23741 0.964481 -0.115814 0.508581 0.847682 0.150936 0.507501 0.672483 0.538711 0.785815 0.616823 0.0449968 0.457275 0.649866 -0.607103 0.2258 0.54121 -0.810004 0.234992 0.884997 -0.401944 0.136374 0.793565 0.593006 0.0271987 0.841726 0.53922 -0.275277 0.660051 -0.698967 0.240601 -0.964075 -0.112566 -0.0520094 0.998627 -0.00630426 0.208786 0.643322 0.736576 -0.329534 0 -0.944144 0.71067 -0.486805 0.507906 0.838182 -1.16301e-007 -0.54539 -0.361208 0.768942 0.527501 -0.153644 0.966266 0.206698 -0.361207 -0.768943 0.5275 -0.153644 -0.966266 0.206698 0.99504 -7.71364e-008 0.0994785 -0.0995151 0.99403 -0.044733 -0.0995153 -0.99403 -0.0447331 0.391552 -2.93318e-007 0.920156 0.0263794 0.986048 0.16436 0.117585 0.800458 -0.587741 0.117585 -0.800458 -0.587742 0.159898 -0.88039 -0.446482 0.348095 3.55643e-007 -0.937459 -0.00330726 -0.449534 0.893257 0.709837 -0.617424 0.338998 -0.00330731 0.449534 0.893257 -0.698898 0.598405 0.391731 -0.436535 0.616692 -0.655078 -0.535996 0.827542 0.166978 0.0127454 0.616692 0.787101 0.184349 0 0.982861 0.473268 -5.62144e-008 -0.880919 -0.436535 -0.616692 -0.655078 -0.406473 0 -0.913663 -0.740605 1.17015e-008 -0.671941 -0.6822 -0.681624 0.26456 3.06544e-008 -0.953676 0.300837 0.6822 0.681624 0.26456 0.954713 9.89066e-009 0.297527 0.6822 -0.681624 0.26456 -0.6822 0.681624 0.26456 8.40638e-008 0.953676 0.300837 -0.954713 -1.4836e-008 0.297527 -0.260917 0.864209 -0.430192 0.375616 0.770103 -0.515611 -0.164928 0.963128 -0.212563 -0.786859 0 -0.617133 -0.996215 1.43912e-008 0.0869269 -0.454626 -0.889619 0.0435233 0.732142 -0.467677 0.495224 -0.993966 2.06425e-008 0.109687 -0.454626 0.889619 0.0435233 0.595576 0.54321 -0.591786 -0.993988 0 0.109487 0.225221 0.509533 -0.830452 0.538554 0.448641 0.713218 0.225221 -0.509533 -0.830452 0.225221 0.509533 -0.830452 0.225221 -0.509533 -0.830452 0.595576 0.54321 -0.591786 0.595576 -0.54321 -0.591786 0.58555 0.806064 0.0859786 0.58555 -0.806064 0.0859786 0.732142 0.467677 0.495224 0.732142 -0.467677 0.495224 0.928866 5.25959e-007 -0.370415 4.11088e-008 -0.828058 -0.560642 </float_array>
          <technique_common>
            <accessor count="196" offset="0" source="#wg001-mesh0-normals-array" stride="3">
              <param name="X" type="float" />
              <param name="Y" type="float" />
              <param name="Z" type="float" />
            </accessor>
          </technique_common>
        </source>
        <source id="wg001-mesh0-tex0" name="wg001-mesh0-tex0">
          <float_array id="wg001-mesh0-tex0-array" count="392"> 0.638871 0.753599 0.587786 0.725881 0.432591 0.753326 0.432591 0.753326 0.638871 0.753599 0.652727 0.848697 0.755922 0.541135 0.699381 0.689095 0.699381 0.689095 0.580119 0.931961 0.553888 0.984375 0.429993 0.93504 0.779012 0.921573 0.783246 0.841872 0.696719 0.974482 0.277698 0.723109 0.257813 0.850292 0.409817 0.861033 0.786344 0.79173 0.754803 0.732962 0.808496 0.648752 0.785049 0.551837 0.883518 0.424563 0.769946 0.382813 0.509254 0.643849 0.531028 0.676466 0.639956 0.623278 0.666699 0.475718 0.720285 0.456489 0.639956 0.623278 0.371371 0.541576 0.349848 0.605947 0.39058 0.532929 0.520535 0.607607 0.473789 0.62126 0.482026 0.510704 0.786344 0.79173 0.914022 0.656681 0.808496 0.648752 0.605702 0.590447 0.580119 0.931961 0.652727 0.848697 0.409817 0.861033 0.531028 0.676466 0.323086 0.675022 0.3683 0.643849 0.323086 0.675022 0.731501 0.306796 0.567629 0.367188 0.521079 0.28807 0.731501 0.19097 0.507813 0.185995 0.521079 0.28807 0.731501 0.19097 0.507813 0.185995 0.521079 0.0839191 0.731501 0.077378 0.567629 0.0078125 0.521079 0.0839191 0.984375 0.280257 0.984375 0.197557 0.984375 0.197557 0.125 0.375 0.125 0.492188 0.0421359 0.457864 0.125 0.257813 0.207864 0.292136 0.222058 0.727543 0.21875 0.730321 0.222058 0.733099 0.230838 0.733099 0.234375 0.730223 0.230838 0.727543 0.225759 0.734375 0.226448 0.726563 0.198279 0.561431 0.119416 0.507813 0.0457079 0.561675 0.116725 0.682549 0.00781253 0.742187 0.0457079 0.561675 0.141246 0.757813 0.00781253 0.757813 0.00781253 0.887641 0.00781253 0.887641 0.385598 0.276042 0.492188 0.257813 0.492188 0.3125 0.385598 0.339121 0.492188 0.367188 0.492188 0.3125 0.385598 0.276042 0.492188 0.257813 0.492188 0.3125 0.385598 0.339121 0.492188 0.367188 0.492188 0.3125 0.257813 0.257813 0.257813 0.356853 0.257813 0.257813 0.432165 0.0664952 0.398696 0.0338603 0.454329 0.0078125 0.442302 0.134754 0.438829 0.242188 0.411317 0.220266 0.383063 0.107883 0.382813 0.203825 0.0527344 0.0647656 0.0527344 0.0647656 0.0078125 0.195078 0.0078125 0.19512 0.0856847 0.123847 0.0525636 0.0648213 0.0856847 0.123847 0.110141 0.0554799 0.175528 0.0078125 0.28293 0.137968 0.278427 0.0512775 0.175528 0.0078125 0.257813 0.428646 0.28559 0.486979 0.320313 0.432908 0.320313 0.432908 0.936323 0.811931 0.893339 0.784089 0.934686 0.757813 0.971665 0.782393 0.984375 0.957251 0.969079 0.984375 0.882813 0.905566 0.257813 0.850292 0.783246 0.841872 0.754803 0.732962 0.883518 0.424563 0.785049 0.551837 0.984375 0.453405 0.720285 0.456489 0.6328 0.448144 0.57727 0.552576 0.542265 0.480372 0.57727 0.552576 0.542265 0.480372 0.418398 0.424715 0.425584 0.471415 0.425584 0.471415 0.37253 0.454388 0.39058 0.532929 0.41975 0.620655 0.41975 0.620655 0.520535 0.607607 0.51443 0.546107 0.00781249 0.375 0.0421359 0.292136 0.242188 0.375 0.207864 0.457864 0.116725 0.682549 0.00781253 0.742187 0.116725 0.682549 0.242188 0.661219 0.198279 0.561431 0.116725 0.682549 0.242188 0.661219 0.141246 0.757813 0.173541 0.918016 0.0078125 0.984375 0.173541 0.918016 0.242188 0.757813 0.173541 0.918016 0.173541 0.918016 0.0078125 0.984375 0.242188 0.757813 0.481021 0.112307 0.492188 0.0500332 0.28293 0.137968 0.367188 0.242188 0.289315 0.204918 0.176327 0.139985 0.110141 0.0554799 0.173134 0.213372 0.176327 0.139985 0.278427 0.0512775 0.0569532 0.18273 0.353562 0.136094 0.0525636 0.0648213 0.353562 0.136094 0.353531 0.136016 0.353531 0.136016 0.278422 0.0511719 0.278422 0.0511719 0.175641 0.0078125 0.175641 0.0078125 0.110234 0.0553906 0.110234 0.0553906 0.257813 0.382813 0.257813 0.356853 </float_array>
          <technique_common>
            <accessor count="196" offset="0" source="#wg001-mesh0-tex0-array" stride="2">
              <param name="S" type="float" />
              <param name="T" type="float" />
            </accessor>
          </technique_common>
        </source>
        <vertices id="wg001-mesh0-vertices">
          <input semantic="POSITION" source="#wg001-mesh0-positions" />
          <input semantic="NORMAL" source="#wg001-mesh0-normals" />
          <input semantic="TEXCOORD" source="#wg001-mesh0-tex0" />
        </vertices>
        <polylist count="249" material="theresonlyone">
          <input offset="0" semantic="VERTEX" source="#wg001-mesh0-vertices" />
          <vcount>3 3 3 3 3 3 3 3 3 3 3 3 3 3 3 3 3 3 3 3 3 3 3 3 3 3 3 3 3 3 3 3 3 3 3 3 3 3 3 3 3 3 3 3 3 3 3 3 3 3 3 3 3 3 3 3 3 3 3 3 3 3 3 3 3 3 3 3 3 3 3 3 3 3 3 3 3 3 3 3 3 3 3 3 3 3 3 3 3 3 3 3 3 3 3 3 3 3 3 3 3 3 3 3 3 3 3 3 3 3 3 3 3 3 3 3 3 3 3 3 3 3 3 3 3 3 3 3 3 3 3 3 3 3 3 3 3 3 3 3 3 3 3 3 3 3 3 3 3 3 3 3 3 3 3 3 3 3 3 3 3 3 3 3 3 3 3 3 3 3 3 3 3 3 3 3 3 3 3 3 3 3 3 3 3 3 3 3 3 3 3 3 3 3 3 3 3 3 3 3 3 3 3 3 3 3 3 3 3 3 3 3 3 3 3 3 3 3 3 3 3 3 3 3 3 3 3 3 3 3 3 3 3 3 3 3 3 3 3 3 3 3 3 3 3 3 3 3 3 </vcount>
          <p>0 1 2 3 4 5 6 7 8 9 10 11 12 13 14 3 1 4 2 15 16 5 17 3 18 19 20 21 22 23 24 25 26 27 28 29 30 31 32 33 34 35 36 37 38 24 39 29 26 39 24 40 41 42 17 5 9 9 11 17 43 44 45 24 46 25 47 48 49 50 51 52 53 54 55 56 57 58 55 57 56 56 53 55 58 51 50 50 56 58 52 48 47 47 50 52 49 54 53 53 47 49 47 59 60 47 60 50 53 61 59 53 59 47 62 63 64 62 65 66 67 68 69 70 71 72 72 73 70 69 74 67 75 76 77 78 79 80 80 76 75 78 80 75 81 82 83 84 82 81 85 86 87 88 89 90 91 92 93 94 95 96 87 95 94 94 85 87 96 92 91 91 94 96 93 89 88 88 91 93 90 86 85 85 88 90 94 97 98 85 94 98 85 98 99 88 85 99 100 101 102 103 104 105 106 101 100 105 107 106 106 100 105 108 109 110 111 112 113 114 115 116 117 118 119 120 121 122 123 121 120 124 125 126 127 128 129 130 125 124 2 1 15 1 3 15 15 3 131 3 17 131 131 17 42 17 11 42 42 11 40 11 10 40 40 10 14 10 9 14 14 9 132 9 5 132 132 5 19 5 4 19 19 4 7 4 1 7 7 1 8 1 0 8 8 0 133 0 41 133 133 41 13 41 40 13 13 40 14 15 131 16 131 42 16 16 42 2 42 41 2 2 41 0 23 134 135 134 20 135 135 20 7 20 19 7 23 6 21 6 8 21 21 8 38 8 133 38 38 133 36 133 13 36 36 13 18 13 132 18 18 132 19 134 136 37 136 22 37 37 22 38 22 21 38 36 18 37 18 20 37 37 20 134 13 12 132 12 14 132 7 6 135 6 23 135 44 46 45 46 24 45 45 24 43 24 29 43 28 27 137 27 26 137 138 139 140 139 141 140 140 141 142 141 138 142 142 138 143 138 140 143 143 140 144 140 142 144 144 142 145 142 143 145 145 143 146 143 144 146 146 144 147 144 145 147 147 145 32 145 146 32 32 146 30 146 147 30 30 147 31 147 148 31 31 149 32 149 148 32 32 148 147 34 150 35 150 151 35 35 151 33 151 150 33 29 39 27 39 26 27 64 152 62 152 153 62 62 153 65 66 154 62 154 155 62 62 155 63 156 157 77 157 158 77 77 158 75 158 159 75 75 159 78 77 76 160 76 80 160 160 80 161 80 79 161 161 162 160 162 156 160 160 156 77 83 82 163 82 84 163 163 84 164 84 165 164 166 167 81 167 168 81 81 168 84 168 165 84 169 170 83 170 166 83 83 166 81 164 171 163 171 169 163 163 169 83 105 100 103 100 172 103 102 173 100 173 172 100 174 175 176 175 117 176 176 117 177 117 119 177 177 119 112 119 178 112 112 178 113 177 179 176 179 180 176 176 180 174 180 116 174 174 116 181 180 179 182 179 177 182 182 177 112 112 111 182 111 114 182 182 114 180 114 116 180 175 174 183 174 181 183 115 114 184 114 111 184 118 117 185 117 175 185 175 186 187 186 188 187 187 188 189 188 190 189 189 190 191 190 192 191 191 192 193 192 109 193 193 109 108 122 123 194 123 120 194 194 120 122 126 127 124 127 129 124 124 129 130 72 74 73 74 69 73 94 91 97 91 195 97 91 88 195 88 99 195 </p>
        </polylist>
      </mesh>
    </geometry>
  </library_geometries>
  <library_visual_scenes>
    <visual_scene id="myScene" name="myScene">
      <node id="wg001" name="wg001">
        <matrix>1.94707e-007 0 1 0 0 1 0 0 -1 0 1.94707e-007 0 0 0 0 1</matrix>
        <instance_geometry url="#wg001-mesh0">
          <bind_material>
            <technique_common>
              <instance_material symbol="theresonlyone" target="#m0c01wg001" />
            </technique_common>
          </bind_material>
        </instance_geometry>
        <node id="gcol01" name="gcol01">
          <matrix>0.707107 -7.80741e-008 -0.707107 -2.6378 0.707107 1.97283e-007 0.707107 1.85275 8.42937e-008 -1 1.94707e-007 0.391436 0 0 0 1</matrix>
        </node>
        <node id="gcol02" name="gcol02">
          <matrix>0.707105 -0.00141426 -0.707107 -4.73815 0.707105 -0.00141398 0.707107 4.04197 -0.00199987 -0.999998 1.94707e-007 0.506239 0 0 0 1</matrix>
        </node>
        <node id="gcol00" name="gcol00">
          <matrix>1 0 0 -1.73043 0 1 0 -0.0103934 -0 0 1 6.20456 0 0 0 1</matrix>
        </node>
        <node id="sp" name="sp">
          <matrix>1 0 0 -1.73043 0 1 0 -0.0103934 -0 0 1 9.96455 0 0 0 1</matrix>
        </node>
      </node>
    </visual_scene>
  </library_visual_scenes>
  <scene>
    <instance_visual_scene url="#myScene" />
  </scene>
</COLLADA>