<?xml version="1.0" encoding="utf-8"?>
<COLLADA xmlns="http://www.collada.org/2005/11/COLLADASchema" version="1.4.1">
  <asset>
    <contributor>
      <author>Someone</author>
      <authoring_tool>Assimp Collada Exporter</authoring_tool>
    </contributor>
    <created>2000-01-01T23:59:59</created>
    <modified>2000-01-01T23:59:59</modified>
    <unit name="meter" meter="1" />
    <up_axis>Y_UP</up_axis>
  </asset>
  <library_images>
    <image id="m0c01wg002-diffuse-image">
      <init_from>c01wg002.png</init_from>
    </image>
  </library_images>
  <library_effects>
    <effect id="m0c01wg002-fx" name="m0c01wg002">
      <profile_COMMON>
        <newparam sid="m0c01wg002-diffuse-surface">
          <surface type="2D">
            <init_from>m0c01wg002-diffuse-image</init_from>
          </surface>
        </newparam>
        <newparam sid="m0c01wg002-diffuse-sampler">
          <sampler2D>
            <source>m0c01wg002-diffuse-surface</source>
          </sampler2D>
        </newparam>
        <technique sid="standard">
          <phong>
            <emission>
              <color sid="emission">0   0   0   0</color>
            </emission>
            <ambient>
              <color sid="ambient">1   1   1   1</color>
            </ambient>
            <diffuse>
              <texture texture="m0c01wg002-diffuse-sampler" texcoord="CHANNEL0" />
            </diffuse>
            <specular>
              <color sid="specular">0   0   0   0</color>
            </specular>
            <shininess>
              <float sid="shininess">16</float>
            </shininess>
            <reflective>
              <color sid="reflective">0   0   0   0</color>
            </reflective>
          </phong>
        </technique>
      </profile_COMMON>
    </effect>
  </library_effects>
  <library_materials>
    <material id="m0c01wg002" name="m0c01wg002">
      <instance_effect url="#m0c01wg002-fx" />
    </material>
  </library_materials>
  <library_geometries>
    <geometry id="wg002-mesh0" name="wg002-mesh0">
      <mesh>
        <source id="wg002-mesh0-positions" name="wg002-mesh0-positions">
          <float_array id="wg002-mesh0-positions-array" count="525"> 7.08034 -0.81675 2.4202 7.15081 -0.826671 2.92315 1.66235 -0.904975 1.60306 1.24093 -0.960543 2.85481 1.24093 0.960543 2.85481 1.66235 0.904975 1.60306 6.67566 1.15178e-007 2.05427 7.08034 0.81675 2.4202 7.15081 0.826671 2.92315 0.51628 -1.118 3.09854 -0.966521 -1.118 1.92428 1.82389 -1.118 1.48688 1.49734 -1.118 2.9415 1.82389 1.118 1.48688 1.49734 1.118 2.9415 -2.13717 1.118 0.283984 -1.50596 -1.118 0.190056 -2.13717 -1.118 0.283984 -0.966521 1.118 1.92428 -2.11484 -1.118 0.992288 -1.1551 1.118 3.03871 -1.19426 1.118 2.50817 -1.19426 -1.118 2.50817 -0.122519 1.118 3.56761 -0.783198 1.118 3.52616 -0.783198 -1.118 3.52616 -0.122519 -1.118 3.56761 -0.948252 0.3231 5.11159 -0.499617 0.718 4.71143 -1.20035 0.718 4.44778 -2.62083 -0.3231 3.28248 -3.04989 -0.3231 2.73216 -2.19327 -0.718 2.70214 -2.50956 0.3231 4.36768 -1.97836 0.3231 4.93042 -1.9592 0.718 3.78717 -1.9592 -0.718 3.78717 -2.50956 -0.3231 4.36768 -2.19327 0.718 2.70214 -2.62083 0.3231 3.28248 -0.604513 -0.201212 0.310209 -1.01308 -0.108691 0.855339 -1.58486 -4.90497e-008 -0.0122237 1.07184 0.232812 0.47593 1.22904 0.149711 1.71042 1.71224 -4.90497e-008 1.59716 1.35962 -4.90497e-008 0.236758 1.07184 -0.232812 0.47593 -0.495096 0.125179 1.19978 0.0676684 -2.70257e-008 1.29221 0.0424797 1.29936e-008 0.0706116 -2.31127 0.744353 0.0458962 -3.09667 0 0.646472 -3.13963 0.835424 1.68249 -0.905703 -0.456216 0.835612 -1.25931 -0.90182 1.30526 -2.31127 -0.744353 0.0458959 -2.078 -0.835999 1.64602 -1.68412 -0.794487 1.83382 -2.078 0.835999 1.64602 -1.99976 -0.410284 -0.782702 -1.99976 0.410284 -0.782702 -0.905703 0.456216 0.835612 2.15086 0.646814 3.61238 9.42464 0.419482 3.31051 9.40932 0.468142 2.74976 2.01927 0.610479 1.85082 2.15086 -0.646814 3.61238 0.74074 8.88178e-016 5.0159 -0.0906673 8.88178e-016 5.34228 -0.234423 -1.13148 4.30381 1.76827 -0.939829 3.72916 1.48216 8.88178e-016 4.45365 2.14199 0.689841 2.50816 -0.42983 0.807727 3.03024 -0.234423 1.13148 4.30381 1.76827 0.939829 3.72916 2.19806 0.925292 3.72062 2.19806 -0.925292 3.72062 2.14199 -0.689841 2.50816 -1.38369 -0.697 3.78528 -0.356642 0.697 4.36035 -1.38369 0.697 3.78528 -1.85975 0.697 2.80433 -2.02266 0.697 1.56535 -2.02266 -0.697 1.56535 -1.85975 -0.697 2.80433 -0.448755 0.697 1.25674 -1.2947 0.697 0.738197 -5.4173 0 -1.38415 -3.88765 1.0389 -1.86839 -4.42454 1.0389 -2.43366 -3.88765 -1.0389 -1.86839 -3.3237 0 -3.53449 -2.96412 0 -2.79191 -4.42454 -1.0389 -2.43366 -4.81116 0 -0.944874 -2.07643 0.256464 4.09906 -0.526838 0.256464 3.27446 -1.10348 0.256464 2.94154 -1.10348 -0.256464 2.94154 -1.55653 -0.256464 4.54546 -2.07643 -0.256464 4.09906 8.54306 0.131842 4.02674 8.15595 -0.157311 3.79785 8.54306 -0.131842 4.02674 4.2137 0 1.47676 3.48216 -1.07841 1.90204 3.48216 0 1.47676 3.48216 -1.07841 3.09124 4.2137 -1.07841 3.09124 4.2137 1.07841 3.09124 3.48216 1.07841 1.90204 4.2137 1.07841 1.90204 4.2137 -1.07841 1.90204 6.51802 0 1.73279 5.78648 -1.07841 2.15808 5.78648 0 1.73279 5.78648 -1.07841 3.09124 6.51802 -1.07841 3.09124 6.51802 1.07841 3.09124 5.78648 1.07841 2.15808 6.51802 1.07841 2.15808 6.51802 -1.07841 2.15808 0.785862 0.697 2.55134 1.20788 0.697 3.95901 1.20788 -0.697 3.95901 -0.356642 -0.697 4.36035 0.785862 -0.697 2.55134 -0.448755 -0.697 1.25674 -1.2947 -0.697 0.738197 -1.1551 -1.118 3.03871 0.51628 1.118 3.09854 -1.50596 1.118 0.190056 -2.11484 1.118 0.992288 -1.20035 -0.718 4.44778 -0.499617 -0.718 4.71143 -0.948252 -0.3231 5.11159 -3.04989 0.3231 2.73216 -1.97836 -0.3231 4.93042 8.15595 0.157311 3.79785 9.02395 0.157311 3.79785 9.02395 -0.157311 3.79785 9.07576 -0.227 3.20659 8.07576 -0.227 3.20659 8.07576 0.227 3.20659 9.07576 0.227 3.20659 9.394 0 2.4165 2.01927 -0.610479 1.85082 9.40932 -0.468142 2.74976 9.42464 -0.419482 3.31051 8.98781 -0.02433 2.9048 -3.0908 0 -2.78554 -4.06405 0.86252 -1.92645 -1.25931 0.90182 1.30526 -4.06405 -0.86252 -1.92645 -4.76328 0 -1.20027 -3.33273 0 -0.272087 -3.13963 -0.835424 1.68249 -1.68412 0.794487 1.83382 0.293038 -0.312154 -0.307723 -0.862362 -4.90497e-008 -0.123539 0.446419 -4.90497e-008 -0.813509 0.293038 0.312154 -0.307723 1.22904 -0.149711 1.71042 -1.01308 0.108691 0.855339 -0.604513 0.201212 0.310209 -0.495096 -0.125179 1.19978 -0.377253 1.65676e-008 0.408258 -0.42983 -0.807727 3.03024 1.78132 8.88178e-016 3.9945 -1.55653 0.256464 4.54546 -0.526838 -0.256464 3.27446 3.48216 1.07841 3.09124 5.78648 1.07841 3.09124 </float_array>
          <technique_common>
            <accessor count="175" offset="0" source="#wg002-mesh0-positions-array" stride="3">
              <param name="X" type="float" />
              <param name="Y" type="float" />
              <param name="Z" type="float" />
            </accessor>
          </technique_common>
        </source>
        <source id="wg002-mesh0-normals" name="wg002-mesh0-normals">
          <float_array id="wg002-mesh0-normals-array" count="525"> 0.626734 -0.460943 -0.62828 0.690781 -0.686253 0.227767 -0.19986 -0.698829 -0.6868 -0.873367 -0.463143 0.15076 -0.618717 0.660233 0.425771 -0.418051 0.605322 -0.677362 0.280829 7.96021e-009 -0.959758 0.763299 0.363996 -0.533743 0.428556 0.838508 0.336519 0.168624 -0.899412 0.403266 -0.362042 -0.927231 0.0957524 0.398216 -0.892447 -0.212042 0.586182 -0.517018 0.623766 0.398216 0.892447 -0.212042 0.586182 0.517018 0.623766 -0.637849 0.556253 -0.532664 0.0775565 -0.719046 -0.690621 -0.637849 -0.556253 -0.532664 -0.362042 0.927231 0.0957524 -0.785111 -0.481757 0.389243 -0.646956 0.72192 0.245517 -0.690458 0.715898 -0.103722 -0.690458 -0.715898 -0.103722 0.192814 0.728609 0.657231 -0.413096 0.481667 0.772884 -0.413096 -0.481667 0.772884 0.192814 -0.728609 0.657231 -0.0688319 0.598998 0.797787 0.285322 0.502724 0.816003 -0.360141 0.735263 0.574183 -0.818013 -0.480049 0.316871 -0.681737 -0.502718 0.531516 -0.512421 -0.843564 0.160699 -0.746603 0.594997 0.297596 -0.398446 0.572934 0.716231 -0.35886 0.868911 0.340902 -0.35886 -0.868911 0.340902 -0.746603 -0.594997 0.297596 -0.512421 0.843564 0.160699 -0.818013 0.480049 0.316871 0.267285 -0.92789 0.259959 0.45828 -0.753523 0.471363 -0.574302 -1.29112e-007 -0.818644 -0.00052249 1 0.000708628 -0.581898 0.8031 0.128159 0.990754 -2.08469e-007 -0.135673 0.888628 -2.79601e-007 -0.458629 -0.000522846 -1 0.000708799 -0.418817 0.895584 -0.15007 0.999788 -1.36785e-007 -0.020615 0.394092 -1.52538e-007 -0.919071 -0.153777 0.981835 -0.111142 -0.98909 -3.12705e-008 -0.147312 -0.74588 0.633007 0.207278 0.594789 -0.648783 -0.474664 0.11454 -0.988267 -0.10104 -0.153777 -0.981835 -0.111142 -0.135452 -0.821169 0.554378 -0.357213 -0.40917 0.83963 -0.216141 0.697729 0.682976 0.64486 -0.620269 -0.446567 0.64486 0.620269 -0.446567 0.594789 0.648783 -0.474664 0.0433539 0.881852 0.469529 0.9611 0.213378 0.175376 0.732392 0.670619 -0.117782 0.085925 0.649415 -0.755564 0.0433539 -0.881852 0.469529 0.457236 4.37378e-008 0.889346 0.365423 0 0.930842 0.164224 -0.947256 0.275201 0.375865 -0.745999 0.549737 0.736092 7.1451e-008 0.676882 0.333123 0.919021 -0.210782 -0.00542108 0.969359 -0.245587 0.164224 0.947256 0.275201 0.375865 0.746 0.549737 0.625988 0.488424 0.607931 0.625988 -0.488424 0.607931 0.333123 -0.919021 -0.210782 -0.502204 -0.723529 0.4736 -0.0879711 0.732864 0.674664 -0.502204 0.723529 0.4736 -0.672924 0.711668 0.201746 -0.701073 0.707107 0.0921795 -0.701073 -0.707107 0.0921795 -0.672924 -0.711668 0.201746 0 1 0 0 1 0 -0.990623 0 0.136626 0.405302 0.812867 0.418304 -0.344277 0.882746 -0.31974 0.405302 -0.812867 0.418304 0.188862 0 -0.982004 0.999779 0 0.0210244 -0.344277 -0.882746 -0.31974 -0.0552948 0 0.99847 -0.54129 0.707107 -0.454978 0.549429 0.707107 0.445115 -0.54129 0.707107 -0.454978 -0.54129 -0.707107 -0.454978 0.549429 -0.707107 0.445115 -0.54129 -0.707107 -0.454978 -0.0373024 0.468145 0.882864 -0.540766 -0.716382 0.440873 -0.0373024 -0.468145 0.882864 0 0 -1 0 -0.8267 -0.562643 0 0 -1 0 -0.707107 0.707107 0 -0.707107 0.707107 0 0.707107 0.707107 0 0.8267 -0.562643 0 0.8267 -0.562643 0 -0.8267 -0.562643 0 0 -1 0 -0.8267 -0.562643 0 0 -1 0 -0.707107 0.707107 0 -0.707107 0.707107 0 0.707107 0.707107 0 0.8267 -0.562643 0 0.8267 -0.562643 0 -0.8267 -0.562643 0 1 0 0.175703 0.707107 0.68493 0.175703 -0.707107 0.68493 -0.0879711 -0.732864 0.674664 0 -1 0 0 -1 0 0 -1 0 -0.646956 -0.72192 0.245517 0.168624 0.899412 0.403266 0.0775565 0.719046 -0.690621 -0.785111 0.481757 0.389243 -0.360141 -0.735263 0.574183 0.285322 -0.502724 0.816003 -0.0688319 -0.598998 0.797787 -0.681737 0.502718 0.531516 -0.398446 -0.572934 0.716231 -0.540766 0.716382 0.440873 0.521916 0.72726 0.445754 0.521916 -0.72726 0.445754 0.700836 -0.698685 0.14376 -0.695244 -0.696786 0.17642 -0.695244 0.696786 0.17642 0.700836 0.698685 0.14376 0.753494 0.00635678 -0.657424 0.085925 -0.649415 -0.755564 0.731623 -0.67218 -0.113589 0.96456 -0.194005 0.178846 0.997123 0.0149867 0.0743114 0.800446 0 -0.599405 -0.0710158 0.985274 0.155535 0.11454 0.988267 -0.10104 -0.0710158 -0.985274 0.155535 -0.544299 0 0.838891 -0.776188 -5.91287e-008 0.630501 -0.74588 -0.633007 0.207278 -0.276062 0.636952 0.719779 -0.109702 -0.984824 0.134488 -0.471777 -8.67905e-008 -0.881718 0.396473 -2.14158e-007 -0.918046 -0.109702 0.984824 0.134488 -0.581899 -0.8031 0.128159 0.458281 0.753522 0.471364 0.267285 0.92789 0.25996 -0.418817 -0.895584 -0.15007 -0.931206 2.18389e-007 -0.364493 -0.0054211 -0.969359 -0.245587 0.507386 8.36724e-008 0.861719 0.549429 0.707107 0.445115 0.549429 -0.707107 0.445115 0 0.707107 0.707107 0 0.707107 0.707107 </float_array>
          <technique_common>
            <accessor count="175" offset="0" source="#wg002-mesh0-normals-array" stride="3">
              <param name="X" type="float" />
              <param name="Y" type="float" />
              <param name="Z" type="float" />
            </accessor>
          </technique_common>
        </source>
        <source id="wg002-mesh0-tex0" name="wg002-mesh0-tex0">
          <float_array id="wg002-mesh0-tex0-array" count="350"> 0.977024 0.52171 0.984375 0.638681 0.537619 0.382813 0.507813 0.679688 0.507813 0.679688 0.537619 0.382813 0.943191 0.440012 0.977024 0.52171 0.984375 0.638681 0.394191 0.88311 0.193204 0.808958 0.472281 0.646387 0.492188 0.825581 0.472281 0.646387 0.492188 0.825581 0.00781248 0.669015 0.0711304 0.632813 0.00781248 0.669015 0.193204 0.808958 0.0367069 0.74895 0.214977 0.943757 0.190959 0.884789 0.190959 0.884789 0.344121 0.962433 0.272613 0.984375 0.272613 0.984375 0.344121 0.962433 0.908978 0.984375 0.983839 0.982933 0.938396 0.923388 0.897024 0.758815 0.900482 0.695313 0.984375 0.743603 0.820313 0.840823 0.825571 0.911196 0.919357 0.832821 0.919357 0.832821 0.820313 0.840823 0.984375 0.743603 0.897024 0.758815 0.871299 0.197427 0.820312 0.192584 0.854775 0.132813 0.924582 0.295382 0.850468 0.344187 0.876278 0.367188 0.951098 0.303499 0.924582 0.295382 0.832725 0.00781326 0.820312 0.117188 0.984375 0.112292 0.200322 0.528054 0.196268 0.439477 0.109445 0.382812 0.046617 0.590263 0.027591 0.54009 0.200322 0.528054 0.0479926 0.462494 0.00781196 0.481657 0.0479926 0.462494 0.252897 0.593683 0.252897 0.593683 0.046617 0.590263 0.0156252 0.179688 0.447499 0.150234 0.44659 0.0955213 0.00781218 0.00781234 0.0156252 0.179688 0.606692 0.339367 0.508399 0.359375 0.507813 0.156761 0.740676 0.131065 0.699351 0.292681 0.804688 0.0078125 0.509632 0.01785 0.507813 0.156761 0.740676 0.131065 0.788532 0.137759 0.788532 0.137759 0.804688 0.0078125 0.664569 0.984375 0.746888 0.943109 0.664569 0.984375 0.588606 0.944635 0.514809 0.856601 0.514809 0.856601 0.588606 0.944635 0.57799 0.695313 0.507813 0.725604 0.195313 0.20416 0.33619 0.367188 0.338175 0.195313 0.33619 0.367188 0.492188 0.195313 0.465396 0.367188 0.338175 0.195313 0.206985 0.367188 0.569849 0.71875 0.65625 0.820313 0.65625 0.747573 0.65625 0.747573 0.5625 0.79232 0.569849 0.71875 0.0881299 0.367188 0.0215954 0.31922 0.0881299 0.367188 0.101563 0.265625 0.0234375 0.284147 0.0234375 0.265625 0.0234375 0.335938 0.101563 0.335938 0.101563 0.335938 0.0234375 0.284147 0.101563 0.284147 0.101563 0.284147 0.117188 0.28125 0.0234375 0.300817 0.0234375 0.28125 0.0234375 0.34375 0.117188 0.34375 0.117188 0.34375 0.0234375 0.300817 0.117188 0.300817 0.117188 0.300817 0.708873 0.695421 0.804688 0.774989 0.804688 0.774989 0.746888 0.943109 0.708873 0.695421 0.57799 0.695313 0.507813 0.725604 0.214977 0.943757 0.394191 0.88311 0.0711304 0.632813 0.0367069 0.74895 0.938396 0.923388 0.983839 0.982933 0.908978 0.984375 0.900482 0.695313 0.825571 0.911196 0.0215954 0.31922 0.170783 0.31922 0.170783 0.31922 0.179688 0.195313 0.0078125 0.195313 0.0078125 0.195313 0.179688 0.195313 0.44568 0.0630055 0.00781218 0.00781234 0.44659 0.0955213 0.447499 0.150234 0.492188 0.110649 0.492188 0.617187 0.477249 0.50149 0.027591 0.54009 0.477249 0.50149 0.457108 0.412739 0.28993 0.469626 0.109445 0.382812 0.00781196 0.481657 0.94569 0.226905 0.889599 0.169091 0.984375 0.218936 0.94569 0.226905 0.850468 0.344187 0.820312 0.192584 0.871299 0.197427 0.832725 0.00781326 0.939028 0.0307162 0.509632 0.01785 0.741026 0.249138 0.5625 0.79232 0.65625 0.820313 0.0234375 0.335938 0.0234375 0.34375 </float_array>
          <technique_common>
            <accessor count="175" offset="0" source="#wg002-mesh0-tex0-array" stride="2">
              <param name="S" type="float" />
              <param name="T" type="float" />
            </accessor>
          </technique_common>
        </source>
        <vertices id="wg002-mesh0-vertices">
          <input semantic="POSITION" source="#wg002-mesh0-positions" />
          <input semantic="NORMAL" source="#wg002-mesh0-normals" />
          <input semantic="TEXCOORD" source="#wg002-mesh0-tex0" />
        </vertices>
        <polylist count="244" material="theresonlyone">
          <input offset="0" semantic="VERTEX" source="#wg002-mesh0-vertices" />
          <vcount>3 3 3 3 3 3 3 3 3 3 3 3 3 3 3 3 3 3 3 3 3 3 3 3 3 3 3 3 3 3 3 3 3 3 3 3 3 3 3 3 3 3 3 3 3 3 3 3 3 3 3 3 3 3 3 3 3 3 3 3 3 3 3 3 3 3 3 3 3 3 3 3 3 3 3 3 3 3 3 3 3 3 3 3 3 3 3 3 3 3 3 3 3 3 3 3 3 3 3 3 3 3 3 3 3 3 3 3 3 3 3 3 3 3 3 3 3 3 3 3 3 3 3 3 3 3 3 3 3 3 3 3 3 3 3 3 3 3 3 3 3 3 3 3 3 3 3 3 3 3 3 3 3 3 3 3 3 3 3 3 3 3 3 3 3 3 3 3 3 3 3 3 3 3 3 3 3 3 3 3 3 3 3 3 3 3 3 3 3 3 3 3 3 3 3 3 3 3 3 3 3 3 3 3 3 3 3 3 3 3 3 3 3 3 3 3 3 3 3 3 3 3 3 3 3 3 3 3 3 3 3 3 3 3 3 3 3 3 3 3 3 3 3 3 </vcount>
          <p>0 1 2 3 4 5 2 6 0 7 8 1 7 1 0 9 10 11 12 11 13 12 13 14 15 16 17 18 19 10 20 21 22 23 24 25 23 25 26 27 28 29 30 31 32 33 34 35 29 35 27 32 36 37 33 35 38 39 33 38 40 41 42 43 44 45 46 45 47 48 49 50 51 52 53 54 55 56 57 58 59 60 61 62 63 64 65 65 66 63 67 64 63 68 69 70 68 70 71 71 72 68 73 74 75 73 75 76 77 78 79 80 81 82 83 84 85 83 85 86 87 88 84 87 84 83 86 80 82 86 82 83 89 90 91 92 93 94 95 89 91 95 96 89 97 98 99 100 101 102 100 102 97 100 97 99 103 104 105 106 107 108 109 110 111 112 111 113 108 112 113 108 113 106 114 110 109 115 116 117 118 119 120 121 120 122 117 121 122 117 122 115 123 119 118 124 81 125 81 126 125 126 127 128 127 80 128 128 80 129 80 86 129 129 86 130 86 85 130 83 82 87 82 81 87 87 81 124 80 127 81 127 126 81 0 6 7 6 5 7 7 5 8 5 4 8 8 4 1 4 3 1 1 3 2 3 5 2 2 5 6 26 25 131 25 24 131 131 24 20 24 23 20 20 23 21 23 132 21 21 132 18 132 13 18 18 13 133 13 11 133 133 11 16 11 10 16 16 10 17 10 19 17 17 19 134 19 18 134 134 18 133 9 22 10 22 21 10 10 21 18 11 12 9 12 14 9 9 14 132 14 13 132 17 134 15 134 133 15 15 133 16 20 22 131 22 9 131 131 9 26 9 132 26 26 132 23 135 136 137 136 28 137 137 28 27 38 138 39 138 31 39 39 31 30 35 34 27 34 139 27 27 139 137 139 36 137 137 36 135 36 139 37 139 34 37 37 34 33 32 37 30 37 33 30 30 33 39 140 103 141 103 105 141 141 105 142 105 104 142 142 104 143 104 144 143 144 104 140 104 103 140 144 140 145 140 141 145 145 141 146 141 142 146 146 142 143 66 147 148 147 149 148 148 149 67 149 150 67 67 150 64 150 151 64 64 151 65 151 147 65 65 147 66 150 149 151 149 147 151 152 153 61 153 51 61 61 51 62 51 154 62 61 60 152 60 155 152 153 156 157 156 155 157 157 155 56 155 60 56 56 60 54 60 62 54 56 52 157 52 51 157 157 51 153 53 52 158 52 56 158 158 56 57 56 55 57 57 55 58 58 159 59 159 154 59 59 154 51 51 53 59 53 158 59 59 158 57 160 161 162 161 163 162 162 163 43 163 160 43 43 160 47 160 162 47 47 162 46 162 43 46 46 43 45 45 164 47 164 44 47 47 44 43 42 165 166 165 41 166 166 41 40 40 42 161 42 166 161 161 166 163 166 40 163 163 40 160 40 161 160 167 48 168 48 50 168 168 50 167 50 49 167 71 70 79 70 169 79 76 77 73 77 79 73 79 78 71 78 170 71 71 170 72 170 76 72 72 76 68 76 75 68 68 75 69 78 77 170 77 76 170 89 96 90 96 94 90 90 94 91 94 93 91 91 93 95 93 92 95 95 92 96 92 94 96 97 171 98 171 101 98 98 101 172 101 100 172 106 114 107 114 109 107 109 111 173 111 112 173 115 123 116 123 118 116 118 120 174 120 121 174 </p>
        </polylist>
      </mesh>
    </geometry>
  </library_geometries>
  <library_visual_scenes>
    <visual_scene id="myScene" name="myScene">
      <node id="wg002" name="wg002">
        <matrix>1 0 0 0 0 1 0 0 -0 0 1 0 0 0 0 1</matrix>
        <instance_geometry url="#wg002-mesh0">
          <bind_material>
            <technique_common>
              <instance_material symbol="theresonlyone" target="#m0c01wg002" />
            </technique_common>
          </bind_material>
        </instance_geometry>
        <node id="gcol00" name="gcol00">
          <matrix>1.94707e-007 0 1 11 0 1 0 0 -1 0 1.94707e-007 3 0 0 0 1</matrix>
        </node>
        <node id="gcol01" name="gcol01">
          <matrix>-0.280198 -3.89414e-007 -0.959942 -3.95027 1.09113e-007 -1 3.73815e-007 0 -0.959942 0 0.280198 2.51556 0 0 0 1</matrix>
        </node>
        <node id="gcol02" name="gcol02">
          <matrix>-0.616272 -3.89414e-007 -0.787533 -7.30767 2.39985e-007 -1 3.06677e-007 0 -0.787533 0 0.616272 3.936 0 0 0 1</matrix>
        </node>
        <node id="sp" name="sp">
          <matrix>1.94707e-007 0 1 15.9936 0 1 0 0 -1 0 1.94707e-007 3 0 0 0 1</matrix>
        </node>
      </node>
    </visual_scene>
  </library_visual_scenes>
  <scene>
    <instance_visual_scene url="#myScene" />
  </scene>
</COLLADA>