<?xml version="1.0" encoding="utf-8"?>
<COLLADA xmlns="http://www.collada.org/2005/11/COLLADASchema" version="1.4.1">
  <asset>
    <contributor>
      <author>Someone</author>
      <authoring_tool>Assimp Collada Exporter</authoring_tool>
    </contributor>
    <created>2000-01-01T23:59:59</created>
    <modified>2000-01-01T23:59:59</modified>
    <unit name="meter" meter="1" />
    <up_axis>Y_UP</up_axis>
  </asset>
  <library_images>
    <image id="m0rappa-diffuse-image">
      <init_from>rappa.png</init_from>
    </image>
  </library_images>
  <library_effects>
    <effect id="m0rappa-fx" name="m0rappa">
      <profile_COMMON>
        <newparam sid="m0rappa-diffuse-surface">
          <surface type="2D">
            <init_from>m0rappa-diffuse-image</init_from>
          </surface>
        </newparam>
        <newparam sid="m0rappa-diffuse-sampler">
          <sampler2D>
            <source>m0rappa-diffuse-surface</source>
          </sampler2D>
        </newparam>
        <technique sid="standard">
          <phong>
            <emission>
              <color sid="emission">0   0   0   0</color>
            </emission>
            <ambient>
              <color sid="ambient">1   1   1   1</color>
            </ambient>
            <diffuse>
              <texture texture="m0rappa-diffuse-sampler" texcoord="CHANNEL0" />
            </diffuse>
            <specular>
              <color sid="specular">0   0   0   0</color>
            </specular>
            <shininess>
              <float sid="shininess">16</float>
            </shininess>
            <reflective>
              <color sid="reflective">0   0   0   0</color>
            </reflective>
          </phong>
        </technique>
      </profile_COMMON>
    </effect>
  </library_effects>
  <library_materials>
    <material id="m0rappa" name="m0rappa">
      <instance_effect url="#m0rappa-fx" />
    </material>
  </library_materials>
  <library_geometries>
    <geometry id="rappa-mesh0" name="rappa-mesh0">
      <mesh>
        <source id="rappa-mesh0-positions" name="rappa-mesh0-positions">
          <float_array id="rappa-mesh0-positions-array" count="918"> 4.40894 -0.416477 2.19084 4.20378 -0.41689 1.02445 4.20175 0.591299 1.02445 4.40691 0.591712 2.19084 -0.774297 0.581281 1.02445 4.20175 0.591299 1.02445 4.20378 -0.41689 1.02445 2.61247 0.0840026 2.78027 4.40793 0.0876173 2.48303 4.40691 0.591712 2.19084 -0.977435 -0.427321 2.19084 4.40894 -0.416477 2.19084 0.817009 0.0803878 2.78027 2.61145 0.588097 2.48807 0.815995 0.584482 2.48807 0.818023 -0.423707 2.48807 2.61348 -0.420092 2.48807 -0.979464 0.580868 2.19084 -0.979464 0.580868 2.19084 -0.774297 0.581281 1.02445 -0.772269 -0.426908 1.02445 -0.977435 -0.427321 2.19084 -0.977435 -0.427321 2.19084 -0.97845 0.0767734 2.48303 -0.979464 0.580868 2.19084 4.40691 0.591712 2.19084 4.40793 0.0876173 2.48303 4.40894 -0.416477 2.19084 2.52983 0.0838362 3.05389 2.71832 -0.271312 3.1368 3.09386 -0.270556 3.30262 3.28092 0.0853483 3.38553 3.28092 0.0853483 3.38553 3.50416 -0.26973 2.37337 3.69122 0.0861743 2.45628 3.09243 0.440496 3.30262 3.50273 0.441322 2.37337 2.71688 0.43974 3.1368 3.12719 0.440566 2.20755 3.09243 0.440496 3.30262 2.71688 0.43974 3.1368 2.52983 0.0838362 3.05389 -1.68757 0.0753461 1.00266 -1.68648 -0.466723 1.31563 -1.68648 -0.466723 1.94156 -1.68757 0.0753457 2.25452 -1.68757 0.0753457 2.25452 -1.39761 -0.466142 1.94156 -1.39871 0.0759272 2.25452 -1.39761 -0.466142 1.31563 -1.39871 0.0759272 2.25452 -1.39761 -0.466142 1.94156 -1.68866 0.617415 1.94156 -1.68866 0.617415 1.31563 -1.39979 0.617997 1.94156 -1.39871 0.0759276 1.00266 -1.39979 0.617997 1.31563 -1.68866 0.617415 1.94156 2.22575 0.083224 3.5088 2.45759 -0.353608 3.61078 2.91951 -0.352678 3.81474 3.14959 0.085084 3.91672 3.14959 0.085084 3.91672 3.02783 -0.35246 3.56942 3.25791 0.085302 3.6714 2.56591 -0.35339 3.36546 3.25791 0.085302 3.6714 3.02783 -0.35246 3.56942 2.91775 0.521916 3.81474 2.45583 0.520986 3.61078 3.02607 0.522134 3.56942 2.33407 0.083442 3.26348 2.56415 0.521204 3.36546 2.91775 0.521916 3.81474 -0.440469 0.0778567 3.5088 -0.208628 -0.358975 3.61078 0.253296 -0.358045 3.81474 0.483375 0.0797162 3.91672 0.483375 0.0797162 3.91672 0.361615 -0.357827 3.56942 0.591695 0.0799342 3.6714 -0.100308 -0.358757 3.36546 0.591695 0.0799342 3.6714 0.361615 -0.357827 3.56942 0.251534 0.516548 3.81474 -0.21039 0.515618 3.61078 0.359854 0.516766 3.56942 -0.33215 0.0780747 3.26348 -0.10207 0.515836 3.36546 0.251534 0.516548 3.81474 0.892641 0.0805404 3.5088 1.12448 -0.356292 3.61078 1.58641 -0.355362 3.81474 1.81649 0.0823999 3.91672 1.81649 0.0823999 3.91672 1.69473 -0.355144 3.56942 1.92481 0.0826183 3.6714 1.2328 -0.356074 3.36546 1.92481 0.0826183 3.6714 1.69473 -0.355144 3.56942 1.58464 0.519232 3.81474 1.12272 0.518302 3.61078 1.69296 0.51945 3.56942 1.00096 0.0807584 3.26348 1.23104 0.51852 3.36546 1.58464 0.519232 3.81474 -0.136391 0.0784688 3.05389 0.0520958 -0.276679 3.1368 0.427642 -0.275923 3.30262 0.614699 0.0799806 3.38553 0.614699 0.0799806 3.38553 0.837946 -0.275097 2.37337 1.025 0.0808066 2.45628 0.426212 0.435128 3.30262 0.836516 0.435954 2.37337 0.0506629 0.434373 3.1368 0.460967 0.435199 2.20755 0.426212 0.435128 3.30262 0.0506629 0.434373 3.1368 -0.136391 0.0784688 3.05389 1.19672 0.0811525 3.05389 1.38521 -0.273995 3.1368 1.76076 -0.27324 3.30262 1.94781 0.0826643 3.38553 1.94781 0.0826643 3.38553 2.17106 -0.272414 2.37337 2.35811 0.0834906 2.45628 1.75932 0.437812 3.30262 2.16963 0.438638 2.37337 1.38377 0.437056 3.1368 1.79408 0.437882 2.20755 1.75932 0.437812 3.30262 1.38377 0.437056 3.1368 1.19672 0.0811525 3.05389 -1.22941 0.0762682 1.07904 -1.2283 -0.473287 1.62859 -1.55682 0.075609 1.62859 -1.23052 0.625823 1.62859 -1.22941 0.0762682 2.17815 -0.23663 0.0782669 1.62859 3.2876 0.0853618 2.35405 2.64739 0.0840729 3.45844 2.77479 0.223909 3.51481 1.95449 0.0826781 2.35405 1.31428 0.0813892 3.45844 1.44168 0.221225 3.51481 0.621379 0.079994 2.35405 -0.0188338 0.0787051 3.45844 0.108571 0.218541 3.51481 5.39219 0.206384 0.920008 3.45345 0.0170795 0.595684 3.45135 0.202476 0.916801 5.39294 -0.164417 0.920008 3.45209 -0.168325 0.916801 5.38166 0.0209613 0.59907 5.83656 0.207278 0.812663 5.83731 -0.163523 0.812663 5.63483 0.0214709 0.561967 6.01185 0.207631 0.355029 6.0126 -0.16317 0.355029 5.69101 0.0215839 0.35112 5.84748 0.2073 -0.090226 5.84823 -0.163501 -0.090226 5.65102 0.0215035 0.168021 5.40218 0.206404 -0.216063 5.40293 -0.164397 -0.216063 5.4029 0.0210039 0.105721 3.34997 0.202272 -0.22347 3.35071 -0.168529 -0.22347 3.32176 0.0168144 0.096379 3.12818 0.201826 -0.26447 3.12893 -0.168975 -0.26447 3.01727 0.0162012 0.0367539 2.50066 0.200563 -0.984814 2.50141 -0.170239 -0.984814 2.37944 0.0149175 -0.687601 2.2016 0.0145593 -0.699762 -0.964753 0.19365 -0.592287 -0.90082 0.00837786 -0.277518 2.18606 0.199929 -1.02053 2.18681 -0.170872 -1.02053 -1.3724 -0.237699 -2.81844 -2.81424 -0.240602 -2.56094 -2.81551 0.387085 -2.56094 -1.12357 -0.237364 0.889142 -0.765855 -0.236643 1.33464 -0.767118 0.391043 1.33464 3.39495 -0.228267 0.410314 2.20343 0.397024 0.579898 3.39369 0.39942 0.410314 2.20469 -0.230663 0.579898 -0.421135 -0.235949 0.383831 -0.422398 0.391737 0.383831 -1.45271 -0.238026 0.739508 3.88288 -0.227285 1.33464 0.284497 0.198512 0.72127 0.0741337 0.0788925 -0.181085 -0.249595 0.0782407 0.72127 7.08697 -0.584762 2.39413 8.40365 -1.26308 3.0751 8.40092 0.0956556 3.63791 5.91949 -0.357333 1.97501 7.0856 0.0930079 2.67487 4.75081 -0.178355 1.87032 5.91859 0.0906585 2.23366 8.40479 -1.82589 1.71636 6.24526 0.0913162 1.71636 8.40365 -1.26308 3.0751 7.08753 -0.865503 1.71636 3.75321 -0.13222 1.49784 4.75081 -0.178355 1.5624 8.40365 -1.26308 0.357623 8.40092 0.095656 -0.205186 5.91859 0.0906585 1.19906 7.0856 0.0930079 0.757849 7.08697 -0.584762 1.03859 8.39818 1.45439 0.357623 5.91769 0.53865 1.45771 8.39705 2.0172 1.71636 8.39818 1.45439 3.0751 4.75027 0.0883065 2.02427 3.75233 0.304816 1.93488 3.75321 -0.13222 1.93488 4.75027 0.0883065 1.40844 3.75233 0.304816 1.49784 -0.772269 -0.426908 1.02445 -0.97845 0.0767734 2.48303 3.09386 -0.270556 3.30262 3.12862 -0.270486 2.20755 2.71832 -0.271312 3.1368 2.94013 0.0846622 2.12464 -1.68648 -0.466723 1.94156 -1.39761 -0.466142 1.31563 -1.68648 -0.466723 1.31563 -1.39871 0.0759276 1.00266 -1.68757 0.0753461 1.00266 -1.39979 0.617997 1.31563 -1.68866 0.617415 1.31563 -1.39979 0.617997 1.94156 2.91951 -0.352678 3.81474 2.56591 -0.35339 3.36546 2.45759 -0.353608 3.61078 2.33407 0.083442 3.26348 2.22575 0.083224 3.5088 2.56415 0.521204 3.36546 2.45583 0.520986 3.61078 3.02607 0.522134 3.56942 0.253296 -0.358045 3.81474 -0.100308 -0.358757 3.36546 -0.208628 -0.358975 3.61078 -0.33215 0.0780747 3.26348 -0.440469 0.0778567 3.5088 -0.10207 0.515836 3.36546 -0.21039 0.515618 3.61078 0.359854 0.516766 3.56942 1.58641 -0.355362 3.81474 1.2328 -0.356074 3.36546 1.12448 -0.356292 3.61078 1.00096 0.0807584 3.26348 0.892641 0.0805404 3.5088 1.23104 0.51852 3.36546 1.12272 0.518302 3.61078 1.69296 0.51945 3.56942 0.427642 -0.275923 3.30262 0.462397 -0.275853 2.20755 0.0520958 -0.276679 3.1368 0.27391 0.0792948 2.12464 1.76076 -0.27324 3.30262 1.79551 -0.273169 2.20755 1.38521 -0.273995 3.1368 1.60702 0.0819785 2.12464 -1.22941 0.0762682 2.17815 -1.23052 0.625823 1.62859 -1.2283 -0.473287 1.62859 -1.22941 0.0762682 1.07904 2.90276 0.084587 3.57119 2.77535 -0.0552494 3.51481 1.56965 0.0819029 3.57119 1.44224 -0.057933 3.51481 0.236538 0.0792193 3.57119 0.109133 -0.0606167 3.51481 -0.964008 -0.177151 -0.592287 -1.37366 0.389987 -2.81844 -2.17605 0.388207 -0.654322 -2.17479 -0.23948 -0.654322 -1.45397 0.389661 0.739508 -1.12483 0.390323 0.889142 3.88162 0.400402 1.33464 0.284978 -0.039879 0.72127 0.284497 0.198512 0.72127 8.40092 0.0956556 3.63791 8.39818 1.45439 3.0751 7.08424 0.770777 2.39413 8.39705 2.0172 1.71636 7.08367 1.05152 1.71636 8.39818 1.45439 0.357623 7.08424 0.770778 1.03859 8.40092 0.095656 -0.205186 8.40365 -1.26308 0.357623 8.40479 -1.82589 1.71636 5.91769 0.53865 1.97501 4.74973 0.354968 1.87032 4.74973 0.354968 1.5624 5.91949 -0.357333 1.45771 3.75233 0.304816 1.49784 3.75321 -0.13222 1.93488 </float_array>
          <technique_common>
            <accessor count="306" offset="0" source="#rappa-mesh0-positions-array" stride="3">
              <param name="X" type="float" />
              <param name="Y" type="float" />
              <param name="Z" type="float" />
            </accessor>
          </technique_common>
        </source>
        <source id="rappa-mesh0-normals" name="rappa-mesh0-normals">
          <float_array id="rappa-mesh0-normals-array" count="918"> 0.984878 0.00198421 -0.173239 0.984878 0.00198421 -0.173239 0.984878 0.00198421 -0.173239 0.984878 0.00198421 -0.173239 -0.00142351 0.707105 -0.707107 -0.00142351 0.707105 -0.707107 0.00142353 -0.707105 -0.707107 0.0820779 -0.000812879 0.996626 0.160813 -0.186923 0.969123 0.0632805 0.917186 0.393402 -0.0632806 -0.917186 0.393402 0.041309 -0.970453 0.237727 -0.0820779 0.000813143 0.996626 0.0309449 0.803785 0.594114 -0.0801978 0.693021 0.716443 -0.030945 -0.803785 0.594114 0.0801979 -0.693021 0.716443 -0.0413089 0.970453 0.237728 -0.984878 -0.00198129 -0.173239 -0.984878 -0.00198129 -0.173239 -0.984878 -0.00198129 -0.173239 -0.984878 -0.00198129 -0.173239 -0.999998 -0.00201171 0 -0.999998 -0.00201171 0 -0.999998 -0.00201171 0 0.999998 0.00201467 -5.11895e-006 0.999998 0.00201467 -5.11895e-006 0.999998 0.00201467 -5.11895e-006 -0.403921 -0.00081401 0.914793 -0.403921 -0.00081401 0.914793 -0.403921 -0.00081401 0.914793 -0.403921 -0.00081401 0.914793 0.898688 -0.187174 0.396642 0.600393 -0.754722 0.264428 0.897927 0.19079 0.396643 0.59735 0.757134 0.264428 0.297534 0.945512 0.132214 -0.301338 0.944306 -0.132214 -0.600394 0.754721 -0.264429 -0.403921 -0.00081401 0.914793 -0.403921 -0.00081401 0.914793 -0.898688 0.187172 -0.396643 -0.999998 -0.00201171 0 -0.999998 -0.00201171 0 -0.999998 -0.00201171 0 -0.999998 -0.00201171 0 0.000380398 -0.188981 0.981981 0.0015216 -0.755926 0.654655 -0.000380398 0.188981 0.981981 0.999998 0.00201467 -5.11895e-006 0.999998 0.00201467 -5.11895e-006 0.999998 0.00201467 -5.11895e-006 -0.999998 -0.00201171 0 -0.999998 -0.00201171 0 0.999998 0.00201467 -5.11895e-006 0.999998 0.00201467 -5.11895e-006 0.999998 0.00201467 -5.11895e-006 -0.0015216 0.755926 0.654655 -0.403921 -0.00081401 0.914793 -0.403921 -0.00081401 0.914793 -0.403921 -0.00081401 0.914793 -0.403921 -0.00081401 0.914793 0.898688 -0.187174 0.396642 0.600393 -0.754722 0.264428 0.897927 0.19079 0.396643 0.403921 0.000812452 -0.914794 0.403921 0.000812452 -0.914794 0.403921 0.000812452 -0.914794 -0.403921 -0.00081401 0.914793 -0.403921 -0.00081401 0.914793 0.403921 0.000812452 -0.914794 0.403921 0.000812452 -0.914794 0.403921 0.000812452 -0.914794 0.59735 0.757134 0.264428 -0.403921 -0.00081401 0.914793 -0.403921 -0.00081401 0.914793 -0.403921 -0.00081401 0.914793 -0.403921 -0.00081401 0.914793 0.898688 -0.187174 0.396642 0.600393 -0.754722 0.264428 0.897927 0.19079 0.396643 0.403921 0.000812452 -0.914794 0.403921 0.000812452 -0.914794 0.403921 0.000812452 -0.914794 -0.403921 -0.00081401 0.914793 -0.403921 -0.00081401 0.914793 0.403921 0.000812452 -0.914794 0.403921 0.000812452 -0.914794 0.403921 0.000812452 -0.914794 0.59735 0.757134 0.264428 -0.403921 -0.00081401 0.914793 -0.403921 -0.00081401 0.914793 -0.403921 -0.00081401 0.914793 -0.403921 -0.00081401 0.914793 0.898688 -0.187174 0.396642 0.600393 -0.754722 0.264428 0.897927 0.19079 0.396643 0.403921 0.000812452 -0.914794 0.403921 0.000812452 -0.914794 0.403921 0.000812452 -0.914794 -0.403921 -0.00081401 0.914793 -0.403921 -0.00081401 0.914793 0.403921 0.000812452 -0.914794 0.403921 0.000812452 -0.914794 0.403921 0.000812452 -0.914794 0.59735 0.757134 0.264428 -0.403921 -0.00081401 0.914793 -0.403921 -0.00081401 0.914793 -0.403921 -0.00081401 0.914793 -0.403921 -0.00081401 0.914793 0.898688 -0.187174 0.396642 0.600393 -0.754722 0.264428 0.897927 0.19079 0.396643 0.59735 0.757134 0.264428 0.297534 0.945512 0.132214 -0.301338 0.944306 -0.132214 -0.600394 0.754721 -0.264429 -0.403921 -0.00081401 0.914793 -0.403921 -0.00081401 0.914793 -0.898688 0.187172 -0.396643 -0.403921 -0.00081401 0.914793 -0.403921 -0.00081401 0.914793 -0.403921 -0.00081401 0.914793 -0.403921 -0.00081401 0.914793 0.898688 -0.187174 0.396642 0.600393 -0.754722 0.264428 0.897927 0.19079 0.396643 0.59735 0.757134 0.264428 0.297534 0.945512 0.132214 -0.301338 0.944306 -0.132214 -0.600394 0.754721 -0.264429 -0.403921 -0.00081401 0.914793 -0.403921 -0.00081401 0.914793 -0.898688 0.187172 -0.396643 -0.859088 -0.00173 -0.511826 -0.858057 -0.513554 -1.10481e-006 -0.999998 -0.00201171 0 0.48254 0.875874 -1.38594e-006 0.484303 0.000975389 0.8749 0.999998 0.00201467 -5.11895e-006 0.403898 0.000819528 -0.914804 -0.865143 -0.00174171 -0.501523 0.0421615 0.994091 -0.100027 0.403859 0.000811459 -0.914821 -0.865143 -0.00174171 -0.501523 0.0421615 0.994091 -0.100027 0.403899 0.000807423 -0.914803 -0.865143 -0.00174171 -0.501523 0.0421615 0.994091 -0.100027 0.115383 0.867028 0.484715 0.000484703 0.49988 -0.866095 -0.00243746 0.499996 0.866024 0.0130414 -0.870809 0.491449 0.00204345 -0.999998 -0.000140794 -0.0884332 -0.0125789 -0.996003 0.473509 0.867411 0.152931 0.0798476 -0.86412 0.496911 -0.670769 -0.00108795 -0.741666 0.448508 0.878112 -0.166614 0.448936 -0.877716 0.167547 -0.999847 -0.00713944 -0.0159872 0.087896 0.860881 -0.501157 0.467097 -0.870299 -0.156204 -0.718272 -0.0107281 0.695679 0.00185652 0.869572 -0.493802 0.136975 -0.867143 -0.478853 -0.13176 0.00555359 0.991266 0.0889675 0.86643 -0.491308 0.0013502 -0.866724 -0.498787 -0.0970728 -0.00120258 0.995277 0.367855 0.872335 -0.322047 0.0721169 -0.872292 -0.483637 -0.509032 -0.00928105 0.860697 0.032878 0.872765 -0.487031 0.382077 -0.86832 -0.316288 -0.461106 0.010047 0.887288 0.0252324 0.00422498 0.999673 -0.00176753 0.999998 0.00126089 0.117818 -0.498648 0.85876 -0.0626084 0.868302 -0.492068 0.0582088 -0.866578 -0.495635 0.19878 -0.650284 -0.733224 -0.71281 -0.690973 -0.12024 -0.559424 0.428636 -0.709447 -0.555441 -0.565212 0.609935 -0.244667 -0.949178 0.197989 -0.552785 0.705996 0.442717 0.222888 -0.368416 -0.902547 -0.0432195 0.801407 -0.596556 0.599634 0.37007 -0.709568 0.00328717 -0.708935 -0.705266 0.422309 -0.843901 -0.330887 0.232188 0.845227 -0.481332 -0.347443 -0.814796 0.464102 0.62675 -0.705847 -0.330098 0.594381 0.767441 -0.240301 0.815495 0.00165184 -0.578762 -0.941257 -0.00189548 -0.337687 -0.50332 -0.563459 0.655121 -0.58582 -0.646494 0.488734 -0.586897 -0.1119 0.801892 -0.299733 -0.829391 0.471455 -0.486273 -0.0282532 0.87335 -0.0993567 -0.862273 0.496603 -0.280355 -0.0280889 0.959485 0.663904 0.747818 0 0.999998 0.00201467 -5.11895e-006 0.664344 0.52918 -0.527841 -0.473338 -0.8791 0.0559825 -0.0476964 -0.800888 -0.596912 -0.107625 -0.912139 -0.395499 0.664344 0.52918 0.527841 0.665406 0.00133972 0.74648 -0.280465 0.0269616 -0.959486 -0.486383 0.0262955 -0.87335 -0.477281 -0.631902 -0.610658 0.666469 -0.526501 0.527841 -0.30307 0.828178 -0.471455 0.666909 -0.745139 -2.8075e-007 0.666469 -0.526501 -0.527841 -0.0911224 0.0923487 0.991548 -0.0509198 0.800688 0.596914 -0.0428692 -0.626543 0.778207 -0.0907501 -0.0927151 -0.991548 -0.0453931 0.626368 -0.778204 0.00142353 -0.707105 -0.707107 -0.160813 0.186924 0.969123 0.301339 -0.944306 0.132214 -0.297533 -0.945512 -0.132214 -0.597349 -0.757134 -0.264428 -0.897927 -0.190792 -0.396643 0.001902 -0.944909 0.327328 0.001902 -0.944909 -0.327326 0.00152161 -0.755928 -0.654653 0.000380401 -0.188982 -0.98198 -0.000380402 0.188983 -0.98198 -0.00152161 0.755928 -0.654653 -0.001902 0.944909 -0.327326 -0.001902 0.944909 0.327328 0.301339 -0.944306 0.132214 -0.297533 -0.945512 -0.132214 -0.597349 -0.757134 -0.264428 -0.897927 -0.190792 -0.396643 -0.898688 0.187172 -0.396643 -0.600394 0.754721 -0.264429 -0.301338 0.944306 -0.132214 0.297534 0.945512 0.132214 0.301339 -0.944306 0.132214 -0.297533 -0.945512 -0.132214 -0.597349 -0.757134 -0.264428 -0.897927 -0.190792 -0.396643 -0.898688 0.187172 -0.396643 -0.600394 0.754721 -0.264429 -0.301338 0.944306 -0.132214 0.297534 0.945512 0.132214 0.301339 -0.944306 0.132214 -0.297533 -0.945512 -0.132214 -0.597349 -0.757134 -0.264428 -0.897927 -0.190792 -0.396643 -0.898688 0.187172 -0.396643 -0.600394 0.754721 -0.264429 -0.301338 0.944306 -0.132214 0.297534 0.945512 0.132214 0.301339 -0.944306 0.132214 -0.297533 -0.945512 -0.132214 -0.597349 -0.757134 -0.264428 -0.897927 -0.190792 -0.396643 0.301339 -0.944306 0.132214 -0.297533 -0.945512 -0.132214 -0.597349 -0.757134 -0.264428 -0.897927 -0.190792 -0.396643 -0.859089 -0.00173 0.511824 -0.860119 0.510094 -1.10481e-006 0.486064 -0.873923 -1.34635e-006 0.484301 0.000975388 -0.874901 0.953473 0.00192093 0.301472 0.0461651 -0.993913 -0.100027 0.953473 0.00192093 0.301472 0.0461651 -0.993913 -0.100027 0.953473 0.00192093 0.301472 0.0461651 -0.993913 -0.100027 -0.115635 -0.500234 -0.858135 0.565256 0.651854 -0.505541 -0.658513 0.70671 0.258691 -0.862791 -0.318771 0.392399 -0.629485 0.572629 0.525209 -0.384924 0.71492 0.583714 0.393691 0.895221 -0.208773 0.597472 -0.765037 -0.240303 0.594381 0.767441 -0.240301 0.665406 0.00133966 -0.74648 -0.588104 0.487551 0.645312 -0.479821 0.629975 0.610658 -0.588733 0.800709 0.110719 -0.476873 0.877187 -0.0559822 -0.588419 0.64413 -0.488734 -0.505585 0.561428 -0.65512 -0.587343 0.109536 -0.801892 -0.586136 -0.489915 -0.645313 -0.585505 -0.803073 -0.110718 -0.290301 0.791346 0.538049 -0.111296 0.911697 0.395502 -0.102827 0.861867 -0.4966 -0.287112 -0.792509 -0.538048 -0.0453931 0.626368 -0.778204 -0.0428692 -0.626543 0.778207 </float_array>
          <technique_common>
            <accessor count="306" offset="0" source="#rappa-mesh0-normals-array" stride="3">
              <param name="X" type="float" />
              <param name="Y" type="float" />
              <param name="Z" type="float" />
            </accessor>
          </technique_common>
        </source>
        <source id="rappa-mesh0-tex0" name="rappa-mesh0-tex0">
          <float_array id="rappa-mesh0-tex0-array" count="612"> 0.0195313 0.171875 0.0195313 0.0351563 0.136719 0.0351563 0.136719 0.171875 0.749052 0.0364487 0.180164 0.0364487 0.180164 0.0364487 0.361975 0.235128 0.156708 0.201495 0.156708 0.168432 0.772508 0.168432 0.156708 0.168432 0.567242 0.235128 0.361975 0.202065 0.567242 0.202065 0.567242 0.202065 0.361975 0.202065 0.772508 0.168432 0.136719 0.171875 0.136719 0.0351563 0.0195313 0.0351563 0.0195313 0.171875 0.0195313 0.171875 0.078125 0.203125 0.136719 0.171875 0.136719 0.171875 0.078125 0.203125 0.0195313 0.171875 0.25 0.394531 0.222656 0.394531 0.179688 0.394531 0.15625 0.394531 0.15625 0.394531 0.179688 0.277344 0.15625 0.277344 0.179688 0.394531 0.179688 0.277344 0.222656 0.394531 0.222656 0.277344 0.179688 0.394531 0.222656 0.394531 0.25 0.394531 0.867188 0.197046 0.820534 0.223866 0.820534 0.277505 0.867188 0.304325 0.943422 0.175637 0.910398 0.140224 0.910398 0.175637 0.910398 0.0693971 0.910398 0.175637 0.910398 0.140224 0.913841 0.277505 0.913841 0.223866 0.910398 0.140224 0.910398 0.0339835 0.910398 0.0693971 0.943422 0.140224 0.0644531 0.248047 0.0203125 0.274219 0.0203125 0.326563 0.0644531 0.354297 0.144531 0.457031 0.171875 0.421875 0.144531 0.421875 0.230469 0.421875 0.144531 0.421875 0.171875 0.421875 0.111328 0.326172 0.110937 0.273828 0.171875 0.421875 0.261719 0.421875 0.230469 0.421875 0.171875 0.457031 0.0644531 0.248047 0.0203125 0.274219 0.0203125 0.326563 0.0644531 0.354297 0.144531 0.457031 0.171875 0.421875 0.144531 0.421875 0.230469 0.421875 0.144531 0.421875 0.171875 0.421875 0.111328 0.326172 0.110937 0.273828 0.171875 0.421875 0.261719 0.421875 0.230469 0.421875 0.171875 0.457031 0.0644531 0.248047 0.0203125 0.274219 0.0203125 0.326563 0.0644531 0.354297 0.144531 0.457031 0.171875 0.421875 0.144531 0.421875 0.230469 0.421875 0.144531 0.421875 0.171875 0.421875 0.111328 0.326172 0.110937 0.273828 0.171875 0.421875 0.261719 0.421875 0.230469 0.421875 0.171875 0.457031 0.25 0.394531 0.222656 0.394531 0.179688 0.394531 0.15625 0.394531 0.15625 0.394531 0.179688 0.277344 0.15625 0.277344 0.179688 0.394531 0.179688 0.277344 0.222656 0.394531 0.222656 0.277344 0.179688 0.394531 0.222656 0.394531 0.25 0.394531 0.25 0.394531 0.222656 0.394531 0.179688 0.394531 0.15625 0.394531 0.15625 0.394531 0.179688 0.277344 0.15625 0.277344 0.179688 0.394531 0.179688 0.277344 0.222656 0.394531 0.222656 0.277344 0.179688 0.394531 0.222656 0.394531 0.25 0.394531 0.891043 0.0426259 0.891043 0.104811 0.928475 0.104811 0.891043 0.104811 0.891043 0.166996 0.777543 0.104811 0.203125 0.285156 0.21875 0.429688 0.203125 0.429688 0.203125 0.285156 0.21875 0.429688 0.203125 0.429688 0.203125 0.285156 0.21875 0.429688 0.203125 0.429688 0.22586 0.610631 0.442664 0.574262 0.442857 0.610272 0.22586 0.610631 0.442857 0.610272 0.227079 0.574641 0.176177 0.598594 0.176177 0.598594 0.198773 0.570481 0.156579 0.547275 0.156579 0.547275 0.192492 0.546837 0.174956 0.497345 0.174956 0.497345 0.196963 0.526304 0.224743 0.483234 0.224743 0.483234 0.224705 0.519318 0.454192 0.482403 0.454192 0.482403 0.457387 0.51827 0.478989 0.477805 0.478989 0.477805 0.491432 0.511584 0.549149 0.397027 0.549149 0.397027 0.562744 0.430356 0.582627 0.428993 0.93471 0.453683 0.929688 0.491071 0.584323 0.393022 0.584323 0.393022 0.797733 0.510154 0.958479 0.538863 0.958479 0.538863 0.77911 0.908331 0.73923 0.958002 0.73923 0.958002 0.275358 0.854945 0.408055 0.873852 0.275358 0.854945 0.408055 0.873852 0.700798 0.851992 0.700798 0.851992 0.815804 0.891648 0.220961 0.958002 0.0703125 0.485491 0.0920759 0.394531 0.123326 0.485491 0.177734 0.821094 0.0320312 0.894531 0.0316406 0.95625 0.310156 0.771484 0.177344 0.850391 0.438672 0.759766 0.310156 0.799219 0.507254 0.598772 0.623884 0.598772 0.541295 0.680804 0.176563 0.743359 0.547656 0.717578 0.438281 0.725 0.542411 0.513951 0.622768 0.480469 0.310547 0.685156 0.176172 0.634375 0.176563 0.667188 0.707589 0.515067 0.309766 0.7125 0.741071 0.598772 0.707589 0.679688 0.438672 0.776172 0.548437 0.766797 0.548047 0.766797 0.437891 0.709766 0.548047 0.717578 0.749052 0.0364487 0.772508 0.201495 0.179688 0.394531 0.222656 0.277344 0.222656 0.394531 0.25 0.277344 0.943422 0.140224 0.910398 0.0693971 0.943422 0.0693971 0.910398 0.0339835 0.943422 0.0339835 0.910398 0.0693971 0.943422 0.0693971 0.910398 0.140224 0.171875 0.457031 0.230469 0.421875 0.230469 0.457031 0.261719 0.421875 0.261719 0.457031 0.230469 0.421875 0.230469 0.457031 0.171875 0.421875 0.171875 0.457031 0.230469 0.421875 0.230469 0.457031 0.261719 0.421875 0.261719 0.457031 0.230469 0.421875 0.230469 0.457031 0.171875 0.421875 0.171875 0.457031 0.230469 0.421875 0.230469 0.457031 0.261719 0.421875 0.261719 0.457031 0.230469 0.421875 0.230469 0.457031 0.171875 0.421875 0.179688 0.394531 0.222656 0.277344 0.222656 0.394531 0.25 0.277344 0.179688 0.394531 0.222656 0.277344 0.222656 0.394531 0.25 0.277344 0.891043 0.166996 0.891043 0.104811 0.891043 0.104811 0.891043 0.0426259 0.1875 0.429688 0.203125 0.429688 0.1875 0.429688 0.203125 0.429688 0.1875 0.429688 0.203125 0.429688 0.93471 0.453683 0.797733 0.510154 0.896306 0.736243 0.896306 0.736243 0.815804 0.891648 0.77911 0.908331 0.220961 0.958002 0.0703125 0.485491 0.0703125 0.484933 0.62221 0.714844 0.0320312 0.894531 0.177734 0.821094 0.0320312 0.74375 0.176563 0.743359 0.0320312 0.592969 0.176563 0.667188 0.0324219 0.528906 0.0320312 0.592969 0.0320312 0.74375 0.310156 0.771484 0.438672 0.759766 0.438281 0.725 0.309766 0.7125 0.547656 0.717578 0.548437 0.766797 </float_array>
          <technique_common>
            <accessor count="306" offset="0" source="#rappa-mesh0-tex0-array" stride="2">
              <param name="S" type="float" />
              <param name="T" type="float" />
            </accessor>
          </technique_common>
        </source>
        <vertices id="rappa-mesh0-vertices">
          <input semantic="POSITION" source="#rappa-mesh0-positions" />
          <input semantic="NORMAL" source="#rappa-mesh0-normals" />
          <input semantic="TEXCOORD" source="#rappa-mesh0-tex0" />
        </vertices>
        <polylist count="333" material="theresonlyone">
          <input offset="0" semantic="VERTEX" source="#rappa-mesh0-vertices" />
          <vcount>3 3 3 3 3 3 3 3 3 3 3 3 3 3 3 3 3 3 3 3 3 3 3 3 3 3 3 3 3 3 3 3 3 3 3 3 3 3 3 3 3 3 3 3 3 3 3 3 3 3 3 3 3 3 3 3 3 3 3 3 3 3 3 3 3 3 3 3 3 3 3 3 3 3 3 3 3 3 3 3 3 3 3 3 3 3 3 3 3 3 3 3 3 3 3 3 3 3 3 3 3 3 3 3 3 3 3 3 3 3 3 3 3 3 3 3 3 3 3 3 3 3 3 3 3 3 3 3 3 3 3 3 3 3 3 3 3 3 3 3 3 3 3 3 3 3 3 3 3 3 3 3 3 3 3 3 3 3 3 3 3 3 3 3 3 3 3 3 3 3 3 3 3 3 3 3 3 3 3 3 3 3 3 3 3 3 3 3 3 3 3 3 3 3 3 3 3 3 3 3 3 3 3 3 3 3 3 3 3 3 3 3 3 3 3 3 3 3 3 3 3 3 3 3 3 3 3 3 3 3 3 3 3 3 3 3 3 3 3 3 3 3 3 3 3 3 3 3 3 3 3 3 3 3 3 3 3 3 3 3 3 3 3 3 3 3 3 3 3 3 3 3 3 3 3 3 3 3 3 3 3 3 3 3 3 3 3 3 3 3 3 3 3 3 3 3 3 3 3 3 3 3 3 3 3 3 3 3 3 3 3 3 3 3 3 3 3 3 3 3 3 3 3 3 3 3 3 3 3 3 3 3 3 </vcount>
          <p>0 1 2 0 2 3 4 5 6 7 8 9 10 6 11 12 7 13 12 13 14 7 12 15 7 15 16 9 5 4 9 4 17 18 19 20 18 20 21 22 23 24 25 26 27 28 29 30 28 30 31 32 33 34 35 32 34 35 34 36 37 35 36 37 36 38 31 39 40 31 40 28 41 37 38 42 43 44 42 44 45 46 47 48 49 50 51 45 52 53 45 53 42 54 55 56 57 46 48 58 59 60 58 60 61 62 63 64 65 66 67 61 68 69 61 69 58 70 71 72 73 62 64 74 75 76 74 76 77 78 79 80 81 82 83 77 84 85 77 85 74 86 87 88 89 78 80 90 91 92 90 92 93 94 95 96 97 98 99 93 100 101 93 101 90 102 103 104 105 94 96 106 107 108 106 108 109 110 111 112 113 110 112 113 112 114 115 113 114 115 114 116 109 117 118 109 118 106 119 115 116 120 121 122 120 122 123 124 125 126 127 124 126 127 126 128 129 127 128 129 128 130 123 131 132 123 132 120 133 129 130 134 135 136 137 138 139 140 141 142 143 144 145 146 147 148 149 150 151 152 149 151 152 151 153 154 152 153 155 154 149 156 155 149 156 149 152 157 156 152 158 157 155 159 158 155 159 155 156 160 159 156 161 160 158 162 161 158 162 158 159 163 162 159 164 163 161 165 164 161 165 161 162 166 165 162 167 166 164 168 167 164 168 164 165 169 168 165 170 169 167 171 170 167 171 167 168 172 171 168 173 172 170 174 173 170 174 170 171 175 174 171 176 177 178 179 175 173 180 179 173 180 173 174 180 176 178 176 180 174 181 182 183 184 185 186 187 188 189 190 191 192 193 182 181 185 184 191 185 191 190 194 185 190 195 196 197 198 199 200 201 198 202 203 201 204 205 206 207 208 198 201 209 210 203 211 206 205 212 206 211 213 214 215 216 206 212 217 214 213 218 206 216 219 206 218 220 221 222 223 210 209 209 224 223 4 6 225 6 10 225 7 9 13 9 17 13 13 17 14 17 226 14 14 226 12 226 10 12 12 10 15 10 11 15 15 11 16 11 8 16 16 8 7 32 227 33 227 228 33 227 229 228 229 230 228 229 41 230 41 38 230 46 231 47 231 232 47 49 55 50 55 54 50 231 233 232 233 234 232 233 235 234 235 236 234 235 237 236 237 238 236 237 57 238 57 48 238 62 239 63 239 240 63 65 71 66 71 70 66 239 241 240 241 242 240 241 243 242 243 244 242 243 245 244 245 246 244 245 73 246 73 64 246 78 247 79 247 248 79 81 87 82 87 86 82 247 249 248 249 250 248 249 251 250 251 252 250 251 253 252 253 254 252 253 89 254 89 80 254 94 255 95 255 256 95 97 103 98 103 102 98 255 257 256 257 258 256 257 259 258 259 260 258 259 261 260 261 262 260 261 105 262 105 96 262 110 263 111 263 264 111 263 265 264 265 266 264 265 119 266 119 116 266 124 267 125 267 268 125 267 269 268 269 270 268 269 133 270 133 130 270 135 271 136 271 272 136 136 272 134 138 273 139 273 274 139 139 274 137 142 275 140 275 276 140 140 276 141 145 277 143 277 278 143 143 278 144 148 279 146 279 280 146 146 280 147 149 154 150 154 153 150 155 157 154 157 152 154 158 160 157 160 156 157 161 163 160 163 159 160 164 166 163 166 162 163 167 169 166 169 165 166 170 172 169 172 168 169 173 175 172 175 171 172 176 179 177 179 281 177 179 176 175 176 174 175 179 180 281 180 178 281 191 181 282 181 183 282 282 183 283 183 182 283 283 182 284 182 193 284 284 193 285 193 286 285 285 286 192 286 188 192 192 188 190 188 187 190 190 187 194 187 189 194 194 189 287 189 188 287 287 188 186 188 286 186 186 286 184 286 193 184 184 193 191 193 181 191 191 282 192 282 283 192 192 283 285 283 284 285 197 196 288 196 289 288 207 206 290 206 219 290 198 200 202 200 291 202 202 291 292 291 293 292 292 293 294 293 295 294 294 295 296 295 297 296 296 297 214 297 298 214 214 298 215 298 299 215 215 299 208 299 199 208 208 199 198 201 202 204 202 292 204 204 292 300 292 294 300 300 294 217 294 296 217 217 296 214 203 204 220 204 300 220 220 300 301 300 217 301 301 217 302 217 213 302 302 213 223 213 303 223 223 303 210 303 201 210 210 201 203 220 301 221 301 302 221 221 302 304 302 223 304 209 203 305 203 220 305 213 215 303 215 208 303 303 208 201 </p>
        </polylist>
      </mesh>
    </geometry>
  </library_geometries>
  <library_visual_scenes>
    <visual_scene id="myScene" name="myScene">
      <node id="wg003" name="wg003">
        <matrix>1.94707e-007 0 1 0 0 1 0 0 -1 0 1.94707e-007 0 0 0 0 1</matrix>
        <node id="rappa" name="rappa">
          <matrix>1.94707e-007 -0 -1 -0.138116 0 1 -0 0 1 0 1.94707e-007 -0.1588 0 0 0 1</matrix>
          <instance_geometry url="#rappa-mesh0">
            <bind_material>
              <technique_common>
                <instance_material symbol="theresonlyone" target="#m0rappa" />
              </technique_common>
            </bind_material>
          </instance_geometry>
          <node id="gcol00" name="gcol00">
            <matrix>1.94707e-007 0 1 8.43656 0 1 0 0 -1 0 1.94707e-007 1.58153 0 0 0 1</matrix>
          </node>
          <node id="sp" name="sp">
            <matrix>1.94707e-007 0 1 13.4366 0 1 0 0 -1 0 1.94707e-007 1.58153 0 0 0 1</matrix>
          </node>
        </node>
      </node>
    </visual_scene>
  </library_visual_scenes>
  <scene>
    <instance_visual_scene url="#myScene" />
  </scene>
</COLLADA>