# Blender 5.2.0 Alpha
# www.blender.org
mtllib MainBase.mtl
o MainBase
v -1.490432 1.771902 1.749946
v -1.490432 3.965201 1.749946
v -1.231946 2.630649 1.749946
v -0.758056 3.051885 1.749946
v -0.025680 3.965201 1.749946
v -0.025680 3.251014 1.749946
v 0.706697 3.059544 1.749946
v 1.439072 3.965201 1.749946
v 1.180587 2.634479 1.749946
v 1.439072 1.771902 1.749946
v 1.751170 2.634479 1.749946
v 2.225060 3.059544 1.749946
v 2.957436 3.965201 1.749946
v 2.957436 3.251014 1.749946
v 3.688855 3.051885 1.749946
v 4.421231 3.965201 1.749946
v 4.163702 2.630649 1.749946
v 4.421231 1.771902 1.749946
v 4.679716 2.634479 1.749946
v 5.153607 3.059544 1.749946
v 5.885983 3.965201 1.749946
v 5.885983 3.251014 1.749946
v 6.618359 3.051885 1.749946
v 7.437854 3.965201 1.749946
v 7.437854 3.965201 1.749946
v 7.092250 2.630649 1.749946
v 7.437854 1.771902 1.749946
v 7.437854 1.771902 1.749946
v 7.437854 2.511937 1.264567
v 7.437854 2.837438 0.795464
v 7.437854 3.049013 0.326360
v 7.437854 3.965201 0.025751
v 7.437854 3.965201 0.025751
v 7.437854 3.053800 0.025751
v 7.437854 3.053800 0.025751
v 7.437854 3.049013 -0.273901
v 7.437854 3.965201 -1.697488
v 7.437854 3.965201 -1.697488
v 7.437854 2.837438 -0.743005
v 7.437854 2.511937 -1.212109
v 7.437854 1.771902 -1.697488
v 7.437854 1.771902 -1.697488
v 7.092250 2.630649 -1.697488
v 6.618359 3.051885 -1.697488
v 5.885983 3.965201 -1.697488
v 5.885983 3.251014 -1.697488
v 5.153607 3.059544 -1.697488
v 4.421231 3.965201 -1.697488
v 4.679716 2.634479 -1.697488
v 4.421231 1.771902 -1.697488
v 4.163702 2.630649 -1.697488
v 3.688855 3.051885 -1.697488
v 2.957436 3.965201 -1.697488
v 2.957436 3.251014 -1.697488
v 2.225060 3.059544 -1.697488
v 1.439072 3.965201 -1.697488
v 1.751170 2.634479 -1.697488
v 1.439072 1.771902 -1.697488
v 1.180587 2.634479 -1.697488
v 0.706697 3.059544 -1.697488
v -0.025680 3.965201 -1.697488
v -0.025680 3.251014 -1.697488
v -0.758056 3.051885 -1.697488
v -1.490432 3.965201 -1.697488
v -1.231946 2.630649 -1.697488
v -1.490432 1.771902 -1.697488
v -1.747960 2.634479 -1.697488
v -2.221850 3.059544 -1.697488
v -2.995393 3.965201 -1.697488
v -2.995393 3.251014 -1.697488
v -3.726811 3.051885 -1.697488
v -4.459187 3.965201 -1.697488
v -4.257185 2.630649 -1.697488
v -4.459187 1.771902 -1.697488
v -4.772242 2.634479 -1.697488
v -5.217411 3.023165 -1.697488
v -5.957446 3.965201 -1.697488
v -5.957446 3.251014 -1.697488
v -6.689822 3.051885 -1.697488
v -7.504531 3.965201 -1.697488
v -7.504531 3.965201 -1.697488
v -7.164670 2.630649 -1.697488
v -7.504531 1.771902 -1.697488
v -7.504531 1.771902 -1.697488
v -7.504531 2.511937 -1.212109
v -7.504531 2.837438 -0.743005
v -7.504531 3.049013 -0.273901
v -7.504531 3.965201 0.025751
v -7.504531 3.965201 0.025751
v -7.504531 3.053800 0.025751
v -7.504531 3.053800 0.025751
v -7.504531 3.049013 0.326360
v -7.504531 3.965201 1.749946
v -7.504531 3.965201 1.749946
v -7.504531 2.837438 0.795464
v -7.504531 2.511937 1.264567
v -7.504531 1.771902 1.749946
v -7.504531 1.771902 1.749946
v -7.164670 2.630649 1.749946
v -6.689822 3.051885 1.749946
v -5.957446 3.965201 1.749946
v -5.957446 3.251014 1.749946
v -5.217411 3.023165 1.749946
v -4.459187 3.965201 1.749946
v -4.772242 2.634479 1.749946
v -4.459187 1.771902 1.749946
v -4.257185 2.630649 1.749946
v -3.726811 3.051885 1.749946
v -2.995393 3.965201 1.749946
v -2.995393 3.251014 1.749946
v -2.221850 3.059544 1.749946
v -1.747960 2.634479 1.749946
v 7.801649 3.311328 -2.172335
v 7.801649 3.311328 -2.172335
v -7.882685 3.311328 -2.172335
v -7.882685 3.311328 -2.172335
v 7.801649 3.952755 -2.172335
v 7.801649 3.952755 -2.172335
v -7.882685 3.952755 -2.172335
v -7.882685 3.952755 -2.172335
v -7.882685 3.952755 2.218092
v -7.882685 3.952755 2.218092
v -7.882685 3.311328 2.218092
v -7.882685 3.311328 2.218092
v 7.801649 3.952755 2.218092
v 7.801649 3.952755 2.218092
v 7.801649 3.311328 2.218092
v 7.801649 3.311328 2.218092
v 7.432421 5.551963 1.796400
v 7.432421 5.551963 1.796400
v 7.432421 7.373752 1.796400
v 7.432421 7.373752 1.796400
v 7.432421 5.551963 1.679455
v 7.432421 5.985026 1.497641
v 7.432421 6.288353 1.263751
v 7.432421 7.373752 0.797797
v 7.432421 6.511280 0.797797
v 7.432421 7.373752 0.020293
v 7.432421 6.288353 0.330929
v 7.432421 5.985026 0.097038
v 7.432421 5.868995 0.020293
v 7.432421 5.985026 -0.057366
v 7.432421 6.288353 -0.290343
v 7.432421 6.511280 -0.757211
v 7.432421 7.373752 -0.757211
v 7.432421 6.288353 -1.224079
v 7.432421 7.373752 -1.765865
v 7.432421 7.373752 -1.765865
v 7.432421 5.985026 -1.457056
v 7.432421 5.551963 -1.617856
v 7.432421 5.551963 -1.765865
v 7.432421 5.551963 -1.765865
v 7.382171 5.550136 -1.765865
v 7.230507 6.109281 -1.765865
v 6.934490 6.374235 -1.765865
v 6.597358 7.373752 -1.765865
v 6.597358 6.550567 -1.765865
v 6.259313 6.374235 -1.765865
v 5.901168 7.373752 -1.765865
v 5.963295 6.109281 -1.765865
v 5.901168 5.880872 -1.765865
v 5.839041 6.109281 -1.765865
v 5.543023 6.374235 -1.765865
v 5.205892 7.373752 -1.765865
v 5.205892 6.550567 -1.765865
v 4.868760 6.403471 -1.765865
v 4.432956 7.373752 -1.765865
v 4.571829 6.118417 -1.765865
v 4.416511 5.740172 -1.765865
v 4.322407 5.957617 -1.765865
v 4.104961 6.279217 -1.765865
v 3.808944 6.481130 -1.765865
v 3.621648 7.373752 -1.765865
v 3.621648 6.566099 -1.765865
v 3.469985 6.517676 -1.765865
v 2.932767 7.373752 -1.765865
v 3.146558 6.292007 -1.765865
v 2.932767 6.019744 -1.765865
v 2.734508 6.212522 -1.765865
v 2.486913 6.422657 -1.765865
v 2.238405 7.373752 -1.765865
v 2.238405 6.525898 -1.765865
v 1.952437 6.396163 -1.765865
v 1.451764 7.373752 -1.765865
v 1.666469 6.130294 -1.765865
v 1.451764 5.692663 -1.765865
v 1.213305 6.209781 -1.765865
v 0.902669 6.427226 -1.765865
v 0.663297 7.373752 -1.765865
v 0.663297 6.545999 -1.765865
v 0.454074 6.440017 -1.765865
v -0.052079 7.373752 -1.765865
v -0.052079 7.373752 -1.765865
v 0.189120 6.249981 -1.765865
v -0.021016 6.014262 -1.765865
v -0.021016 6.014262 -1.765865
v -0.292366 6.249981 -1.765865
v -0.557320 6.440017 -1.765865
v -0.766542 7.373752 -1.765865
v -0.766542 6.545999 -1.765865
v -1.005915 6.427226 -1.765865
v -1.555010 7.373752 -1.765865
v -1.280005 6.209781 -1.765865
v -1.521205 5.692663 -1.765865
v -1.769714 6.130294 -1.765865
v -2.055682 6.396163 -1.765865
v -2.341650 7.373752 -1.765865
v -2.341650 6.525898 -1.765865
v -2.590158 6.422657 -1.765865
v -3.036012 7.373752 -1.765865
v -2.837754 6.212522 -1.765865
v -2.978453 6.019744 -1.765865
v -3.249803 6.292007 -1.765865
v -3.573230 6.517676 -1.765865
v -3.724894 7.373752 -1.765865
v -3.724894 6.566099 -1.765865
v -3.912189 6.481130 -1.765865
v -4.536201 7.373752 -1.765865
v -4.191761 6.279217 -1.765865
v -4.400983 5.957617 -1.765865
v -4.469506 5.740172 -1.765865
v -4.675074 6.118417 -1.765865
v -4.972005 6.403471 -1.765865
v -5.309137 7.373752 -1.765865
v -5.309137 6.550567 -1.765865
v -5.646268 6.374235 -1.765865
v -6.004413 7.373752 -1.765865
v -5.883813 6.109281 -1.765865
v -6.004413 5.880872 -1.765865
v -6.066541 6.109281 -1.765865
v -6.362558 6.374235 -1.765865
v -6.700603 7.373752 -1.765865
v -6.700603 6.550567 -1.765865
v -7.037735 6.374235 -1.765865
v -7.535666 7.373752 -1.765865
v -7.535666 7.373752 -1.765865
v -7.296294 6.109281 -1.765865
v -7.485416 5.550136 -1.765865
v -7.535666 5.551963 -1.765865
v -7.535666 5.551963 -1.765865
v -7.535666 5.551963 -1.617856
v -7.535666 5.985026 -1.457056
v -7.535666 6.288353 -1.224079
v -7.535666 7.373752 -0.757211
v -7.535666 6.511280 -0.757211
v -7.535666 7.373752 0.020293
v -7.535666 6.288353 -0.290343
v -7.535666 5.985026 -0.057366
v -7.535666 5.868995 0.020293
v -7.535666 5.985026 0.097038
v -7.535666 6.288353 0.330929
v -7.535666 6.511280 0.797797
v -7.535666 7.373752 0.797797
v -7.535666 6.288353 1.263751
v -7.535666 7.373752 1.796400
v -7.535666 7.373752 1.796400
v -7.535666 5.985026 1.497641
v -7.535666 5.551963 1.679455
v -7.535666 5.551963 1.796400
v -7.535666 5.551963 1.796400
v -7.485416 5.550136 1.796400
v -7.288984 6.109281 1.796400
v -7.037735 6.374235 1.796400
v -6.700603 7.373752 1.796400
v -6.700603 6.550567 1.796400
v -6.362558 6.374235 1.796400
v -6.004413 7.373752 1.796400
v -6.066541 6.109281 1.796400
v -6.004413 5.880872 1.796400
v -5.892950 6.109281 1.796400
v -5.646268 6.374235 1.796400
v -5.309137 7.373752 1.796400
v -5.309137 6.550567 1.796400
v -4.972005 6.403471 1.796400
v -4.536201 7.373752 1.796400
v -4.675074 6.118417 1.796400
v -4.462197 5.740172 1.796400
v -4.398242 5.957617 1.796400
v -4.189933 6.279217 1.796400
v -3.912189 6.481130 1.796400
v -3.724894 7.373752 1.796400
v -3.724894 6.566099 1.796400
v -3.573230 6.517676 1.796400
v -3.036012 7.373752 1.796400
v -3.249803 6.292007 1.796400
v -2.980281 6.019744 1.796400
v -2.837754 6.212522 1.796400
v -2.590158 6.422657 1.796400
v -2.341650 7.373752 1.796400
v -2.341650 6.525898 1.796400
v -2.055682 6.396163 1.796400
v -1.555010 7.373752 1.796400
v -1.769714 6.130294 1.796400
v -1.510242 5.692663 1.796400
v -1.278178 6.209781 1.796400
v -1.005915 6.427226 1.796400
v -0.766542 7.373752 1.796400
v -0.766542 6.545999 1.796400
v -0.557320 6.440017 1.796400
v -0.052079 7.373752 1.796400
v -0.052079 7.373752 1.796400
v -0.292366 6.249981 1.796400
v -0.052079 6.014262 1.796400
v -0.052079 6.014262 1.796400
v 0.189120 6.249981 1.796400
v 0.454074 6.440017 1.796400
v 0.663297 7.373752 1.796400
v 0.663297 6.545999 1.796400
v 0.902669 6.427226 1.796400
v 1.451764 7.373752 1.796400
v 1.213305 6.209781 1.796400
v 1.451764 5.692663 1.796400
v 1.666469 6.130294 1.796400
v 1.952437 6.396163 1.796400
v 2.238405 7.373752 1.796400
v 2.238405 6.525898 1.796400
v 2.486913 6.422657 1.796400
v 2.932767 7.373752 1.796400
v 2.734508 6.212522 1.796400
v 2.932767 6.019744 1.796400
v 3.146558 6.292007 1.796400
v 3.469985 6.517676 1.796400
v 3.621648 7.373752 1.796400
v 3.621648 6.566099 1.796400
v 3.808944 6.481130 1.796400
v 4.432956 7.373752 1.796400
v 4.104961 6.279217 1.796400
v 4.322407 5.957617 1.796400
v 4.416511 5.740172 1.796400
v 4.571829 6.118417 1.796400
v 4.868760 6.403471 1.796400
v 5.205892 7.373752 1.796400
v 5.205892 6.550567 1.796400
v 5.543023 6.374235 1.796400
v 5.901168 7.373752 1.796400
v 5.839041 6.109281 1.796400
v 5.901168 5.880872 1.796400
v 5.963295 6.109281 1.796400
v 6.259313 6.374235 1.796400
v 6.597358 7.373752 1.796400
v 6.597358 6.550567 1.796400
v 6.934490 6.374235 1.796400
v 7.230507 6.109281 1.796400
v 7.382171 5.550136 1.796400
v -4.751983 10.119246 -1.719647
v -5.254472 10.374146 -1.719647
v -4.594841 10.185026 -1.719647
v -2.972260 10.374146 -1.719647
v -4.456885 10.127469 -1.719647
v -4.411204 9.840593 -1.719647
v -1.804659 9.806789 -1.719647
v -1.802832 10.101888 -1.719647
v -1.494943 10.374146 -1.719647
v -1.641122 10.185026 -1.719647
v -1.474843 10.111938 -1.719647
v -0.017626 10.374146 -1.719647
v 1.413096 9.800394 -1.719647
v 1.413096 10.111023 -1.719647
v 1.457863 10.374146 -1.719647
v 1.581201 10.185026 -1.719647
v 1.737429 10.121073 -1.719647
v 2.934266 10.374146 -1.719647
v 4.351284 9.856125 -1.719647
v 4.370471 10.100973 -1.719647
v 4.544971 10.185026 -1.719647
v 5.182675 10.374146 -1.719647
v 4.700285 10.117419 -1.719647
v 7.431996 10.374146 -1.719647
v 7.431996 10.374146 -1.719647
v 7.431996 10.374146 1.759403
v 7.431996 10.374146 1.759403
v 4.700285 10.117419 1.759403
v 5.182675 10.374146 1.759403
v 4.544971 10.185026 1.759403
v 2.934266 10.374146 1.759403
v 4.370471 10.100973 1.759403
v 1.737429 10.121073 1.759403
v 1.457863 10.374146 1.759403
v 1.581201 10.185026 1.759403
v 1.413096 10.111023 1.759403
v -0.017626 10.374146 1.759403
v -1.474843 10.111938 1.759403
v -1.494943 10.374146 1.759403
v -1.641122 10.185026 1.759403
v -1.802832 10.101888 1.759403
v -2.972260 10.374146 1.759403
v -4.456885 10.127469 1.759403
v -4.594841 10.185026 1.759403
v -5.254472 10.374146 1.759403
v -4.751983 10.119246 1.759403
v -7.535770 10.374146 1.759403
v -7.535770 10.374146 1.759403
v -7.535770 10.374146 -1.719647
v -7.535770 10.374146 -1.719647
v -7.535770 10.130210 -0.133610
v -7.535770 10.374146 0.019878
v -7.535770 10.188681 0.035409
v -7.535770 10.110110 0.195292
v -7.535770 9.817753 0.196206
v -7.535770 9.811357 -0.132696
v -7.535770 9.741009 0.035409
v -7.535770 8.102896 -0.322728
v -7.535770 8.102896 0.037237
v -7.535770 8.102896 0.393547
v -7.535770 7.373830 0.393547
v -7.535770 7.373830 1.759403
v -7.535770 7.373830 1.759403
v -6.317007 7.373830 1.759403
v -6.317007 8.102896 1.759403
v -5.607127 8.102896 1.759403
v -4.796750 9.857952 1.759403
v -4.594841 9.730960 1.759403
v -5.607127 7.373830 1.759403
v -4.465107 7.373830 1.759403
v -3.337706 7.373830 1.759403
v -3.337706 8.102896 1.759403
v -4.411204 9.840593 1.759403
v -1.804659 9.806789 1.759403
v -2.633308 8.102896 1.759403
v -1.641122 9.730960 1.759403
v -2.633308 7.373830 1.759403
v -1.494029 7.373830 1.759403
v -0.358405 7.373830 1.759403
v -0.358405 8.102896 1.759403
v -1.462966 9.809530 1.759403
v 0.344166 8.102896 1.759403
v 1.413096 9.800394 1.759403
v 1.581201 9.730960 1.759403
v 0.344166 7.373830 1.759403
v 1.458777 7.373830 1.759403
v 2.574301 7.373830 1.759403
v 2.570647 8.102896 1.759403
v 1.747479 9.798567 1.759403
v 3.285094 8.102896 1.759403
v 4.351284 9.856125 1.759403
v 4.544971 9.730960 1.759403
v 3.285094 7.373830 1.759403
v 4.423460 7.373830 1.759403
v 5.539898 7.373830 1.759403
v 5.539898 8.102896 1.759403
v 4.705768 9.800394 1.759403
v 6.255260 8.102896 1.759403
v 6.255260 7.373830 1.759403
v 7.431996 7.373830 1.759403
v 7.431996 7.373830 1.759403
v 7.431996 7.373830 -1.719647
v 7.431996 7.373830 -1.719647
v 6.251606 7.373830 -1.719647
v 6.251606 8.102896 -1.719647
v 5.539898 8.102896 -1.719647
v 4.705768 9.800394 -1.719647
v 4.544971 9.730960 -1.719647
v 5.539898 7.373830 -1.719647
v 4.423460 7.373830 -1.719647
v 3.286922 7.373830 -1.719647
v 3.286922 8.102896 -1.719647
v 2.570647 8.102896 -1.719647
v 1.747479 9.798567 -1.719647
v 1.581201 9.730960 -1.719647
v 2.574301 7.373830 -1.719647
v 1.458777 7.373830 -1.719647
v 0.344166 7.373830 -1.719647
v 0.344166 8.102896 -1.719647
v -0.367541 8.102896 -1.719647
v -1.462966 9.809530 -1.719647
v -1.641122 9.730960 -1.719647
v -0.367541 7.373830 -1.719647
v -1.494029 7.373830 -1.719647
v -2.637877 7.373830 -1.719647
v -2.637877 8.102896 -1.719647
v -3.337706 8.102896 -1.719647
v -4.594841 9.730960 -1.719647
v -3.337706 7.373830 -1.719647
v -4.465107 7.373830 -1.719647
v -5.601645 7.373830 -1.719647
v -5.601645 8.102896 -1.719647
v -4.796750 9.857952 -1.719647
v -6.317007 8.102896 -1.719647
v -6.317007 7.373830 -1.719647
v -7.535770 7.373830 -1.719647
v -7.535770 7.373830 -1.719647
v -7.535770 7.373830 -0.322728
v -7.552775 7.261955 -1.739324
v 7.462645 7.261955 -1.739324
v -8.208141 7.261955 -2.956433
v -8.208141 7.261955 -2.956433
v -8.208141 7.261955 -2.956433
v 8.464012 10.450251 -2.956433
v 8.464012 10.450251 -2.956433
v 8.464012 10.450251 -2.956433
v 8.464012 10.450251 -2.956433
v 8.464012 7.261955 -2.956433
v 8.464012 7.261955 -2.956433
v 8.464012 7.261955 -2.956433
v 8.464012 7.261955 2.860453
v 8.464012 7.261955 2.860453
v 8.464012 7.261955 2.860453
v 7.462645 7.261955 1.774621
v -8.208141 7.261955 2.860453
v -8.208141 7.261955 2.860453
v -8.208141 7.261955 2.860453
v -7.552775 7.261955 1.774621
v -8.208141 10.450251 -2.956433
v -8.208141 10.450251 -2.956433
v -8.208141 10.450251 -2.956433
v -8.208141 10.450251 -2.956433
v -7.552775 10.425828 -1.739324
v -7.552775 10.425828 -1.739324
v -7.880457 10.516398 -2.347878
v -7.880457 10.516398 -2.347878
v -7.880457 10.516398 -2.347878
v -7.880457 10.516398 -2.347878
v 7.462645 10.425828 -1.739324
v 7.462645 10.425828 -1.739324
v 7.963329 10.516398 -2.347878
v 7.963329 10.516398 -2.347878
v 7.963329 10.516398 -2.347878
v 7.963329 10.516398 -2.347878
v 8.464012 10.450251 2.860453
v 8.464012 10.450251 2.860453
v 8.464012 10.450251 2.860453
v 8.464012 10.450251 2.860453
v -8.208141 10.450251 2.860453
v -8.208141 10.450251 2.860453
v -8.208141 10.450251 2.860453
v -8.208141 10.450251 2.860453
v -7.880457 10.516398 2.317029
v -7.880457 10.516398 2.317029
v -7.880457 10.516398 2.317029
v -7.880457 10.516398 2.317029
v -7.552775 10.425828 1.774621
v -7.552775 10.425828 1.774621
v 7.462645 10.425828 1.774621
v 7.462645 10.425828 1.774621
v 7.963329 10.516398 2.317029
v 7.963329 10.516398 2.317029
v 7.963329 10.516398 2.317029
v 7.963329 10.516398 2.317029
v 3.534471 0.972101 4.900667
v 3.534471 2.197410 4.900667
v 10.901011 3.227845 4.900667
v 10.901011 3.227845 4.900667
v 1.520319 3.227845 4.900667
v 2.357213 2.197410 4.900667
v -2.391861 2.196076 4.900667
v -3.562446 2.196076 4.900667
v -1.550963 3.227845 4.900667
v -10.945002 3.227845 4.900667
v -10.945002 3.227845 4.900667
v -10.945002 -0.020961 -4.845750
v -10.945002 -0.020961 -4.845750
v -10.945002 3.227845 -4.845750
v -10.945002 3.227845 -4.845750
v -10.945002 -0.020961 4.900667
v -10.945002 -0.020961 4.900667
v -3.562446 0.976105 4.900667
v -0.660679 -0.020961 4.900667
v -2.391861 0.976105 4.900667
v -0.660679 1.895754 4.900667
v 0.646051 1.895754 4.900667
v 2.357213 0.972101 4.900667
v 0.646051 -0.020961 4.900667
v 10.901011 -0.020961 4.900667
v 10.901011 -0.020961 4.900667
v 10.901011 -0.020961 -4.837741
v 10.901011 -0.020961 -4.837741
v 10.901011 3.227845 -4.837741
v 10.901011 3.227845 -4.837741
v 0.573974 -0.020961 -4.837741
v 0.573974 1.704884 -4.837741
v 0.480541 2.010544 -4.839077
v 0.274988 2.265483 -4.840411
v -0.023998 3.227845 -4.841746
v -0.023998 2.389616 -4.841746
v -0.322984 2.265483 -4.844415
v -0.527203 2.002535 -4.844415
v -0.621971 1.704884 -4.845750
v -0.621971 -0.020961 -4.845750
v 10.901011 3.323948 0.633439
v 10.901011 3.323948 4.906006
v 10.901011 3.323948 4.906006
v 10.901011 5.043118 0.633439
v 10.901011 6.938478 4.906006
v 10.901011 6.938478 4.906006
v 10.899674 5.339435 0.538672
v 10.899674 5.602383 0.334453
v 10.897004 6.938478 0.035467
v 10.897004 5.726515 0.035467
v 10.895670 5.602383 -0.263520
v 10.893001 6.938478 -4.816385
v 10.893001 6.938478 -4.816385
v 10.894337 5.348778 -0.467738
v 10.893001 5.043118 -0.562505
v 10.893001 3.323948 -0.562505
v 10.893001 3.323948 -4.816385
v 10.893001 3.323948 -4.816385
v -10.966358 6.938478 -4.816385
v -10.966358 6.938478 -4.816385
v -10.966358 3.323948 -4.816385
v -10.966358 3.323948 -4.816385
v -10.966358 6.938478 4.906006
v -10.966358 6.938478 4.906006
v -10.966358 3.323948 4.906006
v -10.966358 3.323948 4.906006
v -2.373795 0.958441 4.893575
v -2.373795 0.958441 4.893575
v -2.373795 2.227876 4.893575
v -2.373795 2.227876 4.893575
v -2.373795 0.958441 4.978088
v -2.373795 0.958441 4.978088
v -2.373795 2.227876 4.978088
v -2.373795 2.227876 4.978088
v -2.521547 2.224978 4.893575
v -2.521547 2.224978 4.893575
v -2.521547 2.224978 4.978088
v -2.521547 2.224978 4.978088
v -2.619553 2.260902 4.893575
v -2.619553 2.260902 4.893575
v -2.619553 2.260902 4.978088
v -2.619553 2.260902 4.978088
v -2.763333 2.294592 4.893575
v -2.763333 2.294592 4.893575
v -2.763333 2.294592 4.978088
v -2.763333 2.294592 4.978088
v -2.960502 2.314541 4.893575
v -2.960502 2.314541 4.893575
v -2.960502 2.314541 4.978088
v -2.960502 2.314541 4.978088
v -3.048326 2.314541 4.893575
v -3.048326 2.314541 4.893575
v -3.048326 2.314541 4.978088
v -3.048326 2.314541 4.978088
v -3.213710 2.294509 4.893575
v -3.213710 2.294509 4.893575
v -3.213710 2.294509 4.978088
v -3.213710 2.294509 4.978088
v -3.365105 2.258751 4.893575
v -3.365105 2.258751 4.893575
v -3.365105 2.258751 4.978088
v -3.365105 2.258751 4.978088
v -3.488440 2.217860 4.893575
v -3.488440 2.217860 4.893575
v -3.488440 2.217860 4.978088
v -3.488440 2.217860 4.978088
v -3.594226 2.218439 4.893575
v -3.594226 2.218439 4.893575
v -3.594226 2.218439 4.978088
v -3.594226 2.218439 4.978088
v -3.594226 0.958441 4.893575
v -3.594226 0.958441 4.893575
v -3.594226 0.958441 4.978088
v -3.594226 0.958441 4.978088
v 3.556197 0.958441 4.893576
v 3.556197 0.958441 4.893576
v 3.556197 2.227876 4.893576
v 3.556197 2.227876 4.893576
v 3.556197 0.958441 4.978089
v 3.556197 0.958441 4.978089
v 3.556197 2.227876 4.978089
v 3.556197 2.227876 4.978089
v 3.408445 2.224979 4.893576
v 3.408445 2.224979 4.893576
v 3.408445 2.224979 4.978089
v 3.408445 2.224979 4.978089
v 3.310439 2.260903 4.893576
v 3.310439 2.260903 4.893576
v 3.310439 2.260903 4.978089
v 3.310439 2.260903 4.978089
v 3.166742 2.294593 4.893576
v 3.166742 2.294593 4.893576
v 3.166742 2.294593 4.978089
v 3.166742 2.294593 4.978089
v 2.969490 2.314541 4.893576
v 2.969490 2.314541 4.893576
v 2.969490 2.314541 4.978089
v 2.969490 2.314541 4.978089
v 2.881665 2.314541 4.893576
v 2.881665 2.314541 4.893576
v 2.881665 2.314541 4.978089
v 2.881665 2.314541 4.978089
v 2.716281 2.294510 4.893576
v 2.716281 2.294510 4.893576
v 2.716281 2.294510 4.978089
v 2.716281 2.294510 4.978089
v 2.564886 2.258751 4.893576
v 2.564886 2.258751 4.893576
v 2.564886 2.258751 4.978089
v 2.564886 2.258751 4.978089
v 2.441469 2.217860 4.893576
v 2.441469 2.217860 4.893576
v 2.441469 2.217860 4.978089
v 2.441469 2.217860 4.978089
v 2.335766 2.218440 4.893576
v 2.335766 2.218440 4.893576
v 2.335766 2.218440 4.978089
v 2.335766 2.218440 4.978089
v 2.335766 0.958441 4.893576
v 2.335766 0.958441 4.893576
v 2.335766 0.958441 4.978089
v 2.335766 0.958441 4.978089
v 10.900768 3.359740 0.647106
v 10.900768 3.359740 4.911373
v 10.900768 3.359740 4.911373
v 10.900768 3.323692 0.648441
v 10.900768 3.323692 0.648441
v 10.900768 3.323692 4.911373
v 10.900768 3.323692 4.911373
v 10.900768 3.323692 4.911373
v 10.900768 3.323692 4.911373
v -10.970613 3.359740 4.911373
v -10.970613 3.359740 4.911373
v 10.900768 3.359740 -4.824078
v 10.900768 3.359740 -4.824078
v 10.900768 3.359740 -0.571828
v 10.900768 3.323692 -4.824078
v 10.900768 3.323692 -4.824078
v 10.900768 3.323692 -4.824078
v 10.900768 3.323692 -4.824078
v 10.900768 3.323692 -0.571828
v 10.900768 3.323692 -0.571828
v 10.864721 3.323692 -4.788031
v 10.864721 3.323692 -4.788031
v 10.864721 3.323692 -4.788031
v 10.864721 3.323692 -4.788031
v 10.864721 3.323692 -0.571828
v 10.864721 3.323692 -0.571828
v 10.864721 3.359740 -4.788031
v 10.864721 3.359740 -4.788031
v 10.864721 3.359740 -4.788031
v 10.864721 3.359740 -4.788031
v 10.864721 3.359740 -0.571828
v 10.864721 3.359740 -0.571828
v 10.900768 3.395787 -0.571828
v 10.900768 3.395787 -0.571828
v 10.900768 3.395787 -4.824078
v 10.900768 3.395787 -4.824078
v 10.900768 3.395787 -4.824078
v 10.900768 3.395787 -4.824078
v -10.971948 3.395787 -4.824078
v -10.971948 3.395787 -4.824078
v -10.971948 3.395787 -4.824078
v -10.971948 3.395787 -4.824078
v -10.971948 3.359740 -4.824078
v -10.971948 3.359740 -4.824078
v -10.970613 3.395787 4.911373
v -10.970613 3.395787 4.911373
v -10.970613 3.395787 4.911373
v -10.970613 3.395787 4.911373
v 10.900768 3.395787 4.911373
v 10.900768 3.395787 4.911373
v 10.900768 3.395787 4.911373
v 10.900768 3.395787 4.911373
v 10.900768 3.395787 0.645771
v 10.900768 3.395787 0.645771
v 10.864721 3.359740 4.875325
v 10.864721 3.359740 4.875325
v 10.864721 3.359740 4.875325
v 10.864721 3.359740 4.875325
v 10.864721 3.359740 0.647106
v 10.864721 3.359740 0.647106
v 10.864721 3.323692 0.648441
v 10.864721 3.323692 0.648441
v 10.864721 3.323692 4.875325
v 10.864721 3.323692 4.875325
v 10.864721 3.323692 4.875325
v 10.864721 3.323692 4.875325
v -10.970613 3.323692 4.911373
v -10.970613 3.323692 4.911373
v -10.970613 3.323692 4.911373
v -10.970613 3.323692 4.911373
v -10.971948 3.323692 -4.824078
v -10.971948 3.323692 -4.824078
v -10.971948 3.323692 -4.824078
v -10.971948 3.323692 -4.824078
v -10.935901 3.323692 -4.786696
v -10.935901 3.323692 -4.786696
v -10.935901 3.323692 -4.786696
v -10.935901 3.323692 -4.786696
v -10.935901 3.359740 -4.786696
v -10.935901 3.359740 -4.786696
v -10.935901 3.359740 -4.786696
v -10.935901 3.359740 -4.786696
v -10.934566 3.359740 4.875325
v -10.934566 3.359740 4.875325
v -10.934566 3.359740 4.875325
v -10.934566 3.359740 4.875325
v -10.934566 3.323692 4.875325
v -10.934566 3.323692 4.875325
v -10.934566 3.323692 4.875325
v -10.934566 3.323692 4.875325
v 0.579973 0.008968 -4.841750
v 10.900768 0.008968 -4.837749
v 10.900768 0.008968 -4.837749
v 0.579973 -0.027035 -4.841750
v 0.579973 -0.027035 -4.841750
v 0.579973 -0.027035 -4.805747
v 0.579973 -0.027035 -4.805747
v 10.900768 -0.027035 -4.837749
v 10.900768 -0.027035 -4.837749
v 10.900768 -0.027035 -4.837749
v 10.900768 -0.027035 -4.837749
v 10.900768 0.008968 4.900338
v 10.900768 0.008968 4.900338
v 10.900768 0.044970 -4.837749
v 10.900768 0.044970 -4.837749
v 10.900768 0.044970 -4.837749
v 10.900768 0.044970 -4.837749
v 0.579973 0.044970 -4.841750
v 0.579973 0.044970 -4.841750
v 10.864766 0.008968 -4.801747
v 10.864766 0.008968 -4.801747
v 10.864766 0.008968 -4.801747
v 10.864766 0.008968 -4.801747
v 0.579973 0.008968 -4.805747
v 0.579973 0.008968 -4.805747
v 10.864766 -0.027035 -4.801747
v 10.864766 -0.027035 -4.801747
v 10.864766 -0.027035 -4.801747
v 10.864766 -0.027035 -4.801747
v 10.900768 -0.027035 4.900338
v 10.900768 -0.027035 4.900338
v 10.900768 -0.027035 4.900338
v 10.900768 -0.027035 4.900338
v -10.944917 0.008968 4.900338
v -10.944917 0.008968 4.900338
v -0.625454 0.008968 -4.805747
v -0.625454 0.008968 -4.805747
v -0.626787 0.044970 -4.841750
v -0.626787 0.044970 -4.841750
v -10.944917 0.044970 -4.845750
v -10.944917 0.044970 -4.845750
v -10.944917 0.044970 -4.845750
v -10.944917 0.044970 -4.845750
v -0.626787 0.008968 -4.841750
v -10.944917 0.008968 -4.845750
v -10.944917 0.008968 -4.845750
v -10.944917 0.044970 4.900338
v -10.944917 0.044970 4.900338
v -10.944917 0.044970 4.900338
v -10.944917 0.044970 4.900338
v 10.900768 0.044970 4.900338
v 10.900768 0.044970 4.900338
v 10.900768 0.044970 4.900338
v 10.900768 0.044970 4.900338
v 10.864766 0.008968 4.864335
v 10.864766 0.008968 4.864335
v 10.864766 0.008968 4.864335
v 10.864766 0.008968 4.864335
v 10.864766 -0.027035 4.864335
v 10.864766 -0.027035 4.864335
v 10.864766 -0.027035 4.864335
v 10.864766 -0.027035 4.864335
v -10.944917 -0.027035 4.900338
v -10.944917 -0.027035 4.900338
v -10.944917 -0.027035 4.900338
v -10.944917 -0.027035 4.900338
v -10.944917 -0.027035 -4.845750
v -10.944917 -0.027035 -4.845750
v -10.944917 -0.027035 -4.845750
v -10.944917 -0.027035 -4.845750
v -0.626787 -0.027035 -4.841750
v -0.626787 -0.027035 -4.841750
v -10.908914 -0.027035 -4.809747
v -10.908914 -0.027035 -4.809747
v -10.908914 -0.027035 -4.809747
v -10.908914 -0.027035 -4.809747
v -0.625454 -0.027035 -4.805747
v -0.625454 -0.027035 -4.805747
v -10.908914 0.008968 -4.809747
v -10.908914 0.008968 -4.809747
v -10.908914 0.008968 -4.809747
v -10.908914 0.008968 -4.809747
v -10.908914 0.008968 4.864335
v -10.908914 0.008968 4.864335
v -10.908914 0.008968 4.864335
v -10.908914 0.008968 4.864335
v -10.908914 -0.027035 4.864335
v -10.908914 -0.027035 4.864335
v -10.908914 -0.027035 4.864335
v -10.908914 -0.027035 4.864335
v 8.432466 7.293502 2.827888
v 8.432466 7.293502 2.827888
v 8.432466 7.293502 2.827888
v 8.432466 7.293502 2.827888
v 8.431448 10.419722 -2.923868
v 8.431448 10.419722 -2.923868
v 8.431448 10.419722 -2.923868
v 8.431448 10.419722 -2.923868
v 8.432466 7.293502 -2.924886
v 8.432466 7.293502 -2.924886
v 8.432466 7.293502 -2.924886
v 8.432466 7.293502 -2.924886
v -8.175577 10.419722 -2.923868
v -8.175577 10.419722 -2.923868
v -8.175577 10.419722 -2.923868
v -8.175577 10.419722 -2.923868
v -8.176595 7.293502 -2.924886
v -8.176595 7.293502 -2.924886
v -8.176595 7.293502 -2.924886
v -8.176595 7.293502 -2.924886
v -8.176595 7.293502 2.827888
v -8.176595 7.293502 2.827888
v -8.176595 7.293502 2.827888
v -8.176595 7.293502 2.827888
v -7.552775 7.316908 -1.739324
v -7.552775 7.316908 -1.739324
v -7.552775 7.316908 -1.739324
v -7.552775 7.316908 -1.739324
v -7.552775 7.316908 1.774621
v -7.552775 7.316908 1.774621
v -7.552775 7.316908 1.774621
v -7.552775 7.316908 1.774621
v 7.462645 7.316908 1.774621
v 7.462645 7.316908 1.774621
v 7.462645 7.316908 1.774621
v 7.462645 7.316908 1.774621
v 7.462645 7.316908 -1.739324
v 7.462645 7.316908 -1.739324
v 7.462645 7.316908 -1.739324
v 7.462645 7.316908 -1.739324
v 7.462645 7.261955 -1.739324
v 7.462645 7.261955 -1.739324
v 7.462645 7.261955 -1.739324
v -7.552775 7.261955 -1.739324
v -7.552775 7.261955 -1.739324
v -7.552775 7.261955 -1.739324
v -7.552775 7.261955 1.774621
v -7.552775 7.261955 1.774621
v -7.552775 7.261955 1.774621
v 7.462645 7.261955 1.774621
v 7.462645 7.261955 1.774621
v 7.462645 7.261955 1.774621
v 8.464012 7.261955 2.860453
v 8.464012 7.261955 2.860453
v 8.464012 7.261955 2.860453
v 8.464012 7.261955 -2.956433
v 8.464012 7.261955 -2.956433
v 8.464012 7.261955 -2.956433
v -8.208141 7.261955 -2.956433
v -8.208141 7.261955 -2.956433
v -8.208141 7.261955 -2.956433
v -8.208141 7.261955 2.860453
v -8.208141 7.261955 2.860453
v -8.208141 7.261955 2.860453
v -8.208141 10.530645 2.860453
v -8.208141 10.530645 2.860453
v -8.208141 10.530645 2.860453
v -8.208141 10.530645 2.860453
v 8.464012 10.646658 2.860453
v 8.464012 10.646658 2.860453
v 8.464012 10.646658 2.860453
v 8.464012 10.646658 2.860453
v 8.464012 10.646658 -2.956433
v 8.464012 10.646658 -2.956433
v 8.464012 10.646658 -2.956433
v 8.464012 10.646658 -2.956433
v -8.208141 10.530645 -2.956433
v -8.208141 10.530645 -2.956433
v -8.208141 10.530645 -2.956433
v -8.208141 10.530645 -2.956433
v -7.880457 10.516398 -2.347878
v -7.880457 10.516398 -2.347878
v -7.880457 10.516398 -2.347878
v -7.880457 10.516398 -2.347878
v -7.874352 10.461447 -2.344825
v -7.874352 10.461447 -2.344825
v -7.874352 10.461447 -2.344825
v -7.874352 10.461447 -2.344825
v -7.880457 10.516398 2.317029
v -7.880457 10.516398 2.317029
v -7.880457 10.516398 2.317029
v -7.880457 10.516398 2.317029
v 7.963329 10.516398 2.317029
v 7.963329 10.516398 2.317029
v 7.963329 10.516398 2.317029
v 7.963329 10.516398 2.317029
v 7.963329 10.516398 -2.347878
v 7.963329 10.516398 -2.347878
v 7.963329 10.516398 -2.347878
v 7.963329 10.516398 -2.347878
v 7.959259 10.460427 -2.344825
v 7.959259 10.460427 -2.344825
v 7.959259 10.460427 -2.344825
v 7.959259 10.460427 -2.344825
v 8.431448 10.419722 2.827888
v 8.431448 10.419722 2.827888
v 8.431448 10.419722 2.827888
v 8.431448 10.419722 2.827888
v -8.175577 10.419722 2.826871
v -8.175577 10.419722 2.826871
v -8.175577 10.419722 2.826871
v -8.175577 10.419722 2.826871
v -7.874352 10.461447 2.313975
v -7.874352 10.461447 2.313975
v -7.874352 10.461447 2.313975
v -7.874352 10.461447 2.313975
v 7.959259 10.461447 2.313975
v 7.959259 10.461447 2.313975
v 7.959259 10.461447 2.313975
v 7.959259 10.461447 2.313975
v -14.339687 -0.919781 8.512499
v -14.339687 -0.919781 8.512499
v -14.339687 -0.919781 8.512499
v 14.343850 -0.919781 8.512499
v 14.343850 -0.919781 8.512499
v 14.343850 -0.919781 8.512499
v -14.339687 -0.919781 -8.690570
v -14.339687 -0.919781 -8.690570
v -14.339687 -0.919781 -8.690570
v 14.343850 -0.919781 -8.690570
v 14.343850 -0.919781 -8.690570
v 14.343850 -0.919781 -8.690570
v 14.343850 10.777740 -8.690570
v 14.343850 10.777740 -8.690570
v 14.343850 10.777740 -8.690570
v 14.343850 10.777740 8.512499
v 14.343850 10.777740 8.512499
v 14.343850 10.777740 8.512499
v -14.339687 10.777740 8.512499
v -14.339687 10.777740 8.512499
v -14.339687 10.777740 8.512499
v -14.339687 10.777740 -8.690570
v -14.339687 10.777740 -8.690570
v -14.339687 10.777740 -8.690570
v -14.339687 10.777740 -8.690570
v -14.452622 10.680688 -8.803504
v -14.452622 10.680688 -8.803504
v -14.452622 10.680688 -8.803504
v -14.452622 10.680688 -8.803504
v 14.456785 10.680688 -8.803504
v 14.456785 10.680688 -8.803504
v 14.456785 10.680688 -8.803504
v 14.456785 10.680688 8.627198
v 14.456785 10.680688 8.627198
v 14.456785 10.680688 8.627198
v -14.452622 10.680688 8.627198
v -14.452622 10.680688 8.627198
v -14.452622 10.680688 8.627198
v -14.431447 -1.011540 8.606022
v -14.431447 -1.011540 8.606022
v -14.431447 -1.011540 8.606022
v -14.431447 -1.011540 -8.782330
v -14.431447 -1.011540 -8.782330
v -14.431447 -1.011540 -8.782330
v 14.435610 -1.011540 -8.782330
v 14.435610 -1.011540 -8.782330
v 14.435610 -1.011540 -8.782330
v 14.435610 -1.011540 8.606022
v 14.435610 -1.011540 8.606022
v 14.435610 -1.011540 8.606022
v -11.552505 10.167976 5.706504
v -11.552505 10.167976 5.706504
v -11.552505 10.167976 -5.951422
v -11.552505 10.167976 -5.951422
v -11.552505 -0.927833 -5.951422
v -11.552505 -0.927833 -5.951422
v -11.552505 -0.927833 -5.951422
v 11.528070 -0.927833 -5.951422
v 11.528070 -0.927833 -5.951422
v 11.528070 -0.927833 -5.951422
v 11.528070 10.167976 -5.951422
v 11.528070 10.167976 -5.951422
v 11.528070 -0.927833 5.706504
v 11.528070 -0.927833 5.706504
v 11.528070 -0.927833 5.706504
v 11.528070 10.167976 5.706504
v 11.528070 10.167976 5.706504
v -11.552505 -0.927833 5.706504
v -11.552505 -0.927833 5.706504
v -11.552505 -0.927833 5.706504
vn -0.0000 -0.0000 -1.0000
vn -1.0000 -0.0000 -0.0000
vn -0.0000 -0.0000 1.0000
vn 1.0000 -0.0000 -0.0000
vn -0.0000 1.0000 -0.0000
vn -0.0000 -0.9891 -0.1472
vn -0.0000 -0.9941 0.1081
vn -0.1319 -0.9913 -0.0000
vn -0.1318 -0.9913 -0.0000
vn 0.1979 -0.9802 -0.0000
vn 0.1983 -0.9801 -0.0000
vn -0.2673 -0.9636 -0.0000
vn -0.2675 -0.9636 -0.0000
vn -0.0000 -0.9863 0.1647
vn 0.1772 -0.9842 -0.0000
vn -0.0000 -0.9928 -0.1197
vn -0.0000 -0.9928 -0.1198
vn -0.0003 0.0021 1.0000
vn -0.0000 -0.0001 1.0000
vn -0.0001 0.0040 1.0000
vn -0.0020 0.0020 1.0000
vn -0.0019 -0.0001 1.0000
vn -0.0058 -0.0000 1.0000
vn -0.0020 -0.0019 1.0000
vn -0.0000 0.0001 1.0000
vn -0.0000 -0.0039 1.0000
vn -0.0003 -0.0022 1.0000
vn -1.0000 -0.0020 -0.0000
vn -1.0000 -0.0019 0.0019
vn -1.0000 -0.0019 0.0020
vn -1.0000 -0.0000 0.0019
vn -1.0000 -0.0000 0.0060
vn -1.0000 0.0019 0.0020
vn -1.0000 0.0020 0.0020
vn -1.0000 0.0020 -0.0001
vn -0.0196 0.9998 -0.0000
vn -0.0201 0.9998 -0.0000
vn 0.3442 0.9389 -0.0000
vn 0.3438 0.9390 -0.0000
vn 0.2281 0.9736 -0.0000
vn 0.1007 0.9949 -0.0000
vn -0.1198 0.9928 -0.0000
vn -0.1197 0.9928 -0.0000
vn -0.2309 0.9730 -0.0000
vn -0.3142 0.9493 -0.0000
vn -0.3140 0.9494 -0.0000
vn -0.3142 0.9494 -0.0000
vn -0.3141 0.9494 -0.0000
vn 0.0055 1.0000 -0.0000
vn 0.0058 1.0000 -0.0000
vn -0.0000 -1.0000 -0.0000
vn -0.0199 0.9998 -0.0000
vn 0.2283 0.9736 -0.0000
vn 0.1010 0.9949 -0.0000
vn 0.1011 0.9949 -0.0000
vn -0.1196 0.9928 -0.0000
vn -0.3145 0.9493 -0.0000
vn 0.0060 1.0000 -0.0000
vn -0.7029 0.7113 -0.0000
vn -0.4050 0.8197 0.4050
vn -0.4051 0.8197 0.4051
vn -1.0000 -0.0000 0.0001
vn -0.4051 0.8197 -0.4051
vn -0.7030 0.7112 -0.0000
vn -0.4050 0.8197 -0.4051
vn 0.0001 -0.0000 1.0000
vn 0.4050 0.8197 0.4051
vn 0.4050 0.8197 0.4050
vn 0.4051 0.8197 -0.4050
vn 0.4051 0.8197 0.4050
vn 0.4051 0.8197 -0.4051
vn -0.4051 0.8197 -0.4050
vn -0.4050 0.8197 -0.4050
vn 1.0000 -0.0000 -0.0001
vn 0.0001 -0.0000 -1.0000
vn -0.4050 0.8197 0.4051
vn -0.0000 0.7113 0.7029
vn -0.0001 -0.0000 1.0000
vn 0.4051 0.8197 0.4051
vn 0.0004 -0.0000 -1.0000
vn -0.0001 -0.0000 -1.0000
vn 0.4050 0.8197 -0.4050
vn -1.0000 -0.0003 -0.0000
vn 1.0000 -0.0003 -0.0000
vn -0.0365 0.9993 -0.0000
vn -0.0366 0.9993 -0.0000
vn -0.0000 0.9998 0.0222
vn 0.0241 0.9997 -0.0000
vn -0.0000 0.9998 -0.0201
vn -0.0000 0.9998 -0.0197
vn 0.0471 0.9989 -0.0000
vn 0.9936 0.1126 -0.0000
vn 0.9939 0.1104 -0.0000
vn -0.0044 0.9912 -0.1324
vn -0.0044 0.9912 -0.1325
vn -0.2503 0.9682 -0.0000
vn -0.2504 0.9681 -0.0000
vn -0.0044 0.9930 0.1179
vn -0.0044 0.9930 0.1178
vn -0.0000 0.0514 0.9987
vn -0.0000 0.0471 0.9989
vn -0.0000 -0.9975 0.0710
vn -0.0000 -0.9975 0.0712
vn -0.0000 -0.9975 0.0711
vn -0.0869 -0.9962 -0.0000
vn -0.0868 -0.9962 -0.0000
vn -1.0000 0.0002 -0.0000
vn 0.1372 -0.9905 -0.0000
vn 0.1367 -0.9906 -0.0000
vn -0.0000 0.0555 -0.9985
vn -0.0000 0.0601 -0.9982
vn -0.9978 0.0666 -0.0000
vn -0.9976 0.0689 -0.0000
vn -0.0870 -0.9962 -0.0000
vn -0.0000 -0.9968 -0.0804
vn -0.0000 -0.9968 -0.0802
vn -0.3674 0.8531 -0.3705
vn 0.3674 0.8531 -0.3705
vn 0.3674 0.8531 0.3705
vn -0.3674 0.8531 0.3705
vn -1.0000 -0.0018 -0.0000
vn -0.0000 -0.0018 -1.0000
vn 1.0000 -0.0018 -0.0000
vn -0.0000 -0.0018 1.0000
vt 5.178244 -0.555014
vt 5.178244 0.797200
vt 5.022593 -0.024829
vt 4.730749 0.232967
vt 4.278390 0.797200
vt 4.278390 0.354569
vt 3.826030 0.237831
vt 3.373671 0.797200
vt 3.529322 -0.024829
vt 3.373671 -0.555014
vt 3.179108 -0.024829
vt 2.887263 0.237831
vt 2.434904 0.797200
vt 2.434904 0.354569
vt 1.982545 0.232967
vt 1.530186 0.797200
vt 1.690700 -0.024829
vt 1.530186 -0.555014
vt 1.369671 -0.024829
vt 1.077826 0.237831
vt 0.625467 0.797200
vt 0.625467 0.354569
vt 0.173108 0.232967
vt -0.274387 0.797200
vt -0.118737 -0.024829
vt -0.279251 -0.555014
vt 8.831167 -0.555014
vt 8.831167 0.797200
vt 9.127875 -0.097790
vt 9.419721 0.101637
vt 9.706700 0.232967
vt 9.891536 0.797200
vt 9.891536 0.232967
vt 5.338759 -0.024829
vt 5.630603 0.237831
vt 6.107283 0.797200
vt 6.107283 0.354569
vt 6.559642 0.232967
vt 7.012002 0.797200
vt 6.890400 -0.024829
vt 7.012002 -0.555014
vt 7.206565 -0.024829
vt 7.483817 0.213511
vt 7.936176 0.797200
vt 7.941040 0.354569
vt 8.388535 0.232967
vt 8.855487 0.797200
vt 8.685245 -0.024829
vt 8.860352 -0.555014
vt 16.453176 0.359433
vt 8.646332 0.359433
vt 16.453176 0.680462
vt 8.646332 0.680462
vt 6.496409 0.680462
vt 6.496409 0.359433
vt -1.315300 0.680462
vt -1.315300 0.359433
vt 18.603100 0.359433
vt 18.603100 0.680462
vt 22.723301 -0.443861
vt 22.723301 0.681400
vt 22.673166 -0.443861
vt 22.561754 -0.176472
vt 22.416920 0.007358
vt 22.127247 0.681400
vt 22.127247 0.146622
vt 21.648176 0.681400
vt 21.837576 0.007358
vt 21.692741 -0.176472
vt 21.648176 -0.248890
vt 21.598042 -0.176472
vt 21.453205 0.007358
vt 21.169106 0.146622
vt 21.169106 0.681400
vt 20.879433 0.007358
vt 20.573051 0.681400
vt 20.734598 -0.176472
vt 20.634327 -0.443861
vt 20.573051 -0.443861
vt 20.539627 -0.443861
vt 20.444927 -0.098484
vt 20.266668 0.063064
vt 20.054985 0.681400
vt 20.054985 0.174475
vt 19.848873 0.063064
vt 19.626049 0.681400
vt 19.665043 -0.098484
vt 19.626049 -0.243319
vt 19.587055 -0.098484
vt 19.403225 0.063064
vt 19.197113 0.681400
vt 19.197113 0.174475
vt 18.985430 0.079775
vt 18.718040 0.681400
vt 18.801600 -0.092913
vt 18.706900 -0.326878
vt 18.651194 -0.193184
vt 18.517500 0.007358
vt 18.333670 0.129911
vt 18.216688 0.681400
vt 18.216688 0.180046
vt 18.121986 0.152193
vt 17.787750 0.681400
vt 17.921446 0.012928
vt 17.787750 -0.154190
vt 17.665197 -0.037207
vt 17.514791 0.090917
vt 17.358814 0.681400
vt 17.358814 0.157764
vt 17.186127 0.079775
vt 16.874172 0.681400
vt 17.007868 -0.087343
vt 16.874172 -0.360302
vt 16.729338 -0.037207
vt 16.534367 0.096487
vt 16.389530 0.681400
vt 16.389530 0.168905
vt 16.255836 0.102058
vt 15.955026 0.681400
vt 16.094290 -0.014925
vt 15.971736 -0.154190
vt 15.938313 -0.154190
vt 16.701485 -0.037207
vt 16.851891 -0.360302
vt 17.754328 -0.154190
vt 18.506359 0.007358
vt 18.634481 -0.193184
vt 18.673477 -0.326878
vt 19.548059 -0.098484
vt 20.422644 -0.098484
vt -0.088300 -0.443861
vt -0.088300 0.681400
vt -0.054876 -0.443861
vt 0.062106 -0.098484
vt 0.218083 0.063064
vt 0.429766 0.681400
vt 0.429766 0.174475
vt 0.635878 0.063064
vt 0.858702 0.681400
vt 0.819708 -0.098484
vt 0.858702 -0.243319
vt 0.925549 -0.098484
vt 1.081526 0.063064
vt 1.287638 0.681400
vt 1.287638 0.174475
vt 1.499321 0.079775
vt 1.766709 0.681400
vt 1.677580 -0.092913
vt 1.811274 -0.326878
vt 1.850268 -0.193184
vt 1.978392 0.007358
vt 2.151081 0.129911
vt 2.268063 0.681400
vt 2.268063 0.180046
vt 2.362763 0.152193
vt 2.691429 0.681400
vt 2.563305 0.012928
vt 2.730423 -0.154190
vt 2.813982 -0.037207
vt 2.969959 0.090917
vt 3.120365 0.681400
vt 3.120365 0.157764
vt 3.298624 0.079775
vt 3.610578 0.681400
vt 3.476883 -0.087343
vt 3.638431 -0.360302
vt 3.783266 -0.037207
vt 3.950384 0.096487
vt 4.095220 0.681400
vt 4.095220 0.168905
vt 4.228914 0.102058
vt 4.529726 0.681400
vt 4.390461 -0.014925
vt 4.529726 -0.154190
vt 3.755413 -0.037207
vt 3.610578 -0.360302
vt 2.691429 -0.154190
vt 1.967251 0.007358
vt 1.833557 -0.193184
vt 1.777851 -0.326878
vt 0.897696 -0.098484
vt 0.034253 -0.098484
vt 2.023059 1.841400
vt 3.731186 1.683727
vt 3.422409 1.841400
vt 3.826447 1.726430
vt 4.821759 1.841400
vt 3.911853 1.690296
vt 3.938132 1.512914
vt 5.537858 1.493205
vt 5.541143 1.673872
vt 5.728380 1.841400
vt 5.639689 1.726430
vt 5.741519 1.680442
vt 6.635001 1.841400
vt 7.512059 1.489920
vt 7.512059 1.680442
vt 7.541623 1.841400
vt 7.613889 1.726430
vt 7.712435 1.687012
vt 8.444960 1.841400
vt 9.315447 1.522769
vt 9.325301 1.673872
vt 9.433702 1.726430
vt 9.824600 1.841400
vt 9.528963 1.683727
vt 11.204241 1.841400
vt 1.047455 1.496490
vt 1.050740 1.690296
vt 0.955479 1.841400
vt 0.945625 1.729715
vt 0.847079 1.680442
vt -0.112100 1.841400
vt 0.847079 1.499775
vt 0.945625 1.453787
vt 1.165710 0.448620
vt 0.945625 0.448620
vt 0.722254 0.448620
vt 0.722254 0.001879
vt -0.112100 0.001879
vt 2.768722 0.001879
vt 2.023059 0.001879
vt 2.768722 0.448620
vt 3.205608 0.448620
vt 3.701622 1.526054
vt 3.826447 1.447217
vt 3.205608 0.001879
vt 3.905283 0.001879
vt 4.598388 0.001879
vt 4.598388 0.448620
vt 5.028705 0.448620
vt 5.639689 1.447217
vt 5.028705 0.001879
vt 5.728380 0.001879
vt 6.424770 0.001879
vt 6.424770 0.448620
vt 5.748089 1.496490
vt 6.855087 0.448620
vt 7.613889 1.447217
vt 6.855087 0.001879
vt 7.541623 0.001879
vt 8.224874 0.001879
vt 8.221589 0.448620
vt 7.719005 1.489920
vt 8.661760 0.448620
vt 9.433702 1.447217
vt 8.661760 0.001879
vt 9.358150 0.001879
vt 10.044685 0.001879
vt 10.044685 0.448620
vt 9.532248 1.489920
vt 10.481572 0.448620
vt 10.481572 0.001879
vt 11.204241 0.001879
vt 13.339400 0.001879
vt 13.339400 1.841400
vt 6.418200 0.448620
vt 6.418200 0.001879
vt 3.208893 0.001879
vt 3.208893 0.448620
vt 1.165710 0.001879
vt 0.977006 0.321399
vt 4.948205 0.321399
vt 0.803643 -0.000352
vt 5.212657 3.879758
vt 0.803643 4.683400
vt 5.212657 4.683400
vt 5.212657 -0.000352
vt 5.212657 1.537882
vt 4.948205 1.251391
vt 0.803643 1.537882
vt 0.977006 1.251391
vt 0.000000 2.341524
vt 0.000000 3.879758
vt 0.803643 3.879758
vt 0.977006 3.558007
vt 0.890324 3.719617
vt 4.948205 3.558007
vt 5.080431 3.719617
vt 5.212657 2.341524
vt 6.016300 3.879758
vt 6.016300 2.341524
vt 0.803643 2.341524
vt 0.890324 2.485504
vt 0.977006 2.629484
vt 4.948205 2.629484
vt 5.080431 2.485504
vt 18.315407 1.456071
vt 18.315407 2.029107
vt 14.848173 2.515100
vt 19.258377 2.515100
vt 18.866682 2.029107
vt 21.100800 2.029107
vt 21.652075 2.029107
vt 20.701849 2.515100
vt 25.119308 2.515100
vt 29.703600 0.984585
vt 29.703600 2.515100
vt 25.119308 0.984585
vt 21.652075 1.456071
vt 20.288393 0.984585
vt 21.100800 1.456071
vt 20.288393 1.891288
vt 19.671835 1.891288
vt 18.866682 1.456071
vt 19.671835 0.984585
vt 14.848173 0.984585
vt 10.271135 0.984585
vt 10.271135 2.515100
vt 5.418459 0.984585
vt 5.418459 1.796991
vt 5.374937 1.942064
vt 5.273386 2.065375
vt 5.135568 2.515100
vt 5.135568 2.123404
vt 4.997748 2.065375
vt 0.000000 2.515100
vt 4.896198 1.942064
vt 4.852676 1.796991
vt 0.000000 0.984585
vt 4.852676 0.984585
vt 9.770635 -0.001908
vt 11.301150 -0.001908
vt 9.770635 0.614650
vt 11.301150 1.296491
vt 9.741620 0.723454
vt 9.669084 0.817751
vt 9.560280 1.296491
vt 9.560280 0.861273
vt 9.451475 0.817751
vt 7.826663 1.296491
vt 9.378939 0.723454
vt 9.342670 0.614650
vt 9.342670 -0.001908
vt 7.826663 -0.001908
vt 0.000000 1.296491
vt 0.000000 -0.001908
vt 22.609554 1.296491
vt 19.127813 1.296491
vt 22.609554 -0.001908
vt 19.127813 -0.001908
vt 0.493700 0.000000
vt 0.493700 0.389018
vt 0.536620 0.388104
vt 0.565131 0.399063
vt 0.606834 0.409412
vt 0.664060 0.415500
vt 0.689629 0.415500
vt 0.737622 0.409412
vt 0.781557 0.398352
vt 0.817374 0.385872
vt 0.848118 0.386075
vt 0.848118 0.000000
vt 8.087466 1.050014
vt 6.464117 1.050014
vt 8.087466 1.020712
vt 6.464117 1.020712
vt 6.493420 1.020712
vt 6.493420 1.050014
vt -1.834300 1.050014
vt 10.179651 1.050014
vt 8.550443 1.050014
vt 10.179651 1.020712
vt 8.550443 1.020712
vt 10.179651 1.126200
vt 8.550443 1.126200
vt 10.162070 1.120340
vt 8.550443 1.120340
vt 10.162070 1.096898
vt 8.550443 1.096898
vt 8.550443 1.073456
vt 10.179651 1.073456
vt 11.029419 1.073456
vt 11.029419 1.050014
vt 18.478069 1.073456
vt 18.478069 1.050014
vt 18.448765 1.073456
vt 18.448765 1.050014
vt 22.164299 1.073456
vt 22.164299 1.050014
vt -1.834300 1.073456
vt 6.493420 1.073456
vt 6.464117 1.073456
vt 8.087466 1.073456
vt 6.481699 1.096898
vt 8.087466 1.096898
vt 8.087466 1.120340
vt 6.481699 1.120340
vt 8.087466 1.126200
vt 6.464117 1.126200
vt 6.493420 1.126200
vt -1.834300 1.126200
vt -1.834300 1.020712
vt 22.164299 1.020712
vt 18.448765 1.020712
vt 18.478069 1.020712
vt 11.029419 1.020712
vt 11.029419 1.120340
vt 11.041140 1.120340
vt 18.478069 1.126200
vt 18.460487 1.120340
vt 11.041140 1.096898
vt 18.460487 1.096898
vt 11.041140 1.102758
vt 11.029419 1.079316
vt 22.152580 1.096898
vt -1.822579 1.096898
vt -1.822579 1.120340
vt 22.164299 1.126200
vt 18.448765 1.126200
vt 22.152580 1.120340
vt 0.537037 1.076519
vt -6.461878 1.076519
vt 0.537037 1.013936
vt 0.537037 1.264269
vt 0.537037 1.274700
vt -6.461878 1.274700
vt -6.461878 1.013936
vt -6.409725 1.013936
vt -6.409725 1.076519
vt -13.022708 1.076519
vt -6.409725 1.139103
vt -6.461878 1.139103
vt 0.537037 1.139103
vt -6.441017 1.201686
vt 0.537037 1.201686
vt -6.441017 1.264269
vt -6.409725 1.274700
vt -13.022708 1.274700
vt -13.022708 1.013936
vt -12.970555 1.013936
vt -12.970555 1.076519
vt -27.792400 1.076519
vt 1.361053 1.201686
vt 1.361053 1.139103
vt 8.359966 1.139103
vt 1.361053 1.076519
vt 8.359966 1.076519
vt 8.307816 1.139103
vt 8.307816 1.076519
vt 14.920799 1.139103
vt 14.920799 1.076519
vt -27.792400 1.139103
vt -12.970555 1.139103
vt -13.022708 1.139103
vt -12.991417 1.201686
vt -12.991417 1.264269
vt -12.970555 1.274700
vt -27.792400 1.274700
vt -27.792400 1.013936
vt 14.920799 1.013936
vt 8.307816 1.013936
vt 8.359966 1.013936
vt 1.361053 1.013936
vt 8.359966 1.274700
vt 1.361053 1.274700
vt 8.328674 1.264269
vt 1.361053 1.264269
vt 8.328674 1.201686
vt 14.899937 1.201686
vt -27.771540 1.201686
vt -27.771540 1.264269
vt 14.920799 1.274700
vt 8.307816 1.274700
vt 14.899937 1.264269
vt 18.407749 -2.822051
vt 9.235336 -2.822051
vt 18.407749 2.685700
vt 9.235336 2.685700
vt -5.452000 -2.822051
vt 3.727584 -2.822051
vt 3.727584 -6.572773
vt 9.235336 -6.572773
vt 18.407749 -6.572773
vt 23.915501 -6.572773
vt 23.915501 -2.822051
vt -5.452000 -6.572773
vt -14.499100 3.558800
vt -10.856607 3.558800
vt -10.856607 0.001140
vt -3.640549 0.001140
vt -3.640549 3.558800
vt 0.001944 0.001140
vt 0.001944 3.558800
vt 7.212700 0.001140
vt 7.212700 3.558800
vt -14.499100 0.001140
vt -10.856607 -3.641353
vt -3.640549 -3.641353
s 0
usemtl MainBase.001
f 1/1/1 2/2/1 3/3/1
f 3/3/1 2/2/1 4/4/1
f 2/2/1 5/5/1 4/4/1
f 4/4/1 5/5/1 6/6/1
f 6/6/1 5/5/1 7/7/1
f 5/5/1 8/8/1 7/7/1
f 7/7/1 8/8/1 9/9/1
f 9/9/1 8/8/1 10/10/1
f 10/10/1 8/8/1 11/11/1
f 11/11/1 8/8/1 12/12/1
f 8/8/1 13/13/1 12/12/1
f 12/12/1 13/13/1 14/14/1
f 14/14/1 13/13/1 15/15/1
f 13/13/1 16/16/1 15/15/1
f 15/15/1 16/16/1 17/17/1
f 17/17/1 16/16/1 18/18/1
f 18/18/1 16/16/1 19/19/1
f 19/19/1 16/16/1 20/20/1
f 16/16/1 21/21/1 20/20/1
f 20/20/1 21/21/1 22/22/1
f 22/22/1 21/21/1 23/23/1
f 21/21/1 24/24/1 23/23/1
f 23/23/1 24/24/1 26/25/1
f 26/25/1 24/24/1 28/26/1
f 27/27/2 25/28/2 29/29/2
f 29/29/2 25/28/2 30/30/2
f 30/30/2 25/28/2 31/31/2
f 25/28/2 32/32/2 31/31/2
f 31/31/2 32/32/2 35/33/2
f 34/33/2 33/32/2 36/31/2
f 33/32/2 37/28/2 36/31/2
f 36/31/2 37/28/2 39/30/2
f 39/30/2 37/28/2 40/29/2
f 40/29/2 37/28/2 42/27/2
f 41/26/3 38/24/3 43/25/3
f 43/25/3 38/24/3 44/23/3
f 38/24/3 45/21/3 44/23/3
f 44/23/3 45/21/3 46/22/3
f 46/22/3 45/21/3 47/20/3
f 45/21/3 48/16/3 47/20/3
f 47/20/3 48/16/3 49/19/3
f 49/19/3 48/16/3 50/18/3
f 50/18/3 48/16/3 51/17/3
f 51/17/3 48/16/3 52/15/3
f 48/16/3 53/13/3 52/15/3
f 52/15/3 53/13/3 54/14/3
f 54/14/3 53/13/3 55/12/3
f 53/13/3 56/8/3 55/12/3
f 55/12/3 56/8/3 57/11/3
f 57/11/3 56/8/3 58/10/3
f 58/10/3 56/8/3 59/9/3
f 59/9/3 56/8/3 60/7/3
f 56/8/3 61/5/3 60/7/3
f 60/7/3 61/5/3 62/6/3
f 62/6/3 61/5/3 63/4/3
f 61/5/3 64/2/3 63/4/3
f 63/4/3 64/2/3 65/3/3
f 65/3/3 64/2/3 66/1/3
f 66/1/3 64/2/3 67/34/3
f 67/34/3 64/2/3 68/35/3
f 64/2/3 69/36/3 68/35/3
f 68/35/3 69/36/3 70/37/3
f 70/37/3 69/36/3 71/38/3
f 69/36/3 72/39/3 71/38/3
f 71/38/3 72/39/3 73/40/3
f 73/40/3 72/39/3 74/41/3
f 74/41/3 72/39/3 75/42/3
f 75/42/3 72/39/3 76/43/3
f 72/39/3 77/44/3 76/43/3
f 76/43/3 77/44/3 78/45/3
f 78/45/3 77/44/3 79/46/3
f 77/44/3 80/47/3 79/46/3
f 79/46/3 80/47/3 82/48/3
f 82/48/3 80/47/3 84/49/3
f 83/49/4 81/47/4 85/29/4
f 85/29/4 81/47/4 86/30/4
f 86/30/4 81/47/4 87/31/4
f 81/47/4 88/32/4 87/31/4
f 87/31/4 88/32/4 91/33/4
f 90/33/4 89/32/4 92/31/4
f 89/32/4 93/47/4 92/31/4
f 92/31/4 93/47/4 95/30/4
f 95/30/4 93/47/4 96/29/4
f 96/29/4 93/47/4 98/49/4
f 97/49/1 94/47/1 99/48/1
f 99/48/1 94/47/1 100/46/1
f 94/47/1 101/44/1 100/46/1
f 100/46/1 101/44/1 102/45/1
f 102/45/1 101/44/1 103/43/1
f 101/44/1 104/39/1 103/43/1
f 103/43/1 104/39/1 105/42/1
f 105/42/1 104/39/1 106/41/1
f 106/41/1 104/39/1 107/40/1
f 107/40/1 104/39/1 108/38/1
f 104/39/1 109/36/1 108/38/1
f 108/38/1 109/36/1 110/37/1
f 110/37/1 109/36/1 111/35/1
f 109/36/1 2/2/1 111/35/1
f 111/35/1 2/2/1 112/34/1
f 2/2/1 1/1/1 112/34/1
f 114/50/1 115/51/1 117/52/1
f 117/52/1 115/51/1 120/53/1
f 119/53/2 116/51/2 122/54/2
f 116/51/2 123/55/2 122/54/2
f 121/54/3 124/55/3 126/56/3
f 124/55/3 127/57/3 126/56/3
f 128/58/4 113/50/4 125/59/4
f 113/50/4 118/52/4 125/59/4
f 129/60/2 132/61/2 133/62/2
f 133/62/2 132/61/2 134/63/2
f 134/63/2 132/61/2 135/64/2
f 132/61/2 136/65/2 135/64/2
f 135/64/2 136/65/2 137/66/2
f 136/65/2 138/67/2 137/66/2
f 137/66/2 138/67/2 139/68/2
f 139/68/2 138/67/2 140/69/2
f 140/69/2 138/67/2 141/70/2
f 141/70/2 138/67/2 142/71/2
f 142/71/2 138/67/2 143/72/2
f 143/72/2 138/67/2 144/73/2
f 138/67/2 145/74/2 144/73/2
f 144/73/2 145/74/2 146/75/2
f 145/74/2 147/76/2 146/75/2
f 146/75/2 147/76/2 149/77/2
f 149/77/2 147/76/2 150/78/2
f 150/78/2 147/76/2 152/79/2
f 151/79/3 148/76/3 153/80/3
f 153/80/3 148/76/3 154/81/3
f 154/81/3 148/76/3 155/82/3
f 148/76/3 156/83/3 155/82/3
f 155/82/3 156/83/3 157/84/3
f 157/84/3 156/83/3 158/85/3
f 156/83/3 159/86/3 158/85/3
f 158/85/3 159/86/3 160/87/3
f 160/87/3 159/86/3 161/88/3
f 161/88/3 159/86/3 162/89/3
f 162/89/3 159/86/3 163/90/3
f 159/86/3 164/91/3 163/90/3
f 163/90/3 164/91/3 165/92/3
f 165/92/3 164/91/3 166/93/3
f 164/91/3 167/94/3 166/93/3
f 166/93/3 167/94/3 168/95/3
f 168/95/3 167/94/3 169/96/3
f 169/96/3 167/94/3 170/97/3
f 170/97/3 167/94/3 171/98/3
f 171/98/3 167/94/3 172/99/3
f 167/94/3 173/100/3 172/99/3
f 172/99/3 173/100/3 174/101/3
f 174/101/3 173/100/3 175/102/3
f 173/100/3 176/103/3 175/102/3
f 175/102/3 176/103/3 177/104/3
f 177/104/3 176/103/3 178/105/3
f 178/105/3 176/103/3 179/106/3
f 179/106/3 176/103/3 180/107/3
f 176/103/3 181/108/3 180/107/3
f 180/107/3 181/108/3 182/109/3
f 182/109/3 181/108/3 183/110/3
f 181/108/3 184/111/3 183/110/3
f 183/110/3 184/111/3 185/112/3
f 185/112/3 184/111/3 186/113/3
f 186/113/3 184/111/3 187/114/3
f 187/114/3 184/111/3 188/115/3
f 184/111/3 189/116/3 188/115/3
f 188/115/3 189/116/3 190/117/3
f 190/117/3 189/116/3 191/118/3
f 189/116/3 192/119/3 191/118/3
f 191/118/3 192/119/3 194/120/3
f 194/120/3 192/119/3 196/121/3
f 195/122/3 193/119/3 197/120/3
f 197/120/3 193/119/3 198/118/3
f 193/119/3 199/116/3 198/118/3
f 198/118/3 199/116/3 200/117/3
f 200/117/3 199/116/3 201/115/3
f 199/116/3 202/111/3 201/115/3
f 201/115/3 202/111/3 203/123/3
f 203/123/3 202/111/3 204/124/3
f 204/124/3 202/111/3 205/112/3
f 205/112/3 202/111/3 206/110/3
f 202/111/3 207/108/3 206/110/3
f 206/110/3 207/108/3 208/109/3
f 208/109/3 207/108/3 209/107/3
f 207/108/3 210/103/3 209/107/3
f 209/107/3 210/103/3 211/106/3
f 211/106/3 210/103/3 212/125/3
f 212/125/3 210/103/3 213/104/3
f 213/104/3 210/103/3 214/102/3
f 210/103/3 215/100/3 214/102/3
f 214/102/3 215/100/3 216/101/3
f 216/101/3 215/100/3 217/99/3
f 215/100/3 218/94/3 217/99/3
f 217/99/3 218/94/3 219/126/3
f 219/126/3 218/94/3 220/127/3
f 220/127/3 218/94/3 221/128/3
f 221/128/3 218/94/3 222/95/3
f 222/95/3 218/94/3 223/93/3
f 218/94/3 224/91/3 223/93/3
f 223/93/3 224/91/3 225/92/3
f 225/92/3 224/91/3 226/90/3
f 224/91/3 227/86/3 226/90/3
f 226/90/3 227/86/3 228/129/3
f 228/129/3 227/86/3 229/88/3
f 229/88/3 227/86/3 230/87/3
f 230/87/3 227/86/3 231/85/3
f 227/86/3 232/83/3 231/85/3
f 231/85/3 232/83/3 233/84/3
f 233/84/3 232/83/3 234/82/3
f 232/83/3 235/76/3 234/82/3
f 234/82/3 235/76/3 237/130/3
f 237/130/3 235/76/3 238/80/3
f 238/80/3 235/76/3 240/79/3
f 239/79/4 236/76/4 241/78/4
f 241/78/4 236/76/4 242/77/4
f 242/77/4 236/76/4 243/75/4
f 236/76/4 244/74/4 243/75/4
f 243/75/4 244/74/4 245/73/4
f 244/74/4 246/67/4 245/73/4
f 245/73/4 246/67/4 247/72/4
f 247/72/4 246/67/4 248/71/4
f 248/71/4 246/67/4 249/70/4
f 249/70/4 246/67/4 250/69/4
f 250/69/4 246/67/4 251/68/4
f 251/68/4 246/67/4 252/66/4
f 246/67/4 253/65/4 252/66/4
f 252/66/4 253/65/4 254/64/4
f 253/65/4 255/61/4 254/64/4
f 254/64/4 255/61/4 257/63/4
f 257/63/4 255/61/4 258/62/4
f 258/62/4 255/61/4 260/60/4
f 259/131/1 256/132/1 261/133/1
f 261/133/1 256/132/1 262/134/1
f 262/134/1 256/132/1 263/135/1
f 256/132/1 264/136/1 263/135/1
f 263/135/1 264/136/1 265/137/1
f 265/137/1 264/136/1 266/138/1
f 264/136/1 267/139/1 266/138/1
f 266/138/1 267/139/1 268/140/1
f 268/140/1 267/139/1 269/141/1
f 269/141/1 267/139/1 270/142/1
f 270/142/1 267/139/1 271/143/1
f 267/139/1 272/144/1 271/143/1
f 271/143/1 272/144/1 273/145/1
f 273/145/1 272/144/1 274/146/1
f 272/144/1 275/147/1 274/146/1
f 274/146/1 275/147/1 276/148/1
f 276/148/1 275/147/1 277/149/1
f 277/149/1 275/147/1 278/150/1
f 278/150/1 275/147/1 279/151/1
f 279/151/1 275/147/1 280/152/1
f 275/147/1 281/153/1 280/152/1
f 280/152/1 281/153/1 282/154/1
f 282/154/1 281/153/1 283/155/1
f 281/153/1 284/156/1 283/155/1
f 283/155/1 284/156/1 285/157/1
f 285/157/1 284/156/1 286/158/1
f 286/158/1 284/156/1 287/159/1
f 287/159/1 284/156/1 288/160/1
f 284/156/1 289/161/1 288/160/1
f 288/160/1 289/161/1 290/162/1
f 290/162/1 289/161/1 291/163/1
f 289/161/1 292/164/1 291/163/1
f 291/163/1 292/164/1 293/165/1
f 293/165/1 292/164/1 294/166/1
f 294/166/1 292/164/1 295/167/1
f 295/167/1 292/164/1 296/168/1
f 292/164/1 297/169/1 296/168/1
f 296/168/1 297/169/1 298/170/1
f 298/170/1 297/169/1 299/171/1
f 297/169/1 300/172/1 299/171/1
f 299/171/1 300/172/1 302/173/1
f 302/173/1 300/172/1 304/174/1
f 303/174/1 301/172/1 305/173/1
f 305/173/1 301/172/1 306/171/1
f 301/172/1 307/169/1 306/171/1
f 306/171/1 307/169/1 308/170/1
f 308/170/1 307/169/1 309/168/1
f 307/169/1 310/164/1 309/168/1
f 309/168/1 310/164/1 311/175/1
f 311/175/1 310/164/1 312/176/1
f 312/176/1 310/164/1 313/165/1
f 313/165/1 310/164/1 314/163/1
f 310/164/1 315/161/1 314/163/1
f 314/163/1 315/161/1 316/162/1
f 316/162/1 315/161/1 317/160/1
f 315/161/1 318/156/1 317/160/1
f 317/160/1 318/156/1 319/159/1
f 319/159/1 318/156/1 320/177/1
f 320/177/1 318/156/1 321/157/1
f 321/157/1 318/156/1 322/155/1
f 318/156/1 323/153/1 322/155/1
f 322/155/1 323/153/1 324/154/1
f 324/154/1 323/153/1 325/152/1
f 323/153/1 326/147/1 325/152/1
f 325/152/1 326/147/1 327/178/1
f 327/178/1 326/147/1 328/179/1
f 328/179/1 326/147/1 329/180/1
f 329/180/1 326/147/1 330/148/1
f 330/148/1 326/147/1 331/146/1
f 326/147/1 332/144/1 331/146/1
f 331/146/1 332/144/1 333/145/1
f 333/145/1 332/144/1 334/143/1
f 332/144/1 335/139/1 334/143/1
f 334/143/1 335/139/1 336/181/1
f 336/181/1 335/139/1 337/141/1
f 337/141/1 335/139/1 338/140/1
f 338/140/1 335/139/1 339/138/1
f 335/139/1 340/136/1 339/138/1
f 339/138/1 340/136/1 341/137/1
f 341/137/1 340/136/1 342/135/1
f 340/136/1 131/132/1 342/135/1
f 342/135/1 131/132/1 343/182/1
f 343/182/1 131/132/1 344/133/1
f 131/132/1 130/131/1 344/133/1
f 393/183/3 345/184/3 346/185/3
f 345/184/3 347/186/3 346/185/3
f 346/185/3 347/186/3 348/187/3
f 347/186/3 349/188/3 348/187/3
f 349/188/3 350/189/3 348/187/3
f 351/190/3 352/191/3 348/187/3
f 348/187/3 352/191/3 353/192/3
f 352/191/3 354/193/3 353/192/3
f 354/193/3 355/194/3 353/192/3
f 353/192/3 355/194/3 356/195/3
f 357/196/3 358/197/3 356/195/3
f 356/195/3 358/197/3 359/198/3
f 358/197/3 360/199/3 359/198/3
f 360/199/3 361/200/3 359/198/3
f 359/198/3 361/200/3 362/201/3
f 363/202/3 364/203/3 362/201/3
f 364/203/3 365/204/3 362/201/3
f 362/201/3 365/204/3 366/205/3
f 365/204/3 367/206/3 366/205/3
f 366/205/3 367/206/3 369/207/3
f 370/207/1 372/206/1 373/205/1
f 372/206/1 374/204/1 373/205/1
f 373/205/1 374/204/1 375/201/1
f 374/204/1 376/203/1 375/201/1
f 376/203/1 377/200/1 375/201/1
f 375/201/1 377/200/1 378/198/1
f 377/200/1 379/199/1 378/198/1
f 379/199/1 380/197/1 378/198/1
f 378/198/1 380/197/1 381/195/1
f 380/197/1 382/194/1 381/195/1
f 381/195/1 382/194/1 383/192/1
f 382/194/1 384/193/1 383/192/1
f 384/193/1 385/191/1 383/192/1
f 383/192/1 385/191/1 386/187/1
f 385/191/1 387/188/1 386/187/1
f 387/188/1 388/186/1 386/187/1
f 386/187/1 388/186/1 389/185/1
f 388/186/1 390/184/1 389/185/1
f 389/185/1 390/184/1 392/183/1
f 400/208/4 394/183/4 395/209/4
f 394/183/4 396/210/4 395/209/4
f 395/209/4 396/210/4 397/211/4
f 397/211/4 396/210/4 398/212/4
f 396/210/4 391/213/4 398/212/4
f 398/212/4 391/213/4 399/214/4
f 400/208/4 401/215/4 402/216/4
f 402/216/4 401/215/4 403/217/4
f 403/217/4 401/215/4 404/218/4
f 401/215/4 399/214/4 404/218/4
f 405/219/4 404/218/4 407/220/4
f 404/218/4 399/214/4 407/220/4
f 399/214/4 391/213/4 407/220/4
f 408/221/1 406/222/1 409/223/1
f 406/222/1 392/183/1 409/223/1
f 409/223/1 392/183/1 410/224/1
f 392/183/1 390/184/1 410/224/1
f 390/184/1 411/225/1 410/224/1
f 411/225/1 412/226/1 410/224/1
f 413/227/1 410/224/1 414/228/1
f 410/224/1 412/226/1 414/228/1
f 414/228/1 412/226/1 415/229/1
f 415/229/1 412/226/1 416/230/1
f 412/226/1 417/189/1 416/230/1
f 417/189/1 387/188/1 416/230/1
f 387/188/1 385/191/1 416/230/1
f 385/191/1 418/190/1 416/230/1
f 416/230/1 418/190/1 419/231/1
f 418/190/1 420/232/1 419/231/1
f 421/233/1 419/231/1 422/234/1
f 419/231/1 420/232/1 422/234/1
f 422/234/1 420/232/1 423/235/1
f 423/235/1 420/232/1 424/236/1
f 420/232/1 425/237/1 424/236/1
f 425/237/1 382/194/1 424/236/1
f 382/194/1 380/197/1 424/236/1
f 424/236/1 380/197/1 426/238/1
f 380/197/1 427/196/1 426/238/1
f 427/196/1 428/239/1 426/238/1
f 429/240/1 426/238/1 430/241/1
f 426/238/1 428/239/1 430/241/1
f 430/241/1 428/239/1 431/242/1
f 431/242/1 428/239/1 432/243/1
f 428/239/1 433/244/1 432/243/1
f 433/244/1 377/200/1 432/243/1
f 432/243/1 377/200/1 434/245/1
f 377/200/1 376/203/1 434/245/1
f 376/203/1 435/202/1 434/245/1
f 435/202/1 436/246/1 434/245/1
f 437/247/1 434/245/1 438/248/1
f 434/245/1 436/246/1 438/248/1
f 438/248/1 436/246/1 439/249/1
f 439/249/1 436/246/1 440/250/1
f 436/246/1 441/251/1 440/250/1
f 441/251/1 372/206/1 440/250/1
f 440/250/1 372/206/1 442/252/1
f 372/206/1 370/207/1 442/252/1
f 443/253/1 442/252/1 445/254/1
f 442/252/1 370/207/1 445/254/1
f 444/255/2 371/256/2 447/254/2
f 371/256/2 368/207/2 447/254/2
f 448/253/3 446/254/3 449/252/3
f 446/254/3 369/207/3 449/252/3
f 369/207/3 367/206/3 449/252/3
f 449/252/3 367/206/3 450/250/3
f 367/206/3 451/251/3 450/250/3
f 451/251/3 452/246/3 450/250/3
f 450/250/3 452/246/3 453/249/3
f 453/249/3 452/246/3 454/248/3
f 455/247/3 454/248/3 456/245/3
f 454/248/3 452/246/3 456/245/3
f 452/246/3 363/202/3 456/245/3
f 456/245/3 363/202/3 457/243/3
f 363/202/3 362/201/3 457/243/3
f 362/201/3 361/200/3 457/243/3
f 361/200/3 458/244/3 457/243/3
f 458/244/3 459/239/3 457/243/3
f 457/243/3 459/239/3 460/242/3
f 460/242/3 459/239/3 461/241/3
f 462/240/3 461/241/3 463/238/3
f 461/241/3 459/239/3 463/238/3
f 459/239/3 357/196/3 463/238/3
f 463/238/3 357/196/3 464/257/3
f 357/196/3 356/195/3 464/257/3
f 356/195/3 355/194/3 464/257/3
f 355/194/3 465/237/3 464/257/3
f 465/237/3 466/232/3 464/257/3
f 464/257/3 466/232/3 467/258/3
f 467/258/3 466/232/3 468/234/3
f 469/233/3 468/234/3 470/231/3
f 468/234/3 466/232/3 470/231/3
f 466/232/3 351/190/3 470/231/3
f 470/231/3 351/190/3 471/230/3
f 351/190/3 348/187/3 471/230/3
f 348/187/3 350/189/3 471/230/3
f 350/189/3 472/226/3 471/230/3
f 471/230/3 472/226/3 473/229/3
f 473/229/3 472/226/3 474/228/3
f 475/259/3 474/228/3 476/260/3
f 474/228/3 472/226/3 476/260/3
f 472/226/3 477/225/3 476/260/3
f 477/225/3 345/184/3 476/260/3
f 345/184/3 393/183/3 476/260/3
f 476/260/3 393/183/3 478/223/3
f 479/221/3 478/223/3 481/222/3
f 478/223/3 393/183/3 481/222/3
f 394/183/4 400/208/4 480/222/4
f 400/208/4 402/216/4 480/222/4
f 402/216/4 482/261/4 480/222/4
f 483/262/5 484/263/5 485/264/5
f 491/265/3 487/266/3 492/267/3
f 485/264/5 484/263/5 494/268/5
f 494/268/5 484/263/5 497/269/5
f 484/263/5 498/270/5 497/269/5
f 497/269/5 498/270/5 499/271/5
f 498/270/5 502/272/5 499/271/5
f 502/272/5 483/262/5 499/271/5
f 483/262/5 485/264/5 499/271/5
f 501/273/4 486/274/4 504/275/4
f 487/266/3 491/265/3 503/275/3
f 507/276/6 512/277/6 514/278/6
f 514/278/6 512/277/6 516/279/6
f 509/277/7 506/275/7 515/279/7
f 506/275/7 488/265/7 515/279/7
s 1
f 518/279/8 489/265/9 520/280/9
s 0
f 490/265/2 493/281/2 519/280/2
f 493/281/2 495/282/2 519/280/2
f 522/280/1 496/269/1 524/283/1
f 496/269/1 500/271/1 524/283/1
f 501/273/4 504/275/4 523/283/4
f 505/275/10 510/277/10 526/283/10
s 1
f 526/283/11 510/277/11 528/284/11
f 511/277/12 508/276/13 527/284/12
f 508/276/13 531/285/13 527/284/12
s 0
f 532/285/14 533/286/14 530/284/14
f 530/284/14 533/286/14 537/287/14
s 1
f 534/286/15 513/278/15 536/287/15
f 513/278/15 517/279/15 536/287/15
f 518/279/8 520/280/9 535/287/9
f 521/280/16 525/283/16 538/287/17
f 529/284/17 538/287/17 525/283/16
s 0
f 539/288/1 540/289/1 541/290/1
f 541/290/1 540/289/1 543/291/1
f 540/289/1 544/292/1 543/291/1
f 545/293/1 546/294/1 547/295/1
f 547/295/1 546/294/1 549/296/1
f 550/297/4 553/298/4 555/299/4
f 553/298/4 548/296/4 555/299/4
f 549/296/1 546/294/1 554/299/1
f 546/294/1 556/300/1 554/299/1
f 554/299/1 556/300/1 557/301/1
f 556/300/1 558/302/1 557/301/1
f 557/301/1 558/302/1 559/303/1
f 558/302/1 545/293/1 559/303/1
f 545/293/1 547/295/1 559/303/1
f 547/295/1 543/291/1 559/303/1
f 559/303/1 543/291/1 560/304/1
f 543/291/1 544/292/1 560/304/1
f 544/292/1 561/305/1 560/304/1
f 560/304/1 561/305/1 562/306/1
f 561/305/1 539/288/1 562/306/1
f 562/306/1 539/288/1 564/307/1
f 539/288/1 541/290/1 564/307/1
f 563/307/2 542/290/2 566/308/2
f 542/290/2 567/309/2 566/308/2
s 1
f 569/310/3 565/308/3 570/311/18
f 565/308/3 568/309/19 570/311/18
f 570/311/18 568/309/19 571/312/20
f 571/312/20 568/309/19 572/313/21
f 568/309/19 573/314/22 572/313/21
f 572/313/21 573/314/22 574/315/23
f 574/315/23 573/314/22 575/316/24
f 573/314/22 552/317/25 575/316/24
f 575/316/24 552/317/25 576/318/26
f 576/318/26 552/317/25 577/319/27
f 552/317/25 551/320/3 577/319/27
f 551/320/3 578/321/3 577/319/27
f 579/322/2 580/323/2 582/324/28
f 580/323/2 584/325/2 582/324/28
f 582/324/28 584/325/2 585/326/29
f 585/326/29 584/325/2 586/327/30
f 584/325/2 587/328/31 586/327/30
f 586/327/30 587/328/31 588/329/32
f 588/329/32 587/328/31 589/330/33
f 587/328/31 590/331/2 589/330/33
f 589/330/33 590/331/2 592/332/34
f 592/332/34 590/331/2 593/333/35
f 594/334/2 593/333/35 596/335/2
f 593/333/35 590/331/2 596/335/2
s 0
f 591/331/3 597/336/3 595/335/3
f 595/335/3 597/336/3 600/337/3
f 598/338/4 601/339/4 599/340/4
f 599/340/4 601/339/4 604/341/4
f 602/339/1 583/325/1 603/341/1
f 583/325/1 581/323/1 603/341/1
f 606/342/4 607/343/4 609/342/4
f 609/342/4 607/343/4 612/343/4
f 608/343/36 613/344/36 611/343/36
s 1
f 611/343/37 613/344/37 616/344/37
s 0
f 614/344/38 617/345/38 615/344/38
f 615/344/39 617/345/39 620/345/39
f 618/345/40 621/346/40 619/345/40
f 619/345/40 621/346/40 624/346/40
f 622/346/41 625/347/41 623/346/41
f 623/346/41 625/347/41 628/347/41
f 626/347/5 629/348/5 627/347/5
f 627/347/5 629/348/5 632/348/5
s 1
f 630/348/42 633/349/43 631/348/42
f 631/348/42 633/349/43 636/349/43
f 634/349/44 637/350/44 635/349/44
f 635/349/44 637/350/44 640/350/44
f 638/350/45 641/351/46 639/350/47
f 639/350/47 641/351/46 644/351/48
s 0
f 642/351/49 645/352/49 643/351/49
f 643/351/50 645/352/50 648/352/50
f 646/352/2 649/353/2 647/352/2
f 647/352/2 649/353/2 652/353/2
f 650/353/51 605/342/51 651/353/51
f 605/342/51 610/342/51 651/353/51
f 654/342/4 655/343/4 657/342/4
f 657/342/4 655/343/4 660/343/4
f 656/343/52 661/344/52 659/343/52
f 659/343/36 661/344/36 664/344/36
f 662/344/38 665/345/38 663/344/38
f 663/344/38 665/345/38 668/345/38
f 666/345/53 669/346/53 667/345/53
f 667/345/53 669/346/53 672/346/53
f 670/346/54 673/347/54 671/346/54
s 1
f 671/346/55 673/347/55 676/347/55
s 0
f 674/347/5 677/348/5 675/347/5
f 675/347/5 677/348/5 680/348/5
s 1
f 678/348/43 681/349/42 679/348/42
f 679/348/42 681/349/42 684/349/56
f 682/349/44 685/350/44 683/349/44
f 683/349/44 685/350/44 688/350/44
s 0
f 686/350/57 689/351/57 687/350/57
f 687/350/57 689/351/57 692/351/57
s 1
f 690/351/58 693/352/50 691/351/50
f 691/351/50 693/352/50 696/352/58
s 0
f 694/352/2 697/353/2 695/352/2
f 695/352/2 697/353/2 700/353/2
f 698/353/51 653/342/51 699/353/51
f 653/342/51 658/342/51 699/353/51
f 701/354/4 703/355/4 705/356/4
f 705/356/4 703/355/4 706/357/4
f 709/358/3 702/359/3 710/360/3
f 713/361/4 714/362/4 715/363/4
f 714/362/4 719/364/4 715/363/4
f 718/365/51 720/366/51 724/367/51
f 720/366/51 725/368/51 724/367/51
f 723/367/2 726/368/2 730/369/2
f 726/368/2 731/370/2 730/369/2
s 1
f 732/370/59 733/371/59 729/369/60
f 729/369/60 733/371/59 736/372/61
s 0
f 734/371/4 714/362/4 735/372/4
f 714/362/4 713/361/4 735/372/4
f 738/373/1 712/374/1 739/375/1
f 712/374/1 744/376/1 739/375/1
f 742/377/62 743/378/62 745/379/62
f 743/378/62 711/380/62 745/379/62
f 748/381/3 710/360/3 749/382/3
f 710/360/3 702/359/3 749/382/3
f 703/355/4 701/354/4 752/383/4
f 701/354/4 753/384/4 752/383/4
s 1
f 751/383/63 754/384/64 755/385/65
f 754/384/64 759/386/59 755/385/65
s 0
f 760/386/2 761/387/2 758/385/2
f 758/385/2 761/387/2 763/388/2
f 762/387/51 704/389/51 766/388/51
f 704/389/51 707/390/51 766/388/51
f 765/388/51 708/391/51 768/392/51
f 709/358/3 710/360/3 767/393/3
f 711/380/62 743/378/62 770/394/62
f 770/394/62 743/378/62 772/395/62
f 744/376/1 712/374/1 771/396/1
f 712/374/1 716/397/1 771/396/1
f 717/398/51 721/399/51 774/400/51
f 774/400/51 721/399/51 775/401/51
f 722/399/66 727/402/66 778/401/66
f 778/401/66 727/402/66 780/403/66
s 1
f 728/404/61 737/405/60 779/403/67
f 737/405/60 740/375/67 779/403/67
f 741/377/68 746/379/69 782/403/70
f 782/403/70 746/379/69 783/406/69
f 747/381/71 750/382/72 786/407/71
f 750/382/72 756/385/73 786/407/71
s 0
f 757/385/1 764/388/1 785/407/1
f 785/407/1 764/388/1 788/408/1
f 765/388/51 768/392/51 787/408/51
f 769/409/51 773/410/51 790/411/51
f 773/410/51 776/401/51 790/411/51
f 777/401/74 781/403/74 789/411/74
f 784/406/74 789/411/74 781/403/74
f 791/412/75 793/413/75 795/414/75
f 797/415/51 794/416/51 799/417/51
f 795/414/75 793/413/75 798/418/75
f 801/419/4 792/420/4 803/421/4
f 803/421/4 792/420/4 804/422/4
f 793/413/75 791/412/75 807/423/75
f 791/412/75 808/424/75 807/423/75
s 1
f 806/423/76 809/424/77 810/425/61
f 809/424/77 814/426/77 810/425/61
s 0
f 815/426/78 796/415/78 813/425/78
f 813/425/78 796/415/78 816/427/78
f 797/415/51 799/417/51 819/427/51
f 818/427/51 800/428/51 821/429/51
f 801/419/4 803/421/4 820/430/4
f 823/431/3 802/432/3 824/433/3
s 1
f 827/434/77 828/435/77 831/436/79
s 0
f 829/435/80 834/437/80 830/436/80
s 1
f 834/437/75 836/438/75 830/436/81
s 0
f 833/439/2 835/440/2 837/441/2
f 835/440/2 825/442/2 837/441/2
f 840/443/3 824/433/3 841/444/3
f 824/433/3 802/432/3 841/444/3
f 803/421/4 804/422/4 844/445/4
s 1
f 843/445/63 805/422/61 845/446/63
f 805/422/61 811/425/60 845/446/63
s 0
f 812/425/2 817/427/2 848/446/2
f 848/446/2 817/427/2 849/447/2
f 818/427/51 821/429/51 852/447/51
f 851/447/51 822/448/51 854/449/51
f 823/431/3 824/433/3 853/450/3
f 825/442/2 835/440/2 856/451/2
f 856/451/2 835/440/2 858/452/2
s 1
f 836/438/75 834/437/75 857/453/81
s 0
f 834/437/80 861/454/80 857/453/80
f 860/455/51 862/456/51 863/457/51
f 862/456/51 867/458/51 863/457/51
f 866/457/78 868/458/78 869/459/78
f 868/458/78 826/434/78 869/459/78
s 1
f 827/434/77 831/436/79 872/459/70
f 832/439/79 838/441/71 871/459/67
f 871/459/67 838/441/71 873/460/82
f 839/443/71 842/444/63 876/461/69
f 842/444/63 846/446/73 876/461/69
s 0
f 847/446/1 850/447/1 875/461/1
f 875/461/1 850/447/1 878/462/1
f 851/447/51 854/449/51 877/462/51
f 855/463/51 859/464/51 880/465/51
f 859/464/51 864/457/51 880/465/51
f 865/457/4 870/459/4 879/465/4
f 874/460/4 879/465/4 870/459/4
f 881/282/83 888/265/83 889/281/83
f 885/265/3 893/275/3 892/267/3
f 892/267/3 893/275/3 898/266/3
f 894/275/84 904/273/84 897/274/84
s 1
f 900/264/85 901/271/85 908/262/85
f 908/262/85 901/271/85 909/272/86
s 0
f 912/272/87 902/271/87 913/270/87
f 902/271/87 883/269/87 913/270/87
f 916/270/88 884/269/88 918/263/88
f 884/269/88 890/268/88 918/263/88
f 891/268/89 899/264/89 917/263/89
f 899/264/90 905/262/90 917/263/90
f 920/263/3 906/262/3 923/263/3
f 923/263/3 906/262/3 924/262/3
f 907/262/4 910/272/4 926/262/4
f 926/262/4 910/272/4 927/272/4
f 911/272/1 914/270/1 929/272/1
f 929/272/1 914/270/1 931/270/1
f 915/270/2 919/263/2 930/270/2
f 919/263/2 921/263/2 930/270/2
f 932/270/51 922/263/51 934/269/51
f 934/269/51 922/263/51 938/268/51
f 938/268/51 922/263/51 941/264/51
f 922/263/51 925/262/51 941/264/51
f 941/264/51 925/262/51 944/271/51
f 925/262/51 928/272/51 944/271/51
f 928/272/51 932/270/51 944/271/51
f 932/270/51 934/269/51 944/271/51
f 943/271/3 935/269/3 948/283/3
f 948/283/3 935/269/3 949/280/3
f 952/280/4 933/282/4 953/265/4
f 933/282/4 936/281/4 953/265/4
f 956/265/1 937/267/1 958/275/1
f 937/267/1 939/266/1 958/275/1
f 940/274/2 942/273/2 957/275/2
f 942/273/2 945/283/2 957/275/2
s 1
f 960/275/91 946/283/91 961/277/91
f 968/277/92 964/277/92 970/284/93
f 961/277/91 946/283/91 969/284/91
f 972/284/94 947/283/94 973/287/95
f 947/283/94 950/280/95 973/287/95
f 976/287/96 951/280/97 978/279/96
f 951/280/97 954/265/97 978/279/96
f 955/265/98 959/275/99 977/279/98
f 959/275/99 962/277/98 977/279/98
f 980/279/100 963/277/101 982/279/100
f 963/277/101 965/277/101 982/279/100
f 966/277/102 896/275/103 981/279/102
f 896/275/103 886/265/104 981/279/102
f 984/279/105 887/265/106 986/280/105
f 888/265/107 881/282/107 985/280/107
s 0
f 988/280/75 882/269/75 990/283/75
f 882/269/1 903/271/1 990/283/1
f 904/273/84 894/275/84 989/283/84
f 895/275/108 967/277/108 992/283/108
s 1
f 992/283/109 967/277/109 994/284/109
f 968/277/92 970/284/93 993/284/93
f 971/284/110 974/287/111 996/284/110
f 996/284/110 974/287/111 999/287/111
f 975/287/112 979/279/113 998/287/112
f 979/279/113 983/279/113 998/287/112
f 984/279/105 986/280/105 997/287/114
f 987/280/115 991/283/116 1000/287/116
f 995/284/116 1000/287/116 991/283/116
s 0
f 1003/466/5 1006/467/5 1007/468/5
f 1006/467/5 1012/469/5 1007/468/5
f 1009/470/3 1010/471/3 1013/472/3
f 1015/472/2 1011/471/2 1016/473/2
f 1011/471/2 1004/467/2 1016/473/2
f 1018/473/1 1005/467/1 1019/474/1
f 1005/467/1 1001/466/1 1019/474/1
f 1021/474/4 1002/466/4 1022/475/4
f 1002/466/4 1008/476/4 1022/475/4
f 1009/470/3 1013/472/3 1025/477/3
s 1
f 1024/477/117 1014/472/118 1029/477/117
f 1029/477/117 1014/472/118 1032/472/118
f 1014/472/118 1017/473/119 1032/472/118
f 1032/472/118 1017/473/119 1035/473/119
f 1017/473/119 1020/474/120 1035/473/119
f 1035/473/119 1020/474/120 1036/474/120
f 1020/474/120 1023/475/117 1036/474/120
f 1023/475/117 1026/475/117 1036/474/120
s 0
f 1038/474/121 1027/475/121 1041/466/121
f 1041/466/121 1027/475/121 1042/476/121
f 1028/477/122 1030/472/122 1044/470/122
f 1044/470/122 1030/472/122 1047/471/122
f 1031/472/123 1033/473/123 1046/471/123
f 1046/471/123 1033/473/123 1049/467/123
f 1034/473/124 1037/474/124 1048/467/124
f 1037/474/124 1039/466/124 1048/467/124
f 1040/466/51 1043/468/51 1050/467/51
f 1045/469/51 1050/467/51 1043/468/51
f 1052/478/2 1053/479/2 1055/480/2
f 1057/480/1 1054/479/1 1058/481/1
f 1054/479/1 1061/482/1 1058/481/1
f 1060/481/4 1062/482/4 1065/483/4
f 1062/482/4 1066/484/4 1065/483/4
f 1064/483/3 1067/484/3 1069/485/3
f 1067/484/3 1051/486/3 1069/485/3
f 1052/478/2 1055/480/2 1068/487/2
f 1056/480/51 1059/481/51 1070/488/51
f 1063/489/51 1070/488/51 1059/481/51
