# Blender 5.2.0 Alpha
# www.blender.org
mtllib Chains.mtl
o Chains
v 4.185908 1.076819 -1.434570
v 4.190712 1.075283 -1.463156
v 4.387820 1.709563 -1.434570
v 4.392623 1.708028 -1.463156
v 4.561933 1.069771 -1.448863
v 4.589692 1.078197 -1.448863
v 4.369038 1.704642 -1.448863
v 4.396837 1.713068 -1.448863
v 4.178467 1.078276 -1.448863
v 4.206305 1.070007 -1.448863
v 4.368014 1.714840 -1.448863
v 4.395813 1.706571 -1.448863
v 4.573391 1.073275 -1.463156
v 4.578195 1.074732 -1.434570
v 4.380536 1.708107 -1.463156
v 4.385339 1.709563 -1.434570
v -4.668781 1.076819 -1.434570
v -4.663977 1.075283 -1.463156
v -4.466869 1.709563 -1.434570
v -4.462066 1.708028 -1.463156
v -4.292756 1.069771 -1.448863
v -4.264997 1.078197 -1.448863
v -4.485651 1.704642 -1.448863
v -4.457853 1.713068 -1.448863
v -4.676223 1.078276 -1.448863
v -4.648385 1.070007 -1.448863
v -4.486675 1.714840 -1.448863
v -4.458877 1.706571 -1.448863
v -4.281299 1.073275 -1.463156
v -4.276495 1.074732 -1.434570
v -4.474154 1.708107 -1.463156
v -4.469350 1.709563 -1.434570
v -4.271999 1.076819 1.441183
v -4.276803 1.075283 1.469768
v -4.473910 1.709563 1.441183
v -4.478714 1.708028 1.469768
v -4.648024 1.069771 1.455476
v -4.675783 1.078197 1.455476
v -4.455129 1.704642 1.455476
v -4.482928 1.713068 1.455476
v -4.264557 1.078276 1.455476
v -4.292396 1.070007 1.455476
v -4.454105 1.714840 1.455476
v -4.481904 1.706571 1.455476
v -4.659482 1.073275 1.469768
v -4.664325 1.074732 1.441183
v -4.466626 1.708107 1.469768
v -4.471430 1.709563 1.441183
v 4.582690 1.076819 1.441181
v 4.577886 1.075283 1.469767
v 4.380778 1.709563 1.441181
v 4.375975 1.708028 1.469767
v 4.206666 1.069771 1.455474
v 4.178906 1.078197 1.455474
v 4.399560 1.704642 1.455474
v 4.371762 1.713068 1.455474
v 4.590132 1.078276 1.455474
v 4.562294 1.070007 1.455474
v 4.400584 1.714840 1.455474
v 4.372786 1.706571 1.455474
v 4.195208 1.073275 1.469767
v 4.190365 1.074732 1.441181
v 4.388063 1.708107 1.469767
v 4.383259 1.709563 1.441181
vn 0.9385 -0.2981 0.1739
vn 0.9386 -0.2981 0.1739
vn -0.0000 -0.0000 1.0000
vn -0.9421 -0.2857 0.1758
vn -0.9421 -0.2856 0.1758
vn 0.9385 -0.2982 0.1739
vn -0.9386 -0.2981 -0.1739
vn -0.9385 -0.2981 -0.1739
vn -0.0000 -0.0000 -1.0000
vn 0.9421 -0.2856 -0.1758
vt 0.146700 0.000000
vt 0.677179 0.000000
vt 0.147458 3.101027
vt 0.677179 3.101027
vt 0.146700 3.097995
vt 0.677179 3.097995
vt 0.148216 3.103300
vt 0.678694 3.101027
s 1
usemtl Chains.001
f 1/1/1 2/2/2 3/3/2
f 2/2/2 4/4/2 3/3/2
s 0
f 5/1/3 6/2/3 7/5/3
f 6/2/3 8/6/3 7/5/3
f 9/1/3 10/2/3 11/7/3
f 10/2/3 12/8/3 11/7/3
s 1
f 13/1/4 14/2/4 15/5/5
f 14/2/4 16/6/5 15/5/5
f 17/1/6 18/2/1 19/3/6
f 18/2/1 20/4/2 19/3/6
s 0
f 21/1/3 22/2/3 23/5/3
f 22/2/3 24/6/3 23/5/3
f 25/1/3 26/2/3 27/7/3
f 26/2/3 28/8/3 27/7/3
s 1
f 29/1/5 30/2/5 31/5/5
f 30/2/5 32/6/5 31/5/5
f 33/1/7 34/2/8 35/3/8
f 34/2/8 36/4/7 35/3/8
s 0
f 37/1/9 38/2/9 39/5/9
f 38/2/9 40/6/9 39/5/9
f 41/1/9 42/2/9 43/7/9
f 42/2/9 44/8/9 43/7/9
s 1
f 45/1/10 46/2/10 47/5/10
f 46/2/10 48/6/10 47/5/10
f 49/1/7 50/2/8 51/3/7
f 50/2/8 52/4/7 51/3/7
s 0
f 53/1/9 54/2/9 55/5/9
f 54/2/9 56/6/9 55/5/9
f 57/1/9 58/2/9 59/7/9
f 58/2/9 60/8/9 59/7/9
s 1
f 61/1/10 62/2/10 63/5/10
f 62/2/10 64/6/10 63/5/10
