# Blender 5.2.0 Alpha
# www.blender.org
mtllib MainFloors.mtl
o MainFloors
v 10.901011 3.324243 -4.854707
v 7.684370 3.324243 -2.105407
v 10.901011 3.324243 -2.105407
v 10.901011 3.324243 2.152739
v 7.684370 3.324243 2.152739
v 10.901011 3.324243 4.902040
v 7.684370 3.324243 4.902040
v -7.757912 3.324243 4.902040
v -7.757912 3.324243 2.152739
v -10.974553 3.324243 4.902040
v -10.974553 3.324243 2.152739
v -10.974553 3.324243 -2.105407
v -7.757912 3.324243 -2.105407
v -10.974553 3.324243 -4.854707
v -7.757912 3.324243 -4.854707
v 7.684370 3.324243 -4.854707
v -10.944917 -0.020050 -4.845750
v -10.944917 -0.020050 4.900338
v -0.024074 -0.020050 -4.841750
v 10.900768 -0.020050 -4.837749
v -1.552192 -0.020050 4.900338
v 1.520045 -0.020050 4.900338
v 10.900768 -0.020050 4.900338
vn -0.0000 1.0000 -0.0000
vt 6.718900 3.185200
vt 5.731164 2.327084
vt 6.718900 2.327084
vt 6.718900 1.017760
vt 5.731164 1.017760
vt 6.718900 0.141596
vt 5.731164 0.141596
vt 0.987736 0.141596
vt 0.987736 1.017760
vt 0.000000 0.141596
vt 0.000000 1.017760
vt 0.000000 2.327084
vt 0.987736 2.327084
vt 0.000000 3.185200
vt 0.987736 3.185200
vt 5.731164 3.185200
vt 8.617500 1.264315
vt 8.617500 5.952500
vt 3.364783 1.266881
vt -1.890500 1.266881
vt 4.098675 5.952500
vt 2.620627 5.952500
vt -1.890500 5.952500
s 0
usemtl MainFloors.001
f 1/1/1 2/2/1 3/3/1
f 3/3/1 2/2/1 4/4/1
f 2/2/1 5/5/1 4/4/1
f 4/4/1 5/5/1 6/6/1
f 6/6/1 5/5/1 7/7/1
f 7/7/1 5/5/1 8/8/1
f 5/5/1 9/9/1 8/8/1
f 8/8/1 9/9/1 10/10/1
f 10/10/1 9/9/1 11/11/1
f 11/11/1 9/9/1 12/12/1
f 9/9/1 13/13/1 12/12/1
f 12/12/1 13/13/1 14/14/1
f 14/14/1 13/13/1 15/15/1
f 15/15/1 13/13/1 16/16/1
f 13/13/1 2/2/1 16/16/1
f 2/2/1 1/1/1 16/16/1
f 17/17/1 18/18/1 19/19/1
f 19/19/1 18/18/1 20/20/1
f 18/18/1 21/21/1 20/20/1
f 21/21/1 22/22/1 20/20/1
f 22/22/1 23/23/1 20/20/1
