# Blender 5.2.0 Alpha
# www.blender.org
mtllib Doors&Windows.mtl
o Doors&Windows
v -3.427469 2.072464 5.026654
v -3.427469 2.072464 5.026654
v -3.427469 2.072464 5.026654
v -3.323114 2.112001 5.026654
v -3.323114 2.112001 5.026654
v -2.563573 2.077574 5.026654
v -2.563573 2.077574 5.026654
v -2.563573 2.077574 5.026654
v -2.875297 2.146428 5.026654
v -2.875297 2.146428 5.026654
v -2.712308 2.119801 5.026654
v -2.712308 2.119801 5.026654
v -2.987184 2.154227 5.026654
v -2.987184 2.154227 5.026654
v -3.151249 2.144007 5.026654
v -3.151249 2.144007 5.026654
v -2.987184 2.154227 4.893519
v -2.987184 2.154227 4.893519
v -3.151249 2.144007 4.893519
v -3.151249 2.144007 4.893519
v -3.323114 2.112001 4.893519
v -3.323114 2.112001 4.893519
v -3.427469 2.072464 4.893519
v -3.427469 2.072464 4.893519
v -3.427469 2.072464 4.893519
v -3.428545 1.904364 5.026654
v -3.428545 1.904364 5.026654
v -3.428545 1.904364 5.026654
v -2.544746 1.902482 5.026654
v -2.544746 1.902482 5.026654
v -2.544746 1.902482 5.026654
v -3.434731 1.117928 5.026654
v -3.434731 1.117928 5.026654
v -3.434731 1.117928 5.026654
v -2.537215 1.124921 5.026654
v -2.537215 1.124921 5.026654
v -2.537215 1.124921 5.026654
v -3.434731 1.117928 4.965869
v -3.434731 1.117928 4.965869
v -3.434731 1.117928 4.965869
v -3.434731 1.117928 4.965869
v -2.537215 1.124921 4.965869
v -2.537215 1.124921 4.965869
v -2.537215 1.124921 4.965869
v -2.537215 1.124921 4.965869
v -2.544746 1.902482 4.965869
v -2.544746 1.902482 4.965869
v -2.544746 1.902482 4.965869
v -2.544746 1.902482 4.965869
v -3.428545 1.904364 4.965869
v -3.428545 1.904364 4.965869
v -3.428545 1.904364 4.965869
v -3.428545 1.904364 4.965869
v -3.508157 1.051226 4.928483
v -3.508157 1.051226 4.928483
v -2.468900 1.055261 4.928483
v -2.468900 1.055261 4.928483
v -2.472665 1.975101 4.928483
v -2.472665 1.975101 4.928483
v -3.505199 1.975907 4.928483
v -3.505199 1.975907 4.928483
v -3.545005 1.017875 4.893519
v -3.545005 1.017875 4.893519
v -3.545005 1.017875 4.893519
v -2.434742 1.020565 4.893519
v -2.434742 1.020565 4.893519
v -2.434742 1.020565 4.893519
v -2.436625 2.011410 4.893519
v -2.436625 2.011410 4.893519
v -2.436625 2.011410 4.893519
v -3.543391 2.011948 4.893519
v -3.543391 2.011948 4.893519
v -3.543391 2.011948 4.893519
v -3.581583 2.047719 4.893519
v -3.581583 0.984524 4.893519
v -2.400584 0.984524 4.893519
v -2.399508 0.984524 4.893519
v -2.400584 0.985600 4.893519
v -2.400584 2.047719 4.893519
v -2.563573 2.077574 4.893519
v -2.563573 2.077574 4.893519
v -2.563573 2.077574 4.893519
v -2.712308 2.119801 4.893519
v -2.712308 2.119801 4.893519
v -2.875297 2.146428 4.893519
v -2.875297 2.146428 4.893519
v -2.960557 2.314527 4.893519
v -3.048237 2.314527 4.893519
v -3.213647 2.294624 4.893519
v -3.365071 2.258583 4.893519
v -3.488523 2.217971 4.893519
v -3.594224 2.218509 4.893519
v -3.594224 0.958435 4.893519
v -2.373688 0.958435 4.893519
v -2.373688 2.227922 4.893519
v -2.521616 2.224963 4.893519
v -2.619517 2.261004 4.893519
v -2.763410 2.294624 4.893519
v 0.382604 1.575427 4.998144
v 0.382604 1.575427 4.998144
v 0.375611 1.545304 4.906698
v 0.375611 1.545304 4.906698
v 0.375611 1.545304 4.906698
v 0.375611 1.545304 4.998144
v 0.375611 1.545304 4.998144
v 0.375611 1.545304 4.998144
v 0.412727 1.498236 4.906698
v 0.412727 1.498236 4.906698
v 0.391479 1.486671 4.906698
v 0.391479 1.486671 4.906698
v 0.391479 1.486671 4.906698
v 0.377225 1.506305 4.906698
v 0.377225 1.506305 4.906698
v 0.377225 1.506305 4.906698
v 0.384217 1.524056 4.998144
v 0.384217 1.524056 4.998144
v 0.384217 1.524056 4.906698
v 0.384217 1.524056 4.906698
v 0.390672 1.532932 4.998144
v 0.390672 1.532932 4.998144
v 0.390672 1.532932 4.998144
v 0.377225 1.506305 4.998144
v 0.377225 1.506305 4.998144
v 0.377225 1.506305 4.998144
v 0.391479 1.486671 4.998144
v 0.391479 1.486671 4.998144
v 0.391479 1.486671 4.998144
v 0.412727 1.498236 4.998144
v 0.412727 1.498236 4.998144
v 0.432092 1.493933 4.998144
v 0.432092 1.493933 4.998144
v 0.432092 1.493933 4.998144
v 0.445540 1.431803 4.998144
v 0.445540 1.431803 4.998144
v 0.444733 1.472685 4.998144
v 0.444733 1.472685 4.998144
v 0.445540 1.431803 4.906698
v 0.445540 1.431803 4.906698
v 0.457912 1.409749 4.998144
v 0.457912 1.409749 4.998144
v 0.457912 1.409749 4.906698
v 0.457912 1.409749 4.906698
v 0.444733 1.472685 4.906698
v 0.444733 1.472685 4.906698
v 0.432092 1.493933 4.906698
v 0.432092 1.493933 4.906698
v 0.432092 1.493933 4.906698
v 0.390672 1.532932 4.906698
v 0.390672 1.532932 4.906698
v 0.390672 1.532932 4.906698
v 0.382604 1.575427 4.906698
v 0.382604 1.575427 4.906698
v 0.383411 1.594524 4.998144
v 0.383411 1.594524 4.998144
v 0.383411 1.594524 4.998144
v -0.037510 1.594524 4.998144
v -0.037510 1.594524 4.998144
v -0.508726 1.495009 4.998144
v -0.508726 1.495009 4.998144
v -0.508726 1.495009 4.998144
v -0.493127 1.504691 4.998144
v -0.493127 1.504691 4.998144
v -0.493127 1.504691 4.998144
v -0.478334 1.497429 4.998144
v -0.478334 1.497429 4.998144
v -0.478334 1.497429 4.998144
v -0.461390 1.505229 4.906698
v -0.461390 1.505229 4.906698
v -0.461390 1.505229 4.906698
v -0.461390 1.505229 4.998144
v -0.461390 1.505229 4.998144
v -0.461390 1.505229 4.998144
v -0.461121 1.526208 4.998144
v -0.461121 1.526208 4.998144
v -0.461121 1.526208 4.998144
v -0.459238 1.543421 4.998144
v -0.459238 1.543421 4.998144
v -0.467576 1.532125 4.998144
v -0.467576 1.532125 4.998144
v -0.467576 1.532125 4.998144
v -0.461121 1.563593 4.906698
v -0.461121 1.563593 4.906698
v -0.461121 1.563593 4.998144
v -0.461121 1.563593 4.998144
v -0.458431 1.584572 4.998144
v -0.458431 1.584572 4.998144
v -0.465693 1.571931 4.998144
v -0.465693 1.571931 4.998144
v -0.465693 1.571931 4.998144
v -0.458431 1.584572 4.906698
v -0.458431 1.584572 4.906698
v -0.465693 1.571931 4.906698
v -0.465693 1.571931 4.906698
v -0.465693 1.571931 4.906698
v -0.459238 1.543421 4.906698
v -0.459238 1.543421 4.906698
v -0.467576 1.532125 4.906698
v -0.467576 1.532125 4.906698
v -0.467576 1.532125 4.906698
v -0.461121 1.526208 4.906698
v -0.461121 1.526208 4.906698
v -0.461121 1.526208 4.906698
v -0.478334 1.497429 4.906698
v -0.478334 1.497429 4.906698
v -0.478334 1.497429 4.906698
v -0.493127 1.504691 4.906698
v -0.493127 1.504691 4.906698
v -0.493127 1.504691 4.906698
v -0.508726 1.495009 4.906698
v -0.508726 1.495009 4.906698
v -0.518947 1.461389 4.998144
v -0.518947 1.461389 4.998144
v -0.518947 1.461389 4.906698
v -0.518947 1.461389 4.906698
v -0.546919 1.397645 4.998144
v -0.546919 1.397645 4.998144
v -0.546919 1.397645 4.998144
v -0.531050 1.421045 4.906698
v -0.531050 1.421045 4.906698
v -0.531050 1.421045 4.998144
v -0.531050 1.421045 4.998144
v -0.531050 1.421045 4.998144
v -0.458431 1.594524 4.998144
v -0.458431 1.594524 4.998144
v -0.458431 1.594524 4.998144
v -0.458431 1.594524 4.906698
v -0.458431 1.594524 4.906698
v -0.458431 1.594524 4.906698
v -0.547457 1.594524 4.906698
v -0.547457 1.594524 4.906698
v -0.547457 1.594524 4.906698
v -0.546919 1.397645 4.906698
v -0.546919 1.397645 4.906698
v -0.546919 1.397645 4.906698
v -0.541539 0.046395 4.998144
v -0.541539 0.046395 4.998144
v -0.541539 0.046395 4.998144
v -0.031862 0.046395 4.998144
v -0.031862 0.046395 4.998144
v 0.477815 0.046395 4.998144
v 0.477815 0.046395 4.998144
v 0.477815 0.046395 4.998144
v 0.477815 1.401680 4.998144
v 0.477815 1.401680 4.998144
v 0.477815 1.401680 4.998144
v 0.477815 1.401680 4.906698
v 0.477815 1.401680 4.906698
v 0.477815 1.401680 4.906698
v 0.477815 1.594524 4.906698
v 0.477815 1.594524 4.906698
v 0.477815 1.594524 4.906698
v 0.383411 1.594524 4.906698
v 0.383411 1.594524 4.906698
v 0.383411 1.594524 4.906698
v -0.037510 1.594524 4.845913
v -0.037510 1.594524 4.845913
v -0.547457 1.594524 4.845913
v -0.547457 1.594524 4.845913
v -0.547457 1.594524 4.845913
v -0.541539 0.046395 4.845913
v -0.541539 0.046395 4.845913
v -0.541539 0.046395 4.845913
v -0.031862 0.046395 4.845913
v -0.031862 0.046395 4.845913
v 0.477815 0.046395 4.845913
v 0.477815 0.046395 4.845913
v 0.477815 0.046395 4.845913
v 0.477815 1.594524 4.845913
v 0.477815 1.594524 4.845913
v 0.477815 1.594524 4.845913
v -0.035359 1.827711 4.845913
v -0.035359 1.827711 4.845913
v -0.759396 1.832014 4.845913
v -0.759396 1.832014 4.845913
v -0.759396 1.832014 4.845913
v -0.759396 1.832014 4.845913
v -0.750521 -0.017079 4.845913
v -0.750521 -0.017079 4.845913
v -0.750521 -0.017079 4.845913
v -0.030786 -0.017079 4.845913
v -0.030786 -0.017079 4.845913
v 0.688679 -0.017079 4.845913
v 0.688679 -0.017079 4.845913
v 0.688679 -0.017079 4.845913
v 0.694596 1.823408 4.845913
v 0.694596 1.823408 4.845913
v 0.694596 1.823408 4.845913
v 0.694596 1.823408 4.845913
v 0.779587 1.914047 4.742902
v 0.779587 1.914047 4.742902
v 0.779587 1.914047 4.742902
v -0.035359 1.914047 4.742902
v -0.035359 1.914047 4.742902
v -0.841967 1.914047 4.742902
v -0.841967 1.914047 4.742902
v -0.841967 1.914047 4.742902
v -0.874511 1.948474 5.097121
v -0.874511 1.948474 4.742902
v -0.858373 1.914047 5.097390
v -0.766658 1.834166 5.148761
v -0.766658 1.834166 5.148761
v -0.743259 -0.014928 5.148761
v -0.743259 -0.014928 5.148761
v -0.023524 -0.014928 5.148761
v 0.695941 -0.014928 5.148761
v 0.695941 -0.014928 5.148761
v 0.701858 1.825559 5.148761
v 0.701858 1.825559 5.148761
v 0.795993 1.914047 5.097390
v 0.812131 1.948474 5.097121
v 0.812131 1.948474 4.742902
v 0.812131 1.948474 4.742902
v -0.035628 1.948474 4.742902
v -0.876931 1.948474 4.742902
v 2.502557 2.072425 5.026761
v 2.502557 2.072425 5.026761
v 2.502557 2.072425 5.026761
v 2.606936 2.112074 5.026761
v 2.606936 2.112074 5.026761
v 3.366478 2.077640 5.026761
v 3.366478 2.077640 5.026761
v 3.366478 2.077640 5.026761
v 3.054748 2.146343 5.026761
v 3.054748 2.146343 5.026761
v 3.217566 2.119855 5.026761
v 3.217566 2.119855 5.026761
v 2.942753 2.154289 5.026761
v 2.942753 2.154289 5.026761
v 2.778693 2.144108 5.026761
v 2.778693 2.144108 5.026761
v 2.942753 2.154289 4.893576
v 2.942753 2.154289 4.893576
v 2.778693 2.144108 4.893576
v 2.778693 2.144108 4.893576
v 2.606936 2.112074 4.893576
v 2.606936 2.112074 4.893576
v 2.502557 2.072425 4.893576
v 2.502557 2.072425 4.893576
v 2.502557 2.072425 4.893576
v 2.501398 1.904227 5.026761
v 2.501398 1.904227 5.026761
v 2.501398 1.904227 5.026761
v 3.385185 1.902571 5.026761
v 3.385185 1.902571 5.026761
v 3.385185 1.902571 5.026761
v 2.495355 1.117948 5.026761
v 2.495355 1.117948 5.026761
v 2.495355 1.117948 5.026761
v 3.392800 1.124901 5.026761
v 3.392800 1.124901 5.026761
v 3.392800 1.124901 5.026761
v 2.495355 1.117948 4.965838
v 2.495355 1.117948 4.965838
v 2.495355 1.117948 4.965838
v 2.495355 1.117948 4.965838
v 3.392800 1.124901 4.965838
v 3.392800 1.124901 4.965838
v 3.392800 1.124901 4.965838
v 3.392800 1.124901 4.965838
v 3.385185 1.902571 4.965838
v 3.385185 1.902571 4.965838
v 3.385185 1.902571 4.965838
v 3.385185 1.902571 4.965838
v 2.501398 1.904227 4.965838
v 2.501398 1.904227 4.965838
v 2.501398 1.904227 4.965838
v 2.501398 1.904227 4.965838
v 2.421851 1.051232 4.928424
v 2.421851 1.051232 4.928424
v 3.461172 1.055288 4.928424
v 3.461172 1.055288 4.928424
v 3.457365 1.975082 4.928424
v 3.457365 1.975082 4.928424
v 2.424831 1.975992 4.928424
v 2.424831 1.975992 4.928424
v 2.385099 1.017873 4.893576
v 2.385099 1.017873 4.893576
v 2.385099 1.017873 4.893576
v 3.495275 1.020439 4.893576
v 3.495275 1.020439 4.893576
v 3.495275 1.020439 4.893576
v 3.493454 2.011420 4.893576
v 3.493454 2.011420 4.893576
v 3.493454 2.011420 4.893576
v 2.386589 2.011834 4.893576
v 2.386589 2.011834 4.893576
v 2.386589 2.011834 4.893576
v 2.348347 2.047675 4.893576
v 2.348347 0.984515 4.893576
v 3.529461 0.984515 4.893576
v 3.530620 0.984515 4.893576
v 3.529461 0.985674 4.893576
v 3.529461 2.047675 4.893576
v 3.366478 2.077640 4.893576
v 3.366478 2.077640 4.893576
v 3.366478 2.077640 4.893576
v 3.217566 2.119855 4.893576
v 3.217566 2.119855 4.893576
v 3.054748 2.146343 4.893576
v 3.054748 2.146343 4.893576
v 2.969490 2.314541 4.893576
v 2.881665 2.314541 4.893576
v 2.716281 2.294510 4.893576
v 2.564886 2.258751 4.893576
v 2.441469 2.217860 4.893576
v 2.335766 2.218440 4.893576
v 2.335766 0.958441 4.893576
v 3.556197 0.958441 4.893576
v 3.556197 2.227876 4.893576
v 3.408445 2.224979 4.893576
v 3.310439 2.260903 4.893576
v 3.166742 2.294593 4.893576
v 11.002461 5.467387 -0.092453
v 11.002461 5.467387 -0.092453
v 11.002461 5.380649 -0.205497
v 11.002461 5.380649 -0.205497
v 11.002461 5.527108 0.043342
v 11.002461 5.527108 0.043342
v 11.002461 5.527108 0.043342
v 11.002461 5.382071 0.287203
v 11.002461 5.382071 0.287203
v 11.002461 5.382071 0.287203
v 11.002461 5.480895 0.148565
v 11.002461 5.480895 0.148565
v 11.002461 5.254097 0.383895
v 11.002461 5.254097 0.383895
v 11.002461 4.986773 0.451437
v 11.002461 4.986773 0.451437
v 11.002461 4.986773 0.451437
v 11.002461 5.047205 0.443616
v 11.002461 5.047205 0.443616
v 11.002461 4.986773 0.043342
v 11.002461 4.986773 0.043342
v 11.002461 5.047205 0.043342
v 11.002461 5.136076 0.432241
v 11.002461 5.136076 0.432241
v 11.002461 5.126833 -0.350534
v 11.002461 5.126833 -0.350534
v 11.002461 5.252675 -0.299344
v 11.002461 5.252675 -0.299344
v 10.902215 5.126833 -0.350534
v 10.902215 5.126833 -0.350534
v 10.902215 5.252675 -0.299344
v 10.902215 5.252675 -0.299344
v 10.902215 5.380649 -0.205497
v 10.902215 5.380649 -0.205497
v 10.902215 5.467387 -0.092453
v 10.902215 5.467387 -0.092453
v 10.902215 5.527108 0.043342
v 10.902215 5.527108 0.043342
v 10.902215 5.527108 0.043342
v 10.902215 5.480895 0.148565
v 10.902215 5.480895 0.148565
v 10.902215 5.382071 0.287203
v 10.902215 5.382071 0.287203
v 10.902215 5.382071 0.287203
v 10.902215 5.254097 0.383895
v 10.902215 5.254097 0.383895
v 10.902215 5.136076 0.432241
v 10.902215 5.136076 0.432241
v 10.902215 5.047205 0.443616
v 10.902215 5.047205 0.443616
v 10.902215 4.986773 0.451437
v 10.902215 4.986773 0.451437
v 10.902215 4.986773 0.451437
v 10.941318 4.625602 0.437217
v 10.941318 4.625602 0.437217
v 10.941318 4.684612 0.405224
v 10.941318 4.684612 0.405224
v 10.941318 4.684612 0.405224
v 10.941318 4.656174 0.418021
v 10.941318 4.656174 0.418021
v 10.993929 4.656174 0.418021
v 10.993929 4.656174 0.418021
v 10.993929 4.684612 0.405224
v 10.993929 4.684612 0.405224
v 10.993929 4.684612 0.405224
v 10.941318 4.683901 0.381051
v 10.941318 4.683901 0.381051
v 10.941318 4.683901 0.381051
v 10.941318 4.698121 0.368254
v 10.941318 4.698121 0.368254
v 10.941318 4.698121 0.368254
v 10.941318 4.718028 0.378918
v 10.941318 4.718028 0.378918
v 10.941318 4.718028 0.378918
v 10.993929 4.718028 0.378918
v 10.993929 4.718028 0.378918
v 10.993929 4.718028 0.378918
v 10.941318 4.732958 0.367543
v 10.941318 4.732958 0.367543
v 10.941318 4.732958 0.367543
v 10.941318 4.747177 0.373231
v 10.941318 4.747177 0.373231
v 10.941318 4.747177 0.373231
v 10.993929 4.747177 0.373231
v 10.993929 4.747177 0.373231
v 10.993929 4.747177 0.373231
v 10.941318 4.754287 0.367543
v 10.941318 4.754287 0.367543
v 10.941318 4.786281 0.462101
v 10.941318 4.786281 0.462101
v 10.941318 4.786281 0.462101
v 10.941318 4.615648 0.460679
v 10.941318 4.615648 0.460679
v 10.941318 4.615648 0.460679
v 10.993929 4.615648 0.460679
v 10.993929 4.615648 0.460679
v 10.993929 4.615648 0.460679
v 10.993929 4.180536 0.456414
v 10.993929 4.180536 0.456414
v 10.993929 4.625602 0.437217
v 10.993929 4.625602 0.437217
v 10.993929 4.683901 0.381051
v 10.993929 4.683901 0.381051
v 10.993929 4.683901 0.381051
v 10.993929 4.698121 0.368254
v 10.993929 4.698121 0.368254
v 10.993929 4.698121 0.368254
v 10.993929 4.732958 0.367543
v 10.993929 4.732958 0.367543
v 10.993929 4.732958 0.367543
v 10.993929 4.754287 0.367543
v 10.993929 4.754287 0.367543
v 10.993929 4.786281 0.366832
v 10.993929 4.786281 0.366832
v 10.993929 4.786281 0.366832
v 10.941318 4.786281 0.366832
v 10.941318 4.786281 0.366832
v 10.941318 4.786281 0.366832
v 10.902215 4.786281 0.462101
v 10.902215 4.786281 0.462101
v 10.902215 4.786281 0.462101
v 10.902215 4.180536 0.456414
v 10.902215 4.180536 0.456414
v 10.993929 3.367901 0.449304
v 10.993929 3.367901 0.449304
v 10.993929 3.367901 0.449304
v 10.993929 3.367901 0.043342
v 10.993929 3.367901 0.043342
v 10.993929 4.180536 0.043342
v 10.993929 4.786281 0.043342
v 10.993929 4.786281 0.043342
v 10.941318 4.695988 -0.301477
v 10.941318 4.695988 -0.301477
v 10.941318 4.695988 -0.301477
v 10.941318 4.705230 -0.294368
v 10.941318 4.705230 -0.294368
v 10.941318 4.705230 -0.294368
v 10.941318 4.696699 -0.319962
v 10.941318 4.696699 -0.319962
v 10.941318 4.696699 -0.319962
v 10.941318 4.634845 -0.349112
v 10.941318 4.634845 -0.349112
v 10.941318 4.634845 -0.349112
v 10.993929 4.670393 -0.337737
v 10.993929 4.670393 -0.337737
v 10.993929 4.670393 -0.337737
v 10.941318 4.670393 -0.337737
v 10.941318 4.670393 -0.337737
v 10.941318 4.670393 -0.337737
v 10.993929 4.696699 -0.319962
v 10.993929 4.696699 -0.319962
v 10.993929 4.696699 -0.319962
v 10.941318 4.725137 -0.301477
v 10.941318 4.725137 -0.301477
v 10.941318 4.725137 -0.301477
v 10.993929 4.725137 -0.301477
v 10.993929 4.725137 -0.301477
v 10.993929 4.725137 -0.301477
v 10.941318 4.732958 -0.290102
v 10.941318 4.732958 -0.290102
v 10.941318 4.732958 -0.290102
v 10.941318 4.751443 -0.295079
v 10.941318 4.751443 -0.295079
v 10.941318 4.751443 -0.295079
v 10.993929 4.751443 -0.295079
v 10.993929 4.751443 -0.295079
v 10.993929 4.751443 -0.295079
v 10.993929 4.758553 -0.288680
v 10.993929 4.758553 -0.288680
v 10.993929 4.758553 -0.288680
v 10.941318 4.758553 -0.288680
v 10.941318 4.758553 -0.288680
v 10.941318 4.758553 -0.288680
v 10.993929 4.786281 -0.287969
v 10.993929 4.786281 -0.287969
v 10.993929 4.786281 -0.287969
v 10.993929 4.732958 -0.290102
v 10.993929 4.732958 -0.290102
v 10.993929 4.732958 -0.290102
v 10.993929 4.705230 -0.294368
v 10.993929 4.705230 -0.294368
v 10.993929 4.705230 -0.294368
v 10.993929 4.695988 -0.301477
v 10.993929 4.695988 -0.301477
v 10.993929 4.695988 -0.301477
v 10.993929 4.634845 -0.349112
v 10.993929 4.634845 -0.349112
v 10.993929 4.634845 -0.349112
v 10.993929 4.615648 -0.369730
v 10.993929 4.615648 -0.369730
v 10.993929 4.615648 -0.369730
v 10.941318 4.615648 -0.369730
v 10.941318 4.615648 -0.369730
v 10.941318 4.615648 -0.369730
v 10.941318 4.786281 -0.381816
v 10.941318 4.786281 -0.381816
v 10.941318 4.786281 -0.381816
v 10.941318 4.786281 -0.287969
v 10.941318 4.786281 -0.287969
v 10.941318 4.786281 -0.287969
v 10.902215 4.786281 0.043342
v 10.902215 4.786281 0.043342
v 10.902215 4.986773 0.043342
v 10.902215 4.986773 0.043342
v 11.002461 4.986773 -0.372574
v 11.002461 4.986773 -0.372574
v 11.002461 4.986773 -0.372574
v 11.002461 5.047205 -0.363332
v 11.002461 5.047205 -0.363332
v 10.902215 5.047205 -0.363332
v 10.902215 5.047205 -0.363332
v 10.902215 5.123279 -0.513345
v 10.902215 5.123279 -0.513345
v 10.902215 5.297466 -0.471398
v 10.902215 5.297466 -0.471398
v 10.902215 5.468098 -0.342002
v 10.902215 5.468098 -0.342002
v 10.902215 5.578298 -0.223982
v 10.902215 5.578298 -0.223982
v 10.902215 5.655082 -0.086765
v 10.902215 5.655082 -0.086765
v 10.902215 5.682810 0.043342
v 10.902215 5.682810 0.043342
v 10.902215 5.613846 0.240990
v 10.902215 5.613846 0.240990
v 10.902215 5.519999 0.367543
v 10.902215 5.519999 0.367543
v 10.902215 5.374250 0.479876
v 10.902215 5.374250 0.479876
v 10.902215 5.225658 0.556660
v 10.902215 5.225658 0.556660
v 10.902215 5.047205 0.597896
v 10.902215 5.047205 0.597896
v 10.902215 4.786281 0.597896
v 10.902215 4.786281 0.597896
v 10.902215 4.180536 0.597185
v 10.902215 4.180536 0.597185
v 10.902215 3.367901 0.449304
v 10.902215 3.367901 0.449304
v 10.902215 3.367901 0.449304
v 10.902215 3.367901 0.043342
v 10.902215 3.367901 0.043342
v 10.993929 3.367901 -0.375418
v 10.993929 3.367901 -0.375418
v 10.993929 3.367901 -0.375418
v 10.993929 4.180536 -0.378973
v 10.993929 4.180536 -0.378973
v 10.993929 4.614226 -0.380395
v 10.993929 4.614226 -0.380395
v 10.993929 4.614226 -0.380395
v 10.941318 4.614226 -0.380395
v 10.941318 4.614226 -0.380395
v 10.941318 4.614226 -0.380395
v 10.902215 4.786281 -0.381816
v 10.902215 4.786281 -0.381816
v 10.902215 4.786281 -0.381816
v 10.902215 4.986773 -0.372574
v 10.902215 4.986773 -0.372574
v 10.902215 4.986773 -0.372574
v 10.902215 5.047205 -0.531831
v 10.902215 5.047205 -0.531831
v 10.856002 5.047205 -0.578044
v 10.856002 5.047205 -0.578044
v 10.856002 5.140342 -0.561691
v 10.856002 5.140342 -0.561691
v 10.856002 5.320928 -0.500548
v 10.856002 5.320928 -0.500548
v 10.856002 5.502935 -0.378262
v 10.856002 5.502935 -0.378262
v 10.856002 5.616690 -0.256687
v 10.856002 5.616690 -0.256687
v 10.856002 5.697741 -0.093875
v 10.856002 5.697741 -0.093875
v 10.856002 5.734711 0.043342
v 10.856002 5.734711 0.043342
v 10.856002 5.703428 0.157807
v 10.856002 5.703428 0.157807
v 10.856002 5.650816 0.280094
v 10.856002 5.650816 0.280094
v 10.856002 5.552703 0.413045
v 10.856002 5.552703 0.413045
v 10.856002 5.406244 0.531776
v 10.856002 5.406244 0.531776
v 10.856002 5.406244 0.531776
v 10.856002 5.237745 0.613537
v 10.856002 5.237745 0.613537
v 10.856002 5.047205 0.649797
v 10.856002 5.047205 0.649797
v 10.856002 4.786281 0.649797
v 10.856002 4.786281 0.649797
v 10.856002 4.180536 0.649797
v 10.856002 4.180536 0.649797
v 10.856002 3.313868 0.649797
v 10.856002 3.313868 0.649797
v 10.856002 3.313868 0.649797
v 10.902215 3.313868 0.595763
v 10.902215 3.313868 0.595763
v 10.902215 3.313868 0.595763
v 10.902215 3.313868 0.043342
v 10.902215 3.313868 0.043342
v 10.902215 3.367901 -0.375418
v 10.902215 3.367901 -0.375418
v 10.902215 3.367901 -0.375418
v 10.902215 4.180536 -0.378973
v 10.902215 4.180536 -0.378973
v 10.902215 4.786281 -0.532542
v 10.902215 4.786281 -0.532542
v 10.856002 4.786281 -0.578044
v 10.856002 4.786281 -0.578044
v 10.856002 4.786281 -0.578044
v 11.007438 4.180536 -0.578044
v 11.007438 4.786281 -0.578044
v 11.007438 4.786281 -0.578044
v 11.007438 5.047205 -0.578044
v 11.007438 5.140342 -0.561691
v 11.007438 5.320928 -0.500548
v 11.007438 5.502935 -0.378262
v 11.007438 5.616690 -0.256687
v 11.007438 5.697741 -0.093875
v 11.007438 5.734711 0.043342
v 11.007438 5.703428 0.157807
v 11.007438 5.650816 0.280094
v 11.007438 5.552703 0.413045
v 11.007438 5.406244 0.531776
v 11.007438 5.406244 0.531776
v 11.007438 5.237745 0.613537
v 11.007438 5.047205 0.649797
v 11.007438 4.786281 0.649797
v 11.007438 4.180536 0.649797
v 11.007438 3.313868 0.649797
v 11.007438 3.313868 0.649797
v 11.007438 3.313868 0.043342
v 11.007438 3.313868 -0.578044
v 11.007438 3.313868 -0.578044
v 10.856002 3.313868 -0.578044
v 10.856002 3.313868 -0.578044
v 10.856002 3.313868 -0.578044
v 10.902215 3.313868 -0.534674
v 10.902215 3.313868 -0.534674
v 10.902215 3.313868 -0.534674
v 10.902215 4.180536 -0.534674
v 10.902215 4.180536 -0.534674
v 10.856002 4.180536 -0.578044
v 10.856002 4.180536 -0.578044
v -0.364478 1.415586 -4.890059
v -0.364478 1.415586 -4.890059
v -0.364478 1.415586 -4.890059
v -0.358079 1.422695 -4.837447
v -0.358079 1.422695 -4.837447
v -0.364478 1.415586 -4.837447
v -0.364478 1.415586 -4.837447
v -0.364478 1.415586 -4.837447
v -0.369454 1.386436 -4.890059
v -0.369454 1.386436 -4.890059
v -0.369454 1.386436 -4.890059
v -0.358079 1.400655 -4.837447
v -0.358079 1.400655 -4.837447
v -0.358079 1.400655 -4.837447
v -0.369454 1.386436 -4.837447
v -0.369454 1.386436 -4.837447
v -0.369454 1.386436 -4.837447
v -0.395760 1.353021 -4.837447
v -0.395760 1.353021 -4.837447
v -0.395760 1.353021 -4.837447
v -0.359501 1.366529 -4.837447
v -0.359501 1.366529 -4.837447
v -0.359501 1.366529 -4.837447
v -0.371587 1.352310 -4.837447
v -0.371587 1.352310 -4.837447
v -0.371587 1.352310 -4.837447
v -0.395760 1.353021 -4.890059
v -0.395760 1.353021 -4.890059
v -0.395760 1.353021 -4.890059
v -0.409269 1.323871 -4.890059
v -0.409269 1.323871 -4.890059
v -0.409269 1.323871 -4.837447
v -0.409269 1.323871 -4.837447
v -0.357368 1.454689 -4.837447
v -0.357368 1.454689 -4.837447
v -0.357368 1.454689 -4.837447
v -0.357368 1.454689 -4.890059
v -0.357368 1.454689 -4.890059
v -0.357368 1.454689 -4.890059
v -0.358079 1.422695 -4.890059
v -0.358079 1.422695 -4.890059
v -0.358079 1.400655 -4.890059
v -0.358079 1.400655 -4.890059
v -0.358079 1.400655 -4.890059
v -0.359501 1.366529 -4.890059
v -0.359501 1.366529 -4.890059
v -0.359501 1.366529 -4.890059
v -0.371587 1.352310 -4.890059
v -0.371587 1.352310 -4.890059
v -0.371587 1.352310 -4.890059
v -0.427754 1.294010 -4.890059
v -0.427754 1.294010 -4.890059
v -0.427754 1.294010 -4.837447
v -0.427754 1.294010 -4.837447
v -0.451216 1.284057 -4.890059
v -0.451216 1.284057 -4.890059
v -0.451216 1.284057 -4.890059
v -0.447661 0.848945 -4.890059
v -0.447661 0.848945 -4.890059
v -0.451216 1.284057 -4.837447
v -0.451216 1.284057 -4.837447
v -0.451216 1.284057 -4.837447
v -0.452638 1.454689 -4.837447
v -0.452638 1.454689 -4.837447
v -0.452638 1.454689 -4.837447
v -0.452638 1.454689 -4.798344
v -0.452638 1.454689 -4.798344
v -0.452638 1.454689 -4.798344
v 0.214960 2.049057 -4.898591
v 0.214960 2.049057 -4.898591
v 0.101206 2.135795 -4.898591
v 0.101206 2.135795 -4.898591
v -0.033878 2.195517 -4.898591
v -0.033878 2.195517 -4.898591
v -0.033878 2.195517 -4.898591
v -0.422777 1.804485 -4.898591
v -0.422777 1.804485 -4.898591
v -0.434152 1.714903 -4.898591
v -0.434152 1.714903 -4.898591
v -0.375142 1.922505 -4.898591
v -0.375142 1.922505 -4.898591
v -0.277740 2.050479 -4.898591
v -0.277740 2.050479 -4.898591
v -0.277740 2.050479 -4.898591
v -0.139101 2.149304 -4.898591
v -0.139101 2.149304 -4.898591
v -0.033878 1.714903 -4.898591
v -0.033878 1.655182 -4.898591
v -0.033878 1.655182 -4.898591
v -0.441973 1.655182 -4.898591
v -0.441973 1.655182 -4.898591
v -0.441973 1.655182 -4.898591
v -0.441973 1.655182 -4.798344
v -0.441973 1.655182 -4.798344
v -0.441973 1.655182 -4.798344
v -0.434152 1.714903 -4.798344
v -0.434152 1.714903 -4.798344
v -0.422777 1.804485 -4.798344
v -0.422777 1.804485 -4.798344
v -0.375142 1.922505 -4.798344
v -0.375142 1.922505 -4.798344
v -0.277740 2.050479 -4.798344
v -0.277740 2.050479 -4.798344
v -0.277740 2.050479 -4.798344
v -0.139101 2.149304 -4.798344
v -0.139101 2.149304 -4.798344
v -0.033878 2.195517 -4.798344
v -0.033878 2.195517 -4.798344
v -0.033878 2.195517 -4.798344
v 0.101206 2.135795 -4.798344
v 0.101206 2.135795 -4.798344
v 0.214960 2.049057 -4.798344
v 0.214960 2.049057 -4.798344
v 0.308808 1.920372 -4.798344
v 0.308808 1.920372 -4.798344
v 0.308808 1.920372 -4.898591
v 0.308808 1.920372 -4.898591
v 0.359287 1.795242 -4.798344
v 0.359287 1.795242 -4.798344
v 0.359287 1.795242 -4.898591
v 0.359287 1.795242 -4.898591
v 0.372084 1.714903 -4.798344
v 0.372084 1.714903 -4.798344
v 0.372084 1.714903 -4.898591
v 0.372084 1.714903 -4.898591
v 0.382038 1.655182 -4.898591
v 0.382038 1.655182 -4.898591
v 0.382038 1.655182 -4.898591
v -0.033878 1.655182 -4.798344
v -0.033878 1.655182 -4.798344
v -0.033878 1.454689 -4.798344
v -0.033878 1.454689 -4.798344
v 0.304542 1.419851 -4.890059
v 0.304542 1.419851 -4.890059
v 0.304542 1.419851 -4.890059
v 0.298854 1.401366 -4.837447
v 0.298854 1.401366 -4.837447
v 0.298854 1.401366 -4.837447
v 0.304542 1.419851 -4.837447
v 0.304542 1.419851 -4.837447
v 0.304542 1.419851 -4.837447
v 0.310230 1.393546 -4.837447
v 0.310230 1.393546 -4.837447
v 0.310230 1.393546 -4.837447
v 0.310230 1.393546 -4.890059
v 0.310230 1.393546 -4.890059
v 0.310230 1.393546 -4.890059
v 0.303831 1.373639 -4.837447
v 0.303831 1.373639 -4.837447
v 0.303831 1.373639 -4.837447
v 0.310941 1.363685 -4.837447
v 0.310941 1.363685 -4.837447
v 0.310941 1.363685 -4.837447
v 0.328715 1.365107 -4.837447
v 0.328715 1.365107 -4.837447
v 0.328715 1.365107 -4.837447
v 0.328715 1.365107 -4.890059
v 0.328715 1.365107 -4.890059
v 0.328715 1.365107 -4.890059
v 0.347200 1.338090 -4.837447
v 0.347200 1.338090 -4.837447
v 0.347200 1.338090 -4.837447
v 0.347200 1.338090 -4.890059
v 0.347200 1.338090 -4.890059
v 0.347200 1.338090 -4.890059
v 0.358576 1.303253 -4.837447
v 0.358576 1.303253 -4.837447
v 0.358576 1.303253 -4.837447
v 0.358576 1.303253 -4.890059
v 0.358576 1.303253 -4.890059
v 0.358576 1.303253 -4.890059
v 0.310941 1.363685 -4.890059
v 0.310941 1.363685 -4.890059
v 0.310941 1.363685 -4.890059
v 0.303831 1.373639 -4.890059
v 0.303831 1.373639 -4.890059
v 0.303831 1.373639 -4.890059
v 0.298854 1.401366 -4.890059
v 0.298854 1.401366 -4.890059
v 0.298854 1.401366 -4.890059
v 0.298143 1.426961 -4.890059
v 0.298143 1.426961 -4.890059
v 0.298143 1.426961 -4.890059
v 0.298143 1.426961 -4.837447
v 0.298143 1.426961 -4.837447
v 0.298143 1.426961 -4.837447
v 0.297432 1.454689 -4.890059
v 0.297432 1.454689 -4.890059
v 0.297432 1.454689 -4.890059
v 0.297432 1.454689 -4.837447
v 0.297432 1.454689 -4.837447
v 0.297432 1.454689 -4.837447
v 0.390569 1.454689 -4.837447
v 0.390569 1.454689 -4.837447
v 0.390569 1.454689 -4.837447
v 0.379194 1.284057 -4.837447
v 0.379194 1.284057 -4.837447
v 0.379194 1.284057 -4.837447
v 0.379194 1.284057 -4.890059
v 0.379194 1.284057 -4.890059
v 0.379194 1.284057 -4.890059
v -0.033878 1.454689 -4.890059
v -0.033878 1.454689 -4.890059
v -0.033878 0.848945 -4.890059
v -0.033878 0.036309 -4.890059
v -0.033878 0.036309 -4.890059
v -0.440551 0.036309 -4.890059
v -0.440551 0.036309 -4.890059
v -0.440551 0.036309 -4.890059
v -0.447661 0.848945 -4.798344
v -0.447661 0.848945 -4.798344
v -0.587721 0.848945 -4.798344
v -0.587721 0.848945 -4.798344
v -0.588432 1.454689 -4.798344
v -0.588432 1.454689 -4.798344
v -0.589143 1.714903 -4.798344
v -0.589143 1.714903 -4.798344
v -0.547907 1.894066 -4.798344
v -0.547907 1.894066 -4.798344
v -0.471123 2.042659 -4.798344
v -0.471123 2.042659 -4.798344
v -0.358079 2.188407 -4.798344
v -0.358079 2.188407 -4.798344
v -0.231527 2.282254 -4.798344
v -0.231527 2.282254 -4.798344
v -0.033878 2.350507 -4.798344
v -0.033878 2.350507 -4.798344
v 0.095518 2.323490 -4.798344
v 0.095518 2.323490 -4.798344
v 0.233445 2.245995 -4.798344
v 0.233445 2.245995 -4.798344
v 0.351466 2.136506 -4.798344
v 0.351466 2.136506 -4.798344
v 0.480862 1.965874 -4.798344
v 0.480862 1.965874 -4.798344
v 0.522809 1.791687 -4.798344
v 0.522809 1.791687 -4.798344
v 0.541294 1.714903 -4.798344
v 0.541294 1.714903 -4.798344
v 0.382038 1.655182 -4.798344
v 0.382038 1.655182 -4.798344
v 0.382038 1.655182 -4.798344
v 0.390569 1.454689 -4.798344
v 0.390569 1.454689 -4.798344
v 0.390569 1.454689 -4.798344
v 0.389858 1.282635 -4.837447
v 0.389858 1.282635 -4.837447
v 0.389858 1.282635 -4.837447
v 0.389858 1.282635 -4.890059
v 0.389858 1.282635 -4.890059
v 0.389858 1.282635 -4.890059
v 0.387725 0.848945 -4.890059
v 0.387725 0.848945 -4.890059
v 0.384170 0.036309 -4.890059
v 0.384170 0.036309 -4.890059
v 0.384170 0.036309 -4.890059
v -0.033878 0.036309 -4.798344
v -0.033878 0.036309 -4.798344
v -0.440551 0.036309 -4.798344
v -0.440551 0.036309 -4.798344
v -0.440551 0.036309 -4.798344
v -0.586299 -0.017724 -4.798344
v -0.586299 -0.017724 -4.798344
v -0.586299 -0.017724 -4.798344
v -0.640333 -0.017724 -4.752131
v -0.640333 -0.017724 -4.752131
v -0.640333 -0.017724 -4.752131
v -0.640333 0.848945 -4.752131
v -0.640333 0.848945 -4.752131
v -0.640333 1.454689 -4.752131
v -0.640333 1.454689 -4.752131
v -0.640333 1.714903 -4.752131
v -0.640333 1.714903 -4.752131
v -0.604074 1.906153 -4.752131
v -0.604074 1.906153 -4.752131
v -0.523023 2.074652 -4.752131
v -0.523023 2.074652 -4.752131
v -0.523023 2.074652 -4.752131
v -0.403581 2.221111 -4.752131
v -0.403581 2.221111 -4.752131
v -0.270630 2.318514 -4.752131
v -0.270630 2.318514 -4.752131
v -0.149055 2.371836 -4.752131
v -0.149055 2.371836 -4.752131
v -0.033878 2.403119 -4.752131
v -0.033878 2.403119 -4.752131
v 0.103339 2.366149 -4.752131
v 0.103339 2.366149 -4.752131
v 0.266150 2.285098 -4.752131
v 0.266150 2.285098 -4.752131
v 0.387725 2.170632 -4.752131
v 0.387725 2.170632 -4.752131
v 0.510012 1.988625 -4.752131
v 0.510012 1.988625 -4.752131
v 0.570444 1.808750 -4.752131
v 0.570444 1.808750 -4.752131
v 0.587507 1.714903 -4.752131
v 0.587507 1.714903 -4.752131
v 0.587507 1.454689 -4.752131
v 0.587507 1.454689 -4.752131
v 0.587507 1.454689 -4.752131
v 0.542005 1.454689 -4.798344
v 0.542005 1.454689 -4.798344
v 0.387725 0.848945 -4.798344
v 0.387725 0.848945 -4.798344
v 0.384170 0.036309 -4.798344
v 0.384170 0.036309 -4.798344
v 0.384170 0.036309 -4.798344
v -0.033878 -0.017724 -4.798344
v -0.033878 -0.017724 -4.798344
v -0.033878 -0.017724 -4.903567
v -0.640333 -0.017724 -4.903567
v -0.640333 -0.017724 -4.903567
v -0.640333 0.848945 -4.903567
v -0.640333 1.454689 -4.903567
v -0.640333 1.714903 -4.903567
v -0.604074 1.906153 -4.903567
v -0.523023 2.074652 -4.903567
v -0.523023 2.074652 -4.903567
v -0.403581 2.221111 -4.903567
v -0.270630 2.318514 -4.903567
v -0.149055 2.371836 -4.903567
v -0.033878 2.403119 -4.903567
v 0.103339 2.366149 -4.903567
v 0.266150 2.285098 -4.903567
v 0.387725 2.170632 -4.903567
v 0.510012 1.988625 -4.903567
v 0.570444 1.808750 -4.903567
v 0.587507 1.714903 -4.903567
v 0.587507 1.454689 -4.903567
v 0.587507 1.454689 -4.903567
v 0.587507 0.848945 -4.903567
v 0.587507 -0.017724 -4.752131
v 0.587507 -0.017724 -4.752131
v 0.587507 -0.017724 -4.752131
v 0.587507 -0.017724 -4.903567
v 0.587507 -0.017724 -4.903567
v 0.587507 0.848945 -4.752131
v 0.587507 0.848945 -4.752131
v 0.543427 0.848945 -4.798344
v 0.543427 0.848945 -4.798344
v 0.544138 -0.017724 -4.798344
v 0.544138 -0.017724 -4.798344
v 0.544138 -0.017724 -4.798344
vn -0.0000 -0.0000 -1.0000
vn -0.0037 -1.0000 -0.0000
vn 0.1223 -0.9925 -0.0000
vn 0.2701 -0.9628 -0.0000
vn 0.3561 -0.9344 -0.0000
vn 0.3561 -0.9345 -0.0000
vn -0.0059 1.0000 -0.0000
vn -0.0078 1.0000 -0.0000
vn -0.9999 -0.0100 -0.0000
vn -0.0021 -1.0000 -0.0000
vn 1.0000 -0.0079 -0.0000
vn 0.4409 -0.0026 -0.8975
vn 0.4567 -0.0026 -0.8896
vn 0.6258 -0.0027 -0.7800
vn -0.0028 0.6672 -0.7448
vn -0.0027 0.4915 -0.8709
vn -0.0028 0.6467 -0.7627
vn -0.0026 0.4693 -0.8830
vn -0.6556 -0.0027 -0.7551
vn -0.4819 -0.0026 -0.8762
vn -0.6348 -0.0029 -0.7727
vn -0.4577 -0.0053 -0.8891
vn -0.0002 -0.6332 -0.7740
vn -0.0000 -0.4588 -0.8885
vn -0.0001 -0.6394 -0.7689
vn -0.0000 -0.4619 -0.8869
vn 0.6092 -0.0000 -0.7930
vn 0.6875 -0.0027 -0.7262
vn -0.0028 0.7235 -0.6903
vn -0.0028 0.7071 -0.7071
vn -0.7154 -0.0027 -0.6987
vn -0.6931 -0.0028 -0.7208
vn -0.0000 -0.6917 -0.7222
vn -0.0000 -0.6973 -0.7167
vn 0.6717 -0.0000 -0.7408
vn -0.2731 -0.9620 -0.0000
vn -0.2175 -0.9761 -0.0000
vn -0.1149 -0.9934 -0.0000
vn -0.0000 0.0016 -1.0000
vn -0.9903 0.1392 -0.0000
vn -0.9737 0.2280 -0.0000
vn -0.9736 0.2281 -0.0000
vn -0.9285 0.3714 -0.0000
vn -0.8802 0.4746 -0.0000
vn -0.8201 0.5722 -0.0000
vn -0.8089 -0.5880 -0.0000
vn -0.8092 -0.5875 -0.0000
vn 0.4778 -0.8785 -0.0000
vn 0.1368 -0.9906 -0.0000
vn -0.9628 -0.2703 -0.0000
vn -0.9651 -0.2619 -0.0000
vn -0.9651 -0.2620 -0.0000
vn -0.6601 -0.7512 -0.0000
vn -0.8643 -0.5030 -0.0000
vn -0.2226 -0.9749 -0.0000
vn -0.6364 -0.7714 -0.0000
vn -0.9989 0.0471 -0.0000
vn -0.0000 -0.0001 -1.0000
vn 0.4181 -0.9084 -0.0000
vn -0.0000 0.0001 -1.0000
vn 0.9569 0.2905 -0.0000
vn 0.9628 -0.2702 -0.0000
vn 0.9652 -0.2617 -0.0000
vn 0.8624 -0.5062 -0.0000
vn 0.8768 0.4808 -0.0000
vn 0.8068 -0.5908 -0.0000
vn 0.6832 0.7302 -0.0000
vn 0.9998 -0.0200 -0.0000
vn -0.4368 -0.8996 -0.0000
vn -0.4367 -0.8996 -0.0000
vn 0.5378 -0.8431 -0.0000
vn 0.7953 -0.6062 -0.0000
vn 0.5377 -0.8431 -0.0000
vn 0.7954 -0.6061 -0.0000
vn 0.9569 -0.2905 -0.0000
vn 0.9569 -0.2904 -0.0000
vn 0.9041 -0.4273 -0.0000
vn -0.0000 0.0029 -1.0000
vn -0.0000 0.0003 -1.0000
vn -0.0000 -1.0000 -0.0000
vn 1.0000 -0.0000 -0.0000
vn 0.9899 -0.1417 -0.0000
vn 1.0000 0.0040 -0.0000
vn -0.3714 -0.9285 -0.0000
vn 1.0000 0.0039 -0.0000
vn 1.0000 0.0039 0.0001
vn 1.0000 0.0040 0.0001
vn -0.0000 1.0000 -0.0000
vn -1.0000 -0.0000 -0.0000
vn -0.0000 -0.7511 -0.6602
vn -0.0000 -0.7537 -0.6572
vn -0.0028 -0.7677 -0.6408
vn -0.0056 -0.7666 -0.6421
vn -0.0000 -0.7811 -0.6244
vn -0.0000 -0.7835 -0.6213
vn -0.9057 -0.4240 -0.0000
vn -0.7425 -0.6691 -0.0311
vn -0.7792 -0.6267 -0.0111
vn -0.7124 -0.7011 -0.0311
vn -0.6766 -0.7358 -0.0282
vn -0.6537 -0.7567 -0.0111
vn -0.9997 -0.0040 -0.0242
vn -0.9998 -0.0121 0.0182
vn -0.9998 -0.0060 -0.0181
vn -0.9996 -0.0121 0.0243
vn -0.0000 -1.0000 0.0080
vn -0.0000 -1.0000 0.0079
vn 0.9997 -0.0041 -0.0241
vn 0.9997 -0.0041 -0.0242
vn 0.6801 -0.7330 -0.0111
vn 0.7026 -0.7110 -0.0282
vn 0.7936 -0.6084 -0.0110
vn 0.7208 -0.6925 -0.0311
vn 0.9057 -0.4240 -0.0000
vn 0.7425 -0.6691 -0.0311
vn -0.0041 -1.0000 -0.0000
vn 0.1222 -0.9925 -0.0000
vn 0.2703 -0.9628 -0.0000
vn -0.0060 1.0000 -0.0000
vn -0.0081 1.0000 -0.0000
vn -1.0000 -0.0098 -0.0000
vn -0.0019 -1.0000 -0.0000
vn 1.0000 -0.0077 -0.0000
vn 0.4409 -0.0026 -0.8976
vn 0.6260 -0.0025 -0.7799
vn -0.0027 0.6673 -0.7448
vn -0.0026 0.4915 -0.8709
vn -0.0028 0.6466 -0.7628
vn -0.0027 0.4694 -0.8830
vn -0.6556 -0.0028 -0.7551
vn -0.4820 -0.0026 -0.8762
vn -0.6347 -0.0028 -0.7727
vn -0.0000 -0.6334 -0.7739
vn -0.0000 -0.4588 -0.8886
vn -0.0000 -0.6394 -0.7689
vn 0.6875 -0.0028 -0.7262
vn -0.0027 0.7235 -0.6903
vn -0.0028 0.7070 -0.7072
vn -0.7154 -0.0028 -0.6987
vn -0.0003 -0.6920 -0.7219
vn -0.0002 -0.6973 -0.7168
vn -0.2170 -0.9762 -0.0000
vn -0.2732 -0.9620 -0.0000
vn -0.1150 -0.9934 -0.0000
vn -1.0000 -0.0000 0.0001
vn -0.0000 -0.2675 0.9636
vn -0.0000 -0.4873 0.8732
vn -0.0000 -0.2674 0.9636
vn -0.0000 -0.7002 0.7140
vn -0.0000 -0.7001 0.7140
vn -0.0000 -0.8606 0.5093
vn -0.0000 -0.9154 0.4026
vn -0.0000 -0.9156 -0.4021
vn -0.0000 -0.8695 -0.4939
vn -0.0000 -0.7167 -0.6973
vn -0.0000 -0.7167 -0.6974
vn -0.0000 -0.4936 -0.8697
vn -0.0000 -0.2532 -0.9674
vn -0.0000 -0.2533 -0.9674
vn -0.0000 -0.1293 -0.9916
vn -0.0000 -0.1294 -0.9916
vn -0.0000 -0.4715 -0.8819
vn -0.0000 -0.4116 -0.9114
vn -0.0000 -0.4714 -0.8819
vn -0.0000 -0.9998 0.0179
vn -1.0000 -0.0000 -0.0001
vn -0.0000 -0.6152 -0.7883
vn -0.0000 -0.6153 -0.7883
vn -0.0000 -0.6304 -0.7763
vn -0.0000 -0.3470 -0.9379
vn -0.0000 -0.7615 -0.6482
vn -0.0000 -0.9222 -0.3868
vn -0.0000 0.0098 -1.0000
vn -0.0000 -0.6717 -0.7408
vn -0.0000 0.4556 -0.8902
vn -0.0000 0.4557 -0.8902
vn -0.0000 0.3776 -0.9260
vn -0.0000 0.3775 -0.9260
vn -0.0000 -0.0282 -0.9996
vn -0.0000 0.0099 -1.0000
vn -0.0000 0.0100 -1.0000
vn -0.0000 -0.5408 0.8411
vn -0.0000 -0.4430 0.8965
vn -0.0000 -0.5690 0.8223
vn -1.0000 -0.0000 -0.0033
vn -1.0000 -0.0000 -0.0032
vn -0.0000 0.3289 0.9444
vn -1.0000 -0.0000 -0.0003
vn -0.0000 0.2818 0.9595
vn -0.0000 -0.6832 0.7302
vn -0.0000 -0.3807 0.9247
vn -0.0000 -0.6833 0.7302
vn -0.0000 -0.3806 0.9247
vn -0.0000 -0.0323 0.9995
vn -1.0000 -0.0000 -0.0002
vn -0.0000 -0.8266 0.5628
vn -0.0000 -0.6061 0.7954
vn -0.0000 -0.6062 0.7953
vn -0.0000 -0.9987 -0.0514
vn -0.0000 -0.9070 0.4211
vn -0.0000 -0.5409 0.8411
vn -1.0000 -0.0000 -0.0017
vn -1.0000 -0.0000 0.0003
vn -0.0000 -0.1567 0.9876
vn -0.0000 0.0038 1.0000
vn -0.0000 0.0039 1.0000
vn -0.0000 -0.9916 0.1295
vn -0.0000 -0.9071 0.4210
vn -0.0000 -0.1568 0.9876
vn -0.7058 -0.0605 0.7058
vn -0.7152 -0.0755 0.6949
vn -0.7189 -0.1614 0.6761
vn -0.7381 -0.1579 0.6560
vn -0.6348 -0.3468 0.6904
vn -0.6315 -0.3651 0.6841
vn -0.7267 -0.4479 0.5209
vn -0.7347 -0.4402 0.5162
vn -0.7366 -0.5492 0.3947
vn -0.7289 -0.5540 0.4023
vn -0.6877 -0.6814 0.2504
vn -0.6880 -0.6849 0.2398
vn -0.7502 -0.6610 -0.0139
vn -0.7487 -0.6630 -0.0000
vn -0.7639 -0.6087 -0.2143
vn -0.7503 -0.5827 -0.3123
vn -0.7444 -0.5721 -0.3445
vn -0.7643 -0.4658 -0.4461
vn -0.7693 -0.4550 -0.4485
vn -0.7938 -0.3329 -0.5089
vn -0.7938 -0.3329 -0.5090
vn -0.7800 -0.2136 -0.5882
vn -0.7720 -0.2038 -0.6021
vn -0.7461 -0.0694 -0.6622
vn -0.7395 -0.0604 -0.6704
vn -0.7434 -0.0000 -0.6688
vn -0.7514 0.0001 -0.6599
vn -0.7513 -0.0000 -0.6599
vn -0.7588 -0.0000 -0.6513
vn -0.7589 -0.0000 -0.6512
vn -0.0000 0.0044 1.0000
vn -0.7002 -0.0000 0.7140
vn -0.0000 0.0892 -0.9960
vn -0.0000 0.2503 -0.9682
vn -0.0000 0.4431 -0.8965
vn -0.0000 0.6481 -0.7615
vn -0.0000 0.6484 -0.7613
vn -0.0000 0.8202 -0.5721
vn -0.0000 0.8201 -0.5722
vn -0.0000 0.9345 -0.3561
vn -0.0000 0.9344 -0.3561
vn -0.0000 0.9433 0.3319
vn -0.0000 0.8661 0.4999
vn -0.0000 0.7248 0.6889
vn -0.0000 0.5378 0.8431
vn -0.0000 0.5377 0.8431
vn -0.0000 0.3145 0.9493
vn -0.0000 0.0939 0.9956
vn -0.0000 -0.0000 1.0000
vn -0.6860 -0.0000 0.7276
vn -0.6832 -0.0000 0.7302
vn 0.7763 -0.6304 -0.0000
vn 0.9379 -0.3470 -0.0000
vn 0.7883 -0.6153 -0.0000
vn -0.0179 -0.9998 -0.0000
vn 0.9113 -0.4117 -0.0000
vn 0.8819 -0.4714 -0.0000
vn 0.9996 -0.0282 -0.0000
vn 0.9260 0.3776 -0.0000
vn 0.9260 0.3775 -0.0000
vn 0.8902 0.4556 -0.0000
vn 0.7408 -0.6717 -0.0000
vn 0.6483 -0.7614 -0.0000
vn 0.3868 -0.9222 -0.0000
vn 1.0000 0.0098 -0.0000
vn 1.0000 0.0099 -0.0000
vn 0.9915 -0.1298 -0.0000
vn 0.9916 -0.1294 -0.0000
vn 0.9674 -0.2532 -0.0000
vn 0.9674 -0.2531 -0.0000
vn 0.8696 -0.4937 -0.0000
vn 0.6974 -0.7167 -0.0000
vn 0.6973 -0.7167 -0.0000
vn 0.4939 -0.8695 -0.0000
vn 0.4021 -0.9156 -0.0000
vn -0.4023 -0.9155 -0.0000
vn -0.5089 -0.8608 -0.0000
vn -0.5093 -0.8606 -0.0000
vn -0.7140 -0.7002 -0.0000
vn -0.7140 -0.7001 -0.0000
vn -0.8733 -0.4872 -0.0000
vn -0.9636 -0.2674 -0.0000
vn -0.9876 -0.1568 -0.0000
vn -0.9595 0.2818 -0.0000
vn -0.9444 0.3289 -0.0000
vn -0.8223 -0.5691 -0.0000
vn -0.8965 -0.4430 -0.0000
vn -0.8965 -0.4431 -0.0000
vn -0.8411 -0.5409 -0.0000
vn 0.0514 -0.9987 -0.0000
vn -0.7954 -0.6061 -0.0000
vn -0.5628 -0.8266 -0.0000
vn -0.5629 -0.8266 -0.0000
vn -0.7302 -0.6832 -0.0000
vn -0.9247 -0.3806 -0.0000
vn -0.9995 -0.0323 -0.0000
vn -0.4211 -0.9070 -0.0000
vn -0.4210 -0.9070 -0.0000
vn -0.0000 0.0001 1.0000
vn -0.0000 -0.0001 1.0000
vn -1.0000 0.0041 -0.0000
vn -0.4210 -0.9071 -0.0000
vn -0.1295 -0.9916 -0.0000
vn -1.0000 0.0040 -0.0000
vn -1.0000 0.0039 -0.0000
vn 0.6513 -0.0000 0.7589
vn 0.6599 0.0001 0.7514
vn 0.6599 -0.0000 0.7513
vn 0.6659 -0.0000 0.7461
vn 0.6659 -0.0000 0.7460
vn 0.6622 -0.0694 0.7461
vn 0.6704 -0.0604 0.7395
vn 0.6019 -0.2035 0.7722
vn 0.5882 -0.2136 0.7800
vn 0.5126 -0.3332 0.7913
vn 0.5088 -0.3328 0.7939
vn 0.4485 -0.4550 0.7693
vn 0.4423 -0.4653 0.7667
vn 0.3408 -0.5713 0.7466
vn 0.3123 -0.5828 0.7502
vn 0.2108 -0.6077 0.7657
vn 0.0139 -0.6610 0.7503
vn -0.0000 -0.6630 0.7486
vn -0.2399 -0.6849 0.6880
vn -0.2503 -0.6814 0.6877
vn -0.4023 -0.5540 0.7288
vn -0.3984 -0.5498 0.7342
vn -0.5163 -0.4401 0.7347
vn -0.5209 -0.4479 0.7267
vn -0.6809 -0.3651 0.6348
vn -0.6904 -0.3468 0.6349
vn -0.6762 -0.1614 0.7188
vn -0.6560 -0.1579 0.7380
vn -0.6977 -0.0755 0.7124
vn -0.7140 -0.0000 0.7002
vn -0.7113 -0.0000 0.7029
vn -1.0000 0.0044 -0.0000
vn -0.9956 0.0935 -0.0000
vn -0.9494 0.3139 -0.0000
vn -0.9494 0.3140 -0.0000
vn -0.8431 0.5377 -0.0000
vn -0.8431 0.5378 -0.0000
vn -0.6885 0.7252 -0.0000
vn -0.4998 0.8662 -0.0000
vn -0.4997 0.8662 -0.0000
vn -0.3320 0.9433 -0.0000
vn 0.3561 0.9344 -0.0000
vn 0.5720 0.8202 -0.0000
vn 0.5717 0.8205 -0.0000
vn 0.7614 0.6483 -0.0000
vn 0.8965 0.4430 -0.0000
vn 0.8966 0.4429 -0.0000
vn 0.9681 0.2504 -0.0000
vn 0.9960 0.0892 -0.0000
vn 0.9960 0.0891 -0.0000
vn -0.7275 -0.0000 0.6861
vn -0.7302 -0.0000 0.6832
vt 0.799811 0.341332
vt 0.769432 0.353434
vt 0.548875 0.342814
vt 0.639518 0.364055
vt 0.592097 0.355904
vt 0.671873 0.366277
vt 0.719541 0.363314
vt 0.472557 0.268966
vt 0.472557 0.307495
vt 0.440696 0.268966
vt 0.440696 0.307495
vt 0.472557 0.348742
vt 0.440696 0.348742
vt 0.472557 0.375169
vt 0.440696 0.375169
vt 0.472557 0.578190
vt 0.800058 0.289712
vt 0.543441 0.289218
vt 0.801787 0.048903
vt 0.541218 0.050879
vt 0.472557 0.080023
vt 0.472557 0.290947
vt 0.440696 0.080023
vt 0.440696 0.290947
vt 0.472557 0.089161
vt 0.472557 0.281809
vt 0.440696 0.089161
vt 0.440696 0.281809
vt 0.472557 0.081752
vt 0.472557 0.289218
vt 0.440696 0.081752
vt 0.440696 0.289218
vt 0.472557 0.087926
vt 0.472557 0.283044
vt 0.440696 0.087926
vt 0.440696 0.283044
vt 0.823027 0.028403
vt 0.521213 0.029638
vt 0.522448 0.311447
vt 0.822286 0.311694
vt 0.833895 0.018277
vt 0.511333 0.019018
vt 0.512074 0.322808
vt 0.833401 0.322808
vt 0.844515 0.333923
vt 0.844515 0.007903
vt 0.501454 0.007903
vt 0.501207 0.007903
vt 0.501454 0.008397
vt 0.501454 0.333923
vt 0.440696 0.578190
vt 0.472557 0.167208
vt 0.472557 0.203762
vt 0.440696 0.167208
vt 0.440696 0.203762
vt 0.472557 0.242538
vt 0.440696 0.242538
vt 0.664217 0.415427
vt 0.689656 0.415427
vt 0.737571 0.409500
vt 0.781534 0.398385
vt 0.817347 0.385789
vt 0.848220 0.386036
vt 0.848220 0.000000
vt 0.493797 0.000000
vt 0.493797 0.389000
vt 0.536526 0.388012
vt 0.565176 0.399126
vt 0.606916 0.409500
vt 0.586416 0.888649
vt 0.588392 0.880004
vt 0.578019 0.866420
vt 0.583947 0.863209
vt 0.587898 0.868643
vt 0.585923 0.873830
vt 0.584194 0.876300
vt 0.572585 0.865185
vt 0.568634 0.847156
vt 0.568881 0.859011
vt 0.565176 0.840734
vt 0.586170 0.894083
vt 0.704228 0.894083
vt 0.836611 0.865432
vt 0.832166 0.868396
vt 0.827967 0.866173
vt 0.823274 0.868396
vt 0.823027 0.874571
vt 0.822533 0.879510
vt 0.825003 0.876300
vt 0.823027 0.885191
vt 0.822286 0.891366
vt 0.824509 0.887661
vt 0.839328 0.855800
vt 0.847232 0.837276
vt 0.842786 0.844192
vt 0.822286 0.894083
vt 0.556284 0.777506
vt 0.556284 0.917052
vt 0.526152 0.917052
vt 0.847479 0.894083
vt 0.536279 0.882968
vt 0.505900 0.882968
vt 0.505900 0.435186
vt 0.845750 0.447288
vt 0.702746 0.447288
vt 0.559742 0.447288
vt 0.559742 0.838511
vt 0.559742 0.894083
vt 0.556284 0.638207
vt 0.526152 0.638207
vt 0.505900 0.777506
vt 0.505900 0.946690
vt 0.526152 0.946690
vt 0.536279 0.948419
vt 0.556284 0.948419
vt 0.556284 0.435186
vt 0.556284 0.586340
vt 0.556284 0.755277
vt 0.505900 0.586340
vt 0.505900 0.755277
vt 0.556284 0.924215
vt 0.505900 0.924215
vt 0.556284 0.498167
vt 0.556284 0.947431
vt 0.505900 0.498167
vt 0.526152 0.947431
vt 0.505900 1.011400
vt 0.526152 1.011400
vt 0.526152 0.606840
vt 0.505900 0.606840
vt 0.703487 0.961509
vt 0.906755 0.962744
vt 0.904285 0.429011
vt 0.702499 0.429011
vt 0.500466 0.429011
vt 0.498737 0.960274
vt 0.475027 0.986455
vt 0.703734 0.986455
vt 0.929971 0.986455
vt 0.816112 0.996334
vt 0.928243 0.996334
vt 0.816853 0.986455
vt 0.805244 0.962003
vt 0.018600 0.482113
vt 0.018600 0.002223
vt 0.059105 0.482607
vt 0.059105 0.002717
vt 0.018600 0.417403
vt 0.021564 0.230683
vt 0.059105 0.417897
vt 0.062069 0.231177
vt 0.024528 0.044210
vt 0.065033 0.044704
vt 0.024528 0.487794
vt 0.027985 0.010126
vt 0.065033 0.488288
vt 0.068491 0.010620
vt 0.465888 0.996334
vt 0.703734 0.996334
vt 0.939851 0.996334
vt 0.799660 0.341354
vt 0.769449 0.353495
vt 0.548797 0.342907
vt 0.639429 0.363942
vt 0.592137 0.355895
vt 0.671899 0.366342
vt 0.719474 0.363236
vt 0.472564 0.268933
vt 0.472564 0.307614
vt 0.440800 0.268933
vt 0.440800 0.307614
vt 0.472564 0.348695
vt 0.440800 0.348695
vt 0.472564 0.375094
vt 0.440800 0.375094
vt 0.472564 0.578100
vt 0.799942 0.289827
vt 0.543432 0.289262
vt 0.801777 0.048846
vt 0.541173 0.050963
vt 0.472564 0.080045
vt 0.472564 0.290956
vt 0.440800 0.080045
vt 0.440800 0.290956
vt 0.472564 0.089080
vt 0.472564 0.281921
vt 0.440800 0.089080
vt 0.440800 0.281921
vt 0.472564 0.081739
vt 0.472564 0.289262
vt 0.440800 0.081739
vt 0.440800 0.289262
vt 0.472564 0.087950
vt 0.472564 0.283050
vt 0.440800 0.087950
vt 0.440800 0.283050
vt 0.823094 0.028376
vt 0.521268 0.029646
vt 0.522398 0.311567
vt 0.822247 0.311849
vt 0.833823 0.018211
vt 0.511386 0.019058
vt 0.511951 0.322720
vt 0.833400 0.322861
vt 0.844552 0.333731
vt 0.844552 0.008047
vt 0.501504 0.008047
vt 0.501222 0.008047
vt 0.501504 0.008329
vt 0.501504 0.333731
vt 0.440800 0.578100
vt 0.472564 0.167148
vt 0.472564 0.203711
vt 0.440800 0.167148
vt 0.440800 0.203711
vt 0.472564 0.242534
vt 0.440800 0.242534
vt 0.664134 0.415470
vt 0.689545 0.415470
vt 0.737544 0.409399
vt 0.781590 0.398388
vt 0.817447 0.385965
vt 0.848082 0.386106
vt 0.848082 0.000000
vt 0.493740 0.000000
vt 0.493740 0.389071
vt 0.536656 0.388082
vt 0.565032 0.399094
vt 0.606818 0.409399
vt 0.194929 0.835214
vt 0.149522 0.801732
vt 0.249280 0.858606
vt 0.347203 0.802191
vt 0.291476 0.840489
vt 0.386189 0.752427
vt 0.413021 0.648770
vt 0.409810 0.672162
vt 0.249280 0.648770
vt 0.249280 0.672162
vt 0.405223 0.706790
vt 0.091502 0.703350
vt 0.111912 0.751968
vt 0.068569 0.476086
vt 0.068569 0.518053
vt 0.028207 0.476086
vt 0.028207 0.518053
vt 0.068569 0.560708
vt 0.028207 0.560708
vt 0.068569 0.598777
vt 0.028207 0.598777
vt 0.068569 0.643725
vt 0.028207 0.643725
vt 0.068569 0.678812
vt 0.028207 0.678812
vt 0.068569 0.725137
vt 0.028207 0.725137
vt 0.068569 0.022245
vt 0.068569 0.064900
vt 0.028207 0.022245
vt 0.028207 0.064900
vt 0.068569 0.104344
vt 0.028207 0.104344
vt 0.068569 0.134157
vt 0.028207 0.134157
vt 0.068569 0.154109
vt 0.028207 0.154109
vt 0.068569 0.290559
vt 0.407287 0.508880
vt 0.394445 0.531813
vt 0.399719 0.520576
vt 0.061001 0.244006
vt 0.061001 0.267397
vt 0.022474 0.244006
vt 0.022474 0.267397
vt 0.061001 0.285285
vt 0.379768 0.536858
vt 0.384813 0.531583
vt 0.383896 0.544655
vt 0.022474 0.316015
vt 0.061001 0.316015
vt 0.061001 0.329545
vt 0.379309 0.550388
vt 0.381832 0.555892
vt 0.022474 0.341011
vt 0.061001 0.341011
vt 0.061001 0.347891
vt 0.379309 0.558644
vt 0.417378 0.571028
vt 0.416690 0.505211
vt 0.061001 0.217633
vt 0.022474 0.198828
vt 0.061001 0.198828
vt 0.455217 0.506357
vt 0.435036 0.506357
vt 0.435036 0.337113
vt 0.415314 0.336196
vt 0.022474 0.217633
vt 0.022474 0.285285
vt 0.061001 0.299274
vt 0.022474 0.299274
vt 0.022474 0.329545
vt 0.022474 0.347891
vt 0.022474 0.371512
vt 0.061001 0.371512
vt 0.379080 0.571028
vt 0.454300 0.471958
vt 0.454300 0.520805
vt 0.434577 0.520805
vt 0.455217 0.572633
vt 0.470353 0.572633
vt 0.470353 0.337113
vt 0.435036 0.021098
vt 0.249280 0.020869
vt 0.412333 0.020869
vt 0.249280 0.336196
vt 0.249280 0.571028
vt 0.481131 0.471958
vt 0.481131 0.306154
vt 0.110995 0.535941
vt 0.113976 0.539610
vt 0.103886 0.536399
vt 0.022474 0.345827
vt 0.061001 0.373347
vt 0.022474 0.373347
vt 0.096318 0.526080
vt 0.110995 0.547407
vt 0.022474 0.352019
vt 0.061001 0.367384
vt 0.022474 0.367384
vt 0.115811 0.550388
vt 0.113518 0.557727
vt 0.022474 0.352478
vt 0.061001 0.366926
vt 0.022474 0.366926
vt 0.061001 0.356147
vt 0.061001 0.363256
vt 0.022474 0.356147
vt 0.022474 0.363256
vt 0.022474 0.349497
vt 0.061001 0.349497
vt 0.061001 0.369907
vt 0.116499 0.571028
vt 0.116040 0.560479
vt 0.061001 0.352478
vt 0.022474 0.364862
vt 0.022474 0.354542
vt 0.061001 0.364862
vt 0.061001 0.354542
vt 0.061001 0.352019
vt 0.022474 0.364174
vt 0.022474 0.355230
vt 0.061001 0.364174
vt 0.061001 0.355230
vt 0.061001 0.353166
vt 0.061001 0.366238
vt 0.022474 0.353166
vt 0.022474 0.366238
vt 0.091731 0.512320
vt 0.061001 0.345827
vt 0.022474 0.369907
vt 0.083476 0.504981
vt 0.078889 0.571028
vt 0.481131 0.136680
vt 0.454300 0.136680
vt 0.434577 0.306154
vt 0.028207 0.290559
vt 0.068569 0.429303
vt 0.082329 0.648770
vt 0.086227 0.672162
vt 0.068569 0.449484
vt 0.028207 0.449484
vt 0.025914 0.701745
vt 0.042884 0.769397
vt 0.094713 0.835673
vt 0.142184 0.878099
vt 0.197222 0.908141
vt 0.249280 0.918690
vt 0.328628 0.892088
vt 0.379309 0.855854
vt 0.424487 0.799210
vt 0.455446 0.741648
vt 0.471958 0.672162
vt 0.471729 0.571028
vt 0.471499 0.336196
vt 0.470353 0.021098
vt 0.356606 0.019034
vt 0.255472 0.019034
vt 0.356606 0.003669
vt 0.255472 0.003669
vt 0.151127 0.019034
vt 0.081412 0.020869
vt 0.080036 0.336196
vt 0.079348 0.504523
vt 0.061001 0.335278
vt 0.061001 0.501541
vt 0.041050 0.501541
vt 0.061001 0.355688
vt 0.061001 0.363715
vt 0.022474 0.355688
vt 0.022474 0.363715
vt 0.041050 0.567129
vt 0.026143 0.567129
vt 0.454300 0.088750
vt 0.434577 0.088750
vt 0.028207 0.429303
vt 0.018576 0.672162
vt 0.000000 0.672162
vt 0.006651 0.708396
vt 0.031189 0.778341
vt 0.080036 0.848974
vt 0.129112 0.893234
vt 0.194241 0.924652
vt 0.249280 0.939100
vt 0.295375 0.926946
vt 0.344222 0.906306
vt 0.397656 0.868467
vt 0.445356 0.811593
vt 0.477920 0.746235
vt 0.492598 0.672162
vt 0.492598 0.571028
vt 0.492598 0.336196
vt 0.492598 0.000000
vt 0.470811 0.000000
vt 0.249280 0.000000
vt 0.151127 0.003669
vt 0.061001 0.024080
vt 0.026143 0.024080
vt 0.026143 0.335278
vt 0.018346 0.571028
vt 0.000000 0.571028
vt 0.017658 0.387565
vt 0.063524 0.652669
vt 0.017658 0.652669
vt 0.063524 0.000688
vt 0.063524 0.114894
vt 0.017658 0.000688
vt 0.017658 0.114894
vt 0.063524 0.155714
vt 0.017658 0.155714
vt 0.063524 0.234603
vt 0.017658 0.234603
vt 0.063524 0.314409
vt 0.017658 0.314409
vt 0.063524 0.367614
vt 0.017658 0.367614
vt 0.063524 0.438935
vt 0.017658 0.438935
vt 0.063524 0.498789
vt 0.017658 0.498789
vt 0.063524 0.549242
vt 0.017658 0.549242
vt 0.063524 0.602675
vt 0.017658 0.602675
vt 0.063524 0.660695
vt 0.017658 0.660695
vt 0.063524 0.724907
vt 0.017658 0.724907
vt 0.063524 0.001835
vt 0.063524 0.058708
vt 0.017658 0.001835
vt 0.017658 0.058708
vt 0.063524 0.123379
vt 0.017658 0.123379
vt 0.063524 0.211212
vt 0.017658 0.211212
vt 0.063524 0.415772
vt 0.017658 0.415772
vt 0.063524 0.708166
vt 0.017658 0.708166
vt 0.063524 0.012384
vt 0.063524 0.036005
vt 0.017658 0.012384
vt 0.017658 0.277717
vt 0.063524 0.277717
vt 0.017658 0.549700
vt 0.063524 0.549700
vt 0.063524 0.530895
vt 0.017429 0.000000
vt 0.017429 0.336196
vt 0.000000 0.336196
vt 0.063524 0.387565
vt 0.017658 0.008256
vt 0.063524 0.008256
vt 0.000000 0.000000
s 0
usemtl Doors&Windows.001
f 3/1/1 5/2/1 8/3/1
f 10/4/1 12/5/1 13/6/1
f 12/5/1 8/3/1 13/6/1
f 8/3/1 5/2/1 13/6/1
f 5/2/1 16/7/1 13/6/1
s 1
f 14/8/2 15/9/3 18/10/2
f 18/10/2 15/9/3 20/11/3
f 15/9/3 4/12/4 20/11/3
f 20/11/3 4/12/4 22/13/4
f 4/12/4 1/14/5 22/13/4
f 22/13/4 1/14/5 24/15/6
s 0
f 2/14/7 6/16/7 23/15/7
f 28/17/1 31/18/1 32/19/1
f 31/18/1 37/20/1 32/19/1
f 34/21/8 35/22/8 41/23/8
f 41/23/8 35/22/8 42/24/8
f 36/25/9 29/26/9 45/27/9
f 45/27/9 29/26/9 46/28/9
f 30/29/10 26/30/10 49/31/10
f 49/31/10 26/30/10 51/32/10
f 27/33/11 33/34/11 50/35/11
f 33/34/11 38/36/11 50/35/11
s 1
f 53/17/12 39/19/13 54/37/14
f 55/37/15 40/19/16 56/38/17
f 40/19/16 43/20/18 56/38/17
f 57/38/19 44/20/20 58/39/21
f 44/20/20 47/18/22 58/39/21
f 59/39/23 48/18/24 60/40/25
f 48/18/24 52/17/26 60/40/25
f 53/17/12 54/37/14 61/40/27
f 61/40/27 54/37/14 62/41/28
f 64/41/29 55/37/15 65/42/30
f 55/37/15 56/38/17 65/42/30
f 67/42/31 57/38/19 68/43/32
f 57/38/19 58/39/21 68/43/32
f 70/43/33 59/39/23 72/44/34
f 59/39/23 60/40/25 72/44/34
f 61/40/27 62/41/28 71/44/35
s 0
f 74/45/1 73/44/1 75/46/1
f 73/44/1 63/41/1 75/46/1
f 75/46/1 63/41/1 76/47/1
f 77/48/1 76/47/1 78/49/1
f 76/47/1 63/41/1 78/49/1
f 63/41/1 66/42/1 78/49/1
f 78/49/1 66/42/1 79/50/1
f 66/42/1 69/43/1 79/50/1
f 69/43/1 73/44/1 79/50/1
f 73/44/1 74/45/1 79/50/1
f 79/50/1 74/45/1 81/3/1
f 74/45/1 25/1/1 81/3/1
f 23/15/7 6/16/7 80/51/7
s 1
f 7/52/36 11/53/37 82/54/36
f 82/54/36 11/53/37 84/55/37
f 11/53/37 9/56/38 84/55/37
f 84/55/37 9/56/38 85/57/38
f 9/56/38 14/8/2 85/57/38
f 14/8/2 18/10/2 85/57/38
s 0
f 86/4/1 17/6/1 87/58/1
f 87/58/1 17/6/1 88/59/1
f 17/6/1 19/7/1 88/59/1
f 88/59/1 19/7/1 89/60/1
f 19/7/1 21/2/1 89/60/1
f 89/60/1 21/2/1 90/61/1
f 90/61/1 21/2/1 91/62/1
f 21/2/1 25/1/1 91/62/1
f 91/62/1 25/1/1 92/63/1
f 25/1/1 74/45/1 92/63/1
f 92/63/1 74/45/1 93/64/1
f 74/45/1 75/46/1 93/64/1
f 75/46/1 76/47/1 93/64/1
f 93/64/1 76/47/1 94/65/1
s 1
f 76/47/39 77/48/39 94/65/39
s 0
f 94/65/1 77/48/1 95/66/1
f 77/48/1 78/49/1 95/66/1
f 78/49/1 79/50/1 95/66/1
f 79/50/1 81/3/1 95/66/1
f 95/66/1 81/3/1 96/67/1
f 96/67/1 81/3/1 97/68/1
f 81/3/1 83/5/1 97/68/1
f 97/68/1 83/5/1 98/69/1
f 83/5/1 86/4/1 98/69/1
f 86/4/1 87/58/1 98/69/1
s 1
f 100/70/40 103/71/41 105/71/42
s 0
f 108/72/1 111/73/1 113/74/1
s 1
f 114/74/43 116/75/44 118/75/44
f 118/75/44 116/75/44 119/76/45
s 0
f 121/76/1 115/75/1 106/71/1
f 106/71/1 115/75/1 123/74/1
s 1
f 116/75/44 114/74/43 122/74/43
f 112/74/46 109/73/46 124/74/46
s 0
f 124/74/47 109/73/47 126/73/47
s 1
f 110/73/48 107/72/49 125/73/48
f 107/72/49 129/72/49 125/73/48
s 0
f 128/72/1 132/77/1 127/73/1
f 127/73/1 132/77/1 133/78/1
f 132/77/1 136/79/1 133/78/1
s 1
f 135/79/50 138/78/51 134/78/52
f 140/80/53 134/78/52 141/80/53
f 134/78/52 138/78/51 141/80/53
s 0
f 142/80/1 137/78/1 143/79/1
s 1
f 138/78/51 135/79/50 144/79/50
f 135/79/50 130/77/54 144/79/50
f 144/79/50 130/77/54 146/77/54
f 131/77/55 129/72/49 145/77/55
f 129/72/49 107/72/49 145/77/55
s 0
f 147/77/1 108/72/1 150/76/1
f 108/72/1 113/74/1 150/76/1
f 113/74/1 117/75/1 150/76/1
s 1
f 118/75/44 119/76/45 149/76/45
f 120/76/56 104/71/56 148/76/56
f 104/71/56 101/71/56 148/76/56
s 0
f 150/76/1 102/71/1 151/70/1
s 1
f 103/71/41 100/70/40 152/70/40
f 152/70/40 100/70/40 155/81/57
s 0
f 154/81/58 99/70/58 156/82/58
f 99/70/1 106/71/1 156/82/1
f 106/71/1 123/74/1 156/82/1
f 160/83/58 163/84/58 165/85/58
f 166/85/59 169/86/59 171/86/59
f 172/86/60 175/87/60 177/88/60
f 175/87/1 180/89/1 177/88/1
s 1
f 182/90/61 184/90/61 176/88/62
s 0
f 177/88/1 183/90/1 185/91/1
f 183/90/1 189/92/1 185/91/1
s 1
f 186/91/63 187/92/64 191/91/63
f 191/91/63 187/92/64 193/92/64
f 188/92/65 184/90/61 192/92/65
f 184/90/61 182/90/61 192/92/65
s 0
f 194/92/1 181/90/1 195/88/1
s 1
f 182/90/61 176/88/62 196/88/62
f 176/88/62 178/89/66 196/88/62
f 196/88/62 178/89/66 197/89/66
f 179/89/67 173/87/67 199/89/67
f 199/89/67 173/87/67 201/87/67
f 174/87/68 170/86/68 200/87/68
f 170/86/68 167/86/68 200/87/68
s 0
f 202/87/1 168/86/1 204/85/1
f 169/86/59 166/85/59 203/85/59
s 1
f 164/85/69 161/84/69 205/85/70
f 205/85/70 161/84/69 206/84/70
f 162/84/71 158/83/72 208/84/73
f 208/84/73 158/83/72 210/83/74
f 158/83/72 212/93/75 210/83/74
f 210/83/74 212/93/75 214/93/76
f 217/94/75 219/95/77 220/95/77
f 219/95/77 214/93/76 220/95/77
f 214/93/76 212/93/75 220/95/77
f 211/93/78 159/83/78 222/95/78
s 0
f 160/83/1 165/85/1 221/95/1
f 221/95/1 165/85/1 156/82/1
f 165/85/79 172/86/79 156/82/79
f 172/86/1 177/88/1 156/82/1
f 177/88/1 185/91/1 156/82/1
f 185/91/1 225/96/1 156/82/1
f 157/97/80 223/98/80 226/99/80
s 1
f 224/96/81 186/91/63 228/96/81
f 186/91/63 191/91/63 228/96/81
s 0
f 227/96/1 190/91/1 231/100/1
f 190/91/1 194/92/1 231/100/1
f 194/92/1 195/88/1 231/100/1
f 195/88/1 198/89/1 231/100/1
f 198/89/1 202/87/1 231/100/1
f 202/87/1 204/85/1 231/100/1
f 204/85/1 207/84/1 231/100/1
f 207/84/1 209/83/1 231/100/1
f 231/100/1 209/83/1 233/94/1
f 209/83/1 213/93/1 233/94/1
f 213/93/1 218/95/1 233/94/1
s 1
f 219/95/77 217/94/75 232/94/82
f 234/101/82 215/102/76 235/103/83
s 0
f 216/94/1 221/95/1 237/104/1
f 221/95/1 156/82/1 237/104/1
f 237/104/1 156/82/1 239/105/1
f 239/105/1 156/82/1 242/106/1
f 156/82/1 123/74/1 242/106/1
f 123/74/1 127/73/1 242/106/1
f 127/73/1 133/78/1 242/106/1
f 133/78/1 139/80/1 242/106/1
f 242/106/1 139/80/1 245/107/1
s 1
f 244/107/84 140/80/53 248/107/84
f 140/80/53 141/80/53 248/107/84
s 0
f 247/107/1 142/80/1 251/108/1
f 142/80/1 143/79/1 251/108/1
f 143/79/1 147/77/1 251/108/1
f 147/77/1 150/76/1 251/108/1
f 251/108/1 150/76/1 253/81/1
f 150/76/1 151/70/1 253/81/1
s 1
f 152/70/40 155/81/57 252/81/57
s 0
f 153/109/80 157/97/80 254/110/80
f 254/110/80 157/97/80 256/111/80
f 157/97/80 226/99/80 256/111/80
f 256/111/80 226/99/80 257/112/80
f 226/99/80 229/113/80 257/112/80
s 1
f 230/114/85 234/101/82 259/115/86
f 259/115/86 234/101/82 260/116/87
f 234/101/82 235/103/83 260/116/87
s 0
f 236/117/88 238/118/88 262/119/88
f 262/119/88 238/118/88 264/120/88
f 238/118/88 240/121/88 264/120/88
f 264/120/88 240/121/88 265/122/88
f 241/123/89 243/124/89 267/125/89
f 243/124/89 246/126/89 267/125/89
f 267/125/89 246/126/89 269/127/89
f 246/126/89 249/128/89 269/127/89
f 250/129/80 254/110/80 268/130/80
f 254/110/80 256/111/80 268/130/80
f 270/108/1 255/82/1 272/131/1
f 255/82/1 258/100/1 272/131/1
f 272/131/1 258/100/1 274/132/1
f 274/132/1 258/100/1 279/133/1
f 258/100/1 261/104/1 279/133/1
f 279/133/1 261/104/1 281/134/1
f 261/104/1 263/105/1 281/134/1
f 263/105/1 266/106/1 281/134/1
f 281/134/1 266/106/1 284/135/1
f 266/106/1 270/108/1 284/135/1
f 284/135/1 270/108/1 288/136/1
f 270/108/1 272/131/1 288/136/1
s 1
f 291/137/90 287/136/91 293/138/92
f 287/136/91 271/131/93 293/138/92
f 271/131/93 275/132/94 293/138/92
f 293/138/92 275/132/94 295/139/95
f 297/140/96 298/141/97 299/142/98
f 298/141/97 294/139/99 299/142/98
f 294/139/99 276/132/100 299/142/98
f 299/142/98 276/132/100 301/143/101
f 273/144/102 277/145/103 300/146/104
f 300/146/104 277/145/103 303/147/105
f 278/148/106 280/149/107 302/150/106
f 302/150/106 280/149/107 304/151/106
f 280/149/107 282/152/107 304/151/106
f 304/151/106 282/152/107 306/153/107
f 283/154/108 285/155/108 305/156/109
f 305/156/109 285/155/108 308/157/109
f 307/143/110 286/132/111 309/142/112
f 286/132/111 289/139/113 309/142/112
f 310/140/114 309/142/112 312/141/115
f 309/142/112 289/139/113 312/141/115
s 0
f 311/158/1 290/137/1 313/159/1
f 290/137/1 292/138/1 313/159/1
f 292/138/1 296/139/1 313/159/1
f 313/159/1 296/139/1 314/160/1
f 317/161/1 319/162/1 322/163/1
f 324/164/1 326/165/1 327/166/1
f 326/165/1 322/163/1 327/166/1
f 322/163/1 319/162/1 327/166/1
f 319/162/1 330/167/1 327/166/1
s 1
f 328/168/116 329/169/117 332/170/116
f 332/170/116 329/169/117 334/171/3
f 329/169/117 318/172/118 334/171/3
f 334/171/3 318/172/118 336/173/118
f 318/172/118 315/174/5 336/173/118
f 336/173/118 315/174/5 338/175/5
s 0
f 316/174/119 320/176/119 337/175/119
f 342/177/1 345/178/1 346/179/1
f 345/178/1 351/180/1 346/179/1
f 348/181/120 349/182/120 355/183/120
f 355/183/120 349/182/120 356/184/120
f 350/185/121 343/186/121 359/187/121
f 359/187/121 343/186/121 360/188/121
f 344/189/122 340/190/122 363/191/122
f 363/191/122 340/190/122 365/192/122
f 341/193/123 347/194/123 364/195/123
f 347/194/123 352/196/123 364/195/123
s 1
f 367/177/124 353/179/13 368/197/125
f 369/197/126 354/179/127 370/198/128
f 354/179/127 357/180/129 370/198/128
f 371/198/130 358/180/131 372/199/132
f 358/180/131 361/178/22 372/199/132
f 373/199/133 362/178/134 374/200/135
f 362/178/134 366/177/26 374/200/135
f 367/177/124 368/197/125 375/200/27
f 375/200/27 368/197/125 376/201/136
f 378/201/137 369/197/126 379/202/138
f 369/197/126 370/198/128 379/202/138
f 381/202/139 371/198/130 382/203/32
f 371/198/130 372/199/132 382/203/32
f 384/203/140 373/199/133 386/204/141
f 373/199/133 374/200/135 386/204/141
f 375/200/27 376/201/136 385/204/35
s 0
f 388/205/1 387/204/1 389/206/1
f 387/204/1 377/201/1 389/206/1
f 389/206/1 377/201/1 390/207/1
f 391/208/1 390/207/1 392/209/1
f 390/207/1 377/201/1 392/209/1
f 377/201/1 380/202/1 392/209/1
f 392/209/1 380/202/1 393/210/1
f 380/202/1 383/203/1 393/210/1
f 383/203/1 387/204/1 393/210/1
f 387/204/1 388/205/1 393/210/1
f 393/210/1 388/205/1 395/163/1
f 388/205/1 339/161/1 395/163/1
f 337/175/119 320/176/119 394/211/119
s 1
f 321/212/36 325/213/142 396/214/143
f 396/214/143 325/213/142 398/215/142
f 325/213/142 323/216/144 398/215/142
f 398/215/142 323/216/144 399/217/144
f 323/216/144 328/168/116 399/217/144
f 328/168/116 332/170/116 399/217/144
s 0
f 400/164/1 331/166/1 401/218/1
f 401/218/1 331/166/1 402/219/1
f 331/166/1 333/167/1 402/219/1
f 402/219/1 333/167/1 403/220/1
f 333/167/1 335/162/1 403/220/1
f 403/220/1 335/162/1 404/221/1
f 404/221/1 335/162/1 405/222/1
f 335/162/1 339/161/1 405/222/1
f 405/222/1 339/161/1 406/223/1
f 339/161/1 388/205/1 406/223/1
f 406/223/1 388/205/1 407/224/1
f 388/205/1 389/206/1 407/224/1
f 389/206/1 390/207/1 407/224/1
f 407/224/1 390/207/1 408/225/1
f 390/207/1 391/208/1 408/225/1
f 408/225/1 391/208/1 409/226/1
f 391/208/1 392/209/1 409/226/1
f 392/209/1 393/210/1 409/226/1
f 393/210/1 395/163/1 409/226/1
f 409/226/1 395/163/1 410/227/1
f 410/227/1 395/163/1 411/228/1
f 395/163/1 397/165/1 411/228/1
f 411/228/1 397/165/1 412/229/1
f 397/165/1 400/164/1 412/229/1
f 400/164/1 401/218/1 412/229/1
f 414/230/89 416/231/89 419/232/89
f 422/233/145 424/234/145 426/235/145
f 429/236/89 431/237/89 433/238/89
f 433/238/89 431/237/89 434/239/89
f 431/237/89 436/240/89 434/239/89
f 436/240/89 426/235/89 434/239/89
f 426/235/89 424/234/89 434/239/89
f 424/234/89 419/232/89 434/239/89
f 419/232/89 416/231/89 434/239/89
f 434/239/89 416/231/89 437/241/89
f 416/231/89 440/242/89 437/241/89
s 1
f 438/243/146 439/244/147 442/245/148
f 442/245/148 439/244/147 444/246/147
f 439/244/147 415/247/149 444/246/147
f 444/246/147 415/247/149 446/248/150
f 415/247/149 413/249/151 446/248/150
f 446/248/150 413/249/151 448/250/151
f 413/249/151 417/251/152 448/250/151
f 448/250/151 417/251/152 451/252/152
f 418/251/153 423/253/154 450/252/153
f 450/252/153 423/253/154 453/254/154
f 423/253/154 420/255/155 453/254/154
f 453/254/154 420/255/155 454/256/155
f 421/257/156 425/258/157 456/259/156
f 456/259/156 425/258/157 458/260/157
f 425/258/157 435/261/158 458/260/157
f 458/260/157 435/261/158 460/262/159
f 435/261/158 430/263/160 460/262/159
f 460/262/159 430/263/160 462/264/160
f 430/263/160 427/265/161 462/264/160
f 462/264/160 427/265/161 464/266/161
s 0
f 428/265/88 432/267/88 463/266/88
f 467/268/89 470/269/89 471/270/89
s 1
f 472/271/162 468/272/163 474/273/164
f 474/273/164 468/272/163 477/274/163
f 476/274/165 469/272/165 478/275/165
s 0
f 483/276/166 480/277/166 484/278/166
f 480/277/89 470/269/89 484/278/89
s 1
f 488/279/167 486/280/168 490/281/168
s 0
f 492/282/89 484/278/89 493/283/89
f 484/278/89 470/269/89 493/283/89
s 1
f 497/284/169 495/285/169 499/286/170
s 0
f 500/287/89 493/283/89 503/288/89
f 493/283/89 470/269/89 503/288/89
f 470/269/89 467/268/89 503/288/89
f 503/288/89 467/268/89 505/289/89
s 1
f 466/290/171 509/291/172 504/292/172
s 0
f 506/293/173 507/294/173 510/295/173
f 511/296/89 508/289/89 513/268/89
s 1
f 509/291/172 466/290/171 512/297/171
f 466/290/171 472/271/162 512/297/171
f 472/271/162 474/273/164 512/297/171
s 0
f 513/268/89 473/270/89 514/277/89
f 473/270/89 475/269/89 514/277/89
s 1
f 476/274/165 478/275/165 516/298/165
f 479/275/174 481/299/174 515/298/174
f 515/298/174 481/299/174 518/300/174
f 482/299/175 485/280/175 517/300/175
f 485/280/175 489/279/176 517/300/175
s 0
f 519/276/89 487/278/89 522/282/89
s 1
f 488/279/167 490/281/168 521/301/168
f 491/281/177 494/285/178 520/301/178
f 494/285/178 498/284/178 520/301/178
s 0
f 522/282/145 496/283/145 523/287/145
s 1
f 497/284/169 499/286/170 524/302/170
f 527/303/179 524/302/170 529/304/179
f 524/302/170 499/286/170 529/304/179
s 0
f 500/287/89 503/288/89 528/305/89
f 530/306/80 501/307/80 531/308/80
s 1
f 502/309/180 506/293/180 533/310/181
f 533/310/181 506/293/180 535/311/180
s 0
f 506/293/173 510/295/173 535/311/173
s 1
f 535/311/180 510/295/180 536/312/180
s 0
f 540/313/89 538/314/89 541/315/89
f 538/314/89 511/296/89 541/315/89
f 541/315/89 511/296/89 543/316/89
f 511/296/89 513/268/89 543/316/89
f 513/268/89 514/277/89 543/316/89
f 514/277/89 519/276/89 543/316/89
f 519/276/89 522/282/89 543/316/89
f 522/282/89 523/287/89 543/316/89
f 523/287/89 525/305/89 543/316/89
f 526/317/80 530/306/80 542/318/80
f 546/319/145 549/320/145 550/321/145
s 1
f 555/322/182 558/323/183 560/324/183
f 556/286/183 564/304/184 559/302/183
f 564/304/184 552/303/184 559/302/183
f 561/325/185 550/321/185 567/326/186
s 0
f 550/321/89 549/320/89 567/326/89
s 1
f 547/327/187 570/328/187 566/329/187
s 0
f 567/326/188 573/330/188 575/331/188
s 1
f 571/332/189 579/333/189 574/334/189
f 577/335/190 582/336/191 576/337/192
f 576/337/192 582/336/191 583/338/191
f 585/339/193 580/340/193 586/341/194
s 0
f 588/342/89 581/343/89 543/316/89
f 543/316/89 581/343/89 591/330/89
f 581/343/195 578/331/195 591/330/195
s 1
f 579/333/189 571/332/189 590/344/189
f 572/345/196 565/346/196 589/347/196
f 565/346/196 568/348/196 589/347/196
s 0
f 591/330/145 569/326/145 593/320/145
s 1
f 570/328/187 547/327/187 592/349/187
f 548/350/197 544/351/198 594/352/198
f 594/352/198 544/351/198 596/353/197
f 545/354/199 551/355/199 595/356/199
f 551/355/199 562/357/199 595/356/199
s 0
f 563/321/89 557/325/89 597/319/89
f 597/319/89 557/325/89 599/358/89
s 1
f 558/323/183 555/322/182 598/359/182
f 603/340/200 600/341/201 604/339/200
f 600/341/201 553/360/201 604/339/200
s 0
f 554/358/89 561/325/89 606/361/89
f 609/362/89 606/361/89 611/342/89
f 606/361/89 561/325/89 611/342/89
f 561/325/89 567/326/89 611/342/89
s 1
f 567/326/202 575/331/202 611/342/202
s 0
f 575/331/203 584/343/203 611/342/203
s 1
f 585/339/193 586/341/194 610/360/194
s 0
f 587/363/80 542/318/80 612/364/80
f 612/364/80 542/318/80 613/365/80
f 542/318/80 530/306/80 613/365/80
f 530/306/80 531/308/80 613/365/80
f 532/288/89 465/236/89 614/316/89
f 614/316/89 465/236/89 615/238/89
f 463/266/88 432/267/88 616/366/88
f 616/366/88 432/267/88 617/367/88
f 619/368/89 433/238/89 620/369/89
f 433/238/89 434/239/89 620/369/89
f 434/239/89 437/241/89 620/369/89
s 1
f 621/370/204 438/243/146 622/371/204
f 438/243/146 442/245/148 622/371/204
s 0
f 623/369/89 441/241/89 625/372/89
f 625/372/89 441/241/89 627/373/89
f 441/241/89 443/242/89 627/373/89
f 627/373/89 443/242/89 629/374/89
f 443/242/89 445/231/89 629/374/89
f 629/374/89 445/231/89 631/375/89
f 445/231/89 447/230/89 631/375/89
f 631/375/89 447/230/89 633/376/89
f 447/230/89 449/232/89 633/376/89
f 633/376/89 449/232/89 635/377/89
f 635/377/89 449/232/89 637/378/89
f 449/232/89 452/234/89 637/378/89
f 637/378/89 452/234/89 639/379/89
f 452/234/89 455/233/89 639/379/89
f 639/379/89 455/233/89 641/380/89
f 455/233/89 457/235/89 641/380/89
f 641/380/89 457/235/89 643/381/89
f 457/235/89 459/240/89 643/381/89
f 643/381/89 459/240/89 645/382/89
f 459/240/89 461/237/89 645/382/89
f 461/237/89 465/236/89 645/382/89
f 645/382/89 465/236/89 647/383/89
f 465/236/89 532/288/89 647/383/89
f 647/383/89 532/288/89 649/384/89
f 532/288/89 534/296/89 649/384/89
f 649/384/89 534/296/89 651/314/89
s 1
f 535/311/180 536/312/180 650/385/180
s 0
f 537/386/88 539/387/88 652/388/88
f 652/388/88 539/387/88 654/389/88
f 654/389/88 539/387/88 655/390/88
f 540/313/89 541/315/89 657/391/89
f 657/391/89 541/315/89 658/392/89
f 541/315/89 543/316/89 658/392/89
f 543/316/89 591/330/89 658/392/89
s 1
f 591/330/89 593/320/89 658/392/89
s 0
f 593/320/203 597/319/203 658/392/203
f 597/319/89 599/358/89 658/392/89
f 599/358/89 601/361/89 658/392/89
f 601/361/89 662/393/89 658/392/89
s 1
f 659/394/205 660/395/206 665/396/206
f 661/397/207 602/398/208 664/399/207
f 602/398/208 605/400/208 664/399/207
s 0
f 606/361/89 609/362/89 663/393/89
s 1
f 665/396/206 607/401/206 667/402/206
s 0
f 608/403/80 612/364/80 666/404/80
f 612/364/80 613/365/80 666/404/80
f 668/362/89 614/316/89 671/368/89
f 614/316/89 615/238/89 671/368/89
f 616/366/88 617/367/88 670/405/88
s 1
f 618/367/209 621/370/204 669/405/209
f 621/370/204 622/371/204 669/405/209
s 0
f 671/368/89 623/369/89 672/406/89
f 623/369/89 625/372/89 672/406/89
s 1
f 675/407/210 673/406/211 677/408/212
f 673/406/211 624/372/213 677/408/212
f 624/372/213 626/373/214 677/408/212
f 677/408/212 626/373/214 679/409/215
f 626/373/214 628/374/216 679/409/215
f 679/409/215 628/374/216 681/410/217
f 628/374/216 630/375/218 681/410/217
f 681/410/217 630/375/218 683/411/219
f 630/375/218 632/376/220 683/411/219
f 683/411/219 632/376/220 685/412/221
f 632/376/220 634/377/222 685/412/221
f 685/412/221 634/377/222 687/413/223
f 687/413/223 634/377/222 689/414/224
f 634/377/222 636/378/225 689/414/224
f 689/414/224 636/378/225 691/415/226
f 636/378/225 638/379/227 691/415/226
f 691/415/226 638/379/227 693/416/228
f 638/379/227 640/380/229 693/416/228
f 693/416/228 640/380/229 696/417/230
f 640/380/229 642/381/231 696/417/230
f 696/417/230 642/381/231 698/418/232
f 642/381/231 644/382/233 698/418/232
f 698/418/232 644/382/233 700/419/234
f 700/419/234 644/382/233 702/420/235
f 644/382/233 646/383/235 702/420/235
f 646/383/235 648/384/236 702/420/235
f 702/420/235 648/384/236 704/421/237
f 704/421/237 648/384/236 707/422/238
f 707/422/238 648/384/236 710/423/239
s 0
f 649/384/89 651/314/89 709/423/89
f 709/423/89 651/314/89 712/424/89
f 651/314/89 653/313/89 712/424/89
f 712/424/89 653/313/89 714/391/89
f 654/389/88 655/390/88 713/425/88
f 656/426/240 659/394/240 715/427/240
f 715/427/240 659/394/240 716/428/240
s 1
f 659/394/205 665/396/206 716/428/206
f 665/396/206 667/402/206 716/428/206
s 0
f 717/392/89 668/362/89 718/429/89
f 668/362/89 671/368/89 718/429/89
f 671/368/89 672/406/89 718/429/89
s 1
f 673/406/211 675/407/210 719/429/241
f 719/429/241 675/407/210 721/430/241
s 0
f 723/431/1 722/432/1 725/433/1
s 1
f 720/434/1 674/435/242 724/436/1
f 724/436/1 674/435/242 726/437/242
f 674/435/242 676/438/243 726/437/242
f 726/437/242 676/438/243 727/439/243
f 676/438/243 678/440/244 727/439/243
f 727/439/243 678/440/244 728/441/244
f 678/440/244 680/442/245 728/441/244
f 728/441/244 680/442/245 729/443/246
f 680/442/245 682/444/247 729/443/246
f 729/443/246 682/444/247 730/445/248
f 682/444/247 684/446/249 730/445/248
f 730/445/248 684/446/249 731/447/250
f 684/446/249 686/448/88 731/447/250
f 731/447/250 686/448/88 732/449/88
f 686/448/88 688/450/251 732/449/88
f 732/449/88 688/450/251 733/451/251
f 688/450/251 690/452/252 733/451/251
f 733/451/251 690/452/252 734/453/252
f 690/452/252 692/454/253 734/453/252
f 734/453/252 692/454/253 735/455/253
f 692/454/253 694/456/254 735/455/253
f 735/455/253 694/456/254 737/457/254
f 695/458/255 697/459/256 736/460/255
f 736/460/255 697/459/256 738/461/256
f 697/459/256 699/462/257 738/461/256
f 738/461/256 699/462/257 739/463/257
f 699/462/257 701/464/258 739/463/257
f 739/463/257 701/464/258 740/465/258
s 0
f 701/464/258 703/466/258 740/465/258
f 740/465/258 703/466/258 741/467/258
f 703/466/258 705/468/258 741/467/258
f 741/467/258 705/468/258 743/469/258
f 706/470/80 708/471/80 742/472/80
f 742/472/80 708/471/80 744/473/80
f 708/471/80 711/474/80 744/473/80
f 744/473/80 711/474/80 746/475/80
f 749/476/80 746/475/80 750/477/80
f 746/475/80 711/474/80 750/477/80
f 712/424/89 714/391/89 752/478/89
f 752/478/89 714/391/89 753/479/89
f 714/391/89 717/392/89 753/479/89
f 717/392/89 718/429/89 753/479/89
s 1
f 719/429/241 721/430/241 754/479/259
f 754/479/259 721/430/241 756/480/259
s 0
f 722/432/1 723/431/1 755/481/1
f 723/431/1 745/482/1 755/481/1
f 745/482/1 747/483/1 755/481/1
s 1
f 748/484/260 751/478/260 756/480/259
f 759/284/261 761/286/262 762/285/261
f 767/279/263 770/281/263 771/280/263
s 0
f 768/282/258 764/283/258 773/278/258
f 773/278/258 776/269/258 779/276/258
f 779/276/258 776/269/258 780/277/258
s 1
f 782/275/264 774/272/264 785/274/264
f 784/274/265 775/272/265 787/273/266
f 787/273/266 775/272/265 788/271/266
s 0
f 789/270/258 776/269/258 790/305/258
f 776/269/258 773/278/258 790/305/258
s 1
f 773/278/258 764/283/258 790/305/258
s 0
f 764/283/258 760/287/258 790/305/258
s 1
f 795/303/267 792/304/267 796/302/262
f 792/304/267 761/286/262 796/302/262
f 761/286/262 759/284/261 796/302/262
s 0
f 797/287/258 757/283/258 800/282/258
s 1
f 758/284/268 763/285/268 799/301/268
f 763/285/268 769/281/269 799/301/268
f 770/281/263 767/279/263 798/301/263
s 0
f 800/282/258 765/278/258 801/276/258
s 1
f 766/279/270 772/280/270 803/300/270
f 772/280/270 777/299/270 803/300/270
f 802/300/271 778/299/271 805/298/271
f 778/299/271 781/275/271 805/298/271
f 782/275/264 785/274/264 804/298/264
s 0
f 783/269/258 786/270/258 806/277/258
f 806/277/258 786/270/258 808/268/258
s 1
f 787/273/266 788/271/266 807/297/272
f 788/271/266 810/290/272 807/297/272
f 810/290/272 813/291/273 807/297/272
s 0
f 808/268/258 811/289/258 814/296/258
s 1
f 815/295/274 812/294/274 818/293/275
f 813/291/273 810/290/272 817/292/273
s 0
f 809/268/258 789/270/258 816/289/258
f 789/270/258 790/305/258 816/289/258
f 790/305/258 821/288/258 816/289/258
s 1
f 818/293/275 819/309/275 823/310/274
s 0
f 820/307/80 791/306/80 822/308/80
f 826/231/258 828/230/258 831/232/258
f 833/240/258 835/237/258 837/235/258
f 840/233/258 837/235/258 842/234/258
f 842/234/258 837/235/258 831/232/258
f 837/235/258 835/237/258 831/232/258
f 831/232/258 835/237/258 843/239/258
f 843/239/258 835/237/258 844/238/258
f 835/237/258 848/236/258 844/238/258
f 845/267/88 846/265/88 851/266/88
f 850/266/276 847/265/276 853/264/276
f 847/265/276 834/263/276 853/264/276
s 1
f 853/264/277 834/263/277 855/262/278
f 834/263/277 832/261/279 855/262/278
f 855/262/278 832/261/279 857/260/280
f 832/261/279 836/258/280 857/260/280
f 857/260/280 836/258/280 858/259/281
f 836/258/280 838/257/281 858/259/281
f 860/256/282 839/255/282 862/254/283
f 839/255/282 841/253/283 862/254/283
f 862/254/283 841/253/283 865/252/284
f 841/253/283 829/251/284 865/252/284
f 864/252/285 830/251/285 867/250/286
f 830/251/285 827/249/287 867/250/286
f 867/250/286 827/249/287 869/248/288
f 827/249/287 825/247/289 869/248/288
f 869/248/288 825/247/289 871/246/290
f 825/247/289 873/244/290 871/246/290
f 871/246/290 873/244/290 875/245/291
f 873/244/290 877/243/291 875/245/291
f 875/245/291 877/243/291 879/371/292
f 879/371/292 877/243/291 880/370/292
s 0
f 876/241/258 872/242/258 881/369/258
f 872/242/258 826/231/258 881/369/258
f 826/231/258 831/232/258 881/369/258
f 831/232/258 843/239/258 881/369/258
f 843/239/258 844/238/258 881/369/258
f 881/369/258 844/238/258 882/368/258
f 884/367/88 845/267/88 885/366/88
f 845/267/88 851/266/88 885/366/88
f 886/238/258 849/236/258 887/316/258
f 849/236/258 824/288/258 887/316/258
f 822/308/80 791/306/80 888/365/80
s 1
f 891/333/293 894/332/293 895/334/293
s 0
f 897/331/258 892/330/258 900/326/258
s 1
f 903/328/294 906/327/294 898/329/294
s 0
f 904/320/258 909/319/258 900/326/258
f 900/326/258 909/319/258 911/321/258
s 1
f 912/303/295 915/304/295 916/302/296
f 915/304/295 921/286/297 916/302/296
f 918/324/296 919/323/296 924/322/298
f 924/322/298 919/323/296 925/359/298
s 0
f 920/325/258 913/321/258 927/358/258
f 927/358/258 913/321/258 929/319/258
s 1
f 914/357/299 910/355/299 928/356/299
f 910/355/299 907/354/299 928/356/299
f 930/353/300 908/351/300 932/352/300
f 908/351/300 905/350/300 932/352/300
f 906/327/294 903/328/294 931/349/294
s 0
f 933/320/258 901/326/258 936/330/258
s 1
f 902/348/301 899/346/302 935/347/301
f 899/346/302 893/345/301 935/347/301
f 894/332/293 891/333/293 934/344/293
s 0
f 936/330/258 889/331/258 938/343/258
s 1
f 890/335/303 896/337/303 937/336/304
f 896/337/303 942/338/304 937/336/304
f 939/340/304 940/339/304 945/341/305
f 945/341/305 940/339/304 946/360/305
s 0
f 948/342/258 941/343/258 951/362/258
f 941/343/258 897/331/258 951/362/258
f 897/331/258 900/326/258 951/362/258
f 900/326/258 911/321/258 951/362/258
f 911/321/258 917/325/258 951/362/258
f 951/362/258 917/325/258 952/361/258
f 917/325/258 922/358/258 952/361/258
s 1
f 923/360/298 926/341/298 954/339/306
f 954/339/306 926/341/298 955/340/307
s 0
f 957/361/258 927/358/258 959/316/258
f 927/358/258 929/319/258 959/316/258
f 929/319/308 933/320/308 959/316/308
f 933/320/258 936/330/258 959/316/258
f 936/330/258 938/343/258 959/316/258
f 938/343/258 943/342/258 959/316/258
f 944/363/80 947/364/80 958/318/80
f 947/364/80 888/365/80 958/318/80
f 888/365/80 791/306/80 958/318/80
f 791/306/80 793/317/80 958/318/80
f 794/305/258 797/287/258 959/316/258
f 797/287/258 800/282/258 959/316/258
f 800/282/258 801/276/258 959/316/258
f 801/276/309 806/277/309 959/316/309
f 806/277/258 808/268/258 959/316/258
f 808/268/258 814/296/258 959/316/258
f 959/316/258 814/296/258 960/315/258
f 962/313/258 960/315/258 963/314/258
f 960/315/258 814/296/258 963/314/258
s 1
f 965/312/275 815/295/274 966/311/275
f 815/295/274 818/293/275 966/311/275
f 818/293/275 823/310/274 966/311/275
s 0
f 967/296/258 824/288/258 969/384/258
f 969/384/258 824/288/258 971/383/258
f 824/288/258 849/236/258 971/383/258
f 971/383/258 849/236/258 973/382/258
f 849/236/258 852/237/258 973/382/258
f 852/237/258 854/240/258 973/382/258
f 973/382/258 854/240/258 975/381/258
f 854/240/258 856/235/258 975/381/258
f 975/381/258 856/235/258 977/380/258
f 856/235/258 859/233/258 977/380/258
f 977/380/258 859/233/258 979/379/258
f 859/233/258 861/234/258 979/379/258
f 979/379/258 861/234/258 981/378/258
f 861/234/258 863/232/258 981/378/258
f 981/378/258 863/232/258 983/377/258
f 983/377/258 863/232/258 985/376/258
f 863/232/258 866/230/258 985/376/258
f 985/376/258 866/230/258 987/375/258
f 866/230/258 868/231/258 987/375/258
f 987/375/258 868/231/258 989/374/258
f 868/231/258 870/242/258 989/374/258
f 989/374/258 870/242/258 991/373/258
f 870/242/258 874/241/258 991/373/258
f 991/373/258 874/241/258 993/372/258
f 874/241/258 878/369/258 993/372/258
f 993/372/258 878/369/258 995/406/258
f 995/406/258 878/369/258 998/368/258
s 1
f 879/371/292 880/370/292 997/405/292
f 880/370/292 883/367/292 997/405/292
s 0
f 884/367/88 885/366/88 996/405/88
f 886/238/258 887/316/258 998/368/258
f 998/368/258 887/316/258 1000/362/258
f 888/365/80 947/364/80 999/404/80
f 947/364/80 949/403/80 999/404/80
f 1001/402/310 950/401/310 1004/396/310
f 951/362/258 952/361/258 1003/393/258
s 1
f 953/400/307 956/398/311 1002/399/312
f 956/398/311 1007/397/312 1002/399/312
f 1004/396/313 1005/395/314 1008/394/310
s 0
f 1006/393/258 957/361/258 1009/392/258
f 957/361/258 959/316/258 1009/392/258
f 959/316/258 960/315/258 1009/392/258
f 1009/392/258 960/315/258 1010/391/258
f 960/315/258 962/313/258 1010/391/258
f 1012/390/88 961/387/88 1014/389/88
f 1014/389/88 961/387/88 1016/388/88
f 961/387/88 964/386/88 1016/388/88
s 1
f 965/312/275 966/311/275 1015/385/274
s 0
f 967/296/258 969/384/258 1017/314/258
f 1017/314/258 969/384/258 1020/423/258
s 1
f 1019/423/315 968/384/316 1023/422/315
f 1023/422/315 968/384/316 1025/421/317
f 1025/421/317 968/384/316 1027/420/318
f 968/384/316 970/383/319 1027/420/318
f 970/383/319 972/382/320 1027/420/318
f 1027/420/318 972/382/320 1029/419/321
f 1029/419/321 972/382/320 1031/418/322
f 972/382/320 974/381/323 1031/418/322
f 1031/418/322 974/381/323 1034/417/324
f 974/381/323 976/380/325 1034/417/324
f 1034/417/324 976/380/325 1036/416/326
f 976/380/325 978/379/327 1036/416/326
f 1036/416/326 978/379/327 1038/415/328
f 978/379/327 980/378/329 1038/415/328
f 1038/415/328 980/378/329 1040/414/330
f 980/378/329 982/377/331 1040/414/330
f 1040/414/330 982/377/331 1042/413/332
f 1042/413/332 982/377/331 1044/412/333
f 982/377/331 984/376/334 1044/412/333
f 1044/412/333 984/376/334 1046/411/335
f 984/376/334 986/375/336 1046/411/335
f 1046/411/335 986/375/336 1048/410/337
f 986/375/336 988/374/338 1048/410/337
f 1048/410/337 988/374/338 1050/409/339
f 988/374/338 990/373/340 1050/409/339
f 1050/409/339 990/373/340 1052/408/341
f 990/373/340 992/372/342 1052/408/341
f 992/372/342 994/406/343 1052/408/341
f 1052/408/341 994/406/343 1054/407/210
f 1057/430/344 1054/407/210 1058/429/345
f 1054/407/210 994/406/343 1058/429/345
s 0
f 995/406/258 998/368/258 1059/429/258
f 998/368/258 1000/362/258 1059/429/258
f 1059/429/258 1000/362/258 1060/392/258
s 1
f 1001/402/314 1004/396/313 1061/428/310
f 1004/396/313 1008/394/310 1061/428/310
s 0
f 1061/428/346 1008/394/346 1063/427/346
f 1008/394/346 1011/426/346 1063/427/346
f 1012/390/88 1014/389/88 1062/425/88
f 1064/391/258 1013/313/258 1065/424/258
f 1013/313/258 1017/314/258 1065/424/258
f 1017/314/258 1020/423/258 1065/424/258
f 1067/473/80 1066/474/80 1069/472/80
f 1066/474/80 1018/471/80 1069/472/80
f 1018/471/80 1021/470/80 1069/472/80
f 1068/469/89 1022/468/89 1070/467/89
f 1022/468/89 1024/466/89 1070/467/89
f 1070/467/89 1024/466/89 1071/465/89
f 1024/466/89 1026/464/89 1071/465/89
s 1
f 1071/465/89 1026/464/89 1072/463/347
f 1026/464/89 1028/462/347 1072/463/347
f 1072/463/347 1028/462/347 1073/461/348
f 1028/462/347 1030/459/349 1073/461/348
f 1073/461/348 1030/459/349 1075/460/350
f 1030/459/349 1032/458/350 1075/460/350
f 1074/457/351 1033/456/351 1076/455/352
f 1033/456/351 1035/454/352 1076/455/352
f 1076/455/352 1035/454/352 1077/453/353
f 1035/454/352 1037/452/354 1077/453/353
f 1077/453/353 1037/452/354 1078/451/355
f 1037/452/354 1039/450/355 1078/451/355
f 1078/451/355 1039/450/355 1079/449/88
f 1039/450/355 1041/448/88 1079/449/88
f 1079/449/88 1041/448/88 1080/447/356
f 1041/448/88 1043/446/356 1080/447/356
f 1080/447/356 1043/446/356 1081/445/357
f 1043/446/356 1045/444/358 1081/445/357
f 1081/445/357 1045/444/358 1082/443/359
f 1045/444/358 1047/442/359 1082/443/359
f 1082/443/359 1047/442/359 1083/441/360
f 1047/442/359 1049/440/361 1083/441/360
f 1083/441/360 1049/440/361 1084/439/362
f 1049/440/361 1051/438/362 1084/439/362
f 1084/439/362 1051/438/362 1085/437/363
f 1051/438/362 1053/435/364 1085/437/363
f 1085/437/363 1053/435/364 1087/436/81
f 1053/435/364 1055/434/81 1087/436/81
s 0
f 1086/433/81 1056/432/81 1088/431/81
f 1091/483/81 1093/482/81 1094/481/81
f 1093/482/81 1088/431/81 1094/481/81
f 1088/431/81 1056/432/81 1094/481/81
s 1
f 1095/480/365 1057/430/344 1096/479/365
f 1057/430/344 1058/429/345 1096/479/365
s 0
f 1059/429/258 1060/392/258 1097/479/258
f 1060/392/258 1064/391/258 1097/479/258
f 1097/479/258 1064/391/258 1099/478/258
f 1064/391/258 1065/424/258 1099/478/258
f 1066/474/80 1067/473/80 1098/477/80
f 1067/473/80 1092/475/80 1098/477/80
f 1092/475/80 1089/476/80 1098/477/80
s 1
f 1090/484/366 1095/480/365 1100/478/366
f 1096/479/365 1100/478/366 1095/480/365
f 754/479/259 756/480/259 751/478/260
