<?xml version="1.0" encoding="utf-8"?>
<COLLADA xmlns="http://www.collada.org/2005/11/COLLADASchema" version="1.4.1">
  <asset>
    <contributor>
      <author>Someone</author>
      <authoring_tool>Assimp Collada Exporter</authoring_tool>
    </contributor>
    <created>2000-01-01T23:59:59</created>
    <modified>2000-01-01T23:59:59</modified>
    <unit name="meter" meter="1" />
    <up_axis>Y_UP</up_axis>
  </asset>
  <library_images>
    <image id="m0sigma-diffuse-image">
      <init_from>sigma.png</init_from>
    </image>
  </library_images>
  <library_effects>
    <effect id="m0sigma-fx" name="m0sigma">
      <profile_COMMON>
        <newparam sid="m0sigma-diffuse-surface">
          <surface type="2D">
            <init_from>m0sigma-diffuse-image</init_from>
          </surface>
        </newparam>
        <newparam sid="m0sigma-diffuse-sampler">
          <sampler2D>
            <source>m0sigma-diffuse-surface</source>
          </sampler2D>
        </newparam>
        <technique sid="standard">
          <phong>
            <emission>
              <color sid="emission">0   0   0   0</color>
            </emission>
            <ambient>
              <color sid="ambient">1   1   1   1</color>
            </ambient>
            <diffuse>
              <texture texture="m0sigma-diffuse-sampler" texcoord="CHANNEL0" />
            </diffuse>
            <specular>
              <color sid="specular">0   0   0   0</color>
            </specular>
            <shininess>
              <float sid="shininess">16</float>
            </shininess>
            <reflective>
              <color sid="reflective">0   0   0   0</color>
            </reflective>
          </phong>
        </technique>
      </profile_COMMON>
    </effect>
  </library_effects>
  <library_materials>
    <material id="m0sigma" name="m0sigma">
      <instance_effect url="#m0sigma-fx" />
    </material>
  </library_materials>
  <library_geometries>
    <geometry id="sigma-mesh0" name="sigma-mesh0">
      <mesh>
        <source id="sigma-mesh0-positions" name="sigma-mesh0-positions">
          <float_array id="sigma-mesh0-positions-array" count="1266"> 1.4367 -0.897778 5.49942 1.4367 0.897778 5.49942 0.0902786 0.5648 6.24666 1.4367 0.897778 5.49942 -0.489498 0.897781 5.49942 -0.489498 -0.897778 5.49942 1.4367 -0.897778 5.49942 0.0902786 -0.564796 6.24666 2.71629 -4.03163 2.71841 1.13259 -3.87895 3.26297 1.49139 -3.46932 2.71841 2.79728 -3.49313 3.26297 1.85019 -3.05967 3.26297 2.71629 -4.03163 3.80752 4.07608 -3.9782 2.71841 2.6353 -4.57013 3.26297 2.71629 -4.03163 2.71841 3.96073 -3.446 3.26297 2.79728 -3.49313 3.26297 4.07608 -3.9782 3.80752 1.49139 -3.46932 2.71841 0.165237 -2.78693 3.26297 0.588257 -2.44401 2.71841 1.85019 -3.05967 3.26297 1.01127 -2.10108 3.26297 1.49139 -3.46932 3.80752 5.32906 -3.44884 2.71841 4.19144 -4.51039 3.26297 4.07608 -3.9782 2.71841 5.03342 -2.99152 3.26297 3.96073 -3.446 3.26297 5.32906 -3.44884 3.80752 6.39902 -2.59855 2.71841 5.62469 -3.90614 3.26297 5.32906 -3.44884 2.71841 6.03746 -2.19135 3.26297 5.03342 -2.99152 3.26297 6.39902 -2.59855 3.80752 1.49139 3.46932 2.71841 2.6353 4.57013 3.26297 2.71629 4.03163 2.71841 1.85019 3.05968 3.26297 2.79728 3.49314 3.26297 1.49139 3.46933 3.80752 2.71629 4.03163 2.71841 4.19144 4.5104 3.26297 4.07608 3.9782 2.71841 2.79728 3.49314 3.26297 3.96073 3.44601 3.26297 2.71629 4.03163 3.80752 0.588257 2.44401 2.71841 1.13259 3.87896 3.26297 1.49139 3.46932 2.71841 1.01127 2.10109 3.26297 1.85019 3.05968 3.26297 0.588257 2.44401 3.80752 4.07608 3.9782 2.71841 5.62469 3.90615 3.26297 5.32906 3.44885 2.71841 3.96073 3.44601 3.26297 5.03342 2.99152 3.26297 4.07608 3.9782 3.80752 5.32906 3.44885 2.71841 6.76059 3.00574 3.26297 6.39902 2.59855 2.71841 5.03342 2.99152 3.26297 6.03746 2.19136 3.26297 5.32906 3.44884 3.80752 8.98106 -0.928143 5.508 8.98106 0.928143 5.508 8.98106 0.582497 6.71938 8.98106 -0.582497 6.71938 7.1009 0.582497 6.62382 8.98106 0.582497 6.71938 8.98106 0.928143 5.508 7.1009 -0.582497 6.62382 7.1009 0.582497 6.62382 5.28322 0.625435 5.508 5.28322 -0.625431 5.508 8.98106 -0.928143 5.508 8.98106 -0.582497 6.71938 7.1009 -0.582497 6.62382 8.98106 -0.582497 6.71938 8.98106 0.582497 6.71938 5.28322 0.625435 5.508 5.28322 -0.625431 5.508 -1.7601 -0.92992 5.50799 2.03793 -2.24503 4.19289 2.03793 -0.92992 5.50799 2.03793 -0.92992 5.50799 2.60615 -1.40942 3.84677 2.60615 -0.583801 4.67239 2.60615 -0.583801 4.67239 4.61482 -1.40942 3.84677 4.61482 -0.583801 4.67239 4.61482 -0.583801 4.67239 5.18304 -2.24503 4.19289 5.18304 -0.92992 5.50799 5.18304 -0.92992 5.50799 8.98107 -2.24503 4.19289 8.98107 -0.92992 5.508 9.58684 0.794804 5.18179 9.58684 -0.7948 5.18179 9.58684 -1.91882 4.05777 -2.31433 -1.75861 2.53453 -2.31433 -1.75861 3.99141 -2.88078 0 3.26297 9.58684 1.91882 2.46817 9.58684 -1.91882 2.46817 -2.31433 -0.728439 1.50436 -1.7601 -2.24502 2.33305 -1.7601 -0.929916 1.01794 2.03793 -0.929916 1.01794 2.03793 -2.24502 2.33305 2.03793 -0.929916 1.01794 2.60615 -0.583801 1.85354 2.60615 -1.40942 2.67916 2.60615 -0.583801 1.85354 4.61482 -0.583801 1.85354 4.61482 -1.40942 2.67916 4.61482 -0.583801 1.85354 5.18304 -0.929916 1.01794 5.18304 -2.24502 2.33305 5.18304 -0.929916 1.01794 8.98107 -0.929916 1.01794 -2.31433 0.728443 1.50436 -1.7601 -0.929916 1.01794 2.03793 0.92992 1.01794 2.03793 -0.929916 1.01794 2.03793 -0.929916 1.01794 2.03793 0.92992 1.01794 2.60615 0.583805 1.85354 2.60615 -0.583801 1.85354 2.60615 -0.583801 1.85354 2.60615 0.583805 1.85354 4.61482 0.583805 1.85354 4.61482 -0.583801 1.85354 4.61482 -0.583801 1.85354 4.61482 0.583805 1.85354 5.18304 0.92992 1.01794 5.18304 -0.929916 1.01794 5.18304 -0.929916 1.01794 8.98107 0.92992 1.01794 8.98107 -0.929916 1.01794 -2.31433 1.75861 2.53453 2.60615 1.40943 2.67916 2.60615 0.583805 1.85354 2.60615 0.583805 1.85354 4.61482 1.40943 2.67916 4.61482 0.583805 1.85354 4.61482 0.583805 1.85354 5.18304 2.24503 2.33305 -2.31433 1.75861 3.99141 -1.7601 2.24503 4.19289 -1.7601 0.92992 5.50799 2.03793 0.92992 5.50799 2.03793 2.24503 4.19289 2.03793 0.92992 5.50799 2.60615 0.583805 4.67239 2.60615 1.40943 3.84677 2.60615 0.583805 4.67239 4.61482 0.583805 4.67239 4.61482 1.40943 3.84677 4.61482 0.583805 4.67239 5.18304 0.92992 5.50799 5.18304 2.24503 4.19289 5.18304 0.92992 5.50799 8.98107 0.92992 5.508 -1.7601 0.92992 5.50799 2.03793 0.92992 5.50799 2.03793 0.92992 5.50799 2.60615 -0.583801 4.67239 2.60615 0.583805 4.67239 2.60615 0.583805 4.67239 2.60615 -0.583801 4.67239 4.61482 -0.583801 4.67239 4.61482 0.583805 4.67239 4.61482 0.583805 4.67239 4.61482 -0.583801 4.67239 5.18304 0.92992 5.50799 5.18304 0.92992 5.50799 8.98107 0.92992 5.508 -1.7601 -2.24503 4.19289 -1.7601 -0.92992 5.50799 -2.31433 -0.728439 5.02158 -2.31433 -1.75861 3.99141 -1.7601 -2.24502 2.33305 -2.31433 -1.75861 2.53453 -1.7601 -0.929916 1.01794 -2.31433 -0.728439 1.50436 -1.7601 0.92992 1.01794 -1.7601 -0.929916 1.01794 -2.31433 -0.728439 1.50436 -2.31433 0.728443 1.50436 -1.7601 2.24503 2.33305 -2.31433 0.728443 1.50436 -2.31433 1.75861 2.53453 -1.7601 2.24503 4.19289 -2.31433 1.75861 3.99141 -1.7601 0.92992 5.50799 -2.31433 0.728443 5.02158 -1.7601 0.92992 5.50799 -2.31433 0.728443 5.02158 -2.31433 -0.728439 5.02158 8.98107 0.92992 5.508 8.98107 -0.92992 5.508 9.58684 -0.7948 5.18179 9.58684 0.794804 5.18179 8.98107 -0.92992 5.508 8.98107 -2.24503 4.19289 9.58684 -1.91882 4.05777 9.58684 -0.7948 5.18179 8.98107 -2.24502 2.33305 9.58684 -1.91882 2.46817 9.58684 -1.91882 4.05777 8.98107 -0.929916 1.01794 9.58684 -0.7948 1.34415 9.58684 -1.91882 2.46817 8.98107 -0.929916 1.01794 8.98107 0.92992 1.01794 9.58684 0.794804 1.34415 9.58684 -0.7948 1.34415 8.98107 0.92992 1.01794 8.98107 2.24503 2.33305 9.58684 1.91882 2.46817 9.58684 0.794804 1.34415 8.98107 2.24503 4.19289 9.58684 1.91882 4.05777 9.58684 1.91882 2.46817 8.98107 0.92992 5.508 9.58684 0.794804 5.18179 9.58684 1.91882 4.05777 9.58684 -0.7948 1.34415 9.58684 0.794804 1.34415 8.98106 3.45641 2.68048 8.98106 3.45641 3.84547 8.98106 2.24503 4.19112 8.98106 2.24503 2.33483 8.98106 2.24503 4.19112 8.98106 3.45641 3.84547 7.1009 3.36086 3.84547 5.28322 2.24503 2.63754 5.28322 2.24503 3.8884 7.1009 3.36086 3.84547 7.1009 3.36086 2.68048 8.98106 3.45641 2.68048 8.98106 2.24503 2.33483 5.28322 2.24503 3.8884 5.28322 2.24503 2.63754 8.98106 0.928143 1.01794 8.98106 -0.928143 1.01794 8.98106 -0.582497 -0.193439 8.98106 0.582497 -0.193439 7.10091 -0.582497 -0.0978813 8.98106 -0.582497 -0.193439 8.98106 -0.928143 1.01794 7.10091 0.582497 -0.0978851 7.10091 -0.582497 -0.0978813 5.28322 -0.625431 1.01794 5.28322 0.625435 1.01794 8.98106 0.928143 1.01794 8.98106 0.582497 -0.193439 7.10091 0.582497 -0.0978851 8.98106 0.582497 -0.193439 8.98106 -0.582497 -0.193439 5.28322 -0.625431 1.01794 5.28322 0.625435 1.01794 1.4367 2.23645 4.16074 1.4367 2.23645 2.36519 0.0902786 2.9837 2.69817 1.4367 2.23645 2.36519 -0.489498 2.23645 2.36519 -0.489498 2.23645 4.16074 1.4367 2.23645 4.16074 0.0902786 2.9837 3.82776 0.799404 0 -0.311066 1.09776 0 1.03773 1.82574 0.187683 1.03773 1.08583 -0.187679 -0.645279 1.82574 -0.187679 1.03773 -0.847523 0 -0.311066 -0.978798 -0.187679 -0.7169 1.08583 0.187683 -0.645279 -0.978798 0.187683 -0.7169 1.08583 -0.187679 -0.645279 -0.978798 -0.187679 -0.7169 -1.65833 -0.31411 -2.98832 -0.372105 -0.31411 1.04314 -1.49157 -0.31411 1.03798 -3.38038 -0.31411 -2.98905 -3.38038 0.314114 -2.98905 -2.09737 -0.31411 0.549568 -1.49157 0.31411 1.03798 0.363201 0.186001 1.04998 0.116852 0 -0.197929 -0.318188 0 1.04998 0.0902786 -2.98369 3.82776 0.0902786 -2.98369 2.69817 1.4367 -2.23645 2.36519 1.4367 -2.23645 4.16074 -0.489498 -2.23645 2.36519 1.4367 -2.23645 2.36519 -0.489498 -2.23645 4.16074 -0.489498 -2.23645 2.36519 1.4367 -2.23645 4.16074 -0.489498 -2.23645 4.16074 8.98106 -2.24503 2.33483 8.98106 -2.24503 4.19112 8.98106 -3.45641 3.84547 8.98106 -3.45641 2.68048 7.1009 -3.36085 3.84547 8.98106 -3.45641 3.84547 8.98106 -2.24503 4.19112 7.1009 -3.36085 2.68048 7.1009 -3.36085 3.84547 5.28322 -2.24503 3.8884 5.28322 -2.24503 2.63754 8.98106 -2.24503 2.33483 8.98106 -3.45641 2.68048 7.1009 -3.36085 2.68048 8.98106 -3.45641 2.68048 8.98106 -3.45641 3.84547 5.28322 -2.24503 3.8884 5.28322 -2.24503 2.63754 1.49139 0.544556 6.73228 2.6353 0 7.83309 2.71628 0.544556 7.2946 1.85018 0 6.32264 2.79728 0 6.7561 1.49139 -0.544552 6.73229 2.71628 0.544556 7.2946 4.19143 0 7.77336 4.07608 0.544556 7.24116 2.79728 0 6.7561 3.96073 0 6.70897 2.71628 -0.544552 7.2946 0.588253 0.544556 5.70697 1.13259 0 7.14192 1.49139 0.544556 6.73228 1.01126 0 5.36405 1.85018 0 6.32264 0.588253 -0.544552 5.70697 4.07608 0.544556 7.24116 5.62469 0 7.16911 5.32905 0.544556 6.71181 3.96073 0 6.70897 5.03341 0 6.25448 4.07608 -0.544552 7.24116 5.32905 0.544556 6.71181 6.76059 0 6.26871 6.39902 0.544556 5.86151 5.03341 0 6.25448 6.03746 0 5.45432 5.32905 -0.544552 6.71181 -0.489498 0.897781 5.49942 -0.489498 -0.897778 5.49942 2.6353 -4.57013 3.26297 1.49139 -3.46932 3.80752 4.19144 -4.51039 3.26297 2.71629 -4.03163 3.80752 1.13259 -3.87895 3.26297 0.588257 -2.44401 3.80752 5.62469 -3.90614 3.26297 4.07608 -3.9782 3.80752 6.76059 -3.00574 3.26297 5.32906 -3.44884 3.80752 1.13259 3.87896 3.26297 2.71629 4.03163 3.80752 2.6353 4.57013 3.26297 4.07608 3.9782 3.80752 0.165237 2.78694 3.26297 1.49139 3.46933 3.80752 4.19144 4.5104 3.26297 5.32906 3.44884 3.80752 5.62469 3.90615 3.26297 6.39902 2.59855 3.80752 -2.31433 -0.728439 5.02158 -2.31433 0.728443 5.02158 -1.7601 -2.24503 4.19289 2.03793 -2.24502 2.33305 2.03793 -2.24503 4.19289 2.60615 -1.40942 2.67916 2.60615 -1.40942 3.84677 4.61482 -1.40942 2.67916 4.61482 -1.40942 3.84677 5.18304 -2.24502 2.33305 5.18304 -2.24503 4.19289 8.98107 -2.24502 2.33305 9.58684 1.91882 4.05777 -1.7601 0.92992 1.01794 2.03793 2.24503 2.33305 5.18304 0.92992 1.01794 8.98107 2.24503 2.33305 -1.7601 2.24503 2.33305 2.03793 2.24503 4.19289 2.03793 2.24503 2.33305 2.60615 1.40943 3.84677 2.60615 1.40943 2.67916 4.61482 1.40943 3.84677 4.61482 1.40943 2.67916 5.18304 2.24503 4.19289 5.18304 2.24503 2.33305 8.98107 2.24503 4.19289 7.1009 3.36086 2.68048 8.98106 3.45641 3.84547 8.98106 3.45641 2.68048 -0.489498 2.23645 2.36519 -0.489498 2.23645 4.16074 -1.65833 0.314114 -2.98832 -2.09737 0.31411 0.549568 -0.372105 0.31411 1.04314 0.363201 -0.185997 1.04998 1.13259 0 7.14192 2.71628 -0.544552 7.2946 2.6353 0 7.83309 4.07608 -0.544552 7.24116 0.165234 0 6.0499 1.49139 -0.544552 6.73229 4.19143 0 7.77336 5.32905 -0.544552 6.71181 5.62469 0 7.16911 6.39902 -0.544552 5.86151 </float_array>
          <technique_common>
            <accessor count="422" offset="0" source="#sigma-mesh0-positions-array" stride="3">
              <param name="X" type="float" />
              <param name="Y" type="float" />
              <param name="Z" type="float" />
            </accessor>
          </technique_common>
        </source>
        <source id="sigma-mesh0-normals" name="sigma-mesh0-normals">
          <float_array id="sigma-mesh0-normals-array" count="1266"> 0.382928 -0.360396 0.850577 0.294679 0.554677 0.778137 0.0617737 0.312692 0.947844 0.294679 0.554677 0.778137 -0.645198 0.372961 0.666798 -0.499784 -0.577807 0.645256 0.382928 -0.360396 0.850577 -0.379578 -0.316665 0.869278 -0.0788112 0.0133621 -0.9968 -0.59477 -0.803889 0.00332851 -0.0545594 0.0444553 -0.99752 0.194886 0.980823 0.00241601 0.595865 0.803078 -0.00332107 0.0781335 -0.0132505 0.996855 -0.0594501 -0.0134864 -0.99814 -0.196193 -0.980563 -0.00225668 -0.0788112 0.0133621 -0.9968 -0.218501 0.975837 0.000295637 0.194886 0.980823 0.00241601 0.0588056 0.0133461 0.99818 -0.0545594 0.0444553 -0.99752 -0.711113 -0.628746 -0.314638 0.239203 0.209345 -0.948133 0.595865 0.803078 -0.00332107 0.713674 0.625923 0.314467 0.0550015 -0.0450017 0.997472 -0.0387918 -0.0245779 -0.998945 0.217232 -0.97612 -0.000171066 -0.0594501 -0.0134864 -0.99814 -0.5107 0.859758 0.00139029 -0.218501 0.975837 0.000295637 0.0381748 0.0241695 0.998979 0.197098 -0.248647 -0.948328 0.509441 -0.860504 -0.00130275 -0.0387918 -0.0245779 -0.998945 -0.591136 0.742454 -0.315153 -0.5107 0.859758 0.00139029 -0.197726 0.248108 0.948339 0.0550028 0.0450004 -0.997472 -0.196194 0.980563 0.0022562 0.0781336 0.0132483 -0.996855 0.595865 -0.803078 0.00332355 0.194885 -0.980823 -0.00241469 -0.0545604 -0.0444541 0.99752 0.0781336 0.0132483 -0.996855 0.217231 0.97612 0.000170344 0.0588055 -0.0133482 -0.99818 0.194885 -0.980823 -0.00241469 -0.218499 -0.975837 -0.000295764 -0.0788111 -0.0133626 0.9968 -0.237977 0.210806 -0.948118 -0.594769 0.80389 -0.00333048 0.0550028 0.0450004 -0.997472 0.713674 -0.625924 -0.314467 0.595865 -0.803078 0.00332355 0.239203 -0.209345 0.948133 0.0588055 -0.0133482 -0.99818 0.50944 0.860505 0.00130435 0.0381757 -0.0241682 -0.998979 -0.218499 -0.975837 -0.000295764 -0.510701 -0.859757 -0.00139228 -0.0594507 0.0134859 0.99814 0.0381757 -0.0241682 -0.998979 0.58983 0.743468 -0.315207 -0.197725 -0.248107 -0.948339 -0.510701 -0.859757 -0.00139228 -0.591135 -0.742454 0.315152 -0.0387928 0.0245763 0.998945 1 0 0 1 0 0 1 0 0 1 0 0 -0.184807 0.499612 0.846306 -0.040524 0.602201 0.797315 -0.0472754 0.973895 0.222022 -0.306635 -0.500285 0.809747 -0.184807 0.499612 0.846306 -0.470142 0.409898 0.781633 -0.391916 -0.637864 0.662972 -0.0472758 -0.973895 0.222021 -0.0467546 -0.389349 0.919903 -0.306635 -0.500285 0.809747 -0.0467546 -0.389349 0.919903 -0.040524 0.602201 0.797315 -0.470142 0.409898 0.781633 -0.391916 -0.637864 0.662972 0 -0.505449 0.862856 0 -0.862857 0.505449 0 -0.252725 0.967538 0.844486 -0.270707 0.462127 0.844486 -0.462126 0.270707 0.844486 -0.135354 0.518192 0 -0.505449 0.862856 0 -0.862857 0.505449 0 -0.252725 0.967538 -0.844486 -0.270707 0.462127 -0.844486 -0.462126 0.270707 -0.844486 -0.135354 0.518192 0 -0.505449 0.862856 0 -0.862857 0.505449 0 -0.252725 0.967538 1 0 0 1 0 0 1 0 0 -0.958461 -0.263512 -0.10915 -0.958461 -0.263511 0.10915 -1 -4.50084e-008 -7.21573e-008 1 0 0 1 0 0 -0.958461 -0.10915 -0.263511 0 -0.862856 -0.50545 0 -0.252725 -0.967538 0 -0.505449 -0.862856 0.844486 -0.462127 -0.270708 0.844486 -0.135354 -0.518192 0.844486 -0.270708 -0.462126 0 -0.862856 -0.50545 0 -0.252725 -0.967538 0 -0.505449 -0.862856 -0.844485 -0.462127 -0.270708 -0.844485 -0.135354 -0.518193 -0.844485 -0.270708 -0.462127 0 -0.862856 -0.50545 0 -0.252725 -0.967538 0 -0.505449 -0.862856 -0.958461 0.10915 -0.263511 0 -0.252725 -0.967538 0 0.252725 -0.967538 0 -0.505449 -0.862856 0.844486 -0.135354 -0.518192 0.844486 0.270708 -0.462127 0.844486 0.135354 -0.518192 0.844486 -0.270708 -0.462126 0 -0.252725 -0.967538 0 0.505449 -0.862856 0 0.252725 -0.967538 0 -0.505449 -0.862856 -0.844485 -0.135354 -0.518193 -0.844485 0.270708 -0.462127 -0.844485 0.135354 -0.518193 -0.844485 -0.270708 -0.462127 0 -0.252725 -0.967538 0 0.252725 -0.967538 0 -0.505449 -0.862856 -0.958461 0.263511 -0.10915 0.844486 0.462127 -0.270707 0.844486 0.135354 -0.518192 0 0.505449 -0.862856 0 0.862856 -0.505449 0 0.252725 -0.967538 -0.844485 0.270708 -0.462127 -0.844485 0.462127 -0.270708 -0.958461 0.263511 0.10915 0 0.862856 0.505449 0 0.252725 0.967538 0 0.505449 0.862856 0.844485 0.462127 0.270708 0.844485 0.135354 0.518193 0.844485 0.270708 0.462127 0 0.862856 0.505449 0 0.252725 0.967538 0 0.505449 0.862856 -0.844485 0.462127 0.270708 -0.844485 0.135354 0.518193 -0.844485 0.270708 0.462127 0 0.862856 0.505449 0 0.252725 0.967538 0 0.505449 0.862856 0 0.252725 0.967538 0 0.505449 0.862856 0.844485 0.135354 0.518193 0.844486 -0.135354 0.518192 0.844485 0.270708 0.462127 0 0.252725 0.967538 0 -0.505449 0.862856 0 -0.252725 0.967538 0 0.505449 0.862856 -0.844485 0.135354 0.518193 -0.844486 -0.270707 0.462127 -0.844485 0.270708 0.462127 0 0.252725 0.967538 0 0.505449 0.862856 -0.685307 -0.628379 0.368095 -0.685307 -0.184048 0.704614 -0.685307 -0.368096 0.628379 -0.685306 -0.704615 0.184046 -0.685305 -0.704615 -0.18405 -0.685304 -0.628381 -0.368098 -0.685304 -0.368098 -0.628381 -0.685304 -0.184049 -0.704617 -0.685304 0.184049 -0.704617 -0.685304 -0.368098 -0.628381 -0.685304 -0.184049 -0.704617 -0.685304 0.368098 -0.628381 -0.685304 0.628381 -0.368097 -0.685304 0.368098 -0.628381 -0.685305 0.704615 -0.184048 -0.685306 0.704615 0.184047 -0.685306 0.62838 0.368096 -0.685306 0.368097 0.628379 -0.685306 0.184049 0.704614 -0.685306 0.368097 0.628379 -0.685306 0.184049 0.704614 -0.685307 -0.368096 0.628379 0.50002 0.218863 0.837901 0.500023 -0.437725 0.747244 0.500021 -0.218863 0.837901 0.50002 0.437726 0.747245 0.500023 -0.437725 0.747244 0.500024 -0.837899 0.218862 0.500025 -0.747243 0.437725 0.500021 -0.218863 0.837901 0.50002 -0.747245 -0.437727 0.500022 -0.8379 -0.218864 0.500025 -0.747243 0.437725 0.50002 -0.218863 -0.837901 0.50002 -0.437726 -0.747245 0.500022 -0.8379 -0.218864 0.50002 -0.218863 -0.837901 0.50002 0.437726 -0.747245 0.50002 0.218863 -0.837901 0.50002 -0.437726 -0.747245 0.50002 0.437726 -0.747245 0.50002 0.837901 -0.218863 0.50002 0.747245 -0.437726 0.50002 0.218863 -0.837901 0.50002 0.747245 0.437726 0.50002 0.837901 0.218863 0.50002 0.747245 -0.437726 0.50002 0.218863 0.837901 0.50002 0.437726 0.747245 0.50002 0.837901 0.218863 1 0 0 1 0 0 1 0 0 1 0 0 1 0 0 1 0 0 -0.0472756 0.222021 0.973895 -0.0467537 0.919903 0.389348 -0.306634 0.809747 0.500285 -0.470142 0.781633 -0.409898 -0.391914 0.662972 0.637864 -0.306634 0.809747 0.500285 -0.184806 0.846306 -0.499612 -0.0405232 0.797315 -0.602201 -0.0472756 0.222021 -0.973895 -0.391914 0.662972 0.637864 -0.470142 0.781633 -0.409898 1 0 0 1 0 0 1 0 0 1 0 0 -0.184805 -0.499613 -0.846306 -0.0405232 -0.602201 -0.797315 -0.0472756 -0.973895 -0.222022 -0.306633 0.500283 -0.809749 -0.184805 -0.499613 -0.846306 -0.470141 -0.4099 -0.781633 -0.391914 0.637863 -0.662974 -0.0472747 0.973895 -0.222022 -0.0467526 0.389347 -0.919904 -0.306633 0.500283 -0.809749 -0.0467526 0.389347 -0.919904 -0.0405232 -0.602201 -0.797315 -0.470141 -0.4099 -0.781633 -0.391914 0.637863 -0.662974 0.382928 0.850577 0.360396 0.294678 0.778136 -0.554679 0.0617731 0.947843 -0.312693 0.294678 0.778136 -0.554679 -0.645199 0.666797 -0.372962 -0.499784 0.645256 0.577807 0.382928 0.850577 0.360396 -0.379578 0.869278 0.316665 -0.544916 0.0365653 0.837693 -0.721872 -0.662325 0.200567 0.144647 0.985172 -0.0922659 0.0807279 -0.843818 -0.530522 0.799834 -0.486432 -0.351638 -0.00923139 0.546532 0.837387 0.0100998 -0.998355 -0.0564447 0.465285 0.854967 -0.229221 0.0300591 0.498243 -0.866516 0.0807279 -0.843818 -0.530522 0.0100998 -0.998355 -0.0564447 0.244436 -0.769043 -0.590613 0.85211 -0.447214 -0.271862 -0.280693 -0.894427 0.348155 -0.873151 -0.46449 -0.147838 -0.436281 0.464491 -0.770654 -0.62291 -0.567466 0.538484 -0.443814 0.707106 0.550481 0.582882 0.778978 -0.231173 0.771528 -2.51788e-006 -0.636195 -0.944266 -2.68285e-006 -0.329185 0.0617731 -0.947844 0.312692 -0.379579 -0.869277 -0.316666 0.382928 -0.850576 -0.360397 0.294678 -0.778138 0.554677 -0.499785 -0.645254 -0.577808 0.382928 -0.850576 -0.360397 -0.645198 -0.666798 0.372961 -0.499785 -0.645254 -0.577808 0.294678 -0.778138 0.554677 -0.645198 -0.666798 0.372961 1 0 0 1 0 0 1 0 0 1 0 0 -0.184806 -0.846306 0.499612 -0.0405232 -0.797315 0.602201 -0.0472756 -0.222021 0.973895 -0.306634 -0.809747 -0.500285 -0.184806 -0.846306 0.499612 -0.470142 -0.781633 0.409898 -0.391914 -0.662972 -0.637864 -0.0472756 -0.222021 -0.973895 -0.0467537 -0.919903 -0.389348 -0.306634 -0.809747 -0.500285 -0.0467537 -0.919903 -0.389348 -0.0405232 -0.797315 0.602201 -0.470142 -0.781633 0.409898 -0.391914 -0.662972 -0.637864 0.0550032 0.997472 0.0450003 -0.196195 -0.00225792 0.980562 0.0781341 0.996855 0.0132488 0.595865 -0.00332543 -0.803077 0.194885 0.00241325 -0.980823 -0.0545606 -0.99752 -0.0444534 0.0781341 0.996855 0.0132488 0.217232 -0.000172142 0.97612 0.058806 0.99818 -0.0133479 0.194885 0.00241325 -0.980823 -0.2185 0.000293356 -0.975837 -0.0788116 -0.9968 -0.0133616 -0.237979 0.948117 0.210807 -0.594769 0.00332924 0.803889 0.0550032 0.997472 0.0450003 0.713675 0.314463 -0.625924 0.595865 -0.00332543 -0.803077 0.239203 -0.948133 -0.209345 0.058806 0.99818 -0.0133479 0.509441 -0.00130555 0.860505 0.0381755 0.998979 -0.024169 -0.2185 0.000293356 -0.975837 -0.510701 0.00138967 -0.859757 -0.0594506 -0.99814 0.0134865 0.0381755 0.998979 -0.024169 0.58983 0.315205 0.743469 -0.197727 0.948339 -0.248109 -0.510701 0.00138967 -0.859757 -0.591135 -0.315152 -0.742454 -0.0387926 -0.998945 0.0245762 -0.645198 0.372961 0.666798 -0.499784 -0.577807 0.645256 -0.196193 -0.980563 -0.00225668 0.0550015 -0.0450017 0.997472 0.217232 -0.97612 -0.000171066 0.0781335 -0.0132505 0.996855 -0.59477 -0.803889 0.00332851 -0.237978 -0.210806 0.948118 0.509441 -0.860504 -0.00130275 0.0588056 0.0133461 0.99818 0.589829 -0.743468 0.315208 0.0381748 0.0241695 0.998979 -0.594769 0.80389 -0.00333048 -0.0788111 -0.0133626 0.9968 -0.196194 0.980563 0.0022562 -0.0594507 0.0134859 0.99814 -0.711113 0.628746 0.314637 -0.0545604 -0.0444541 0.99752 0.217231 0.97612 0.000170344 -0.0387928 0.0245763 0.998945 0.50944 0.860505 0.00130435 0.197097 0.248646 0.948329 -0.958461 -0.10915 0.263511 -0.958461 0.10915 0.263511 0 -0.967539 0.252723 0 -0.967538 -0.252726 0.844486 -0.518192 0.135353 0.844486 -0.518192 -0.135354 0 -0.967539 0.252723 0 -0.967538 -0.252726 -0.844486 -0.518192 0.135353 -0.844486 -0.518192 -0.135354 0 -0.967539 0.252723 0 -0.967538 -0.252726 1 0 0 0 0.505449 -0.862856 0 0.862856 -0.505449 0 0.505449 -0.862856 0 0.862856 -0.505449 0 0.967538 -0.252725 0 0.967538 0.252725 0.844486 0.518192 -0.135354 0.844485 0.518193 0.135354 0 0.967538 -0.252725 0 0.967538 0.252725 -0.844485 0.518193 -0.135354 -0.844485 0.518193 0.135354 0 0.967538 -0.252725 0 0.967538 0.252725 -0.184806 0.846306 -0.499612 -0.0467537 0.919903 0.389348 -0.0405232 0.797315 -0.602201 -0.645199 0.666797 -0.372962 -0.499784 0.645256 0.577807 0.488547 0.769044 -0.412181 -0.711567 0.567466 0.414313 0.673652 0.707107 -0.214925 0.582884 -0.778977 -0.231171 -0.594769 0.00332924 0.803889 -0.0788116 -0.9968 -0.0133616 -0.196195 -0.00225792 0.980562 -0.0594506 -0.99814 0.0134865 -0.711113 -0.314637 0.628746 -0.0545606 -0.99752 -0.0444534 0.217232 -0.000172142 0.97612 -0.0387926 -0.998945 0.0245762 0.509441 -0.00130555 0.860505 0.197097 -0.948329 0.248646 </float_array>
          <technique_common>
            <accessor count="422" offset="0" source="#sigma-mesh0-normals-array" stride="3">
              <param name="X" type="float" />
              <param name="Y" type="float" />
              <param name="Z" type="float" />
            </accessor>
          </technique_common>
        </source>
        <source id="sigma-mesh0-tex0" name="sigma-mesh0-tex0">
          <float_array id="sigma-mesh0-tex0-array" count="844"> 0.582031 0.0625 0.582031 0.179688 0.671875 0.160156 0.582031 0.210938 0.710938 0.210938 0.710938 0.03125 0.582031 0.03125 0.671875 0.0820313 0.046875 0.363281 0.152344 0.414063 0.152344 0.363281 0.046875 0.308594 0.152344 0.308594 0.046875 0.363281 0.046875 0.363281 0.152344 0.414063 0.152344 0.363281 0.046875 0.308594 0.152344 0.308594 0.046875 0.363281 0.046875 0.363281 0.152344 0.414063 0.152344 0.363281 0.046875 0.308594 0.152344 0.308594 0.046875 0.363281 0.046875 0.363281 0.152344 0.414063 0.152344 0.363281 0.046875 0.308594 0.152344 0.308594 0.046875 0.363281 0.046875 0.363281 0.152344 0.414063 0.152344 0.363281 0.046875 0.308594 0.152344 0.308594 0.046875 0.363281 0.152344 0.363281 0.046875 0.414063 0.046875 0.363281 0.152344 0.308594 0.046875 0.308594 0.152344 0.363281 0.152344 0.363281 0.046875 0.414063 0.046875 0.363281 0.152344 0.308594 0.046875 0.308594 0.152344 0.363281 0.152344 0.363281 0.046875 0.414063 0.046875 0.363281 0.152344 0.308594 0.046875 0.308594 0.152344 0.363281 0.152344 0.363281 0.046875 0.414063 0.046875 0.363281 0.152344 0.308594 0.046875 0.308594 0.152344 0.363281 0.152344 0.363281 0.046875 0.414063 0.046875 0.363281 0.152344 0.308594 0.046875 0.308594 0.152344 0.363281 0.988281 0.351563 0.855469 0.351563 0.878906 0.449219 0.964844 0.449219 0.15625 0.101563 0.0273438 0.109375 0.0273438 0.0273438 0.15625 0.199219 0.15625 0.117188 0.277344 0.117188 0.277344 0.199219 0.0273438 0.0273438 0.0273438 0.109375 0.15625 0.101563 0.0273438 0.199219 0.0273438 0.117188 0.277344 0.0273438 0.277344 0.0273438 0.730469 0.851563 0.480469 0.765625 0.480469 0.851563 0.480469 0.851563 0.4375 0.746094 0.4375 0.800781 0.4375 0.800781 0.308594 0.746094 0.308594 0.800781 0.308594 0.800781 0.269531 0.765625 0.269531 0.855469 0.269531 0.855469 0.015625 0.765625 0.015625 0.855469 0.486366 0.283632 0.380822 0.283632 0.306191 0.209013 0.520283 0.288197 0.520283 0.36024 0.609375 0.324219 0.560997 0.103487 0.306191 0.103487 0.572472 0.237255 0.730469 0.640625 0.730469 0.554688 0.480469 0.554688 0.480469 0.640625 0.480469 0.554688 0.441406 0.609375 0.4375 0.664063 0.441406 0.609375 0.308594 0.609375 0.308594 0.664063 0.308594 0.609375 0.269531 0.554688 0.269531 0.640625 0.269531 0.554688 0.015625 0.554688 0.646278 0.237255 0.730469 0.429688 0.480469 0.554688 0.480469 0.429688 0.480469 0.429688 0.480469 0.554688 0.4375 0.535156 0.4375 0.453125 0.4375 0.453125 0.4375 0.535156 0.308594 0.535156 0.308594 0.453125 0.308594 0.453125 0.308594 0.535156 0.269531 0.554688 0.269531 0.429688 0.269531 0.429688 0.015625 0.554688 0.015625 0.429688 0.698467 0.288197 0.4375 0.664063 0.441406 0.609375 0.441406 0.609375 0.308594 0.664063 0.308594 0.609375 0.308594 0.609375 0.269531 0.640625 0.698467 0.36024 0.730469 0.765625 0.730469 0.851563 0.480469 0.851563 0.480469 0.765625 0.480469 0.851563 0.4375 0.800781 0.4375 0.746094 0.4375 0.800781 0.308594 0.800781 0.308594 0.746094 0.308594 0.800781 0.269531 0.855469 0.269531 0.765625 0.269531 0.855469 0.015625 0.855469 0.730469 0.976563 0.480469 0.976563 0.480469 0.976563 0.4375 0.875 0.4375 0.957031 0.4375 0.957031 0.4375 0.875 0.308594 0.875 0.308594 0.957031 0.308594 0.957031 0.308594 0.875 0.269531 0.976563 0.269531 0.976563 0.015625 0.976563 0.730469 0.765625 0.730469 0.851563 0.769531 0.820313 0.769531 0.75 0.730469 0.640625 0.769531 0.65625 0.730469 0.554688 0.769531 0.589844 0.730469 0.554688 0.730469 0.429688 0.769531 0.441406 0.769531 0.542969 0.730469 0.640625 0.769531 0.589844 0.769531 0.65625 0.730469 0.765625 0.769531 0.75 0.730469 0.851563 0.769531 0.820313 0.730469 0.976563 0.769531 0.964844 0.769531 0.867188 0.894531 0.925781 0.894531 0.773438 0.84375 0.789063 0.84375 0.914063 0.96875 0.925781 0.96875 0.777344 0.917969 0.785156 0.917969 0.914063 0.96875 0.625 0.917969 0.636719 0.917969 0.765625 0.96875 0.476563 0.917969 0.488281 0.917969 0.617188 0.894531 0.628906 0.894531 0.476563 0.84375 0.492188 0.84375 0.617188 0.96875 0.476563 0.96875 0.625 0.917969 0.617188 0.917969 0.488281 0.96875 0.777344 0.917969 0.765625 0.917969 0.636719 0.96875 0.925781 0.917969 0.914063 0.917969 0.785156 0.380822 0.028868 0.486366 0.028868 0.964844 0.449219 0.878906 0.449219 0.855469 0.351563 0.988281 0.351563 0.0273438 0.0273438 0.0273438 0.109375 0.15625 0.101563 0.277344 0.199219 0.277344 0.117188 0.15625 0.117188 0.152344 0.214844 0.0273438 0.207031 0.0273438 0.292969 0.277344 0.0273438 0.277344 0.292969 0.988281 0.351563 0.855469 0.351563 0.878906 0.449219 0.964844 0.449219 0.15625 0.214844 0.0273438 0.207031 0.0273438 0.292969 0.15625 0.199219 0.15625 0.117188 0.277344 0.117188 0.277344 0.199219 0.0273438 0.292969 0.0273438 0.207031 0.15625 0.214844 0.0273438 0.199219 0.0273438 0.117188 0.277344 0.292969 0.277344 0.292969 0.582031 0.0625 0.582031 0.179688 0.671875 0.160156 0.582031 0.210938 0.710938 0.210938 0.710938 0.03125 0.582031 0.03125 0.671875 0.0820313 0.352734 0.327734 0.332818 0.417663 0.284693 0.417663 0.333594 0.304688 0.284693 0.417663 0.462109 0.326953 0.470313 0.301562 0.333594 0.304688 0.470313 0.301562 0.333203 0.305078 0.470093 0.30185 0.834983 0.0204527 0.726536 0.358563 0.820923 0.35813 0.980176 0.0203916 0.980176 0.0203916 0.872001 0.317168 0.820923 0.35813 0.381043 0.428772 0.396484 0.344531 0.425781 0.428125 0.671875 0.0820313 0.671875 0.160156 0.582031 0.179688 0.582031 0.0625 0.710938 0.210938 0.582031 0.210938 0.738281 0.0585938 0.738281 0.179688 0.582031 0.03125 0.710938 0.03125 0.988281 0.351563 0.855469 0.351563 0.878906 0.449219 0.964844 0.449219 0.15625 0.101563 0.0273438 0.109375 0.0273438 0.0273438 0.15625 0.199219 0.15625 0.117188 0.277344 0.117188 0.277344 0.199219 0.0273438 0.292969 0.0273438 0.207031 0.152344 0.214844 0.0273438 0.199219 0.0273438 0.117188 0.277344 0.0273438 0.277344 0.292969 0.152344 0.363281 0.046875 0.414063 0.046875 0.363281 0.152344 0.308594 0.046875 0.308594 0.152344 0.363281 0.152344 0.363281 0.046875 0.414063 0.046875 0.363281 0.152344 0.308594 0.046875 0.308594 0.152344 0.363281 0.152344 0.363281 0.046875 0.414063 0.046875 0.363281 0.152344 0.308594 0.046875 0.308594 0.152344 0.363281 0.152344 0.363281 0.046875 0.414063 0.046875 0.363281 0.152344 0.308594 0.046875 0.308594 0.152344 0.363281 0.152344 0.363281 0.046875 0.414063 0.046875 0.363281 0.152344 0.308594 0.046875 0.308594 0.152344 0.363281 0.738281 0.179688 0.738281 0.0585938 0.046875 0.414063 0.152344 0.363281 0.046875 0.414063 0.152344 0.363281 0.046875 0.414063 0.152344 0.363281 0.046875 0.414063 0.152344 0.363281 0.046875 0.414063 0.152344 0.363281 0.152344 0.414063 0.046875 0.363281 0.152344 0.414063 0.046875 0.363281 0.152344 0.414063 0.046875 0.363281 0.152344 0.414063 0.046875 0.363281 0.152344 0.414063 0.046875 0.363281 0.572472 0.411182 0.646278 0.411182 0.730469 0.765625 0.480469 0.640625 0.480469 0.765625 0.4375 0.664063 0.4375 0.746094 0.308594 0.664063 0.308594 0.746094 0.269531 0.640625 0.269531 0.765625 0.015625 0.640625 0.560997 0.209013 0.730469 0.554688 0.480469 0.640625 0.269531 0.554688 0.015625 0.640625 0.730469 0.640625 0.480469 0.765625 0.480469 0.640625 0.4375 0.746094 0.4375 0.664063 0.308594 0.746094 0.308594 0.664063 0.269531 0.765625 0.269531 0.640625 0.015625 0.765625 0.15625 0.199219 0.0273438 0.117188 0.0273438 0.199219 0.738281 0.179688 0.738281 0.0585938 0.834983 0.0204527 0.872001 0.317168 0.726536 0.358563 0.381043 0.428772 0.152344 0.414063 0.046875 0.363281 0.152344 0.414063 0.046875 0.363281 0.152344 0.414063 0.046875 0.363281 0.152344 0.414063 0.046875 0.363281 0.152344 0.414063 0.046875 0.363281 </float_array>
          <technique_common>
            <accessor count="422" offset="0" source="#sigma-mesh0-tex0-array" stride="2">
              <param name="S" type="float" />
              <param name="T" type="float" />
            </accessor>
          </technique_common>
        </source>
        <vertices id="sigma-mesh0-vertices">
          <input semantic="POSITION" source="#sigma-mesh0-positions" />
          <input semantic="NORMAL" source="#sigma-mesh0-normals" />
          <input semantic="TEXCOORD" source="#sigma-mesh0-tex0" />
        </vertices>
        <polylist count="333" material="theresonlyone">
          <input offset="0" semantic="VERTEX" source="#sigma-mesh0-vertices" />
          <vcount>3 3 3 3 3 3 3 3 3 3 3 3 3 3 3 3 3 3 3 3 3 3 3 3 3 3 3 3 3 3 3 3 3 3 3 3 3 3 3 3 3 3 3 3 3 3 3 3 3 3 3 3 3 3 3 3 3 3 3 3 3 3 3 3 3 3 3 3 3 3 3 3 3 3 3 3 3 3 3 3 3 3 3 3 3 3 3 3 3 3 3 3 3 3 3 3 3 3 3 3 3 3 3 3 3 3 3 3 3 3 3 3 3 3 3 3 3 3 3 3 3 3 3 3 3 3 3 3 3 3 3 3 3 3 3 3 3 3 3 3 3 3 3 3 3 3 3 3 3 3 3 3 3 3 3 3 3 3 3 3 3 3 3 3 3 3 3 3 3 3 3 3 3 3 3 3 3 3 3 3 3 3 3 3 3 3 3 3 3 3 3 3 3 3 3 3 3 3 3 3 3 3 3 3 3 3 3 3 3 3 3 3 3 3 3 3 3 3 3 3 3 3 3 3 3 3 3 3 3 3 3 3 3 3 3 3 3 3 3 3 3 3 3 3 3 3 3 3 3 3 3 3 3 3 3 3 3 3 3 3 3 3 3 3 3 3 3 3 3 3 3 3 3 3 3 3 3 3 3 3 3 3 3 3 3 3 3 3 3 3 3 3 3 3 3 3 3 3 3 3 3 3 3 3 3 3 3 3 3 3 3 3 3 3 3 3 3 3 3 3 3 3 3 3 3 3 3 3 3 3 3 3 3 </vcount>
          <p>0 1 2 3 4 2 5 6 7 8 9 10 11 8 10 11 10 12 13 11 12 14 15 16 17 14 16 17 16 18 19 17 18 20 21 22 23 20 22 23 22 24 25 23 24 26 27 28 29 26 28 29 28 30 31 29 30 32 33 34 35 32 34 35 34 36 37 35 36 38 39 40 41 38 40 41 40 42 43 41 42 44 45 46 47 44 46 47 46 48 49 47 48 50 51 52 53 50 52 53 52 54 55 53 54 56 57 58 59 56 58 59 58 60 61 59 60 62 63 64 65 62 64 65 64 66 67 65 66 68 69 70 68 70 71 72 73 74 75 76 77 75 77 78 79 80 81 82 83 76 82 76 75 74 84 72 81 85 79 86 87 88 89 90 91 92 93 94 95 96 97 98 99 100 101 102 103 104 105 106 107 103 108 109 104 106 110 111 112 113 114 115 116 117 118 119 120 121 122 123 124 125 109 106 126 127 128 129 130 131 129 131 132 133 134 135 133 135 136 137 138 139 137 139 140 141 142 143 144 125 106 130 145 146 147 148 149 150 151 139 152 144 106 153 154 155 156 157 158 159 160 161 162 163 164 165 166 167 168 86 88 168 88 169 170 89 171 170 171 172 173 174 175 173 175 176 177 178 97 177 97 179 180 98 100 180 100 181 182 183 184 182 184 185 186 182 185 186 185 187 188 186 187 188 187 189 190 191 192 190 192 193 194 190 195 194 195 196 197 194 196 197 196 198 199 197 198 199 198 200 183 201 202 183 202 203 204 205 206 204 206 207 208 209 210 208 210 211 209 212 213 209 213 214 212 215 216 212 216 217 218 219 220 218 220 221 222 223 224 222 224 225 223 226 227 223 227 228 226 229 230 226 230 231 108 232 233 108 233 107 234 235 236 234 236 237 238 239 240 241 242 243 244 245 246 240 247 238 246 248 244 249 250 251 249 251 252 253 254 255 256 257 258 256 258 259 260 261 262 263 264 257 263 257 256 255 265 253 262 266 260 267 268 269 270 271 269 272 273 274 275 276 277 278 279 276 278 276 275 275 280 281 275 281 278 282 283 280 282 280 275 283 282 284 283 284 285 286 287 288 286 289 290 291 288 292 293 294 295 296 297 298 296 298 299 297 300 301 297 296 302 297 302 303 296 304 305 306 307 308 306 308 309 310 311 312 313 314 315 313 315 316 317 318 319 320 321 314 320 314 313 312 322 310 319 323 317 324 325 326 327 324 326 327 326 328 329 327 328 330 331 332 333 330 332 333 332 334 335 333 334 336 337 338 339 336 338 339 338 340 341 339 340 342 343 344 345 342 344 345 344 346 347 345 346 348 349 350 351 348 350 351 350 352 353 351 352 0 2 7 2 354 7 7 354 355 8 356 9 356 357 9 356 13 357 13 12 357 14 358 15 358 359 15 358 19 359 19 18 359 20 360 21 360 361 21 360 25 361 25 24 361 26 362 27 362 363 27 362 31 363 31 30 363 32 364 33 364 365 33 364 37 365 37 36 365 38 366 39 366 367 39 366 43 367 43 42 367 44 368 45 368 369 45 368 49 369 49 48 369 50 370 51 370 371 51 370 55 371 55 54 371 56 372 57 372 373 57 372 61 373 61 60 373 62 374 63 374 375 63 374 67 375 67 66 375 105 376 106 376 377 106 106 377 152 86 378 87 378 379 87 89 380 90 380 381 90 92 382 93 382 383 93 95 384 96 384 385 96 98 386 99 386 387 99 101 103 388 103 107 388 378 110 379 110 112 379 380 113 381 113 115 381 382 116 383 116 118 383 384 119 385 119 121 385 386 122 387 122 124 387 126 389 127 389 390 127 141 391 142 391 392 142 389 393 390 393 394 390 130 395 145 395 396 145 147 397 148 397 398 148 150 399 151 399 400 151 391 401 392 401 402 392 393 153 394 153 155 394 395 156 396 156 158 396 397 159 398 159 161 398 399 162 400 162 164 400 401 165 402 165 167 402 241 243 403 243 404 403 403 404 405 267 269 274 269 406 274 274 406 407 275 277 282 277 279 282 282 279 284 287 286 408 286 290 408 408 290 409 290 289 409 409 289 291 289 286 291 291 286 288 287 408 410 408 292 410 291 292 409 292 408 409 295 294 411 294 293 411 324 412 325 412 413 325 412 329 413 329 328 413 330 414 331 414 415 331 414 335 415 335 334 415 336 416 337 416 417 337 416 341 417 341 340 417 342 418 343 418 419 343 418 347 419 347 346 419 348 420 349 420 421 349 420 353 421 353 352 421 </p>
        </polylist>
      </mesh>
    </geometry>
  </library_geometries>
  <library_visual_scenes>
    <visual_scene id="myScene" name="myScene">
      <node id="wg018" name="wg018">
        <matrix>1.94707e-007 0 1 0 0 1 0 0 -1 0 1.94707e-007 0 0 0 0 1</matrix>
        <node id="sigma" name="sigma">
          <matrix>1.94707e-007 -0 -1 0 0 1 -0 0 1 0 1.94707e-007 0 0 0 0 1</matrix>
          <instance_geometry url="#sigma-mesh0">
            <bind_material>
              <technique_common>
                <instance_material symbol="theresonlyone" target="#m0sigma" />
              </technique_common>
            </bind_material>
          </instance_geometry>
          <node id="gcol00" name="gcol00">
            <matrix>1.94707e-007 0 1 9.61304 0 1 0 -0.0103934 -1 0 1.94707e-007 3.28333 0 0 0 1</matrix>
          </node>
          <node id="sp" name="sp">
            <matrix>1.94707e-007 0 1 14.613 0 1 0 -0.0103934 -1 0 1.94707e-007 3.28333 0 0 0 1</matrix>
          </node>
        </node>
      </node>
    </visual_scene>
  </library_visual_scenes>
  <scene>
    <instance_visual_scene url="#myScene" />
  </scene>
</COLLADA>