<?xml version="1.0" encoding="utf-8"?>
<COLLADA xmlns="http://www.collada.org/2005/11/COLLADASchema" version="1.4.1">
  <asset>
    <contributor>
      <author>Someone</author>
      <authoring_tool>Assimp Collada Exporter</authoring_tool>
    </contributor>
    <created>2000-01-01T23:59:59</created>
    <modified>2000-01-01T23:59:59</modified>
    <unit name="meter" meter="1" />
    <up_axis>Y_UP</up_axis>
  </asset>
  <library_images>
    <image id="m0c18w10-diffuse-image">
      <init_from>c18w10.png</init_from>
    </image>
  </library_images>
  <library_effects>
    <effect id="m0c18w10-fx" name="m0c18w10">
      <profile_COMMON>
        <newparam sid="m0c18w10-diffuse-surface">
          <surface type="2D">
            <init_from>m0c18w10-diffuse-image</init_from>
          </surface>
        </newparam>
        <newparam sid="m0c18w10-diffuse-sampler">
          <sampler2D>
            <source>m0c18w10-diffuse-surface</source>
          </sampler2D>
        </newparam>
        <technique sid="standard">
          <phong>
            <emission>
              <color sid="emission">0   0   0   0</color>
            </emission>
            <ambient>
              <color sid="ambient">1   1   1   1</color>
            </ambient>
            <diffuse>
              <texture texture="m0c18w10-diffuse-sampler" texcoord="CHANNEL0" />
            </diffuse>
            <specular>
              <color sid="specular">0   0   0   0</color>
            </specular>
            <shininess>
              <float sid="shininess">16</float>
            </shininess>
            <reflective>
              <color sid="reflective">0   0   0   0</color>
            </reflective>
          </phong>
        </technique>
      </profile_COMMON>
    </effect>
  </library_effects>
  <library_materials>
    <material id="m0c18w10" name="m0c18w10">
      <instance_effect url="#m0c18w10-fx" />
    </material>
  </library_materials>
  <library_geometries>
    <geometry id="obj71-mesh0" name="obj71-mesh0">
      <mesh>
        <source id="obj71-mesh0-positions" name="obj71-mesh0-positions">
          <float_array id="obj71-mesh0-positions-array" count="609"> -10.5154 0.358569 4.5033 -10.8739 9.8758e-007 4.5033 -10.5154 7.73255e-007 5.96172 -10.9854 0.35857 4.03326 -10.9854 1.09212e-006 3.67469 -12.9515 2.03092e-006 4.03326 -10.5154 -0.470043 4.39182 -10.8739 -0.470042 4.03326 -10.5154 -1.92847 4.03326 -1.57559 0.132355 1.43644 -0.972825 -1.29307e-006 2.51887 -1.15948 -1.15862e-006 1.29592 -10.5154 1.92847 4.03326 -10.5154 0.470045 3.67469 -10.8739 0.470045 4.03326 -10.1568 0.470045 4.03326 -10.5154 0.470045 3.67469 -10.5154 0.470045 4.39182 -10.5154 -0.358567 3.5631 -10.8739 8.93684e-007 3.5631 -10.5154 1.10801e-006 2.10467 -8.68222 0.451232 4.03326 -8.68222 -7.86847e-008 3.58202 -11.3377 1.39699e-006 4.03326 -10.5154 9.32325e-007 3.0922 -10.5154 -0.941058 4.03326 -11.4564 1.31026e-006 4.03326 -10.5154 0.94106 4.03326 -10.5154 8.12669e-007 4.97431 -9.57431 4.34736e-007 4.03326 -6.42036 -0.839082 3.19417 -6.42036 0.839157 3.1941 -6.42035 0.839083 4.87234 -6.42036 -0.839157 4.87241 -9.06251 0.821083 4.03326 -9.06251 9.93614e-007 3.21217 -9.06251 -0.821081 4.03326 -9.06251 8.89213e-007 4.85434 -0.821367 -1.34457e-006 1.01545 -0.168508 0.39426 0.54481 -0.168509 -0.394261 0.544809 0.130586 -1.87798e-006 2.44015 0.745511 0.394259 2.18544 0.266855 0.581679 -2.3608 0.266855 -0.581679 -2.3608 1.67991 -0.46544 0.530309 2.56784 -0.58168 -2.3608 2.56784 0.581678 -2.3608 1.67991 0.465078 0.530309 -1.03293 -5.30963e-007 7.12688 -2.01477 0.526941 6.14504 -2.67262 0.526942 6.58461 -1.5752 0.526941 5.48718 -2.02864 -1.44016e-007 7.79219 -2.67262 -0.526943 6.58461 -2.89191 -0.526943 6.73113 -2.89191 0.526942 6.73113 -2.67262 0.526942 6.58461 -0.367621 -9.03058e-007 6.13117 -0.145849 -1.02709e-006 5.79926 -1.42868 0.526941 5.2679 -1.5752 -0.526943 5.48718 -1.5752 0.526941 5.48718 -1.5752 -0.526943 5.48718 -1.42868 -0.526943 5.2679 -0.145849 -1.02709e-006 5.79926 -2.02864 -1.44016e-007 7.79219 -2.36054 -1.50339e-008 8.01396 -2.89191 -0.526943 6.73113 -2.89191 0.526942 6.73113 -2.36054 -1.50339e-008 8.01396 -2.01477 -0.526943 6.14504 -1.42868 0.526941 5.2679 -1.42868 -0.526943 5.2679 -4.83574 -0.361186 6.71093 -5.77601 0.361185 6.08266 -4.83574 0.361185 6.71093 -6.40428 -0.361184 5.14238 -6.6249 -0.361184 4.03326 -6.6249 0.361186 4.03326 -6.40428 0.361186 5.14238 -5.77601 -0.361185 6.08266 -1.67721 -0.361186 1.98385 -1.04893 0.361184 2.92413 -1.67721 0.361184 1.98385 -3.72661 -0.361186 6.93155 -4.83574 0.361185 6.71093 -5.77601 0.361185 6.08266 -6.38906 1.20804e-007 6.69571 -0.24795 -1.5636e-006 2.59235 0.0386663 -1.81735e-006 4.03326 -0.828317 -0.361187 4.03326 -1.04893 -0.361187 2.92413 -1.04893 0.361184 2.92413 -0.828317 0.361183 4.03326 -0.24795 -1.87278e-006 5.47416 -1.06416 -1.72145e-006 6.69571 -1.67721 -0.361187 6.08266 -1.04894 -0.361187 5.14239 -1.04894 0.361183 5.14239 -1.67721 0.361183 6.08266 -2.2857 -1.3864e-006 7.51192 -3.72661 -9.18642e-007 7.79853 -3.72661 -0.361186 6.93155 -2.61748 -0.361187 6.71093 -2.61748 0.361184 6.71093 -3.72661 0.361184 6.93155 -6.40428 0.361186 5.14238 -6.6249 0.361186 4.03326 -7.49188 7.87993e-007 4.03325 -7.20527 5.34243e-007 5.47416 -7.20527 5.34243e-007 5.47416 -7.49188 7.87993e-007 4.03325 -6.6249 -0.361184 4.03326 -6.40428 -0.361184 5.14238 -1.06416 -1.15016e-006 1.37081 -0.24795 -1.5636e-006 2.59235 -1.04893 -0.361187 2.92413 -1.67721 -0.361186 1.98385 -1.67721 0.361184 1.98385 -1.04893 0.361184 2.92413 -0.24795 -1.5636e-006 2.59235 -1.06416 -1.15016e-006 1.37081 -5.77601 0.361185 6.08266 -6.40428 0.361186 5.14238 -7.20527 5.34243e-007 5.47416 -6.38906 1.20804e-007 6.69571 -6.38906 1.20804e-007 6.69571 -7.20527 5.34243e-007 5.47416 -6.40428 -0.361184 5.14238 -5.77601 -0.361185 6.08266 0.0386663 -1.81735e-006 4.03326 -0.24795 -1.87278e-006 5.47416 -1.04894 -0.361187 5.14239 -0.828317 -0.361187 4.03326 -0.828317 0.361183 4.03326 -1.04894 0.361183 5.14239 -0.24795 -1.87278e-006 5.47416 0.0386663 -1.81735e-006 4.03326 -1.06416 -1.72145e-006 6.69571 -2.2857 -1.3864e-006 7.51192 -2.61748 -0.361187 6.71093 -1.67721 -0.361187 6.08266 -1.67721 0.361183 6.08266 -2.61748 0.361184 6.71093 -2.2857 -1.3864e-006 7.51192 -1.06416 -1.72145e-006 6.69571 -3.72661 -9.18642e-007 7.79853 -5.16752 -3.89381e-007 7.51191 -4.83574 -0.361186 6.71093 -3.72661 -0.361186 6.93155 -3.72661 0.361184 6.93155 -4.83574 0.361185 6.71093 -5.16752 -3.89381e-007 7.51191 -3.72661 -9.18642e-007 7.79853 -10.5154 -0.358567 4.5033 -10.1568 7.16678e-007 4.5033 -10.9854 -0.358567 4.03326 -10.9854 1.10922e-006 4.39182 -10.5154 -0.470043 3.67469 -10.1568 -0.470043 4.03326 -1.57559 -0.132355 1.43643 -1.17204 -9.64801e-007 0.0899497 -10.5154 0.358569 3.5631 -10.5154 1.10801e-006 2.10467 -10.1568 1.16459e-006 3.5631 -8.68222 -0.451231 4.03326 -8.68222 -5.71632e-008 4.48449 -8.08241 1.15398e-007 4.03326 -7.42305 0.839157 3.1941 -7.42305 -0.839082 3.19417 -6.42036 0.839157 3.1941 -6.42036 -0.839082 3.19417 -7.42305 -0.839157 4.87241 -6.42036 -0.839157 4.87241 -7.42305 0.839083 4.87234 -6.42035 0.839083 4.87234 -7.33065 3.13219e-007 4.03326 -8.16432 4.39252e-007 5.35992 -8.16432 -1.32667 4.03326 -9.06251 8.89213e-007 4.85434 -9.06251 -0.821081 4.03326 -8.16432 6.07938e-007 2.70659 -9.06251 9.93614e-007 3.21217 -8.16432 1.32667 4.03326 -9.06251 0.821083 4.03326 0.745511 -0.394262 2.18544 -2.67262 -0.526943 6.58461 -2.01477 -0.526943 6.14504 -0.367621 -9.03058e-007 6.13117 -1.04893 -0.361187 2.92413 -0.828317 0.361183 4.03326 -0.828317 -0.361187 4.03326 -1.04894 0.361183 5.14239 -1.04894 -0.361187 5.14239 -1.67721 0.361183 6.08266 -1.67721 -0.361187 6.08266 -2.61748 0.361184 6.71093 -2.61748 -0.361187 6.71093 -3.72661 0.361184 6.93155 -5.16752 -3.89381e-007 7.51191 -5.77601 -0.361185 6.08266 -4.83574 -0.361186 6.71093 </float_array>
          <technique_common>
            <accessor count="203" offset="0" source="#obj71-mesh0-positions-array" stride="3">
              <param name="X" type="float" />
              <param name="Y" type="float" />
              <param name="Z" type="float" />
            </accessor>
          </technique_common>
        </source>
        <source id="obj71-mesh0-normals" name="obj71-mesh0-normals">
          <float_array id="obj71-mesh0-normals-array" count="609"> 4.02957e-006 0.971081 0.23875 -0.971081 1.32934e-006 0.238751 1.08748e-005 -7.82988e-007 1 -0.179419 0.983773 4.59869e-007 -0.179419 -1.67225e-007 -0.983773 -1 -8.15533e-007 2.67961e-006 1.24626e-006 -0.23875 0.971081 -0.971081 -0.238751 1.66168e-007 5.30692e-006 -1 6.9599e-007 -0.543472 0.836776 0.0666665 -0.59549 -3.84782e-006 0.803363 0.996818 -1.75817e-006 -0.0797162 5.39392e-006 1 -6.9599e-007 1.2878e-006 0.23875 -0.971081 -0.971081 0.238751 -1.66168e-007 0.971081 0.238749 -1.66167e-007 1.2878e-006 0.23875 -0.971081 1.2878e-006 0.23875 0.971081 4.02956e-006 -0.971081 -0.23875 -0.971081 -1.2878e-006 -0.238751 1.07878e-005 8.69987e-007 -1 -0.167521 0.985868 -1.2555e-007 -0.167522 -2.09251e-007 -0.985868 -1 -8.15533e-007 2.67961e-006 1.54857e-007 -3.35525e-007 -1 5.30692e-006 -1 6.9599e-007 -1 -8.15533e-007 2.67961e-006 5.39392e-006 1 -6.9599e-007 -3.06034e-007 -3.88615e-008 1 1 1.55446e-007 3.83757e-007 0.816484 -0.408261 -0.40826 0.577367 0.577341 -0.577342 0.816485 0.40826 0.40826 0.577368 -0.577341 0.577342 -0.901659 0.432448 0 -0.79796 1.09362e-007 -0.60271 -0.901659 -0.432447 -1.9617e-008 -0.79796 8.20217e-008 0.60271 -0.97519 1.73264e-007 -0.22137 -0.567958 0.803277 -0.17936 -0.568013 -0.803241 -0.179346 -0.289634 -4.02313e-007 0.957137 0.305503 0.709113 0.635473 -0.560677 0.556689 -0.612975 -0.560695 -0.556658 -0.612987 0.631864 -0.712562 0.304963 0.617536 -0.656808 -0.432728 0.617587 0.656798 -0.43267 0.631925 0.71252 0.304935 0.707107 3.88614e-008 0.707107 -0.394456 0.829945 -0.394457 -0.173104 0.950221 -0.259066 -0.259066 0.950221 -0.173104 0.555572 2.4776e-007 0.831469 -0.173104 -0.950221 -0.259066 -0.314069 -0.824882 -0.470032 -0.314069 0.824882 -0.470032 -0.173104 0.950221 -0.259066 0.831468 8.25866e-008 0.555573 0.831468 8.25866e-008 0.555573 -0.470032 0.824882 -0.314069 -0.259066 -0.950221 -0.173103 -0.259066 0.950221 -0.173104 -0.259066 -0.950221 -0.173103 -0.470033 -0.824882 -0.314068 0.831468 8.25866e-008 0.555573 0.555572 2.4776e-007 0.831469 0.555572 2.4776e-007 0.831469 -0.314069 -0.824882 -0.470032 -0.314069 0.824882 -0.470032 0.555572 2.4776e-007 0.831469 -0.394456 -0.829945 -0.394456 -0.470032 0.824882 -0.314069 -0.470033 -0.824882 -0.314068 0.208331 -0.838828 -0.502957 0.384946 0.838828 -0.384946 0.208332 0.838828 -0.502956 0.502956 -0.838829 -0.208331 0.541232 -0.833953 -0.107656 0.541233 0.833953 -0.107656 0.502957 0.838828 -0.20833 0.384946 -0.838828 -0.384946 -0.458834 -0.833953 0.306583 -0.502956 0.838829 0.208331 -0.458834 0.833953 0.306583 -3.22534e-007 -0.838828 -0.544396 0.208332 0.838828 -0.502956 0.384946 0.838828 -0.384946 -0.707107 -7.77229e-008 0.707107 0.92388 3.88614e-008 -0.382683 1 1.55446e-007 3.83757e-007 -0.544396 -0.838828 -5.63586e-007 -0.502957 -0.838828 0.208331 -0.502956 0.838829 0.208331 -0.544396 0.838828 -3.76856e-007 0.923879 7.77229e-008 0.382684 0.707107 3.88614e-008 0.707107 -0.384946 -0.838828 -0.384946 -0.502957 -0.838828 -0.208331 -0.502956 0.838828 -0.208331 -0.384945 0.838829 -0.384946 0.382683 0 0.92388 -3.06034e-007 -3.88615e-008 1 -3.22534e-007 -0.838828 -0.544396 -0.208331 -0.838828 -0.502957 -0.20833 0.838828 -0.502957 3.6667e-007 0.838828 -0.544396 0.502957 0.838828 -0.20833 0.541233 0.833953 -0.107656 -0.980786 -7.62295e-008 0.195089 -0.92388 -1.16584e-007 0.382682 -0.92388 -1.16584e-007 0.382682 -0.980786 -7.62295e-008 0.195089 0.541232 -0.833953 -0.107656 0.502956 -0.838829 -0.208331 0.83147 0 -0.55557 0.92388 3.88614e-008 -0.382683 -0.502957 -0.838828 0.208331 -0.458834 -0.833953 0.306583 -0.458834 0.833953 0.306583 -0.502956 0.838829 0.208331 0.92388 3.88614e-008 -0.382683 0.83147 0 -0.55557 0.384946 0.838828 -0.384946 0.502957 0.838828 -0.20833 -0.92388 -1.16584e-007 0.382682 -0.707107 -7.77229e-008 0.707107 -0.707107 -7.77229e-008 0.707107 -0.92388 -1.16584e-007 0.382682 0.502956 -0.838829 -0.208331 0.384946 -0.838828 -0.384946 1 1.55446e-007 3.83757e-007 0.923879 7.77229e-008 0.382684 -0.502957 -0.838828 -0.208331 -0.544396 -0.838828 -5.63586e-007 -0.544396 0.838828 -3.76856e-007 -0.502956 0.838828 -0.208331 0.923879 7.77229e-008 0.382684 1 1.55446e-007 3.83757e-007 0.707107 3.88614e-008 0.707107 0.382683 0 0.92388 -0.208331 -0.838828 -0.502957 -0.384946 -0.838828 -0.384946 -0.384945 0.838829 -0.384946 -0.20833 0.838828 -0.502957 0.382683 0 0.92388 0.707107 3.88614e-008 0.707107 -3.06034e-007 -3.88615e-008 1 -0.382684 -1.16584e-007 0.923879 0.208331 -0.838828 -0.502957 -3.22534e-007 -0.838828 -0.544396 3.6667e-007 0.838828 -0.544396 0.208332 0.838828 -0.502956 -0.382684 -1.16584e-007 0.923879 -3.06034e-007 -3.88615e-008 1 1.16317e-006 -0.971081 0.23875 0.971081 -1.70321e-006 0.238749 -0.179419 -0.983773 5.01675e-007 -0.179419 -1.25419e-007 0.983773 1.2878e-006 -0.23875 -0.971081 0.971081 -0.238749 1.66167e-007 -0.543474 -0.836775 0.0666663 -0.769607 -1.1675e-006 -0.638518 1.12163e-006 0.971081 -0.23875 1.07878e-005 8.69987e-007 -1 0.971081 1.70321e-006 -0.23875 -0.167522 -0.985868 -8.37002e-008 -0.167522 -1.674e-007 0.985868 -1 -8.15533e-007 2.67961e-006 -0.566446 0.582725 -0.582726 -0.566412 -0.582743 -0.582742 0.577367 0.577341 -0.577342 0.816484 -0.408261 -0.40826 -0.566447 -0.582725 0.582726 0.577368 -0.577341 0.577342 -0.566412 0.582743 0.582742 0.816485 0.40826 0.40826 1 1.55446e-007 3.83757e-007 0.317825 -1.50477e-007 0.948149 0.317824 -0.94815 -5.01592e-008 -0.79796 8.20217e-008 0.60271 -0.901659 -0.432447 -1.9617e-008 0.317825 -1.37938e-007 -0.94815 -0.79796 1.09362e-007 -0.60271 0.317825 0.948149 2.50796e-008 -0.901659 0.432448 0 0.30543 -0.70911 0.635513 -0.173104 -0.950221 -0.259066 -0.394456 -0.829945 -0.394456 0.831468 8.25866e-008 0.555573 -0.502957 -0.838828 0.208331 -0.544396 0.838828 -3.76856e-007 -0.544396 -0.838828 -5.63586e-007 -0.502956 0.838828 -0.208331 -0.502957 -0.838828 -0.208331 -0.384945 0.838829 -0.384946 -0.384946 -0.838828 -0.384946 -0.20833 0.838828 -0.502957 -0.208331 -0.838828 -0.502957 3.6667e-007 0.838828 -0.544396 -0.382684 -1.16584e-007 0.923879 0.384946 -0.838828 -0.384946 0.208331 -0.838828 -0.502957 </float_array>
          <technique_common>
            <accessor count="203" offset="0" source="#obj71-mesh0-normals-array" stride="3">
              <param name="X" type="float" />
              <param name="Y" type="float" />
              <param name="Z" type="float" />
            </accessor>
          </technique_common>
        </source>
        <source id="obj71-mesh0-tex0" name="obj71-mesh0-tex0">
          <float_array id="obj71-mesh0-tex0-array" count="406"> 0.992188 0.3125 0.992188 0.367187 0.882813 0.3125 0.882813 0.3125 0.9375 0.257812 0.9375 0.3125 0.882813 0.367188 0.882813 0.3125 0.992188 0.3125 0.828125 0.318978 0.796875 0.34375 0.817821 0.31271 0.992188 0.3125 0.882813 0.257813 0.882813 0.3125 0.882813 0.3125 0.882813 0.257813 0.882813 0.367188 0.992188 0.3125 0.992188 0.367187 0.882813 0.3125 0.911278 0.3125 0.9375 0.286278 0.9375 0.3125 0.9375 0.257812 0.992188 0.3125 0.9375 0.3125 0.882813 0.3125 0.9375 0.367188 0.9375 0.3125 0.992183 0.132818 0.882813 0.132813 0.882817 0.242183 0.992188 0.242188 0.88399 0.1875 0.9375 0.133991 0.99101 0.1875 0.9375 0.24101 0 0.811353 0.0739826 0.751616 0.0739826 0.751616 0.149642 0.992188 0.246305 0.959858 0.130485 0.382813 0.130485 0.382813 0.35261 0.749775 0.492188 0.382813 0.492188 0.382813 0.35261 0.749775 0.870566 0.493924 0.870566 0.381076 0.785051 0.381076 0.956081 0.381076 0.785051 0.493924 0.956081 0.3886 0.984586 0.3886 0.984586 0.381076 0.956081 0.381076 0.956081 0.493924 0.984586 0.493924 0.984586 0.381076 0.785051 0.3886 0.785051 0.381076 0.785051 0.381076 0.756546 0.381076 0.756546 0.493924 0.956081 0.493924 0.984586 0.493924 0.984586 0.381076 0.756546 0.381076 0.756546 0.493924 0.870566 0.3886 0.756546 0.381076 0.756546 0.3886 0.984375 0.262687 0.882813 0.276576 0.882813 0.262687 0.984375 0.297363 0.984375 0.321883 0.882813 0.321883 0.882813 0.297363 0.984375 0.276576 0.984375 0.36719 0.882813 0.346403 0.882813 0.367188 0.984375 0.257809 0.507161 0.248884 0.735026 0.248884 0.735026 0.367932 0.507161 0.367932 0.735026 0.367932 0.735026 0.248884 0.507161 0.248884 0.507161 0.248884 0.735026 0.248884 0.507161 0.367932 0.735026 0.367932 0.735026 0.248884 0.507161 0.248884 0.507161 0.248884 0.735026 0.248884 0.507161 0.367932 0.735026 0.367932 0.735026 0.248884 0.507161 0.248884 0.507161 0.248884 0.735026 0.248884 0.735734 0.124628 0.506454 0.124628 0.506454 0.243676 0.735734 0.243676 0.506454 0.243676 0.735734 0.243676 0.735734 0.124628 0.506454 0.124628 0.506454 0.243676 0.735734 0.243676 0.735734 0.124628 0.506454 0.124628 0.735734 0.124628 0.506454 0.124628 0.506454 0.243676 0.735734 0.243676 0.50705 0.373981 0.735709 0.373981 0.735709 0.493546 0.50705 0.493546 0.735709 0.493546 0.50705 0.493546 0.50705 0.373981 0.735709 0.373981 0.735709 0.493546 0.50705 0.493546 0.50705 0.373981 0.735709 0.373981 0.50705 0.373981 0.735709 0.373981 0.735709 0.493546 0.50705 0.493546 0.735709 0.493546 0.50705 0.493546 0.50705 0.373981 0.735709 0.373981 0.50705 0.373981 0.735709 0.373981 0.735709 0.493546 0.50705 0.493546 0.735709 0.493546 0.50705 0.493546 0.50705 0.373981 0.735709 0.373981 0.50705 0.373981 0.735709 0.373981 0.735709 0.493546 0.50705 0.493546 0.992188 0.3125 0.992188 0.257813 0.992188 0.3125 0.9375 0.367188 0.882813 0.257813 0.882813 0.3125 0.828125 0.318978 0.827961 0.28125 0.992188 0.3125 0.882813 0.3125 0.992188 0.257813 0.963722 0.3125 0.9375 0.338722 0.100142 0.125006 0.14816 0.0504004 0.14816 0.0504004 0.240159 0.0504004 0.240159 0.0504004 0.148161 0.199612 0.240159 0.199612 0.148161 0.199612 0.240159 0.199612 0.150597 0.125006 0.08401 0.242966 0.08401 0.125006 0.00314404 0.198012 0.00314404 0.125006 0.08401 0.00704719 0.00314404 0.0520008 0.08401 0.125006 0.00314404 0.125006 0.246305 0.959858 0.956081 0.381076 0.870566 0.381076 0.785051 0.493924 0.984375 0.346403 0.882813 0.321883 0.984375 0.321883 0.882813 0.297363 0.984375 0.297363 0.882813 0.276576 0.984375 0.276576 0.882813 0.262687 0.984375 0.262687 0.882813 0.257813 0.507161 0.367932 0.735026 0.248884 0.507161 0.248884 </float_array>
          <technique_common>
            <accessor count="203" offset="0" source="#obj71-mesh0-tex0-array" stride="2">
              <param name="S" type="float" />
              <param name="T" type="float" />
            </accessor>
          </technique_common>
        </source>
        <vertices id="obj71-mesh0-vertices">
          <input semantic="POSITION" source="#obj71-mesh0-positions" />
          <input semantic="NORMAL" source="#obj71-mesh0-normals" />
          <input semantic="TEXCOORD" source="#obj71-mesh0-tex0" />
        </vertices>
        <polylist count="170" material="theresonlyone">
          <input offset="0" semantic="VERTEX" source="#obj71-mesh0-vertices" />
          <vcount>3 3 3 3 3 3 3 3 3 3 3 3 3 3 3 3 3 3 3 3 3 3 3 3 3 3 3 3 3 3 3 3 3 3 3 3 3 3 3 3 3 3 3 3 3 3 3 3 3 3 3 3 3 3 3 3 3 3 3 3 3 3 3 3 3 3 3 3 3 3 3 3 3 3 3 3 3 3 3 3 3 3 3 3 3 3 3 3 3 3 3 3 3 3 3 3 3 3 3 3 3 3 3 3 3 3 3 3 3 3 3 3 3 3 3 3 3 3 3 3 3 3 3 3 3 3 3 3 3 3 3 3 3 3 3 3 3 3 3 3 3 3 3 3 3 3 3 3 3 3 3 3 3 3 3 3 3 3 3 3 3 3 3 3 3 3 3 3 3 3 </vcount>
          <p>0 1 2 3 4 5 6 7 8 9 10 11 12 13 14 12 15 16 12 14 17 12 17 15 18 19 20 21 22 23 24 25 26 27 28 29 30 31 32 32 33 30 34 35 36 36 37 34 38 39 40 41 38 40 42 39 38 42 38 41 39 43 44 39 44 40 45 46 47 45 47 48 49 50 51 52 50 49 51 53 49 54 55 56 54 56 57 58 59 60 61 50 62 63 64 65 66 67 68 51 69 70 51 70 53 57 71 54 62 72 73 62 73 61 74 75 76 77 78 79 77 79 80 81 77 80 82 83 84 85 74 76 86 87 88 89 90 91 89 91 92 93 94 90 93 90 89 95 96 97 95 97 98 99 100 96 99 96 95 101 102 103 101 103 104 105 106 102 105 102 101 107 108 109 107 109 110 111 112 113 111 113 114 115 116 117 115 117 118 119 120 121 119 121 122 123 124 125 123 125 126 127 128 129 127 129 130 131 132 133 131 133 134 135 136 137 135 137 138 139 140 141 139 141 142 143 144 145 143 145 146 147 148 149 147 149 150 151 152 153 151 153 154 1 155 2 155 156 2 2 156 0 4 157 5 157 158 5 5 158 3 7 159 8 159 160 8 8 160 6 11 10 161 10 9 161 161 9 162 9 11 162 162 11 161 19 163 164 163 165 164 164 165 18 22 166 23 166 167 23 23 167 21 25 28 26 28 27 26 26 27 24 27 29 24 24 29 25 29 28 25 168 169 170 169 171 170 170 171 172 168 170 173 170 172 173 173 172 174 168 173 175 173 174 175 175 174 176 168 175 169 175 176 169 169 176 171 177 178 179 178 180 179 179 180 181 177 179 182 179 181 182 182 181 183 177 184 178 184 185 178 178 185 180 177 182 184 182 183 184 184 183 185 42 41 186 41 40 186 39 42 48 42 186 48 48 186 45 186 40 45 45 40 46 40 44 46 46 44 47 44 43 47 47 43 48 43 39 48 187 188 49 188 63 49 49 63 189 63 65 189 49 58 52 58 60 52 49 66 187 66 68 187 61 71 50 71 57 50 74 81 75 81 80 75 82 190 83 190 191 83 190 192 191 192 193 191 192 194 193 194 195 193 194 196 195 196 197 195 196 198 197 198 199 197 198 85 199 85 76 199 86 88 200 88 201 200 200 201 202 </p>
        </polylist>
      </mesh>
    </geometry>
    <geometry id="obj68__m-mesh0" name="obj68__m-mesh0">
      <mesh>
        <source id="obj68__m-mesh0-positions" name="obj68__m-mesh0-positions">
          <float_array id="obj68__m-mesh0-positions-array" count="312"> 1.01229 0.651459 -2.44387 2.44387 -0.651459 -1.01229 1.01229 -0.651459 -2.44387 -1.01229 0.651459 -2.44387 -1.01229 -0.651459 -2.44387 -2.44388 0.651459 -1.01229 -2.44387 -0.651459 -1.01229 -2.44387 0.651459 1.01229 -2.44387 -0.65146 1.01229 -1.01229 0.651459 2.44387 -1.01229 -0.65146 2.44387 1.01229 0.651458 2.44387 -2.44695 -1.73286e-007 0.320412 -3.22721 0.320413 -5.81094e-007 -3.22721 -1.50879e-007 0.320412 -2.44694 -0.320413 -5.22529e-007 -3.22721 -0.320413 -3.02417e-007 -2.44694 -1.90457e-007 -0.320414 -3.73905 0.653904 -9.18407e-008 -3.73905 0.326952 -0.566297 -3.73905 -0.326952 -0.566297 -3.73905 -0.653904 1.58673e-007 -3.21593 0.326952 -0.566297 -3.21593 -0.653904 1.12678e-007 -3.21593 -0.326952 -0.566297 -3.73905 -0.326952 0.566298 -3.73905 0.326952 0.566297 -3.21593 -0.326952 0.566298 -3.21593 0.653904 -1.04778e-007 -3.21593 0.326952 0.566297 -3.21593 0.653904 -1.04778e-007 -3.21593 0.326952 -0.566297 -3.73905 0.326952 -0.566297 -3.73905 0.653904 -9.18407e-008 -3.21593 0.326952 -0.566297 -3.21593 -0.326952 -0.566297 -3.73905 -0.326952 -0.566297 -3.73905 0.326952 -0.566297 -3.21593 -0.326952 -0.566297 -3.21593 -0.653904 1.12678e-007 -3.73905 -0.653904 1.58673e-007 -3.73905 -0.326952 -0.566297 -3.21593 -0.653904 1.12678e-007 -3.21593 -0.326952 0.566298 -3.73905 -0.326952 0.566298 -3.73905 -0.653904 1.58673e-007 -3.21593 -0.326952 0.566298 -3.21593 0.326952 0.566297 -3.73905 0.326952 0.566297 -3.73905 -0.326952 0.566298 -3.21593 0.326952 0.566297 -3.21593 0.653904 -1.04778e-007 -3.73905 0.653904 -9.18407e-008 -3.73905 0.326952 0.566297 3.73905 -0.653904 2.02941e-007 3.73905 -0.326952 -0.566297 3.73905 0.326952 -0.566297 3.73905 0.653904 -1.45155e-008 3.21593 -0.326952 -0.566297 3.21593 0.653904 3.10379e-009 3.21593 0.326952 -0.566297 3.73905 0.326952 0.566297 3.73905 -0.326952 0.566298 3.21593 0.326952 0.566297 3.21593 -0.653904 2.2056e-007 3.21593 -0.326952 0.566298 3.73905 0.653904 -1.45155e-008 3.73905 0.326952 -0.566297 3.21593 0.326952 -0.566297 3.21593 0.653904 3.10379e-009 3.73905 0.326952 -0.566297 3.73905 -0.326952 -0.566297 3.21593 -0.326952 -0.566297 3.21593 0.326952 -0.566297 3.73905 -0.326952 -0.566297 3.73905 -0.653904 2.02941e-007 3.21593 -0.653904 2.2056e-007 3.21593 -0.326952 -0.566297 3.73905 -0.653904 2.02941e-007 3.73905 -0.326952 0.566298 3.21593 -0.326952 0.566298 3.21593 -0.653904 2.2056e-007 3.73905 -0.326952 0.566298 3.73905 0.326952 0.566297 3.21593 0.326952 0.566297 3.21593 -0.326952 0.566298 3.73905 0.326952 0.566297 3.73905 0.653904 -1.45155e-008 3.21593 0.653904 3.10379e-009 3.21593 0.326952 0.566297 3.22721 -1.62975e-007 0.320413 2.44694 0.320413 -3.56158e-008 2.44694 -1.65515e-007 0.320413 3.22721 -0.320413 1.91419e-007 2.44694 -0.320413 1.83204e-008 3.22721 -2.02752e-007 -0.320413 2.44387 0.651459 -1.01229 2.44388 -0.65146 1.01228 2.44388 0.651459 1.01228 1.01229 -0.65146 2.44387 -2.44694 0.320413 -5.19324e-007 -3.22721 -2.02585e-007 -0.320414 3.22721 0.320413 -1.81865e-008 2.44694 -1.80345e-007 -0.320413 </float_array>
          <technique_common>
            <accessor count="104" offset="0" source="#obj68__m-mesh0-positions-array" stride="3">
              <param name="X" type="float" />
              <param name="Y" type="float" />
              <param name="Z" type="float" />
            </accessor>
          </technique_common>
        </source>
        <source id="obj68__m-mesh0-normals" name="obj68__m-mesh0-normals">
          <float_array id="obj68__m-mesh0-normals-array" count="312"> 0.382683 3.50133e-008 -0.92388 0.923879 3.50133e-008 -0.382684 0.382683 3.50133e-008 -0.92388 -0.382683 -1.75066e-008 -0.92388 -0.382683 -1.75066e-008 -0.92388 -0.92388 -1.16539e-007 -0.382683 -0.92388 -1.16539e-007 -0.382683 -0.92388 -1.34046e-007 0.382683 -0.92388 -1.34046e-007 0.382683 -0.382683 1.4503e-008 0.92388 -0.382683 1.4503e-008 0.92388 0.382684 3.20096e-008 0.923879 1.55769e-007 1.26441e-007 1 2.42012e-007 1 0 1.55769e-007 1.26441e-007 1 -1.28421e-008 -1 2.95028e-007 -1.28421e-008 -1 2.95028e-007 7.34009e-008 -1.68587e-007 -1 -0.755929 0.654654 -5.32276e-007 -0.5 0.433013 -0.75 -0.5 -0.433013 -0.75 -0.755929 -0.654654 -2.16878e-007 0.5 0.433013 -0.75 0.755929 -0.654654 2.1814e-008 0.5 -0.433013 -0.75 -0.5 -0.433012 0.75 -0.5 0.433013 0.75 0.5 -0.433012 0.75 0.755929 0.654654 -2.93584e-007 0.5 0.433013 0.75 0.755929 0.654654 -2.93584e-007 0.5 0.433013 -0.75 -0.5 0.433013 -0.75 -0.755929 0.654654 -5.32276e-007 0.5 0.433013 -0.75 0.5 -0.433013 -0.75 -0.5 -0.433013 -0.75 -0.5 0.433013 -0.75 0.5 -0.433013 -0.75 0.755929 -0.654654 2.1814e-008 -0.755929 -0.654654 -2.16878e-007 -0.5 -0.433013 -0.75 0.755929 -0.654654 2.1814e-008 0.5 -0.433012 0.75 -0.5 -0.433012 0.75 -0.755929 -0.654654 -2.16878e-007 0.5 -0.433012 0.75 0.5 0.433013 0.75 -0.5 0.433013 0.75 -0.5 -0.433012 0.75 0.5 0.433013 0.75 0.755929 0.654654 -2.93584e-007 -0.755929 0.654654 -5.32276e-007 -0.5 0.433013 0.75 0.755929 -0.654654 2.1814e-008 0.5 -0.433013 -0.75 0.5 0.433013 -0.75 0.755929 0.654654 -2.93584e-007 -0.5 -0.433013 -0.75 -0.755929 0.654654 -5.32276e-007 -0.5 0.433013 -0.75 0.5 0.433013 0.75 0.5 -0.433012 0.75 -0.5 0.433013 0.75 -0.755929 -0.654654 -2.16878e-007 -0.5 -0.433012 0.75 0.755929 0.654654 -2.93584e-007 0.5 0.433013 -0.75 -0.5 0.433013 -0.75 -0.755929 0.654654 -5.32276e-007 0.5 0.433013 -0.75 0.5 -0.433013 -0.75 -0.5 -0.433013 -0.75 -0.5 0.433013 -0.75 0.5 -0.433013 -0.75 0.755929 -0.654654 2.1814e-008 -0.755929 -0.654654 -2.16878e-007 -0.5 -0.433013 -0.75 0.755929 -0.654654 2.1814e-008 0.5 -0.433012 0.75 -0.5 -0.433012 0.75 -0.755929 -0.654654 -2.16878e-007 0.5 -0.433012 0.75 0.5 0.433013 0.75 -0.5 0.433013 0.75 -0.5 -0.433012 0.75 0.5 0.433013 0.75 0.755929 0.654654 -2.93584e-007 -0.755929 0.654654 -5.32276e-007 -0.5 0.433013 0.75 1.55769e-007 1.26441e-007 1 2.42012e-007 1 0 1.55769e-007 1.26441e-007 1 -1.28421e-008 -1 2.95028e-007 -1.28421e-008 -1 2.95028e-007 7.34009e-008 -1.68587e-007 -1 0.923879 3.50133e-008 -0.382684 0.92388 -1.75066e-008 0.382683 0.92388 -1.75066e-008 0.382683 0.382684 3.20096e-008 0.923879 2.42012e-007 1 0 7.34009e-008 -1.68587e-007 -1 2.42012e-007 1 0 7.34009e-008 -1.68587e-007 -1 </float_array>
          <technique_common>
            <accessor count="104" offset="0" source="#obj68__m-mesh0-normals-array" stride="3">
              <param name="X" type="float" />
              <param name="Y" type="float" />
              <param name="Z" type="float" />
            </accessor>
          </technique_common>
        </source>
        <source id="obj68__m-mesh0-tex0" name="obj68__m-mesh0-tex0">
          <float_array id="obj68__m-mesh0-tex0-array" count="208"> 0.735197 0 0.665747 0.118056 0.735197 0.118056 0.735197 0 0.735197 0.118056 0.665747 0 0.665747 0.118056 0.576441 0 0.576441 0.118056 0.50699 0 0.50699 0.118056 0.50699 0 0.808594 0.0227482 0.756641 0.197151 0.808594 0.197151 0.860547 0.0227482 0.860547 0.197151 0.808594 0.0227482 0.371094 0.235268 0.257161 0.168862 0.257161 0.0739955 0.371094 0.00758929 0.257161 0.168862 0.371094 0.00758929 0.257161 0.0739955 0.485026 0.0739956 0.485026 0.168862 0.485026 0.0739956 0.371094 0.235268 0.485026 0.168862 0.756696 0.256696 0.756696 0.360863 0.860863 0.360863 0.860863 0.256696 0.756696 0.256696 0.756696 0.360863 0.860863 0.360863 0.860863 0.256696 0.756696 0.256696 0.756696 0.360863 0.860863 0.360863 0.860863 0.256696 0.756696 0.256696 0.756696 0.360863 0.860863 0.360863 0.860863 0.256696 0.756696 0.256696 0.756696 0.360863 0.860863 0.360863 0.860863 0.256696 0.756696 0.256696 0.756696 0.360863 0.860863 0.360863 0.860863 0.256696 0.371094 0.00758929 0.257161 0.0739955 0.257161 0.168862 0.371094 0.235268 0.257161 0.0739955 0.371094 0.235268 0.257161 0.168862 0.485026 0.168862 0.485026 0.0739956 0.485026 0.168862 0.371094 0.00758929 0.485026 0.0739956 0.860863 0.256696 0.860863 0.360863 0.756696 0.360863 0.756696 0.256696 0.860863 0.256696 0.860863 0.360863 0.756696 0.360863 0.756696 0.256696 0.860863 0.256696 0.860863 0.360863 0.756696 0.360863 0.756696 0.256696 0.860863 0.256696 0.860863 0.360863 0.756696 0.360863 0.756696 0.256696 0.860863 0.256696 0.860863 0.360863 0.756696 0.360863 0.756696 0.256696 0.860863 0.256696 0.860863 0.360863 0.756696 0.360863 0.756696 0.256696 0.808594 0.197151 0.756641 0.0227482 0.808594 0.0227482 0.860547 0.197151 0.860547 0.0227482 0.808594 0.197151 0.665747 0 0.576441 0.118056 0.576441 0 0.50699 0.118056 0.756641 0.0227482 0.808594 0.197151 0.756641 0.197151 0.808594 0.0227482 </float_array>
          <technique_common>
            <accessor count="104" offset="0" source="#obj68__m-mesh0-tex0-array" stride="2">
              <param name="S" type="float" />
              <param name="T" type="float" />
            </accessor>
          </technique_common>
        </source>
        <vertices id="obj68__m-mesh0-vertices">
          <input semantic="POSITION" source="#obj68__m-mesh0-positions" />
          <input semantic="NORMAL" source="#obj68__m-mesh0-normals" />
          <input semantic="TEXCOORD" source="#obj68__m-mesh0-tex0" />
        </vertices>
        <polylist count="72" material="theresonlyone">
          <input offset="0" semantic="VERTEX" source="#obj68__m-mesh0-vertices" />
          <vcount>3 3 3 3 3 3 3 3 3 3 3 3 3 3 3 3 3 3 3 3 3 3 3 3 3 3 3 3 3 3 3 3 3 3 3 3 3 3 3 3 3 3 3 3 3 3 3 3 3 3 3 3 3 3 3 3 3 3 3 3 3 3 3 3 3 3 3 3 3 3 3 3 </vcount>
          <p>0 1 2 3 0 2 3 2 4 5 3 4 5 4 6 7 5 6 7 6 8 9 7 8 9 8 10 11 9 10 12 13 14 15 12 14 15 14 16 17 15 16 18 19 20 18 20 21 22 23 24 21 25 26 21 26 18 27 28 29 30 31 32 30 32 33 34 35 36 34 36 37 38 39 40 38 40 41 42 43 44 42 44 45 46 47 48 46 48 49 50 51 52 50 52 53 54 55 56 54 56 57 58 59 60 57 61 62 57 62 54 63 64 65 66 67 68 66 68 69 70 71 72 70 72 73 74 75 76 74 76 77 78 79 80 78 80 81 82 83 84 82 84 85 86 87 88 86 88 89 90 91 92 93 90 92 93 92 94 95 93 94 0 96 1 96 97 1 96 98 97 98 99 97 98 11 99 11 10 99 12 100 13 100 101 13 100 17 101 17 16 101 22 28 23 28 27 23 58 64 59 64 63 59 90 102 91 102 103 91 102 95 103 95 94 103 </p>
        </polylist>
      </mesh>
    </geometry>
    <geometry id="kaku2--C0Z0APPBA-mesh0" name="kaku2--C0Z0APPBA-mesh0">
      <mesh>
        <source id="kaku2--C0Z0APPBA-mesh0-positions" name="kaku2--C0Z0APPBA-mesh0-positions">
          <float_array id="kaku2--C0Z0APPBA-mesh0-positions-array" count="12"> -2.47744 2.47744 1.05648e-007 -2.47744 -2.47744 -1.07417e-007 2.47744 -2.47744 -1.06252e-007 2.47744 2.47744 1.04063e-007 </float_array>
          <technique_common>
            <accessor count="4" offset="0" source="#kaku2--C0Z0APPBA-mesh0-positions-array" stride="3">
              <param name="X" type="float" />
              <param name="Y" type="float" />
              <param name="Z" type="float" />
            </accessor>
          </technique_common>
        </source>
        <source id="kaku2--C0Z0APPBA-mesh0-normals" name="kaku2--C0Z0APPBA-mesh0-normals">
          <float_array id="kaku2--C0Z0APPBA-mesh0-normals-array" count="12"> 4.24156e-011 -4.27235e-008 1 4.24156e-011 -4.27235e-008 1 4.24156e-011 -4.27235e-008 1 4.24156e-011 -4.27235e-008 1 </float_array>
          <technique_common>
            <accessor count="4" offset="0" source="#kaku2--C0Z0APPBA-mesh0-normals-array" stride="3">
              <param name="X" type="float" />
              <param name="Y" type="float" />
              <param name="Z" type="float" />
            </accessor>
          </technique_common>
        </source>
        <source id="kaku2--C0Z0APPBA-mesh0-tex0" name="kaku2--C0Z0APPBA-mesh0-tex0">
          <float_array id="kaku2--C0Z0APPBA-mesh0-tex0-array" count="8"> 0.507572 0.984493 0.507572 0.507457 0.984495 0.507457 0.984495 0.984493 </float_array>
          <technique_common>
            <accessor count="4" offset="0" source="#kaku2--C0Z0APPBA-mesh0-tex0-array" stride="2">
              <param name="S" type="float" />
              <param name="T" type="float" />
            </accessor>
          </technique_common>
        </source>
        <vertices id="kaku2--C0Z0APPBA-mesh0-vertices">
          <input semantic="POSITION" source="#kaku2--C0Z0APPBA-mesh0-positions" />
          <input semantic="NORMAL" source="#kaku2--C0Z0APPBA-mesh0-normals" />
          <input semantic="TEXCOORD" source="#kaku2--C0Z0APPBA-mesh0-tex0" />
        </vertices>
        <polylist count="2" material="theresonlyone">
          <input offset="0" semantic="VERTEX" source="#kaku2--C0Z0APPBA-mesh0-vertices" />
          <vcount>3 3 </vcount>
          <p>0 1 2 0 2 3 </p>
        </polylist>
      </mesh>
    </geometry>
    <geometry id="kaku--C0Z0APPBA-mesh0" name="kaku--C0Z0APPBA-mesh0">
      <mesh>
        <source id="kaku--C0Z0APPBA-mesh0-positions" name="kaku--C0Z0APPBA-mesh0-positions">
          <float_array id="kaku--C0Z0APPBA-mesh0-positions-array" count="12"> -2.47744 2.47744 1.05648e-007 -2.47744 -2.47744 -1.07417e-007 2.47744 -2.47744 -1.06252e-007 2.47744 2.47744 1.04063e-007 </float_array>
          <technique_common>
            <accessor count="4" offset="0" source="#kaku--C0Z0APPBA-mesh0-positions-array" stride="3">
              <param name="X" type="float" />
              <param name="Y" type="float" />
              <param name="Z" type="float" />
            </accessor>
          </technique_common>
        </source>
        <source id="kaku--C0Z0APPBA-mesh0-normals" name="kaku--C0Z0APPBA-mesh0-normals">
          <float_array id="kaku--C0Z0APPBA-mesh0-normals-array" count="12"> 4.24156e-011 -4.27235e-008 1 4.24156e-011 -4.27235e-008 1 4.24156e-011 -4.27235e-008 1 4.24156e-011 -4.27235e-008 1 </float_array>
          <technique_common>
            <accessor count="4" offset="0" source="#kaku--C0Z0APPBA-mesh0-normals-array" stride="3">
              <param name="X" type="float" />
              <param name="Y" type="float" />
              <param name="Z" type="float" />
            </accessor>
          </technique_common>
        </source>
        <source id="kaku--C0Z0APPBA-mesh0-tex0" name="kaku--C0Z0APPBA-mesh0-tex0">
          <float_array id="kaku--C0Z0APPBA-mesh0-tex0-array" count="8"> 0.507572 0.984493 0.507572 0.507457 0.984495 0.507457 0.984495 0.984493 </float_array>
          <technique_common>
            <accessor count="4" offset="0" source="#kaku--C0Z0APPBA-mesh0-tex0-array" stride="2">
              <param name="S" type="float" />
              <param name="T" type="float" />
            </accessor>
          </technique_common>
        </source>
        <vertices id="kaku--C0Z0APPBA-mesh0-vertices">
          <input semantic="POSITION" source="#kaku--C0Z0APPBA-mesh0-positions" />
          <input semantic="NORMAL" source="#kaku--C0Z0APPBA-mesh0-normals" />
          <input semantic="TEXCOORD" source="#kaku--C0Z0APPBA-mesh0-tex0" />
        </vertices>
        <polylist count="2" material="theresonlyone">
          <input offset="0" semantic="VERTEX" source="#kaku--C0Z0APPBA-mesh0-vertices" />
          <vcount>3 3 </vcount>
          <p>0 1 2 0 2 3 </p>
        </polylist>
      </mesh>
    </geometry>
  </library_geometries>
  <library_visual_scenes>
    <visual_scene id="myScene" name="myScene">
      <node id="obj71" name="obj71">
        <matrix>-1 3.89414e-007 -0 -1.46593 -3.89414e-007 -1 0 0 -0 0 1 -0.92871 0 0 0 1</matrix>
        <instance_geometry url="#obj71-mesh0">
          <bind_material>
            <technique_common>
              <instance_material symbol="theresonlyone" target="#m0c18w10" />
            </technique_common>
          </bind_material>
        </instance_geometry>
        <node id="obj68__m" name="obj68__m">
          <matrix>-3.63737e-007 0.707107 -0.707107 -3.72661 -0.906308 -0.298836 -0.298836 7.91e-007 -0.422618 0.640856 0.640856 4.03326 0 0 0 1</matrix>
          <instance_geometry url="#obj68__m-mesh0">
            <bind_material>
              <technique_common>
                <instance_material symbol="theresonlyone" target="#m0c18w10" />
              </technique_common>
            </bind_material>
          </instance_geometry>
          <node id="kaku2--C0Z0APPBA" name="kaku2--C0Z0APPBA">
            <matrix>1.37679e-007 -0.422619 0.906308 -1.37311e-006 0.707107 0.640856 0.298836 5.33504e-006 -0.707107 0.640856 0.298837 -9.17516e-006 0 0 0 1</matrix>
            <instance_geometry url="#kaku2--C0Z0APPBA-mesh0">
              <bind_material>
                <technique_common>
                  <instance_material symbol="theresonlyone" target="#m0c18w10" />
                </technique_common>
              </bind_material>
            </instance_geometry>
          </node>
          <node id="kaku--C0Z0APPBA" name="kaku--C0Z0APPBA">
            <matrix>1.37679e-007 -0.422619 0.906308 -1.37311e-006 0.707107 0.640856 0.298836 5.33504e-006 -0.707107 0.640856 0.298837 -9.17516e-006 0 0 0 1</matrix>
            <instance_geometry url="#kaku--C0Z0APPBA-mesh0">
              <bind_material>
                <technique_common>
                  <instance_material symbol="theresonlyone" target="#m0c18w10" />
                </technique_common>
              </bind_material>
            </instance_geometry>
          </node>
        </node>
        <node id="gcol02" name="gcol02">
          <matrix>1 0 0 -7.05528 0 1 0 1.68211e-006 -0 0 1 4.03655 0 0 0 1</matrix>
        </node>
        <node id="gcol01" name="gcol01">
          <matrix>1 0 0 -3.26003 0 1 0 7.77251e-007 -0 0 1 4.03655 0 0 0 1</matrix>
        </node>
        <node id="gcol00" name="gcol00">
          <matrix>1 0 0 -14.1001 0 1 0 3.89044e-006 -0 0 1 4.04314 0 0 0 1</matrix>
        </node>
        <node id="sp" name="sp">
          <matrix>1 0 0 -19.4892 0 1 0 5.98905e-006 -0 0 1 4.04314 0 0 0 1</matrix>
        </node>
      </node>
    </visual_scene>
  </library_visual_scenes>
  <scene>
    <instance_visual_scene url="#myScene" />
  </scene>
</COLLADA>