<?xml version="1.0" encoding="utf-8"?>
<COLLADA xmlns="http://www.collada.org/2005/11/COLLADASchema" version="1.4.1">
  <asset>
    <contributor>
      <author>Someone</author>
      <authoring_tool>Assimp Collada Exporter</authoring_tool>
    </contributor>
    <created>2000-01-01T23:59:59</created>
    <modified>2000-01-01T23:59:59</modified>
    <unit name="meter" meter="1" />
    <up_axis>Y_UP</up_axis>
  </asset>
  <library_images>
    <image id="m0soul-diffuse-image">
      <init_from>soul.png</init_from>
    </image>
  </library_images>
  <library_effects>
    <effect id="m0soul-fx" name="m0soul">
      <profile_COMMON>
        <newparam sid="m0soul-diffuse-surface">
          <surface type="2D">
            <init_from>m0soul-diffuse-image</init_from>
          </surface>
        </newparam>
        <newparam sid="m0soul-diffuse-sampler">
          <sampler2D>
            <source>m0soul-diffuse-surface</source>
          </sampler2D>
        </newparam>
        <technique sid="standard">
          <phong>
            <emission>
              <color sid="emission">0   0   0   0</color>
            </emission>
            <ambient>
              <color sid="ambient">1   1   1   1</color>
            </ambient>
            <diffuse>
              <texture texture="m0soul-diffuse-sampler" texcoord="CHANNEL0" />
            </diffuse>
            <specular>
              <color sid="specular">0   0   0   0</color>
            </specular>
            <shininess>
              <float sid="shininess">16</float>
            </shininess>
            <reflective>
              <color sid="reflective">0   0   0   0</color>
            </reflective>
          </phong>
        </technique>
      </profile_COMMON>
    </effect>
  </library_effects>
  <library_materials>
    <material id="m0soul" name="m0soul">
      <instance_effect url="#m0soul-fx" />
    </material>
  </library_materials>
  <library_geometries>
    <geometry id="soul-mesh0" name="soul-mesh0">
      <mesh>
        <source id="soul-mesh0-positions" name="soul-mesh0-positions">
          <float_array id="soul-mesh0-positions-array" count="912"> 4.42359 2.27948 2.69307 3.88868 2.21363 1.86263 5.18984 0.319575 1.02023 5.77164 0.322579 1.82123 4.93692 3.03069 2.30284 6.44082 0.864872 1.33315 4.40202 2.96483 1.4724 5.85901 0.861868 0.532148 3.88868 2.21363 1.86263 4.40202 2.96483 1.4724 5.85901 0.861868 0.532148 5.18984 0.319575 1.02023 -4.08591 0.527954 3.53641 -4.2206 -0.453322 3.53885 -5.14623 -0.133571 3.53746 2.67318 3.27012 3.53666 2.27595 3.13001 2.64074 2.84668 4.21842 3.31143 2.44945 4.0783 2.4155 2.27595 3.13001 2.64074 2.44945 4.0783 2.4155 0.515448 3.42932 4.19245 0.327899 3.2739 3.23288 0.396452 4.4029 4.05802 0.208903 4.24749 3.09845 0.327899 3.2739 3.23288 0.208903 4.24749 3.09845 -1.75025 2.93861 4.50543 -1.79139 2.81255 3.52435 -2.0648 3.87124 4.39879 -2.10594 3.74518 3.41771 -1.79139 2.81255 3.52435 -2.10594 3.74518 3.41771 -3.6559 2.09152 4.60869 -3.62606 1.9967 3.62369 -4.1293 2.95682 4.511 -4.10082 2.86118 3.52604 -3.62606 1.9967 3.62369 -4.10082 2.86118 3.52604 -4.5389 1.28464 4.6098 -4.49034 1.25296 3.6215 -5.32474 1.88627 4.5518 -5.27782 1.8522 3.5635 -4.49034 1.25296 3.6215 -5.6649 0.800084 3.5818 -5.14623 -0.133571 3.53746 -5.66371 0.773558 4.57145 -4.08591 0.527954 3.53641 -3.25945 0.745018 4.7625 -3.29294 0.746115 3.26392 -4.06175 0.527098 4.52611 -4.08591 0.527954 3.53641 -4.50692 0.643885 3.57964 -4.19622 -0.454201 4.52855 -4.4977 0.584091 4.56779 -5.14341 -0.190036 4.52585 -4.19622 -0.454201 4.52855 -4.2206 -0.453322 3.53885 -3.33387 -0.752283 3.26373 -4.2206 -0.453322 3.53885 -4.2206 -0.453322 3.53885 -4.08591 0.527954 3.53641 -3.29294 0.746115 3.26392 -3.33387 -0.752283 3.26373 -0.619881 -0.2709 1.05252 -0.619881 0.2709 1.05252 3.64721 0.2709 0.125168 3.64721 -0.2709 0.125168 -1.36086 -0.549072 -2.46203 -2.95909 -0.321756 -2.71068 -2.95909 0.321756 -2.71068 -1.36086 0.549072 -2.46203 -3.32127 -0.666144 2.16387 -2.81978 -0.326923 2.93804 -2.81978 0.326923 2.93804 0.341763 -0.45 2.93804 -0.622926 -0.45 0.956365 -0.622926 0.45 0.956365 -3.40303 -0.549072 -2.10681 -2.95909 -0.321756 -2.71068 -1.36086 -0.549072 -2.46203 -2.09717 -0.45 0.717349 0.315869 0.131976 0.923202 0.0851766 3.22893e-009 -0.0738693 -0.308396 -4.46874e-008 1.02233 0.854762 -0.201366 -0.719459 1.62498 -0.201366 0.664882 1.12131 -3.2566e-008 0.745024 -0.996379 -0.201366 -0.147991 -0.996379 0.201366 -0.147991 4.51856 -0.393001 1.58478 4.51856 0.393001 1.58478 3.82617 0.393001 1.13321 3.82617 -0.393001 1.13321 5.653 0.393001 0.33433 4.41904 -0.393001 -0.447639 4.41904 0.393001 -0.447639 3.2879 -0.393001 0.480572 3.82617 -0.393001 1.13321 3.82617 0.393001 1.13321 3.2879 0.393001 0.480572 4.51856 0.393001 1.58478 5.28829 0.393001 3.06905 6.55912 0.393001 1.54263 5.0403 0.393001 2.28005 5.28829 -0.393001 3.06905 5.0403 -0.393001 2.28005 6.97665 -0.393001 3.0758 5.0403 -0.393001 2.28005 6.95868 -1.01623 1.05587 7.31177 -1.17993e-007 1.52444 6.25248 -1.01623 0.118715 7.31177 -1.17993e-007 1.52444 6.95868 -1.01623 1.05587 6.25248 -1.01623 0.118715 5.0403 0.393001 2.28005 5.89938 2.20235e-007 -0.34986 4.51856 -0.393001 1.58478 4.51856 0.393001 1.58478 4.51856 0.393001 1.58478 6.25248 1.01623 0.118717 6.95868 1.01623 1.05587 5.89938 2.20235e-007 -0.34986 6.25248 1.01623 0.118717 6.95868 1.01623 1.05587 4.51856 -0.393001 1.58478 5.01671 -0.636021 5.11774 5.01671 0.63602 5.11774 5.01671 1.27204 4.01612 5.01671 -0.636021 5.11774 7.46129 -1.27204 4.01612 7.46129 -0.636021 5.11774 5.01671 0.636021 2.9145 5.01671 -0.636021 2.91449 5.01671 -1.27204 4.01612 5.01671 -0.636021 2.91449 7.46129 -0.636021 2.91449 7.46129 0.636021 2.91449 7.46129 -1.27204 4.01612 7.46129 -0.636021 2.91449 5.01671 -0.636021 2.91449 7.46129 0.636021 2.91449 7.46129 -0.636021 2.91449 5.01671 0.63602 5.11774 5.01671 -0.636021 5.11774 7.46129 -0.636021 5.11774 -3.43111 -0.652613 5.14648 -3.43111 0.652612 5.14648 -3.43111 1.30523 4.01612 -3.43111 -0.652613 5.14648 0.451355 -1.30523 4.01612 0.451355 -0.652613 5.14647 -3.43111 0.652613 2.88576 -3.43111 -0.652613 2.88576 -3.43111 -1.30523 4.01612 -3.43111 -0.652613 2.88576 0.451355 -0.652613 2.88576 0.451355 0.652613 2.88576 0.451355 -1.30523 4.01612 0.451355 -0.652613 2.88576 -3.43111 -0.652613 2.88576 0.451355 0.652613 2.88576 0.451355 -0.652613 2.88576 -3.43111 0.652612 5.14648 -3.43111 -0.652613 5.14648 0.451355 -0.652613 5.14647 7.71526 -0.814107 5.42619 8.58545 -1.62821 4.01612 8.58545 -0.814107 5.42619 7.71526 1.62821 4.01612 7.71526 0.814107 2.60604 7.71526 -0.814106 2.60604 7.71526 -1.62821 4.01612 7.71526 -1.62821 4.01612 7.71526 -0.814106 2.60604 8.58545 -0.814106 2.60604 7.71526 -0.814106 2.60604 8.58545 0.814107 2.60604 8.58545 -0.814106 2.60604 7.71526 -0.814107 5.42619 7.71526 0.814106 5.42619 7.71526 0.814106 5.42619 7.71526 -0.814107 5.42619 8.58545 -0.814107 5.42619 8.58545 -0.814107 5.42619 9.30418 -0.928082 4.01612 9.30418 -0.464041 4.81986 8.58545 -1.62821 4.01612 8.58545 -0.814106 2.60604 9.30418 -0.464041 3.21237 8.58545 -0.814106 2.60604 8.58545 0.814107 2.60604 9.30418 0.464041 3.21237 9.30418 -0.464041 3.21237 9.30418 0.928082 4.01612 9.30418 0.464041 3.21237 8.58545 1.62821 4.01612 8.58545 0.814106 5.42619 9.30418 0.46404 4.81986 8.58545 -0.814107 5.42619 9.30418 -0.464041 4.81986 9.30418 0.46404 4.81986 7.41871 0.747 4.01611 7.88236 -1.63041e-007 4.76312 7.88236 0.747 4.01611 7.41871 -3.2431e-008 3.26911 7.88236 -3.2431e-008 3.26911 7.41871 -0.747 4.01611 7.71788 0.89408 -0.897239 8.33919 0.89408 -0.0727315 8.57137 2.8659e-008 -0.894045 7.40722 2.41563e-007 -1.30949 7.71788 -0.89408 -0.897239 8.64985 -5.60103e-008 0.339522 8.33919 0.89408 -0.0727315 7.71788 0.89408 -0.897239 7.40722 2.41563e-007 -1.30949 7.71788 -0.89408 -0.897239 8.33919 -0.89408 -0.0727319 1.31063 -1.79982 2.97699 1.31063 -1.79983 5.05524 0.314719 -1.7555e-007 4.01612 1.31063 2.45425e-007 1.93786 4.2153 1.79983 2.97699 4.2153 1.79982 5.05524 5.21121 -1.7555e-007 4.01611 1.31063 1.79983 2.97699 -0.619881 0.2709 1.05252 -0.428748 -8.9407e-008 1.932 -4.50692 0.643885 3.57964 -5.6649 0.800084 3.5818 -5.27782 1.8522 3.5635 -4.06175 0.527098 4.52611 -3.30038 -0.753379 4.76232 -3.40303 0.549072 -2.10681 -2.09717 0.45 0.717349 -1.36086 0.549072 -2.46203 -3.32127 0.666144 2.16387 0.341763 0.45 2.93804 -2.95909 0.321756 -2.71068 0.315869 -0.131976 0.923202 0.635736 1.32835e-008 -0.303892 1.62498 0.201366 0.664882 0.854762 0.201366 -0.719459 -0.916251 -6.54273e-009 0.14968 3.58593 -0.393 -0.311195 3.58593 0.393001 -0.311195 3.2879 0.393001 0.480572 5.653 -0.393001 0.33433 6.97665 0.393001 3.0758 6.55912 -0.393001 1.54263 5.01671 -1.27204 4.01612 7.46129 1.27204 4.01612 7.46129 0.63602 5.11774 7.46129 -0.636021 5.11774 5.01671 0.636021 2.9145 7.46129 1.27204 4.01612 5.01671 1.27204 4.01612 7.46129 0.63602 5.11774 -3.43111 -1.30523 4.01612 0.451355 1.30523 4.01612 0.451355 0.652612 5.14647 0.451355 -0.652613 5.14647 -3.43111 0.652613 2.88576 0.451355 1.30523 4.01612 -3.43111 1.30523 4.01612 0.451355 0.652612 5.14647 9.30418 -0.464041 4.81986 9.30418 -0.928082 4.01612 7.89993 -9.13151e-008 4.01612 9.30418 -0.464041 3.21237 9.30418 0.464041 3.21237 7.71526 0.814107 2.60604 8.58545 1.62821 4.01612 7.71526 1.62821 4.01612 8.58545 0.814106 5.42619 9.30418 0.928082 4.01612 9.30418 0.46404 4.81986 7.41871 -1.63041e-007 4.76312 7.88236 -0.747 4.01611 8.64985 -5.60103e-008 0.339522 8.33919 -0.89408 -0.0727319 1.31063 -2.66394e-007 6.09437 1.31063 1.79982 5.05525 4.2153 -2.66394e-007 6.09437 4.2153 -1.79983 5.05524 4.2153 -1.79982 2.97698 4.2153 2.45425e-007 1.93786 4.2153 1.79983 2.97699 4.2153 2.45425e-007 1.93786 3.56319 -1.91396e-007 4.01611 4.2153 -1.79982 2.97698 4.2153 -1.79983 5.05524 1.31063 -1.79982 2.97699 1.31063 2.45425e-007 1.93786 1.96274 -1.91396e-007 4.01611 1.31063 1.79983 2.97699 1.31063 1.79982 5.05525 1.31063 -2.66394e-007 6.09437 1.31063 -1.79983 5.05524 4.2153 -2.66394e-007 6.09437 4.2153 1.79982 5.05524 3.83835 -5.96046e-008 1.00464 3.64721 -0.2709 0.125168 </float_array>
          <technique_common>
            <accessor count="304" offset="0" source="#soul-mesh0-positions-array" stride="3">
              <param name="X" type="float" />
              <param name="Y" type="float" />
              <param name="Z" type="float" />
            </accessor>
          </technique_common>
        </source>
        <source id="soul-mesh0-normals" name="soul-mesh0-normals">
          <float_array id="soul-mesh0-normals-array" count="912"> -0.0151758 -0.447806 0.894002 -0.708638 -0.615077 -0.345706 -0.814662 -0.578497 0.0408358 0.234244 -0.255886 0.937898 0.70825 0.615563 0.345636 0.812619 0.581446 -0.0396199 0.0146425 0.448679 -0.893573 -0.234883 0.257037 -0.937423 -0.708638 -0.615077 -0.345706 0.0146425 0.448679 -0.893573 -0.234883 0.257037 -0.937423 -0.814662 -0.578497 0.0408358 0.085542 0.471868 -0.87751 -0.263126 -0.845918 -0.463883 -0.51851 -0.421281 -0.74409 0.0814161 -0.547109 0.833093 -0.398639 -0.776832 -0.487462 0.399161 0.776688 0.487263 -0.0808623 0.546765 -0.833372 -0.398639 -0.776832 -0.487462 -0.0808623 0.546765 -0.833372 0.162358 -0.586968 0.793163 -0.0643818 -0.807618 -0.586181 0.0651455 0.80761 0.586108 -0.161751 0.586941 -0.793308 -0.0643818 -0.807618 -0.586181 -0.161751 0.586941 -0.793308 0.229412 -0.582956 0.779444 0.197261 -0.75468 -0.625736 -0.195969 0.755111 0.625623 -0.228816 0.583132 -0.779487 0.197261 -0.75468 -0.625736 -0.228816 0.583132 -0.779487 0.331683 -0.542441 0.771845 0.422598 -0.637131 -0.644573 -0.415684 0.641791 0.644447 -0.324547 0.545781 -0.772524 0.422598 -0.637131 -0.644573 -0.324547 0.545781 -0.772524 0.49625 -0.458896 0.736988 0.373618 -0.298061 -0.87839 -0.635451 0.363993 0.680963 -0.613906 0.489714 -0.619112 0.373618 -0.298061 -0.87839 -0.662474 0.0572446 -0.746894 -0.51851 -0.421281 -0.74409 -0.671321 -0.180556 0.718838 -0.367974 0.841535 -0.395492 -0.350766 0.836892 0.420209 -0.383913 0.437341 -0.813231 0.218204 0.858835 0.463454 0.085542 0.471868 -0.87751 0.337579 0.472479 -0.814128 -0.0841323 -0.451101 0.888499 0.258015 0.0839075 0.96249 -0.430325 -0.712192 0.55462 -0.384664 -0.816126 0.431244 -0.41235 -0.390412 -0.823131 -0.403147 -0.8188 -0.408705 -0.263126 -0.845918 -0.463883 -0.41235 -0.390412 -0.823131 -0.367974 0.841535 -0.395492 -0.383913 0.437341 -0.813231 -0.403147 -0.8188 -0.408705 -0.21237 5.37514e-008 -0.977189 -0.21237 5.37514e-008 -0.977189 -0.21237 5.37514e-008 -0.977189 -0.21237 5.37514e-008 -0.977189 0.153731 0 -0.988113 0.153731 0 -0.988113 0.153731 0 -0.988113 0.153731 0 -0.988113 -0.625914 -0.75809 0.183118 -0.551365 -0.571638 0.60764 -0.697818 0.369188 0.6138 0.681154 -0.709295 -0.181467 0.541595 -0.819562 -0.187062 0.7826 0.561464 -0.268876 -0.813496 -0.580511 -0.0351045 -0.677051 -0.369098 -0.636686 0.299519 -0.943161 -0.144 -0.609918 -0.755989 -0.237658 0.595884 0.766577 -0.239337 0.815398 0 -0.578901 -0.941177 0 -0.337915 -0.108128 -0.863728 -0.492222 0.758627 -0.496316 -0.422084 -0.733011 -0.577047 0.360155 0.00665609 -0.999252 0.0380861 -0.25559 0.499209 -0.827927 -0.38628 -0.707107 0.592274 -0.38628 0.707107 0.592274 -0.530988 0.604428 0.593901 -0.366766 -0.834986 0.410221 0.378498 0.707107 -0.597276 0.155905 -0.625863 -0.764192 0.10571 0.848728 -0.518157 -0.876864 -0.353742 0.32554 -0.366766 -0.834986 0.410221 -0.530988 0.604428 0.593901 -0.797281 0.603256 -0.0205921 -0.38628 0.707107 0.592274 -0.426636 0.894427 0.134095 0.431499 0.894427 -0.11751 -0.853272 0.447214 0.268191 -0.853272 -0.447214 0.268191 -0.426636 -0.894427 0.134095 0.431499 -0.894427 -0.11751 -0.153051 -0.663955 0.731942 0.0794472 -0.832487 0.548318 0.370778 -5.00162e-007 0.928722 0.798636 -2.47284e-006 -0.601814 0.798636 -2.47284e-006 -0.601814 0.798636 -2.47284e-006 -0.601814 -0.406364 -0.908823 -0.0943837 -0.316772 0.402098 0.859053 -0.77803 3.0467e-007 -0.628227 -0.912669 -0.404562 0.0580115 -0.742616 0.666659 -0.0639353 -0.742616 0.666659 -0.0639353 -0.498689 0.834274 -0.23515 0.798636 -2.47284e-006 -0.601814 0.798636 -2.47284e-006 -0.601814 0.798636 -2.47284e-006 -0.601814 -0.0274742 0.907521 0.419107 -0.912669 -0.404562 0.0580115 -1 -2.64152e-008 8.96369e-008 -1 -2.64152e-008 8.96369e-008 -1 -2.64152e-008 8.96369e-008 1.47451e-007 -0.654653 0.755929 3.68627e-008 -0.98198 0.188982 1.84313e-007 -0.327327 0.944911 -1 -2.64152e-008 8.96369e-008 -1 -2.64152e-008 8.96369e-008 2.41704e-014 -0.981981 -0.188982 -3.68626e-008 -0.327327 -0.944911 -3.68626e-008 -0.654654 -0.755929 1 -2.11321e-008 -2.00177e-007 1 -2.11321e-008 -2.00177e-007 1 -2.11321e-008 -2.00177e-007 -3.68626e-008 -0.327327 -0.944911 -5.5294e-008 0.327327 -0.944911 -3.68626e-008 -0.654654 -0.755929 1.84313e-007 0.327327 0.944911 1.47451e-007 -0.654653 0.755929 1.84313e-007 -0.327327 0.944911 -1 -2.64152e-008 8.96369e-008 -1 -2.64152e-008 8.96369e-008 -1 -2.64152e-008 8.96369e-008 1.47451e-007 -0.654653 0.755929 3.68627e-008 -0.98198 0.188982 1.84313e-007 -0.327327 0.944911 -1 -2.64152e-008 8.96369e-008 -1 -2.64152e-008 8.96369e-008 2.41704e-014 -0.981981 -0.188982 -3.68626e-008 -0.327327 -0.944911 -3.68626e-008 -0.654654 -0.755929 1 -2.11321e-008 -2.00177e-007 1 -2.11321e-008 -2.00177e-007 1 -2.11321e-008 -2.00177e-007 -3.68626e-008 -0.327327 -0.944911 -5.5294e-008 0.327327 -0.944911 -3.68626e-008 -0.654654 -0.755929 1.84313e-007 0.327327 0.944911 1.47451e-007 -0.654653 0.755929 1.84313e-007 -0.327327 0.944911 1.47451e-007 -0.654653 0.755929 3.68627e-008 -0.98198 0.188982 1.84313e-007 -0.327327 0.944911 -1 -2.64152e-008 8.96369e-008 -1 -2.64152e-008 8.96369e-008 -1 -2.64152e-008 8.96369e-008 -1 -2.64152e-008 8.96369e-008 2.41704e-014 -0.981981 -0.188982 -3.68626e-008 -0.327327 -0.944911 -3.68626e-008 -0.654654 -0.755929 -3.68626e-008 -0.327327 -0.944911 -5.5294e-008 0.327327 -0.944911 -3.68626e-008 -0.654654 -0.755929 -1 -2.64152e-008 8.96369e-008 -1 -2.64152e-008 8.96369e-008 1.84313e-007 0.327327 0.944911 1.47451e-007 -0.654653 0.755929 1.84313e-007 -0.327327 0.944911 0.691242 -0.473068 0.546252 0.691242 -0.709602 0.136563 0.691243 -0.236534 0.682814 0.691243 -0.709602 -0.136563 0.691242 -0.236534 -0.682815 0.691242 -0.473068 -0.546252 0.691242 -0.236534 -0.682815 0.691242 0.473068 -0.546251 0.691242 0.236534 -0.682814 0.691242 -0.473068 -0.546252 0.691242 0.709602 -0.136563 0.691242 0.236534 -0.682814 0.691243 0.709601 0.136563 0.691243 0.236533 0.682814 0.691243 0.473068 0.546251 0.691242 -0.473068 0.546252 0.691243 -0.236534 0.682814 0.691243 0.473068 0.546251 0 0.948684 0.316227 0 0.316228 0.948683 -1.62612e-007 0.948683 -0.316228 -3.25224e-007 0.316228 -0.948683 -3.25224e-007 -0.316227 -0.948683 -1.62612e-007 -0.948683 -0.316228 0.501575 0.476228 -0.722239 0.832514 0.476228 -0.283069 0.798636 -2.47284e-006 -0.601814 0.336106 4.69024e-008 -0.941824 0.501575 -0.476228 -0.722239 -0.798635 -1.37914e-007 0.601815 -0.798635 -1.37914e-007 0.601815 -0.798635 -1.37914e-007 0.601815 -0.798635 -1.37914e-007 0.601815 -0.798635 -1.37914e-007 0.601815 -0.798635 -1.37914e-007 0.601815 -0.901803 -0.37425 -0.216073 -0.901803 -0.37425 0.216073 -1 -2.64152e-008 8.96369e-008 -0.901803 6.91108e-008 -0.432147 0.901803 0.37425 -0.216073 0.901803 0.37425 0.216073 1 -2.11321e-008 -2.00177e-007 -0.901803 0.37425 -0.216073 0.0612106 0.957562 0.281652 0.21237 -1.07503e-007 0.977189 0.337579 0.472479 -0.814128 -0.662474 0.0572446 -0.746894 -0.613906 0.489714 -0.619112 -0.340337 0.434151 0.834077 -0.367488 -0.39398 0.842456 -0.757877 0.562177 -0.331026 -0.530594 0.84684 0.0364894 0.299519 0.943161 -0.144 -0.767088 0.626979 -0.135917 0.308196 0.950742 -0.0332283 -0.544508 0.570341 -0.614998 0.595884 -0.766577 -0.239337 -0.326431 0.0457602 0.944113 0.0719803 0.995735 -0.0577063 0.452882 0.861289 -0.230389 0.251749 0.471362 0.845246 -0.613221 -0.603143 -0.510077 -0.445296 0.353651 -0.822583 -0.797281 0.603256 -0.0205921 0.378498 -0.707107 -0.597277 0.862998 0.447214 -0.23502 0.862998 -0.447214 -0.23502 -1 -2.64152e-008 8.96369e-008 1 -2.11321e-008 -2.00177e-007 1 -2.11321e-008 -2.00177e-007 1 -2.11321e-008 -2.00177e-007 -5.5294e-008 0.654654 -0.755929 -1.84313e-008 0.981981 -0.188982 3.68627e-008 0.98198 0.188983 1.10588e-007 0.654653 0.755929 -1 -2.64152e-008 8.96369e-008 1 -2.11321e-008 -2.00177e-007 1 -2.11321e-008 -2.00177e-007 1 -2.11321e-008 -2.00177e-007 -5.5294e-008 0.654654 -0.755929 -1.84313e-008 0.981981 -0.188982 3.68627e-008 0.98198 0.188983 1.10588e-007 0.654653 0.755929 0.551371 0.41713 -0.722491 0.551371 0.83426 6.61584e-008 1 -2.11321e-008 -2.00177e-007 0.551371 0.41713 0.722491 0.551371 -0.41713 0.72249 -5.5294e-008 0.654654 -0.755929 -1.84313e-008 0.981981 -0.188982 3.68627e-008 0.98198 0.188983 1.10588e-007 0.654653 0.755929 0.551371 -0.83426 -3.63871e-007 0.551371 -0.41713 -0.722491 0 -0.316228 0.948683 0 -0.948684 0.316227 0.997983 0 -0.0634849 0.832514 -0.476228 -0.28307 -0.901803 -1.5358e-007 0.432147 -0.901803 0.37425 0.216074 0.901803 -9.98267e-008 0.432147 0.901803 -0.37425 0.216073 0.901803 -0.37425 -0.216073 0.901803 5.37529e-008 -0.432147 -0.954132 0.259277 -0.149693 -0.954132 3.02443e-008 -0.299387 -1 -2.64152e-008 8.96369e-008 -0.954132 -0.259277 -0.149693 -0.954132 -0.259277 0.149694 0.954132 -0.259277 -0.149694 0.954132 5.29274e-008 -0.299387 1 -2.11321e-008 -2.00177e-007 0.954132 0.259277 -0.149694 0.954132 0.259277 0.149693 0.954132 -1.13416e-007 0.299387 0.954132 -0.259277 0.149693 -0.954132 -7.56106e-008 0.299387 -0.954132 0.259277 0.149694 0.21237 -1.07503e-007 0.977189 0.0612106 -0.957562 0.281651 </float_array>
          <technique_common>
            <accessor count="304" offset="0" source="#soul-mesh0-normals-array" stride="3">
              <param name="X" type="float" />
              <param name="Y" type="float" />
              <param name="Z" type="float" />
            </accessor>
          </technique_common>
        </source>
        <source id="soul-mesh0-tex0" name="soul-mesh0-tex0">
          <float_array id="soul-mesh0-tex0-array" count="608"> 0.859375 0.0820313 0.859375 0.0195313 0.980469 0.0195313 0.980469 0.0820313 0.859375 0.148438 0.980469 0.148438 0.859375 0.214844 0.980469 0.214844 0.859375 0.0820313 0.859375 0.148438 0.980469 0.148438 0.980469 0.0820313 0.308594 0.0820313 0.308594 0.148438 0.339844 0.148438 0.757813 0.0820313 0.757813 0.0195313 0.757813 0.148438 0.757813 0.214844 0.757813 0.0820313 0.757813 0.148438 0.660156 0.0820313 0.660156 0.0195313 0.660156 0.148438 0.660156 0.214844 0.660156 0.0820313 0.660156 0.148438 0.554688 0.0820313 0.554688 0.0195313 0.554688 0.148438 0.554688 0.214844 0.554688 0.0820313 0.554688 0.148438 0.464844 0.0820313 0.464844 0.0195313 0.46875 0.148438 0.46875 0.214844 0.464844 0.0820313 0.46875 0.148438 0.40625 0.0820313 0.40625 0.0195313 0.40625 0.148438 0.40625 0.214844 0.40625 0.0820313 0.371094 0.214844 0.339844 0.214844 0.371094 0.148438 0.308594 0.0195313 0.269531 0.0820313 0.269531 0.0195313 0.308594 0.0820313 0.308594 0.0195313 0.332031 0.0195313 0.308594 0.148438 0.332031 0.0820313 0.339844 0.148438 0.308594 0.148438 0.308594 0.214844 0.269531 0.214844 0.308594 0.214844 0.308594 0.148438 0.308594 0.0820313 0.269531 0.0820313 0.269531 0.148438 0.5 0.574219 0.5 0.574219 0.203125 0.574219 0.203125 0.574219 0.63105 0.252317 0.778297 0.229566 0.778297 0.229566 0.63105 0.252317 0.811666 0.675582 0.765463 0.746417 0.765463 0.746417 0.474184 0.746417 0.563062 0.565096 0.563062 0.565096 0.819199 0.28482 0.778297 0.229566 0.63105 0.252317 0.698887 0.543226 0.457031 0.541233 0.473958 0.460938 0.50651 0.550781 0.29101 0.442507 0.235782 0.542993 0.271897 0.54881 0.423744 0.483988 0.423744 0.483988 0.892578 0.873828 0.892187 0.873438 0.940696 0.841264 0.941051 0.840554 0.814703 0.790155 0.900213 0.737571 0.900213 0.737571 0.974219 0.798047 0.940696 0.841264 0.941051 0.840554 0.974609 0.797656 0.892578 0.873828 0.839161 0.974124 0.753937 0.871439 0.855792 0.921047 0.839161 0.974124 0.855792 0.921047 0.725936 0.974578 0.855792 0.921047 0.729297 0.837109 0.704687 0.86875 0.892224 0.900862 0.929688 0.966177 0.892224 0.944405 0.776563 0.774219 0.855792 0.921047 0.800391 0.74375 0.892578 0.873828 0.892187 0.873438 0.892578 0.873828 0.776563 0.774219 0.967151 0.944405 0.929688 0.87909 0.967151 0.900862 0.729297 0.837109 0.892187 0.873438 0.183594 0.90625 0.183594 0.90625 0.183594 0.824219 0.183594 0.90625 0.03125 0.824219 0.03125 0.90625 0.183594 0.742188 0.183594 0.742188 0.183594 0.824219 0.183594 0.742188 0.03125 0.742188 0.03125 0.742188 0.03125 0.824219 0.03125 0.742188 0.183594 0.664063 0.03125 0.742188 0.03125 0.664063 0.183594 0.90625 0.183594 0.984375 0.03125 0.984375 0.523828 0.954687 0.620703 0.954687 0.666797 0.871875 0.449219 0.90625 0.207031 0.824219 0.207031 0.90625 0.619141 0.786328 0.525 0.785937 0.449219 0.824219 0.449219 0.742188 0.207031 0.742188 0.207031 0.742188 0.207031 0.824219 0.207031 0.742188 0.449219 0.660156 0.207031 0.742188 0.207031 0.660156 0.449219 0.90625 0.449219 0.988281 0.207031 0.988281 0.972656 0.527344 0.917969 0.441406 0.917969 0.527344 0.972656 0.441406 0.972656 0.347656 0.972656 0.347656 0.972656 0.441406 0.972656 0.441406 0.972656 0.347656 0.917969 0.347656 0.972656 0.25 0.917969 0.347656 0.917969 0.25 0.972656 0.527344 0.972656 0.527344 0.972656 0.527344 0.972656 0.628906 0.917969 0.628906 0.917969 0.527344 0.871094 0.4375 0.871094 0.484375 0.917969 0.441406 0.917969 0.347656 0.871094 0.390625 0.917969 0.25 0.917969 0.347656 0.871094 0.328125 0.871094 0.273438 0.871094 0.4375 0.871094 0.390625 0.917969 0.441406 0.917969 0.527344 0.871094 0.484375 0.917969 0.628906 0.871094 0.601563 0.871094 0.546875 0.851563 0.398438 0.8125 0.453125 0.8125 0.398438 0.851563 0.339844 0.8125 0.339844 0.851563 0.398438 0.165234 0.534375 0.165234 0.607031 0.102734 0.570703 0.103125 0.498047 0.0414063 0.535156 0.93099 0.965169 0.966471 0.943685 0.966797 0.901693 0.930664 0.880859 0.891927 0.902995 0.891927 0.943685 0.0214844 0.273112 0.0214844 0.402995 0.134277 0.337402 0.135254 0.208496 0.0214844 0.273112 0.0214844 0.402995 0.134277 0.337402 0.0214844 0.273112 0.5 0.574219 0.5 0.640625 0.332031 0.0820313 0.371094 0.148438 0.40625 0.148438 0.308594 0.0820313 0.269531 0.148438 0.819199 0.28482 0.698887 0.543226 0.63105 0.252317 0.811666 0.675582 0.474184 0.746417 0.778297 0.229566 0.457031 0.541233 0.306715 0.472672 0.235782 0.542993 0.29101 0.442507 0.417999 0.505596 0.95277 0.745384 0.95277 0.745384 0.974219 0.798047 0.814703 0.790155 0.725936 0.974578 0.753937 0.871439 0.183594 0.824219 0.03125 0.824219 0.03125 0.90625 0.03125 0.90625 0.183594 0.742188 0.03125 0.824219 0.183594 0.824219 0.03125 0.90625 0.475 0.873047 0.207031 0.824219 0.207031 0.90625 0.207031 0.90625 0.449219 0.742188 0.207031 0.824219 0.449219 0.824219 0.207031 0.90625 0.767187 0.580469 0.741016 0.529297 0.796875 0.528906 0.767969 0.478516 0.827344 0.478125 0.972656 0.347656 0.917969 0.441406 0.972656 0.441406 0.917969 0.527344 0.854297 0.529297 0.826563 0.580469 0.851563 0.453125 0.8125 0.398438 0.102734 0.64375 0.040625 0.60625 0.133789 0.464844 0.0214844 0.402995 0.133789 0.464844 0.0214844 0.402995 0.0214844 0.273112 0.135254 0.208496 0.28125 0.273438 0.167614 0.209162 0.167969 0.335938 0.28125 0.273438 0.28125 0.401278 0.28125 0.273438 0.167614 0.209162 0.167969 0.335938 0.28125 0.273438 0.28125 0.401278 0.167969 0.467685 0.28125 0.401278 0.167969 0.467685 0.28125 0.401278 0.203125 0.640625 0.203125 0.574219 </float_array>
          <technique_common>
            <accessor count="304" offset="0" source="#soul-mesh0-tex0-array" stride="2">
              <param name="S" type="float" />
              <param name="T" type="float" />
            </accessor>
          </technique_common>
        </source>
        <vertices id="soul-mesh0-vertices">
          <input semantic="POSITION" source="#soul-mesh0-positions" />
          <input semantic="NORMAL" source="#soul-mesh0-normals" />
          <input semantic="TEXCOORD" source="#soul-mesh0-tex0" />
        </vertices>
        <polylist count="281" material="theresonlyone">
          <input offset="0" semantic="VERTEX" source="#soul-mesh0-vertices" />
          <vcount>3 3 3 3 3 3 3 3 3 3 3 3 3 3 3 3 3 3 3 3 3 3 3 3 3 3 3 3 3 3 3 3 3 3 3 3 3 3 3 3 3 3 3 3 3 3 3 3 3 3 3 3 3 3 3 3 3 3 3 3 3 3 3 3 3 3 3 3 3 3 3 3 3 3 3 3 3 3 3 3 3 3 3 3 3 3 3 3 3 3 3 3 3 3 3 3 3 3 3 3 3 3 3 3 3 3 3 3 3 3 3 3 3 3 3 3 3 3 3 3 3 3 3 3 3 3 3 3 3 3 3 3 3 3 3 3 3 3 3 3 3 3 3 3 3 3 3 3 3 3 3 3 3 3 3 3 3 3 3 3 3 3 3 3 3 3 3 3 3 3 3 3 3 3 3 3 3 3 3 3 3 3 3 3 3 3 3 3 3 3 3 3 3 3 3 3 3 3 3 3 3 3 3 3 3 3 3 3 3 3 3 3 3 3 3 3 3 3 3 3 3 3 3 3 3 3 3 3 3 3 3 3 3 3 3 3 3 3 3 3 3 3 3 3 3 3 3 3 3 3 3 3 3 3 3 3 3 3 3 3 3 3 3 3 3 3 3 3 3 3 3 3 3 3 3 3 3 3 3 3 3 </vcount>
          <p>0 1 2 0 2 3 4 0 3 4 3 5 6 4 5 6 5 7 8 9 10 8 10 11 12 13 14 15 16 1 15 1 0 17 15 0 17 0 4 18 17 4 18 4 6 19 20 9 19 9 8 21 22 16 21 16 15 23 21 15 23 15 17 24 23 17 24 17 18 25 26 20 25 20 19 27 28 22 27 22 21 29 27 21 29 21 23 30 29 23 30 23 24 31 32 26 31 26 25 33 34 28 33 28 27 35 33 27 35 27 29 36 35 29 36 29 30 37 38 32 37 32 31 39 40 34 39 34 33 41 39 33 41 33 35 42 41 35 42 35 36 43 38 37 44 41 42 45 46 44 47 48 49 50 51 52 53 50 54 53 54 55 56 57 58 59 53 55 59 55 45 60 61 62 60 62 63 64 65 66 64 66 67 68 69 70 68 70 71 72 73 74 75 76 77 75 73 72 78 79 80 76 75 72 81 78 80 82 83 84 85 86 87 85 88 89 90 91 92 90 92 93 94 95 96 97 98 99 97 99 100 92 101 94 92 94 96 102 103 104 105 102 104 105 104 106 107 105 106 108 109 110 111 112 113 108 114 109 115 108 110 116 117 118 119 120 116 121 122 123 119 124 120 115 125 108 126 127 128 129 130 131 128 132 133 134 135 136 137 138 139 140 141 142 143 144 145 146 147 148 149 150 151 148 152 153 154 155 156 157 158 159 160 161 162 163 164 165 166 167 168 169 170 171 169 171 172 173 174 175 176 177 178 179 180 169 179 169 172 181 182 183 184 185 186 187 188 189 190 191 192 190 192 193 191 194 195 196 197 198 197 199 200 197 200 201 202 203 204 205 202 204 205 204 206 207 205 206 208 209 210 211 208 210 212 211 210 213 214 215 213 215 216 216 217 218 216 218 213 219 220 221 222 219 221 223 224 225 226 222 221 66 227 228 12 14 229 14 230 229 229 230 43 230 231 43 43 231 38 44 46 41 46 39 41 45 55 46 55 54 46 46 54 39 54 40 39 47 232 48 232 233 48 50 52 54 52 40 54 232 56 233 56 58 233 79 78 234 78 235 234 234 235 236 235 77 236 236 77 80 77 76 80 80 76 81 76 72 81 81 72 237 72 74 237 237 74 238 79 234 239 234 236 239 78 81 235 81 237 235 235 237 238 75 77 238 77 235 238 84 83 240 83 82 240 85 87 241 87 242 241 241 242 243 242 86 243 243 86 85 85 89 243 89 244 243 243 244 241 244 88 241 241 88 85 98 97 245 97 100 245 245 100 246 98 245 95 245 246 95 95 246 96 246 247 96 96 247 92 94 248 95 248 90 95 95 90 98 102 249 103 249 250 103 249 107 250 107 106 250 116 114 117 114 108 117 111 122 112 122 121 112 110 124 115 124 119 115 115 119 125 126 128 251 128 133 251 129 134 130 134 136 130 137 252 138 252 253 138 138 253 254 140 255 141 255 256 141 255 257 256 257 258 256 257 143 258 143 145 258 146 148 259 148 153 259 149 154 150 154 156 150 157 260 158 260 261 158 158 261 262 160 263 161 263 264 161 263 265 264 265 266 264 265 163 266 163 165 266 166 173 167 173 175 167 267 268 269 268 270 269 269 270 271 176 272 177 272 273 177 272 274 273 274 275 273 271 276 269 276 277 269 269 277 267 274 181 275 181 183 275 184 187 185 187 189 185 191 196 194 196 198 194 202 278 203 278 279 203 278 207 279 207 206 279 209 280 210 280 281 210 210 281 212 220 282 221 282 283 221 221 283 226 224 284 225 284 285 225 225 285 286 286 287 225 287 223 225 288 289 290 289 291 290 290 291 292 293 294 295 294 296 295 295 296 297 297 298 295 298 299 295 295 299 293 292 300 290 300 301 290 290 301 288 66 228 302 228 64 302 302 64 303 </p>
        </polylist>
      </mesh>
    </geometry>
    <geometry id="cyl--appz0c0-mesh0" name="cyl--appz0c0-mesh0">
      <mesh>
        <source id="cyl--appz0c0-mesh0-positions" name="cyl--appz0c0-mesh0-positions">
          <float_array id="cyl--appz0c0-mesh0-positions-array" count="36"> -1.38797 1.58385 0.914436 1.38797 4.50522e-006 1.82887 1.38797 1.58385 0.914436 -1.38797 1.58385 -0.914432 1.38797 1.58385 -0.914432 -1.38797 5.28654e-006 -1.82887 1.38797 4.95562e-006 -1.82887 -1.38797 -1.58384 -0.914432 -1.38797 4.83614e-006 1.82887 1.38797 -1.58384 0.914435 -1.38797 -1.58384 0.914435 1.38797 -1.58384 -0.914433 </float_array>
          <technique_common>
            <accessor count="12" offset="0" source="#cyl--appz0c0-mesh0-positions-array" stride="3">
              <param name="X" type="float" />
              <param name="Y" type="float" />
              <param name="Z" type="float" />
            </accessor>
          </technique_common>
        </source>
        <source id="cyl--appz0c0-mesh0-normals" name="cyl--appz0c0-mesh0-normals">
          <float_array id="cyl--appz0c0-mesh0-normals-array" count="36"> 2.03605e-007 0.681947 0.731402 1.8143e-007 0.188982 0.981981 1.88726e-007 0.894202 0.447664 2.44688e-008 0.894202 -0.447663 -6.47608e-008 0.681947 -0.731401 -1.78879e-007 0.188982 -0.981981 -2.34562e-007 -0.188982 -0.981981 -2.39222e-007 -0.681947 -0.731401 1.36373e-007 -0.188982 0.981981 4.10163e-008 -0.681947 0.731401 -2.44688e-008 -0.894202 0.447663 -2.03259e-007 -0.894202 -0.447664 </float_array>
          <technique_common>
            <accessor count="12" offset="0" source="#cyl--appz0c0-mesh0-normals-array" stride="3">
              <param name="X" type="float" />
              <param name="Y" type="float" />
              <param name="Z" type="float" />
            </accessor>
          </technique_common>
        </source>
        <source id="cyl--appz0c0-mesh0-tex0" name="cyl--appz0c0-mesh0-tex0">
          <float_array id="cyl--appz0c0-mesh0-tex0-array" count="24"> 0.0110818 0.894177 0.00454321 0.964136 0.00454321 0.894177 0.0110818 0.75426 0.00454321 0.75426 0.0110818 0.684302 0.00454321 0.684302 0.0110818 0.75426 0.0110818 0.964136 0.00454321 0.894177 0.0110818 0.894177 0.00454321 0.75426 </float_array>
          <technique_common>
            <accessor count="12" offset="0" source="#cyl--appz0c0-mesh0-tex0-array" stride="2">
              <param name="S" type="float" />
              <param name="T" type="float" />
            </accessor>
          </technique_common>
        </source>
        <vertices id="cyl--appz0c0-mesh0-vertices">
          <input semantic="POSITION" source="#cyl--appz0c0-mesh0-positions" />
          <input semantic="NORMAL" source="#cyl--appz0c0-mesh0-normals" />
          <input semantic="TEXCOORD" source="#cyl--appz0c0-mesh0-tex0" />
        </vertices>
        <polylist count="12" material="theresonlyone">
          <input offset="0" semantic="VERTEX" source="#cyl--appz0c0-mesh0-vertices" />
          <vcount>3 3 3 3 3 3 3 3 3 3 3 3 </vcount>
          <p>0 1 2 3 0 2 3 2 4 5 3 4 5 4 6 7 5 6 0 8 1 8 9 1 8 10 9 10 11 9 10 7 11 7 6 11 </p>
        </polylist>
      </mesh>
    </geometry>
    <geometry id="beam1--appz0c0-mesh0" name="beam1--appz0c0-mesh0">
      <mesh>
        <source id="beam1--appz0c0-mesh0-positions" name="beam1--appz0c0-mesh0-positions">
          <float_array id="beam1--appz0c0-mesh0-positions-array" count="72"> 1.28115 -0.0421577 0.402666 -1.28115 -0.0421577 0.402666 -1.28115 -0.0421577 1.75267 1.28115 -0.0421577 1.75267 1.28115 0.632842 1.07767 -1.28115 0.632842 1.07767 -1.28115 -0.717158 1.07767 1.28115 -0.717158 1.07767 1.28115 -0.668563 -1.21383 -1.28115 -0.668563 -1.21383 -1.28115 -0.668563 0.136166 1.28115 -0.668563 0.136166 1.28115 0.00643701 -0.538834 -1.28115 0.00643701 -0.538834 -1.28115 -1.34356 -0.538834 1.28115 -1.34356 -0.538834 1.28115 0.710721 -1.21383 -1.28115 0.710721 -1.21383 -1.28115 0.710721 0.136166 1.28115 0.710721 0.136166 1.28115 1.38572 -0.538835 -1.28115 1.38572 -0.538835 -1.28115 0.0357208 -0.538835 1.28115 0.0357208 -0.538835 </float_array>
          <technique_common>
            <accessor count="24" offset="0" source="#beam1--appz0c0-mesh0-positions-array" stride="3">
              <param name="X" type="float" />
              <param name="Y" type="float" />
              <param name="Z" type="float" />
            </accessor>
          </technique_common>
        </source>
        <source id="beam1--appz0c0-mesh0-normals" name="beam1--appz0c0-mesh0-normals">
          <float_array id="beam1--appz0c0-mesh0-normals-array" count="72"> 0 1 0 0 1 0 0 1 0 0 1 0 0 0 1 0 0 1 0 0 1 0 0 1 0 1 0 0 1 0 0 1 0 0 1 0 0 0 1 0 0 1 0 0 1 0 0 1 0 1 0 0 1 0 0 1 0 0 1 0 0 0 1 0 0 1 0 0 1 0 0 1 </float_array>
          <technique_common>
            <accessor count="24" offset="0" source="#beam1--appz0c0-mesh0-normals-array" stride="3">
              <param name="X" type="float" />
              <param name="Y" type="float" />
              <param name="Z" type="float" />
            </accessor>
          </technique_common>
        </source>
        <source id="beam1--appz0c0-mesh0-tex0" name="beam1--appz0c0-mesh0-tex0">
          <float_array id="beam1--appz0c0-mesh0-tex0-array" count="48"> 0.257813 0.0078125 0.132813 0.0078125 0.132813 0.164063 0.257813 0.164063 0.257813 0.0078125 0.132813 0.0078125 0.132813 0.164063 0.257813 0.164063 0.257813 0.0078125 0.132813 0.0078125 0.132813 0.164063 0.257813 0.164063 0.257813 0.0078125 0.132813 0.0078125 0.132813 0.164063 0.257813 0.164063 0.257813 0.0078125 0.132813 0.0078125 0.132813 0.164063 0.257813 0.164063 0.257813 0.0078125 0.132813 0.0078125 0.132813 0.164063 0.257813 0.164063 </float_array>
          <technique_common>
            <accessor count="24" offset="0" source="#beam1--appz0c0-mesh0-tex0-array" stride="2">
              <param name="S" type="float" />
              <param name="T" type="float" />
            </accessor>
          </technique_common>
        </source>
        <vertices id="beam1--appz0c0-mesh0-vertices">
          <input semantic="POSITION" source="#beam1--appz0c0-mesh0-positions" />
          <input semantic="NORMAL" source="#beam1--appz0c0-mesh0-normals" />
          <input semantic="TEXCOORD" source="#beam1--appz0c0-mesh0-tex0" />
        </vertices>
        <polylist count="12" material="theresonlyone">
          <input offset="0" semantic="VERTEX" source="#beam1--appz0c0-mesh0-vertices" />
          <vcount>3 3 3 3 3 3 3 3 3 3 3 3 </vcount>
          <p>0 1 2 0 2 3 4 5 6 4 6 7 8 9 10 8 10 11 12 13 14 12 14 15 16 17 18 16 18 19 20 21 22 20 22 23 </p>
        </polylist>
      </mesh>
    </geometry>
    <geometry id="beam--appz0c0-mesh0" name="beam--appz0c0-mesh0">
      <mesh>
        <source id="beam--appz0c0-mesh0-positions" name="beam--appz0c0-mesh0-positions">
          <float_array id="beam--appz0c0-mesh0-positions-array" count="24"> -0.381359 0 -0.506085 0.381357 0 0.506078 1.70965 0 -0.494865 0.946933 0 -1.50702 1.77829e-006 0.633684 -8.71059e-008 1.77829e-006 -0.633676 -8.71059e-008 1.32829 -0.633676 -1.00094 1.32829 0.633684 -1.00094 </float_array>
          <technique_common>
            <accessor count="8" offset="0" source="#beam--appz0c0-mesh0-positions-array" stride="3">
              <param name="X" type="float" />
              <param name="Y" type="float" />
              <param name="Z" type="float" />
            </accessor>
          </technique_common>
        </source>
        <source id="beam--appz0c0-mesh0-normals" name="beam--appz0c0-mesh0-normals">
          <float_array id="beam--appz0c0-mesh0-normals-array" count="24"> 0 1 0 0 1 0 0 1 0 0 1 0 0.601814 0 0.798636 0.601814 0 0.798636 0.601814 0 0.798636 0.601814 0 0.798636 </float_array>
          <technique_common>
            <accessor count="8" offset="0" source="#beam--appz0c0-mesh0-normals-array" stride="3">
              <param name="X" type="float" />
              <param name="Y" type="float" />
              <param name="Z" type="float" />
            </accessor>
          </technique_common>
        </source>
        <source id="beam--appz0c0-mesh0-tex0" name="beam--appz0c0-mesh0-tex0">
          <float_array id="beam--appz0c0-mesh0-tex0-array" count="16"> 0.304688 0.226563 0.433594 0.226563 0.433594 0.40625 0.304688 0.40625 0.304688 0.226563 0.433594 0.226563 0.433594 0.40625 0.304688 0.40625 </float_array>
          <technique_common>
            <accessor count="8" offset="0" source="#beam--appz0c0-mesh0-tex0-array" stride="2">
              <param name="S" type="float" />
              <param name="T" type="float" />
            </accessor>
          </technique_common>
        </source>
        <vertices id="beam--appz0c0-mesh0-vertices">
          <input semantic="POSITION" source="#beam--appz0c0-mesh0-positions" />
          <input semantic="NORMAL" source="#beam--appz0c0-mesh0-normals" />
          <input semantic="TEXCOORD" source="#beam--appz0c0-mesh0-tex0" />
        </vertices>
        <polylist count="4" material="theresonlyone">
          <input offset="0" semantic="VERTEX" source="#beam--appz0c0-mesh0-vertices" />
          <vcount>3 3 3 3 </vcount>
          <p>0 1 2 0 2 3 4 5 6 4 6 7 </p>
        </polylist>
      </mesh>
    </geometry>
    <geometry id="cyl2--appz0c0-mesh0" name="cyl2--appz0c0-mesh0">
      <mesh>
        <source id="cyl2--appz0c0-mesh0-positions" name="cyl2--appz0c0-mesh0-positions">
          <float_array id="cyl2--appz0c0-mesh0-positions-array" count="36"> 0.310658 0.894079 0.41225 2.04547 -7.56482e-007 -0.248678 1.73482 0.894079 -0.660931 -0.310653 0.89408 -0.412257 1.11351 0.89408 -1.48544 -0.621309 1.18359e-008 -0.82451 0.80285 -4.7094e-008 -1.89769 -0.310653 -0.89408 -0.412257 0.621313 -6.97552e-007 0.824503 1.73482 -0.894081 -0.660932 0.310658 -0.894081 0.41225 1.11351 -0.89408 -1.48544 </float_array>
          <technique_common>
            <accessor count="12" offset="0" source="#cyl2--appz0c0-mesh0-positions-array" stride="3">
              <param name="X" type="float" />
              <param name="Y" type="float" />
              <param name="Z" type="float" />
            </accessor>
          </technique_common>
        </source>
        <source id="cyl2--appz0c0-mesh0-normals" name="cyl2--appz0c0-mesh0-normals">
          <float_array id="cyl2--appz0c0-mesh0-normals-array" count="36"> 0.393981 0.755929 0.52283 0.590971 0.188982 0.784244 0.196991 0.944911 0.261415 -0.19699 0.944911 -0.261414 -0.39398 0.755929 -0.522829 -0.590971 0.188983 -0.784244 -0.590971 -0.188982 -0.784244 -0.393981 -0.755929 -0.52283 0.590971 -0.188983 0.784244 0.39398 -0.755929 0.522829 0.19699 -0.944911 0.261415 -0.196991 -0.944911 -0.261415 </float_array>
          <technique_common>
            <accessor count="12" offset="0" source="#cyl2--appz0c0-mesh0-normals-array" stride="3">
              <param name="X" type="float" />
              <param name="Y" type="float" />
              <param name="Z" type="float" />
            </accessor>
          </technique_common>
        </source>
        <source id="cyl2--appz0c0-mesh0-tex0" name="cyl2--appz0c0-mesh0-tex0">
          <float_array id="cyl2--appz0c0-mesh0-tex0-array" count="24"> 0.0105616 0.89669 0.00495224 0.955251 0.00498931 0.892625 0.0106357 0.771437 0.00506346 0.767372 0.0106728 0.708811 0.00510051 0.704746 0.0106357 0.771437 0.0105245 0.959317 0.00498931 0.892625 0.0105616 0.89669 0.00506346 0.767372 </float_array>
          <technique_common>
            <accessor count="12" offset="0" source="#cyl2--appz0c0-mesh0-tex0-array" stride="2">
              <param name="S" type="float" />
              <param name="T" type="float" />
            </accessor>
          </technique_common>
        </source>
        <vertices id="cyl2--appz0c0-mesh0-vertices">
          <input semantic="POSITION" source="#cyl2--appz0c0-mesh0-positions" />
          <input semantic="NORMAL" source="#cyl2--appz0c0-mesh0-normals" />
          <input semantic="TEXCOORD" source="#cyl2--appz0c0-mesh0-tex0" />
        </vertices>
        <polylist count="12" material="theresonlyone">
          <input offset="0" semantic="VERTEX" source="#cyl2--appz0c0-mesh0-vertices" />
          <vcount>3 3 3 3 3 3 3 3 3 3 3 3 </vcount>
          <p>0 1 2 3 0 2 3 2 4 5 3 4 5 4 6 7 5 6 0 8 1 8 9 1 8 10 9 10 11 9 10 7 11 7 6 11 </p>
        </polylist>
      </mesh>
    </geometry>
  </library_geometries>
  <library_visual_scenes>
    <visual_scene id="myScene" name="myScene">
      <node id="wg006" name="wg006">
        <matrix>1.94707e-007 0 1 0 0 1 0 0 -1 0 1.94707e-007 0 0 0 0 1</matrix>
        <node id="soul" name="soul">
          <matrix>1.94707e-007 -0 -1 -3.73001e-015 0 1 -0 0 1 0 1.94707e-007 -1.63044e-022 0 0 0 1</matrix>
          <instance_geometry url="#soul-mesh0">
            <bind_material>
              <technique_common>
                <instance_material symbol="theresonlyone" target="#m0soul" />
              </technique_common>
            </bind_material>
          </instance_geometry>
          <node id="cyl--appz0c0" name="cyl--appz0c0">
            <matrix>1 0 0 2.76296 0 1 0 0 -0 0 1 4.01612 0 0 0 1</matrix>
            <instance_geometry url="#cyl--appz0c0-mesh0">
              <bind_material>
                <technique_common>
                  <instance_material symbol="theresonlyone" target="#m0soul" />
                </technique_common>
              </bind_material>
            </instance_geometry>
          </node>
          <node id="beam1--appz0c0" name="beam1--appz0c0">
            <matrix>1 0 0 2.76296 0 1 0 0.04215 -0 0 1 3.91016 0 0 0 1</matrix>
            <instance_geometry url="#beam1--appz0c0-mesh0">
              <bind_material>
                <technique_common>
                  <instance_material symbol="theresonlyone" target="#m0soul" />
                </technique_common>
              </bind_material>
            </instance_geometry>
          </node>
          <node id="beam--appz0c0" name="beam--appz0c0">
            <matrix>1 0 0 6.60439 0 1 0 -6.86645e-006 -0 0 1 0.588193 0 0 0 1</matrix>
            <instance_geometry url="#beam--appz0c0-mesh0">
              <bind_material>
                <technique_common>
                  <instance_material symbol="theresonlyone" target="#m0soul" />
                </technique_common>
              </bind_material>
            </instance_geometry>
          </node>
          <node id="gcol00" name="gcol00">
            <matrix>1.94707e-007 0 1 9.31739 0 1 0 -0.00935406 -1 0 1.94707e-007 4.00899 0 0 0 1</matrix>
          </node>
          <node id="sp" name="sp">
            <matrix>1.94707e-007 0 1 14.3174 0 1 0 -0.00935406 -1 0 1.94707e-007 4.00899 0 0 0 1</matrix>
          </node>
          <node id="cyl2--appz0c0" name="cyl2--appz0c0">
            <matrix>1 0 0 6.60439 0 1 0 -6.86645e-006 -0 0 1 0.588194 0 0 0 1</matrix>
            <instance_geometry url="#cyl2--appz0c0-mesh0">
              <bind_material>
                <technique_common>
                  <instance_material symbol="theresonlyone" target="#m0soul" />
                </technique_common>
              </bind_material>
            </instance_geometry>
          </node>
        </node>
      </node>
    </visual_scene>
  </library_visual_scenes>
  <scene>
    <instance_visual_scene url="#myScene" />
  </scene>
</COLLADA>