# Blender 4.3.2
# www.blender.org
o Serwers_Flat_Straight_Var_Water
v 0.000000 -0.300000 -0.000000
v 0.000000 -0.300000 -6.773861
v -1.100000 -0.300000 -6.773861
v -1.100000 -0.300000 -0.000000
v 1.100000 -0.300000 -6.773861
v 1.100000 -0.300000 -0.000000
v 0.000000 -0.300000 -2.257954
v 0.000000 -0.300000 -4.515907
v -1.100000 -0.300000 -2.257954
v -1.100000 -0.300000 -4.515907
v 1.100000 -0.300000 -2.257954
v 1.100000 -0.300000 -4.515907
vn -0.0000 1.0000 -0.0000
vt 0.000000 0.000000
vt 0.500000 0.000000
vt 0.500000 1.000000
vt 0.000000 1.000000
vt 0.999984 -0.000000
vt 0.999984 1.000000
vt 0.999984 0.000000
vt 0.999984 1.000000
vt 0.500000 0.000000
vt 0.999984 -0.000000
vt 0.999984 1.000000
vt 0.500000 0.000000
vt -0.000000 0.000000
vt -0.000000 1.000000
vt -0.000000 0.000000
vt 0.000000 1.000000
s 1
f 10/1/1 8/2/1 2/3/1 3/4/1
f 12/5/1 5/6/1 2/3/1 8/2/1
f 6/7/1 11/8/1 7/3/1 1/9/1
f 11/10/1 12/11/1 8/3/1 7/12/1
f 4/13/1 1/9/1 7/3/1 9/14/1
f 9/15/1 7/12/1 8/3/1 10/16/1
