# Blender 4.3.2
# www.blender.org
o Serwers_Down_Straight_Var_Water
v -0.000002 -1.300000 -6.773861
v -0.000000 -0.300000 0.000000
v 1.100000 -0.300000 -0.000000
v 1.099998 -1.300000 -6.773861
v -1.100000 -0.300000 0.000000
v -1.100002 -1.300000 -6.773860
v -0.000002 -0.966667 -4.515907
v -0.000001 -0.633334 -2.257954
v 1.099999 -0.966667 -4.515908
v 1.099999 -0.633334 -2.257954
v -1.100001 -0.966667 -4.515907
v -1.100001 -0.633334 -2.257953
vn -0.0000 0.9893 -0.1460
vt 1.000000 1.000000
vt 0.500000 1.000000
vt 0.500000 0.000000
vt 1.000000 0.000000
vt 0.000000 1.000000
vt 0.000000 0.000000
vt 0.000000 1.000000
vt 0.000000 0.000000
vt 0.500000 0.000000
vt 0.500000 1.000000
vt 0.500000 0.000000
vt 0.500000 1.000000
vt 1.000000 1.000000
vt 1.000000 0.000000
s 1
f 10/1/1 8/2/1 2/3/1 3/4/1
f 12/5/1 5/6/1 2/3/1 8/2/1
f 6/7/1 11/8/1 7/9/1 1/10/1
f 11/5/1 12/6/1 8/11/1 7/12/1
f 4/13/1 1/10/1 7/9/1 9/14/1
f 9/1/1 7/12/1 8/11/1 10/4/1
