# Blender 4.3.2
# www.blender.org
o Serwers_Flat_Left_Var0
v 0.000001 5.498647 -2.773861
v 0.000001 5.498647 0.000000
v 0.000001 -0.770893 -0.000000
v 0.000001 -0.770893 -2.773861
v 0.979493 -0.770893 -2.773861
v 0.979493 -0.770893 -0.000000
v 1.157324 0.000000 0.000000
v 1.157324 0.000000 -2.773861
v 2.648010 0.000000 -2.773861
v 2.648010 0.000000 0.000000
v 3.302014 1.358054 -2.773861
v 3.302014 1.358054 0.000000
v 3.302014 2.865380 -2.773861
v 3.302014 2.865380 0.000000
v 2.648010 4.223433 -2.773861
v 2.648010 4.223433 0.000000
v 1.469535 5.163236 -2.773861
v 1.469535 5.163236 0.000000
v -0.979491 -0.770893 -2.773861
v -0.979491 -0.770893 -0.000000
v -1.157322 0.000000 0.000000
v -1.157322 0.000000 -2.773861
v -2.648008 0.000000 -2.773861
v -2.648008 0.000000 0.000000
v -3.302012 1.358054 -2.773861
v -3.302012 1.358054 0.000000
v -3.302012 2.865380 -2.773861
v -3.302012 2.865380 0.000000
v -2.648008 4.223433 -2.773861
v -2.648008 4.223433 0.000000
v -1.469533 5.163236 -2.773861
v -1.469533 5.163236 0.000000
v 0.472758 5.498647 -4.977880
v 0.472758 -0.770893 -4.977880
v 1.377695 -0.770893 -4.603056
v 1.541990 0.000000 -4.535005
v 2.919211 0.000000 -3.964561
v 3.523435 1.358054 -3.714291
v 3.523435 2.865380 -3.714290
v 2.919211 4.223433 -3.964560
v 1.830437 5.163236 -4.415530
v -0.432179 -0.770893 -5.352705
v -0.596475 0.000000 -5.420757
v -1.973695 0.000000 -5.991201
v -2.577919 1.358054 -6.241471
v -2.577919 2.865380 -6.241471
v -1.973695 4.223434 -5.991201
v -0.884922 5.163236 -5.540231
v 1.752948 5.498648 -6.833229
v 1.752948 -0.770893 -6.833229
v 2.445570 -0.770893 -6.140639
v 2.571318 0.000000 -6.014897
v 3.625417 0.000000 -4.960847
v 4.087879 1.358054 -4.498407
v 4.087879 2.865380 -4.498407
v 3.625417 4.223433 -4.960847
v 2.792090 5.163236 -5.794135
v 1.060326 -0.770893 -7.525818
v 0.934578 0.000001 -7.651560
v -0.119521 0.000001 -8.705610
v -0.581983 1.358054 -9.168050
v -0.581983 2.865380 -9.168050
v -0.119521 4.223434 -8.705610
v 0.713806 5.163236 -7.872322
v 3.645686 5.498648 -8.057462
v 3.645686 -0.770893 -8.057462
v 4.020554 -0.770893 -7.152542
v 4.088613 0.000001 -6.988249
v 4.659122 0.000000 -5.611055
v 4.909420 1.358054 -5.006843
v 4.909420 2.865380 -5.006843
v 4.659122 4.223434 -5.611055
v 4.208101 5.163236 -6.699808
v 3.270819 -0.770893 -8.962380
v 3.202760 0.000001 -9.126673
v 2.632251 0.000001 -10.503867
v 2.381953 1.358054 -11.108080
v 2.381953 2.865380 -11.108080
v 2.632251 4.223434 -10.503867
v 3.083272 5.163236 -9.415113
v 5.862838 5.498648 -8.464211
v 5.862838 -0.770893 -8.464211
v 5.862884 -0.770893 -7.484718
v 5.862892 0.000001 -7.306888
v 5.862962 0.000000 -5.816201
v 5.862993 1.358054 -5.162197
v 5.862993 2.865380 -5.162197
v 5.862962 4.223434 -5.816201
v 5.862906 5.163236 -6.994676
v 5.862792 -0.770893 -9.443703
v 5.862783 0.000001 -9.621534
v 5.862713 0.000001 -11.112221
v 5.862683 1.358054 -11.766226
v 5.862683 2.865380 -11.766226
v 5.862713 4.223434 -11.112221
v 5.862768 5.163236 -9.933745
v 8.793407 5.498648 -8.464211
v 8.793407 -0.770893 -8.464211
v 8.793453 -0.770893 -7.484718
v 8.793462 0.000001 -7.306888
v 8.793531 0.000000 -5.816201
v 8.793562 1.358054 -5.162197
v 8.793562 2.865380 -5.162197
v 8.793531 4.223434 -5.816201
v 8.793476 5.163236 -6.994676
v 8.793362 -0.770893 -9.443703
v 8.793352 0.000001 -9.621534
v 8.793283 0.000001 -11.112221
v 8.793252 1.358054 -11.766226
v 8.793252 2.865380 -11.766226
v 8.793283 4.223434 -11.112221
v 8.793338 5.163236 -9.933745
vn -0.0000 1.0000 -0.0000
vn -0.9744 0.2248 -0.0000
vn -0.9688 0.2239 -0.1060
vn -0.9692 0.2240 -0.1029
vn -0.8960 0.4328 -0.0991
vn -0.9010 0.4339 -0.0000
vn -0.9749 0.2225 -0.0000
vn -0.9677 0.2254 -0.1132
vn -0.9749 -0.2225 -0.0000
vn -0.9677 -0.2254 -0.1132
vn -0.7818 -0.6235 -0.0000
vn -0.7717 -0.6300 -0.0874
vn -0.4339 -0.9010 -0.0000
vn -0.4200 -0.9064 -0.0452
vn -0.0000 -1.0000 -0.0000
vn 0.0150 -0.9999 0.0030
vn 0.9744 0.2248 -0.0000
vn 0.9691 0.2238 0.1032
vn 0.9694 0.2239 0.1002
vn 0.8967 0.4323 0.0955
vn 0.9708 0.2187 0.0991
vn 0.9749 0.2225 -0.0000
vn 0.9010 0.4339 -0.0000
vn 0.9708 -0.2187 0.0991
vn 0.9749 -0.2225 -0.0000
vn 0.7843 -0.6150 0.0813
vn 0.7818 -0.6235 -0.0000
vn 0.4446 -0.8945 0.0477
vn 0.4339 -0.9010 -0.0000
vn -0.8863 0.2287 -0.4027
vn -0.8220 0.4337 -0.3690
vn -0.8931 0.2247 -0.3898
vn -0.8935 0.2247 -0.3889
vn 0.8288 0.4339 0.3534
vn 0.8984 0.2167 0.3821
vn 0.8953 0.2248 0.3845
vn 0.8956 0.2248 0.3839
vn -0.3763 -0.9117 -0.1650
vn -0.7036 -0.6372 -0.3145
vn 0.7287 -0.6103 0.3106
vn 0.4191 -0.8900 0.1795
vn -0.8863 -0.2287 -0.4027
vn 0.8984 -0.2167 0.3821
vn 0.0255 -0.9996 0.0110
vn 0.3185 -0.8900 0.3262
vn 0.0194 -0.9996 0.0199
vn -0.6759 0.2247 -0.7019
vn -0.6766 0.2247 -0.7012
vn 0.6800 0.2248 0.6979
vn 0.6805 0.2248 0.6974
vn -0.6647 0.2287 -0.7112
vn -0.6183 0.4337 -0.6555
vn 0.6304 0.4339 0.6437
vn 0.6838 0.2167 0.6968
vn -0.6647 -0.2287 -0.7112
vn 0.6838 -0.2167 0.6968
vn -0.5297 -0.6372 -0.5598
vn 0.5544 -0.6103 0.5658
vn -0.2845 -0.9117 -0.2964
vn -0.2752 -0.6372 -0.7199
vn -0.3420 -0.2287 -0.9115
vn 0.3651 -0.2167 0.9054
vn 0.2957 -0.6103 0.7349
vn -0.1494 -0.9117 -0.3827
vn 0.1694 -0.8900 0.4233
vn 0.0103 -0.9996 0.0258
vn -0.3559 0.2247 -0.9071
vn -0.3568 0.2247 -0.9067
vn 0.3612 0.2248 0.9050
vn 0.3619 0.2248 0.9047
vn -0.3420 0.2287 -0.9115
vn -0.3204 0.4337 -0.8422
vn 0.3361 0.4339 0.8359
vn 0.3651 0.2167 0.9054
vn -0.0805 0.2237 -0.9713
vn -0.0730 0.4317 -0.8991
vn 0.0862 0.4319 0.8978
vn 0.0899 0.2188 0.9716
vn -0.0805 -0.2237 -0.9713
vn 0.0899 -0.2188 0.9716
vn -0.0662 -0.6272 -0.7761
vn 0.0732 -0.6154 0.7848
vn -0.0368 -0.9050 -0.4239
vn 0.0422 -0.8950 0.4442
vn 0.0026 -0.9999 0.0128
vn -0.0878 0.2235 -0.9707
vn -0.0856 0.2236 -0.9709
vn 0.0906 0.2236 0.9705
vn 0.0883 0.2236 0.9707
vn -0.0000 0.2225 -0.9749
vn -0.0000 0.4339 -0.9010
vn -0.0000 0.4339 0.9010
vn -0.0000 0.2225 0.9749
vn -0.0000 -0.2225 -0.9749
vn -0.0000 -0.2225 0.9749
vn -0.0000 -0.6235 -0.7818
vn -0.0000 -0.6235 0.7818
vn -0.0000 -0.9010 -0.4339
vn -0.0000 -0.9010 0.4339
vn -0.0000 0.2248 -0.9744
vn -0.0000 0.2248 0.9744
vt 0.660209 0.057641
vt 0.738087 0.132237
vt 0.764428 0.104737
vt 0.686550 0.030141
vt 0.874609 0.003631
vt 0.876080 0.110781
vt 0.906398 0.109791
vt 0.904927 0.002641
vt 0.002641 0.493309
vt 0.080966 0.567436
vt 0.120802 0.525344
vt 0.042477 0.451217
vt 0.997359 0.643426
vt 0.996642 0.536268
vt 0.942441 0.539126
vt 0.943159 0.646283
vt 0.883943 0.539126
vt 0.884660 0.646283
vt 0.832733 0.536268
vt 0.833451 0.643426
vt 0.326607 0.207427
vt 0.434379 0.206948
vt 0.433071 0.156959
vt 0.325300 0.157437
vt 0.432605 0.098652
vt 0.324833 0.099131
vt 0.712891 0.002641
vt 0.790769 0.077237
vt 0.420074 0.451217
vt 0.389758 0.452222
vt 0.391448 0.559475
vt 0.421764 0.558469
vt 0.479946 0.002641
vt 0.439661 0.044304
vt 0.517187 0.119266
vt 0.557472 0.077603
vt 0.662016 0.647352
vt 0.716186 0.644145
vt 0.714378 0.536895
vt 0.660209 0.540102
vt 0.774681 0.643518
vt 0.772873 0.536268
vt 0.825916 0.645597
vt 0.824108 0.538347
vt 0.326607 0.003119
vt 0.325300 0.044055
vt 0.433071 0.043577
vt 0.434379 0.002641
vt 0.942896 0.683581
vt 0.997047 0.690609
vt 0.876146 0.180498
vt 0.906470 0.182196
vt 0.662600 0.774475
vt 0.716821 0.781145
vt 0.391789 0.661397
vt 0.422116 0.663077
vt 0.261517 0.171643
vt 0.280346 0.218094
vt 0.201606 0.029688
vt 0.217819 0.067085
vt 0.884397 0.683581
vt 0.107339 0.606913
vt 0.160251 0.583270
vt 0.775316 0.780519
vt 0.576008 0.206472
vt 0.629170 0.183396
vt 0.239201 0.117749
vt 0.778734 0.192609
vt 0.813593 0.177282
vt 0.833138 0.690609
vt 0.848453 0.161956
vt 0.826499 0.772720
vt 0.793184 0.263940
vt 0.831256 0.263120
vt 0.127211 0.129163
vt 0.167116 0.167455
vt 0.869327 0.262299
vt 0.874609 0.242178
vt 0.904876 0.246273
vt 0.389758 0.751449
vt 0.420034 0.755516
vt 0.116599 0.653479
vt 0.174531 0.651882
vt 0.596981 0.309549
vt 0.654927 0.308573
vt 0.941808 0.716338
vt 0.995690 0.732182
vt 0.660209 0.886920
vt 0.714250 0.902367
vt 0.883310 0.716338
vt 0.772745 0.901740
vt 0.831781 0.732182
vt 0.824108 0.885165
vt 0.207954 0.208979
vt 0.241637 0.245510
vt 0.096144 0.101686
vt 0.439730 0.628144
vt 0.441024 0.672234
vt 0.491922 0.677518
vt 0.490917 0.642535
vt 0.292502 0.451516
vt 0.295559 0.579039
vt 0.346420 0.584369
vt 0.343589 0.465996
vt 0.172767 0.263762
vt 0.216375 0.285500
vt 0.026277 0.208152
vt 0.067270 0.220837
vt 0.119552 0.240684
vt 0.779239 0.335371
vt 0.814726 0.349182
vt 0.850214 0.362993
vt 0.610085 0.631871
vt 0.611870 0.696725
vt 0.642248 0.695326
vt 0.640391 0.627995
vt 0.351702 0.454972
vt 0.354094 0.549998
vt 0.384476 0.548731
vt 0.382018 0.451217
vt 0.107334 0.700043
vt 0.161468 0.720737
vt 0.576912 0.412806
vt 0.630821 0.434079
vt 0.549369 0.642482
vt 0.550375 0.677464
vt 0.604803 0.672085
vt 0.603510 0.627995
vt 0.179813 0.465157
vt 0.182643 0.583530
vt 0.237108 0.578740
vt 0.234051 0.451217
vt 0.518858 0.500524
vt 0.560523 0.540807
vt 0.550355 0.715018
vt 0.604803 0.719558
vt 0.181935 0.711326
vt 0.236352 0.716456
vt 0.491903 0.715071
vt 0.294804 0.716755
vt 0.441024 0.719707
vt 0.345712 0.712165
vt 0.161310 0.327651
vt 0.208405 0.331977
vt 0.002641 0.332881
vt 0.047120 0.328152
vt 0.103748 0.326286
vt 0.739020 0.396029
vt 0.766521 0.422369
vt 0.794022 0.448709
vt 0.611735 0.766807
vt 0.642111 0.768106
vt 0.353659 0.652486
vt 0.384032 0.653916
vt 0.080956 0.739518
vt 0.123050 0.779352
vt 0.439661 0.582430
vt 0.481326 0.622713
vt 0.548992 0.827080
vt 0.603441 0.831620
vt 0.179813 0.823156
vt 0.234230 0.828285
vt 0.490540 0.827133
vt 0.292681 0.828585
vt 0.439661 0.831769
vt 0.343589 0.823995
vt 0.161310 0.440705
vt 0.208405 0.445031
vt 0.002641 0.445935
vt 0.047120 0.441207
vt 0.103748 0.439340
vt 0.660209 0.478307
vt 0.687710 0.504647
vt 0.715211 0.530986
vt 0.610085 0.878866
vt 0.640462 0.880164
vt 0.351702 0.764319
vt 0.382075 0.765749
vt 0.002641 0.822267
vt 0.044735 0.862102
s 1
f 6/1/1 5/2/1 4/3/1 3/4/1
f 7/5/2 8/6/3 5/7/4 6/8/2
f 10/9/1 9/10/1 8/11/1 7/12/1
f 9/13/5 10/14/6 12/15/7 11/16/8
f 11/16/8 12/15/7 14/17/9 13/18/10
f 13/18/10 14/17/9 16/19/11 15/20/12
f 15/21/12 16/22/11 18/23/13 17/24/14
f 17/24/14 18/23/13 2/25/15 1/26/16
f 20/27/1 3/4/1 4/3/1 19/28/1
f 21/29/17 20/30/17 19/31/18 22/32/19
f 24/33/1 21/34/1 22/35/1 23/36/1
f 23/37/20 25/38/21 26/39/22 24/40/23
f 25/38/21 27/41/24 28/42/25 26/39/22
f 27/41/24 29/43/26 30/44/27 28/42/25
f 29/45/26 31/46/28 32/47/29 30/48/27
f 31/46/28 1/26/16 2/25/15 32/47/29
f 11/16/8 38/49/30 37/50/31 9/13/5
f 8/6/3 36/51/32 35/52/33 5/7/4
f 23/37/20 44/53/34 45/54/35 25/38/21
f 19/31/18 42/55/36 43/56/37 22/32/19
f 17/24/14 41/57/38 40/58/39 15/21/12
f 29/45/26 47/59/40 48/60/41 31/46/28
f 13/18/10 39/61/42 38/49/30 11/16/8
f 9/10/1 37/62/1 36/63/1 8/11/1
f 25/38/21 45/54/35 46/64/43 27/41/24
f 22/35/1 43/65/1 44/66/1 23/36/1
f 1/26/16 33/67/44 41/57/38 17/24/14
f 5/2/1 35/68/1 34/69/1 4/3/1
f 31/46/28 48/60/41 33/67/44 1/26/16
f 15/20/12 40/70/39 39/61/42 13/18/10
f 4/3/1 34/69/1 42/71/1 19/28/1
f 27/41/24 46/64/43 47/72/40 29/43/26
f 35/68/1 51/73/1 50/74/1 34/69/1
f 48/60/41 64/75/45 49/76/46 33/67/44
f 34/69/1 50/74/1 58/77/1 42/71/1
f 36/51/32 52/78/47 51/79/48 35/52/33
f 42/55/36 58/80/49 59/81/50 43/56/37
f 37/62/1 53/82/1 52/83/1 36/63/1
f 43/65/1 59/84/1 60/85/1 44/66/1
f 38/49/30 54/86/51 53/87/52 37/50/31
f 44/53/34 60/88/53 61/89/54 45/54/35
f 39/61/42 55/90/55 54/86/51 38/49/30
f 45/54/35 61/89/54 62/91/56 46/64/43
f 40/70/39 56/92/57 55/90/55 39/61/42
f 46/64/43 62/91/56 63/93/58 47/72/40
f 41/57/38 57/94/59 56/95/57 40/58/39
f 47/59/40 63/96/58 64/75/45 48/60/41
f 33/67/44 49/76/46 57/94/59 41/57/38
f 56/97/57 72/98/60 71/99/61 55/100/55
f 62/101/56 78/102/62 79/103/63 63/104/58
f 57/94/59 73/105/64 72/106/60 56/95/57
f 63/96/58 79/107/63 80/108/65 64/75/45
f 49/76/46 65/109/66 73/105/64 57/94/59
f 51/73/1 67/110/1 66/111/1 50/74/1
f 64/75/45 80/108/65 65/109/66 49/76/46
f 50/74/1 66/111/1 74/112/1 58/77/1
f 52/113/47 68/114/67 67/115/68 51/116/48
f 58/117/49 74/118/69 75/119/70 59/120/50
f 53/82/1 69/121/1 68/122/1 52/83/1
f 59/84/1 75/123/1 76/124/1 60/85/1
f 54/125/51 70/126/71 69/127/72 53/128/52
f 60/129/53 76/130/73 77/131/74 61/132/54
f 55/100/55 71/99/61 70/126/71 54/125/51
f 61/132/54 77/131/74 78/102/62 62/101/56
f 75/123/1 91/133/1 92/134/1 76/124/1
f 70/126/71 86/135/75 85/136/76 69/127/72
f 76/130/73 92/137/77 93/138/78 77/131/74
f 71/99/61 87/139/79 86/135/75 70/126/71
f 77/131/74 93/138/78 94/140/80 78/102/62
f 72/98/60 88/141/81 87/139/79 71/99/61
f 78/102/62 94/140/80 95/142/82 79/103/63
f 73/105/64 89/143/83 88/144/81 72/106/60
f 79/107/63 95/145/82 96/146/84 80/108/65
f 65/109/66 81/147/85 89/143/83 73/105/64
f 67/110/1 83/148/1 82/149/1 66/111/1
f 80/108/65 96/146/84 81/147/85 65/109/66
f 66/111/1 82/149/1 90/150/1 74/112/1
f 68/114/67 84/151/86 83/152/87 67/115/68
f 74/118/69 90/153/88 91/154/89 75/119/70
f 69/121/1 85/155/1 84/156/1 68/122/1
f 91/133/1 107/157/1 108/158/1 92/134/1
f 86/135/75 102/159/90 101/160/91 85/136/76
f 92/137/77 108/161/92 109/162/93 93/138/78
f 87/139/79 103/163/94 102/159/90 86/135/75
f 93/138/78 109/162/93 110/164/95 94/140/80
f 88/141/81 104/165/96 103/163/94 87/139/79
f 94/140/80 110/164/95 111/166/97 95/142/82
f 89/143/83 105/167/98 104/168/96 88/144/81
f 95/145/82 111/169/97 112/170/99 96/146/84
f 81/147/85 97/171/15 105/167/98 89/143/83
f 83/148/1 99/172/1 98/173/1 82/149/1
f 96/146/84 112/170/99 97/171/15 81/147/85
f 82/149/1 98/173/1 106/174/1 90/150/1
f 84/151/86 100/175/100 99/176/100 83/152/87
f 90/153/88 106/177/101 107/178/101 91/154/89
f 85/155/1 101/179/1 100/180/1 84/156/1
