# Blender 4.3.2
# www.blender.org
o Serwers_Up_Straight_Var0
v 0.000000 6.498648 -6.773860
v 0.000000 5.498647 0.000000
v 0.000000 -0.770893 -0.000000
v 0.000000 0.229107 -6.773861
v -0.979492 0.229107 -6.773861
v -0.979492 -0.770893 -0.000000
v -1.157323 0.000000 0.000000
v -1.157323 1.000000 -6.773861
v -2.648009 1.000000 -6.773861
v -2.648009 0.000000 0.000000
v -3.302013 2.358054 -6.773861
v -3.302013 1.358054 0.000000
v -3.302013 3.865380 -6.773861
v -3.302013 2.865380 0.000000
v -2.648009 5.223434 -6.773861
v -2.648009 4.223433 0.000000
v -1.469534 6.163236 -6.773860
v -1.469534 5.163236 0.000000
v 0.979492 0.229107 -6.773861
v 0.979492 -0.770893 -0.000000
v 1.157323 0.000000 0.000000
v 1.157323 1.000000 -6.773861
v 2.648009 1.000000 -6.773861
v 2.648009 0.000000 0.000000
v 3.302013 2.358054 -6.773861
v 3.302013 1.358054 0.000000
v 3.302013 3.865380 -6.773861
v 3.302013 2.865380 0.000000
v 2.648009 5.223434 -6.773861
v 2.648009 4.223433 0.000000
v 1.469534 6.163236 -6.773860
v 1.469534 5.163236 0.000000
vn -0.0000 0.9893 0.1460
vn 0.9739 0.2247 0.0332
vn 0.8991 0.4330 0.0639
vn 0.9788 0.2025 0.0299
vn 0.9696 0.2419 0.0357
vn 0.9696 -0.2419 -0.0357
vn 0.9788 -0.2025 -0.0299
vn 0.7684 -0.6331 -0.0935
vn 0.7888 -0.6080 -0.0898
vn 0.4222 -0.8968 -0.1324
vn 0.4384 -0.8892 -0.1313
vn -0.0000 -0.9893 -0.1460
vn -0.9739 0.2247 0.0332
vn -0.8991 0.4330 0.0639
vn -0.9696 0.2419 0.0357
vn -0.9788 0.2025 0.0299
vn -0.9788 -0.2025 -0.0299
vn -0.9696 -0.2419 -0.0357
vn -0.7888 -0.6080 -0.0898
vn -0.7684 -0.6331 -0.0935
vn -0.4384 -0.8892 -0.1313
vn -0.4222 -0.8968 -0.1324
vt 0.136985 0.961672
vt 0.069589 0.961672
vt 0.069589 0.490533
vt 0.136985 0.490533
vt 0.997807 0.473332
vt 0.944692 0.481079
vt 0.944692 0.009940
vt 0.997807 0.002193
vt 0.243940 0.961672
vt 0.141371 0.961672
vt 0.141371 0.490533
vt 0.243940 0.490533
vt 0.361988 0.044634
vt 0.456967 0.030987
vt 0.456967 0.502126
vt 0.361988 0.515773
vt 0.559384 0.015840
vt 0.559384 0.486979
vt 0.648954 0.002193
vt 0.648954 0.473332
vt 0.002193 0.015007
vt 0.095404 0.005564
vt 0.095404 0.476703
vt 0.002193 0.486147
vt 0.199063 0.002193
vt 0.199063 0.473332
vt 0.002193 0.961672
vt 0.002193 0.490533
vt 0.944692 0.956605
vt 0.944692 0.485465
vt 0.997807 0.493212
vt 0.997807 0.964351
vt 0.248327 0.961672
vt 0.248327 0.490533
vt 0.350896 0.490533
vt 0.350896 0.961672
vt 0.940306 0.044634
vt 0.940306 0.515773
vt 0.845327 0.502126
vt 0.845327 0.030987
vt 0.742911 0.486979
vt 0.742911 0.015840
vt 0.653340 0.473332
vt 0.653340 0.002193
vt 0.357602 0.015007
vt 0.357602 0.486147
vt 0.292641 0.476703
vt 0.292641 0.005564
s 1
f 6/1/1 3/2/1 4/3/1 5/4/1
f 7/5/2 6/6/2 5/7/2 8/8/2
f 10/9/1 7/10/1 8/11/1 9/12/1
f 9/13/3 11/14/4 12/15/5 10/16/3
f 11/14/4 13/17/6 14/18/7 12/15/5
f 13/17/6 15/19/8 16/20/9 14/18/7
f 15/21/8 17/22/10 18/23/11 16/24/9
f 17/22/10 1/25/12 2/26/12 18/23/11
f 20/27/1 19/28/1 4/3/1 3/2/1
f 21/29/13 22/30/13 19/31/13 20/32/13
f 24/33/1 23/34/1 22/35/1 21/36/1
f 23/37/14 24/38/14 26/39/15 25/40/16
f 25/40/16 26/39/15 28/41/17 27/42/18
f 27/42/18 28/41/17 30/43/19 29/44/20
f 29/45/20 30/46/19 32/47/21 31/48/22
f 31/48/22 32/47/21 2/26/12 1/25/12
