# Blender 4.3.2
# www.blender.org
o Serwers_Flat_Left_Var0_Water
v -0.000001 -0.300000 -0.000001
v -0.000001 -0.300000 -2.773862
v -0.472758 -0.300000 -4.977881
v -1.752948 -0.300000 -6.833230
v -3.645686 -0.300000 -8.057463
v -5.862838 -0.300000 -8.464211
v -8.793407 -0.300000 -8.464211
v -1.099993 -0.300000 -0.000001
v -1.099301 -0.300000 -2.760972
v 1.099991 -0.300000 -0.000001
v 1.099333 -0.300000 -2.786439
v -1.488175 -0.300000 -4.554948
v 0.542909 -0.300000 -5.400238
v -2.529231 -0.300000 -6.053916
v -0.976214 -0.300000 -7.612105
v -4.064660 -0.300000 -7.040404
v -3.226129 -0.300000 -9.074287
v -5.873618 -0.300000 -7.364698
v -5.851745 -0.300000 -9.563696
v -8.793453 -0.300000 -7.364219
v -8.793362 -0.300000 -9.564203
vn -0.0000 1.0000 -0.0000
vt 0.499937 1.000000
vt 1.000851 1.000000
vt 0.999294 0.000000
vt 0.499919 0.000000
vt 0.000869 -0.000000
vt -0.000724 1.000000
vt 0.500011 1.000000
vt 1.000875 1.000000
vt 0.999125 0.000000
vt 0.499989 0.000000
vt 0.000897 0.000000
vt -0.000897 1.000000
vt 0.500011 1.002227
vt 1.000875 0.997773
vt 0.999125 -0.002227
vt 0.499989 0.002227
vt 0.000897 -0.002227
vt -0.000897 0.997773
vt 0.500003 1.000000
vt 1.001177 1.000000
vt 0.998823 0.000000
vt 0.499988 0.000000
vt 0.001191 0.000000
vt -0.001191 1.000000
vt 0.500085 1.000007
vt 1.000167 0.998172
vt 0.999833 0.001841
vt 0.499913 0.000033
vt 0.000000 -0.001855
vt 0.000000 1.001868
vt 0.500119 0.000000
vt 0.000000 -0.002877
vt -0.000000 1.002877
vt 0.499821 1.000036
vt 0.999694 0.997087
vt 1.000306 0.002913
s 1
f 3/1/1 12/2/1 9/3/1 2/4/1
f 2/4/1 11/5/1 13/6/1 3/1/1
f 4/7/1 14/8/1 12/9/1 3/10/1
f 3/10/1 13/11/1 15/12/1 4/7/1
f 5/13/1 16/14/1 14/15/1 4/16/1
f 4/16/1 15/17/1 17/18/1 5/13/1
f 6/19/1 18/20/1 16/21/1 5/22/1
f 5/22/1 17/23/1 19/24/1 6/19/1
f 7/25/1 20/26/1 18/27/1 6/28/1
f 6/28/1 19/29/1 21/30/1 7/25/1
f 1/31/1 10/32/1 11/33/1 2/34/1
f 2/34/1 9/35/1 8/36/1 1/31/1
