# Blender 4.3.2
# www.blender.org
o Gun
v -0.080773 -0.080532 0.063789
v 0.000000 -0.093213 0.112923
v -0.061048 -0.080792 0.262193
v 0.061048 -0.080792 0.262193
v 0.080773 -0.080532 0.063789
v 0.103407 0.010167 0.050462
v 0.000000 -0.269411 -0.055046
v 0.019836 -0.142052 0.005589
v -0.019835 -0.142052 0.005589
v 0.069388 0.099820 0.097995
v 0.000000 0.139568 0.145528
v 0.000000 0.092515 0.264692
v -0.000000 0.079671 -0.071002
v -0.071483 0.003657 -0.075074
v 0.000000 0.130132 0.008150
v 0.000000 -0.095857 0.411172
v -0.112041 0.011688 0.430299
v 0.081884 0.021932 0.284098
v 0.051590 -0.044164 -0.078054
v 0.072727 -0.100214 -0.047717
v 0.084778 -0.180528 -0.099360
v -0.046729 -0.272959 -0.076807
v -0.098237 -0.394344 -0.171517
v -0.000000 -0.434164 -0.062281
v 0.000000 -0.111253 0.120775
v -0.027001 -0.080145 0.099833
v -0.027001 -0.130873 -0.004937
v 0.000000 -0.271605 -0.030659
v 0.027001 -0.289944 -0.082199
v 0.027001 -0.130873 -0.004937
v 0.000000 -0.152043 0.203984
v 0.000000 -0.090650 0.224685
v -0.023281 -0.160290 0.185509
v 0.012518 -0.115325 0.055264
v 0.000000 -0.102304 0.100224
v 0.000000 -0.207745 0.092302
v -0.051590 -0.044164 -0.078054
v -0.000000 -0.172966 -0.200857
v -0.084778 -0.180528 -0.099360
v 0.000000 -0.162185 0.028009
v -0.069388 0.099820 0.097995
v -0.103407 0.010167 0.050462
v -0.081884 0.021932 0.284098
v 0.027001 -0.080145 0.099833
v 0.027001 -0.081522 0.299835
v 0.000000 -0.111253 0.256347
v -0.027001 -0.081522 0.299835
v 0.000000 0.092032 0.408525
v 0.000000 0.121725 0.530328
v 0.086262 0.085994 0.545919
v -0.082488 0.003938 0.408526
v -0.121992 -0.000267 0.554581
v -0.086261 0.085994 0.545919
v 0.082488 0.003938 0.408526
v 0.121992 -0.000267 0.554581
v 0.086262 -0.086529 0.545919
v 0.000000 -0.084157 0.408526
v 0.000000 -0.122259 0.530329
v -0.086261 -0.086529 0.545919
v 0.000000 0.079392 0.243414
v -0.066816 0.009504 0.243414
v 0.066816 0.009504 0.243414
v 0.000000 -0.000267 0.441237
v 0.000000 0.121725 0.530328
v -0.086261 0.085994 0.545919
v 0.000000 -0.122259 0.530329
v 0.086262 -0.086529 0.545919
v -0.094045 -0.393778 -0.089520
v 0.000000 -0.429489 -0.040785
v 0.094045 -0.393778 -0.089521
v 0.094045 -0.348659 -0.234354
v -0.000000 -0.350374 -0.294748
v -0.094045 -0.348659 -0.234353
v 0.127232 -0.318898 -0.145639
v -0.127232 -0.318898 -0.145638
v -0.000000 -0.502561 -0.108820
v -0.000000 -0.503737 -0.203220
v 0.100000 -0.461728 -0.190133
v -0.094045 -0.393778 -0.089520
v -0.127232 -0.318898 -0.145638
v -0.100000 -0.461728 -0.190133
v -0.000000 -0.064279 -0.217321
v -0.000000 0.001530 -0.255303
v 0.066240 0.001531 -0.217321
v -0.066240 0.001531 -0.217321
v -0.000000 -0.029219 -0.122391
v -0.000000 -0.085469 -0.163050
v 0.061518 -0.059987 -0.163050
v -0.030750 0.001531 -0.122391
v -0.087000 0.001531 -0.163050
v -0.061518 -0.059987 -0.163050
v -0.000000 0.032282 -0.122391
v -0.000000 0.088531 -0.163050
v -0.061518 0.063050 -0.163051
v 0.030750 0.001531 -0.122391
v 0.087000 0.001531 -0.163050
v 0.061518 0.063050 -0.163051
v -0.000000 0.072091 -0.063592
v 0.070560 0.001531 -0.063592
v -0.000000 -0.069029 -0.063592
v 0.125701 -0.035695 0.091215
v 0.080622 -0.054664 0.118063
v 0.081770 -0.069805 0.073436
v 0.097147 0.003980 0.083084
v 0.102610 0.072070 0.085869
v 0.128232 0.059329 0.107938
v 0.089140 -0.011639 0.130604
v 0.102610 0.049772 0.130804
v 0.099783 0.064362 0.198353
v 0.128563 0.064362 0.198353
v 0.114173 0.141524 0.220680
v 0.114173 0.141524 0.220680
v 0.074677 0.099317 0.181829
v 0.099783 0.064362 0.198353
v 0.153669 0.099317 0.181829
v 0.140368 0.058831 0.169628
v 0.144890 0.030603 0.137006
v 0.076363 0.107679 0.083422
v 0.089014 0.056342 0.085669
v 0.083456 0.030603 0.137006
v 0.107190 0.066285 0.235122
v 0.107190 0.116070 0.206804
v 0.095870 0.074773 0.194004
v 0.118511 0.074773 0.194004
v 0.100846 -0.045400 0.226139
v 0.065861 -0.058479 0.257490
v 0.065697 -0.072922 0.227333
v 0.071404 -0.059276 0.200362
v 0.095954 0.032822 0.191093
v 0.117967 0.045564 0.202248
v 0.080951 0.008543 0.265167
v 0.112041 0.011688 0.430299
v 0.071483 0.003657 -0.075074
v -0.072727 -0.100214 -0.047717
v 0.098237 -0.394344 -0.171518
v 0.046729 -0.272959 -0.076808
v -0.000000 -0.366838 -0.268523
v -0.027001 -0.289944 -0.082199
v -0.000000 -0.241152 -0.047464
v 0.010869 -0.141551 0.005947
v 0.020121 -0.210415 0.039615
v -0.010869 -0.141551 0.005947
v -0.020121 -0.210415 0.039615
v 0.000000 -0.263497 0.158752
v 0.031215 -0.218958 0.151841
v -0.031215 -0.218958 0.151841
v 0.000000 -0.235197 0.202869
v 0.023281 -0.160290 0.185509
v 0.014971 -0.076622 0.157452
v -0.014971 -0.076622 0.157452
v -0.012518 -0.115325 0.055264
v 0.000000 -0.173980 0.061136
v -0.121992 -0.000267 0.554581
v -0.086261 -0.086529 0.545919
v 0.121992 -0.000267 0.554581
v 0.086262 0.085994 0.545919
v 0.094045 -0.348659 -0.234354
v 0.127232 -0.318898 -0.145639
v 0.094045 -0.393778 -0.089521
v 0.000000 -0.429489 -0.040785
v -0.000000 -0.449155 -0.280250
v -0.094045 -0.348659 -0.234353
v -0.000000 -0.350374 -0.294748
v -0.000000 0.067340 -0.217321
v -0.061518 0.063050 -0.163051
v -0.087000 0.001531 -0.163050
v 0.061518 -0.059987 -0.163050
v -0.000000 -0.085469 -0.163050
v -0.061518 -0.059987 -0.163050
v 0.061518 0.063050 -0.163051
v 0.087000 0.001531 -0.163050
v -0.000000 0.088531 -0.163050
v 0.098153 -0.009067 0.052024
v 0.088797 -0.045264 0.043067
v 0.151983 0.107679 0.083422
v 0.114173 0.169396 0.041385
v 0.114173 0.147326 0.080237
v 0.067940 0.108873 0.136607
v 0.087978 0.058831 0.169628
v 0.114173 0.152332 0.138200
v 0.160406 0.108873 0.136607
v 0.139332 0.056342 0.085669
v 0.114173 0.134186 0.196163
v 0.131792 0.106569 0.048183
v 0.128563 0.064362 0.198353
v 0.096555 0.106569 0.048183
v 0.131792 0.106569 0.048183
v 0.096555 0.106569 0.048183
v 0.139332 0.056342 0.085669
v 0.089014 0.056342 0.085669
v 0.144890 0.030603 0.137006
v 0.083456 0.030603 0.137006
v 0.140368 0.058831 0.169628
v 0.087978 0.058831 0.169628
v 0.107190 0.025904 0.232603
v -0.070560 0.001531 -0.063592
vn -0.7181 -0.6822 0.1377
vn -0.0000 -0.9801 0.1986
vn -0.7685 -0.6387 0.0371
vn 0.7685 -0.6387 0.0371
vn 0.7181 -0.6822 0.1377
vn 0.9991 0.0053 -0.0430
vn -0.0000 -0.3060 0.9520
vn 0.4874 -0.6153 0.6196
vn -0.4874 -0.6153 0.6196
vn 0.7425 0.6698 -0.0002
vn -0.0000 0.9902 0.1399
vn -0.0000 0.8398 0.5428
vn -0.0000 0.5914 -0.8064
vn -0.6600 0.2752 -0.6990
vn -0.0000 0.9363 -0.3513
vn -0.0000 -0.9344 0.3563
vn -0.8417 -0.0271 0.5392
vn 0.8281 0.4709 0.3040
vn 0.5515 0.2624 -0.7918
vn 0.9641 -0.2406 -0.1125
vn 0.9963 0.0378 0.0768
vn -0.6433 -0.2088 0.7366
vn -0.9986 0.0520 -0.0063
vn -0.0000 -0.1323 0.9912
vn -0.0000 -0.9560 0.2933
vn -0.7873 -0.6031 0.1282
vn -0.8445 -0.3789 0.3786
vn -0.0000 -0.6457 0.7636
vn 0.4868 -0.7107 0.5079
vn 0.8445 -0.3789 0.3785
vn -0.0000 -0.1740 0.9848
vn -0.0000 -0.0866 0.9962
vn -0.9861 -0.0264 0.1643
vn 0.8804 -0.1599 -0.4465
vn -0.0000 -0.0749 0.9972
vn -0.0000 -0.9931 0.1175
vn -0.5515 0.2624 -0.7919
vn -0.0000 0.4431 -0.8965
vn -0.9963 0.0378 0.0768
vn -0.0000 -0.7045 0.7097
vn -0.7425 0.6698 -0.0002
vn -0.9991 0.0053 -0.0430
vn -0.8281 0.4709 0.3040
vn 0.7873 -0.6031 0.1282
vn 0.4256 -0.8467 0.3194
vn -0.0000 -0.9679 0.2514
vn -0.4256 -0.8467 0.3194
vn -0.0000 0.9580 -0.2868
vn -0.0001 0.5336 0.8457
vn 0.5984 0.6989 0.3917
vn -0.9301 0.1682 -0.3265
vn -0.4495 0.0033 0.8933
vn -0.5984 0.6989 0.3917
vn 0.9301 0.1682 -0.3266
vn 0.4495 0.0033 0.8933
vn 0.6174 -0.7098 0.3390
vn -0.0000 -0.9055 -0.4243
vn 0.0001 -0.5561 0.8311
vn -0.6174 -0.7098 0.3390
vn -0.0000 0.9974 -0.0715
vn -0.7259 0.6861 -0.0492
vn 0.7259 0.6860 -0.0491
vn -0.0000 -0.0000 1.0000
vn -0.0000 0.5336 0.8458
vn -0.5984 0.6990 0.3916
vn -0.0000 -0.5561 0.8311
vn 0.6174 -0.7099 0.3389
vn -0.6167 -0.0128 0.7871
vn -0.0000 -0.1843 0.9829
vn 0.6167 -0.0128 0.7871
vn 0.6167 0.4365 -0.6551
vn -0.0000 0.4065 -0.9136
vn -0.6167 0.4365 -0.6551
vn 0.8275 0.5360 0.1670
vn -0.8275 0.5360 0.1669
vn -0.0000 -0.8898 0.4563
vn -0.0000 -0.9547 -0.2974
vn 0.7919 -0.5830 -0.1816
vn -0.6167 -0.0127 0.7871
vn -0.7919 -0.5830 -0.1816
vn -0.0000 -0.7406 -0.6719
vn -0.0000 -0.0000 -1.0000
vn 0.7410 -0.0000 -0.6715
vn -0.7410 -0.0000 -0.6715
vn 0.0001 -0.7955 0.6060
vn -0.0000 -0.9547 0.2975
vn 0.6816 -0.6822 0.2645
vn -0.7955 -0.0000 0.6060
vn -0.9537 -0.0000 0.3008
vn -0.6816 -0.6822 0.2645
vn -0.0000 0.7955 0.6060
vn -0.0000 0.9547 0.2975
vn -0.6816 0.6822 0.2645
vn 0.7955 -0.0000 0.6060
vn 0.9537 -0.0000 0.3008
vn 0.6816 0.6822 0.2645
vn -0.0000 0.8281 -0.5606
vn 0.8281 -0.0000 -0.5606
vn -0.0000 -0.8281 -0.5606
vn 0.9580 -0.2789 -0.0659
vn 0.5797 -0.6047 0.5461
vn 0.6243 -0.7798 -0.0466
vn 0.6974 0.2435 -0.6740
vn 0.6466 -0.0207 -0.7626
vn 0.9937 -0.0708 -0.0874
vn 0.6535 -0.2110 0.7269
vn 0.6892 -0.1535 0.7081
vn -0.4487 -0.5386 0.7132
vn 0.4486 -0.5386 0.7132
vn 0.0001 0.4642 0.8857
vn -0.0000 0.4642 0.8857
vn -0.9299 0.0748 0.3602
vn -0.4486 -0.5385 0.7132
vn 0.9299 0.0748 0.3602
vn 0.4677 -0.7322 0.4952
vn 0.8061 -0.5855 0.0860
vn -0.9631 0.1649 -0.2126
vn -0.5432 -0.5956 -0.5918
vn -0.8061 -0.5855 0.0859
vn -0.0000 0.2616 0.9652
vn -0.0000 0.4944 0.8692
vn -0.9645 -0.2374 -0.1159
vn 0.9645 -0.2374 -0.1158
vn 0.8477 -0.5086 0.1509
vn 0.6725 -0.5075 0.5387
vn 0.6168 -0.7858 0.0450
vn 0.6499 -0.4573 -0.6071
vn 0.5412 -0.2258 -0.8100
vn 0.8850 -0.2350 -0.4019
vn 0.7936 -0.1364 0.5930
vn 0.8417 -0.0272 0.5392
vn 0.6600 0.2752 -0.6990
vn -0.9641 -0.2406 -0.1125
vn 0.9986 0.0520 -0.0064
vn 0.6434 -0.2088 0.7365
vn -0.0000 0.3295 -0.9441
vn -0.4868 -0.7107 0.5079
vn -0.0000 -0.8382 -0.5454
vn 0.7689 0.3612 0.5275
vn 0.9663 0.1537 0.2067
vn -0.7689 0.3612 0.5275
vn -0.9663 0.1537 0.2067
vn -0.0000 -0.9950 0.0995
vn 0.9940 0.0996 -0.0448
vn -0.9940 0.0995 -0.0448
vn -0.0000 -0.3916 0.9201
vn 0.9861 -0.0264 0.1643
vn 0.8004 -0.1176 -0.5878
vn -0.8004 -0.1176 -0.5878
vn -0.8804 -0.1599 -0.4465
vn -0.0000 -0.3481 -0.9374
vn -0.4495 0.0034 0.8933
vn -0.6175 -0.7098 0.3389
vn 0.4495 0.0032 0.8933
vn 0.5985 0.6989 0.3917
vn 0.6167 0.4366 -0.6551
vn 0.6167 -0.0127 0.7871
vn -0.0000 -0.4733 -0.8809
vn -0.6167 0.4366 -0.6551
vn -0.0000 0.7406 -0.6719
vn -0.6816 0.6822 0.2646
vn -0.9537 -0.0000 0.3009
vn 0.6816 -0.6822 0.2646
vn -0.0000 -0.9547 0.2976
vn -0.6816 -0.6822 0.2646
vn 0.6816 0.6822 0.2646
vn 0.9537 -0.0000 0.3009
vn -0.0000 0.9547 0.2976
vn 0.8642 0.2609 -0.4302
vn 0.7701 -0.3756 -0.5156
vn 0.9631 0.1649 -0.2126
vn -0.0000 0.7868 -0.6172
vn -0.0000 0.9962 0.0869
vn -0.8896 0.4546 0.0435
vn -0.4677 -0.7321 0.4952
vn -0.0000 0.9940 0.1097
vn 0.8896 0.4546 0.0435
vn 0.5432 -0.5956 -0.5918
vn -0.0000 0.9940 0.1094
vn 0.5095 -0.2252 -0.8304
vn 0.4486 -0.5385 0.7132
vn -0.5095 -0.2253 -0.8304
vn -0.0001 0.7868 -0.6171
vn 0.5096 -0.2253 -0.8304
vn -0.5095 -0.2252 -0.8305
vn 0.5432 -0.5956 -0.5917
vn -0.8061 -0.5855 0.0860
vn -0.4677 -0.7322 0.4952
vn -0.0000 -0.9289 -0.3704
vn -0.8281 -0.0000 -0.5606
vt 0.638871 0.753599
vt 0.587786 0.725881
vt 0.432591 0.753326
vt 0.652727 0.848697
vt 0.755922 0.541135
vt 0.699381 0.689095
vt 0.580119 0.931961
vt 0.553888 0.984375
vt 0.429993 0.935040
vt 0.779012 0.921573
vt 0.783246 0.841872
vt 0.696719 0.974482
vt 0.277698 0.723109
vt 0.257813 0.850292
vt 0.409817 0.861033
vt 0.786344 0.791730
vt 0.754803 0.732962
vt 0.808496 0.648752
vt 0.785049 0.551837
vt 0.883518 0.424563
vt 0.769946 0.382813
vt 0.509254 0.643849
vt 0.531028 0.676466
vt 0.639956 0.623278
vt 0.666699 0.475718
vt 0.720285 0.456489
vt 0.371371 0.541576
vt 0.349848 0.605947
vt 0.390580 0.532929
vt 0.520535 0.607607
vt 0.473789 0.621260
vt 0.482026 0.510704
vt 0.914022 0.656681
vt 0.605702 0.590447
vt 0.323086 0.675022
vt 0.368300 0.643849
vt 0.731501 0.306796
vt 0.567629 0.367188
vt 0.521079 0.288070
vt 0.731501 0.190970
vt 0.507813 0.185995
vt 0.521079 0.083919
vt 0.731501 0.077378
vt 0.567629 0.007812
vt 0.984375 0.280257
vt 0.984375 0.197557
vt 0.125000 0.375000
vt 0.125000 0.492188
vt 0.042136 0.457864
vt 0.125000 0.257813
vt 0.207864 0.292136
vt 0.222058 0.727543
vt 0.218750 0.730321
vt 0.222058 0.733099
vt 0.230838 0.733099
vt 0.234375 0.730223
vt 0.230838 0.727543
vt 0.225759 0.734375
vt 0.226448 0.726563
vt 0.198279 0.561431
vt 0.119416 0.507813
vt 0.045708 0.561675
vt 0.116725 0.682549
vt 0.007813 0.742187
vt 0.141246 0.757813
vt 0.007813 0.757813
vt 0.007813 0.887641
vt 0.385598 0.276042
vt 0.492188 0.257813
vt 0.492188 0.312500
vt 0.385598 0.339121
vt 0.492188 0.367188
vt 0.257813 0.257813
vt 0.257813 0.356853
vt 0.432165 0.066495
vt 0.398696 0.033860
vt 0.454329 0.007812
vt 0.442302 0.134754
vt 0.438829 0.242188
vt 0.411317 0.220266
vt 0.383063 0.107883
vt 0.382813 0.203825
vt 0.052734 0.064766
vt 0.007812 0.195078
vt 0.007812 0.195120
vt 0.085685 0.123847
vt 0.052564 0.064821
vt 0.110141 0.055480
vt 0.175528 0.007812
vt 0.282930 0.137968
vt 0.278427 0.051277
vt 0.257813 0.428646
vt 0.285590 0.486979
vt 0.320313 0.432908
vt 0.936323 0.811931
vt 0.893339 0.784089
vt 0.934686 0.757813
vt 0.971665 0.782393
vt 0.984375 0.957251
vt 0.969079 0.984375
vt 0.882813 0.905566
vt 0.984375 0.453405
vt 0.632800 0.448144
vt 0.577270 0.552576
vt 0.542265 0.480372
vt 0.418398 0.424715
vt 0.425584 0.471415
vt 0.372530 0.454388
vt 0.419750 0.620655
vt 0.514430 0.546107
vt 0.007812 0.375000
vt 0.042136 0.292136
vt 0.242188 0.375000
vt 0.207864 0.457864
vt 0.242188 0.661219
vt 0.173541 0.918016
vt 0.007812 0.984375
vt 0.242188 0.757813
vt 0.481021 0.112307
vt 0.492188 0.050033
vt 0.367188 0.242188
vt 0.289315 0.204918
vt 0.176327 0.139985
vt 0.173134 0.213372
vt 0.056953 0.182730
vt 0.353562 0.136094
vt 0.353531 0.136016
vt 0.278422 0.051172
vt 0.175641 0.007812
vt 0.110234 0.055391
vt 0.257813 0.382813
s 1
f 1/1/1 2/2/2 3/3/3
f 4/3/4 5/1/5 6/4/6
f 7/5/7 8/6/8 9/6/9
f 10/7/10 11/8/11 12/9/12
f 13/10/13 14/11/14 15/12/15
f 4/3/4 2/2/2 5/1/5
f 3/3/3 16/13/16 17/14/17
f 6/4/6 18/15/18 4/3/4
f 19/16/19 20/17/20 21/18/21
f 22/19/22 23/20/23 24/21/24
f 25/22/25 26/23/26 27/24/27
f 28/25/28 29/26/29 30/24/30
f 31/27/31 32/28/32 33/29/33
f 34/30/34 35/31/35 36/32/36
f 37/16/37 38/33/38 39/18/39
f 25/22/25 40/34/40 30/24/30
f 27/24/27 40/34/40 25/22/25
f 41/7/41 42/4/42 43/15/43
f 18/15/18 6/4/6 10/7/10
f 10/7/10 12/9/12 18/15/18
f 44/23/44 45/35/45 46/36/46
f 25/22/25 47/35/47 26/23/26
f 48/37/48 49/38/49 50/39/50
f 51/40/51 52/41/52 53/39/53
f 54/40/54 55/41/55 56/42/56
f 57/43/57 58/44/58 59/42/59
f 56/42/56 58/44/58 57/43/57
f 57/43/57 54/40/54 56/42/56
f 59/42/59 52/41/52 51/40/51
f 51/40/51 57/43/57 59/42/59
f 53/39/53 49/38/49 48/37/48
f 48/37/48 51/40/51 53/39/53
f 50/39/50 55/41/55 54/40/54
f 54/40/54 48/37/48 50/39/50
f 48/37/48 60/45/60 61/46/61
f 48/37/48 61/46/61 51/40/51
f 54/40/54 62/46/62 60/45/60
f 54/40/54 60/45/60 48/37/48
f 63/47/63 64/48/64 65/49/65
f 63/47/63 66/50/66 67/51/67
f 68/52/68 69/53/69 70/54/70
f 71/55/71 72/56/72 73/57/73
f 73/57/73 74/58/74 71/55/71
f 70/54/70 75/59/75 68/52/68
f 76/60/76 77/61/77 78/62/78
f 79/63/79 80/64/75 81/62/80
f 81/62/80 77/61/77 76/60/76
f 79/63/79 81/62/80 76/60/76
f 82/65/81 83/66/82 84/67/83
f 85/67/84 83/66/82 82/65/81
f 86/68/85 87/69/86 88/70/87
f 89/71/88 90/72/89 91/70/90
f 92/68/91 93/69/92 94/70/93
f 95/71/94 96/72/95 97/70/96
f 88/70/87 96/72/95 95/71/94
f 95/71/94 86/68/85 88/70/87
f 97/70/96 93/69/92 92/68/91
f 92/68/91 95/71/94 97/70/96
f 94/70/93 90/72/89 89/71/88
f 89/71/88 92/68/91 94/70/93
f 91/70/90 87/69/86 86/68/85
f 86/68/85 89/71/88 91/70/90
f 95/71/94 98/73/97 99/74/98
f 86/68/85 95/71/94 99/74/98
f 86/68/85 99/74/98 100/73/99
f 89/71/88 86/68/85 100/73/99
f 101/75/100 102/76/101 103/77/102
f 104/78/103 105/79/104 106/80/105
f 107/81/106 102/76/101 101/75/100
f 106/80/105 108/82/107 107/81/106
f 107/81/106 101/75/100 106/80/105
f 109/83/108 110/83/109 111/84/110
f 112/85/111 113/86/112 114/87/113
f 115/86/114 116/88/115 117/89/116
f 118/90/117 119/91/118 120/89/119
f 121/92/120 122/93/121 123/94/122
f 124/94/123 122/93/121 121/92/120
f 125/95/124 126/96/125 127/97/126
f 128/98/127 129/99/128 130/100/129
f 131/101/130 126/96/125 125/95/124
f 3/3/3 2/2/2 16/13/16
f 2/2/2 4/3/4 16/13/16
f 16/13/16 4/3/4 132/14/131
f 4/3/4 18/15/18 132/14/131
f 132/14/131 18/15/18 43/15/43
f 18/15/18 12/9/12 43/15/43
f 43/15/43 12/9/12 41/7/41
f 12/9/12 11/8/11 41/7/41
f 41/7/41 11/8/11 15/12/15
f 11/8/11 10/7/10 15/12/15
f 15/12/15 10/7/10 133/11/132
f 10/7/10 6/4/6 133/11/132
f 133/11/132 6/4/6 20/17/20
f 6/4/6 5/1/5 20/17/20
f 20/17/20 5/1/5 8/6/8
f 5/1/5 2/2/2 8/6/8
f 8/6/8 2/2/2 9/6/9
f 2/2/2 1/1/1 9/6/9
f 9/6/9 1/1/1 134/17/133
f 1/1/1 42/4/42 134/17/133
f 134/17/133 42/4/42 14/11/14
f 42/4/42 41/7/41 14/11/14
f 14/11/14 41/7/41 15/12/15
f 16/13/16 132/14/131 17/14/17
f 132/14/131 43/15/43 17/14/17
f 17/14/17 43/15/43 3/3/3
f 43/15/43 42/4/42 3/3/3
f 3/3/3 42/4/42 1/1/1
f 24/21/24 135/20/134 136/19/135
f 135/20/134 21/18/21 136/19/135
f 136/19/135 21/18/21 8/6/8
f 21/18/21 20/17/20 8/6/8
f 24/21/24 7/5/7 22/19/22
f 7/5/7 9/6/9 22/19/22
f 22/19/22 9/6/9 39/18/39
f 9/6/9 134/17/133 39/18/39
f 39/18/39 134/17/133 37/16/37
f 134/17/133 14/11/14 37/16/37
f 37/16/37 14/11/14 19/16/19
f 14/11/14 133/11/132 19/16/19
f 19/16/19 133/11/132 20/17/20
f 135/20/134 137/102/136 38/33/38
f 137/102/136 23/20/23 38/33/38
f 38/33/38 23/20/23 39/18/39
f 23/20/23 22/19/22 39/18/39
f 37/16/37 19/16/19 38/33/38
f 19/16/19 21/18/21 38/33/38
f 38/33/38 21/18/21 135/20/134
f 14/11/14 13/10/13 133/11/132
f 13/10/13 15/12/15 133/11/132
f 8/6/8 7/5/7 136/19/135
f 7/5/7 24/21/24 136/19/135
f 45/35/45 47/35/47 46/36/46
f 47/35/47 25/22/25 46/36/46
f 46/36/46 25/22/25 44/23/44
f 25/22/25 30/24/30 44/23/44
f 29/26/29 28/25/28 138/26/137
f 28/25/28 27/24/27 138/26/137
f 139/103/138 140/104/139 141/105/140
f 140/104/139 142/104/141 141/105/140
f 141/105/140 142/104/141 143/105/142
f 142/104/141 139/103/138 143/105/142
f 143/105/142 139/103/138 144/106/143
f 139/103/138 141/105/140 144/106/143
f 144/106/143 141/105/140 145/107/144
f 141/105/140 143/105/142 145/107/144
f 145/107/144 143/105/142 146/107/145
f 143/105/142 144/106/143 146/107/145
f 146/107/145 144/106/143 147/108/146
f 144/106/143 145/107/144 147/108/146
f 147/108/146 145/107/144 148/29/147
f 145/107/144 146/107/145 148/29/147
f 148/29/147 146/107/145 33/29/33
f 146/107/145 147/108/146 33/29/33
f 33/29/33 147/108/146 31/27/31
f 147/108/146 148/29/147 31/27/31
f 31/27/31 148/29/147 32/28/32
f 148/29/147 149/109/148 32/28/32
f 32/28/32 150/109/149 33/29/33
f 150/109/149 149/109/148 33/29/33
f 33/29/33 149/109/148 148/29/147
f 35/31/35 151/30/150 36/32/36
f 151/30/150 152/110/151 36/32/36
f 36/32/36 152/110/151 34/30/34
f 152/110/151 151/30/150 34/30/34
f 30/24/30 40/34/40 28/25/28
f 40/34/40 27/24/27 28/25/28
f 65/49/65 153/111/152 63/47/63
f 153/111/152 154/112/153 63/47/63
f 63/47/63 154/112/153 66/50/66
f 67/51/67 155/113/154 63/47/63
f 155/113/154 156/114/155 63/47/63
f 63/47/63 156/114/155 64/48/64
f 157/63/156 158/64/74 78/62/78
f 158/64/74 159/63/157 78/62/78
f 78/62/78 159/63/157 76/60/76
f 159/63/157 160/115/69 76/60/76
f 76/60/76 160/115/69 79/63/79
f 78/62/78 77/61/77 161/60/158
f 77/61/77 81/62/80 161/60/158
f 161/60/158 81/62/80 162/63/159
f 81/62/80 80/64/75 162/63/159
f 162/63/159 163/115/72 161/60/158
f 163/115/72 157/63/156 161/60/158
f 161/60/158 157/63/156 78/62/78
f 84/67/83 83/66/82 164/65/160
f 83/66/82 85/67/84 164/65/160
f 164/65/160 85/67/84 165/116/161
f 85/67/84 166/117/162 165/116/161
f 167/116/163 168/118/164 82/65/81
f 168/118/164 169/116/165 82/65/81
f 82/65/81 169/116/165 85/67/84
f 169/116/165 166/117/162 85/67/84
f 170/116/166 171/117/167 84/67/83
f 171/117/167 167/116/163 84/67/83
f 84/67/83 167/116/163 82/65/81
f 165/116/161 172/118/168 164/65/160
f 172/118/168 170/116/166 164/65/160
f 164/65/160 170/116/166 84/67/83
f 106/80/105 101/75/100 104/78/103
f 101/75/100 173/119/169 104/78/103
f 103/77/102 174/120/170 101/75/100
f 174/120/170 173/119/169 101/75/100
f 175/90/171 176/121/172 177/122/173
f 176/121/172 118/90/117 177/122/173
f 177/122/173 118/90/117 178/123/174
f 118/90/117 120/89/119 178/123/174
f 178/123/174 120/89/119 113/86/112
f 120/89/119 179/88/175 113/86/112
f 113/86/112 179/88/175 114/87/113
f 178/123/174 180/124/176 177/122/173
f 180/124/176 181/123/177 177/122/173
f 177/122/173 181/123/177 175/90/171
f 181/123/177 117/89/116 175/90/171
f 175/90/171 117/89/116 182/91/178
f 181/123/177 180/124/176 183/125/179
f 180/124/176 178/123/174 183/125/179
f 183/125/179 178/123/174 113/86/112
f 113/86/112 112/85/111 183/125/179
f 112/85/111 115/86/114 183/125/179
f 183/125/179 115/86/114 181/123/177
f 115/86/114 117/89/116 181/123/177
f 176/121/172 175/90/171 184/126/180
f 175/90/171 182/91/178 184/126/180
f 116/88/115 115/86/114 185/87/181
f 115/86/114 112/85/111 185/87/181
f 119/91/118 118/90/117 186/126/182
f 118/90/117 176/121/172 186/126/182
f 176/121/183 187/127/184 188/127/185
f 187/127/184 189/128/186 188/127/185
f 188/127/185 189/128/186 190/128/118
f 189/128/186 191/129/116 190/128/118
f 190/128/118 191/129/116 192/129/187
f 191/129/116 193/130/115 192/129/187
f 192/129/187 193/130/115 194/130/188
f 193/130/115 110/83/109 194/130/188
f 194/130/188 110/83/109 109/83/108
f 123/94/122 124/94/123 195/131/189
f 124/94/123 121/92/120 195/131/189
f 195/131/189 121/92/120 123/94/122
f 127/97/126 128/98/127 125/95/124
f 128/98/127 130/100/129 125/95/124
f 125/95/124 130/100/129 131/101/130
f 73/57/73 75/59/75 74/58/74
f 75/59/75 70/54/70 74/58/74
f 95/71/94 92/68/91 98/73/97
f 92/68/91 196/74/190 98/73/97
f 92/68/91 89/71/88 196/74/190
f 89/71/88 100/73/99 196/74/190
