# Blender 4.3.2
# www.blender.org
o Serwers_Flat_Straight_Var0
v 0.000000 5.498648 -6.773860
v 0.000000 5.498647 0.000000
v 0.000000 -0.770893 -0.000000
v 0.000000 -0.770893 -6.773861
v -0.979492 -0.770893 -6.773861
v -0.979492 -0.770893 -0.000000
v -1.157323 0.000000 0.000000
v -1.157323 0.000000 -6.773861
v -2.648009 0.000000 -6.773861
v -2.648009 0.000000 0.000000
v -3.302013 1.358054 -6.773861
v -3.302013 1.358054 0.000000
v -3.302013 2.865380 -6.773861
v -3.302013 2.865380 0.000000
v -2.648009 4.223434 -6.773861
v -2.648009 4.223433 0.000000
v -1.469534 5.163236 -6.773861
v -1.469534 5.163236 0.000000
v 0.979492 -0.770893 -6.773861
v 0.979492 -0.770893 -0.000000
v 1.157323 0.000000 0.000000
v 1.157323 0.000000 -6.773861
v 2.648009 0.000000 -6.773861
v 2.648009 0.000000 0.000000
v 3.302013 1.358054 -6.773861
v 3.302013 1.358054 0.000000
v 3.302013 2.865380 -6.773861
v 3.302013 2.865380 0.000000
v 2.648009 4.223434 -6.773861
v 2.648009 4.223433 0.000000
v 1.469534 5.163236 -6.773861
v 1.469534 5.163236 0.000000
vn -0.0000 1.0000 -0.0000
vn 0.9744 0.2248 -0.0000
vn 0.9010 0.4339 -0.0000
vn 0.9749 0.2225 -0.0000
vn 0.9749 -0.2225 -0.0000
vn 0.7818 -0.6235 -0.0000
vn 0.4339 -0.9010 -0.0000
vn -0.0000 -1.0000 -0.0000
vn -0.9744 0.2248 -0.0000
vn -0.9010 0.4339 -0.0000
vn -0.9749 0.2225 -0.0000
vn -0.9749 -0.2225 -0.0000
vn -0.7818 -0.6235 -0.0000
vn -0.4339 -0.9010 -0.0000
vt 0.315199 0.502282
vt 0.386839 0.502282
vt 0.386839 0.997718
vt 0.315199 0.997718
vt 0.697399 0.002282
vt 0.754455 0.002282
vt 0.754455 0.497718
vt 0.697399 0.497718
vt 0.463042 0.502282
vt 0.572070 0.502282
vt 0.572070 0.997718
vt 0.463042 0.997718
vt 0.692835 0.497718
vt 0.590841 0.497718
vt 0.590841 0.002282
vt 0.692835 0.002282
vt 0.480791 0.497718
vt 0.480791 0.002282
vt 0.384482 0.497718
vt 0.384482 0.002282
vt 0.379918 0.497718
vt 0.311181 0.497718
vt 0.311181 0.002282
vt 0.379918 0.002282
vt 0.211854 0.497718
vt 0.211854 0.002282
vt 0.458478 0.502282
vt 0.458478 0.997718
vt 0.754455 0.502282
vt 0.754455 0.997718
vt 0.697399 0.997718
vt 0.697399 0.502282
vt 0.685661 0.502282
vt 0.685661 0.997718
vt 0.576633 0.997718
vt 0.576633 0.502282
vt 0.002282 0.997718
vt 0.002282 0.502282
vt 0.104276 0.502282
vt 0.104276 0.997718
vt 0.214326 0.502282
vt 0.214326 0.997718
vt 0.310636 0.502282
vt 0.310636 0.997718
vt 0.002282 0.497718
vt 0.002282 0.002282
vt 0.101609 0.002282
vt 0.101609 0.497718
s 1
f 6/1/1 3/2/1 4/3/1 5/4/1
f 7/5/2 6/6/2 5/7/2 8/8/2
f 10/9/1 7/10/1 8/11/1 9/12/1
f 9/13/3 11/14/4 12/15/4 10/16/3
f 11/14/4 13/17/5 14/18/5 12/15/4
f 13/17/5 15/19/6 16/20/6 14/18/5
f 15/21/6 17/22/7 18/23/7 16/24/6
f 17/22/7 1/25/8 2/26/8 18/23/7
f 20/27/1 19/28/1 4/3/1 3/2/1
f 21/29/9 22/30/9 19/31/9 20/32/9
f 24/33/1 23/34/1 22/35/1 21/36/1
f 23/37/10 24/38/10 26/39/11 25/40/11
f 25/40/11 26/39/11 28/41/12 27/42/12
f 27/42/12 28/41/12 30/43/13 29/44/13
f 29/45/13 30/46/13 32/47/14 31/48/14
f 31/48/14 32/47/14 2/26/8 1/25/8
