# Blender 4.3.2
# www.blender.org
mtllib mesh-coffin.mtl
o Coffin
v 0.614481 0.661108 1.097750
v 0.680420 0.729230 0.445650
v 0.887868 0.328920 1.090750
v 1.033633 0.300197 0.436550
v 0.587716 0.685383 -1.077050
v 0.875810 0.335512 -1.084450
v 0.840187 0.181477 1.176950
v 0.514564 0.577007 1.185350
v 0.828377 0.186840 -1.194250
v 0.485436 0.603476 -1.185350
v 0.926003 0.074383 0.435350
v 0.783234 0.250130 1.036750
v 0.854198 0.161512 0.386450
v 0.771626 0.256185 -1.079850
v 0.486694 0.602443 -1.072450
v 0.512599 0.578882 1.043750
v 0.435110 0.515036 1.044050
v 0.776709 0.097666 0.386650
v 0.409173 0.538635 -1.072200
v 0.419555 0.531551 0.395900
v 0.705712 0.186321 1.037000
v 0.694181 0.192441 -1.079600
v 0.504951 0.585838 0.418997
v -0.614481 0.661108 1.097750
v -0.680420 0.729230 0.445650
v -0.887868 0.328921 1.090750
v -1.033633 0.300197 0.436550
v -0.587716 0.685383 -1.077050
v -0.875810 0.335512 -1.084450
v -0.840187 0.181477 1.176950
v -0.514564 0.577007 1.185350
v -0.828377 0.186840 -1.194250
v -0.485436 0.603476 -1.185350
v -0.926003 0.074383 0.435350
v -0.783234 0.250130 1.036750
v -0.854198 0.161512 0.386450
v -0.771626 0.256185 -1.079850
v -0.486694 0.602443 -1.072450
v -0.512599 0.578882 1.043750
v -0.435110 0.515036 1.044050
v -0.776709 0.097666 0.386650
v -0.409173 0.538635 -1.072200
v -0.419555 0.531551 0.395900
v -0.705712 0.186321 1.037000
v -0.694181 0.192441 -1.079600
v -0.504951 0.585838 0.418997
v 0.496550 -0.461809 1.114250
v 0.008750 -0.457109 1.169550
v 0.012750 0.067891 1.168550
v 0.500550 0.063191 1.113250
v 0.016750 0.492891 1.168250
v 0.504550 0.488191 1.112250
v -0.472550 0.497391 1.128250
v -0.476550 0.072391 1.129250
v -0.480550 -0.452609 1.130250
v 0.471250 -0.522209 -1.174450
v -0.024250 -0.517509 -1.166350
v -0.003650 -0.557809 0.471250
v 0.627950 -0.563709 0.460950
v -0.635150 -0.551809 0.481650
v -0.519750 -0.512909 -1.158150
v -0.025650 0.062692 -1.167150
v -0.520150 0.067291 -1.159050
v 0.474750 0.057991 -1.175350
v -0.016750 0.487592 -1.168250
v -0.512250 0.492291 -1.160150
v 0.478750 0.482991 -1.176350
v 0.632850 0.060391 0.459650
v 0.636850 0.485391 0.458650
v -0.630250 0.072291 0.480350
v -0.626350 0.497291 0.479350
v 0.539650 0.486291 0.460250
v 0.428350 0.488791 1.055150
v 0.014950 0.492591 1.061850
v -0.529050 0.496291 0.477750
v -0.434250 0.491791 -1.054950
v -0.021750 -0.199380 -1.060150
v -0.537150 -0.199380 0.479850
v -0.440950 -0.199380 -1.053250
v -0.004150 -0.199380 0.470850
v 0.007850 -0.199380 1.063750
v 0.532450 -0.199380 0.462050
v 0.421150 -0.199380 1.056950
v -0.405550 -0.199380 1.070450
v -0.398350 0.496491 1.068650
v 0.404250 0.483891 -1.068650
v 0.397050 -0.199380 -1.066850
v -0.014950 0.487891 -1.061850
vn 0.1168 0.8973 0.4257
vn 0.8342 0.2808 0.4746
vn 0.1288 0.9909 0.0398
vn 0.9929 0.1123 0.0406
vn 0.1330 0.9295 -0.3441
vn 0.8873 0.2660 -0.3768
vn 0.1392 -0.6651 0.7336
vn -0.6452 0.1680 0.7454
vn 0.1841 -0.6642 -0.7246
vn -0.6323 0.2064 -0.7468
vn 0.1594 -0.9868 0.0304
vn -0.4850 -0.7966 0.3609
vn -0.1403 -0.9896 0.0313
vn -0.5038 -0.7995 -0.3270
vn -0.8004 0.5251 -0.2894
vn -0.7926 0.5179 0.3220
vn 0.4245 -0.5186 -0.7422
vn -0.8086 0.1064 -0.5787
vn 0.4144 -0.5004 0.7602
vn -0.7939 0.0897 0.6014
vn 0.6353 -0.7710 0.0436
vn -0.7720 -0.6356 0.0024
vn -0.9914 0.1299 0.0148
vn -0.6116 0.7910 0.0182
vn -0.1168 0.8973 0.4257
vn -0.1288 0.9909 0.0398
vn -0.8342 0.2808 0.4746
vn -0.9929 0.1123 0.0406
vn -0.1330 0.9295 -0.3441
vn -0.8873 0.2660 -0.3768
vn -0.1392 -0.6651 0.7336
vn 0.6452 0.1680 0.7454
vn -0.1841 -0.6642 -0.7246
vn 0.6323 0.2064 -0.7468
vn -0.1594 -0.9868 0.0304
vn 0.4850 -0.7966 0.3609
vn 0.1403 -0.9896 0.0313
vn 0.5038 -0.7995 -0.3270
vn 0.8004 0.5251 -0.2894
vn 0.7926 0.5179 0.3220
vn -0.4245 -0.5186 -0.7422
vn 0.8086 0.1064 -0.5787
vn -0.4144 -0.5004 0.7602
vn 0.7939 0.0897 0.6014
vn -0.6353 -0.7710 0.0436
vn 0.9914 0.1299 0.0148
vn 0.7720 -0.6356 0.0024
vn 0.6116 0.7910 0.0182
vn 0.5460 -0.5432 0.6378
vn 0.0161 0.0014 0.9999
vn 0.0048 -0.6335 0.7737
vn 0.6756 -0.0044 0.7372
vn 0.0181 0.6871 0.7264
vn 0.5488 0.5919 0.5903
vn -0.5176 0.6021 0.6080
vn -0.6513 0.0072 0.7588
vn -0.5325 -0.5374 0.6540
vn 0.5387 -0.5783 -0.6126
vn -0.0098 -0.9981 0.0609
vn -0.0183 -0.6988 -0.7151
vn 0.7125 -0.6979 0.0728
vn -0.7217 -0.6855 0.0957
vn -0.5637 -0.5716 -0.5963
vn -0.0164 -0.0018 -0.9999
vn -0.6908 0.0042 -0.7230
vn 0.6659 -0.0067 -0.7460
vn -0.0049 0.7053 -0.7089
vn -0.5512 0.5881 -0.5919
vn 0.5472 0.5753 -0.6080
vn 0.9986 -0.0085 0.0517
vn 0.7428 0.6685 0.0365
vn -0.9966 0.0082 0.0821
vn -0.7287 0.6822 0.0593
vn 0.0090 1.0000 -0.0022
vn 0.0092 1.0000 -0.0024
vn 0.0094 1.0000 -0.0020
vn 0.0093 1.0000 -0.0029
vn 0.0097 0.9999 -0.0030
vn 0.0102 0.9999 -0.0024
vn 0.0095 1.0000 -0.0023
vn 0.0095 1.0000 -0.0029
vn 0.0115 0.7079 0.7063
vn 0.5651 0.5797 0.5870
vn 0.7378 0.6726 -0.0578
vn -0.0000 1.0000 -0.0000
vn -0.0115 0.7062 -0.7079
vn -0.7310 0.6815 -0.0355
vn -0.5182 0.5904 -0.6187
vn -0.6453 0.0047 -0.7639
vn -0.0163 -0.0025 -0.9999
vn 0.5035 0.5856 -0.6352
vn 0.6192 -0.0089 -0.7852
vn 0.6908 -0.0049 0.7231
vn 0.9969 -0.0116 -0.0775
vn -0.6693 0.0090 0.7429
vn 0.0163 0.0024 0.9999
vn -0.5414 0.5846 0.6043
vn -0.9988 0.0104 -0.0483
vt 0.772327 0.642879
vt 0.816498 0.643814
vt 0.767686 0.548309
vt 0.824734 0.549507
vt 0.789032 0.330171
vt 0.835552 0.331151
vt 0.493679 0.727560
vt 0.512589 0.715639
vt 0.512599 0.653659
vt 0.493679 0.653752
vt 0.185500 0.425248
vt 0.185500 0.347506
vt 0.166752 0.412920
vt 0.166764 0.347626
vt 0.837430 0.657680
vt 0.858445 0.551721
vt 0.858445 0.316855
vt 0.409955 0.975748
vt 0.395336 0.882720
vt 0.399723 0.996367
vt 0.382132 0.890316
vt 0.407286 0.671070
vt 0.396516 0.655049
vt 0.460104 0.669916
vt 0.460071 0.653659
vt 0.460104 0.974648
vt 0.460059 0.995040
vt 0.181203 0.578466
vt 0.181215 0.513864
vt 0.166755 0.578466
vt 0.166752 0.513864
vt 0.181215 0.718931
vt 0.181215 0.657585
vt 0.166752 0.718928
vt 0.166752 0.657590
vt 0.702161 0.308352
vt 0.713021 0.097608
vt 0.691088 0.308672
vt 0.701941 0.097936
vt 0.702172 0.003633
vt 0.691088 0.003954
vt 0.683822 0.003633
vt 0.617628 0.215992
vt 0.683822 0.214984
vt 0.681780 0.308365
vt 0.631631 0.309123
vt 0.631006 0.004434
vt 0.363030 0.367717
vt 0.351858 0.367464
vt 0.350802 0.457457
vt 0.363030 0.461102
vt 0.348280 0.672293
vt 0.359457 0.672554
vt 0.352064 0.347066
vt 0.337356 0.359298
vt 0.325597 0.452947
vt 0.333700 0.672568
vt 0.348072 0.688555
vt 0.682824 0.324426
vt 0.669183 0.418245
vt 0.727455 0.328753
vt 0.726823 0.423843
vt 0.669183 0.636966
vt 0.716187 0.641528
vt 0.185433 0.506598
vt 0.166752 0.432513
vt 0.166762 0.494478
vt 0.185433 0.432808
vt 0.467370 0.731382
vt 0.486414 0.719295
vt 0.467370 0.653659
vt 0.486402 0.654017
vt 0.749561 0.316855
vt 0.760421 0.424584
vt 0.737525 0.657831
vt 0.916362 0.638281
vt 0.926696 0.658744
vt 0.931127 0.544974
vt 0.944463 0.552361
vt 0.919058 0.333422
vt 0.929935 0.317220
vt 0.865711 0.333120
vt 0.865744 0.316855
vt 0.865711 0.637990
vt 0.865756 0.658390
vt 0.166752 0.650320
vt 0.181200 0.650317
vt 0.166752 0.585733
vt 0.181214 0.585731
vt 0.325597 0.757152
vt 0.340059 0.757154
vt 0.325597 0.695821
vt 0.340059 0.695830
vt 0.730918 0.308350
vt 0.742152 0.308665
vt 0.720286 0.097615
vt 0.731527 0.097938
vt 0.730907 0.003633
vt 0.742152 0.003948
vt 0.543740 0.003633
vt 0.543513 0.215102
vt 0.610363 0.215106
vt 0.545474 0.308505
vt 0.596120 0.308502
vt 0.597080 0.003633
vt 0.122135 0.368158
vt 0.122135 0.461543
vt 0.134341 0.457897
vt 0.133281 0.367904
vt 0.125720 0.672994
vt 0.136871 0.672733
vt 0.133074 0.347506
vt 0.147748 0.359737
vt 0.159487 0.453386
vt 0.151417 0.673008
vt 0.137080 0.688995
vt 0.525686 0.794496
vt 0.586932 0.724132
vt 0.525709 0.724132
vt 0.586910 0.794496
vt 0.648156 0.724131
vt 0.648134 0.794496
vt 0.648131 0.653720
vt 0.586907 0.653720
vt 0.525684 0.653720
vt 0.356008 0.339787
vt 0.283869 0.104649
vt 0.284618 0.339801
vt 0.374867 0.104627
vt 0.283856 0.003633
vt 0.354249 0.010432
vt 0.213472 0.010456
vt 0.192884 0.104656
vt 0.213228 0.339801
vt 0.308871 0.732342
vt 0.308878 0.660953
vt 0.254108 0.731628
vt 0.254114 0.660383
vt 0.308878 0.803731
vt 0.254108 0.803723
vt 0.192892 0.732337
vt 0.192884 0.660948
vt 0.192884 0.803726
vt 0.394987 0.316855
vt 0.457390 0.411362
vt 0.456015 0.316855
vt 0.382132 0.411353
vt 0.455194 0.646394
vt 0.400600 0.646394
vt 0.516222 0.646394
vt 0.518418 0.411362
vt 0.517043 0.316855
vt 0.527219 0.316855
vt 0.586689 0.411187
vt 0.588223 0.316855
vt 0.525684 0.411188
vt 0.588899 0.646455
vt 0.527937 0.646446
vt 0.643515 0.646430
vt 0.661918 0.411178
vt 0.649227 0.316855
vt 0.033531 0.324904
vt 0.017636 0.104376
vt 0.022547 0.340241
vt 0.003633 0.104377
vt 0.035070 0.018954
vt 0.024229 0.010550
vt 0.094627 0.018962
vt 0.094619 0.003633
vt 0.154170 0.018956
vt 0.164998 0.010546
vt 0.171601 0.104371
vt 0.185619 0.104370
vt 0.154332 0.324905
vt 0.165318 0.340241
vt 0.093924 0.324912
vt 0.093932 0.340241
vt 0.458330 0.309590
vt 0.518723 0.309590
vt 0.536247 0.089070
vt 0.459439 0.089057
vt 0.459118 0.003633
vt 0.382132 0.089053
vt 0.399575 0.003633
vt 0.779372 0.784203
vt 0.779365 0.724656
vt 0.669183 0.784216
vt 0.669191 0.724656
vt 0.779372 0.665096
vt 0.669183 0.665110
vt 0.318332 0.652814
vt 0.316936 0.431805
vt 0.214944 0.653117
vt 0.192884 0.432160
vt 0.318332 0.347066
vt 0.208496 0.347389
vt 0.113821 0.781682
vt 0.113828 0.721286
vt 0.003633 0.781682
vt 0.010093 0.721283
vt 0.113819 0.660876
vt 0.010099 0.660887
vt 0.003633 0.347506
vt 0.005076 0.432446
vt 0.113425 0.347804
vt 0.114869 0.432744
vt 0.003633 0.653313
vt 0.113425 0.653610
vt 0.398004 0.309583
vt 0.518676 0.003647
s 1
usemtl Bakegroup_BAKED
f 1/1/1 3/2/2 2/3/3
f 3/2/2 4/4/4 2/3/3
f 4/4/4 5/5/5 2/3/3
f 4/4/4 6/6/6 5/5/5
f 7/7/7 3/8/2 1/9/1
f 1/9/1 8/10/8 7/7/7
f 9/11/9 10/12/10 6/13/6
f 10/12/10 5/14/5 6/13/6
f 7/15/7 4/4/4 3/2/2
f 7/15/7 11/16/11 4/4/4
f 11/16/11 6/6/6 4/4/4
f 11/16/11 9/17/9 6/6/6
f 12/18/12 13/19/13 7/20/7
f 13/19/13 11/21/11 7/20/7
f 13/19/13 14/22/14 11/21/11
f 14/22/14 9/23/9 11/21/11
f 14/22/14 15/24/15 9/23/9
f 15/24/15 10/25/10 9/23/9
f 16/26/16 12/18/12 8/27/8
f 12/18/12 7/20/7 8/27/8
f 22/28/17 19/29/18 14/30/14
f 19/29/18 15/31/15 14/30/14
f 12/32/12 16/33/16 21/34/19
f 16/33/16 17/35/20 21/34/19
f 14/36/14 13/37/13 22/38/17
f 13/37/13 18/39/21 22/38/17
f 13/37/13 12/40/12 18/39/21
f 12/40/12 21/41/19 18/39/21
f 19/42/18 18/43/22 20/44/23
f 18/43/22 17/45/20 20/44/23
f 18/43/22 21/46/22 17/45/20
f 22/47/22 18/43/22 19/42/18
f 17/48/20 16/49/16 23/50/24 20/51/23
f 20/51/23 23/50/24 15/52/15 19/53/18
f 8/54/8 1/55/1 16/49/16
f 1/55/1 2/56/3 23/50/24 16/49/16
f 2/56/3 5/57/5 15/52/15 23/50/24
f 5/57/5 10/58/10 15/52/15
f 24/59/25 25/60/26 26/61/27
f 26/61/27 25/60/26 27/62/28
f 27/62/28 25/60/26 28/63/29
f 27/62/28 28/63/29 29/64/30
f 30/65/31 24/66/25 26/67/27
f 24/66/25 30/65/31 31/68/32
f 32/69/33 29/70/30 33/71/34
f 33/71/34 29/70/30 28/72/29
f 30/73/31 26/61/27 27/62/28
f 30/73/31 27/62/28 34/74/35
f 34/74/35 27/62/28 29/64/30
f 34/74/35 29/64/30 32/75/33
f 35/76/36 30/77/31 36/78/37
f 36/78/37 30/77/31 34/79/35
f 36/78/37 34/79/35 37/80/38
f 37/80/38 34/79/35 32/81/33
f 37/80/38 32/81/33 38/82/39
f 38/82/39 32/81/33 33/83/34
f 39/84/40 31/85/32 35/76/36
f 35/76/36 31/85/32 30/77/31
f 45/86/41 37/87/38 42/88/42
f 42/88/42 37/87/38 38/89/39
f 35/90/36 44/91/43 39/92/40
f 39/92/40 44/91/43 40/93/44
f 37/94/38 45/95/41 36/96/37
f 36/96/37 45/95/41 41/97/45
f 36/96/37 41/97/45 35/98/36
f 35/98/36 41/97/45 44/99/43
f 42/100/42 43/101/46 41/102/47
f 41/102/47 43/101/46 40/103/44
f 41/102/47 40/103/44 44/104/47
f 45/105/47 42/100/42 41/102/47
f 40/106/44 43/107/46 46/108/48 39/109/40
f 43/107/46 42/110/42 38/111/39 46/108/48
f 31/112/32 39/109/40 24/113/25
f 24/113/25 39/109/40 46/108/48 25/114/26
f 25/114/26 46/108/48 38/111/39 28/115/29
f 28/115/29 38/111/39 33/116/34
f 47/117/49 49/118/50 48/119/51
f 47/117/49 50/120/52 49/118/50
f 50/120/52 51/121/53 49/118/50
f 50/120/52 52/122/54 51/121/53
f 53/123/55 49/118/50 51/121/53
f 53/123/55 54/124/56 49/118/50
f 49/118/50 54/124/56 48/119/51
f 54/124/56 55/125/57 48/119/51
f 56/126/58 58/127/59 57/128/60
f 56/126/58 59/129/61 58/127/59
f 58/127/59 59/129/61 48/130/51
f 48/130/51 59/129/61 47/131/49
f 55/132/57 58/127/59 48/130/51
f 55/132/57 60/133/62 58/127/59
f 60/133/62 57/128/60 58/127/59
f 60/133/62 61/134/63 57/128/60
f 57/135/60 61/136/63 62/137/64
f 61/136/63 63/138/65 62/137/64
f 56/139/58 57/135/60 64/140/66
f 57/135/60 62/137/64 64/140/66
f 62/137/64 63/138/65 65/141/67
f 63/138/65 66/142/68 65/141/67
f 64/140/66 62/137/64 67/143/69
f 62/137/64 65/141/67 67/143/69
f 47/144/49 68/145/70 50/146/52
f 47/144/49 59/147/61 68/145/70
f 59/147/61 64/148/66 68/145/70
f 59/147/61 56/149/58 64/148/66
f 67/150/69 68/145/70 64/148/66
f 67/150/69 69/151/71 68/145/70
f 69/151/71 50/146/52 68/145/70
f 69/151/71 52/152/54 50/146/52
f 53/153/55 70/154/72 54/155/56
f 53/153/55 71/156/73 70/154/72
f 71/156/73 63/157/65 70/154/72
f 71/156/73 66/158/68 63/157/65
f 61/159/63 70/154/72 63/157/65
f 61/159/63 60/160/62 70/154/72
f 60/160/62 54/155/56 70/154/72
f 60/160/62 55/161/57 54/155/56
f 86/162/74 72/163/75 67/164/69
f 72/163/75 69/165/71 67/164/69
f 72/163/75 73/166/76 69/165/71
f 73/166/76 52/167/54 69/165/71
f 73/166/76 74/168/77 52/167/54
f 74/168/77 51/169/53 52/167/54
f 74/168/77 85/170/78 51/169/53
f 85/170/78 53/171/55 51/169/53
f 85/170/78 75/172/79 53/171/55
f 75/172/79 71/173/73 53/171/55
f 75/172/79 76/174/80 71/173/73
f 76/174/80 66/175/68 71/173/73
f 76/174/80 88/176/81 66/175/68
f 88/176/81 65/177/67 66/175/68
f 88/176/81 86/162/74 65/177/67
f 86/162/74 67/164/69 65/177/67
f 77/178/82 79/179/83 78/180/84
f 78/180/84 80/181/85 77/178/82
f 78/180/84 81/182/86 80/181/85
f 81/182/86 82/183/87 80/181/85
f 81/182/86 83/184/88 82/183/87
f 83/185/88 81/186/86 73/187/89
f 81/186/86 74/188/90 73/187/89
f 81/186/86 84/189/91 74/188/90
f 84/189/91 85/190/92 74/188/90
f 76/191/93 75/192/94 79/193/83
f 79/193/83 75/192/94 78/194/84
f 75/192/94 85/195/92 78/194/84
f 85/195/92 84/196/91 78/194/84
f 86/197/95 88/198/96 87/199/97
f 87/199/97 88/198/96 77/200/82
f 88/198/96 76/201/93 77/200/82
f 76/201/93 79/202/83 77/200/82
f 73/203/89 72/204/98 83/205/88
f 72/204/98 82/206/87 83/205/88
f 72/204/98 86/207/95 82/206/87
f 86/207/95 87/208/97 82/206/87
f 82/183/87 87/209/97 77/178/82
f 77/178/82 80/181/85 82/183/87
f 78/180/84 84/210/91 81/182/86
