# Blender 4.3.2
# www.blender.org
o mesh-rat
v 2.526000 2.752518 10.413379
v 2.503500 -1.149266 11.733028
v 0.202000 1.008597 12.703738
v 0.210000 0.887203 12.717609
v 0.249500 0.265472 12.789870
v -2.770500 2.780147 10.333238
v -2.793000 -1.122134 11.652848
v -0.492000 1.012132 12.676927
v -0.501000 0.891236 12.690839
v -0.546000 0.270079 12.762139
v -2.771000 2.779748 10.351761
v -0.492500 1.011732 12.695450
v -2.793500 -1.122036 11.671409
v -0.501000 0.890837 12.709361
v -0.546000 0.269679 12.780662
v -1.648000 0.761511 8.093418
v -1.503500 -0.549987 8.361654
v -1.488000 0.982806 9.627507
v -1.291000 -0.278093 9.975794
v -1.150000 0.933849 10.379958
v -0.879500 1.635793 10.394002
v -1.075000 1.918808 9.722455
v -0.130500 -0.896101 9.793608
v -0.121000 -1.215912 8.388448
v -0.149500 -0.157408 12.778909
v -0.546000 0.269679 12.780662
v 1.031500 -0.289641 10.002497
v 0.249500 0.265472 12.789870
v 0.174000 0.912216 12.983257
v 0.892500 0.923486 10.404244
v 1.265500 -0.564445 8.393655
v 1.241500 0.968884 9.659047
v 1.422500 0.745754 8.129332
v -0.150500 0.687762 13.272134
v -0.998000 -0.630554 6.657707
v -0.107500 -0.979164 6.573143
v 1.079000 0.474947 6.752452
v 0.784000 -0.639543 6.677083
v 2.139500 0.462574 4.445934
v 1.854500 -0.990498 4.431673
v 0.978500 1.246903 6.788846
v 1.606500 1.866898 4.421904
v 2.387000 1.083247 3.195731
v 2.524500 -0.714179 3.643287
v 2.577500 -0.560708 2.292018
v 2.012000 1.092434 1.829524
v 1.760500 2.061357 3.065716
v 2.227000 -2.922136 3.049371
v 2.143000 -2.718034 2.029371
v 1.990500 0.026893 1.703707
v 1.619000 -0.997152 1.645717
v 1.313000 -2.727855 2.026622
v 1.085000 -1.667971 1.909317
v 1.642500 -1.054367 1.421256
v 0.980000 -1.748685 1.723692
v 1.502000 -3.124267 2.182634
v 2.108000 -3.076337 2.145648
v 2.236500 -3.134727 2.929978
v 0.977500 -2.190636 -0.518580
v -0.071000 -2.077212 1.307698
v 1.999000 -3.750257 2.542895
v 1.573000 -3.749879 2.537910
v 2.156500 -3.788826 3.065475
v -0.061000 -2.566681 -0.552070
v 1.605500 1.958709 0.660097
v 1.817000 -3.199082 3.342797
v 1.799000 -3.056047 3.533141
v 1.270500 -2.933445 3.019933
v 0.990500 -2.030771 3.594734
v 1.312500 -3.151724 2.922674
v 1.405500 -3.778795 3.052194
v 1.793000 -3.822306 3.514228
v 0.913000 -2.005046 3.685436
v -0.091000 -2.238418 4.052361
v -1.085500 -1.995868 3.663566
v -1.125000 -1.728895 1.694103
v -1.224500 -1.653996 1.890318
v -1.154000 -2.020445 3.570946
v -2.029000 -0.972217 4.388932
v -1.964500 -3.037231 3.489938
v -2.683500 -0.687521 3.582627
v -2.310000 0.486134 4.393062
v -1.425000 -2.920098 2.989354
v -2.380000 -2.898538 2.996001
v -1.969500 -3.181037 3.296528
v -2.381000 -3.111130 2.876607
v -2.307500 -3.766339 3.013525
v -1.950500 -3.802954 3.470564
v -2.240500 -3.054998 2.095617
v -2.272000 -2.697693 1.979264
v -1.636000 -3.109008 2.146684
v -1.453500 -2.716003 1.995929
v -2.142000 -3.729069 2.494858
v -1.716000 -3.732936 2.499579
v -1.556000 -3.763612 3.017241
v -1.457000 -3.137765 2.890636
v -1.286500 0.490100 6.724517
v -1.181000 1.260409 6.762792
v -1.594500 1.605586 7.892581
v -1.624000 1.631034 8.331253
v -1.469000 1.901142 8.604931
v -1.254500 2.233488 8.718851
v -0.778000 1.969808 6.757843
v -1.768000 1.884641 4.379622
v -1.200000 2.751777 4.351017
v -0.077500 3.047453 4.359869
v -1.206500 3.031055 2.795164
v -0.065500 3.332169 2.798409
v 1.073000 3.020352 2.823937
v 1.044000 2.740115 4.379217
v -0.098000 2.177878 6.751536
v 0.580500 1.960971 6.775225
v -1.165500 2.173071 8.285050
v -1.319000 1.972321 7.837114
v -2.539500 1.112895 3.102202
v -1.903500 2.078828 3.020405
v -2.144500 1.101195 1.746950
v -2.717000 -0.533477 2.230398
v -2.127500 0.041742 1.646666
v -1.714000 1.968476 0.617212
v -1.753500 -0.986154 1.606436
v -1.781500 -1.035505 1.384074
v -1.097500 -2.181881 -0.541484
v -2.034000 -1.264394 -0.440417
v -2.109000 0.602202 -0.026792
v -2.109500 -1.577473 -1.570283
v -1.086000 -2.370409 -2.607618
v -0.044000 -2.613093 -2.879218
v 0.997000 -2.414999 -2.568373
v 2.009000 -1.598086 -1.523205
v 1.919000 -1.282288 -0.396142
v 0.625000 -1.871537 -4.990752
v -0.678000 -1.864844 -5.006291
v -0.020500 -1.785007 -5.782479
v -0.841000 -1.884977 -4.813261
v -1.203500 -2.354241 -2.781393
v -2.125000 -1.612532 -1.835688
v -2.106500 -2.070976 -2.277566
v -2.645000 0.635297 -2.377504
v -2.821000 -1.610725 -3.150806
v -3.173000 -1.034351 -4.696698
v -2.096500 -3.129120 -3.275815
v -1.322000 -2.645670 -4.375951
v -2.593500 -2.427417 -4.397532
v -2.243000 -2.354031 -5.856657
v -2.928000 0.925714 -4.497628
v -2.177000 2.385725 -4.773673
v -2.085000 0.709569 -6.311627
v -1.313500 2.051281 -6.872919
v -2.436500 -0.834008 -6.070994
v -1.442500 -0.840626 -6.798069
v -1.203500 3.127038 -5.319254
v -0.331500 0.289023 -8.902780
v -0.443500 -0.290595 -8.856915
v 0.003500 2.394372 -7.205462
v 0.009500 0.437062 -8.891068
v 0.349500 0.285926 -8.894991
v -2.214000 2.562427 -2.816242
v 0.004500 -0.853170 -8.797726
v -0.791500 -1.303918 -6.288598
v 1.313500 2.042428 -6.868575
v -1.085500 2.749561 0.559526
v -1.237500 3.432908 -2.869164
v -0.027500 3.751694 -2.291444
v -0.051000 2.903060 0.552095
v -0.015000 3.865738 -3.936528
v 0.982500 2.742038 0.586033
v 1.188500 3.425121 -2.839166
v -0.004500 3.476906 -5.562531
v 1.188000 3.114914 -5.291591
v 2.148500 2.363850 -4.723180
v 2.068000 0.688344 -6.263092
v 2.886000 0.895998 -4.429677
v 3.125000 -1.066476 -4.623415
v 2.570000 0.608640 -2.316844
v 2.745000 -1.639216 -3.085772
v 2.158500 2.640697 -2.750645
v 2.000500 0.604690 -0.000028
v 2.027500 -1.633758 -1.787152
v 2.537500 -2.453500 -4.337831
v 2.207000 -2.377054 -5.804245
v 2.407000 -0.855452 -6.012947
v 1.422500 -0.854736 -6.764038
v 0.457000 -0.295414 -8.846249
v 1.308000 -2.456411 -5.815771
v 2.140000 -3.109231 -5.379318
v 1.592500 -3.253957 -5.057327
v 1.258000 -2.659440 -4.346406
v 1.497000 -3.374945 -4.638266
v 2.014500 -3.150308 -3.227778
v 2.366500 -3.377468 -4.631437
v 1.956500 -3.490620 -4.137071
v 1.115500 -2.364914 -2.759637
v 2.012500 -2.092163 -2.229529
v 0.760500 -1.312333 -6.270180
v 0.915500 -1.266281 -6.209530
v 0.785000 -1.892931 -4.794307
v 2.316500 -5.520740 4.747001
v 2.313000 -5.626189 5.172753
v 2.301000 -5.669799 4.715656
v 2.192500 -5.070879 3.779206
v 2.006500 -5.407986 3.628822
v 2.297500 -5.753537 5.146062
v 1.733000 -5.679905 5.438456
v 1.747500 -5.810706 5.411001
v 1.129500 -5.725429 5.145684
v 1.111500 -5.617298 5.167912
v 1.228000 -5.637651 4.628836
v 1.209500 -5.455989 4.666661
v 1.737500 -5.210407 4.827162
v 1.356000 -5.053704 3.903358
v 1.541500 -5.407571 3.623338
v 1.741500 -4.870599 4.186993
v 1.387500 -4.872006 3.649352
v 1.551000 -4.948853 3.200769
v 2.009000 -4.949458 3.208746
v 2.167500 -4.883759 3.665511
v 1.742000 -4.812715 4.071534
v -1.915500 -4.851820 4.144289
v -1.923500 -5.191629 4.784458
v -1.395000 -5.440375 4.639262
v -1.527500 -5.039096 3.869363
v -1.914500 -4.798084 4.024003
v -1.554000 -4.856861 3.614897
v -2.362000 -5.047818 3.726296
v -2.334000 -4.860736 3.613100
v -1.711500 -5.390666 3.585506
v -1.711500 -4.932409 3.162401
v -1.413500 -5.621963 4.600439
v -1.305000 -5.613470 5.130594
v -1.323000 -5.721524 5.107369
v -1.930500 -5.661127 5.395752
v -1.945500 -5.791890 5.367798
v -2.488000 -5.644978 4.659369
v -2.506500 -5.601368 5.116468
v -2.503000 -5.495919 4.690714
v -2.176500 -5.386224 3.579826
v -2.169500 -4.928194 3.159712
v -2.491500 -5.729215 5.089737
v -2.069000 -5.123831 -2.428013
v -2.812000 -4.982630 -3.842389
v -1.323500 -5.002897 -3.826373
v -1.052000 -5.085845 -2.764104
v -2.342000 -4.834858 -5.760707
v -1.676000 -4.846431 -5.753560
v -1.048000 -4.914047 -2.701954
v -2.077000 -4.942100 -2.364609
v -2.938000 -5.078163 -2.786087
v -3.035500 -4.904333 -2.724285
v -2.068000 -4.311951 -3.773049
v -1.152000 -4.717170 -3.798719
v -2.895500 -4.684212 -3.816782
v -2.050500 -4.227139 -4.846710
v -2.474500 -4.580012 -5.259031
v -2.386000 -4.256258 -5.501779
v -2.177500 -4.336712 -5.823272
v -1.675000 -4.337165 -5.817289
v -1.591000 -4.585783 -5.242420
v -2.178500 -3.086857 -5.429773
v -1.589000 -4.259007 -5.491958
v -2.049500 -4.146329 -5.000046
v -1.638500 -3.237550 -5.095196
v -1.549000 -3.357730 -4.673567
v -2.019000 -3.470542 -4.183688
v -2.417500 -3.353183 -4.687263
v 0.265500 1.309030 -43.847019
v 0.294000 1.125189 -47.901978
v 0.202000 1.061963 -47.861637
v 0.061500 1.185469 -43.784672
v 0.224500 1.808094 -37.988613
v -0.102000 1.585922 -37.908657
v 0.467500 1.183595 -43.779793
v 0.548500 1.582863 -37.901371
v 0.263500 1.012166 -43.694496
v 0.221500 1.255396 -37.781754
v -0.370000 -1.062321 -12.756821
v 0.030000 -1.551680 -12.624896
v 0.435000 -1.066566 -12.747113
v 0.293000 0.993871 -47.816650
v 0.385500 1.060814 -47.859718
v 0.333000 1.296648 -53.179096
v 0.034000 -0.731166 -12.839051
v -1.345500 -2.443026 -5.846849
v -0.947000 -1.256605 -6.231361
v 1.977500 -5.144482 -2.380436
v 2.852000 -5.107879 -2.718137
v 1.985500 -4.963250 -2.317071
v 2.949500 -4.935197 -2.654416
v 2.827000 -4.713852 -3.749829
v 2.001500 -4.332603 -3.725472
v 0.962500 -4.924335 -2.678665
v 2.741500 -5.010586 -3.777815
v 1.253500 -5.016207 -3.796292
v 0.965500 -5.096170 -2.740316
v 1.083500 -4.728682 -3.772514
v 2.000000 -4.248288 -4.799171
v 1.544000 -4.601615 -5.205510
v 2.300500 -4.858531 -5.706339
v 1.634500 -4.863411 -5.714732
v 2.427500 -4.604908 -5.201748
v 2.140500 -4.359086 -5.772816
v 1.638000 -4.354146 -5.778460
v 1.548000 -4.274839 -5.455048
v 2.001500 -4.166981 -4.952469
v 2.345000 -4.280505 -5.446451
v -0.109000 2.507155 8.409131
v 0.947000 2.162171 8.309798
v 1.030000 2.221939 8.745555
v -0.119500 2.253215 9.762822
v 0.833500 1.909132 9.744287
v 0.627000 1.627953 10.411460
v -0.125500 1.931129 10.407341
v 1.243500 1.887219 8.636470
v -0.469000 0.915276 12.975967
v -0.147500 1.073695 13.075715
v 1.401000 1.615815 8.366706
v 1.378000 1.590403 7.927534
v 1.105500 1.960160 7.865276
v 0.210000 0.887565 12.699587
v 0.202500 1.008498 12.685178
v 2.503500 -1.148867 11.714506
v 0.250000 0.265872 12.771348
v 2.526000 2.752918 10.394856
v 1.884000 2.783868 7.661892
v 2.221000 2.748212 7.410984
v 2.122500 3.209320 7.513093
v 1.717000 3.207224 7.944667
v 1.300000 2.883039 8.371907
v 1.348000 2.040080 8.253418
v 1.791500 1.651912 8.055543
v 2.181500 1.901371 7.767558
v -2.009500 1.671341 8.010882
v -1.566500 2.055187 8.219461
v -2.394000 1.924968 7.714187
v -2.089000 2.804445 7.615314
v -1.515000 2.897573 8.338910
v -1.923500 3.226003 7.901963
v -2.422500 2.771885 7.356616
v -2.322500 3.231805 7.461143
v -1.925500 2.656593 7.568015
v 1.720000 2.638314 7.610755
vn -0.5718 -0.2599 -0.7781
vn -0.4872 -0.1313 -0.8634
vn -0.4869 -0.1307 -0.8636
vn -0.5852 0.2628 0.7671
vn -0.5052 0.1357 0.8523
vn -0.5044 0.1344 0.8529
vn 0.5851 -0.2628 -0.7671
vn 0.5037 -0.1336 -0.8535
vn 0.5043 -0.1344 -0.8530
vn -0.9896 -0.0854 0.1155
vn -0.9825 -0.1125 0.1483
vn -0.9125 -0.0299 0.4080
vn -0.8557 0.3217 0.4053
vn -0.8559 0.3379 0.3916
vn -0.4348 -0.8769 0.2050
vn -0.4285 -0.8816 0.1978
vn -0.4328 -0.8757 0.2139
vn -0.6958 -0.6473 0.3112
vn 0.4198 -0.8804 0.2205
vn 0.6844 -0.6541 0.3223
vn 0.9640 0.0337 0.2637
vn 0.9631 0.0215 0.2684
vn 0.4220 -0.8815 0.2119
vn 0.4156 -0.8862 0.2045
vn 0.9795 -0.1190 0.1628
vn 0.9872 -0.0920 0.1302
vn 0.9059 -0.0360 0.4221
vn -0.4749 -0.4440 0.7598
vn -0.4310 -0.8983 -0.0854
vn -0.3719 -0.9201 -0.1228
vn 0.9649 -0.1579 -0.2097
vn 0.9393 -0.2315 -0.2533
vn 0.8769 -0.2595 0.4046
vn 0.8775 -0.1765 0.4459
vn 0.9044 0.0982 0.4153
vn 0.8828 0.3406 0.3234
vn 0.8767 0.3386 0.3417
vn 0.7791 -0.1588 0.6065
vn 0.9565 0.1373 0.2575
vn 0.9949 0.0883 0.0491
vn 0.9345 0.2484 -0.2548
vn 0.8337 0.5041 -0.2255
vn 0.9899 -0.1396 0.0230
vn 0.9763 -0.1824 -0.1169
vn 0.7379 0.0644 -0.6719
vn 0.6040 -0.1751 -0.7775
vn 0.0058 -0.2159 -0.9764
vn -0.2653 -0.1623 -0.9504
vn 0.8035 -0.5513 0.2247
vn 0.7010 -0.7076 -0.0889
vn 0.5630 -0.0128 -0.8263
vn 0.0074 -0.3632 -0.9317
vn -0.0339 -0.3055 -0.9516
vn 0.9855 -0.1311 -0.1074
vn 0.9801 0.1286 -0.1510
vn 0.7448 -0.6548 0.1282
vn 0.2244 -0.9562 0.1882
vn 0.9505 -0.2568 -0.1748
vn -0.0126 -0.5063 -0.8623
vn 0.0097 -0.4930 -0.8700
vn 0.9388 -0.1761 -0.2960
vn 0.9206 -0.3444 0.1842
vn 0.3234 -0.9147 0.2425
vn 0.9378 0.3390 -0.0749
vn 0.6870 -0.3323 0.6463
vn 0.6998 -0.5377 0.4703
vn -0.5909 -0.6708 0.4482
vn -0.6467 -0.5422 0.5365
vn -0.3900 -0.3585 0.8482
vn -0.6041 -0.4184 0.6782
vn -0.6350 0.0648 0.7698
vn -0.7404 0.2046 0.6402
vn -0.9654 -0.0744 -0.2500
vn -0.8729 -0.4691 -0.1344
vn 0.3817 -0.7508 0.5391
vn 0.5284 -0.7635 0.3713
vn 0.3442 -0.8484 0.4021
vn -0.5184 -0.8296 -0.2076
vn 0.6842 -0.7257 -0.0715
vn 0.2770 -0.8589 0.4309
vn -0.9661 -0.2415 -0.0913
vn -0.9702 -0.2200 -0.1017
vn 0.7785 -0.2679 0.5677
vn 0.3362 -0.9353 -0.1107
vn 0.2066 -0.9768 -0.0559
vn -0.2148 -0.9749 -0.0588
vn -0.3506 -0.9290 -0.1189
vn -0.6980 -0.7113 -0.0824
vn 0.5581 -0.8055 -0.1990
vn -0.4211 -0.7498 0.5104
vn 0.3679 -0.3615 0.8567
vn -0.7924 -0.2641 0.5499
vn -0.7931 -0.1545 0.5892
vn 0.6303 -0.5464 0.5515
vn -0.7737 -0.2595 0.5780
vn -0.7044 -0.5607 0.4351
vn 0.5836 -0.6588 0.4748
vn -0.6979 -0.3482 0.6259
vn -0.7069 0.0678 0.7040
vn -0.7735 0.1488 0.6161
vn -0.9805 0.0997 -0.1692
vn -0.9831 -0.1290 -0.1299
vn 0.0531 -0.3050 -0.9509
vn 0.0109 -0.3625 -0.9319
vn 0.0276 -0.5064 -0.8618
vn 0.0052 -0.4928 -0.8701
vn 0.7295 0.2049 0.6526
vn 0.6165 0.0613 0.7850
vn 0.5886 -0.4041 0.7002
vn 0.9713 -0.0362 -0.2351
vn 0.8824 -0.4553 -0.1189
vn 0.9673 -0.2414 -0.0773
vn 0.9719 -0.2184 -0.0884
vn -0.9495 -0.2506 -0.1888
vn -0.9352 -0.1698 -0.3106
vn -0.8868 -0.1721 0.4289
vn -0.8861 -0.2513 0.3894
vn -0.9107 0.1049 0.3996
vn -0.9494 0.1439 -0.2792
vn -0.9409 -0.0208 -0.3380
vn -0.9965 0.0466 -0.0697
vn -0.9946 -0.0010 0.1039
vn -0.8822 0.3583 0.3054
vn -0.9269 0.2876 0.2411
vn -0.8462 0.4463 0.2913
vn -0.8213 0.4688 0.3251
vn -0.7905 0.5281 0.3102
vn -0.2522 0.9523 0.1720
vn -0.2518 0.9524 0.1717
vn 0.2564 0.9505 0.1753
vn 0.2573 0.9502 0.1760
vn 0.2438 0.9108 0.3332
vn 0.2749 0.8975 0.3450
vn -0.4546 0.8605 -0.2299
vn -0.8811 0.3446 0.3240
vn -0.8858 0.3463 0.3089
vn -0.8233 0.5446 0.1599
vn -0.8194 0.5189 -0.2433
vn -0.9302 0.2450 -0.2732
vn -0.7283 0.0530 -0.6832
vn -0.9337 0.3468 -0.0895
vn -0.5941 -0.1855 -0.7827
vn -0.9199 -0.3422 0.1918
vn -0.8081 -0.5454 0.2228
vn -0.7035 -0.7052 -0.0876
vn -0.7475 -0.6527 0.1231
vn -0.6778 -0.7120 0.1831
vn -0.9991 -0.0351 -0.0228
vn -0.9398 0.3235 -0.1098
vn -0.9998 -0.0145 -0.0159
vn -0.6660 -0.7062 0.2402
vn -0.9253 -0.3388 0.1706
vn -0.5487 -0.0158 -0.8358
vn -0.9608 0.1406 0.2391
vn -0.9730 -0.1839 -0.1397
vn -0.9904 -0.1383 0.0088
vn 0.3036 -0.1589 -0.9395
vn 0.0150 -0.2172 -0.9760
vn -0.9954 0.0889 0.0348
vn -0.5643 -0.8224 0.0719
vn -0.2447 -0.9509 0.1897
vn -0.3461 -0.9345 0.0833
vn -0.2224 -0.9748 0.0178
vn 0.1809 -0.9833 0.0209
vn 0.3356 -0.9361 0.1057
vn -0.3359 -0.9113 0.2380
vn 0.5639 -0.8203 0.0952
vn 0.6548 -0.7126 0.2520
vn 0.6684 -0.7186 0.1918
vn 0.9208 -0.3442 0.1833
vn 0.2522 -0.9352 -0.2485
vn -0.2797 -0.9287 -0.2433
vn 0.2014 -0.9424 -0.2672
vn -0.2045 -0.9409 -0.2700
vn -0.1518 -0.9616 -0.2285
vn 0.1562 -0.9681 -0.1957
vn -0.4569 -0.8596 0.2290
vn -0.5124 -0.8469 0.1418
vn 0.1842 -0.6782 0.7114
vn -0.8802 -0.0914 0.4657
vn -0.7952 -0.4371 0.4202
vn -0.9750 -0.0000 0.2220
vn -0.9751 -0.2053 0.0841
vn 0.1880 -0.6730 0.7153
vn 0.6215 -0.7775 0.0959
vn -0.7988 -0.4168 0.4339
vn -0.8918 -0.4356 0.1226
vn -0.8794 -0.4157 -0.2321
vn -0.9263 -0.3696 0.0731
vn -0.9834 0.1081 0.1461
vn 0.8529 -0.5210 0.0318
vn -0.8337 0.3478 -0.4289
vn -0.8559 0.3233 -0.4036
vn -0.8817 0.1301 -0.4535
vn -0.5903 0.0086 -0.8071
vn -0.6858 0.6202 -0.3809
vn -0.7919 0.2165 -0.5710
vn -0.8144 0.1123 -0.5693
vn -0.3401 0.6224 -0.7049
vn -0.2490 0.6316 -0.7343
vn -0.8572 -0.2074 -0.4713
vn -0.8887 0.1549 -0.4315
vn 0.2710 0.6286 -0.7290
vn -0.8922 0.4481 -0.0573
vn -0.9546 0.2503 0.1617
vn -0.6629 -0.5779 -0.4760
vn -0.3990 -0.8721 -0.2832
vn 0.3475 0.6204 -0.7031
vn -0.9499 0.2539 0.1823
vn -0.7526 0.6216 0.2171
vn -0.6497 0.7395 0.1762
vn -0.9597 0.1732 0.2213
vn -0.9638 -0.1539 0.2176
vn -0.9949 -0.0583 0.0826
vn -0.3372 0.9203 0.1984
vn -0.1388 0.9493 0.2822
vn -0.2828 0.9570 0.0642
vn -0.6657 0.7420 -0.0796
vn 0.1385 0.9487 0.2843
vn 0.3384 0.9187 0.2036
vn -0.1455 0.9716 -0.1865
vn -0.2525 0.9582 -0.1343
vn -0.6388 0.7623 -0.1040
vn -0.3348 0.7856 -0.5203
vn -0.3358 0.7858 -0.5194
vn 0.3435 0.7850 -0.5156
vn 0.3538 0.7863 -0.5066
vn 0.6978 0.6169 -0.3640
vn 0.8687 0.3120 -0.3848
vn 0.8436 0.3409 -0.4150
vn 0.8964 0.1503 -0.4170
vn 0.9815 0.1037 0.1609
vn 0.9713 -0.0058 0.2379
vn 0.6477 0.7559 -0.0957
vn 0.6310 0.7678 -0.1110
vn 0.8968 0.4374 -0.0659
vn 0.9571 0.2311 0.1746
vn 0.9508 0.2355 0.2012
vn 0.9578 0.1645 0.2357
vn 0.8710 -0.0969 0.4816
vn 0.9236 -0.3728 0.0894
vn 0.8810 -0.4186 -0.2204
vn 0.8891 0.1238 -0.4406
vn 0.6065 0.0044 -0.7950
vn 0.8629 -0.1783 -0.4729
vn 0.5959 -0.1855 -0.7813
vn 0.8634 -0.2127 -0.4575
vn 0.6670 -0.5817 -0.4655
vn 0.0562 -0.5116 -0.8574
vn 0.0556 -0.5050 -0.8613
vn -0.2065 -0.7119 -0.6712
vn -0.9091 -0.4072 -0.0872
vn -0.9404 -0.2028 -0.2729
vn 0.9496 -0.2177 -0.2254
vn 0.8862 -0.4416 0.1403
vn 0.9465 -0.0755 -0.3137
vn 0.7640 -0.3195 0.5605
vn 0.8759 -0.4676 0.1191
vn -0.7699 -0.5800 0.2662
vn -0.7057 -0.4567 0.5416
vn -0.6294 -0.7722 0.0868
vn -0.2158 -0.6703 0.7100
vn -0.2124 -0.6750 0.7066
vn 0.7869 -0.4227 0.4496
vn 0.7831 -0.4450 0.4345
vn 0.3974 -0.8746 -0.2777
vn 0.3784 -0.8746 -0.3031
vn -0.4961 -0.4158 -0.7622
vn -0.8922 -0.3767 -0.2491
vn -0.8173 -0.5663 -0.1061
vn 0.3226 -0.8761 -0.3582
vn 0.3863 -0.8595 -0.3347
vn 0.3138 -0.8818 -0.3522
vn 0.3684 -0.8891 -0.2717
vn 0.9724 -0.2124 0.0969
vn 0.9588 -0.1591 0.2354
vn 0.5225 -0.8393 0.1501
vn 0.9933 -0.0633 0.0970
vn 0.5417 -0.8323 0.1177
vn -0.8558 -0.5169 0.0191
vn 0.0372 -0.9721 -0.2315
vn 0.1670 -0.9562 -0.2402
vn -0.3712 -0.8863 -0.2770
vn 0.9949 -0.1000 -0.0166
vn 0.9850 -0.0691 -0.1583
vn 0.8824 -0.3433 -0.3218
vn 0.9929 -0.1177 -0.0148
vn 0.4227 -0.2349 0.8753
vn 0.4414 -0.1372 0.8868
vn -0.4106 -0.2307 0.8822
vn -0.4076 -0.2485 0.8787
vn -0.0591 -0.9822 -0.1781
vn -0.9714 -0.1195 -0.2054
vn -0.9763 -0.0559 -0.2089
vn -0.4608 0.8672 0.1890
vn -0.1817 0.7805 0.5981
vn -0.9749 -0.0544 -0.2158
vn -0.9172 -0.2155 -0.3353
vn 0.0018 -0.9749 -0.2225
vn -0.0104 -0.9728 -0.2315
vn 0.0101 -0.9816 -0.1909
vn -0.0125 -0.9780 -0.2081
vn -0.4841 0.7741 0.4079
vn 0.2019 0.7760 0.5975
vn 0.4843 0.8483 0.2141
vn -0.5769 0.7631 0.2914
vn -0.9223 -0.2509 -0.2939
vn -0.9225 -0.2510 -0.2932
vn -0.9363 -0.1564 -0.3145
vn -0.9365 -0.1563 -0.3138
vn 0.0146 -0.4840 -0.8750
vn 0.0098 -0.4853 -0.8743
vn 0.9425 -0.1563 -0.2956
vn 0.9398 -0.1569 -0.3036
vn 0.0081 -0.6776 -0.7354
vn 0.0120 -0.6755 -0.7373
vn 0.9224 -0.2636 -0.2822
vn -0.6049 0.6812 0.4123
vn -0.7390 0.3589 0.5701
vn -0.7010 0.3507 0.6210
vn -0.6016 0.7152 0.3559
vn 0.4737 0.7766 0.4152
vn 0.5883 0.7595 0.2776
vn 0.8188 -0.2142 -0.5326
vn 0.6534 0.4550 0.6051
vn 0.6266 0.6956 0.3514
vn 0.7182 0.3399 0.6071
vn 0.6795 0.3329 0.6538
vn -0.8181 0.5522 0.1605
vn -0.8137 0.5742 -0.0905
vn -0.7778 0.6170 -0.1198
vn -0.7891 0.6040 0.1117
vn 0.4783 0.7732 0.4164
vn 0.5775 0.7605 0.2970
vn 0.5908 0.7348 0.3332
vn 0.5948 0.6816 0.4262
vn 0.6923 0.3471 0.6326
vn 0.7263 0.3540 0.5892
vn -0.6144 0.7223 0.3176
vn -0.6553 0.4604 0.5988
vn 0.9247 -0.2574 -0.2806
vn 0.9251 -0.2576 -0.2790
vn 0.9205 -0.2226 -0.3210
vn 0.9785 -0.0573 -0.1983
vn 0.9400 -0.1623 -0.3001
vn 0.9783 -0.0571 -0.1993
vn 0.9730 -0.1197 -0.1972
vn 0.4639 0.8587 0.2175
vn 0.1947 0.7768 0.5989
vn 0.3938 -0.2554 0.8830
vn 0.3976 -0.2352 0.8869
vn 0.0281 -0.9799 -0.1975
vn 0.0094 -0.9777 -0.2100
vn -0.2076 0.7770 0.5944
vn -0.4809 0.8520 0.2071
vn -0.9951 -0.0935 -0.0314
vn -0.9830 -0.0626 -0.1728
vn -0.8798 -0.3374 -0.3347
vn -0.8116 -0.2087 -0.5457
vn 0.0025 -0.6784 -0.7347
vn -0.5870 0.7636 0.2690
vn -0.9201 -0.2571 -0.2956
vn -0.0019 -0.6759 -0.7370
vn 0.0007 -0.4837 -0.8753
vn 0.0053 -0.4850 -0.8745
vn -0.0148 -0.9812 -0.1922
vn -0.9934 -0.1104 -0.0297
vn -0.4437 -0.2330 0.8653
vn -0.4619 -0.1344 0.8767
vn -0.4753 0.7796 0.4079
vn -0.9386 -0.1505 -0.3103
vn -0.9362 -0.1511 -0.3172
vn 0.0082 -0.9730 -0.2308
vn -0.0066 -0.9754 -0.2203
vn -0.7265 0.3436 0.5950
vn -0.6843 0.3353 0.6475
vn -0.0126 -0.9956 -0.0928
vn 0.0106 -0.9967 -0.0805
vn -0.0127 -0.9967 -0.0799
vn -0.0165 -0.9968 -0.0779
vn 0.3073 -0.3300 0.8925
vn 0.3044 -0.3018 0.9035
vn -0.3753 -0.3200 0.8699
vn -0.3257 -0.4736 0.8183
vn -0.1162 0.9069 0.4050
vn 0.1086 0.9072 0.4066
vn 0.4043 0.9061 0.1243
vn -0.4125 0.9018 0.1288
vn -0.4122 0.9087 0.0651
vn -0.5717 0.8133 -0.1081
vn -0.9283 -0.2350 -0.2880
vn -0.9702 -0.0317 -0.2402
vn -0.0145 -0.9957 -0.0918
vn -0.8832 -0.4247 -0.1988
vn -0.9569 -0.2560 -0.1373
vn -0.9586 0.0523 -0.2798
vn -0.8005 0.1931 -0.5674
vn 0.0084 -0.1274 -0.9918
vn 0.0117 -0.1242 -0.9922
vn 0.9879 -0.0211 -0.1535
vn 0.0116 0.3003 -0.9538
vn 0.9621 -0.1691 -0.2137
vn 0.7070 0.4265 0.5642
vn 0.7383 0.5947 0.3182
vn 0.4052 0.9109 0.0786
vn 0.5601 0.8229 -0.0954
vn 0.9447 0.1575 -0.2876
vn 0.9778 0.1153 -0.1747
vn 0.5197 -0.5869 0.6209
vn 0.6403 -0.6032 0.4754
vn 0.5583 0.4424 -0.7019
vn -0.7646 0.5722 0.2966
vn -0.7261 -0.5161 0.4543
vn -0.6523 -0.5201 0.5514
vn -0.7626 0.5084 0.4000
vn -0.8048 0.1777 -0.5664
vn -0.9530 0.1839 -0.2408
vn 0.8403 -0.4799 -0.2522
vn 0.9957 0.0103 -0.0926
vn 0.9837 0.0276 -0.1777
vn 0.8314 -0.4704 -0.2956
vn -0.5781 0.8150 -0.0410
vn -0.5273 0.8485 -0.0439
vn -0.5334 0.8425 -0.0755
vn -0.5731 0.8164 -0.0716
vn 0.5425 0.8374 -0.0675
vn 0.5811 0.8114 -0.0631
vn -0.6592 -0.7513 0.0329
vn -0.7190 -0.6947 0.0235
vn -0.6962 -0.7131 -0.0825
vn -0.7616 -0.6434 -0.0776
vn 0.7134 -0.7000 0.0339
vn 0.6531 -0.7561 0.0424
vn 0.6924 -0.7179 -0.0725
vn 0.7576 -0.6493 -0.0667
vn 0.7767 -0.6187 0.1181
vn 0.7761 -0.6194 0.1181
vn 0.6453 -0.7639 0.0080
vn 0.5900 -0.8073 0.0124
vn 0.5729 -0.8186 -0.0419
vn 0.5851 0.8103 -0.0326
vn 0.5358 0.8435 -0.0362
vn 0.5655 0.8241 0.0310
vn -0.5594 0.8286 0.0228
vn -0.5823 -0.8114 -0.0502
vn -0.6002 -0.7998 0.0035
vn -0.6508 -0.7592 -0.0013
vn -0.7837 -0.6119 0.1065
vn -0.6229 0.7787 0.0753
vn -0.5473 0.8331 0.0800
vn -0.6438 0.7240 -0.2474
vn 0.5525 0.8289 0.0879
vn -0.3763 0.8878 -0.2650
vn 0.3898 0.8837 -0.2591
vn 0.6547 0.7176 -0.2374
vn 0.9831 0.1784 -0.0408
vn 0.6278 0.7738 0.0843
vn -0.7832 -0.6125 0.1064
vn -0.9811 0.1852 -0.0551
vn -0.9455 -0.2220 -0.2383
vn -0.0407 -0.5056 -0.8618
vn 0.2155 -0.7119 -0.6684
vn -0.0414 -0.5119 -0.8581
vn -0.9409 -0.0756 -0.3300
vn -0.7782 -0.3175 0.5418
vn -0.8801 -0.4643 0.0995
vn 0.7641 -0.5796 0.2832
vn 0.6927 -0.4548 0.5598
vn 0.9126 -0.4028 -0.0701
vn 0.9468 -0.1946 -0.2564
vn 0.5114 -0.4156 -0.7522
vn 0.8962 -0.3769 -0.2340
vn 0.8171 -0.5692 -0.0915
vn -0.3222 -0.8742 -0.3633
vn -0.3862 -0.8572 -0.3408
vn -0.3791 -0.8723 -0.3088
vn -0.5809 -0.1857 -0.7925
vn -0.3145 -0.8796 -0.3569
vn -0.8564 -0.1774 -0.4848
vn 0.3527 -0.3227 0.8783
vn 0.3028 -0.4757 0.8258
vn 0.4187 0.8981 0.1346
vn 0.8834 -0.4303 -0.1857
vn 0.1161 0.9060 0.4070
vn -0.3281 -0.2988 0.8961
vn -0.1087 0.9077 0.4052
vn 0.9565 -0.2639 -0.1240
vn 0.0061 -0.9957 -0.0921
vn 0.0049 -0.9957 -0.0927
vn -0.0189 -0.9966 -0.0806
vn -0.3985 0.9095 0.1186
vn -0.3982 0.9144 0.0724
vn -0.5501 0.8287 -0.1033
vn -0.3307 -0.3238 0.8864
vn -0.8395 -0.4744 -0.2649
vn -0.9941 0.0208 -0.1063
vn -0.8299 -0.4652 -0.3079
vn 0.0048 -0.9968 -0.0797
vn 0.0083 -0.9969 -0.0778
vn -0.9808 0.0345 -0.1920
vn 0.9734 -0.0385 -0.2256
vn 0.9306 -0.2423 -0.2742
vn 0.0134 -0.1277 -0.9917
vn 0.0099 -0.1242 -0.9922
vn -0.9857 -0.0142 -0.1679
vn -0.9602 -0.1620 -0.2275
vn -0.7142 0.4303 0.5521
vn -0.7393 0.5978 0.3098
vn 0.7636 0.5673 0.3084
vn 0.7591 0.5039 0.4121
vn 0.8117 0.1864 -0.5535
vn 0.9632 0.0450 -0.2650
vn 0.5807 0.8081 -0.0992
vn 0.4200 0.9048 0.0705
vn 0.8150 0.1743 -0.5526
vn 0.9574 0.1805 -0.2252
vn 0.6379 -0.5243 0.5641
vn 0.7119 -0.5207 0.4712
vn -0.6540 -0.5996 0.4612
vn -0.5366 -0.5836 0.6095
vn 0.0137 0.3003 -0.9538
vn -0.5384 0.4463 -0.7148
vn -0.9752 0.1160 -0.1887
vn -0.9406 0.1581 -0.3005
vn -0.2723 0.9001 0.3402
vn -0.2429 0.9123 0.3296
vn -0.2890 0.9386 -0.1884
vn -0.2748 0.9415 -0.1950
vn 0.3051 0.9344 -0.1836
vn 0.2884 0.9381 -0.1919
vn 0.2896 0.9393 -0.1840
vn 0.1878 0.9651 0.1825
vn 0.3252 0.8823 0.3403
vn 0.3111 0.8375 0.4493
vn 0.3365 0.8411 0.4234
vn -0.3377 0.8432 0.4182
vn -0.3125 0.8394 0.4447
vn -0.3238 0.8847 0.3353
vn -0.1823 0.9666 0.1799
vn 0.7884 0.5237 0.3228
vn 0.8245 0.5395 0.1710
vn 0.7917 0.5985 0.1226
vn 0.8191 0.4630 0.3386
vn -0.2760 0.9426 -0.1879
vn 0.8450 0.4399 0.3040
vn 0.8798 0.3529 0.3186
vn -0.9073 0.3448 0.2405
vn -0.9668 0.0278 0.2538
vn 0.4930 0.8271 0.2698
vn 0.3541 0.8830 0.3081
vn -0.4909 0.8306 0.2629
vn -0.4480 0.4083 0.7954
vn -0.7208 -0.1205 0.6826
vn -0.9676 0.0400 0.2492
vn -0.3522 0.8855 0.3031
vn 0.8515 0.3166 0.4181
vn 0.8519 0.3331 0.4041
vn 0.9929 -0.0078 0.1186
vn 0.9246 0.2825 0.2556
vn 0.9977 0.0395 -0.0545
vn 0.4350 0.4057 0.8039
vn 0.7067 -0.1257 0.6962
vn 0.4543 -0.4486 0.7696
vn 0.9059 0.3388 0.2539
vn 0.9458 -0.0275 -0.3235
vn 0.9545 0.1368 -0.2650
vn 0.7639 0.4928 -0.4167
vn 0.8079 0.4429 -0.3888
vn 0.4652 0.8566 -0.2234
vn -0.4885 -0.1330 -0.8624
vn -0.4872 -0.1310 -0.8634
vn -0.5719 -0.2599 -0.7781
vn 0.5929 -0.0513 0.8036
vn 0.7189 -0.1671 0.6747
vn 0.7569 -0.1293 0.6406
vn 0.7683 -0.0460 0.6384
vn 0.8294 0.4029 0.3870
vn 0.8345 -0.0298 0.5502
vn 0.9208 0.2038 0.3325
vn 0.5831 0.2768 0.7638
vn 0.5911 0.2894 0.7528
vn 0.5169 0.1622 0.8405
vn 0.5180 0.2717 0.8111
vn 0.9382 -0.2535 -0.2355
vn 0.9310 -0.2080 -0.3001
vn -0.5327 0.1637 0.8303
vn -0.5322 0.2746 0.8008
vn -0.7802 -0.0408 0.6242
vn -0.7696 -0.1238 0.6264
vn -0.6037 0.2927 0.7415
vn -0.5963 0.2792 0.7526
vn -0.9249 0.2091 0.3175
vn -0.8324 0.4090 0.3740
vn -0.8439 -0.0244 0.5359
vn -0.6093 -0.0474 0.7915
vn -0.7327 -0.1618 0.6610
vn 0.8061 0.2001 -0.5569
vn 0.8251 0.1060 -0.5550
vn 0.3285 0.9191 -0.2177
vn 0.4311 0.8952 -0.1133
vn -0.3145 0.9228 -0.2227
vn -0.4215 0.8991 -0.1181
vn 0.6067 0.7718 0.1904
vn 0.7475 0.6176 0.2447
vn 0.1572 0.9702 -0.1843
vn 0.2646 0.9556 -0.1295
vn 0.7830 0.6126 -0.1078
vn 0.8194 0.5680 -0.0770
vn 0.8191 0.5474 0.1715
vn 0.9432 0.3196 -0.0911
vn 0.9991 -0.0414 -0.0082
vn 0.2874 0.9554 0.0684
vn 0.9998 -0.0201 -0.0009
vn 0.4114 0.1160 -0.9040
vn 0.1415 -0.2511 -0.9576
vn 0.6933 0.3628 -0.6227
vn 0.7504 0.3324 -0.5713
vn 0.7989 0.4176 -0.4330
vn 0.7445 0.4757 -0.4683
vn 0.2919 -0.3637 -0.8846
vn 0.1094 -0.2617 -0.9589
vn -0.2564 -0.8733 -0.4142
vn -0.1430 -0.9886 0.0477
vn 0.7637 0.1437 0.6294
vn 0.6950 0.0633 0.7162
vn -0.7876 0.4242 -0.4469
vn -0.8962 0.4292 0.1118
vn -0.7373 0.3391 -0.5843
vn -0.6781 0.3693 -0.6354
vn -0.3901 0.1188 -0.9131
vn -0.7320 0.4830 -0.4805
vn -0.2756 -0.3621 -0.8905
vn -0.0903 -0.2611 -0.9611
vn -0.1210 -0.2509 -0.9604
vn 0.1317 -0.9900 0.0504
vn 0.2571 -0.8751 -0.4099
vn -0.9278 -0.2024 -0.3135
vn -0.9363 -0.2476 -0.2489
vn -0.3607 -0.8446 0.3957
vn -0.5440 -0.7574 0.3612
vn -0.2946 -0.8557 0.4255
vn -0.9369 -0.2253 -0.2673
vn -0.9627 -0.1519 -0.2241
vn 0.3655 -0.9233 -0.1177
vn 0.4242 -0.9021 -0.0795
vn -0.7977 0.4504 -0.4009
vn -0.7524 0.5005 -0.4283
vn 0.7576 -0.2628 0.5975
vn 0.8972 0.4235 0.1251
vt 0.011200 0.926900
vt 0.011200 0.589200
vt 0.342400 0.768400
vt 0.340600 0.756900
vt 0.331600 0.698300
vt 0.750400 0.519400
vt 0.760100 0.471700
vt 0.812700 0.528000
vt 0.828500 0.479400
vt 0.846400 0.525400
vt 0.850000 0.555000
vt 0.820900 0.560900
vt 0.829100 0.418500
vt 0.767900 0.406500
vt 0.978800 0.487500
vt 0.964900 0.507600
vt 0.968400 0.532200
vt 0.993300 0.517300
vt 0.686400 0.455200
vt 0.690800 0.416200
vt 0.686800 0.505700
vt 0.572300 0.490500
vt 0.580500 0.431100
vt 0.687600 0.545300
vt 0.567400 0.551400
vt 0.520100 0.507300
vt 0.541800 0.444100
vt 0.495800 0.448200
vt 0.465700 0.506700
vt 0.514000 0.549500
vt 0.523300 0.368700
vt 0.494000 0.372400
vt 0.459800 0.462700
vt 0.455500 0.417800
vt 0.474400 0.363100
vt 0.458500 0.388400
vt 0.448300 0.417700
vt 0.452900 0.383900
vt 0.485100 0.352800
vt 0.498100 0.362100
vt 0.518300 0.361800
vt 0.377500 0.373000
vt 0.443200 0.344100
vt 0.511100 0.334400
vt 0.501500 0.328700
vt 0.520600 0.334200
vt 0.378300 0.337600
vt 0.420100 0.544700
vt 0.538100 0.352400
vt 0.541800 0.359100
vt 0.557800 0.345900
vt 0.582700 0.368400
vt 0.553900 0.340800
vt 0.544500 0.327100
vt 0.533000 0.327700
vt 0.551400 0.333700
vt 0.558200 0.331600
vt 0.587900 0.369500
vt 0.625200 0.351600
vt 0.534300 0.326300
vt 0.537200 0.318900
vt 0.568600 0.354300
vt 0.574100 0.330700
vt 0.552300 0.281100
vt 0.743900 0.551300
vt 0.761800 0.552200
vt 0.774100 0.561700
vt 0.777500 0.571600
vt 0.689000 0.585600
vt 0.563000 0.591400
vt 0.565300 0.639100
vt 0.503100 0.592300
vt 0.500500 0.637400
vt 0.689800 0.619800
vt 0.761400 0.575500
vt 0.740800 0.567200
vt 0.379100 0.417100
vt 0.394000 0.488900
vt 0.340900 0.406100
vt 0.314000 0.359100
vt 0.312900 0.330900
vt 0.267600 0.335200
vt 0.262100 0.321500
vt 0.269000 0.338600
vt 0.308500 0.361000
vt 0.332600 0.403800
vt 0.312200 0.390000
vt 0.306300 0.478500
vt 0.286100 0.405400
vt 0.235100 0.419700
vt 0.264200 0.368600
vt 0.263000 0.348000
vt 0.234900 0.378800
vt 0.200600 0.375400
vt 0.233000 0.479000
vt 0.213800 0.531200
vt 0.164900 0.468500
vt 0.132800 0.519400
vt 0.184600 0.419300
vt 0.140800 0.407100
vt 0.185900 0.567400
vt 0.040100 0.454900
vt 0.044000 0.431300
vt 0.088800 0.557800
vt 0.030600 0.466300
vt 0.281600 0.546000
vt 0.040000 0.402300
vt 0.136500 0.371700
vt 0.417500 0.584200
vt 0.275000 0.591000
vt 0.294300 0.639500
vt 0.416400 0.625500
vt 0.225200 0.632800
vt 0.160600 0.612400
vt 0.181600 0.358100
vt 0.221500 0.348100
vt 0.209600 0.337700
vt 0.185900 0.327700
vt 0.207500 0.325300
vt 0.236300 0.353300
vt 0.255300 0.355700
vt 0.254700 0.344500
vt 0.142300 0.374700
vt 0.162400 0.329700
vt 0.156200 0.331800
vt 0.131100 0.340500
vt 0.675800 0.146800
vt 0.626300 0.146800
vt 0.671300 0.134800
vt 0.782100 0.132400
vt 0.773900 0.100100
vt 0.630900 0.135900
vt 0.595000 0.081100
vt 0.606300 0.082500
vt 0.629300 0.020900
vt 0.626300 0.010200
vt 0.672800 0.037800
vt 0.675800 0.023800
vt 0.679200 0.082500
vt 0.759000 0.038400
vt 0.768700 0.067600
vt 0.757500 0.083500
vt 0.785200 0.035700
vt 0.807300 0.068700
vt 0.882400 0.019300
vt 0.925100 0.048800
vt 0.815600 0.105600
vt 0.946700 0.109300
vt 0.911300 0.131600
vt 0.803600 0.131300
vt 0.773700 0.084100
vt 0.866800 0.083200
vt 0.713500 0.291000
vt 0.788900 0.326200
vt 0.789400 0.253900
vt 0.730400 0.237400
vt 0.835300 0.307100
vt 0.835300 0.272600
vt 0.724500 0.230300
vt 0.703600 0.291400
vt 0.730400 0.337700
vt 0.724500 0.348600
vt 0.787100 0.291300
vt 0.790600 0.237000
vt 0.790600 0.340800
vt 0.831600 0.290200
vt 0.829900 0.327900
vt 0.859600 0.320600
vt 0.868700 0.299100
vt 0.868300 0.271600
vt 0.829200 0.252400
vt 0.973100 0.300500
vt 0.859500 0.252500
vt 0.845000 0.289600
vt 0.968000 0.265100
vt 0.929600 0.255000
vt 0.921100 0.286800
vt 0.936800 0.318700
vt 0.394800 0.907000
vt 0.272300 0.904100
vt 0.273500 0.901700
vt 0.396700 0.900200
vt 0.572800 0.915900
vt 0.575300 0.903300
vt 0.398900 0.892100
vt 0.578200 0.889700
vt 0.751500 0.912200
vt 0.753800 0.894600
vt 0.871000 0.902700
vt 0.871400 0.924200
vt 0.274600 0.898200
vt 0.113200 0.911800
vt 0.748700 0.930100
vt 0.872200 0.941900
vt 0.870900 0.953000
vt 0.772100 0.621000
vt 0.828700 0.597600
vt 0.854900 0.587800
vt 0.973900 0.545700
vt 0.816000 0.808400
vt 0.775700 0.806100
vt 0.790800 0.849800
vt 0.847900 0.848100
vt 0.904300 0.815100
vt 0.889900 0.735600
vt 0.925900 0.716800
vt 0.946500 0.750600
vt 0.892900 0.693700
vt 0.844600 0.697600
vt 0.797900 0.721200
vt 0.552100 0.327900
vt 0.564700 0.342700
vt 0.223600 0.195500
vt 0.171700 0.132600
vt 0.230400 0.139300
vt 0.123600 0.045000
vt 0.109800 0.072200
vt 0.150300 0.199500
vt 0.071000 0.086900
vt 0.083800 0.165600
vt 0.200000 0.052000
vt 0.155300 0.024700
vt 0.092700 0.018000
vt 0.028800 0.093500
s 0
f 1/1/1 2/2/1 3/3/1
f 4/4/2 2/2/2 5/5/2
f 3/3/3 2/2/3 4/4/3
f 6/1/4 7/2/4 8/3/4
f 8/3/5 7/2/5 9/4/5
f 9/4/6 7/2/6 10/5/6
f 11/1/7 12/3/7 13/2/7
f 12/3/8 14/4/8 13/2/8
f 14/4/9 15/5/9 13/2/9
f 16/6/10 17/7/10 18/8/10
f 17/7/11 19/9/11 18/8/11
f 19/9/12 20/10/12 18/8/12
f 20/10/13 21/11/13 18/8/13
f 21/11/14 22/12/14 18/8/14
f 23/13/15 19/9/15 17/7/15
f 24/14/16 23/13/16 17/7/16
f 19/9/17 23/13/17 25/15/17
f 26/16/18 19/9/18 25/15/18
f 23/13/19 27/9/19 25/15/19
f 27/9/20 28/16/20 25/15/20
f 28/16/21 27/9/21 29/17/21
f 27/9/22 30/10/22 29/17/22
f 27/9/23 23/13/23 31/7/23
f 23/13/24 24/14/24 31/7/24
f 32/8/25 27/9/25 31/7/25
f 33/6/26 32/8/26 31/7/26
f 32/8/27 30/10/27 27/9/27
f 34/18/28 26/16/28 25/15/28
f 24/14/29 17/7/29 35/19/29
f 36/20/30 24/14/30 35/19/30
f 37/21/31 33/6/31 31/7/31
f 38/19/32 37/21/32 31/7/32
f 37/21/33 38/19/33 39/22/33
f 38/19/34 40/23/34 39/22/34
f 37/21/35 39/22/35 41/24/35
f 39/22/36 42/25/36 41/24/36
f 42/25/37 39/22/37 43/26/37
f 40/23/38 44/27/38 39/22/38
f 39/22/39 44/27/39 43/26/39
f 43/26/40 44/27/40 45/28/40
f 45/28/41 46/29/41 43/26/41
f 43/26/42 46/29/42 47/30/42
f 44/27/43 48/31/43 45/28/43
f 48/31/44 49/32/44 45/28/44
f 50/33/45 46/29/45 45/28/45
f 50/33/46 45/28/46 51/34/46
f 49/32/47 52/35/47 51/34/47
f 51/34/48 52/35/48 53/36/48
f 51/34/49 53/36/49 54/37/49
f 53/36/50 55/38/50 54/37/50
f 51/34/51 45/28/51 49/32/51
f 52/35/52 49/32/52 56/39/52
f 49/32/53 57/40/53 56/39/53
f 49/32/54 48/31/54 57/40/54
f 48/31/55 58/41/55 57/40/55
f 55/38/56 59/42/56 54/37/56
f 59/42/57 55/38/57 60/43/57
f 57/40/58 58/41/58 61/44/58
f 56/39/59 57/40/59 61/44/59
f 62/45/60 56/39/60 61/44/60
f 58/41/61 63/46/61 61/44/61
f 54/37/62 50/33/62 51/34/62
f 64/47/63 59/42/63 60/43/63
f 46/29/64 65/48/64 47/30/64
f 58/41/65 48/31/65 66/49/65
f 48/31/66 67/50/66 66/49/66
f 67/50/67 68/51/67 66/49/67
f 67/50/68 69/52/68 68/51/68
f 40/23/69 69/52/69 67/50/69
f 68/51/70 70/53/70 66/49/70
f 70/53/71 71/54/71 66/49/71
f 71/54/72 72/55/72 66/49/72
f 56/56/73 70/53/73 68/51/73
f 52/57/74 56/56/74 68/51/74
f 69/52/75 40/23/75 73/58/75
f 73/58/76 40/23/76 38/19/76
f 74/59/77 73/58/77 38/19/77
f 69/52/78 73/58/78 53/60/78
f 73/58/79 55/61/79 53/60/79
f 36/20/80 74/59/80 38/19/80
f 68/51/81 69/62/81 52/57/81
f 69/62/82 53/63/82 52/57/82
f 44/27/83 40/23/83 67/50/83
f 55/61/84 73/58/84 60/64/84
f 73/58/85 74/59/85 60/64/85
f 60/64/86 74/59/86 75/58/86
f 76/61/87 60/64/87 75/58/87
f 76/61/88 75/58/88 77/60/88
f 75/58/89 78/52/89 77/60/89
f 75/58/90 79/23/90 78/52/90
f 80/50/91 78/52/91 79/23/91
f 80/50/92 79/23/92 81/27/92
f 82/22/93 81/27/93 79/23/93
f 83/51/94 78/52/94 80/50/94
f 84/31/95 80/50/95 81/27/95
f 85/49/96 80/50/96 84/31/96
f 80/50/97 85/49/97 83/51/97
f 86/41/98 85/49/98 84/31/98
f 85/49/99 86/41/99 87/46/99
f 88/55/100 85/49/100 87/46/100
f 89/40/101 86/41/101 84/31/101
f 90/32/102 89/40/102 84/31/102
f 89/40/103 90/32/103 91/39/103
f 90/32/104 92/35/104 91/39/104
f 93/44/105 89/40/105 91/39/105
f 94/45/106 93/44/106 91/39/106
f 88/55/107 95/54/107 85/49/107
f 95/54/108 96/53/108 85/49/108
f 85/49/109 96/53/109 83/51/109
f 96/53/110 91/56/110 83/51/110
f 91/56/111 92/57/111 83/51/111
f 92/57/112 78/62/112 83/51/112
f 92/57/113 77/63/113 78/62/113
f 89/40/114 93/44/114 86/41/114
f 93/44/115 87/46/115 86/41/115
f 82/22/116 79/23/116 35/19/116
f 97/21/117 82/22/117 35/19/117
f 97/21/118 98/24/118 82/22/118
f 98/24/119 97/21/119 16/6/119
f 99/65/120 98/24/120 16/6/120
f 100/66/121 99/65/121 16/6/121
f 18/8/122 100/66/122 16/6/122
f 101/67/123 18/8/123 22/12/123
f 18/8/124 101/67/124 100/66/124
f 102/68/125 101/67/125 22/12/125
f 98/24/126 103/69/126 104/25/126
f 103/69/127 105/70/127 104/25/127
f 105/70/128 106/71/128 107/72/128
f 106/71/129 108/73/129 107/72/129
f 108/73/130 106/71/130 109/72/130
f 106/71/131 110/70/131 109/72/131
f 110/70/132 106/71/132 111/74/132
f 112/69/133 110/70/133 111/74/133
f 113/75/134 103/69/134 114/76/134
f 115/26/135 82/22/135 104/25/135
f 98/24/136 104/25/136 82/22/136
f 104/25/137 105/70/137 116/30/137
f 117/29/138 115/26/138 116/30/138
f 115/26/139 117/29/139 118/28/139
f 118/28/140 117/29/140 119/33/140
f 120/48/141 117/29/141 116/30/141
f 121/34/142 118/28/142 119/33/142
f 121/34/143 119/33/143 122/37/143
f 121/34/144 122/37/144 77/36/144
f 122/37/145 76/38/145 77/36/145
f 76/38/146 122/37/146 123/42/146
f 122/37/147 124/77/147 123/42/147
f 124/77/148 119/33/148 125/78/148
f 117/29/149 120/48/149 125/78/149
f 119/33/150 117/29/150 125/78/150
f 124/77/151 126/79/151 123/42/151
f 122/37/152 119/33/152 124/77/152
f 90/32/153 118/28/153 121/34/153
f 115/26/154 81/27/154 82/22/154
f 90/32/155 84/31/155 118/28/155
f 84/31/156 81/27/156 118/28/156
f 77/36/157 92/35/157 121/34/157
f 121/34/158 92/35/158 90/32/158
f 118/28/159 81/27/159 115/26/159
f 126/79/160 127/80/160 123/42/160
f 76/38/161 123/42/161 60/43/161
f 123/42/162 127/80/162 64/47/162
f 127/80/163 128/81/163 64/47/163
f 128/81/164 129/80/164 64/47/164
f 129/80/165 59/42/165 64/47/165
f 123/42/166 64/47/166 60/43/166
f 59/42/167 129/80/167 130/79/167
f 131/77/168 59/42/168 130/79/168
f 59/42/169 131/77/169 54/37/169
f 131/77/170 50/33/170 54/37/170
f 132/82/171 129/80/171 128/81/171
f 127/80/172 133/82/172 128/81/172
f 134/83/173 132/82/173 128/81/173
f 133/82/174 134/83/174 128/81/174
f 135/84/175 133/82/175 127/80/175
f 136/85/176 135/84/176 127/80/176
f 137/86/177 136/85/177 127/80/177
f 126/79/178 137/86/178 127/80/178
f 136/85/179 137/86/179 138/87/179
f 137/86/180 139/88/180 140/89/180
f 138/87/181 137/86/181 140/89/181
f 139/88/182 141/90/182 140/89/182
f 126/79/183 139/88/183 137/86/183
f 136/85/184 138/87/184 142/91/184
f 143/92/185 136/85/185 142/91/185
f 138/87/186 140/89/186 142/91/186
f 140/89/187 144/93/187 142/91/187
f 144/93/188 141/90/188 145/94/188
f 144/93/189 140/89/189 141/90/189
f 139/88/190 146/95/190 141/90/190
f 143/92/191 135/84/191 136/85/191
f 146/95/192 147/96/192 148/97/192
f 147/96/193 149/98/193 148/97/193
f 150/99/194 141/90/194 148/97/194
f 151/100/195 150/99/195 148/97/195
f 149/98/196 147/96/196 152/101/196
f 148/97/197 149/98/197 153/102/197
f 154/103/198 148/97/198 153/102/198
f 149/98/199 155/104/199 153/102/199
f 155/104/200 156/105/200 153/102/200
f 151/100/201 148/97/201 154/103/201
f 148/97/202 141/90/202 146/95/202
f 156/105/203 155/104/203 157/102/203
f 158/106/204 147/96/204 146/95/204
f 139/88/205 158/106/205 146/95/205
f 151/100/206 154/103/206 159/107/206
f 160/108/207 151/100/207 159/107/207
f 155/104/208 161/98/208 157/102/208
f 120/48/209 158/106/209 139/88/209
f 158/106/210 120/48/210 162/109/210
f 163/110/211 158/106/211 162/109/211
f 125/78/212 120/48/212 139/88/212
f 125/78/213 139/88/213 126/79/213
f 124/77/214 125/78/214 126/79/214
f 164/111/215 163/110/215 162/109/215
f 165/112/216 164/111/216 162/109/216
f 163/110/217 164/111/217 166/113/217
f 158/106/218 163/110/218 147/96/218
f 164/111/219 165/112/219 167/109/219
f 168/110/220 164/111/220 167/109/220
f 108/73/221 165/112/221 162/109/221
f 107/72/222 108/73/222 162/109/222
f 163/110/223 152/101/223 147/96/223
f 152/101/224 169/114/224 149/98/224
f 169/114/225 155/104/225 149/98/225
f 155/104/226 169/114/226 161/98/226
f 169/114/227 170/101/227 161/98/227
f 170/101/228 171/96/228 161/98/228
f 161/98/229 171/96/229 172/97/229
f 171/96/230 173/95/230 172/97/230
f 173/95/231 174/90/231 172/97/231
f 174/90/232 173/95/232 175/88/232
f 176/89/233 174/90/233 175/88/233
f 170/101/234 168/110/234 171/96/234
f 168/110/235 177/106/235 171/96/235
f 171/96/236 177/106/236 173/95/236
f 177/106/237 175/88/237 173/95/237
f 175/88/238 177/106/238 65/48/238
f 178/78/239 175/88/239 65/48/239
f 176/89/240 175/88/240 179/86/240
f 174/90/241 176/89/241 180/93/241
f 181/94/242 174/90/242 180/93/242
f 172/97/243 174/90/243 182/99/243
f 172/97/244 182/99/244 183/100/244
f 182/99/245 174/90/245 181/94/245
f 183/100/246 182/99/246 181/94/246
f 184/103/247 172/97/247 183/100/247
f 159/107/248 184/103/248 183/100/248
f 185/115/249 183/100/249 181/94/249
f 185/115/250 181/94/250 186/116/250
f 187/117/251 185/115/251 186/116/251
f 185/115/252 187/117/252 188/118/252
f 187/117/253 189/119/253 188/118/253
f 181/94/254 180/93/254 186/116/254
f 180/93/255 176/89/255 190/91/255
f 180/93/256 191/120/256 186/116/256
f 191/120/257 180/93/257 192/121/257
f 180/93/258 190/91/258 192/121/258
f 190/91/259 188/92/259 192/121/259
f 188/92/260 189/122/260 192/121/260
f 188/92/261 190/91/261 193/85/261
f 190/91/262 194/87/262 193/85/262
f 194/87/263 179/86/263 193/85/263
f 176/89/264 194/87/264 190/91/264
f 176/89/265 179/86/265 194/87/265
f 159/107/266 183/100/266 195/108/266
f 183/100/267 196/123/267 195/108/267
f 196/123/268 183/100/268 185/115/268
f 197/124/269 196/123/269 185/115/269
f 188/118/270 197/124/270 185/115/270
f 196/123/271 197/124/271 132/125/271
f 195/108/272 196/123/272 132/125/272
f 134/126/273 195/108/273 132/125/273
f 195/108/274 134/126/274 159/107/274
f 179/86/275 175/88/275 130/79/275
f 130/79/276 175/88/276 178/78/276
f 179/86/277 130/79/277 129/80/277
f 131/77/278 130/79/278 178/78/278
f 193/85/279 179/86/279 129/80/279
f 193/85/280 197/84/280 188/92/280
f 197/84/281 193/85/281 129/80/281
f 132/82/282 197/84/282 129/80/282
f 159/107/283 134/126/283 160/108/283
f 198/127/284 199/128/284 200/129/284
f 201/130/285 198/127/285 200/129/285
f 202/131/286 201/130/286 200/129/286
f 199/128/287 203/132/287 200/129/287
f 203/132/288 199/128/288 204/133/288
f 205/134/289 203/132/289 204/133/289
f 206/135/290 205/134/290 204/133/290
f 207/136/291 206/135/291 204/133/291
f 208/137/292 205/134/292 206/135/292
f 208/137/293 206/135/293 207/136/293
f 209/138/294 208/137/294 207/136/294
f 209/138/295 207/136/295 210/139/295
f 207/136/296 204/133/296 210/139/296
f 208/137/297 209/138/297 211/140/297
f 212/141/298 208/137/298 211/140/298
f 212/141/299 202/131/299 208/137/299
f 202/131/300 200/129/300 208/137/300
f 200/129/301 203/132/301 205/134/301
f 208/137/302 200/129/302 205/134/302
f 209/138/303 210/139/303 213/142/303
f 210/139/304 204/133/304 199/128/304
f 198/127/305 210/139/305 199/128/305
f 211/140/306 209/138/306 213/142/306
f 211/140/307 214/143/307 212/141/307
f 214/143/308 215/144/308 212/141/308
f 215/144/309 214/143/309 71/145/309
f 62/146/310 215/144/310 71/145/310
f 215/144/311 62/146/311 216/147/311
f 62/146/312 61/148/312 216/147/312
f 61/148/313 63/149/313 216/147/313
f 63/149/314 217/150/314 216/147/314
f 212/141/315 215/144/315 202/131/315
f 215/144/316 216/147/316 202/131/316
f 216/147/317 217/150/317 202/131/317
f 218/151/318 214/143/318 211/140/318
f 214/143/319 218/151/319 72/152/319
f 71/145/320 214/143/320 72/152/320
f 213/142/321 218/151/321 211/140/321
f 213/142/322 210/139/322 198/127/322
f 201/130/323 213/142/323 198/127/323
f 217/150/324 201/130/324 202/131/324
f 217/150/325 218/151/325 201/130/325
f 218/151/326 213/142/326 201/130/326
f 63/149/327 72/152/327 217/150/327
f 72/152/328 218/151/328 217/150/328
f 116/30/329 115/26/329 104/25/329
f 116/30/330 107/72/330 120/48/330
f 107/72/331 162/109/331 120/48/331
f 105/70/332 107/72/332 116/30/332
f 219/142/333 220/139/333 221/138/333
f 222/140/334 219/142/334 221/138/334
f 219/142/335 222/140/335 223/151/335
f 222/140/336 224/143/336 223/151/336
f 224/143/337 95/145/337 88/152/337
f 223/151/338 224/143/338 88/152/338
f 219/142/339 223/151/339 225/130/339
f 223/151/340 226/150/340 225/130/340
f 222/140/341 227/141/341 224/143/341
f 227/141/342 228/144/342 224/143/342
f 227/141/343 222/140/343 229/137/343
f 222/140/344 221/138/344 229/137/344
f 224/143/345 228/144/345 95/145/345
f 228/144/345 94/146/345 95/145/345
f 221/138/346 230/136/346 229/137/346
f 230/136/347 231/135/347 229/137/347
f 230/136/348 221/138/348 220/139/348
f 232/133/349 230/136/349 220/139/349
f 230/136/350 232/133/350 231/135/350
f 232/133/351 233/134/351 231/135/351
f 231/135/352 233/134/352 229/137/352
f 233/134/353 234/129/353 229/137/353
f 235/128/354 232/133/354 220/139/354
f 236/127/355 235/128/355 220/139/355
f 235/128/356 236/127/356 234/129/356
f 236/127/357 225/130/357 234/129/357
f 225/130/358 237/131/358 234/129/358
f 237/131/359 225/130/359 226/150/359
f 227/141/360 237/131/360 228/144/360
f 225/130/361 236/127/361 219/142/361
f 238/147/362 237/131/362 226/150/362
f 237/131/363 238/147/363 228/144/363
f 228/144/364 238/147/364 94/146/364
f 238/147/365 93/148/365 94/146/365
f 233/134/366 239/132/366 234/129/366
f 239/132/367 235/128/367 234/129/367
f 235/128/368 239/132/368 232/133/368
f 239/132/369 233/134/369 232/133/369
f 236/127/370 220/139/370 219/142/370
f 93/148/371 238/147/371 87/149/371
f 238/147/372 226/150/372 87/149/372
f 229/137/373 234/129/373 237/131/373
f 227/141/374 229/137/374 237/131/374
f 88/152/375 87/149/375 226/150/375
f 223/151/376 88/152/376 226/150/376
f 240/153/377 241/154/377 242/155/377
f 243/156/378 240/153/378 242/155/378
f 241/154/379 244/157/379 242/155/379
f 244/157/380 245/158/380 242/155/380
f 240/153/381 243/156/381 246/159/381
f 247/160/382 240/153/382 246/159/382
f 240/153/383 247/160/383 248/161/383
f 247/160/384 249/162/384 248/161/384
f 249/162/385 247/160/385 250/163/385
f 250/163/386 247/160/386 246/159/386
f 251/164/387 250/163/387 246/159/387
f 252/165/388 249/162/388 250/163/388
f 252/165/389 250/163/389 253/166/389
f 254/167/390 252/165/390 253/166/390
f 252/165/391 254/167/391 241/154/391
f 254/167/392 244/157/392 241/154/392
f 240/153/393 248/161/393 241/154/393
f 248/161/394 249/162/394 252/165/394
f 241/154/395 248/161/395 252/165/395
f 244/157/396 254/167/396 255/168/396
f 256/169/397 244/157/397 255/168/397
f 244/157/398 256/169/398 245/158/398
f 256/169/399 257/170/399 245/158/399
f 258/171/400 245/158/400 257/170/400
f 256/169/401 259/172/401 257/170/401
f 260/173/402 258/171/402 257/170/402
f 258/171/403 260/173/403 261/174/403
f 253/166/404 258/171/404 261/174/404
f 253/166/405 250/163/405 251/164/405
f 258/171/406 253/166/406 251/164/406
f 260/173/407 257/170/407 262/175/407
f 263/176/408 260/173/408 262/175/408
f 260/173/409 263/176/409 261/174/409
f 263/176/410 264/177/410 261/174/410
f 259/172/411 262/175/411 257/170/411
f 253/166/412 261/174/412 254/167/412
f 261/174/413 264/177/413 265/178/413
f 255/168/414 261/174/414 265/178/414
f 261/174/415 255/168/415 254/167/415
f 256/169/416 255/168/416 259/172/416
f 255/168/417 265/178/417 259/172/417
f 243/156/418 242/155/418 251/164/418
f 246/159/419 243/156/419 251/164/419
f 242/155/420 245/158/420 258/171/420
f 251/164/421 242/155/421 258/171/421
f 266/179/422 267/180/422 268/181/422
f 269/182/423 266/179/423 268/181/423
f 266/179/424 269/182/424 270/183/424
f 269/182/425 271/184/425 270/183/425
f 272/182/426 266/179/426 270/183/426
f 273/184/427 272/182/427 270/183/427
f 269/182/428 274/185/428 271/184/428
f 274/185/429 275/186/429 271/184/429
f 271/184/430 275/186/430 276/187/430
f 275/186/431 277/188/431 276/187/431
f 275/186/432 274/185/432 273/184/432
f 274/185/433 272/182/433 273/184/433
f 275/186/434 273/184/434 278/187/434
f 277/188/435 275/186/435 278/187/435
f 159/189/436 277/188/436 278/187/436
f 184/190/437 159/189/437 278/187/437
f 272/182/438 274/185/438 279/191/438
f 280/181/439 272/182/439 279/191/439
f 281/192/440 280/181/440 279/191/440
f 280/181/441 267/180/441 266/179/441
f 272/182/442 280/181/442 266/179/442
f 281/192/443 267/180/443 280/181/443
f 268/181/444 267/180/444 281/192/444
f 279/191/445 268/181/445 281/192/445
f 268/181/446 279/191/446 269/182/446
f 279/191/447 274/185/447 269/182/447
f 276/187/448 277/188/448 159/189/448
f 276/187/449 282/193/449 271/184/449
f 282/193/450 270/183/450 271/184/450
f 282/193/451 276/187/451 153/194/451
f 273/184/452 270/183/452 282/193/452
f 156/195/453 282/193/453 153/194/453
f 282/193/454 156/195/454 157/194/454
f 278/187/455 282/193/455 157/194/455
f 184/190/456 278/187/456 157/194/456
f 278/187/457 273/184/457 282/193/457
f 154/190/458 276/187/458 159/189/458
f 153/194/459 276/187/459 154/190/459
f 145/94/460 259/116/460 144/93/460
f 259/116/461 145/94/461 283/115/461
f 262/117/462 259/116/462 283/115/462
f 145/94/463 151/100/463 283/115/463
f 259/116/464 265/120/464 144/93/464
f 144/93/465 265/120/465 264/121/465
f 142/91/466 144/93/466 264/121/466
f 143/92/467 142/91/467 264/121/467
f 263/122/468 143/92/468 264/121/468
f 262/117/469 283/115/469 143/118/469
f 263/119/470 262/117/470 143/118/470
f 283/115/471 151/100/471 284/123/471
f 283/115/472 284/123/472 135/124/472
f 143/118/473 283/115/473 135/124/473
f 133/125/474 135/124/474 284/123/474
f 160/108/475 133/125/475 284/123/475
f 160/108/476 284/123/476 151/100/476
f 145/94/477 150/99/477 151/100/477
f 133/125/478 160/108/478 134/126/478
f 145/94/479 141/90/479 150/99/479
f 285/153/480 286/161/480 287/160/480
f 286/161/481 288/162/481 287/160/481
f 288/162/482 289/165/482 290/163/482
f 289/165/483 288/162/483 286/161/483
f 287/160/484 288/162/484 290/163/484
f 285/153/485 287/160/485 291/159/485
f 287/160/486 290/163/486 291/159/486
f 292/154/487 289/165/487 286/161/487
f 292/154/488 286/161/488 285/153/488
f 293/155/489 292/154/489 285/153/489
f 293/155/490 285/153/490 294/156/490
f 290/163/491 295/164/491 291/159/491
f 295/164/492 290/163/492 296/166/492
f 297/171/493 295/164/493 296/166/493
f 294/156/494 285/153/494 291/159/494
f 293/155/495 294/156/495 295/164/495
f 294/156/496 291/159/496 295/164/496
f 295/164/497 297/171/497 293/155/497
f 298/157/498 292/154/498 293/155/498
f 299/158/499 298/157/499 293/155/499
f 297/171/500 299/158/500 293/155/500
f 298/157/501 300/167/501 292/154/501
f 300/167/502 289/165/502 292/154/502
f 301/169/503 298/157/503 299/158/503
f 302/170/504 301/169/504 299/158/504
f 302/170/505 299/158/505 297/171/505
f 303/173/506 302/170/506 297/171/506
f 304/174/507 303/173/507 297/171/507
f 296/166/508 304/174/508 297/171/508
f 304/174/509 296/166/509 300/167/509
f 305/168/510 304/174/510 300/167/510
f 301/169/511 305/168/511 298/157/511
f 305/168/512 300/167/512 298/157/512
f 300/167/513 296/166/513 289/165/513
f 296/166/514 290/163/514 289/165/514
f 305/168/515 301/169/515 186/172/515
f 191/178/516 305/168/516 186/172/516
f 305/168/517 191/178/517 304/174/517
f 191/178/518 192/177/518 304/174/518
f 192/177/519 189/176/519 304/174/519
f 189/176/520 303/173/520 304/174/520
f 186/172/521 301/169/521 302/170/521
f 187/175/522 186/172/522 302/170/522
f 189/176/523 187/175/523 303/173/523
f 187/175/524 302/170/524 303/173/524
f 103/69/525 111/74/525 105/70/525
f 111/74/526 106/71/526 105/70/526
f 306/196/527 111/74/527 103/69/527
f 113/75/528 306/196/528 103/69/528
f 111/74/529 306/196/529 112/69/529
f 306/196/530 307/75/530 112/69/530
f 307/75/531 306/196/531 308/68/531
f 306/196/532 309/197/532 308/68/532
f 309/197/533 310/12/533 308/68/533
f 310/12/534 309/197/534 311/11/534
f 309/197/535 312/198/535 311/11/535
f 312/198/536 309/197/536 21/11/536
f 309/197/537 22/12/537 21/11/537
f 22/12/538 309/197/538 102/68/538
f 309/197/539 306/196/539 102/68/539
f 42/25/540 110/70/540 112/69/540
f 110/70/541 42/25/541 47/30/541
f 109/72/542 110/70/542 47/30/542
f 41/24/543 42/25/543 112/69/543
f 102/68/544 306/196/544 113/75/544
f 308/68/545 310/12/545 313/67/545
f 310/12/546 32/8/546 313/67/546
f 20/10/547 314/17/547 21/11/547
f 314/17/548 20/10/548 19/9/548
f 312/198/549 315/199/549 29/17/549
f 311/11/550 312/198/550 29/17/550
f 315/199/551 312/198/551 314/17/551
f 34/18/552 315/199/552 314/17/552
f 34/18/553 314/17/553 26/16/553
f 314/17/554 19/9/554 26/16/554
f 312/198/555 21/11/555 314/17/555
f 311/11/556 30/10/556 32/8/556
f 310/12/557 311/11/557 32/8/557
f 33/6/558 316/66/558 32/8/558
f 316/66/559 313/67/559 32/8/559
f 33/6/560 317/65/560 316/66/560
f 29/17/561 315/199/561 34/18/561
f 28/16/562 29/17/562 34/18/562
f 25/15/563 28/16/563 34/18/563
f 311/11/564 29/17/564 30/10/564
f 41/24/565 317/65/565 33/6/565
f 37/21/566 41/24/566 33/6/566
f 317/65/567 41/24/567 318/76/567
f 41/24/568 112/69/568 318/76/568
f 318/76/569 112/69/569 307/75/569
f 319/4/570 320/3/570 321/2/570
f 322/5/571 319/4/571 321/2/571
f 320/3/572 323/1/572 321/2/572
f 324/200/573 325/201/573 326/202/573
f 327/203/574 324/200/574 326/202/574
f 324/200/575 327/203/575 328/204/575
f 329/205/576 324/200/576 328/204/576
f 313/206/577 329/205/577 308/207/577
f 329/205/578 328/204/578 308/207/578
f 329/205/579 313/206/579 316/208/579
f 330/209/580 329/205/580 316/208/580
f 331/210/581 325/201/581 324/200/581
f 330/209/582 331/210/582 329/205/582
f 331/210/583 324/200/583 329/205/583
f 94/211/584 91/212/584 96/53/584
f 95/54/585 94/211/585 96/53/585
f 332/209/586 333/205/586 334/210/586
f 333/205/587 335/200/587 334/210/587
f 335/200/588 333/205/588 336/204/588
f 337/203/589 335/200/589 336/204/589
f 335/200/590 338/201/590 334/210/590
f 333/205/591 332/209/591 100/208/591
f 101/206/592 333/205/592 100/208/592
f 333/205/593 101/206/593 102/207/593
f 336/204/594 333/205/594 102/207/594
f 339/202/595 338/201/595 335/200/595
f 339/202/596 335/200/596 337/203/596
f 157/102/597 161/98/597 172/97/597
f 184/103/598 157/102/598 172/97/598
f 169/114/599 166/113/599 170/101/599
f 166/113/600 168/110/600 170/101/600
f 166/113/601 169/114/601 152/101/601
f 163/110/602 166/113/602 152/101/602
f 168/110/603 167/109/603 177/106/603
f 167/109/604 65/48/604 177/106/604
f 167/109/605 165/112/605 108/73/605
f 109/72/606 167/109/606 108/73/606
f 167/109/607 109/72/607 65/48/607
f 109/72/608 47/30/608 65/48/608
f 47/30/609 42/25/609 43/26/609
f 178/78/610 65/48/610 46/29/610
f 178/78/611 50/33/611 131/77/611
f 166/113/612 164/111/612 168/110/612
f 178/78/613 46/29/613 50/33/613
f 339/213/614 340/214/614 338/215/614
f 99/216/615 340/214/615 114/217/615
f 339/213/616 337/218/616 340/214/616
f 340/214/617 337/218/617 113/219/617
f 337/218/618 336/220/618 113/219/618
f 114/217/619 340/214/619 113/219/619
f 334/221/620 338/215/620 340/214/620
f 334/221/621 340/214/621 99/216/621
f 332/222/622 334/221/622 99/216/622
f 99/216/623 100/223/623 332/222/623
f 66/49/624 72/55/624 63/46/624
f 58/41/625 66/49/625 63/46/625
f 307/219/626 328/220/626 327/218/626
f 328/220/627 307/219/627 308/224/627
f 307/219/628 327/218/628 341/214/628
f 341/214/629 327/218/629 326/213/629
f 325/215/630 341/214/630 326/213/630
f 307/219/631 341/214/631 318/217/631
f 341/214/632 325/215/632 331/221/632
f 317/216/633 341/214/633 331/221/633
f 318/217/634 341/214/634 317/216/634
f 330/222/635 316/223/635 317/216/635
f 317/216/636 331/221/636 330/222/636
f 62/211/637 71/54/637 70/53/637
f 56/212/638 62/211/638 70/53/638
f 35/19/639 75/58/639 74/59/639
f 35/19/640 79/23/640 75/58/640
f 35/19/641 74/59/641 36/20/641
f 97/21/642 35/19/642 17/7/642
f 16/6/643 97/21/643 17/7/643
f 36/20/644 38/19/644 24/14/644
f 38/19/645 31/7/645 24/14/645
f 114/76/646 103/69/646 98/24/646
f 99/65/647 114/76/647 98/24/647
f 44/27/648 67/50/648 48/31/648
f 102/224/649 113/219/649 336/220/649
