<?xml version="1.0" encoding="utf-8"?>
<COLLADA xmlns="http://www.collada.org/2005/11/COLLADASchema" version="1.4.1">
  <asset>
    <contributor>
      <author>Someone</author>
      <authoring_tool>Assimp Collada Exporter</authoring_tool>
    </contributor>
    <created>2000-01-01T23:59:59</created>
    <modified>2000-01-01T23:59:59</modified>
    <unit name="meter" meter="1" />
    <up_axis>Y_UP</up_axis>
  </asset>
  <library_images>
    <image id="m0bell-diffuse-image">
      <init_from>bell.png</init_from>
    </image>
  </library_images>
  <library_effects>
    <effect id="m0bell-fx" name="m0bell">
      <profile_COMMON>
        <newparam sid="m0bell-diffuse-surface">
          <surface type="2D">
            <init_from>m0bell-diffuse-image</init_from>
          </surface>
        </newparam>
        <newparam sid="m0bell-diffuse-sampler">
          <sampler2D>
            <source>m0bell-diffuse-surface</source>
          </sampler2D>
        </newparam>
        <technique sid="standard">
          <phong>
            <emission>
              <color sid="emission">0   0   0   0</color>
            </emission>
            <ambient>
              <color sid="ambient">1   1   1   1</color>
            </ambient>
            <diffuse>
              <texture texture="m0bell-diffuse-sampler" texcoord="CHANNEL0" />
            </diffuse>
            <specular>
              <color sid="specular">0   0   0   0</color>
            </specular>
            <shininess>
              <float sid="shininess">16</float>
            </shininess>
            <reflective>
              <color sid="reflective">0   0   0   0</color>
            </reflective>
          </phong>
        </technique>
      </profile_COMMON>
    </effect>
  </library_effects>
  <library_materials>
    <material id="m0bell" name="m0bell">
      <instance_effect url="#m0bell-fx" />
    </material>
  </library_materials>
  <library_geometries>
    <geometry id="bell-mesh0" name="bell-mesh0">
      <mesh>
        <source id="bell-mesh0-positions" name="bell-mesh0-positions">
          <float_array id="bell-mesh0-positions-array" count="774"> 1.55135 -0.214875 3.90779 1.55135 0.214875 3.90779 1.28716 0.133169 4.18863 1.55135 0.214875 3.90779 0.786606 0.214875 3.90779 0.786606 0.133169 4.18863 0.786606 0.214875 3.90779 0.786606 -0.214875 3.90779 0.786606 -0.133169 4.18863 0.786606 0.133169 4.18863 0.786606 -0.214875 3.90779 1.55135 -0.214875 3.90779 1.28716 -0.133169 4.18863 0.786606 -0.133169 4.18863 2.7554 0.346289 3.03721 6.38563 0 3.20606 6.38563 0.346289 3.0372 2.7554 0.346289 2.09084 6.38563 0.346289 2.09083 2.7554 0 1.92198 6.38563 0 1.92197 2.7554 -0.346289 2.09084 -0.579292 0.245217 3.01809 0.326805 0.245217 3.92419 2.71525 0.245217 3.92419 3.62135 0.245217 3.01809 3.62135 -0.245217 3.01809 2.71525 -0.245217 3.92419 0.326805 -0.245217 3.92419 -0.579292 -0.245217 3.01809 -0.716304 -0.269053 0.365417 -0.716304 0.269053 0.365417 1.74395 0.269053 0.803622 1.74395 -0.269053 0.803622 2.71525 -0.245217 0.830594 1.74395 -0.269053 0.803622 1.74395 0.269053 0.803622 2.71525 0.245217 0.830594 3.62135 -0.245217 1.73669 2.71525 -0.245217 0.830594 2.71525 0.245217 0.830594 3.62135 0.245217 1.73669 -1.23871 -0.269053 1.41037 -0.579292 -0.245217 1.73669 -0.579292 0.245217 1.73669 -1.23871 0.269053 1.41037 -0.579292 -0.245217 1.73669 -0.579292 0.245217 3.01809 -0.579292 0.245217 1.73669 -0.579292 -0.245217 3.01809 0.326805 -0.245217 3.92419 0.326805 0.245217 3.92419 0.326805 -0.245217 3.92419 2.71525 0.245217 3.92419 0.326805 0.245217 3.92419 2.71525 -0.245217 3.92419 3.62135 -0.245217 3.01809 3.62135 0.245217 3.01809 3.62135 -0.245217 1.73669 3.62135 0.245217 1.73669 1.74395 -0.269053 0.803622 -0.579292 -0.245217 1.73669 -1.23871 -0.269053 1.41037 -0.716304 -0.269053 0.365417 -0.579292 0.245217 1.73669 1.74395 0.269053 0.803622 -0.716304 0.269053 0.365417 -1.23871 0.269053 1.41037 2.71525 0.245217 0.830594 2.71525 -0.245217 0.830594 0.238286 0.123292 0.5736 0.00789967 0 -0.413522 -0.346244 0 0.5736 0.663196 0 -0.598457 -0.947921 0 -0.304576 -1.0243 -0.178112 -0.588309 1.73093 -0.178112 0.843549 0.865282 -0.178112 -0.952178 0.865282 0.178112 -0.952178 -1.1882 -0.41539 -1.25556 -1.26658 -0.41539 -3.11734 -1.26658 0.41539 -3.11734 -1.26658 -0.41539 -3.11734 -3.08888 -0.41539 -3.13694 -3.08888 0.41539 -3.13694 -1.26658 0.41539 -3.11734 -1.87402 -0.41539 0.704206 -1.91321 -0.41539 1.44892 -1.91321 0.41539 1.44892 -0.561182 -0.41539 0.312253 -1.1882 0.41539 -1.25556 -2.67739 -0.41539 -1.25556 2.6418 -0.730343 3.10774 3.13731 -0.552996 2.93039 3.13731 0 3.15944 2.6418 0 3.41025 1.36832 -0.810668 3.18806 1.36832 0 3.52385 1.10219 -0.982838 3.36023 1.10219 0 3.76733 0.74825 -0.982838 3.36023 0.74825 0 3.76733 3.13731 -0.782054 2.37739 3.43262 0 2.37739 2.6418 -1.03287 2.37739 1.36832 -1.14646 2.37739 1.10219 -1.38994 2.37739 0.74825 -1.38994 2.37739 0.74825 -1.38994 2.37739 0.74825 -0.982838 3.36023 1.1087 0 2.37739 3.13731 -0.552996 1.82439 2.6418 -0.730343 1.64704 1.36832 -0.810668 1.56672 1.10219 -0.982838 1.39455 0.74825 -0.982838 1.39455 0.74825 -0.982838 1.39455 3.13731 0 1.59534 2.6418 0 1.34453 1.36832 0 1.23093 1.10219 0 0.987448 0.74825 0 0.987448 0.74825 0 0.987448 3.13731 0.552996 1.82439 2.6418 0.730349 1.64704 1.36832 0.810668 1.56672 1.10219 0.982838 1.39455 0.74825 0.982838 1.39455 0.74825 0.982838 1.39455 3.13731 0.782054 2.37739 2.6418 1.03287 2.37739 1.36832 1.14646 2.37739 1.10219 1.38994 2.37739 0.74825 1.38994 2.37739 0.74825 1.38994 2.37739 3.13731 0.552996 2.93039 2.6418 0.730343 3.10774 1.36832 0.810668 3.18806 1.10219 0.982838 3.36023 0.74825 0.982838 3.36023 -0.0393053 0 3.39614 0.717862 -0.863348 3.24074 0.717862 0 3.59835 -0.0393053 0.720368 3.09776 0.717862 0.863348 3.24074 -0.0393053 -1.01875 2.37739 -0.0393053 -0.720362 3.09776 -0.4677 0 2.37739 -0.0393053 -0.720362 1.65703 -0.0393053 0.720368 1.65703 -0.0393053 1.01875 2.37739 0.717862 1.22096 2.37739 0.717862 0.863348 1.51404 -0.0393053 0 1.35864 0.717862 0 1.15643 -0.510523 -0.119516 3.23534 -0.510523 0.119516 3.23534 -0.947754 0.119516 2.64049 -0.141196 -0.119516 1.79819 -0.947754 -0.119516 2.64049 -0.718213 -0.0927409 2.92848 -1.4955 -0.0927409 3.25711 -1.59328 0 3.10769 -1.66694 0 2.63075 -1.93422 -0.306595 2.78096 -2.2015 0 2.93117 -2.2015 0 2.93117 -1.4205 -0.306595 3.69506 -1.68779 0 3.84527 -1.93422 0.306601 2.78096 -1.93422 0.306601 2.78096 6.83723 -0.730343 1.83367 6.34173 -0.552996 2.01102 6.34173 0 1.78196 6.83723 0 1.53115 8.11072 -0.810668 1.75334 8.11072 0 1.41755 8.37685 -0.982838 1.58117 8.37685 0 1.17407 8.73078 -0.982838 1.58117 8.73078 0 1.17407 6.34173 -0.782054 2.56401 6.04642 0 2.56401 6.83723 -1.03287 2.56401 8.11072 -1.14646 2.56401 8.37685 -1.38994 2.56401 8.73078 -1.38994 2.56401 8.73078 -1.38994 2.56401 8.73078 -0.982838 1.58117 6.68563 0 2.56401 6.34173 -0.552996 3.11701 6.83723 -0.730343 3.29436 8.11072 -0.810668 3.37468 8.37685 -0.982838 3.54685 8.73078 -0.982838 3.54685 8.73078 -0.982838 3.54685 6.34173 0 3.34607 6.83723 0 3.59688 8.11072 0 3.71047 8.37685 0 3.95396 8.73078 0 3.95396 8.73078 0 3.95396 6.34173 0.552996 3.11701 6.83723 0.730349 3.29436 8.11072 0.810668 3.37468 8.37685 0.982838 3.54685 8.73078 0.982838 3.54685 8.73078 0.982838 3.54685 6.34173 0.782054 2.56401 6.83723 1.03287 2.56401 8.11072 1.14646 2.56401 8.37685 1.38994 2.56401 8.73078 1.38994 2.56401 8.73078 1.38994 2.56401 6.34173 0.552996 2.01102 6.83723 0.730349 1.83367 8.11072 0.810668 1.75334 8.37685 0.982838 1.58117 8.73078 0.982838 1.58117 1.28716 -0.133169 4.18863 0.786606 -0.133169 4.18863 2.7554 0 3.20607 6.38563 -0.346289 3.0372 2.7554 -0.346289 3.03721 6.38563 -0.346289 2.09083 0.238286 -0.123286 0.5736 -1.0243 0.178112 -0.588309 1.73093 0.178112 0.843549 1.00344 0 0.741135 -3.08888 0.41539 -3.13694 -2.67739 0.41539 -1.25556 -3.08888 -0.41539 -3.13694 -1.87402 0.41539 0.704206 -1.16863 0.41539 1.52731 -1.16863 -0.41539 1.52731 -0.561182 0.41539 0.312253 0.74825 0 3.76733 0.74825 0.982838 3.36023 0.717862 -1.22095 2.37739 0.717862 -0.863348 1.51404 -0.0108481 -0.119516 3.4309 -0.0108481 0.119516 3.4309 -0.141196 0.119516 1.79819 -1.03192 0.119516 1.40708 -1.03192 -0.119516 1.40708 -0.928168 0 2.64441 -1.4955 0.0927474 3.25711 -0.718213 0.0927474 2.92848 -1.93422 -0.306595 2.78096 -1.15322 0 3.54486 -1.4205 -0.306595 3.69506 -1.15322 0 3.54486 -1.68779 0 3.84527 -1.4205 0.306601 3.69506 -1.66694 0 2.63075 -1.4205 0.306601 3.69506 8.73078 0 1.17407 8.73078 0.982838 1.58117 </float_array>
          <technique_common>
            <accessor count="258" offset="0" source="#bell-mesh0-positions-array" stride="3">
              <param name="X" type="float" />
              <param name="Y" type="float" />
              <param name="Z" type="float" />
            </accessor>
          </technique_common>
        </source>
        <source id="bell-mesh0-normals" name="bell-mesh0-normals">
          <float_array id="bell-mesh0-normals-array" count="774"> 0.606673 -0.399883 0.687052 0.303337 0.799766 0.518036 0.459166 0.302655 0.835205 0.303337 0.799766 0.518036 -0.894427 0.429409 0.12493 -0.298344 0.572933 0.763373 -0.894427 0.429409 0.12493 -0.447214 -0.858819 0.24986 -0.780946 -0.374928 0.499552 -0.298344 0.572933 0.763373 -0.447214 -0.858819 0.24986 0.606673 -0.399883 0.687052 0.189706 -0.500173 0.84489 -0.780946 -0.374928 0.499552 9.35369e-007 0.722129 0.691759 1.18635e-006 0.160435 0.987046 6.23578e-007 0.938279 0.345878 -3.11789e-007 0.938279 -0.345878 -6.23578e-007 0.722131 -0.691757 -8.89764e-007 0.160438 -0.987046 -8.89764e-007 -0.160438 -0.987046 -6.23578e-007 -0.722131 -0.691757 -0.659908 0.731307 0.172371 -0.475962 0.336557 0.812521 0.205599 0.581522 0.787122 0.58851 0.731307 0.344741 0.659908 -0.731307 0.172371 0.475963 -0.336557 0.81252 -0.205599 -0.581522 0.787122 -0.588509 -0.731307 0.344742 0.156841 -0.447214 -0.880569 0.0904661 0.89911 -0.428272 0.0972057 0.456294 -0.884504 0.0537173 -0.899056 -0.434525 0.261444 -0.331635 -0.906458 0.0537173 -0.899056 -0.434525 0.0972057 0.456294 -0.884504 0.4304 0.586872 -0.685811 0.498548 -0.817284 -0.28896 0.261444 -0.331635 -0.906458 0.4304 0.586872 -0.685811 0.787122 0.581523 -0.2056 -0.306775 -0.699486 0.645452 -0.61099 -0.752945 0.244469 -0.280571 0.914751 0.290707 -0.293119 0.706689 0.64395 -0.61099 -0.752945 0.244469 -0.659908 0.731307 0.172371 -0.280571 0.914751 0.290707 -0.588509 -0.731307 0.344742 -0.205599 -0.581522 0.787122 -0.475962 0.336557 0.812521 -0.205599 -0.581522 0.787122 0.205599 0.581522 0.787122 -0.475962 0.336557 0.812521 0.475963 -0.336557 0.81252 0.659908 -0.731307 0.172371 0.58851 0.731307 0.344741 0.498548 -0.817284 -0.28896 0.787122 0.581523 -0.2056 0.0537173 -0.899056 -0.434525 -0.61099 -0.752945 0.244469 -0.306775 -0.699486 0.645452 0.156841 -0.447214 -0.880569 -0.280571 0.914751 0.290707 0.0972057 0.456294 -0.884504 0.0904661 0.89911 -0.428272 -0.293119 0.706689 0.64395 0.4304 0.586872 -0.685811 0.261444 -0.331635 -0.906458 0.601053 0.763674 -0.235665 0.831937 -3.70452e-006 -0.554869 -0.941258 -5.72438e-006 -0.337689 -0.432357 0.0723288 0.898797 0.15903 0.492379 0.855729 -0.000835655 -0.999935 0.0113302 0.786579 -0.487358 -0.379178 -0.0481272 -0.849187 -0.525895 0.456373 0.863433 -0.214959 0.694224 -0.711604 -0.108035 0.446818 -0.894427 -0.0188103 0.893636 0.447214 -0.0376207 0.0107543 0 -0.999942 0.0107543 0 -0.999942 0.0107543 0 -0.999942 0.0107543 0 -0.999942 -0.696305 -0.714767 0.0653291 -0.398075 -0.659051 0.638112 -0.843534 0.401312 0.356928 0.771793 -0.635063 0.032104 0.677474 0.711604 -0.18614 -0.667555 -0.708292 0.229548 0.276509 -0.683998 0.675048 0.695177 -0.559935 0.45078 0.695176 -0.0771853 0.714684 0.276511 -0.00633148 0.96099 0.408356 -0.633567 0.657144 0.408356 0.0166719 0.912671 0.368264 -0.669458 0.645142 0.368263 -0.0171936 0.929563 0 -0.603748 0.797175 0 0.136774 0.990602 0.695177 -0.714682 -0.0771866 1 -2.01222e-009 0 0.276512 -0.96099 -0.00633147 0.408355 -0.912671 0.016673 0.368263 -0.929563 -0.0171936 0 -0.990602 0.136774 -0.96798 0.251026 0 -0.96798 0.177502 -0.177502 -1 0 0 0.695176 -0.450779 -0.559936 0.27651 -0.675045 -0.684 0.408355 -0.657144 -0.633568 0.368264 -0.645142 -0.669458 0 -0.797175 -0.603748 -0.96798 0.177502 0.177502 0.695177 0.0771845 -0.714683 0.27651 0.00633047 -0.96099 0.408356 -0.0166719 -0.912671 0.368263 0.0171936 -0.929563 0 -0.136774 -0.990602 -0.96798 0 0.251026 0.695179 0.559934 -0.450777 0.276511 0.683998 -0.675047 0.408355 0.633567 -0.657145 0.368264 0.669458 -0.645142 0 0.603748 -0.797175 -0.96798 -0.177502 0.177502 0.695177 0.714682 0.0771866 0.276513 0.960989 0.00633418 0.408354 0.912671 -0.0166717 0.368263 0.929563 0.0171936 0 0.990602 -0.136774 -0.96798 -0.251026 0 0.695176 0.450779 0.559936 0.27651 0.675045 0.684 0.408355 0.657144 0.633568 0.368264 0.645142 0.669458 0 0.797175 0.603748 -0.5898 -0.0863099 0.802924 -0.255752 -0.58367 0.770662 -0.25575 0.132224 0.957658 -0.589799 0.506724 0.628783 -0.25575 0.770664 0.583669 -0.589799 -0.802925 -0.0863082 -0.5898 -0.628783 0.506723 -1 0 0 -0.5898 -0.506722 -0.628783 -0.5898 0.628783 -0.506723 -0.5898 0.802924 0.0863097 -0.255752 0.957658 -0.132223 -0.255749 0.583668 -0.770665 -0.589799 0.086308 -0.802925 -0.255751 -0.132225 -0.957658 -0.540331 -0.46174 0.703448 -0.421978 0.721202 0.549366 -0.83289 0.461835 0.304964 0 -1 0 -0.650402 -0.721293 0.238146 0.033319 -0.987998 0.15083 0.337321 -0.499648 0.797851 -0.388345 -0.634102 -0.668657 -0.489919 -1.30726e-006 -0.871768 -0.489919 -1.30726e-006 -0.871768 -0.489919 -1.30726e-006 -0.871768 -0.827029 -0.316232 0.464779 -0.275675 -0.948684 0.154926 -0.827032 0.316222 0.464781 -0.489919 -1.30726e-006 -0.871768 -0.275681 0.948682 0.154929 -0.276511 -0.683999 -0.675046 -0.695177 -0.559935 -0.450778 -0.695178 -0.0771859 -0.714682 -0.276512 -0.00633135 -0.96099 -0.408353 -0.633568 -0.657145 -0.408354 0.0166717 -0.912671 -0.368262 -0.669459 -0.645142 -0.368262 -0.0171938 -0.929563 0 -0.603748 -0.797175 0 0.136774 -0.990602 -0.695178 -0.714682 0.0771867 -1 0 0 -0.276513 -0.960989 0.00633205 -0.408352 -0.912672 -0.0166722 -0.36826 -0.929564 0.0171938 0 -0.990602 -0.136773 0.562099 0.82707 -5.04043e-007 0.5621 0.584827 0.584826 1 -2.01222e-009 0 -0.695176 -0.45078 0.559935 -0.276511 -0.675045 0.684 -0.408354 -0.657143 0.633569 -0.368261 -0.645143 0.669459 0 -0.797175 0.603748 0.562099 0.584827 -0.584827 -0.695178 0.0771865 0.714681 -0.27651 0.00632985 0.96099 -0.408354 -0.0166722 0.912671 -0.368262 0.0171938 0.929563 0 -0.136774 0.990602 0.562099 0 -0.82707 -0.69518 0.559934 0.450776 -0.276513 0.683999 0.675045 -0.408352 0.633567 0.657146 -0.368262 0.669458 0.645143 0 0.603748 0.797175 0.562099 -0.584827 -0.584827 -0.69518 0.71468 -0.0771854 -0.276513 0.960989 -0.00633207 -0.408351 0.912673 0.016672 -0.36826 0.929564 -0.0171927 0 0.990602 0.136774 0.562099 -0.82707 -5.04043e-007 -0.695179 0.450778 -0.559934 -0.276514 0.675045 -0.683999 -0.408353 0.657145 -0.633568 -0.368261 0.645143 -0.669458 0 0.797176 -0.603747 0.189706 -0.500173 0.84489 -0.780946 -0.374928 0.499552 8.89763e-007 -0.16044 0.987046 6.23578e-007 -0.722131 0.691757 3.11789e-007 -0.938279 0.345878 -3.11789e-007 -0.938279 -0.345878 0.601057 -0.763672 -0.23566 -0.163773 0.499872 -0.850475 0.124368 0.988159 -0.0898633 -0.749339 -0.619908 0.23282 -0.436886 0.894427 0.0955529 -0.679746 0.708292 0.190442 -0.873773 -0.447214 0.191106 -0.67883 0.714767 0.168219 0.410454 0.519727 0.749274 0.410454 -0.519727 0.749274 0.519174 0.854396 0.0215959 -0.96798 0 -0.251026 -0.96798 -0.177502 -0.177502 -0.255749 -0.957658 0.132226 -0.255751 -0.770663 -0.583669 -0.257706 -0.707107 0.658474 -0.325976 0.447214 0.83291 0 1 0 -0.705466 0.707107 0.0481396 -0.892352 -0.447214 0.0608923 -0.388122 0.673588 -0.629 0.0129651 0.986844 0.161154 0.340479 0.485317 0.80532 0.275674 -0.948684 -0.154925 0.827029 -0.316233 -0.464779 0.48992 0 0.871767 0.48992 0 0.871767 0.48992 0 0.871767 0.48992 0 0.871767 0.827032 0.316222 -0.46478 0.27568 0.948682 -0.154928 0.5621 0 0.827069 0.5621 -0.584827 0.584826 </float_array>
          <technique_common>
            <accessor count="258" offset="0" source="#bell-mesh0-normals-array" stride="3">
              <param name="X" type="float" />
              <param name="Y" type="float" />
              <param name="Z" type="float" />
            </accessor>
          </technique_common>
        </source>
        <source id="bell-mesh0-tex0" name="bell-mesh0-tex0">
          <float_array id="bell-mesh0-tex0-array" count="516"> 0.628906 0.992188 0.628906 0.972656 0.664063 0.972656 0.628906 0.9375 0.726563 0.9375 0.726563 0.972656 0.724297 0.936635 0.724297 0.936635 0.724297 0.971676 0.724297 0.971676 0.726563 0.9375 0.628906 0.9375 0.664063 0.972656 0.726563 0.972656 0.477404 0.828013 0.0221626 0.849081 0.0221626 0.828013 0.477404 0.709934 0.0221626 0.709934 0.477404 0.688865 0.0221626 0.688865 0.477404 0.709934 0.895585 0.825628 0.781958 0.938681 0.482439 0.938681 0.368813 0.825628 0.368813 0.825628 0.482439 0.938681 0.781958 0.938681 0.895585 0.825628 0.910156 0.472656 0.910156 0.492188 0.601563 0.492188 0.601563 0.472656 0.480469 0.523438 0.601563 0.523438 0.601563 0.542969 0.480469 0.542969 0.371094 0.644531 0.480469 0.535156 0.480469 0.554688 0.371094 0.664063 0.980469 0.738281 0.980469 0.824219 0.945313 0.824219 0.945313 0.738281 0.933594 0.667969 0.894531 0.824219 0.894531 0.667969 0.933594 0.824219 0.933594 0.980469 0.894531 0.980469 0.78125 0.980469 0.484375 0.9375 0.78125 0.9375 0.484375 0.980469 0.375 0.980469 0.375 0.9375 0.368813 0.665747 0.368813 0.665747 0.604243 0.549329 0.895585 0.665747 0.978277 0.625032 0.912766 0.494654 0.895585 0.665747 0.604243 0.549329 0.912766 0.494654 0.978277 0.625032 0.48244 0.552694 0.48244 0.552694 0.89535 0.963643 0.919192 0.852053 0.95584 0.963643 0.588219 0.409945 0.711567 0.431377 0.7176 0.410685 0.503883 0.52292 0.572256 0.384149 0.572256 0.384149 0.109967 0.253144 0.11974 0.0206618 0.11974 0.0206618 0.11974 0.0206618 0.346948 0.0182145 0.346948 0.0182145 0.11974 0.0206618 0.195477 0.497862 0.200363 0.590855 0.200363 0.590855 0.0317889 0.448918 0.109967 0.253144 0.295643 0.253144 0.49165 0.832906 0.429512 0.802966 0.429512 0.831545 0.49165 0.870651 0.651349 0.846834 0.651349 0.884825 0.684723 0.868316 0.684723 0.915204 0.729107 0.868316 0.729107 0.915204 0.429512 0.745688 0.400292 0.745688 0.49165 0.745688 0.651349 0.745688 0.684723 0.745688 0.729107 0.745688 0.729107 0.745688 0.729107 0.868316 0.683906 0.745688 0.429512 0.684503 0.49165 0.658469 0.651349 0.644541 0.684723 0.623059 0.729107 0.623059 0.729107 0.623059 0.429512 0.652017 0.49165 0.620724 0.651349 0.60655 0.684723 0.576171 0.729107 0.576171 0.729107 0.576171 0.429512 0.684503 0.49165 0.658469 0.651349 0.644541 0.684723 0.623059 0.729107 0.623059 0.729107 0.623059 0.429512 0.745688 0.49165 0.745688 0.651349 0.745688 0.684723 0.745688 0.729107 0.745688 0.729107 0.745688 0.429512 0.802966 0.49165 0.832906 0.651349 0.846834 0.684723 0.868316 0.729107 0.868316 0.827869 0.872797 0.732918 0.853407 0.732918 0.898026 0.827869 0.835567 0.732918 0.853407 0.827869 0.745688 0.827869 0.835567 0.881591 0.745688 0.827869 0.655808 0.827869 0.655808 0.827869 0.745688 0.732918 0.745688 0.732918 0.637968 0.827869 0.618578 0.732918 0.593349 0.806253 0.327347 0.806253 0.327347 0.858373 0.256737 0.762229 0.156753 0.858373 0.256737 0.831011 0.290922 0.923666 0.329931 0.935321 0.312195 0.894531 0.0742188 0.93125 0.0746094 0.96875 0.0742188 0.96875 0.0742188 0.93125 0.199219 0.96875 0.199219 0.93125 0.0746094 0.93125 0.0746094 0.630859 0.117839 0.69292 0.138339 0.69292 0.109886 0.630859 0.0787761 0.472646 0.106332 0.472646 0.0646208 0.439507 0.0849453 0.439507 0.0343757 0.395435 0.0849453 0.395435 0.0343757 0.69292 0.207031 0.729692 0.207031 0.631219 0.207031 0.472646 0.207031 0.439507 0.207031 0.395435 0.207031 0.239258 0.501953 0.27002 0.430664 0.341309 0.500488 0.693359 0.276042 0.630208 0.298828 0.473307 0.309896 0.439507 0.329117 0.395435 0.329117 0.270508 0.572754 0.693359 0.30599 0.63151 0.33724 0.473307 0.351563 0.439507 0.379687 0.395435 0.379687 0.341797 0.60498 0.693359 0.276042 0.630208 0.298828 0.473307 0.309896 0.439507 0.329117 0.395435 0.329117 0.414063 0.574707 0.69292 0.207031 0.631219 0.207031 0.472646 0.207031 0.439507 0.207031 0.395435 0.207031 0.444824 0.500488 0.69292 0.138339 0.630859 0.117839 0.472646 0.106332 0.439507 0.0849453 0.395435 0.0849453 0.664063 0.992188 0.726563 0.992188 0.477404 0.849081 0.0221626 0.828013 0.477404 0.828013 0.0221626 0.709934 0.89535 0.963643 0.7176 0.410685 0.503883 0.52292 0.561344 0.515451 0.346948 0.0182145 0.295643 0.253144 0.346948 0.0182145 0.195477 0.497862 0.107527 0.600643 0.107527 0.600643 0.0317889 0.448918 0.729107 0.915204 0.729107 0.868316 0.732918 0.745688 0.732918 0.637968 0.746691 0.350561 0.746691 0.350561 0.762229 0.156753 0.868405 0.110326 0.868405 0.110326 0.856038 0.257202 0.923666 0.329931 0.831011 0.290922 0.93125 0.0746094 0.894531 0.199219 0.93125 0.199219 0.894531 0.199219 0.96875 0.199219 0.93125 0.199219 0.894531 0.0742188 0.93125 0.199219 0.342285 0.398438 0.413086 0.429199 </float_array>
          <technique_common>
            <accessor count="258" offset="0" source="#bell-mesh0-tex0-array" stride="2">
              <param name="S" type="float" />
              <param name="T" type="float" />
            </accessor>
          </technique_common>
        </source>
        <vertices id="bell-mesh0-vertices">
          <input semantic="POSITION" source="#bell-mesh0-positions" />
          <input semantic="NORMAL" source="#bell-mesh0-normals" />
          <input semantic="TEXCOORD" source="#bell-mesh0-tex0" />
        </vertices>
        <polylist count="313" material="theresonlyone">
          <input offset="0" semantic="VERTEX" source="#bell-mesh0-vertices" />
          <vcount>3 3 3 3 3 3 3 3 3 3 3 3 3 3 3 3 3 3 3 3 3 3 3 3 3 3 3 3 3 3 3 3 3 3 3 3 3 3 3 3 3 3 3 3 3 3 3 3 3 3 3 3 3 3 3 3 3 3 3 3 3 3 3 3 3 3 3 3 3 3 3 3 3 3 3 3 3 3 3 3 3 3 3 3 3 3 3 3 3 3 3 3 3 3 3 3 3 3 3 3 3 3 3 3 3 3 3 3 3 3 3 3 3 3 3 3 3 3 3 3 3 3 3 3 3 3 3 3 3 3 3 3 3 3 3 3 3 3 3 3 3 3 3 3 3 3 3 3 3 3 3 3 3 3 3 3 3 3 3 3 3 3 3 3 3 3 3 3 3 3 3 3 3 3 3 3 3 3 3 3 3 3 3 3 3 3 3 3 3 3 3 3 3 3 3 3 3 3 3 3 3 3 3 3 3 3 3 3 3 3 3 3 3 3 3 3 3 3 3 3 3 3 3 3 3 3 3 3 3 3 3 3 3 3 3 3 3 3 3 3 3 3 3 3 3 3 3 3 3 3 3 3 3 3 3 3 3 3 3 3 3 3 3 3 3 3 3 3 3 3 3 3 3 3 3 3 3 3 3 3 3 3 3 3 3 3 3 3 3 3 3 3 3 3 3 3 3 3 3 3 3 3 3 3 3 3 3 3 3 3 3 3 3 </vcount>
          <p>0 1 2 3 4 5 3 5 2 6 7 8 6 8 9 10 11 12 10 12 13 14 15 16 17 14 16 17 16 18 19 17 18 19 18 20 21 19 20 22 23 24 22 24 25 26 27 28 26 28 29 30 31 32 30 32 33 34 35 36 34 36 37 38 39 40 38 40 41 42 43 44 42 44 45 46 47 48 49 50 51 52 53 54 55 56 57 26 58 59 60 61 62 60 62 63 64 65 66 64 66 67 58 26 29 58 29 61 64 59 68 64 68 65 60 69 58 60 58 61 70 71 72 73 74 75 76 77 78 79 80 81 82 83 84 82 84 85 86 87 88 89 79 90 89 87 86 79 89 86 79 86 91 92 93 94 92 94 95 96 92 95 96 95 97 98 96 97 98 97 99 100 98 99 100 99 101 102 103 93 104 102 93 104 93 92 105 104 92 105 92 96 106 105 96 106 96 98 107 106 98 107 98 100 108 109 110 111 103 102 112 111 102 112 102 104 113 112 104 113 104 105 114 113 105 114 105 106 115 114 106 115 106 107 116 108 110 117 103 111 118 117 111 118 111 112 119 118 112 119 112 113 120 119 113 120 113 114 121 120 114 121 114 115 122 116 110 123 103 117 124 123 117 124 117 118 125 124 118 125 118 119 126 125 119 126 119 120 127 126 120 127 120 121 128 122 110 129 103 123 130 129 123 130 123 124 131 130 124 131 124 125 132 131 125 132 125 126 133 132 126 133 126 127 134 128 110 135 103 129 136 135 129 136 129 130 137 136 130 137 130 131 138 137 131 138 131 132 139 138 132 139 132 133 140 141 142 143 140 142 143 142 144 145 146 147 148 145 147 149 150 151 149 151 152 153 149 152 153 152 154 155 156 157 158 155 159 160 161 162 163 164 165 166 167 168 165 169 163 170 166 168 171 172 173 171 173 174 175 171 174 175 174 176 177 175 176 177 176 178 179 177 178 179 178 180 181 182 172 183 181 172 183 172 171 184 183 171 184 171 175 185 184 175 185 175 177 186 185 177 186 177 179 187 188 189 190 182 181 191 190 181 191 181 183 192 191 183 192 183 184 193 192 184 193 184 185 194 193 185 194 185 186 195 187 189 196 182 190 197 196 190 197 190 191 198 197 191 198 191 192 199 198 192 199 192 193 200 199 193 200 193 194 201 195 189 202 182 196 203 202 196 203 196 197 204 203 197 204 197 198 205 204 198 205 198 199 206 205 199 206 199 200 207 201 189 208 182 202 209 208 202 209 202 203 210 209 203 210 203 204 211 210 204 211 204 205 212 211 205 212 205 206 213 207 189 214 182 208 215 214 208 215 208 209 216 215 209 216 209 210 217 216 210 217 210 211 218 217 211 218 211 212 0 2 219 2 5 219 219 5 220 14 221 15 221 222 15 221 223 222 223 224 222 223 21 224 21 20 224 46 49 47 49 51 47 52 55 53 55 57 53 26 59 25 59 64 25 25 64 22 72 71 225 71 70 225 73 75 77 75 226 77 77 226 78 226 74 78 78 74 73 76 78 227 78 73 227 227 73 228 73 77 228 228 77 76 79 81 90 81 229 90 90 229 230 229 231 230 230 231 91 231 80 91 91 80 79 91 86 232 86 88 232 232 88 233 88 87 233 233 87 234 87 89 234 234 89 233 89 235 233 233 235 232 235 230 232 232 230 91 89 90 235 90 230 235 93 103 94 103 135 94 94 135 95 135 136 95 95 136 97 136 137 97 97 137 99 137 138 99 99 138 101 138 139 101 109 236 110 236 237 110 110 237 134 146 140 147 140 143 147 147 143 150 143 144 150 150 144 151 140 146 141 146 238 141 146 145 238 145 239 238 145 148 239 148 154 239 150 149 147 149 153 147 147 153 148 153 154 148 158 240 155 240 241 155 155 241 156 241 242 156 156 242 157 242 243 157 157 243 244 155 157 159 157 244 159 159 244 158 160 162 245 162 246 245 245 246 247 246 161 247 247 161 160 166 248 167 248 249 167 250 251 252 251 253 252 248 254 249 254 255 249 254 170 255 170 168 255 172 182 173 182 214 173 173 214 174 214 215 174 174 215 176 215 216 176 176 216 178 216 217 178 178 217 180 217 218 180 188 256 189 256 257 189 189 257 213 </p>
        </polylist>
      </mesh>
    </geometry>
  </library_geometries>
  <library_visual_scenes>
    <visual_scene id="myScene" name="myScene">
      <node id="wg004" name="wg004">
        <matrix>1.94707e-007 0 1 0 0 1 0 0 -1 0 1.94707e-007 0 0 0 0 1</matrix>
        <node id="bell" name="bell">
          <matrix>1.94707e-007 -0 -1 -0.162063 0 1 -0 0 1 0 1.94707e-007 3.15549e-008 0 0 0 1</matrix>
          <instance_geometry url="#bell-mesh0">
            <bind_material>
              <technique_common>
                <instance_material symbol="theresonlyone" target="#m0bell" />
              </technique_common>
            </bind_material>
          </instance_geometry>
          <node id="gcol00" name="gcol00">
            <matrix>1.94707e-007 0 1 8.74975 0 1 0 -0.0089159 -1 0 1.94707e-007 2.55858 0 0 0 1</matrix>
          </node>
          <node id="gcol01" name="gcol01">
            <matrix>2.21972e-007 -1 -2.65684e-007 0.296551 0.707107 -3.09086e-008 0.707107 1.10503 -0.707107 -3.44825e-007 0.707107 2.21754 0 0 0 1</matrix>
          </node>
          <node id="gcol02" name="gcol02">
            <matrix>-0.00199948 -0.999998 7.21193e-008 0.395034 0.707106 -0.0014138 0.707106 2.98304 -0.707105 0.0014139 0.707107 4.01932 0 0 0 1</matrix>
          </node>
          <node id="sp" name="sp">
            <matrix>1.94707e-007 0 1 13.7497 0 1 0 -0.0089159 -1 0 1.94707e-007 2.55858 0 0 0 1</matrix>
          </node>
        </node>
      </node>
    </visual_scene>
  </library_visual_scenes>
  <scene>
    <instance_visual_scene url="#myScene" />
  </scene>
</COLLADA>