<?xml version="1.0" encoding="utf-8"?>
<COLLADA xmlns="http://www.collada.org/2005/11/COLLADASchema" version="1.4.1">
  <asset>
    <contributor>
      <author>Someone</author>
      <authoring_tool>Assimp Collada Exporter</authoring_tool>
    </contributor>
    <created>2000-01-01T23:59:59</created>
    <modified>2000-01-01T23:59:59</modified>
    <unit name="meter" meter="1" />
    <up_axis>Y_UP</up_axis>
  </asset>
  <library_images>
    <image id="m0grenade-diffuse-image">
      <init_from>grenade.png</init_from>
    </image>
  </library_images>
  <library_effects>
    <effect id="m0grenade-fx" name="m0grenade">
      <profile_COMMON>
        <newparam sid="m0grenade-diffuse-surface">
          <surface type="2D">
            <init_from>m0grenade-diffuse-image</init_from>
          </surface>
        </newparam>
        <newparam sid="m0grenade-diffuse-sampler">
          <sampler2D>
            <source>m0grenade-diffuse-surface</source>
          </sampler2D>
        </newparam>
        <technique sid="standard">
          <phong>
            <emission>
              <color sid="emission">0   0   0   0</color>
            </emission>
            <ambient>
              <color sid="ambient">1   1   1   1</color>
            </ambient>
            <diffuse>
              <texture texture="m0grenade-diffuse-sampler" texcoord="CHANNEL0" />
            </diffuse>
            <specular>
              <color sid="specular">0   0   0   0</color>
            </specular>
            <shininess>
              <float sid="shininess">16</float>
            </shininess>
            <reflective>
              <color sid="reflective">0   0   0   0</color>
            </reflective>
          </phong>
        </technique>
      </profile_COMMON>
    </effect>
  </library_effects>
  <library_materials>
    <material id="m0grenade" name="m0grenade">
      <instance_effect url="#m0grenade-fx" />
    </material>
  </library_materials>
  <library_geometries>
    <geometry id="grenade-mesh0" name="grenade-mesh0">
      <mesh>
        <source id="grenade-mesh0-positions" name="grenade-mesh0-positions">
          <float_array id="grenade-mesh0-positions-array" count="726"> -0.722292 1.6407 1.44995 -1.96903 -3.11744e-006 0.779385 -1.96903 1.63431 1.45634 2.18535 -1.4832 1.60747 2.57365 -2.06781 3.09066 -0.722292 -2.32031 3.09066 2.02122 -3.11744e-006 0.980532 -0.722292 -1.64071 1.44995 2.18535 1.48319 1.60747 2.57365 2.0678 3.09066 2.57365 -2.06781 3.09066 2.18535 -1.4832 1.60747 2.02122 -3.11744e-006 0.980532 -0.722292 2.32031 3.09066 -1.96903 2.31127 3.09066 -1.96903 -2.31128 3.09066 -0.722292 -2.32031 3.09066 2.57365 -2.06781 3.09066 2.57365 2.0678 3.09066 1.69634 -0.17549 1.0303 0.816985 0.175484 -0.687669 1.69634 0.175484 1.0303 0.816985 -0.17549 -0.687669 -0.855578 -0.17549 -0.105283 -0.855578 0.175484 -0.105283 0.816985 0.175484 -0.687669 -0.855578 0.175484 -0.105283 -0.774978 -3.28151e-006 0.156716 0.607637 -3.28151e-006 -0.290467 0.998295 -3.28151e-006 0.993554 1.69634 0.175484 1.0303 -0.406897 -0.349136 1.12938 -1.41278 0.34913 -1.78926 -0.406897 0.34913 1.12938 -2.36505 -0.349136 -2.78081 -3.02323 -0.349136 -2.24994 -3.02323 0.34913 -2.24994 -2.45713 -0.349136 -1.36119 -1.46507 -0.349136 1.09275 -1.46507 0.34913 1.09275 -2.45713 0.34913 -1.36119 -1.41278 -0.349136 -1.78926 0.312436 0.0997825 0.919246 0.0814143 -3.28151e-006 -0.0706107 -0.273714 -3.28151e-006 0.919246 -2.85874 -3.11744e-006 5.49817 -1.86485 -1.70237 4.79303 -1.86485 -3.11744e-006 5.49817 -2.85874 1.70236 1.38829 -2.85874 -3.11744e-006 0.68315 -2.85874 -1.70237 1.38829 -1.86485 1.70236 1.38829 -1.86485 -2.40751 3.09066 -1.86485 -1.70237 1.38829 -2.85874 -1.70237 4.79303 -2.85874 -3.11744e-006 5.49817 -2.85874 1.70236 4.79303 -1.86485 -1.70237 4.79303 -1.86485 2.40751 3.09066 -1.86485 1.70236 4.79303 -2.85874 1.70236 4.79303 -2.85874 2.40751 3.09066 -1.86485 -3.11744e-006 0.68315 -2.85874 -2.40751 3.09066 -1.86485 -3.11744e-006 5.49817 3.1169 -3.11744e-006 5.29465 4.56177 -1.55846 4.64912 4.56177 -3.11744e-006 5.29465 3.1169 1.55845 1.53221 3.1169 -3.11744e-006 0.886672 3.1169 -1.55846 1.5322 4.56177 1.55845 1.5322 4.56177 -2.20399 3.09066 4.56177 -1.55846 1.5322 3.1169 -1.55846 4.64912 3.1169 -3.11744e-006 5.29465 3.1169 1.55845 4.64912 4.56177 -1.55846 4.64912 4.56177 2.20399 3.09066 4.56177 1.55845 4.64912 3.1169 1.55845 4.64912 4.56177 -3.11744e-006 0.88667 3.1169 2.20399 3.09066 4.56177 -3.11744e-006 5.29465 3.1169 -2.20399 3.09066 0.0052648 -1.49809 4.58875 0.0052648 -3.11744e-006 5.20927 0.0052648 1.49808 4.58875 0.0052648 -3.11744e-006 5.20927 0.879883 -1.49809 4.58875 0.879883 -3.11744e-006 5.20927 0.879883 -1.49809 4.58875 0.879883 -2.11861 3.09066 0.879883 2.11861 3.09066 0.879883 1.49808 4.58875 0.0052648 -1.49809 4.58875 0.0052648 -2.11861 3.09066 0.879883 -2.11861 3.09066 0.0052648 1.49808 4.58875 0.879883 1.49808 4.58875 0.0052648 2.11861 3.09066 0.879883 2.11861 3.09066 0.879883 -3.11744e-006 5.20927 0.0052648 2.11861 3.09066 0.0052648 -2.11861 3.09066 -3.94873 0.414469 2.67619 -4.29729 -3.11744e-006 2.66327 -4.29729 0.302206 2.78845 -3.94873 -3.11744e-006 2.50451 -3.94873 -0.414475 2.67619 -4.29729 -0.302212 2.78845 -4.29729 0.427385 3.09066 -4.44121 -3.11744e-006 3.09066 -3.94873 0.58615 3.09066 -4.29729 0.302206 3.39287 -3.94873 0.414469 3.50514 -3.94873 -3.11744e-006 3.67682 -4.29729 -3.11744e-006 3.51805 -3.94873 -0.414475 3.50514 6.30745 -3.11744e-006 1.36855 7.46189 -3.11744e-006 0.958984 7.46189 -1.50733 1.58334 6.30745 -1.21772 1.87294 4.10208 -3.11744e-006 1.35817 4.10208 -1.22506 1.8656 -0.722292 -3.11744e-006 1.02991 -0.722292 -1.45717 1.63349 -2.9965 -3.11744e-006 1.04455 -2.9965 -1.44682 1.64385 -3.65971 -3.11744e-006 1.45258 -3.65971 -1.1583 1.93236 -4.23176 -3.11744e-006 3.09066 -3.65971 -3.11744e-006 1.45258 -3.65971 -1.1583 1.93236 6.30745 -1.21772 1.87294 7.46189 -1.50733 1.58334 7.46189 -2.13168 3.09066 4.10208 -1.22506 1.8656 6.30745 -1.72211 3.09066 -0.722292 -1.45717 1.63349 4.10208 -1.7325 3.09066 -2.9965 -1.44682 1.64385 -0.722292 -2.06075 3.09066 -2.9965 -2.04611 3.09066 -3.65971 -1.63808 3.09066 -3.65971 -1.1583 4.24896 6.30745 -1.21772 4.30837 7.46189 -1.50733 4.59798 7.46189 -3.11744e-006 5.22234 4.10208 -1.22506 4.31572 6.30745 -3.11744e-006 4.81277 -0.722292 -1.45717 4.54783 4.10208 -3.11744e-006 4.82315 -2.9965 -1.44682 4.53748 -0.722292 -3.11744e-006 5.15141 -3.65971 -1.1583 4.24896 -2.9965 -3.11744e-006 5.13677 -3.65971 -3.11744e-006 4.72874 -3.65971 1.15829 4.24896 6.30745 1.21771 4.30837 7.46189 1.50732 4.59798 7.46189 2.13167 3.09066 4.10208 1.22505 4.31572 6.30745 1.72211 3.09066 -0.722292 1.45717 4.54783 4.10208 1.73249 3.09066 -2.9965 1.44681 4.53748 -0.722292 2.06074 3.09066 -2.9965 2.0461 3.09066 -3.65971 1.63808 3.09066 -3.65971 1.15829 1.93236 6.30745 1.21771 1.87294 7.46189 1.50732 1.58334 4.10208 1.22505 1.8656 -0.722292 1.45717 1.63349 -2.9965 1.44681 1.64385 -3.65971 1.15829 1.93236 -0.722292 -3.11744e-006 0.770348 -1.96903 -1.63432 1.45634 -1.96903 -2.31128 3.09066 2.57365 2.0678 3.09066 2.18535 1.48319 1.60747 -0.722292 2.32031 3.09066 -1.96903 2.31127 3.09066 -2.36505 0.34913 -2.78081 -1.50871 -0.349136 -2.80473 -1.50871 0.34913 -2.80473 0.312436 -0.0997891 0.919246 0.312436 0.0997825 0.919246 -2.85874 -1.70237 4.79303 -1.86485 -2.40751 3.09066 -2.85874 -2.40751 3.09066 -1.86485 -1.70237 1.38829 -2.85874 -1.70237 1.38829 -1.86485 -3.11744e-006 0.68315 -2.85874 -3.11744e-006 0.68315 -1.86485 1.70236 1.38829 -2.85874 1.70236 1.38829 -1.86485 2.40751 3.09066 -2.85874 2.40751 3.09066 -1.86485 1.70236 4.79303 3.1169 -1.55846 4.64912 4.56177 -2.20399 3.09066 3.1169 -2.20399 3.09066 4.56177 -1.55846 1.5322 3.1169 -1.55846 1.5322 4.56177 -3.11744e-006 0.88667 3.1169 -3.11744e-006 0.886672 4.56177 1.55845 1.5322 3.1169 1.55845 1.53221 4.56177 2.20399 3.09066 3.1169 2.20399 3.09066 4.56177 1.55845 4.64912 -4.29729 -0.427391 3.09066 -3.94873 -0.586156 3.09066 -4.29729 -0.302212 3.39287 7.46189 -3.11744e-006 0.958984 5.37952 -3.11744e-006 3.09066 7.46189 -1.50733 1.58334 7.46189 -2.13168 3.09066 7.46189 -1.50733 4.59798 6.30745 -1.21772 4.30837 4.10208 -1.22506 4.31572 -0.722292 -1.45717 4.54783 -2.9965 -1.44682 4.53748 7.46189 -1.50733 4.59798 7.46189 -3.11744e-006 5.22234 7.46189 1.50732 4.59798 6.30745 1.21771 4.30837 4.10208 1.22505 4.31572 -0.722292 1.45717 4.54783 -2.9965 1.44681 4.53748 -3.65971 -3.11744e-006 4.72874 -3.65971 1.15829 4.24896 7.46189 1.50732 4.59798 7.46189 2.13167 3.09066 7.46189 1.50732 1.58334 6.30745 1.21771 1.87294 4.10208 1.22505 1.8656 -0.722292 1.45717 1.63349 -2.9965 1.44681 1.64385 7.46189 1.50732 1.58334 </float_array>
          <technique_common>
            <accessor count="242" offset="0" source="#grenade-mesh0-positions-array" stride="3">
              <param name="X" type="float" />
              <param name="Y" type="float" />
              <param name="Z" type="float" />
            </accessor>
          </technique_common>
        </source>
        <source id="grenade-mesh0-normals" name="grenade-mesh0-normals">
          <float_array id="grenade-mesh0-normals-array" count="726"> 0.0346084 0.706562 -0.706804 -0.00724881 8.87086e-008 -0.999974 -0.00718109 0.797155 -0.603732 0.0756736 -0.79489 -0.602017 0.0706027 -0.921574 -0.381728 0.044866 -0.922949 -0.382298 0.0756737 -0.136382 -0.987762 0.0285789 -0.663895 -0.74728 0.967397 -1.16737e-007 -0.253263 0.967397 -1.16737e-007 -0.253263 0.967397 -1.16737e-007 -0.253263 0.967397 -1.16737e-007 -0.253263 0.967397 -1.16737e-007 -0.253263 0 0 1 0 0 1 0 0 1 0 0 1 0 0 1 0 0 1 0.777355 -0.487235 -0.397897 0.458453 0.859746 -0.225072 0.136968 0.9858 -0.0971466 -0.100245 -0.855228 -0.508464 0.000338928 -0.999751 0.0223105 -0.284884 0.499453 -0.818161 0.458453 0.859746 -0.225072 -0.284884 0.499453 -0.818161 0.275232 0.486455 0.829222 -0.313097 0.0798996 0.946354 -0.716639 -0.648562 0.256507 0.136968 0.9858 -0.0971466 0.845616 -0.447214 -0.291433 0.682472 0.709326 -0.176319 0.422808 0.894427 -0.145717 -0.309648 -0.723736 -0.616705 -0.911728 -0.39389 0.116631 -0.826797 0.39389 -0.401569 -0.637023 -0.708422 0.303875 -0.414614 -0.894427 0.167617 -0.829228 0.447214 0.335233 -0.523494 0.80107 0.290242 0.588638 -0.801806 -0.103021 0.61822 0.754488 -0.220344 0.878441 0 -0.47785 -0.941257 0 -0.337692 0 -0.136774 0.990602 0 -0.603749 0.797175 0 0.136774 0.990602 -1 0 0 -1 0 0 -1 0 0 1 0 0 1 0 0 1 0 0 -1 0 0 -1 0 0 -1 0 0 1 0 0 1 0 0 1 0 0 0 0.603749 0.797175 -1 0 0 1 0 0 -1 0 0 1 0 0 0 -0.136774 0.990602 0 -0.603749 0.797175 0 0.136774 0.990602 -1 0 0 -1 0 0 -1 0 0 1 0 0 1 0 0 1 0 0 -1 0 0 -1 0 0 -1 0 0 1 0 0 1 0 0 1 0 0 0 0.603749 0.797175 1 0 0 -1 0 0 1 0 0 -1 0 0 -1 0 0 -1 0 0 -1 0 0 0 -0.136774 0.990602 0 -0.603749 0.797175 0 0.136774 0.990602 1 0 0 1 0 0 1 0 0 1 0 0 0 -0.797175 0.603748 0 -0.92388 0.382683 0 -0.92388 0.382683 0 0.603749 0.797175 0 0.797175 0.603748 2.99126e-007 0.923879 0.382684 2.99126e-007 0.923879 0.382684 1 0 0 -1 0 0 -1 0 0 -0.411286 0.55032 -0.72663 -0.688291 0.0797898 -0.721033 -0.688291 0.566267 -0.453428 -0.411286 -0.12467 -0.90294 -0.411286 -0.72663 -0.550321 -0.688291 -0.453427 -0.566268 -0.688291 0.721033 0.0797897 -1 0 0 -0.411286 0.90294 -0.12467 -0.688292 0.453427 0.566267 -0.411286 0.72663 0.55032 -0.411287 0.12467 0.90294 -0.688292 -0.07979 0.721033 -0.411286 -0.55032 0.72663 -0.168026 0.00347095 -0.985776 -0.331562 0.129037 -0.934567 -0.331562 -0.569596 -0.752082 -0.168026 -0.694595 -0.699504 0.0363195 -0.000135135 -0.99934 0.0363194 -0.706736 -0.706544 0.0307504 0.000134919 -0.999527 0.0307504 -0.706677 -0.706868 -0.27813 -0.00926566 -0.960499 -0.278129 -0.685727 -0.672624 -0.736377 -0.0730598 -0.672616 -0.736376 -0.527272 -0.42395 -1 0 0 -0.736377 -0.0730598 -0.672616 -0.736376 -0.527272 -0.42395 -0.168026 -0.694595 -0.699504 -0.331562 -0.569596 -0.752082 -0.331563 -0.934567 -0.129037 0.0363194 -0.706736 -0.706544 -0.168026 -0.985776 -0.0034709 0.0307504 -0.706677 -0.706868 0.0363195 -0.99934 0.000135221 -0.278129 -0.685727 -0.672624 0.0307506 -0.999527 -0.000135091 -0.278129 -0.960499 0.0092653 -0.736377 -0.672616 0.0730596 -0.736377 -0.42395 0.527272 -0.168026 -0.699504 0.694595 -0.331563 -0.752081 0.569596 -0.331563 -0.129037 0.934567 0.0363199 -0.706545 0.706735 -0.168026 -0.00347097 0.985776 0.0307508 -0.706868 0.706677 0.0363198 0.00013571 0.99934 -0.27813 -0.672623 0.685727 0.0307508 -0.000134461 0.999527 -0.736377 -0.42395 0.527272 -0.278129 0.00926583 0.960499 -0.736377 0.0730596 0.672616 -0.736377 0.527272 0.42395 -0.168026 0.694595 0.699503 -0.331563 0.569596 0.752081 -0.331562 0.934567 0.129036 0.0363197 0.706736 0.706544 -0.168026 0.985776 0.00347074 0.0307508 0.706677 0.706868 0.0363196 0.99934 -0.000135549 -0.278129 0.685727 0.672624 0.0307507 0.999527 0.000134763 -0.278129 0.960499 -0.0092657 -0.736377 0.672616 -0.0730602 -0.736377 0.42395 -0.527272 -0.168026 0.699503 -0.694595 -0.331562 0.752082 -0.569596 0.0363194 0.706544 -0.706736 0.0307505 0.706868 -0.706677 -0.278129 0.672623 -0.685727 -0.736377 0.42395 -0.527272 0.0428314 0.082403 -0.995678 -0.00724826 -0.707089 -0.707088 -0.00669652 -0.923859 -0.382675 0.070603 0.921574 -0.381729 0.0756736 0.602017 -0.794889 0.019082 0.923711 -0.382614 -0.0066974 0.923859 -0.382675 -0.164927 0.723736 -0.670079 0.375445 -0.399524 -0.836314 0.784352 0.399524 -0.474523 0.61822 -0.754488 -0.220344 0.61822 0.754488 -0.220344 0 -0.797175 0.603748 0 -0.990602 0.136774 0 -0.990602 -0.136774 0 -0.797175 -0.603748 0 -0.603748 -0.797175 0 -0.136774 -0.990602 0 0.136774 -0.990602 0 0.603748 -0.797175 0 0.797175 -0.603748 0 0.990602 -0.136774 0 0.990602 0.136774 0 0.797175 0.603748 0 -0.797175 0.603748 0 -0.990602 0.136774 0 -0.990602 -0.136774 0 -0.797175 -0.603748 0 -0.603748 -0.797175 0 -0.136774 -0.990602 0 0.136774 -0.990602 0 0.603748 -0.797175 0 0.797175 -0.603748 0 0.990602 -0.136774 0 0.990602 0.136774 0 0.797175 0.603748 -0.688292 -0.721033 -0.0797903 -0.411286 -0.90294 0.12467 -0.688292 -0.566267 0.453427 0.715331 -1.70641e-007 0.698786 1 0 0 0.715331 0.494116 0.494116 0.715331 0.698786 2.17179e-007 -0.331563 -0.752081 0.569596 -0.168026 -0.699504 0.694595 0.0363199 -0.706545 0.706735 0.0307508 -0.706868 0.706677 -0.27813 -0.672623 0.685727 0.715331 0.494116 -0.494116 0.715331 -1.55128e-007 -0.698786 -0.331563 0.569596 0.752081 -0.168026 0.694595 0.699503 0.0363197 0.706736 0.706544 0.0307508 0.706677 0.706868 -0.278129 0.685727 0.672624 -0.736377 0.0730596 0.672616 -0.736377 0.527272 0.42395 0.715331 -0.494116 -0.494116 0.715331 -0.698786 2.17179e-007 -0.331562 0.752082 -0.569596 -0.168026 0.699503 -0.694595 0.0363194 0.706544 -0.706736 0.0307505 0.706868 -0.706677 -0.278129 0.672623 -0.685727 0.715331 -0.494117 0.494117 </float_array>
          <technique_common>
            <accessor count="242" offset="0" source="#grenade-mesh0-normals-array" stride="3">
              <param name="X" type="float" />
              <param name="Y" type="float" />
              <param name="Z" type="float" />
            </accessor>
          </technique_common>
        </source>
        <source id="grenade-mesh0-tex0" name="grenade-mesh0-tex0">
          <float_array id="grenade-mesh0-tex0-array" count="484"> 0.769531 0.171875 0.867188 0.0429688 0.867188 0.171875 0.558594 0.171875 0.527344 0.308594 0.769531 0.308594 0.566406 0.0429688 0.769531 0.171875 0.558594 0.171875 0.527344 0.308594 0.527344 0.308594 0.558594 0.171875 0.566406 0.0429688 0.769531 0.308594 0.867188 0.308594 0.867188 0.308594 0.769531 0.308594 0.527344 0.308594 0.527344 0.308594 0.809896 0.485677 0.866211 0.374674 0.809896 0.485352 0.866211 0.374023 0.976888 0.410482 0.976563 0.410156 0.866211 0.374023 0.976888 0.410482 0.971029 0.429688 0.879232 0.401042 0.855143 0.482747 0.809896 0.485677 0.515625 0.347656 0.730469 0.34375 0.515625 0.347656 0.824219 0.382813 0.804688 0.441406 0.804688 0.441406 0.730469 0.425781 0.546875 0.421875 0.546875 0.421875 0.730469 0.425781 0.730469 0.34375 0.286133 0.481445 0.303711 0.399414 0.330566 0.481934 0.476906 0.393043 0.421531 0.296148 0.421531 0.393043 0.210938 0.0671165 0.130208 0.0334201 0.0514915 0.0667614 0.210938 0.0671165 0.0184659 0.145597 0.0514915 0.0667614 0.0525568 0.227628 0.131392 0.261364 0.210938 0.227628 0.0525568 0.227628 0.243608 0.146307 0.210938 0.227628 0.476906 0.296148 0.243608 0.146307 0.130208 0.0334201 0.0184659 0.145597 0.131392 0.261364 0.358014 0.382074 0.274799 0.288691 0.274799 0.382074 0.210938 0.0671165 0.130208 0.0334201 0.0514915 0.0667614 0.210938 0.0671165 0.0184659 0.145597 0.0514915 0.0667614 0.0525568 0.227628 0.131392 0.261364 0.210938 0.227628 0.0525568 0.227628 0.243608 0.146307 0.210938 0.227628 0.358014 0.288691 0.130208 0.0334201 0.243608 0.146307 0.131392 0.261364 0.0184659 0.145597 0.96875 0.171875 0.96875 0.292969 0.96875 0.171875 0.96875 0.292969 0.898438 0.171875 0.898438 0.292969 0.898438 0.171875 0.898438 0.0507813 0.898438 0.0507813 0.898438 0.171875 0.96875 0.171875 0.96875 0.0507813 0.898438 0.0507813 0.96875 0.171875 0.898438 0.171875 0.96875 0.0507813 0.898438 0.0507813 0.898438 0.292969 0.96875 0.0507813 0.96875 0.0507813 0.911133 0.715495 0.93457 0.713216 0.934896 0.722656 0.911133 0.700521 0.911133 0.715495 0.934896 0.722656 0.935221 0.744141 0.946615 0.744141 0.910807 0.744141 0.935221 0.767253 0.910807 0.775065 0.910482 0.78776 0.934896 0.776693 0.910807 0.775065 0.152344 0.507813 0.0625 0.507813 0.0625 0.621094 0.152344 0.601563 0.3125 0.507813 0.3125 0.601563 0.671875 0.507813 0.671875 0.617188 0.839844 0.507813 0.839844 0.617188 0.890625 0.507813 0.890625 0.597656 0.929688 0.742188 0.890625 0.621094 0.890625 0.660156 0.152344 0.652344 0.0625 0.632813 0.0625 0.742188 0.3125 0.652344 0.152344 0.742188 0.671875 0.632813 0.3125 0.742188 0.839844 0.636719 0.671875 0.742188 0.839844 0.742188 0.890625 0.742188 0.890625 0.828125 0.152344 0.882813 0.0625 0.863281 0.0625 0.976563 0.3125 0.882813 0.152344 0.976563 0.671875 0.863281 0.3125 0.976563 0.839844 0.867188 0.671875 0.976563 0.890625 0.890625 0.839844 0.976563 0.890625 0.867188 0.890625 0.828125 0.152344 0.835938 0.0625 0.855469 0.0625 0.742188 0.3125 0.835938 0.152344 0.742188 0.671875 0.855469 0.3125 0.742188 0.839844 0.851563 0.671875 0.742188 0.839844 0.742188 0.890625 0.742188 0.890625 0.660156 0.152344 0.601563 0.0625 0.621094 0.3125 0.601563 0.671875 0.617188 0.839844 0.617188 0.890625 0.597656 0.769531 0.0429688 0.867188 0.171875 0.867188 0.308594 0.527344 0.308594 0.558594 0.171875 0.769531 0.308594 0.867188 0.308594 0.824219 0.382813 0.804688 0.324219 0.804688 0.324219 0.286133 0.481445 0.286133 0.480957 0.476906 0.296148 0.421531 0.203129 0.476906 0.203129 0.421531 0.11011 0.476906 0.11011 0.421531 0.0170908 0.476906 0.0170908 0.421531 0.11011 0.476906 0.11011 0.421531 0.203129 0.476906 0.203129 0.421531 0.296148 0.358014 0.288691 0.274799 0.195307 0.358014 0.195307 0.274799 0.098032 0.358014 0.098032 0.274799 0.00464821 0.358014 0.00464821 0.274799 0.098032 0.358014 0.098032 0.274799 0.195307 0.358014 0.195307 0.274799 0.288691 0.935221 0.744141 0.910807 0.744141 0.935221 0.767253 0.134277 0.283203 0.134277 0.384277 0.0639648 0.313477 0.0351563 0.384766 0.0625 0.855469 0.152344 0.835938 0.3125 0.835938 0.671875 0.855469 0.839844 0.851563 0.0644531 0.455078 0.134375 0.484375 0.0625 0.863281 0.152344 0.882813 0.3125 0.882813 0.671875 0.863281 0.839844 0.867188 0.890625 0.976563 0.890625 0.890625 0.207031 0.457031 0.236816 0.383789 0.0625 0.632813 0.152344 0.652344 0.3125 0.652344 0.671875 0.632813 0.839844 0.636719 0.207031 0.312988 </float_array>
          <technique_common>
            <accessor count="242" offset="0" source="#grenade-mesh0-tex0-array" stride="2">
              <param name="S" type="float" />
              <param name="T" type="float" />
            </accessor>
          </technique_common>
        </source>
        <vertices id="grenade-mesh0-vertices">
          <input semantic="POSITION" source="#grenade-mesh0-positions" />
          <input semantic="NORMAL" source="#grenade-mesh0-normals" />
          <input semantic="TEXCOORD" source="#grenade-mesh0-tex0" />
        </vertices>
        <polylist count="250" material="theresonlyone">
          <input offset="0" semantic="VERTEX" source="#grenade-mesh0-vertices" />
          <vcount>3 3 3 3 3 3 3 3 3 3 3 3 3 3 3 3 3 3 3 3 3 3 3 3 3 3 3 3 3 3 3 3 3 3 3 3 3 3 3 3 3 3 3 3 3 3 3 3 3 3 3 3 3 3 3 3 3 3 3 3 3 3 3 3 3 3 3 3 3 3 3 3 3 3 3 3 3 3 3 3 3 3 3 3 3 3 3 3 3 3 3 3 3 3 3 3 3 3 3 3 3 3 3 3 3 3 3 3 3 3 3 3 3 3 3 3 3 3 3 3 3 3 3 3 3 3 3 3 3 3 3 3 3 3 3 3 3 3 3 3 3 3 3 3 3 3 3 3 3 3 3 3 3 3 3 3 3 3 3 3 3 3 3 3 3 3 3 3 3 3 3 3 3 3 3 3 3 3 3 3 3 3 3 3 3 3 3 3 3 3 3 3 3 3 3 3 3 3 3 3 3 3 3 3 3 3 3 3 3 3 3 3 3 3 3 3 3 3 3 3 3 3 3 3 3 3 3 3 3 3 3 3 3 3 3 3 3 3 3 3 3 3 3 3 3 3 3 3 3 3 </vcount>
          <p>0 1 2 3 4 5 6 3 7 8 9 10 8 10 11 11 12 8 13 14 15 13 15 16 16 17 18 16 18 13 19 20 21 22 23 24 25 26 27 28 29 30 28 30 25 22 19 29 22 29 28 31 32 33 34 35 36 37 38 39 37 39 40 41 31 38 41 38 37 42 43 44 45 46 47 48 49 50 51 52 53 54 55 56 57 58 59 60 45 47 50 61 48 53 62 51 56 63 54 59 64 57 65 66 67 68 69 70 71 72 73 74 75 76 77 78 79 80 65 67 73 81 71 70 82 68 79 83 77 76 84 74 85 86 87 88 89 90 91 92 93 91 93 94 95 96 97 98 88 90 98 90 99 100 98 99 100 99 101 94 102 91 87 103 104 87 104 85 105 106 107 108 109 110 111 107 112 113 105 107 113 107 111 114 111 112 115 113 111 115 111 114 116 115 114 116 114 117 118 116 117 119 120 121 119 121 122 123 119 122 123 122 124 125 123 124 125 124 126 127 125 126 127 126 128 129 127 128 129 128 130 131 132 133 134 135 136 137 134 138 139 137 140 141 139 142 133 141 143 131 133 144 131 144 145 146 147 148 149 146 150 151 149 152 153 151 154 155 153 156 131 145 157 131 157 158 159 160 161 162 159 163 164 162 165 166 164 167 158 166 168 131 158 169 131 169 170 171 172 120 171 120 119 173 171 119 173 119 123 174 173 123 174 123 125 175 174 125 175 125 127 176 175 127 176 127 129 131 170 132 0 177 1 177 7 1 1 7 178 7 179 178 3 5 7 5 179 7 180 181 0 181 177 0 180 0 182 0 2 182 182 2 183 181 6 177 6 7 177 19 22 20 22 24 20 25 27 28 27 23 28 28 23 22 184 36 40 36 35 40 40 35 37 35 34 37 37 34 41 34 185 41 41 185 186 185 184 186 186 184 32 184 40 32 32 40 33 40 39 33 31 41 32 41 186 32 185 34 184 34 36 184 44 43 187 43 188 187 45 189 46 189 190 46 189 191 190 191 192 190 191 193 192 193 194 192 51 58 52 58 57 52 193 195 194 195 196 194 195 197 196 197 198 196 197 199 198 199 200 198 199 60 200 60 47 200 50 63 61 63 56 61 65 201 66 201 202 66 201 203 202 203 204 202 203 205 204 205 206 204 71 78 72 78 77 72 205 207 206 207 208 206 207 209 208 209 210 208 209 211 210 211 212 210 211 80 212 80 67 212 70 84 82 84 76 82 88 95 89 95 97 89 107 106 112 106 110 112 112 110 213 110 109 213 213 109 214 105 108 106 108 110 106 214 118 215 118 117 215 215 117 112 117 114 112 214 215 213 215 112 213 216 217 218 217 219 218 134 136 138 136 220 138 138 220 221 137 138 140 138 221 140 140 221 222 139 140 142 140 222 142 142 222 223 141 142 143 142 223 143 143 223 224 133 143 144 143 224 144 144 224 145 219 217 225 217 226 225 146 148 150 148 227 150 150 227 228 149 150 152 150 228 152 152 228 229 151 152 154 152 229 154 154 229 230 153 154 156 154 230 156 156 230 231 155 156 232 156 231 232 232 231 233 226 217 234 217 235 234 159 161 163 161 236 163 163 236 237 162 163 165 163 237 165 165 237 238 164 165 167 165 238 167 167 238 239 166 167 168 167 239 168 168 239 240 158 168 169 168 240 169 169 240 170 235 217 241 217 216 241 </p>
        </polylist>
      </mesh>
    </geometry>
  </library_geometries>
  <library_visual_scenes>
    <visual_scene id="myScene" name="myScene">
      <node id="wg007" name="wg007">
        <matrix>1.94707e-007 0 1 0 0 1 0 0 -1 0 1.94707e-007 0 0 0 0 1</matrix>
        <node id="grenade" name="grenade">
          <matrix>1.94707e-007 -0 -1 0.191496 0 1 -0 0 1 0 1.94707e-007 -0.0589583 0 0 0 1</matrix>
          <instance_geometry url="#grenade-mesh0">
            <bind_material>
              <technique_common>
                <instance_material symbol="theresonlyone" target="#m0grenade" />
              </technique_common>
            </bind_material>
          </instance_geometry>
          <node id="gcol00" name="gcol00">
            <matrix>1.94707e-007 0 1 7.47319 0 1 0 -0.00893974 -1 0 1.94707e-007 3.08416 0 0 0 1</matrix>
          </node>
          <node id="sp" name="sp">
            <matrix>1.94707e-007 0 1 12.4732 0 1 0 -0.00893974 -1 0 1.94707e-007 3.08416 0 0 0 1</matrix>
          </node>
        </node>
      </node>
    </visual_scene>
  </library_visual_scenes>
  <scene>
    <instance_visual_scene url="#myScene" />
  </scene>
</COLLADA>