<?xml version="1.0" encoding="utf-8"?>
<COLLADA xmlns="http://www.collada.org/2005/11/COLLADASchema" version="1.4.1">
  <asset>
    <contributor>
      <author>Someone</author>
      <authoring_tool>Assimp Collada Exporter</authoring_tool>
    </contributor>
    <created>2000-01-01T23:59:59</created>
    <modified>2000-01-01T23:59:59</modified>
    <unit name="meter" meter="1" />
    <up_axis>Y_UP</up_axis>
  </asset>
  <library_images>
    <image id="m0deth-diffuse-image">
      <init_from>deth.png</init_from>
    </image>
  </library_images>
  <library_effects>
    <effect id="m0deth-fx" name="m0deth">
      <profile_COMMON>
        <newparam sid="m0deth-diffuse-surface">
          <surface type="2D">
            <init_from>m0deth-diffuse-image</init_from>
          </surface>
        </newparam>
        <newparam sid="m0deth-diffuse-sampler">
          <sampler2D>
            <source>m0deth-diffuse-surface</source>
          </sampler2D>
        </newparam>
        <technique sid="standard">
          <phong>
            <emission>
              <color sid="emission">0   0   0   0</color>
            </emission>
            <ambient>
              <color sid="ambient">1   1   1   1</color>
            </ambient>
            <diffuse>
              <texture texture="m0deth-diffuse-sampler" texcoord="CHANNEL0" />
            </diffuse>
            <specular>
              <color sid="specular">0   0   0   0</color>
            </specular>
            <shininess>
              <float sid="shininess">16</float>
            </shininess>
            <reflective>
              <color sid="reflective">0   0   0   0</color>
            </reflective>
          </phong>
        </technique>
      </profile_COMMON>
    </effect>
  </library_effects>
  <library_materials>
    <material id="m0deth" name="m0deth">
      <instance_effect url="#m0deth-fx" />
    </material>
  </library_materials>
  <library_geometries>
    <geometry id="deth-mesh0" name="deth-mesh0">
      <mesh>
        <source id="deth-mesh0-positions" name="deth-mesh0-positions">
          <float_array id="deth-mesh0-positions-array" count="828"> 0.562149 0.377846 7.25832 0.562149 -0.377853 7.25832 -0.219887 -0.377853 7.75979 -0.219887 0.377846 7.75979 2.06252 0.377846 8.70159 0.562149 0.377846 7.25832 -0.219887 0.377846 7.75979 0.499447 0.377846 9.71343 2.06252 -0.377853 8.70159 2.06252 0.377846 8.70159 0.499447 0.377846 9.71343 0.499447 -0.377853 9.71343 0.562149 -0.377853 7.25832 2.06252 -0.377853 8.70159 0.499447 -0.377853 9.71343 -0.219887 -0.377853 7.75979 0.499447 -0.377853 9.71343 0.499447 0.377846 9.71343 -0.219887 0.377846 7.75979 -0.219887 -0.377853 7.75979 1.04407 0.377846 6.33415 1.04407 -0.377853 6.33415 2.91686 0.377846 7.24343 1.04407 0.377846 6.33415 2.91686 -0.377853 7.24343 2.91686 0.377846 7.24343 1.04407 -0.377853 6.33415 2.91686 -0.377853 7.24343 1.25381 -0.377853 5.35264 1.25381 0.377846 5.35264 1.2484 0.377846 4.0589 1.2484 -0.377853 4.0589 1.25381 0.377846 5.35264 3.32485 0.377846 5.56463 3.33026 0.377846 4.0589 1.2484 0.377846 4.0589 3.32485 0.377846 5.56463 3.32485 -0.377853 5.56463 3.33026 -0.377853 4.0589 3.33026 0.377846 4.0589 3.32485 -0.377853 5.56463 1.25381 -0.377853 5.35264 1.2484 -0.377853 4.0589 3.33026 -0.377853 4.0589 0.827518 -0.290001 -0.621859 1.81559 -0.290001 1.00582 1.35955 0 1.00169 0.647766 0 -0.341303 -1.06144 0 -0.345735 -1.20674 -0.290001 -0.723589 -1.20674 0.290001 -0.723589 0.827518 0.290001 -0.621859 -1.20674 -0.290001 -0.723589 -2 1.23516 2.33872 -2 1.23516 0.897516 -2 -1.23516 0.897515 -2 -1.23516 2.33872 -2 1.23516 0.897516 5.27013 1.23516 0.897517 5.27013 -1.23516 0.897517 -2 -1.23516 0.897515 -1.24663 -1.23516 2.90711 -2 -1.23516 2.33872 -2 -1.23516 0.897515 5.27013 -1.23516 0.897517 5.27013 1.23516 4.33872 -1.24663 1.23516 4.33872 -1.24663 -1.23516 4.33872 5.27013 -1.23516 4.33872 -1.24663 1.23516 4.33872 -1.24663 1.23516 2.90711 -1.24663 -1.23516 2.90711 -1.24663 -1.23516 4.33872 -1.24663 1.23516 2.90711 -2 1.23516 2.33872 -2 -1.23516 2.33872 -1.24663 -1.23516 2.90711 5.27013 -1.23516 4.33872 -1.24663 -1.23516 4.33872 -1.24663 1.23516 2.90711 -1.24663 1.23516 4.33872 5.27013 1.23516 4.33872 5.27013 1.23516 0.897517 -2 1.23516 0.897516 -2 1.23516 2.33872 -1.26279 0.404663 -1.10675 -1.65833 0.404663 -2.98832 -3.32322 0.404663 -2.98832 -0.384037 -0.404671 0.947653 -1.26279 -0.404671 -1.10675 -1.65833 -0.404671 -2.98832 -3.32322 -0.404671 -2.98832 -3.32322 0.404663 -2.98832 -1.65833 0.404663 -2.98832 -0.318184 0 0.952538 0.116852 0 -0.197934 0.363209 -0.200928 0.952538 7.28194 -1.88643 4.66017 6.74761 0 6.3691 6.50738 -1.88643 6.25237 6.35739 -3.43268 4.4225 5.76848 -3.43268 5.89332 5.03086 -4.27206 4.0815 6.35739 -3.43268 4.4225 5.76848 -3.43268 5.89332 4.70831 -4.27206 5.37817 4.70831 -4.27206 -0.132057 5.76848 -3.43268 -0.647209 6.3574 -3.43268 0.82361 3.42452 -4.53014 4.75435 5.9227 1.88642 4.66017 5.9227 -1.88643 4.66017 5.9227 -1.88643 0.585945 5.9227 1.88642 0.585945 3.42452 0 4.75435 3.42452 -4.53014 4.75435 4.70831 -4.27206 5.37817 3.42452 0 0.491759 6.74761 0 -1.12299 6.50738 -1.88643 -1.00625 3.42452 -4.53014 0.49176 5.03086 -4.27206 1.16461 5.18925 -4.27206 2.62305 6.50738 1.88642 6.25237 7.58253 0 4.73744 7.28194 1.88642 4.66017 5.76848 3.43267 5.89332 4.70831 4.27206 5.37817 5.76848 3.43267 5.89332 6.35739 3.43267 4.4225 5.03086 4.27206 1.16461 4.70831 4.27206 -0.132057 3.42452 4.53014 0.49176 7.28194 1.88642 0.585946 6.74761 0 -1.12299 6.50738 1.88642 -1.00625 3.42452 4.53014 4.75435 5.03086 4.27206 4.08151 4.70831 4.27206 5.37817 3.42452 4.53014 4.75435 6.50738 1.88642 -1.00625 5.18925 4.27206 2.62306 5.16199 3.87981 0.8505 5.16199 -3.87981 0.850499 5.16199 -3.87981 4.39561 5.16199 3.87981 4.39561 7.58253 0 4.73744 7.28194 -1.88643 4.66017 5.9227 -1.88643 4.66017 7.58253 0 0.508675 7.28194 1.88642 0.585946 5.9227 1.88642 0.585945 7.66229 -1.88643 2.62306 7.28194 -1.88643 0.585945 5.9227 -1.88643 0.585945 7.66229 1.88642 2.62306 7.28194 1.88642 4.66017 5.9227 1.88642 4.66017 5.9227 -1.88643 4.66017 7.28194 -1.88643 4.66017 5.9227 -1.88643 0.585945 7.28194 -1.88643 0.585945 5.9227 1.88642 0.585945 7.28194 1.88642 0.585946 5.9227 1.88642 4.66017 7.28194 1.88642 4.66017 3.42452 4.16772 4.39561 3.42452 4.16772 0.8505 5.16199 3.87981 0.8505 5.16199 3.87981 4.39561 3.42452 -4.16773 0.850499 3.42452 -4.16773 4.39561 5.16199 -3.87981 4.39561 5.16199 -3.87981 0.850499 3.42452 4.16772 0.8505 3.42452 -4.16773 0.850499 5.16199 -3.87981 0.850499 5.16199 3.87981 0.8505 3.42452 -4.16773 4.39561 3.42452 4.16772 4.39561 5.16199 3.87981 4.39561 5.16199 -3.87981 4.39561 10.773 0 1.78392 10.773 0.722435 1.36682 10.773 1.44488 1.78392 5.76686 0 4.28652 10.773 -0.722443 3.86942 10.773 0 4.28652 10.773 0.722435 3.86942 10.773 0 4.28652 10.773 -0.722443 3.86942 10.773 0 1.78392 10.773 -1.44488 2.61812 10.773 -1.44488 1.78392 5.76686 -0.722443 3.86942 5.76686 -0.722443 3.03522 10.773 -0.722443 3.03522 10.773 0.722435 3.03522 10.773 -0.722443 3.03522 10.773 0 2.61812 10.773 -1.44488 1.78392 5.76686 -1.44488 2.61812 5.76686 -1.44488 1.78392 5.76686 0.722435 3.86942 10.773 0.722435 3.86942 10.773 -0.722443 1.36682 5.76686 -0.722443 1.36682 5.76686 0.722435 3.03522 10.773 0.722435 3.03522 10.773 0 1.78392 5.76686 0 1.78392 10.773 -0.722443 1.36682 10.773 -1.44488 2.61812 10.773 -0.722443 3.03522 5.76686 -0.722443 3.03522 5.76686 1.44488 2.61812 5.76686 0.722435 3.03522 10.773 0.722435 3.03522 10.773 1.44488 2.61812 10.773 0 2.61812 5.76686 0 1.78392 10.773 0.722435 1.36682 10.773 0 1.78392 5.76686 1.44488 1.78392 10.773 1.44488 1.78392 5.76686 0.722435 1.36682 6.74761 0 6.3691 6.50738 1.88642 6.25237 5.76848 3.43267 5.89332 6.50738 -1.88643 6.25237 5.76848 -3.43268 5.89332 3.42452 4.53014 0.49176 4.70831 4.27206 -0.132057 5.76848 3.43267 -0.647209 4.70831 -4.27206 -0.132057 3.42452 -4.53014 0.49176 5.76848 -3.43268 -0.647209 1.81559 0.289993 1.00582 -2.5348 0.404663 -0.827318 -3.32322 -0.404671 -2.98832 -2.5348 -0.404671 -0.827318 -1.65833 -0.404671 -2.98832 -0.384037 0.404663 0.947653 -1.63481 0.404663 0.942492 -1.63481 -0.404671 0.942492 0.363209 0.200928 0.952538 3.42452 0 4.75435 3.42452 4.53014 4.75435 3.42452 4.16772 4.39561 3.42452 4.53014 0.49176 3.42452 4.16772 0.8505 3.42452 0 0.491759 3.42452 -4.16773 0.850499 3.42452 -4.53014 0.49176 3.42452 -4.53014 4.75435 6.64658 -3.43268 2.62306 5.76848 -3.43268 -0.647209 6.50738 -1.88643 -1.00625 7.28194 -1.88643 0.585945 7.58253 0 0.508675 6.3574 -3.43268 0.82361 7.66229 -1.88643 2.62306 6.64658 -3.43268 2.62306 6.35739 3.43267 4.4225 7.66229 1.88642 2.62306 6.64658 3.43267 2.62306 6.3574 3.43267 0.82361 5.76848 3.43267 -0.647209 6.64658 3.43267 2.62306 6.3574 3.43267 0.82361 5.76848 3.43267 -0.647209 3.42452 -4.16773 4.39561 10.773 0 2.61812 10.773 -0.722443 3.03522 10.773 0.722435 3.03522 10.773 1.44488 2.61812 </float_array>
          <technique_common>
            <accessor count="276" offset="0" source="#deth-mesh0-positions-array" stride="3">
              <param name="X" type="float" />
              <param name="Y" type="float" />
              <param name="Z" type="float" />
            </accessor>
          </technique_common>
        </source>
        <source id="deth-mesh0-normals" name="deth-mesh0-normals">
          <float_array id="deth-mesh0-normals-array" count="828"> -0.675563 0 -0.737302 -0.794747 0 -0.606941 -0.539794 0 -0.841797 -0.539794 0 -0.841797 0 1 0 0 1 0 0 1 0 0 1 0 0.665873 0 0.746065 0.774957 0 0.632014 0.543418 0 0.839462 0.543418 0 0.839462 0 -1 0 0 -1 0 0 -1 0 0 -1 0 -0.93841 0 0.345525 -0.93841 0 0.345525 -0.93841 0 0.345525 -0.93841 0 0.345525 -0.92458 0 -0.380989 -0.95524 0 -0.295832 0 1 0 0 1 0 0.907668 0 0.419689 0.944315 0 0.329043 0 -1 0 0 -1 0 -0.997739 -8.83917e-010 -0.0672135 -0.990344 0 -0.13863 -0.999991 -1.31909e-009 0.00418104 -0.999991 -1.31909e-009 0.00418104 0 1 0 0 1 0 0 1 0 0 1 0 0.996664 0 0.081611 0.987181 0 0.159607 0.999994 0 0.00359243 0.999994 0 0.00359243 0 -1 0 0 -1 0 0 -1 0 0 -1 0 -0.0864631 -0.88128 -0.464619 0.742156 -0.496223 -0.450518 -0.820706 -0.346169 0.454542 -0.509282 0.00512269 0.860585 -0.0166041 0.334574 0.942223 0.00848278 -0.978238 0.207311 0.0434096 0.494589 -0.868042 0.453062 0.88095 -0.136607 0.00848278 -0.978238 0.207311 -1 0 0 -1 0 0 -1 0 0 -1 0 0 1.96766e-007 1.93026e-007 -1 1.96766e-007 1.93026e-007 -1 1.96766e-007 1.93026e-007 -1 1.96766e-007 1.93026e-007 -1 0 -1 0 0 -1 0 0 -1 0 0 -1 0 -1.46342e-007 -1.93026e-007 1 -1.46342e-007 -1.93026e-007 1 -1.46342e-007 -1.93026e-007 1 -1.46342e-007 -1.93026e-007 1 -1 0 0 -1 0 0 -1 0 0 -1 0 0 -0.60228 0 0.798285 -0.60228 0 0.798285 -0.60228 0 0.798285 -0.60228 0 0.798285 0 -1 0 0 -1 0 0 1 0 0 1 0 0 1 0 0 1 0 0 1 0 0 1 0 0.665512 0.708631 -0.234384 0.875296 0.447214 -0.184004 -0.420126 0.894427 0.153278 0.822356 -0.447214 -0.351754 0.679493 -0.708631 -0.190083 1.96766e-007 1.93026e-007 -1 1.96766e-007 1.93026e-007 -1 1.96766e-007 1.93026e-007 -1 1.96766e-007 1.93026e-007 -1 -0.935361 0 -0.353694 0.701416 0 -0.712752 0.569809 -0.780138 -0.258266 0.8653 -0.387303 0.318201 0.891999 -0.0533397 0.448879 0.840391 -0.381566 0.384904 0.680788 -0.70402 0.202197 0.644578 -0.729629 0.228386 0.393137 -0.914747 0.0931777 0.680788 -0.70402 0.202197 0.644578 -0.729629 0.228386 0.383239 -0.918716 0.0953326 0.415405 -0.900136 -0.131122 0.723847 -0.614823 -0.313109 0.688436 -0.703461 -0.176633 0.162383 -0.986512 0.0206366 1 0 0 1 0 0 1 0 0 1 0 0 -0.437052 -1.0516e-012 0.899436 -0.437052 -1.0516e-012 0.899436 -0.437052 -1.0516e-012 0.899436 -0.437052 -9.46735e-008 -0.899436 -0.437052 -9.46735e-008 -0.899436 -0.437052 -9.46735e-008 -0.899436 0.162383 -0.986512 -0.0206366 0.379282 -0.922913 -0.0661503 0.338873 -0.940727 0.0140359 0.865466 0.259471 0.428535 0.892259 0.0474506 0.449024 0.842705 0.426352 0.328743 0.723847 0.614824 0.313108 0.415406 0.900136 0.131121 0.723847 0.614824 0.313108 0.688436 0.703461 0.176633 0.393136 0.914747 -0.0931778 0.383239 0.918716 -0.0953326 0.162383 0.986512 -0.0206366 0.865301 0.387302 -0.318201 0.891999 0.0533403 -0.448879 0.840391 0.381565 -0.384904 0.162383 0.986512 0.0206366 0.379282 0.922913 0.0661506 -0.437052 -1.0516e-012 0.899436 -0.437052 -1.0516e-012 0.899436 -0.437052 -9.46735e-008 -0.899436 0.338873 0.940728 -0.0140358 -1 0 0 -1 0 0 -1 0 0 -1 0 0 0.0155133 4.72247e-008 -0.99988 0 0.0409267 -0.999162 0.0232623 0.0204732 -0.99952 0.0155131 -1.5783e-007 0.99988 -3.50515e-007 -0.0409272 0.999162 0.0232622 -0.0204734 0.99952 0 1 0 0 1 0 0 1 0 0 -1 0 0 -1 0 0 -1 0 0 1 0 0 1 0 0.0232623 0.0204732 0.99952 0 0.0409267 0.999162 0 -1 0 0 -1 0 0.0232625 -0.0204731 -0.99952 3.50515e-007 -0.0409265 -0.999162 -0.163478 -0.986547 0 -0.163478 -0.986547 0 -0.163478 -0.986547 0 -0.163478 -0.986547 0 -0.163482 0.986546 0 -0.163482 0.986546 0 -0.163482 0.986546 0 -0.163482 0.986546 0 -1.46342e-007 -1.93026e-007 1 -1.46342e-007 -1.93026e-007 1 -1.46342e-007 -1.93026e-007 1 -1.46342e-007 -1.93026e-007 1 1.96766e-007 1.93026e-007 -1 1.96766e-007 1.93026e-007 -1 1.96766e-007 1.93026e-007 -1 1.96766e-007 1.93026e-007 -1 1 0 0 1 0 0 1 0 0 -3.11779e-008 -0.18898 0.981981 -3.11779e-008 -0.755928 0.654655 -3.11778e-008 0.188984 0.98198 1 0 0 1 0 0 1 0 0 1 0 0 1 0 0 1 0 0 -3.11779e-008 -0.944911 0.327327 0 -1 0 0 -1 0 1 0 0 1 0 0 1 0 0 3.11778e-008 -0.944911 -0.327326 -3.11779e-008 -0.944911 0.327327 6.23557e-008 -0.75593 -0.654653 -3.11778e-008 0.75593 0.654653 -3.11778e-008 0.944911 0.327326 1.55889e-007 -0.188984 -0.98198 1.87067e-007 0.18898 -0.981981 0 1 0 0 1 0 8.2489e-008 0.499998 -0.866027 8.2489e-008 0.499998 -0.866027 1 0 0 -3.11779e-008 -0.755928 0.654655 -4.12444e-008 -0.500002 0.866024 -4.12444e-008 -0.500002 0.866024 -3.11778e-008 0.75593 0.654653 -8.2489e-008 0.499998 0.866027 -8.2489e-008 0.499998 0.866027 -3.11778e-008 0.944911 0.327326 1 0 0 1.23733e-007 -0.500002 -0.866024 1.55889e-007 -0.188984 -0.98198 1.23733e-007 -0.500002 -0.866024 6.23559e-008 0.944911 -0.327328 1.24712e-007 0.755928 -0.654655 1.87067e-007 0.18898 -0.981981 -0.437052 -1.0516e-012 0.899436 -0.437052 -1.0516e-012 0.899436 -0.437052 -1.0516e-012 0.899436 -0.437052 -1.0516e-012 0.899436 -0.437052 -1.0516e-012 0.899436 -0.437052 -9.46735e-008 -0.899436 -0.437052 -9.46735e-008 -0.899436 -0.437052 -9.46735e-008 -0.899436 -0.437052 -9.46735e-008 -0.899436 -0.437052 -9.46735e-008 -0.899436 -0.437052 -9.46735e-008 -0.899436 -0.165877 0.983288 0.075034 -0.653477 0.707678 0.268626 -0.840252 -0.447214 0.306557 -0.642139 -0.707678 0.294702 0.437648 -0.894427 -0.0920022 0.411178 0.894427 -0.175877 -0.797263 0.447214 0.405428 -0.398631 -0.894427 0.202714 0.569809 0.780138 -0.258266 -1 0 0 -1 0 0 -1 0 0 -1 0 0 -1 0 0 -1 0 0 -1 0 0 -1 0 0 -1 0 0 0.691114 -0.722544 0.0170507 0.723847 -0.614823 -0.313109 0.865466 -0.259471 -0.428535 0.842705 -0.426351 -0.328744 0.892259 -0.04745 -0.449024 0.688436 -0.703461 -0.176633 0.838829 -0.542488 -0.0455272 0.691114 -0.722544 0.0170507 0.688436 0.703461 0.176633 0.838828 0.542489 0.0455277 0.691115 0.722544 -0.0170498 0.680788 0.70402 -0.202197 0.644577 0.72963 -0.228387 0.691115 0.722544 -0.0170498 0.680788 0.70402 -0.202197 0.644577 0.72963 -0.228387 -1 0 0 1 0 0 1 0 0 1 0 0 1 0 0 </float_array>
          <technique_common>
            <accessor count="276" offset="0" source="#deth-mesh0-normals-array" stride="3">
              <param name="X" type="float" />
              <param name="Y" type="float" />
              <param name="Z" type="float" />
            </accessor>
          </technique_common>
        </source>
        <source id="deth-mesh0-tex0" name="deth-mesh0-tex0">
          <float_array id="deth-mesh0-tex0-array" count="552"> 0.957031 0.582031 0.910156 0.582031 0.910156 0.609375 0.957031 0.609375 0.777902 0.659598 0.861049 0.579241 0.904576 0.607701 0.864397 0.715402 0.644531 0.664063 0.691406 0.664063 0.691406 0.71875 0.644531 0.71875 0.861049 0.579241 0.777902 0.659598 0.864397 0.715402 0.904576 0.607701 0.910156 0.71875 0.957031 0.71875 0.957031 0.609375 0.910156 0.609375 0.957031 0.53125 0.910156 0.53125 0.729911 0.579241 0.833705 0.527344 0.644531 0.582031 0.691406 0.582031 0.833705 0.527344 0.729911 0.579241 0.910156 0.476563 0.957031 0.476563 0.957031 0.402344 0.910156 0.402344 0.821987 0.473214 0.708147 0.488281 0.708705 0.40346 0.822545 0.404576 0.691406 0.488281 0.644531 0.488281 0.644531 0.402344 0.691406 0.402344 0.708147 0.488281 0.821987 0.473214 0.822545 0.404576 0.708705 0.40346 0.852121 0.263114 0.796875 0.355469 0.823153 0.354048 0.863636 0.27983 0.955966 0.280185 0.96317 0.258371 0.96317 0.258371 0.852121 0.263114 0.962713 0.258523 0.972656 0.109375 0.972656 0.0234375 0.832031 0.0234375 0.832031 0.109375 0.820313 0.0273438 0.414063 0.0273438 0.414063 0.0273438 0.820313 0.0273438 0.777344 0.140625 0.820313 0.105469 0.820313 0.0273438 0.414063 0.0273438 0.414063 0.355469 0.777344 0.355469 0.777344 0.214844 0.414063 0.214844 0.972656 0.21875 0.972656 0.140625 0.832031 0.140625 0.832031 0.21875 0.972656 0.140625 0.972656 0.109375 0.832031 0.109375 0.832031 0.140625 0.414063 0.21875 0.777344 0.21875 0.777344 0.140625 0.777344 0.21875 0.414063 0.21875 0.414063 0.0273438 0.820313 0.0273438 0.820313 0.105469 0.464844 0.453125 0.617188 0.484375 0.617188 0.621094 0.296875 0.382813 0.464844 0.453125 0.617188 0.484375 0.617188 0.621094 0.617188 0.621094 0.617188 0.484375 0.910156 0.390625 0.878906 0.304688 0.859375 0.390625 0.23584 0.873047 0.130371 0.971191 0.236572 0.963623 0.321777 0.860352 0.322754 0.942627 0.417259 0.840909 0.342685 0.86044 0.375355 0.942827 0.43679 0.914063 0.4375 0.601563 0.375 0.574219 0.341974 0.656605 0.507813 0.878906 0.0507813 0.84375 0.207031 0.84375 0.207031 0.675781 0.0507813 0.675781 0.972656 0.746094 0.6875 0.746094 0.703125 0.839844 0.210938 0.386719 0.210938 0.515625 0.142904 0.505859 0.507813 0.636719 0.417969 0.675781 0.406641 0.758984 0.236572 0.963623 0.131104 0.878174 0.23584 0.873047 0.322754 0.942627 0.43679 0.914063 0.375355 0.942827 0.342685 0.86044 0.417969 0.675781 0.4375 0.601563 0.507813 0.636719 0.235596 0.643311 0.130859 0.546875 0.23584 0.55249 0.507813 0.878906 0.417259 0.840909 0.703125 0.839844 0.6875 0.746094 0.142904 0.505859 0.406641 0.758984 0.34375 0.257813 0.203125 0.257813 0.203125 0.320313 0.34375 0.320313 0.131104 0.878174 0.23584 0.873047 0.207031 0.84375 0.129991 0.639757 0.0273438 0.644531 0.0507813 0.675781 0.236084 0.760498 0.235596 0.643311 0.207031 0.675781 0.236084 0.760498 0.23584 0.873047 0.207031 0.84375 0.207031 0.84375 0.23584 0.873047 0.207031 0.675781 0.235596 0.643311 0.207031 0.675781 0.235596 0.643311 0.0507813 0.84375 0.0244141 0.873535 0.375 0.332031 0.375 0.246094 0.34375 0.257813 0.34375 0.320313 0.171875 0.246094 0.171875 0.332031 0.203125 0.320313 0.203125 0.257813 0.375 0.246094 0.171875 0.246094 0.203125 0.257813 0.34375 0.257813 0.171875 0.332031 0.375 0.332031 0.34375 0.320313 0.203125 0.320313 0.03125 0.257813 0.0859375 0.230469 0.140625 0.257813 0.398438 0.210938 0.0195313 0.152344 0.0195313 0.210938 0.140625 0.324219 0.0859375 0.355469 0.03125 0.324219 0.140625 0.257813 0.03125 0.324219 0.03125 0.257813 0.398438 0.152344 0.398438 0.0859375 0.0195313 0.0859375 0.140625 0.257813 0.03125 0.257813 0.0859375 0.230469 0.0195313 0.0859375 0.398438 0.152344 0.398438 0.0859375 0.398438 0.152344 0.0195313 0.152344 0.0195313 0.0234375 0.398438 0.0234375 0.398438 0.0859375 0.0195313 0.0859375 0.0195313 0.0859375 0.398438 0.0859375 0.0859375 0.230469 0.0195313 0.152344 0.0195313 0.210938 0.398438 0.210938 0.398438 0.152344 0.398438 0.210938 0.0195313 0.210938 0.0195313 0.152344 0.03125 0.324219 0.398438 0.0859375 0.0195313 0.0234375 0.0195313 0.0859375 0.398438 0.0859375 0.0195313 0.0859375 0.398438 0.0234375 0.972656 0.980469 0.851563 0.960938 0.753906 0.910156 0.851563 0.960938 0.753906 0.910156 0.0546875 0.386719 0.0651042 0.442383 0.0914714 0.477539 0.0651042 0.442383 0.0546875 0.386719 0.0914714 0.477539 0.796875 0.355469 0.441406 0.554688 0.617188 0.621094 0.441406 0.554688 0.617188 0.484375 0.296875 0.382813 0.296875 0.484375 0.296875 0.484375 0.859375 0.390625 0.273438 0.34375 0.390625 0.34375 0.375 0.332031 0.390625 0.234375 0.375 0.246094 0.273438 0.234375 0.171875 0.246094 0.160156 0.234375 0.160156 0.34375 0.323438 0.759375 0.323661 0.572545 0.23584 0.55249 0.235596 0.643311 0.129991 0.639757 0.324219 0.65625 0.236084 0.760498 0.321289 0.759766 0.321777 0.860352 0.236084 0.760498 0.321289 0.759766 0.324219 0.65625 0.323661 0.572545 0.323438 0.759375 0.341974 0.656605 0.375 0.574219 0.171875 0.332031 0.140625 0.324219 0.0859375 0.355469 0.0859375 0.355469 0.140625 0.324219 </float_array>
          <technique_common>
            <accessor count="276" offset="0" source="#deth-mesh0-tex0-array" stride="2">
              <param name="S" type="float" />
              <param name="T" type="float" />
            </accessor>
          </technique_common>
        </source>
        <vertices id="deth-mesh0-vertices">
          <input semantic="POSITION" source="#deth-mesh0-positions" />
          <input semantic="NORMAL" source="#deth-mesh0-normals" />
          <input semantic="TEXCOORD" source="#deth-mesh0-tex0" />
        </vertices>
        <polylist count="221" material="theresonlyone">
          <input offset="0" semantic="VERTEX" source="#deth-mesh0-vertices" />
          <vcount>3 3 3 3 3 3 3 3 3 3 3 3 3 3 3 3 3 3 3 3 3 3 3 3 3 3 3 3 3 3 3 3 3 3 3 3 3 3 3 3 3 3 3 3 3 3 3 3 3 3 3 3 3 3 3 3 3 3 3 3 3 3 3 3 3 3 3 3 3 3 3 3 3 3 3 3 3 3 3 3 3 3 3 3 3 3 3 3 3 3 3 3 3 3 3 3 3 3 3 3 3 3 3 3 3 3 3 3 3 3 3 3 3 3 3 3 3 3 3 3 3 3 3 3 3 3 3 3 3 3 3 3 3 3 3 3 3 3 3 3 3 3 3 3 3 3 3 3 3 3 3 3 3 3 3 3 3 3 3 3 3 3 3 3 3 3 3 3 3 3 3 3 3 3 3 3 3 3 3 3 3 3 3 3 3 3 3 3 3 3 3 3 3 3 3 3 3 3 3 3 3 3 3 3 3 3 3 3 3 3 3 3 3 3 3 3 3 3 3 3 3 </vcount>
          <p>0 1 2 0 2 3 4 5 6 4 6 7 8 9 10 8 10 11 12 13 14 12 14 15 16 17 18 16 18 19 20 21 1 20 1 0 22 23 5 22 5 4 24 25 9 24 9 8 26 27 13 26 13 12 28 29 30 28 30 31 29 28 21 29 21 20 32 33 34 32 34 35 33 32 23 33 23 22 36 37 38 36 38 39 37 36 25 37 25 24 40 41 42 40 42 43 41 40 27 41 27 26 44 45 46 47 48 49 47 49 44 50 51 44 50 44 52 51 50 48 51 48 47 53 54 55 53 55 56 57 58 59 57 59 60 61 62 63 61 63 64 65 66 67 65 67 68 69 70 71 69 71 72 73 74 75 73 75 76 64 77 78 64 78 61 79 80 81 79 81 82 82 83 84 82 84 79 85 86 87 88 89 85 90 91 92 90 92 93 94 95 96 97 98 99 100 97 99 100 99 101 102 103 104 102 104 105 106 107 108 102 105 109 110 111 112 110 112 113 114 115 116 117 118 119 120 121 122 122 102 109 122 109 120 123 124 125 126 123 125 127 128 129 130 131 132 133 134 135 136 127 137 138 139 114 140 118 117 141 130 132 136 137 141 132 136 141 142 143 144 142 144 145 146 147 148 149 150 151 152 153 154 155 156 157 158 159 152 154 158 152 160 161 149 151 160 149 162 163 155 157 162 155 164 165 146 148 164 146 166 167 168 166 168 169 170 171 172 170 172 173 174 175 176 174 176 177 178 179 180 178 180 181 182 183 184 185 186 187 188 189 190 191 192 193 194 195 196 197 188 190 197 190 198 198 199 197 200 201 202 203 185 187 203 187 204 205 200 202 205 202 206 207 203 204 207 204 208 209 205 206 209 206 210 193 211 191 212 213 214 215 216 217 215 217 218 184 219 182 220 221 222 223 215 218 223 218 224 225 223 224 114 226 227 114 227 228 114 228 138 229 226 114 230 229 114 116 230 114 117 231 232 117 232 233 117 233 140 234 235 117 117 119 236 117 236 234 44 46 47 46 237 47 47 237 51 237 45 51 51 45 44 85 87 238 87 239 238 238 239 240 239 241 240 240 241 89 241 86 89 89 86 85 88 85 242 85 238 242 242 238 243 238 240 243 243 240 244 240 89 244 244 89 88 96 95 245 95 94 245 97 124 98 124 123 98 246 247 248 247 249 248 248 249 250 249 251 250 250 251 252 251 253 252 252 253 254 120 106 121 106 108 121 121 108 255 256 257 258 257 259 258 256 258 260 258 261 260 260 261 262 261 97 262 262 97 100 257 134 259 134 133 259 121 255 122 255 103 122 122 103 102 126 125 263 125 264 263 263 264 265 264 133 265 265 133 266 133 135 266 266 135 267 127 129 137 129 268 137 137 268 141 268 269 141 141 269 130 269 270 130 130 270 131 252 254 271 254 246 271 271 246 248 185 194 186 194 196 186 191 272 192 272 273 192 200 212 201 212 214 201 274 219 275 219 184 275 220 225 221 225 224 221 </p>
        </polylist>
      </mesh>
    </geometry>
  </library_geometries>
  <library_visual_scenes>
    <visual_scene id="myScene" name="myScene">
      <node id="wg017" name="wg017">
        <matrix>1.94707e-007 0 1 0 0 1 0 0 -1 0 1.94707e-007 0 0 0 0 1</matrix>
        <node id="deth" name="deth">
          <matrix>1.94707e-007 -0 -1 0 0 1 -0 0 1 0 1.94707e-007 0 0 0 0 1</matrix>
          <instance_geometry url="#deth-mesh0">
            <bind_material>
              <technique_common>
                <instance_material symbol="theresonlyone" target="#m0deth" />
              </technique_common>
            </bind_material>
          </instance_geometry>
          <node id="gcol00" name="gcol00">
            <matrix>1.94707e-007 0 1 10.773 0 1 0 0 -1 0 1.94707e-007 3.45232 0 0 0 1</matrix>
          </node>
          <node id="gcol03" name="gcol03">
            <matrix>2.21972e-007 -1 -2.65684e-007 0.391435 0.707107 -3.09086e-008 0.707107 1.23306 -0.707107 -3.44825e-007 0.707107 3.62144 0 0 0 1</matrix>
          </node>
          <node id="gcol04" name="gcol04">
            <matrix>-0.00199948 -0.999998 7.21193e-008 0.506238 0.707106 -0.0014138 0.707106 3.42227 -0.707105 0.0014139 0.707107 5.72179 0 0 0 1</matrix>
          </node>
          <node id="gcol01" name="gcol01">
            <matrix>1.94707e-007 0 1 10.773 0 1 0 -0.722435 -1 0 1.94707e-007 2.20102 0 0 0 1</matrix>
          </node>
          <node id="gcol02" name="gcol02">
            <matrix>1.94707e-007 0 1 10.773 0 1 0 0.722435 -1 0 1.94707e-007 2.20102 0 0 0 1</matrix>
          </node>
          <node id="sp2" name="sp2">
            <matrix>1.94707e-007 0 1 15.773 0 1 0 -0.722435 -1 0 1.94707e-007 2.20102 0 0 0 1</matrix>
          </node>
          <node id="sp1" name="sp1">
            <matrix>1.94707e-007 0 1 15.773 0 1 0 0.722435 -1 0 1.94707e-007 2.20102 0 0 0 1</matrix>
          </node>
          <node id="sp" name="sp">
            <matrix>1.94707e-007 0 1 15.773 0 1 0 0 -1 0 1.94707e-007 3.45232 0 0 0 1</matrix>
          </node>
        </node>
      </node>
    </visual_scene>
  </library_visual_scenes>
  <scene>
    <instance_visual_scene url="#myScene" />
  </scene>
</COLLADA>