<?xml version="1.0" encoding="utf-8"?>
<COLLADA xmlns="http://www.collada.org/2005/11/COLLADASchema" version="1.4.1">
  <asset>
    <contributor>
      <author>Someone</author>
      <authoring_tool>Assimp Collada Exporter</authoring_tool>
    </contributor>
    <created>2000-01-01T23:59:59</created>
    <modified>2000-01-01T23:59:59</modified>
    <unit name="meter" meter="1" />
    <up_axis>Y_UP</up_axis>
  </asset>
  <library_images>
    <image id="m0jyuraku-diffuse-image">
      <init_from>jyuraku.png</init_from>
    </image>
  </library_images>
  <library_effects>
    <effect id="m0jyuraku-fx" name="m0jyuraku">
      <profile_COMMON>
        <newparam sid="m0jyuraku-diffuse-surface">
          <surface type="2D">
            <init_from>m0jyuraku-diffuse-image</init_from>
          </surface>
        </newparam>
        <newparam sid="m0jyuraku-diffuse-sampler">
          <sampler2D>
            <source>m0jyuraku-diffuse-surface</source>
          </sampler2D>
        </newparam>
        <technique sid="standard">
          <phong>
            <emission>
              <color sid="emission">0   0   0   0</color>
            </emission>
            <ambient>
              <color sid="ambient">1   1   1   1</color>
            </ambient>
            <diffuse>
              <texture texture="m0jyuraku-diffuse-sampler" texcoord="CHANNEL0" />
            </diffuse>
            <specular>
              <color sid="specular">0   0   0   0</color>
            </specular>
            <shininess>
              <float sid="shininess">16</float>
            </shininess>
            <reflective>
              <color sid="reflective">0   0   0   0</color>
            </reflective>
          </phong>
        </technique>
      </profile_COMMON>
    </effect>
  </library_effects>
  <library_materials>
    <material id="m0jyuraku" name="m0jyuraku">
      <instance_effect url="#m0jyuraku-fx" />
    </material>
  </library_materials>
  <library_geometries>
    <geometry id="obj133-mesh0" name="obj133-mesh0">
      <mesh>
        <source id="obj133-mesh0-positions" name="obj133-mesh0-positions">
          <float_array id="obj133-mesh0-positions-array" count="657"> -1.97595 0 0.848783 3.87974 -1.0868 1.29894 -1.65955 -1.0868 1.29895 -1.65955 1.0868 1.29895 3.87974 1.0868 1.29894 4.11047 0 0.848775 1.25275 -1.45063 2.3845 1.25275 1.45063 2.3845 -0.129075 1.43848 2.14798 -2.94083 0 1.56513 -2.94083 -0.658445 1.94528 -2.94083 -0.658445 2.70559 -2.94083 0 3.08574 -2.94083 0.658444 2.70559 -2.94083 0.658444 1.94528 -2.02837 0.995419 3.32086 -2.02837 0 3.73317 3.79946 0 3.73317 -2.02838 -0.995419 1.33002 -2.54667 -0.748233 1.89345 -2.54667 0 1.46145 4.44446 -1.03778 2.32543 5.31303 -0.521997 1.80343 5.31303 -0.738216 2.32543 -2.02838 -1.40773 2.32544 -2.54666 -0.748233 2.75743 -2.54666 -0.748233 2.75743 -2.94083 0 3.08574 -2.94083 -0.658445 2.70559 -2.54667 -0.748233 1.89345 -2.94083 -0.658445 1.94528 -2.54667 0 1.46145 -2.94083 0 1.56513 -2.54667 0.748233 1.89345 -2.94083 0.658444 1.94528 -2.54666 0.748232 2.75743 -2.94083 0.658444 2.70559 -2.54666 0 3.18942 0.126662 0 4.04063 0.143577 0.211436 3.63423 -0.222718 0 3.71572 0.143577 -0.211437 3.63423 1.53017 1.15993 3.48537 1.54708 1.09895 3.04323 1.18078 0.98308 3.30852 1.54708 0.717787 3.42438 1.53017 -1.15993 3.48537 1.54708 -0.717787 3.42438 1.18078 -0.983081 3.30852 3.22286 0 4.01256 3.30921 0.250714 3.56862 3.0526 0 3.71572 3.34576 -0.0828362 4.01256 3.30921 -0.250715 3.56862 3.48523 0 4.01256 3.22286 0 4.01256 3.34576 -0.0828362 4.01256 3.48523 0 4.01256 3.34576 0.0828362 4.01256 -1.64071 -0.341605 -0.77442 -3.25634 0 -2.85971 -2.40784 -0.519239 -3.1354 -1.55934 0 -3.41109 -2.63006 0 -3.81932 -1.08249 0 -0.955798 -0.463113 0 -0.0949655 0.32685 -0.180716 1.05013 0.0582876 0 -0.100562 0.32685 0.180715 1.05013 2.34257 -0.180716 0.932966 1.28546 0.180715 -0.790671 2.34257 0.180715 0.932966 1.28546 -0.180716 -0.790671 -0.87663 -0.0899963 -0.310366 -0.87663 0.0899963 -0.310366 1.05531 0 -0.415099 1.43082 0 0.929693 2.34257 0.180715 0.932966 -1.51043 0.120303 4.14492 -1.47978 0.380467 3.54619 -1.92861 0 3.71572 -0.880929 0 3.71572 -1.64699 0 4.12232 -1.60876 -0.122646 4.57248 -1.6476 0.09093 4.59613 -1.42582 0.181995 4.62401 -1.34948 0 4.17155 -1.51043 -0.120304 4.14492 -1.60876 -0.122646 4.57248 -2.19494 0.0702753 4.7531 -2.19494 -0.0702763 4.7531 -2.39605 0 4.69659 -2.36892 0.0970659 4.82526 -1.61689 -0.0171566 4.42764 -2.19494 -0.0702763 4.7531 -2.84403 -0.0401363 5.07253 -3.29173 0 5.14481 -2.83873 0.0412407 5.07051 -2.51099 0.0369339 4.88851 -2.51099 -0.0369339 4.88851 -2.84138 0.000552177 5.15918 -2.83873 0.0412407 5.07051 -3.31267 0 5.21402 -2.30364 0 4.97434 -2.51099 -0.0369339 4.88851 -2.36892 -0.0970659 4.82526 -3.70828 0.204026 4.68268 -3.91189 0.254325 4.24141 -4.09806 0.0472794 4.40649 -4.13368 -0.0287447 4.77501 -3.93034 -0.0248852 5.00897 -1.94861 -1.4836 2.32544 -1.67036 1.4836 2.99719 -1.94861 1.4836 2.32543 -0.998609 -1.4836 3.27543 -1.67036 -1.4836 2.99719 -0.998612 -1.8737 2.32544 -0.326856 -1.4836 2.99719 -0.0486116 -1.4836 2.32544 -0.326859 -1.4836 1.65368 -0.998612 -1.4836 1.37544 -1.67036 -1.4836 1.65368 -3.65486 -0.479778 5.04544 -3.89286 -0.758164 4.80767 -3.65632 -0.902003 4.89165 -3.42911 -0.847927 5.13573 -3.32745 -0.615501 5.24711 2.74507 -1.43783 2.14641 -0.129075 -1.43848 2.14798 2.74507 1.43783 2.14641 -2.02837 -0.995419 3.32086 3.79946 -0.995419 3.32085 3.79945 -1.40773 2.32543 4.44446 -0.733823 1.59161 5.31303 0 1.58722 4.44446 -0.733823 3.05926 4.44446 0 3.36321 5.31303 -0.521997 2.84743 5.31303 0 3.06365 5.31303 0 3.06365 5.31303 -0.521997 2.84743 2.97821 0 2.32544 5.31303 -0.738216 2.32543 5.31303 -0.521997 1.80343 3.79945 -0.995419 1.33001 4.44446 0 1.28765 5.31303 0.521997 1.80343 3.79945 0 0.917699 4.44446 0.733822 1.59161 5.31303 0.738216 2.32543 -2.02838 0 0.917703 3.79945 0.995419 1.33001 4.44446 1.03778 2.32543 5.31303 0.521997 2.84743 5.31303 0 1.58722 5.31303 0.521997 1.80343 5.31303 0.738216 2.32543 -2.02838 0.995419 1.33002 3.79945 1.40773 2.32543 4.44446 0.733822 3.05926 -2.02838 1.40773 2.32544 3.79946 0.995419 3.32085 5.31303 0.521997 2.84743 -2.54666 0 3.18942 -2.54666 0.748232 2.75743 -2.54667 0.748233 1.89345 0.824965 0 3.71572 2.22847 0.98308 3.30852 1.54708 -1.09895 3.04323 2.22847 -0.983081 3.30852 3.34576 0.0828362 4.01256 3.63889 0 3.71572 -2.40784 0.519239 -3.1354 -1.64071 0.341605 -0.77442 -1.32858 0.52962 0.186243 -0.585618 0 2.47281 -1.32858 -0.52962 0.186243 -2.19404 0 0.467447 -2.19894 0 -0.593043 0.32685 0.180715 1.05013 -0.354539 0 1.05013 -0.463113 0 -0.0949655 -1.47978 -0.380467 3.54619 -1.53931 -0.00699234 4.7906 -1.40198 -0.0565662 4.59613 -2.19494 0.0702753 4.7531 -1.6476 0.09093 4.59613 -2.84403 -0.0401363 5.07253 -3.51081 0.563567 4.88246 -3.62377 0.68648 4.62125 -3.75386 0.530087 4.30268 -3.2649 9.53674e-007 5.20402 -1.94861 -1.4836 2.32544 -1.67036 -1.4836 1.65368 -1.67036 -1.4836 2.99719 -0.998609 1.4836 3.27543 -1.94861 1.4836 2.32543 -1.67036 1.4836 2.99719 -0.998612 1.8737 2.32543 -0.998609 1.4836 3.27543 -0.326856 1.4836 2.99719 -0.998609 -1.4836 3.27543 -0.326856 1.4836 2.99719 -0.326856 -1.4836 2.99719 -0.0486116 1.4836 2.32543 -0.0486116 -1.4836 2.32544 -0.326859 1.4836 1.65368 -0.0486116 1.4836 2.32543 -0.326859 1.4836 1.65368 -0.998612 1.4836 1.37544 -0.326859 -1.4836 1.65368 -0.998612 1.4836 1.37544 -0.998612 -1.4836 1.37544 -1.67036 1.4836 1.65368 -1.67036 1.4836 1.65368 -3.84191 -0.211032 5.28851 -4.05441 -0.35632 5.18605 -4.07842 -0.570148 4.92562 -3.26491 9.53674e-007 5.20402 </float_array>
          <technique_common>
            <accessor count="219" offset="0" source="#obj133-mesh0-positions-array" stride="3">
              <param name="X" type="float" />
              <param name="Y" type="float" />
              <param name="Z" type="float" />
            </accessor>
          </technique_common>
        </source>
        <source id="obj133-mesh0-normals" name="obj133-mesh0-normals">
          <float_array id="obj133-mesh0-normals-array" count="657"> -0.344471 -0.161126 -0.924867 0.451176 -0.792158 -0.411006 -0.704098 -0.705892 0.0772144 -0.562434 0.821825 -0.0909484 0.810601 0.507545 0.292103 0.35455 0.152464 -0.922523 -0.00550137 -0.248417 0.968638 -0.00506217 0.461296 0.887232 -0.257692 0.602451 0.755412 -1 0 0 -1 0 0 -1 0 0 -1 0 0 -1 0 0 -1 0 0 -0.402957 0.570967 0.715278 -0.320344 -0.0880694 0.943199 0.259813 0.00823851 0.965624 -0.402957 -0.570967 -0.715278 -0.765329 -0.571575 -0.295928 -0.766253 0 -0.642539 0.414082 -0.910227 -0.00473611 0.323304 -0.754362 -0.571325 0.323305 -0.937402 0.129428 -0.398234 -0.914374 -0.0730074 -0.765329 -0.571574 0.295931 -0.25008 -0.731909 0.633853 -0.250078 -0.182977 0.950779 -0.250082 -0.914886 0.316926 -0.250083 -0.914886 -0.316926 -0.250082 -0.731909 -0.633852 -0.25008 -0.182977 -0.950778 -0.250081 0.182977 -0.950778 -0.250083 0.731909 -0.633851 -0.250084 0.914886 -0.316925 -0.250082 0.914886 0.316927 -0.25008 0.73191 0.633852 -0.250078 0.182978 0.950779 -0.19302 1.20815e-006 0.981195 -0.0898477 0.885056 0.456731 -0.680992 1.00297e-006 0.732291 -0.089848 -0.885055 0.456733 -0.152527 0.698832 0.698834 -0.092366 0.985902 -0.139519 -0.582076 0.574971 0.574974 -0.0923647 -0.13952 0.985902 -0.152527 -0.698833 0.698833 -0.0923648 0.13952 0.985902 -0.582076 -0.574972 0.574973 -0.467715 0.217679 0.856656 -0.223597 0.907151 0.356485 -0.797989 -0.382588 0.465661 -0.191202 -0.765217 0.614723 0.170992 -0.926907 0.334073 0.456595 -0.249969 0.853836 -0.467715 0.217679 0.856656 -0.191202 -0.765217 0.614723 0.456595 -0.249969 0.853836 0.152252 0.784658 0.600941 -0.0184607 -0.998402 -0.0534091 -0.945179 -0.324305 -0.0382516 0.049668 -0.970476 -0.236029 0.742181 0.324306 -0.586508 -0.309019 0 -0.951056 0.916682 -0.00309707 -0.399605 0.886485 -0.325325 -0.329101 0.578193 -0.774506 -0.256581 0.748492 5.778e-007 -0.663144 0.578193 0.774505 -0.256581 0.747156 -0.481436 -0.458232 0.400507 0.860886 -0.313799 0.156455 0.979142 -0.129625 -0.0550469 -0.839145 -0.541116 -0.0487858 -0.991337 -0.12195 -0.208455 0.491593 -0.845507 -0.43646 0.0256566 0.899358 -0.682678 -0.689474 0.242023 0.156455 0.979142 -0.129625 -0.124154 0.968509 0.215817 -0.0722085 0.916106 0.39438 -0.843402 1.0462e-006 0.537283 0.716601 9.62034e-007 0.697484 -0.983887 -0.0508015 0.171421 -0.542026 -0.815963 0.201027 -0.832171 0.515253 0.204953 0.522864 0.789901 0.320421 0.964055 0.0160392 0.265219 -0.00519647 -0.964814 0.262883 0.201259 -0.519455 0.830459 0.355285 0.882692 0.307617 0.27725 -0.958733 0.0629501 -0.569182 -0.00526252 -0.822195 -0.127453 0.991781 -0.011235 -0.345798 -0.0011948 -0.938308 0.27725 -0.958733 0.0629501 -0.112988 -0.967775 -0.225046 -0.317552 -0.0128544 -0.948154 -0.217314 0.884343 -0.413174 -0.554679 0.763451 -0.33087 -0.587917 -0.637594 -0.497823 0.223714 0.00165026 0.974653 -0.217314 0.884343 -0.413174 -0.115668 0.00320715 0.993283 0.452191 0.000160137 0.891921 -0.587917 -0.637594 -0.497823 -0.127455 -0.991781 -0.0112341 -0.686578 0.582911 0.434541 -0.706645 0.58831 0.393121 -0.504239 0.829256 0.240992 -0.426655 0.87319 0.235593 -0.287929 0.86502 0.410898 -0.883518 -0.458453 0.096 -0.692619 0.458452 0.556867 -0.883519 0.458453 -0.0959956 0.0959944 -0.458452 0.883519 -0.556861 -0.458451 0.692624 -2.24218e-007 -1 5.76851e-007 0.692623 -0.458453 0.556861 0.883519 -0.458453 -0.0959966 0.556863 -0.458453 -0.692622 -0.0959964 -0.458453 -0.883519 -0.69262 -0.458452 -0.556865 -0.270052 -0.431592 0.860697 -0.295622 -0.461623 0.836368 -0.582999 -0.276289 0.764053 -0.624485 -0.197635 0.755618 -0.529569 -0.0174033 0.848089 0.424674 -0.602735 0.675546 -0.314949 -0.787254 0.530131 0.255669 0.796461 0.547982 -0.404673 -0.677221 0.614501 0.259813 -0.676974 0.688624 0.259812 -0.965624 0.00823759 0.414081 -0.640279 -0.646977 0.323303 -0.129428 -0.937403 0.414083 -0.646976 0.640279 0.414083 -0.00473578 0.910227 0.323305 -0.571325 0.754362 0.323305 0.129428 0.937402 0.301465 0 -0.953477 0.301465 0.67421 -0.67421 1 0 -2.60407e-006 0.301467 0.953477 -2.27501e-006 0.301468 0.674209 0.67421 0.259812 -0.688625 -0.676974 0.414081 0.00473506 -0.910228 0.323303 0.571324 -0.754364 0.259812 -0.00823836 -0.965624 0.414081 0.646976 -0.64028 0.323304 0.937402 -0.129428 -0.320345 0.0880693 -0.943198 0.259812 0.676974 -0.688625 0.414082 0.910227 0.00473434 0.323305 0.754364 0.571323 0.301468 0 0.953476 0.301468 -0.674209 0.67421 0.301467 -0.953477 -2.27501e-006 -0.404673 0.677222 -0.614501 0.259813 0.965624 -0.00823923 0.414083 0.64028 0.646975 -0.398234 0.914374 0.0730094 0.259813 0.688625 0.676973 0.301465 -0.67421 -0.67421 -0.766253 4.69602e-008 0.642539 -0.765329 0.571573 0.295931 -0.765329 0.571575 -0.295928 0.421852 1.00315e-006 0.906665 0.337185 0.665697 0.665698 -0.0923657 -0.985902 -0.139521 0.337185 -0.665697 0.665697 0.152252 0.784658 0.600941 0.795989 0.439519 0.416202 -0.178918 0.970476 -0.161757 -0.0164586 0.998402 -0.0540589 0.102764 0.992984 -0.0585078 0.309013 0 0.951058 -0.11753 -0.992983 0.0130704 -0.910622 0.325324 0.254818 -0.976493 0.00309718 0.215525 0.578193 0.774505 -0.256581 -0.941258 6.59326e-007 -0.337689 0.138876 0.610451 0.779784 -0.0722086 -0.916107 0.394379 -0.106082 -0.176646 0.978541 0.726814 -0.627246 0.279828 0.355285 0.882692 0.307617 0.101787 0.876622 0.47029 -0.112988 -0.967775 -0.225046 -0.812055 0.129863 0.568949 -0.902124 0.206277 0.378975 -0.88761 0.291524 0.356598 -0.536252 0.524495 0.661316 -0.883518 -0.458453 0.096 -0.69262 -0.458452 -0.556865 -0.556861 -0.458451 0.692624 -0.0959965 0.458453 0.883519 -0.883519 0.458453 -0.0959956 -0.692619 0.458452 0.556867 -2.24218e-007 1 -5.80928e-007 -0.0959965 0.458453 0.883519 0.556864 0.458454 0.692621 0.0959944 -0.458452 0.883519 0.556864 0.458454 0.692621 0.692623 -0.458453 0.556861 0.88352 0.458453 0.0959922 0.883519 -0.458453 -0.0959966 0.692621 0.458453 -0.556863 0.88352 0.458453 0.0959922 0.692621 0.458453 -0.556863 0.0959945 0.458452 -0.883519 0.556863 -0.458453 -0.692622 0.0959945 0.458452 -0.883519 -0.0959964 -0.458453 -0.883519 -0.556862 0.458452 -0.692623 -0.556862 0.458452 -0.692623 0.189557 -0.582772 0.790219 0.0278882 -0.710525 0.703119 -0.0569933 -0.689831 0.721724 -0.105787 -0.233495 0.966586 </float_array>
          <technique_common>
            <accessor count="219" offset="0" source="#obj133-mesh0-normals-array" stride="3">
              <param name="X" type="float" />
              <param name="Y" type="float" />
              <param name="Z" type="float" />
            </accessor>
          </technique_common>
        </source>
        <source id="obj133-mesh0-tex0" name="obj133-mesh0-tex0">
          <float_array id="obj133-mesh0-tex0-array" count="438"> 0.855469 0.507813 0.207031 0.640625 0.820313 0.640625 0.820313 0.640625 0.207031 0.640625 0.175781 0.507813 0.496094 0.765625 0.496094 0.765625 0.648438 0.742188 0.196875 0.0308594 0.122266 0.0742188 0.122266 0.155469 0.197266 0.199609 0.266797 0.157422 0.266797 0.0734375 0.860658 0.868798 0.860658 0.914153 0.213553 0.914153 0.860658 0.649803 0.918208 0.71178 0.918208 0.664261 0.141934 0.7593 0.0454903 0.701879 0.0454903 0.7593 0.860658 0.7593 0.918208 0.80682 0.918208 0.80682 0.961975 0.842935 0.961975 0.801118 0.918208 0.71178 0.961975 0.717483 0.918208 0.664261 0.961975 0.675665 0.918208 0.71178 0.961975 0.717483 0.918208 0.80682 0.961975 0.801118 0.918208 0.85434 0.62137 0.947974 0.619491 0.90327 0.660164 0.912234 0.619491 0.90327 0.46875 0.867188 0.463651 0.838258 0.504323 0.867441 0.463651 0.880186 0.46875 0.867188 0.463651 0.880186 0.504323 0.867441 0.277577 0.944886 0.267988 0.896052 0.296482 0.912234 0.263931 0.944886 0.267988 0.896052 0.248444 0.944886 0.28125 0.972656 0.265625 0.984375 0.25 0.972656 0.265625 0.960938 0.832031 0.289063 0.972656 0.105469 0.898438 0.0820313 0.824219 0.0546875 0.917969 0.0195313 0.78125 0.273438 0.726563 0.347656 0.675781 0.186328 0.700781 0.0820313 0.676172 0.186328 0.0327148 0.556641 0.110352 0.430664 0.0332031 0.556641 0.110352 0.430664 0.265625 0.464844 0.265625 0.464844 0.127457 0.461897 0.0996094 0.556641 0.0327148 0.556641 0.208504 0.322206 0.204327 0.228365 0.272536 0.25631 0.115385 0.255709 0.229267 0.318209 0.225361 0.38762 0.229267 0.392127 0.194411 0.393029 0.183894 0.324219 0.208504 0.322206 0.225361 0.38762 0.314986 0.415838 0.314986 0.416193 0.34517 0.40554 0.341525 0.427835 0.225 0.3661 0.314986 0.415838 0.415483 0.463778 0.482599 0.474432 0.415128 0.463778 0.363636 0.434659 0.363991 0.434659 0.411222 0.476207 0.415483 0.463778 0.485795 0.48473 0.332741 0.449219 0.363636 0.434659 0.341525 0.427835 0.592014 0.353299 0.591146 0.268229 0.538194 0.282986 0.511719 0.334201 0.52474 0.385417 0.0246049 0.144531 0.373833 0.224725 0.373833 0.144531 0.511719 0.254978 0.589982 0.222629 0.511719 0.144531 0.433455 0.222629 0.401037 0.144531 0.433455 0.0664334 0.511719 0.0340842 0.0246049 0.0643378 0.592014 0.353299 0.591146 0.268229 0.538194 0.282986 0.511719 0.334201 0.52474 0.385417 0.332031 0.742188 0.648438 0.742188 0.332031 0.742188 0.860658 0.868798 0.213553 0.868798 0.213553 0.7593 0.141934 0.678579 0.0454903 0.678095 0.141934 0.840022 0.141934 0.873457 0.0454903 0.81672 0.0454903 0.840505 0.744377 0.840419 0.68832 0.815329 0.744946 0.758023 0.663848 0.759163 0.688889 0.701002 0.213554 0.649803 0.141934 0.645143 0.0454903 0.701879 0.213554 0.604447 0.141934 0.678579 0.0454903 0.7593 0.860658 0.604447 0.213554 0.649803 0.141934 0.7593 0.0454903 0.81672 0.744092 0.677623 0.802452 0.702071 0.825918 0.759158 0.860658 0.649803 0.213553 0.7593 0.141934 0.840022 0.860658 0.7593 0.213553 0.868798 0.802452 0.816245 0.918208 0.85434 0.918208 0.80682 0.918208 0.71178 0.543832 0.912234 0.387991 0.867441 0.463651 0.838258 0.387991 0.867441 0.263931 0.944886 0.231382 0.912234 0.898438 0.0820313 0.832031 0.289063 0.804899 0.373263 0.738281 0.574219 0.804899 0.373263 0.882813 0.398438 0.882813 0.304688 0.675781 0.186328 0.736719 0.184766 0.23877 0.48291 0.204327 0.228365 0.21274 0.420373 0.192308 0.390325 0.314986 0.416193 0.229267 0.392127 0.415128 0.463778 0.654514 0.385417 0.667101 0.333333 0.642361 0.281684 0.591146 0.478299 0.6224 0.144531 0.589982 0.0664334 0.0246049 0.224725 0.373833 0.257942 0.6224 0.144531 0.589982 0.222629 0.511719 0.144531 0.511719 0.254978 0.433455 0.222629 0.0246049 0.257942 0.373833 0.224725 0.0246049 0.224725 0.373833 0.144531 0.0246049 0.144531 0.373833 0.0643378 0.401037 0.144531 0.433455 0.0664334 0.511719 0.0340842 0.0246049 0.0643378 0.373833 0.0311206 0.0246049 0.0311206 0.373833 0.0643378 0.589982 0.0664334 0.654514 0.385417 0.667101 0.333333 0.642361 0.281684 0.591146 0.478299 </float_array>
          <technique_common>
            <accessor count="219" offset="0" source="#obj133-mesh0-tex0-array" stride="2">
              <param name="S" type="float" />
              <param name="T" type="float" />
            </accessor>
          </technique_common>
        </source>
        <vertices id="obj133-mesh0-vertices">
          <input semantic="POSITION" source="#obj133-mesh0-positions" />
          <input semantic="NORMAL" source="#obj133-mesh0-normals" />
          <input semantic="TEXCOORD" source="#obj133-mesh0-tex0" />
        </vertices>
        <polylist count="262" material="theresonlyone">
          <input offset="0" semantic="VERTEX" source="#obj133-mesh0-vertices" />
          <vcount>3 3 3 3 3 3 3 3 3 3 3 3 3 3 3 3 3 3 3 3 3 3 3 3 3 3 3 3 3 3 3 3 3 3 3 3 3 3 3 3 3 3 3 3 3 3 3 3 3 3 3 3 3 3 3 3 3 3 3 3 3 3 3 3 3 3 3 3 3 3 3 3 3 3 3 3 3 3 3 3 3 3 3 3 3 3 3 3 3 3 3 3 3 3 3 3 3 3 3 3 3 3 3 3 3 3 3 3 3 3 3 3 3 3 3 3 3 3 3 3 3 3 3 3 3 3 3 3 3 3 3 3 3 3 3 3 3 3 3 3 3 3 3 3 3 3 3 3 3 3 3 3 3 3 3 3 3 3 3 3 3 3 3 3 3 3 3 3 3 3 3 3 3 3 3 3 3 3 3 3 3 3 3 3 3 3 3 3 3 3 3 3 3 3 3 3 3 3 3 3 3 3 3 3 3 3 3 3 3 3 3 3 3 3 3 3 3 3 3 3 3 3 3 3 3 3 3 3 3 3 3 3 3 3 3 3 3 3 3 3 3 3 3 3 3 3 3 3 3 3 3 3 3 3 3 3 3 3 3 3 3 3 </vcount>
          <p>0 1 2 3 4 5 6 7 8 9 10 11 9 11 12 12 13 14 12 14 9 15 16 17 18 19 20 21 22 23 19 18 24 24 25 19 26 27 28 29 26 28 29 28 30 31 29 30 31 30 32 33 31 32 33 32 34 35 33 34 35 34 36 37 35 36 38 39 40 40 41 38 42 43 44 44 45 42 46 47 48 49 50 51 52 49 51 52 51 53 54 52 53 55 56 57 55 57 58 59 60 61 62 61 63 59 64 65 64 59 61 64 61 62 66 67 68 69 70 71 72 73 74 75 76 77 75 77 70 72 69 76 72 76 75 78 79 80 81 79 78 82 83 84 78 84 85 85 86 78 83 82 87 84 78 82 88 89 90 91 92 89 93 88 94 95 96 97 98 91 99 98 92 91 100 101 102 103 95 104 103 104 105 101 100 103 106 107 108 106 108 109 106 109 110 111 112 113 114 115 116 117 114 116 118 117 116 119 118 116 120 119 116 121 111 113 122 123 124 122 124 125 122 125 126 127 6 128 6 8 128 128 8 3 8 129 3 3 129 4 129 127 4 4 127 1 127 128 1 1 128 2 128 3 2 2 3 0 3 5 0 0 5 1 5 4 1 8 7 129 7 6 129 129 6 127 16 130 131 130 132 131 131 132 21 132 133 21 21 133 22 133 134 22 16 131 17 131 135 17 17 135 136 135 137 136 136 137 138 139 140 141 140 142 141 141 142 143 130 24 132 24 144 132 132 144 133 144 145 133 133 145 134 145 146 134 24 18 144 18 147 144 144 147 145 147 148 145 145 148 146 148 149 146 18 150 147 150 151 147 147 151 148 151 152 148 148 152 149 152 153 149 143 154 141 154 155 141 141 155 156 150 157 151 157 158 151 151 158 152 158 159 152 152 159 153 159 138 153 157 160 158 160 161 158 158 161 159 161 136 159 159 136 138 160 15 161 15 17 161 161 17 136 156 162 141 162 139 141 130 16 163 16 15 163 163 15 164 15 160 164 164 160 165 160 157 165 165 157 20 157 150 20 20 150 18 24 130 25 130 163 25 131 21 135 21 23 135 135 23 137 26 37 27 37 36 27 39 38 166 38 41 166 43 42 167 42 45 167 48 168 46 168 169 46 46 169 47 49 170 50 170 171 50 170 54 171 54 53 171 61 60 63 60 172 63 63 172 62 172 173 62 62 173 64 173 174 64 64 174 65 174 175 65 65 175 176 175 177 176 176 177 178 177 173 178 178 173 172 178 59 176 59 65 176 59 178 60 178 172 60 173 177 174 177 175 174 179 67 180 67 66 180 69 72 70 72 74 70 70 74 181 70 181 75 181 73 75 75 73 72 87 82 80 82 78 80 78 86 81 86 87 81 81 87 182 87 80 182 85 84 183 84 83 183 183 83 184 83 87 184 184 87 86 86 85 184 85 183 184 104 91 105 91 94 105 105 94 103 94 185 103 88 186 89 186 93 89 89 93 91 93 94 91 89 92 103 92 98 103 103 98 101 98 99 101 101 99 187 103 100 95 100 102 95 95 102 96 102 101 96 188 189 106 189 190 106 106 190 107 110 191 106 191 188 106 115 192 116 192 193 116 116 193 120 111 194 112 194 195 112 196 197 198 197 199 198 198 199 200 194 201 195 201 202 195 201 203 202 203 204 202 203 205 204 205 206 204 200 207 198 207 208 198 198 208 209 205 210 206 210 211 206 210 212 211 212 213 211 212 121 213 121 113 213 209 214 198 214 196 198 215 216 122 216 217 122 122 217 123 126 218 122 218 215 122 </p>
        </polylist>
      </mesh>
    </geometry>
  </library_geometries>
  <library_visual_scenes>
    <visual_scene id="myScene" name="myScene">
      <node id="wg010" name="wg010">
        <matrix>1.94707e-007 0 1 0 0 1 0 0 -1 0 1.94707e-007 0 0 0 0 1</matrix>
        <node id="obj133" name="obj133">
          <matrix>1.94707e-007 -0 -1 0 0 1 -0 0 1 0 1.94707e-007 0 0 0 0 1</matrix>
          <instance_geometry url="#obj133-mesh0">
            <bind_material>
              <technique_common>
                <instance_material symbol="theresonlyone" target="#m0jyuraku" />
              </technique_common>
            </bind_material>
          </instance_geometry>
          <node id="gcol00" name="gcol00">
            <matrix>1.94707e-007 0 1 5.31756 0 1 0 -0.0103936 -1 0 1.94707e-007 2.32334 0 0 0 1</matrix>
          </node>
          <node id="sp" name="sp">
            <matrix>1.94707e-007 0 1 10.3176 0 1 0 -0.0103936 -1 0 1.94707e-007 2.32334 0 0 0 1</matrix>
          </node>
        </node>
      </node>
    </visual_scene>
  </library_visual_scenes>
  <scene>
    <instance_visual_scene url="#myScene" />
  </scene>
</COLLADA>